<?xml version="1.0" encoding="UTF-8" standalone="no"?>
<!-- Created with Inkscape (http://www.inkscape.org/) -->

<svg
   width="211.66666mm"
   height="211.66667mm"
   viewBox="0 0 211.66666 211.66667"
   version="1.1"
   id="svg1"
   xml:space="preserve"
   inkscape:export-filename="bitmap2.svg"
   inkscape:export-xdpi="96"
   inkscape:export-ydpi="96"
   xmlns:inkscape="http://www.inkscape.org/namespaces/inkscape"
   xmlns:sodipodi="http://sodipodi.sourceforge.net/DTD/sodipodi-0.dtd"
   xmlns="http://www.w3.org/2000/svg"
   xmlns:svg="http://www.w3.org/2000/svg"><sodipodi:namedview
     id="namedview1"
     pagecolor="#ffffff"
     bordercolor="#000000"
     borderopacity="0.25"
     inkscape:showpageshadow="2"
     inkscape:pageopacity="0.0"
     inkscape:pagecheckerboard="0"
     inkscape:deskcolor="#d1d1d1"
     inkscape:document-units="mm" /><defs
     id="defs1" /><g
     inkscape:label="Layer 1"
     inkscape:groupmode="layer"
     id="layer1"
     transform="translate(40.842801,-28.981731)"><g
       id="g1"
       transform="matrix(0.26458333,0,0,0.26458333,-40.843073,28.981728)"><circle
         style="fill:#ffffff;fill-opacity:1;stroke:none;stroke-width:1.00985"
         cx="591.20502"
         cy="428.08701"
         r="400"
         transform="translate(-191.204,-28.087)"
         id="circle1" /><path
         style="fill:#000000;stroke-width:0.690041"
         d="m 414.385,649.83 c -7.292,-2.24 -17.093,-10.512 -23.066,-19.465 -3.674,-5.508 -4.319,-7.88 -4.323,-15.906 l -0.004,-6.47 -2.243,0.456 c -10.333,2.096 -21.807,0.836 -28.81,-3.163 -4.894,-2.796 -14.933,-12.971 -17.595,-17.834 l -2.07,-3.782 -0.212,-19.447 c -0.221,-20.313 0.09,-23.404 2.686,-26.705 0.79,-1.004 5.456,-4.804 10.369,-8.445 l 8.933,-6.62 -3.026,-3.549 c -6.529,-7.655 -11.011,-19.36 -12.314,-32.155 -0.631,-6.202 -0.571,-8.235 0.38,-12.93 1.362,-6.724 3.273,-11.574 6.773,-17.191 1.445,-2.318 2.626,-4.57 2.626,-5.003 0,-0.433 -0.888,-0.788 -1.973,-0.788 -1.086,0 -3.407,-0.196 -5.158,-0.436 -3.028,-0.415 -3.22,-0.341 -3.928,1.522 -1.207,3.173 -2.715,15.332 -2.729,21.994 -0.007,3.396 0.501,10.095 1.128,14.885 0.628,4.791 0.926,9.57 0.662,10.619 -1.263,5.035 -6.719,6.82 -10.674,3.492 -4.311,-3.628 -4.424,-8.7 -0.424,-19.086 1.271,-3.299 2.64,-8.367 3.043,-11.263 0.808,-5.808 0.889,-16.21 0.164,-21.037 -0.437,-2.908 -0.657,-3.17 -3.456,-4.138 -2.814,-0.973 -3.047,-0.955 -3.968,0.304 -1.347,1.842 -1.225,4.994 0.393,10.155 1.653,5.275 1.712,6.923 0.341,9.574 -1.912,3.7 -7.389,3.377 -8.36,-0.491 -0.265,-1.057 0.033,-4.347 0.674,-7.442 2.214,-10.68 1.206,-15.816 -3.58,-18.258 -3.796,-1.937 -10.653,-8.426 -14.226,-13.462 -6.409,-9.034 -13.035,-25.569 -14.889,-37.154 -1.047,-6.548 -0.51,-21.517 1.023,-28.448 7.767,-35.14 34.149,-70.032 72.277,-95.589 27.382,-18.354 48.41,-23.528 63.7,-15.675 3.102,1.594 6.897,4.892 15.13,13.15 l 10.99,11.024 9.021,-2.155 c 21.364,-5.103 38.865,-6.833 47.271,-4.671 2.441,0.627 5.94,2.064 7.774,3.193 1.834,1.129 3.647,2.052 4.028,2.052 0.382,0 2.628,-0.793 4.993,-1.764 5.309,-2.178 18.928,-5.057 26.572,-5.616 l 5.711,-0.418 3.192,3.331 3.191,3.331 6.968,-1.158 c 17.545,-2.916 34.103,-3.246 42.66,-0.848 3.56,0.997 4.198,1.002 6.469,0.053 2.585,-1.08 18.072,-5.349 25.463,-7.019 6.16,-1.392 19.83,-1.913 25.876,-0.986 2.847,0.436 6.884,0.965 8.97,1.176 l 3.796,0.383 3.236,-4.513 c 6.044,-8.43 11.619,-10.828 21.9,-9.42 7.98,1.093 18.232,4.13 31.192,9.242 6.213,2.451 12.443,4.667 13.845,4.926 1.874,0.345 4.431,-0.086 9.66,-1.628 8.62,-2.542 41.092,-9.03 47.884,-9.568 6.185,-0.49 8.941,0.406 13.29,4.315 3.55,3.193 10.561,14.012 12.244,18.896 1.362,3.953 0.328,5.973 -5.582,10.91 l -4.83,4.034 -0.53,4.454 c -1.793,15.106 -6.058,40.757 -9.862,59.312 -3.687,17.99 -6.693,27.013 -11.71,35.15 -1.727,2.8 -2.895,5.319 -2.595,5.594 0.3,0.275 5.048,1.441 10.55,2.59 5.504,1.15 11.744,2.742 13.867,3.54 4.875,1.829 11.35,7.598 14.099,12.56 1.776,3.207 2.048,4.4 2.023,8.88 -0.025,4.611 -0.353,5.881 -3.006,11.641 -5.433,11.795 -6.232,24.314 -2.55,39.987 1.929,8.214 1.894,11.043 -0.171,13.78 -1.74,2.308 -5.503,2.713 -7.873,0.849 -2.254,-1.774 -2.5,-4.793 -0.822,-10.081 1.898,-5.982 2.196,-23.878 0.378,-22.754 -0.3,0.186 -1.993,2.828 -3.762,5.871 -3.325,5.724 -5.547,7.54 -10.545,8.617 -1.831,0.395 -2.222,0.852 -2.58,3.017 -0.84,5.083 -0.465,20.436 0.595,24.31 3.795,13.875 3.956,14.768 3.19,17.617 -2.13,7.908 -11.958,9.217 -14.976,1.995 -1.358,-3.25 -1.233,-5.604 0.708,-13.299 3.306,-13.11 3.694,-20.577 1.633,-31.43 -0.724,-3.809 -0.937,-4.125 -3.596,-5.333 -4.323,-1.963 -5.242,-1.759 -5.242,1.166 0,1.365 0.654,4.636 1.454,7.269 1.214,3.996 1.318,5.116 0.63,6.776 -1.094,2.643 -4.298,4.012 -6.559,2.802 -2.798,-1.498 -3.467,-4.232 -2.169,-8.86 1.2,-4.272 1.46,-9.558 0.544,-11.001 -0.725,-1.143 -6.748,-2.101 -14.357,-2.284 l -6.059,-0.146 -0.502,2 c -0.605,2.408 -3.756,25.533 -5.114,37.536 -0.537,4.744 -0.98,12.05 -0.983,16.236 l -0.007,7.61 5.002,1.267 c 17.376,4.4 27.878,17.213 26.476,32.301 -0.958,10.302 -6.342,22.074 -13.687,29.926 -5.866,6.271 -8.41,7.499 -15.596,7.522 l -5.74,0.019 0.565,4.14 c 1.073,7.867 0.642,16.914 -0.977,20.506 -2.047,4.545 -7.13,9.74 -11.422,11.673 -5.313,2.394 -14.489,2.312 -19.845,-0.178 -7.4,-3.44 -11.786,-8.819 -13.133,-16.106 -0.603,-3.259 -0.482,-5.624 0.667,-13.043 2.093,-13.515 2.445,-18.653 1.341,-19.559 -0.975,-0.8 -5.336,-1.519 -20.93,-3.451 -15.216,-1.886 -55.462,-1.676 -73.49,0.383 -17.265,1.971 -28.672,3.784 -42.437,6.745 -52.32,11.25 -97.752,29.264 -135.21,53.609 -5.292,3.44 -10.726,6.648 -12.076,7.13 -3.24,1.16 -8.565,1.085 -12.667,-0.175 z m 13.36,-8.791 c 2.065,-1.273 8.257,-5.172 13.76,-8.664 14.182,-8.998 40.207,-21.66 59.688,-29.038 44.28,-16.772 86.576,-26.444 130.073,-29.742 13.487,-1.023 47.312,-0.411 59.689,1.079 7.96,0.958 22.111,3.198 26.394,4.178 1.504,0.344 1.552,0.612 1.552,8.668 0,4.883 -0.567,11.963 -1.374,17.156 -1.565,10.067 -1.25,13.613 1.585,17.898 5.795,8.756 21.455,8.129 26.53,-1.063 2.473,-4.48 2.621,-9.598 0.576,-19.904 -0.979,-4.934 -1.78,-11.067 -1.782,-13.628 l -0.003,-4.658 h 2.42 c 1.975,0 3.184,0.7 6.55,3.795 3.26,2.998 4.601,3.792 6.377,3.78 10.028,-0.067 21.332,-17.115 21.495,-32.417 0.064,-6.094 -1.298,-9.247 -6.31,-14.606 -4.1,-4.383 -9.738,-7.02 -18.68,-8.737 -3.917,-0.753 -7.242,-1.488 -7.387,-1.633 -1.128,-1.128 2.688,-37.776 6.593,-63.315 1.129,-7.382 2.052,-13.714 2.052,-14.07 0,-0.393 4.412,-0.496 11.214,-0.262 11.918,0.41 22.188,1.986 32.259,4.952 9.477,2.79 11.13,2.422 14.78,-3.291 7.788,-12.19 15.582,-29.387 15.582,-34.381 0,-4.657 -3.27,-9.388 -9.37,-13.559 -3.23,-2.208 -14.985,-4.34 -37.127,-6.73 l -4.06,-0.44 4.122,-4.25 c 8.246,-8.506 10.917,-12.81 15.029,-24.217 4.798,-13.312 10.143,-38.914 14.184,-67.941 1.142,-8.2 2.545,-16.193 3.12,-17.761 0.793,-2.17 2.038,-3.55 5.211,-5.775 4.971,-3.487 4.973,-3.763 0.065,-11.947 -6.519,-10.873 -8.351,-11.783 -19.743,-9.81 -19.998,3.462 -33.624,6.568 -38.488,8.772 -4.45,2.017 -5.751,2.29 -10.918,2.29 -5.721,0 -6.094,-0.105 -15.18,-4.262 -13.551,-6.198 -22.442,-8.92 -35.775,-10.951 -4.26,-0.649 -8.667,0.761 -11.124,3.56 -2.505,2.852 -3.148,6.006 -2.162,10.602 1.348,6.286 1.363,6.271 -3.9,3.682 -8.348,-4.105 -14.202,-5.252 -27.084,-5.303 -10.202,-0.04 -12.169,0.152 -18.908,1.843 -16.993,4.263 -19.703,5.522 -21.118,9.81 -0.942,2.851 -1.328,2.935 -3.395,0.735 -3.949,-4.204 -13.905,-6.346 -26.272,-5.651 -8.758,0.492 -21.251,2.45 -28.513,4.472 l -4.705,1.309 -0.643,-1.69 c -0.353,-0.93 -0.643,-2.078 -0.643,-2.551 0,-0.473 -0.673,-1.583 -1.496,-2.467 -1.423,-1.527 -1.808,-1.584 -7.763,-1.165 -9.787,0.689 -17.877,2.743 -24.847,6.308 l -6.16,3.152 -2.81,-2.748 c -4.774,-4.665 -7.64,-5.548 -18.073,-5.565 -13.253,-0.022 -33.14,3.888 -48.942,9.625 -4.127,1.498 -7.586,2.64 -7.688,2.538 -0.102,-0.102 0.448,-1.852 1.223,-3.89 0.774,-2.037 1.239,-4.376 1.033,-5.196 -0.437,-1.74 -7.37,-10.912 -11.911,-15.76 -1.775,-1.894 -4.831,-4.144 -7.03,-5.175 -3.591,-1.684 -4.575,-1.822 -12.86,-1.8 -8.286,0.024 -9.463,0.196 -15.439,2.26 -26.731,9.23 -58.988,35 -77.471,61.89 -16.16,23.51 -23.992,48.425 -21.29,67.719 2.41,17.195 9.763,32.977 19.694,42.267 6.864,6.421 13.216,9.25 26.817,11.94 8,1.583 25.491,2.198 29.642,1.042 1.769,-0.493 1.437,0.082 -3.183,5.52 -15.922,18.738 -18.967,30.078 -13.209,49.198 3.402,11.295 9.307,19.308 17.153,23.276 l 3.948,1.996 -7.827,4.635 c -10.11,5.987 -19.64,13.127 -20.98,15.717 -0.887,1.715 -1.024,5.001 -0.852,20.536 l 0.204,18.493 2.616,3.94 c 3.76,5.66 10.557,12.087 14.98,14.165 3.461,1.626 4.523,1.776 12.076,1.707 5.73,-0.052 10.29,-0.53 14.803,-1.553 3.588,-0.812 6.652,-1.476 6.808,-1.476 0.157,0 0.089,1.94 -0.152,4.313 -0.24,2.372 -0.477,7.133 -0.526,10.581 -0.084,5.878 0.055,6.541 2.233,10.627 3.32,6.229 11.428,14.612 16.66,17.227 5.808,2.902 9.42,2.85 14.382,-0.211 z m -23.479,-21.59 c -1.495,-1.876 -1.552,-2.37 -1.178,-10.252 0.583,-12.3 1.677,-18.442 3.915,-21.97 1.58,-2.49 3.068,-3.595 8.715,-6.467 27.306,-13.886 71.853,-27.478 112.387,-34.291 34.8,-5.85 61.819,-8.57 100.746,-10.149 38.071,-1.543 89.499,1.51 124.126,7.369 11.635,1.968 14.063,2.791 16.182,5.484 1.952,2.482 1.879,4.671 -0.31,9.306 -0.987,2.088 -3.329,7.354 -5.205,11.704 -1.877,4.35 -3.748,8.312 -4.158,8.806 -0.973,1.174 -2.632,-0.106 -2.632,-2.031 0,-3.315 -2.16,-6.016 -6.459,-8.079 -5.18,-2.485 -11.9,-4.048 -12.94,-3.008 -2.077,2.078 -2.595,12.8 -1.016,21.054 0.538,2.809 1.973,8.503 3.19,12.654 2.416,8.239 2.843,13.268 1.42,16.702 -2.503,6.045 -12.144,6.74 -16.51,1.19 -2.186,-2.78 -2.347,-6.169 -0.788,-16.554 1.744,-11.619 2.929,-30.813 2.046,-33.136 -0.97,-2.548 -3.21,-3.584 -11.036,-5.102 -16.143,-3.131 -41.01,-5.278 -53.478,-4.616 -4.435,0.235 -7.017,0.157 -6.21,-0.189 2.854,-1.222 24.654,-3.005 37.85,-3.096 12.786,-0.088 13.383,-0.147 8.97,-0.89 -11.87,-1.996 -21.672,-2.454 -45.44,-2.119 -31.136,0.439 -53.021,2.792 -85.055,9.147 -42.338,8.399 -80.93,20.446 -117.127,36.563 -8.3,3.696 -26.438,13.04 -35.052,18.058 -10.57,6.156 -12.715,6.717 -14.953,3.911 m -30.403,-31.331 c -0.551,-1.03 -0.54,-2.452 0.04,-5.25 0.438,-2.109 0.535,-4.09 0.215,-4.403 -0.32,-0.313 -5.033,-0.667 -10.472,-0.789 -8.848,-0.197 -9.994,-0.362 -10.868,-1.56 -0.771,-1.056 -0.978,-4.418 -0.976,-15.87 0.003,-16.992 0.007,-17.005 7.015,-21.953 9.391,-6.632 26.384,-15.696 29.425,-15.696 2.565,0 2.881,1.437 1.444,6.568 -2.395,8.549 -0.738,9.9 8.16,6.652 7.002,-2.555 13.74,-6.878 20.16,-12.934 7.233,-6.824 8.602,-10.205 5.07,-12.518 -1.687,-1.105 -3.945,-1.224 -23.289,-1.225 -20.883,0 -21.54,-0.043 -26.131,-1.667 -11.642,-4.117 -17.786,-15.586 -15.693,-29.295 3.691,-24.18 41.455,-56.927 75.79,-65.723 8.877,-2.274 20.342,-2.126 26.578,0.342 4.04,1.6 9.122,5.05 10.352,7.03 0.502,0.807 -0.853,4.497 -5.319,14.492 -3.10076,6.93526 -6.17811,13.88097 -9.232,20.837 -1.783,4.086 -4.018,8.358 -4.967,9.495 -2.073,2.483 -5.181,3.18 -17.221,3.86 -7.443,0.421 -8.32,0.35 -8.73,-0.717 -0.286,-0.748 1.107,-4.428 3.778,-9.978 5.3,-11.01 5.332,-11.446 0.83,-10.912 -1.872,0.221 -4.745,1.084 -6.383,1.916 -6.58,3.342 -17.087,10.942 -22.337,16.159 -8.523,8.468 -10.687,14.613 -6.293,17.873 1.883,1.396 2.72,1.45 23.462,1.478 22.853,0.033 25.682,0.28 31.256,2.742 8.48133,3.74467 12.41067,10.296 11.788,19.654 -0.426,6.403 -2.166,11.448 -6.402,18.57 -12.819,21.549 -43.107,42.504 -71.92,49.758 -3.559,0.896 -4.282,2.334 -4.282,8.519 0,2.426 -0.36,4.663 -0.828,5.13 -1.266,1.266 -3.178,0.988 -4.02,-0.585 m 89.956,-56.614 c 0.97,-21.114 4.957,-54.76 10.155,-85.689 2.788,-16.594 3.801,-21.2 4.898,-22.278 1.354,-1.331 20.285,-5.99 24.737,-6.087 3.384,-0.075 3.787,0.066 3.727,1.296 -0.038,0.76 -1.955,9.764 -4.26,20.011 -4.074,18.108 -6.223,29.701 -5.619,30.306 0.163,0.163 3.555,-0.62 7.537,-1.739 3.982,-1.119 8.387,-2.345 9.788,-2.723 2.378,-0.643 2.578,-0.907 3.004,-3.95 1.638,-11.705 6.062,-35.467 7.627,-40.968 0.178,-0.623 1.166,-1.472 2.197,-1.887 3.384,-1.359 17.695,-4.802 21.974,-5.286 5.036,-0.57 5.494,0.006 3.953,4.962 -2.878,9.25 -5.792,23.03 -7.86,37.156 -2.943,20.11 -3.586,29.168 -3.719,52.39 -0.124,21.797 -0.184,22.741 -1.47,23.246 -0.739,0.29 -6.729,1.2 -13.313,2.021 -8.857,1.106 -12.172,1.293 -12.745,0.72 -0.924,-0.924 -1.108,-26.74 -0.273,-38.236 l 0.543,-7.473 -1.578,0.452 c -5.396,1.547 -13.077,4.115 -15.812,5.287 l -3.193,1.368 -0.452,4.61 c -0.248,2.534 -0.735,11.1 -1.08,19.035 -0.47,10.788 -0.873,14.671 -1.596,15.395 -1.12,1.12 -20.069,6.967 -24.582,7.586 l -3.045,0.418 z m 255.082,-4.143 c -14.72,-1.605 -14.922,-1.65 -16.15,-3.567 -0.856,-1.335 -0.858,-2.745 -0.016,-10.512 1.87,-17.24 7.79,-50.048 13.014,-72.11 0.584,-2.466 1.066,-4.718 1.072,-5.002 0.017,-0.843 -5.214,-0.572 -15.844,0.821 -5.495,0.72 -10.23,1.161 -10.524,0.98 -0.97,-0.6 -0.584,-2.555 2.685,-13.636 1.826,-6.188 3.86,-11.693 4.667,-12.625 2.463,-2.846 14.788,-3.84 48.698,-3.929 30.263,-0.08 37.249,0.39 56.583,3.808 4.365,0.772 9.023,1.576 10.351,1.788 3.303,0.527 4.335,1.484 3.886,3.605 -0.206,0.97 -2.809,6.422 -5.785,12.115 -4.576,8.752 -5.797,10.56 -7.905,11.703 -2.492,1.352 -2.499,1.352 -8.593,-0.185 -12.061,-3.042 -32.3,-5.629 -44.178,-5.646 -4.131,-0.006 -5.014,0.194 -5.303,1.2 -0.698,2.427 -3.21,15.922 -4.527,24.325 -2.859,18.23 -4.314,33.715 -4.766,50.718 l -0.459,17.25 -2.415,0.108 c -1.328,0.06 -7.849,-0.485 -14.49,-1.21 M 546.91,524.275 c -2.137,-2.187 3.229,-47.183 9.21,-77.24 4.675,-23.486 6.292,-30.32 7.446,-31.461 2.494,-2.468 30.815,-6.34 47,-6.426 l 12.076,-0.064 0.224,1.583 c 0.333,2.349 -3.433,18.07 -4.674,19.51 -0.834,0.968 -2.522,1.335 -7.626,1.658 -6.42,0.408 -13.99,1.167 -21.218,2.13 l -3.623,0.483 -1.05,3.534 c -1.282,4.317 -2.746,12.056 -2.347,12.412 0.16,0.142 3.11,-0.134 6.557,-0.614 3.446,-0.48 9.264,-1.098 12.929,-1.372 5.744,-0.431 6.72,-0.35 7.082,0.594 0.71,1.848 -2.43,18.6 -3.726,19.882 -0.78,0.77 -4.216,1.607 -10.475,2.55 -5.124,0.772 -10.928,1.753 -12.9,2.18 l -3.583,0.776 -0.722,3.574 c -0.705,3.485 -2.062,17.847 -1.729,18.284 0.092,0.121 5.244,-1.03 11.448,-2.559 6.205,-1.528 13.87,-3.142 17.034,-3.585 8.09,-1.135 7.995,-1.289 6.292,10.288 -0.743,5.056 -1.632,11.695 -1.974,14.754 -0.342,3.059 -0.982,5.783 -1.42,6.054 -0.44,0.272 -6.913,0.705 -14.386,0.963 -12.48,0.43 -24.31,1.093 -39.462,2.21 -3.226,0.237 -6.099,0.193 -6.383,-0.098 m 67.345,-1.363 c -1.496,-3.9 13.5,-111.368 15.905,-113.984 1.091,-1.187 28.996,-2.944 46.798,-2.947 13.321,-0.002 14.342,0.086 14.993,1.304 0.523,0.976 0.075,3.728 -1.768,10.868 -1.357,5.259 -2.785,9.95 -3.174,10.424 -0.49,0.598 -3.167,0.868 -8.731,0.88 -8.565,0.017 -24.155,1.049 -24.744,1.637 -0.481,0.482 -2.884,12.091 -2.918,14.099 -0.024,1.395 0.223,1.554 1.87,1.206 1.044,-0.22 6.555,-0.692 12.248,-1.046 13.65,-0.851 13.121,-1.33 11.311,10.211 -0.736,4.691 -1.65,9.112 -2.031,9.825 -0.846,1.58 -0.994,1.61 -15.145,3.03 -6.262,0.629 -11.607,1.358 -11.878,1.62 -0.667,0.646 -2.613,13.833 -2.613,17.705 0,1.71 0.314,3.11 0.697,3.11 0.383,0 5.274,-1.113 10.868,-2.472 11.23,-2.73 27.332,-5.303 31.167,-4.98 2.257,0.188 2.485,0.407 2.691,2.575 0.23,2.402 -3.669,24.365 -4.662,26.268 -0.35,0.67 -2.09,1.193 -4.952,1.485 -2.427,0.247 -7.983,0.804 -12.348,1.236 -8.7,0.863 -26.405,3.78 -42.275,6.965 -11.978,2.403 -10.802,2.301 -11.31,0.98 M 373.43,428.38 c -0.372,-0.969 1.02,-9.333 2.264,-13.61 0.274,-0.943 -0.602,-0.654 -3.92,1.291 -9.677,5.671 -18.2,7.675 -29.506,6.936 -16.54,-1.082 -27.932,-6.461 -34.659,-16.367 -11.978,-17.638 -9.166,-46.114 7.338,-74.32 23.962,-40.951 70.677,-74.433 96.54,-69.192 5.505,1.116 8.998,3.235 13.697,8.311 5.162,5.575 5.186,6.054 0.806,16.208 -6.13,14.211 -15.538,36.89 -15.538,37.453 0,1.286 -2.914,3.593 -5.376,4.256 -1.435,0.386 -7.722,0.995 -13.97,1.352 -14.21,0.812 -14.547,0.647 -11.184,-5.442 5.694,-10.311 10.519,-20.52 10.519,-22.256 0,-8.532 -24.636,11.617 -37.112,30.352 -11.325,17.006 -16.07,31.472 -15.152,46.19 0.291,4.667 0.795,6.697 2.538,10.238 1.195,2.429 2.968,5.04 3.939,5.804 6.136,4.827 17.41,0.818 28.352,-10.083 5.738,-5.717 11.875,-14.152 10.605,-14.575 -1.162,-0.387 -13.36,3.096 -21.42,6.117 -4.2,1.574 -8.1,2.683 -8.668,2.465 -1.27,-0.487 -1.307,-2.719 -0.24,-14.472 0.557,-6.141 1.14,-9.257 1.902,-10.166 1.269,-1.512 13.997,-5.622 29.736,-9.6 16.746,-4.234 19.965,-4.893 26.031,-5.329 5.122,-0.368 5.724,-0.282 6.171,0.883 0.597,1.553 -1.537,14.53 -5.323,32.378 -1.81316,8.61227 -3.56088,17.23818 -5.243,25.877 -1.355,7.021 -2.731,13.458 -3.058,14.304 -0.79,2.045 -5.2,4.794 -16.853,10.507 -11.628,5.7 -12.622,6.039 -13.216,4.49 m 113.25,-17.943 c -9.398,-6.268 -23.305,-23.726 -32.409,-40.685 -1.833,-3.415 -3.393,-6.295 -3.466,-6.399 -0.073,-0.104 -0.607,-0.007 -1.185,0.215 -1.32,0.507 -1.675,2.785 -2.574,16.535 -0.396,6.072 -0.841,12.86 -0.989,15.083 -0.147,2.224 -0.688,4.464 -1.203,4.978 -1.133,1.133 -27.185,7.274 -28.582,6.737 -0.544,-0.208 -0.99,-0.661 -0.99,-1.005 0,-7.485 14.765,-102.892 16.385,-105.874 1.204,-2.217 6.476,-4.683 18.807,-8.798 13.243,-4.418 24.284,-7 34.586,-8.09 13.326,-1.409 19.878,1.046 23.095,8.653 1.74,4.112 1.52,15.103 -0.427,21.382 -4.021,12.968 -13.766,26.255 -28.486,38.84 -3.207,2.742 -3.169,2.916 2.49,11.407 8.142,12.217 22.685,24.322 32.974,27.447 3.667,1.114 4.793,1.746 4.636,2.601 -0.329,1.782 -24.381,17.474 -28.177,18.382 -1.236,0.296 -2.547,-0.116 -4.485,-1.409 m -31.175,-68.722 c 12.924,-6.544 29.472,-23.877 29.472,-30.87 0,-4.685 -5.557,-5.521 -14.952,-2.251 -6.89,2.398 -11.828,5.212 -12.661,7.214 -0.709,1.703 -4.458,19.124 -5.186,24.1 -0.264,1.803 -0.277,3.278 -0.03,3.278 0.249,0 1.759,-0.662 3.357,-1.471 m 78.722,61.363 c -0.668,-1.08 -0.531,-2.968 1.186,-16.42 2.132,-16.7 3.888,-28.38 7.572,-50.373 5.89,-35.153 7.363,-42.898 8.33,-43.806 1.475,-1.383 15.478,-5.763 23.055,-7.21 22.865,-4.368 36.057,-0.985 41.468,10.634 1.938,4.162 2.204,12.661 0.608,19.429 -4.096,17.368 -19.845,34.415 -41.22,44.614 -4.849,2.315 -8.968,4.691 -9.152,5.282 -0.687,2.197 -1.731,17.211 -1.737,24.968 -0.004,5.586 -0.268,8.233 -0.868,8.713 -0.475,0.379 -6.142,1.51 -12.594,2.513 -4.64093,0.71971 -9.28093,1.44538 -13.92,2.177 -1.361,0.22 -2.392,0.023 -2.728,-0.521 m 40.013,-63.515 c 5.85,-3.097 12.775,-10.154 15.606,-15.905 4.267,-8.667 3.573,-17.597 -1.555,-20.03 -3.899,-1.85 -11.028,-1.329 -12.218,0.894 -0.954,1.784 -6.903,32.845 -6.91,36.076 -0.002,1.601 0.159,1.568 5.077,-1.035 m 37.23,60.465 c -0.553,-1.439 2.06,-26.131 5.723,-54.082 2.892,-22.07 8.433,-60.606 8.95,-62.26 0.364,-1.156 3.563,-2.325 13.748,-5.022 2.277,-0.603 7.783,-1.45 12.236,-1.882 21.595,-2.094 35.445,4.596 39.568,19.114 1.376,4.846 1.021,13.563 -0.802,19.688 -5.075,17.05 -20.978,32.865 -42.377,42.143 l -5.865,2.543 -0.451,3.706 c -0.248,2.038 -0.686,10.463 -0.973,18.721 -0.327,9.424 -0.801,15.232 -1.274,15.596 -0.414,0.32 -5.72,0.956 -11.793,1.415 -6.073,0.459 -12.2,1.01 -13.617,1.224 -2.098,0.317 -2.668,0.15 -3.073,-0.904 m 39.527,-65.004 c 5.427,-3.519 11.425,-10.134 14.013,-15.457 2.464,-5.066 3.382,-11.803 2.203,-16.169 -1.561,-5.78 -7.17,-9.159 -13.603,-8.194 -2.906,0.436 -2.95,0.483 -3.65,4.028 -0.564,2.85 -4.003,27.424 -5.114,36.536 -0.324,2.657 1.186,2.474 6.15,-0.744 m 56.087,65.064 c -10.798,-1.683 -18.172,-5.716 -21.832,-11.942 -1.53,-2.603 -1.88,-4.018 -1.84,-7.459 0.051,-4.329 1.509,-7.83 3.26,-7.83 0.475,0 3.235,0.914 6.134,2.03 6.395,2.462 14.379,4.18 19.425,4.18 4.715,0 5.844,1.066 4.298,4.057 -3.27,6.322 1.338,9.414 9.765,6.554 9.569,-3.249 18.246,-13.01 25.017,-28.145 1.806,-4.037 5.542,-14.5 5.542,-15.52 0,-0.175 -2.717,2.322 -6.038,5.548 -6.723,6.53 -14.467,11.646 -20.137,13.301 -5.656,1.652 -15.573,1.463 -20.532,-0.393 -7.665,-2.868 -13.825,-10.721 -16.1,-20.528 -1.322,-5.694 -0.453,-23.153 1.703,-34.222 3.682,-18.907 4.026,-21.703 3.642,-29.634 -0.213,-4.402 -0.843,-8.929 -1.49,-10.703 -2.041,-5.6 -1.147,-5.814 12.868,-3.081 9.19,1.792 21.396,5.495 26.212,7.952 2.775,1.416 3.775,3.54 2.949,6.262 -0.268,0.88 -2.128,5.483 -4.135,10.228 -7.834,18.526 -10.214,27.508 -10.242,38.642 -0.014,5.539 0.26,7.772 1.164,9.481 5.9,11.155 21.43,0.47 31.337,-21.557 4.692,-10.435 7.167,-19.454 8.462,-30.841 1.015,-8.923 1.157,-9.377 3.285,-10.475 4.05,-2.09 40.643,-8.53 41.814,-7.359 0.377,0.377 -0.198,1.679 -1.441,3.26 -4.384,5.577 -5.054,7.85 -10.545,35.755 -8.98,45.638 -16.424,65.123 -29.91,78.299 -6.846,6.687 -18.269,12.485 -28.03,14.226 -6.667,1.19 -26.738,1.14 -34.605,-0.086 M 501.605,380.577 c -2.218,-4.145 6.751,-61.079 10.16,-64.487 1.913,-1.914 16.697,-5.333 23.066,-5.335 2.246,-10e-4 2.588,0.21 2.588,1.599 0,0.88 -0.468,3.173 -1.039,5.095 -3.059,10.302 -7.608,38.315 -8.38,51.613 -0.243,4.175 -0.68,8.236 -0.97,9.025 -0.479,1.3 -1.572,1.542 -11.803,2.598 -13.668,1.412 -12.804,1.419 -13.622,-0.108 m 13.037,-73.974 c -0.506,-0.945 -0.043,-3.23 1.806,-8.911 2.738,-8.414 4.214,-10.79 7.575,-12.194 5.477,-2.289 22.513,-5.164 23.276,-3.928 0.567,0.916 -6.693,18.72 -8.246,20.224 -0.775,0.75 -4.04,1.805 -8.19,2.645 -3.795,0.769 -8.844,1.856 -11.22,2.416 -4.073,0.961 -4.36,0.947 -5.001,-0.252 m 318.876,71.063 c -0.909,-0.384 -3.17,-1.812 -5.024,-3.173 -3.676,-2.699 -9.271,-5.086 -11.92,-5.086 -3.209,0 -2.415,-1.247 1.891,-2.97 14.032,-5.618 26.712,-3.513 26.712,4.433 0,3.896 -2.846,6.866 -6.923,7.224 -1.695,0.148 -3.826,-0.044 -4.736,-0.428 m 20.82,-16.11 c -2.635,-2.095 -4.315,-2.969 -7.954,-4.138 -2.53,-0.813 -0.995,-1.575 4.945,-2.455 7.366,-1.092 10.537,-0.634 12.45,1.797 1.778,2.261 1.787,3.989 0.029,5.747 -2.201,2.201 -5.983,1.821 -9.47,-0.95 m -34.003,-3.637 c 0,-0.68 5.656,-7.433 12.18,-14.545 8.955,-9.76 22.185,-18.894 29.706,-20.51 6.702,-1.44 14.008,2.855 14.008,8.233 0,6.181 -4.749,10.355 -14.137,12.425 -2.662,0.587 -8.33,1.82 -12.597,2.742 -8.138,1.756 -17.616,5.584 -24.107,9.736 -3.581,2.291 -5.053,2.85 -5.053,1.919 M 281.413,315.098 c -1.905,-0.697 -4.093,-3.145 -4.844,-5.42 -1.097,-3.325 0.493,-6.618 4.264,-8.827 5.095,-2.985 10.167,-3.898 21.6,-3.888 14.73,0.014 16.522,0.756 9.099,3.773 -4.849,1.97 -8.489,4.302 -13.648,8.74 -5.989,5.152 -12.073,7.23 -16.47,5.622 m 32.777,-23.444 c -1.767,-0.68 -6.52,-1.233 -13.211,-1.537 -9.802,-0.446 -10.627,-0.591 -13.27,-2.34 -4.772,-3.158 -4.5,-7.695 0.619,-10.359 1.897,-0.987 3.56,-1.193 7.921,-0.98 6.689,0.324 11.615,2.427 16.382,6.995 2.674,2.562 6.045,7.585 6.045,9.008 0,0.613 -1.56,0.34 -4.486,-0.787 m 9.03,-5.568 c -2.163,-6.874 -1.638,-12.212 1.438,-14.632 2.291,-1.803 6.49,-1.88 8.057,-0.15 2.114,2.337 1.425,4.752 -2.56,8.968 -2.036,2.154 -4.065,4.615 -4.51,5.469 -0.968,1.86 -1.907,1.994 -2.426,0.345"
         transform="translate(-173.92,-33.488)"
         id="path1"
         sodipodi:nodetypes="ccccccccccccccscsssccccccccccccccccccscccccssccccccccccccccccsscccccccscccccccccccccccscccssccccccccccccscccccccssccccccccccccsscccsccscccccscsscsscccccccccccscscccccccccccscccccccsccccccccsccccccsccccsccscccccccccccccccccsccccccccccccccscccccsccscsccccccccccccccccccccccscsscccccccccsccccccccccsccccccccccccccscscccccccccssccccccccccccccccccccccscccccccscccccccccccccccccccssccccccccccccccccsscscscccccsccccccccccccccssccccsccccccccccccscccsccccccccccccccccccccccccscccscsccscccccscsccccscsccsscccccccscccsccccsccccccccscccccccccccccccscsccccccscccsssccccccccscccccccsccccscc" /></g></g></svg>
