<?xml version="1.0" encoding="UTF-8" standalone="no"?>
<!-- Created with Inkscape (http://www.inkscape.org/) -->

<svg
   version="1.1"
   id="svg1"
   width="728.82178"
   height="634.24573"
   viewBox="0 0 728.82178 634.24573"
   sodipodi:docname="Gemini_Generated_Image_n21xpbn21xpbn21x.png"
   xmlns:inkscape="http://www.inkscape.org/namespaces/inkscape"
   xmlns:sodipodi="http://sodipodi.sourceforge.net/DTD/sodipodi-0.dtd"
   xmlns="http://www.w3.org/2000/svg"
   xmlns:svg="http://www.w3.org/2000/svg">
  <defs
     id="defs1" />
  <sodipodi:namedview
     id="namedview1"
     pagecolor="#ffffff"
     bordercolor="#000000"
     borderopacity="0.25"
     inkscape:showpageshadow="2"
     inkscape:pageopacity="0.0"
     inkscape:pagecheckerboard="0"
     inkscape:deskcolor="#d1d1d1" />
  <g
     inkscape:groupmode="layer"
     inkscape:label="Image"
     id="g1"
     transform="translate(-309.20459,-108.57944)">
    <path
       style="fill:#000000"
       d="m 492.6046,739.55908 c -2.72337,-2.72337 -3.4,-4.1891 -3.4,-7.36514 0,-8.10136 0.8593,-8.61245 49.34769,-29.35044 79.51992,-34.00986 166.46279,-66.61071 259.15231,-97.17398 65.76024,-21.68366 147.97309,-45.71533 156.36359,-45.7067 7.80729,0.008 13.57346,7.07416 11.09981,13.60222 -2.72338,7.18712 -4.10982,7.75587 -52.4634,21.52183 -91.95774,26.1798 -177.27054,54.93233 -273.5,92.17629 -52.71461,20.40228 -73.69537,28.92832 -115.15295,46.79518 -23.8351,10.27215 -26.25275,10.69504 -31.44705,5.50074 z m -71.9,-10.79173 c -4.53527,-2.5645 -6.01734,-7.88937 -3.53355,-12.69562 2.2845,-4.42062 29.29626,-31.23561 33.73389,-33.48815 7.74117,-3.92943 15.20023,-0.24789 15.26786,7.5357 0.0243,2.79248 -0.94942,4.92611 -4.10712,9 -4.64217,5.98906 -4.05204,5.39798 -20.06465,20.09662 -10.63359,9.761 -12.05065,10.7404 -15.5,10.71277 -2.08804,-0.0167 -4.69643,-0.53932 -5.79643,-1.16132 z m 231.18647,-7.22304 c -5.49903,-5.09632 -4.07376,-12.8261 3.02934,-16.42932 11.58716,-5.87787 84.39084,-33.72295 118.78419,-45.43116 32.2273,-10.97083 46.38161,-15.00427 50.40656,-14.36395 9.15289,1.45612 10.85349,12.62002 2.67173,17.53905 -1.69306,1.01791 -10.27829,4.21932 -19.07829,7.11425 -33.74921,11.10248 -92.36168,32.5721 -129.42906,47.4096 -18.27218,7.31407 -22.29772,7.949 -26.38447,4.16153 z M 504.7046,687.87138 c -14.96619,-0.97729 -26.90951,-5.50766 -37.70671,-14.303 -10.27373,-8.36892 -18.79329,-22.03361 -18.79329,-30.14292 0,-2.99381 3.87054,-8.46252 7.92168,-11.19258 4.36094,-2.93884 12.21357,-3.09849 16.73703,-0.34028 1.73729,1.05933 5.60499,5.23391 8.59489,9.27685 6.49676,8.78494 10.40436,12.24182 17.7464,15.69947 4.61001,2.17103 6.87544,2.58259 14,2.54335 7.20086,-0.0397 9.38553,-0.47424 14.29384,-2.84336 19.89481,-9.60276 30.46765,-32.79661 22.82554,-50.07285 -6.46993,-14.62635 -22.09042,-22.2838 -65.11938,-31.92272 -23.32477,-5.22498 -30.45602,-8.16551 -37.93124,-15.64074 -2.67959,-2.67959 -6.15376,-7.48233 -7.72037,-10.67275 -2.60699,-5.30917 -2.84839,-6.733 -2.84839,-16.80077 0,-9.64555 0.32573,-11.77312 2.64539,-17.27879 4.59354,-10.9027 9.0753,-17.37329 18.85461,-27.22154 19.67891,-19.81762 43.45307,-30.16516 69.18032,-30.11024 14.64038,0.0313 18.14857,1.33918 21.02326,7.83789 4.89248,11.06025 -3.34102,18.57356 -23.31177,21.27268 -14.24115,1.92473 -20.38025,3.92987 -30.68444,10.02206 -12.24177,7.23775 -19.319,13.55421 -22.62898,20.19647 -2.87738,5.77416 -3.1015,7.53925 -1.4246,11.21966 1.80149,3.95383 7.80625,6.12881 29.04728,10.52119 29.94236,6.1917 47.08048,12.84396 60.74273,23.57763 10.83696,8.514 18.7788,20.79021 22.61857,34.96299 2.17841,8.04059 3.03453,29.31286 1.48082,36.79418 -0.66183,3.1868 -3.04998,9.4868 -5.30699,14 -3.26792,6.53462 -6.05193,10.162 -13.66993,17.81094 -17.96528,18.03824 -35.0537,24.47315 -60.56627,22.80718 z M 362.24792,657.15624 c -3.68176,-3.68176 -4.07679,-8.61359 -1.00294,-12.52136 4.49264,-5.71147 48.55779,-27.45947 57.52549,-28.39124 5.6031,-0.58218 10.60448,1.29672 12.40449,4.66005 4.12659,7.71061 -4.26211,14.10296 -41.9016,31.9298 -9.51808,4.50796 -15.12311,6.5667 -18.77544,6.89626 -4.76749,0.43018 -5.4634,0.2131 -8.25,-2.57351 z m 239.23291,-24.17025 c -1.79957,-1.09724 -3.9231,-3.63584 -4.80674,-5.74626 -1.53645,-3.66959 -9.76382,-35.86989 -26.51658,-103.78065 -4.47739,-18.15 -8.38341,-36.03048 -8.68006,-39.7344 l -0.53935,-6.73439 4.0156,-4.01561 c 3.72844,-3.72843 4.41485,-4.0156 9.59846,-4.0156 4.77151,0 6.07713,0.43399 8.98405,2.9863 3.83006,3.36283 5.46309,8.31197 14.68786,44.5137 7.5472,29.61829 7.82569,30.5 9.63321,30.5 1.55586,0 20.17885,-6.59923 25.62299,-9.07974 1.5483,-0.70545 2.72433,-2.04641 2.72433,-3.1064 0,-1.02581 -3.35333,-15.46608 -7.45185,-32.08949 -13.79486,-55.95134 -15.85387,-69.97715 -11.27822,-76.82649 6.08002,-9.10123 20.15473,-8.61275 23.80151,0.82606 0.47258,1.22316 2.93401,11.57316 5.46985,23 5.61557,25.3046 18.79917,77.47551 29.63567,117.27606 11.85957,43.55808 12.41663,46.95598 8.84568,53.95562 -3.85596,7.55831 -12.64604,10.89988 -20.28091,7.70983 -4.59717,-1.92082 -7.15789,-6.02047 -8.72,-13.96053 -3.70575,-18.83597 -11.90749,-48.70492 -13.37392,-48.70492 -1.29216,0 -21.61204,7.45126 -24.91485,9.13623 -2.73955,1.39762 -3.69317,2.44526 -3.33227,3.66085 3.88315,13.07946 8.70808,34.88126 8.73153,39.45405 0.0662,12.90775 -11.78231,20.91795 -21.85599,14.77578 z m 105.52204,-27.38847 c -4.49305,-1.99417 -7.67068,-5.68149 -9.79955,-11.37141 -3.30417,-8.83118 -20.53754,-68.22965 -25.93607,-89.39418 -8.32862,-32.6517 -8.54701,-38.32289 -1.73788,-45.12998 1.78438,-1.78385 14.02643,-8.93391 27.20954,-15.89195 39.90596,-21.06236 40.45551,-21.27224 48.0774,-18.36141 7.3105,2.79191 10.34013,9.87369 6.97757,16.31015 -3.23309,6.18862 -10.28383,10.90691 -36.08928,24.1506 -9.9,5.08081 -18.61363,9.74305 -19.36362,10.36053 -0.96098,0.79119 -1.19944,2.50896 -0.80759,5.81754 0.89359,7.54496 6.92282,29.03099 8.2941,29.5572 0.69055,0.26499 11.0704,-3.41762 23.06633,-8.18358 23.63206,-9.38897 29.49694,-10.57567 34.86943,-7.05548 3.95475,2.59126 5.90319,8.06868 4.51655,12.69687 -1.85017,6.1753 -7.23594,9.66879 -32.00648,20.76106 -17.39545,7.78969 -23.06872,10.76149 -23.06872,12.08394 0,2.24385 6.31379,22.869 9.12584,29.81119 2.60653,6.43484 0.21622,6.70773 30.05946,-3.43177 23.0329,-7.82562 29.06886,-8.83905 34.84743,-5.85083 3.16015,1.63417 5.96727,6.09519 5.96727,9.48307 0,2.77893 -2.2528,6.99161 -5.15499,9.63969 -5.25584,4.79566 -22.91166,11.97791 -50.0786,20.3716 -16.74375,5.17327 -23.56128,6.0269 -28.96814,3.62715 z M 314.51619,583.44805 c -3.65872,-1.53838 -5.31159,-4.13528 -5.31159,-8.34531 0,-2.26992 1.00435,-3.8475 4.18,-6.56574 2.299,-1.96785 4.5539,-3.57792 5.0109,-3.57792 0.45699,0 2.73849,-0.86922 5.07,-1.93161 5.42249,-2.47083 15.74622,-6.68056 49.47202,-20.17328 28.42868,-11.3735 32.49804,-12.37839 38.19556,-9.4321 4.59547,2.37641 5.36921,6.89641 2.09873,12.26027 -2.55949,4.19778 -11.54141,8.69458 -42.58654,21.32095 -40.76941,16.58132 -49.63012,19.17734 -56.12908,16.44474 z m 493.18841,-6.40321 c -5.87028,-0.97433 -10.28753,-4.00894 -12.46584,-8.56392 -2.46352,-5.15137 -16.35525,-55.42299 -25.4287,-92.02184 -8.65156,-34.89706 -8.68576,-43.16678 -0.2074,-50.15536 8.36234,-6.89295 60.76287,-34.63504 67.43569,-35.70207 8.57756,-1.3716 16.16625,4.4678 16.16625,12.43974 0,8.37113 -8.68302,15.19831 -41.5,32.6301 -17.93535,9.52693 -17.85914,9.45647 -17.19767,15.90032 0.89817,8.74974 6.79828,31.48865 8.32215,32.07341 0.7741,0.29705 8.71276,-2.50647 17.64148,-6.23004 40.11434,-16.729 42.05953,-17.44612 47.33616,-17.45119 14.1703,-0.0136 17.94495,13.47011 6.17717,22.06594 -5.48022,4.00305 -33.60052,18.07194 -49.77929,24.90511 -6.875,2.90369 -13.03149,5.78447 -13.68108,6.40174 -0.90262,0.85769 -0.16315,4.62364 3.13639,15.97297 2.3746,8.16787 4.98875,15.52196 5.80921,16.34242 1.32234,1.32234 2.78324,1.12899 12.86362,-1.70251 6.25452,-1.75684 20.4602,-6.07343 31.56816,-9.59242 11.18518,-3.54345 22.02713,-6.39816 24.29966,-6.39816 8.21705,0 12.87483,5.09182 11.67829,12.76652 -1.21722,7.80728 -11.44188,13.78318 -40.67425,23.77244 -6.42993,2.19722 -47.33651,13.69225 -47.4575,13.33587 -0.0234,-0.0688 -1.8425,-0.42392 -4.0425,-0.78907 z m 112.26257,-40.65115 c -1.50559,-0.81692 -3.40403,-2.77437 -4.21876,-4.34989 -3.5155,-6.79823 -23.82928,-92.35042 -33.01771,-139.05523 -1.99858,-10.15877 -3.83493,-18.67166 -4.08079,-18.91751 -0.48404,-0.48404 -2.47362,0.13459 -15.44531,4.8025 -9.67222,3.48059 -16.82746,3.9386 -22.99266,1.47178 -7.12907,-2.85249 -10.42863,-10.04888 -7.65312,-16.6916 2.01252,-4.81665 7.32339,-8.10918 25.33537,-15.70693 54.58318,-23.02408 82.51662,-32.6599 108.8056,-37.53318 11.72659,-2.1738 26.76806,-1.69293 30.80592,0.98484 7.75939,5.14575 7.53449,18.00865 -0.38638,22.1047 -1.67827,0.86787 -9.43315,2.64289 -17.23307,3.94449 -7.79991,1.3016 -20.90376,4.45458 -29.11967,7.00663 -18.07905,5.61577 -40.52817,14.08276 -42.49712,16.02837 -1.24645,1.23167 -1.14147,3.22972 0.79854,15.19727 3.7131,22.90554 8.75398,46.7025 19.1237,90.27915 14.37658,60.41464 14.19064,59.33517 11.18562,64.93834 -3.37324,6.28978 -12.94992,9.00156 -19.41016,5.49627 z M 382.4983,485.42495 C 370.5061,482.1944 361.416,476.27396 350.60927,464.65541 312.58674,423.77657 307.04684,337.1329 338.89588,281.45908 c 12.72353,-22.24141 26.98982,-35.63969 44.85246,-42.12348 21.54265,-7.81956 42.86796,-0.36844 51.56594,18.01729 4.63804,9.80383 3.65928,17.25703 -3.00229,22.86238 -7.07817,5.95588 -15.1521,4.21886 -22.10739,-4.75619 -7.53482,-9.72287 -14.41139,-10.55238 -25.36092,-3.05925 -10.31284,7.05742 -21.6615,24.41423 -27.50998,42.07419 -8.91539,26.92072 -9.3488,67.06084 -1.00708,93.26959 11.37103,35.72652 31.07164,54.75988 49.42474,47.75076 13.13837,-5.01759 27.87067,-24.68345 32.98818,-44.03529 2.05728,-7.77961 3.00495,-24.14866 1.60474,-27.71859 -1.0449,-2.66404 -1.14227,-2.69148 -4.85299,-1.36765 -2.08268,0.74302 -8.51169,3.48073 -14.28669,6.08381 -11.62423,5.23962 -16.7429,5.9488 -21.71931,3.00917 -3.61316,-2.13435 -7.28069,-8.14137 -7.28069,-11.92501 0,-7.51964 4.68272,-12.43262 17.79646,-18.67155 13.71413,-6.52457 49.46796,-20.76892 53.91605,-21.4802 8.01081,-1.28098 15.27587,4.84421 15.28375,12.88576 0.004,4.35253 -1.16573,7.03113 -4.75128,10.87763 -2.45289,2.6314 -2.49481,2.9305 -1.82225,13 0.94493,14.14737 4.39527,52.56281 5.59381,62.2804 2.14821,17.41743 1.07187,21.90999 -6.12946,25.58384 -6.7724,3.45502 -14.19289,1.93297 -19.11921,-3.92164 -1.45131,-1.72478 -2.7803,-3.13432 -2.95331,-3.13231 -0.17301,0.002 -4.81456,4.39514 -10.31456,9.7625 -10.83206,10.57082 -19.4749,15.95038 -30.0523,18.70545 -7.20888,1.87767 -20.17269,1.87493 -27.154,-0.006 z m 653.5188,-29.14898 c 0.7219,-0.28887 1.5844,-0.25335 1.9167,0.0789 0.3323,0.33229 -0.2584,0.56864 -1.3125,0.52522 -1.165,-0.048 -1.4019,-0.28494 -0.6042,-0.60416 z M 504.61979,437.58991 c -3.8548,-1.74366 -7.07743,-5.76753 -8.40645,-10.49655 -2.37004,-8.43327 -8.24974,-39.41054 -11.98332,-63.13428 -7.50472,-47.68611 -8.17353,-51.49877 -12.59961,-71.82646 -2.43419,-11.17955 -4.42581,-22.33151 -4.42581,-24.78212 0,-8.29022 3.48217,-13.07659 13,-17.86895 1.925,-0.96927 7.44014,-3.75242 12.25586,-6.1848 12.20836,-6.16631 21.6189,-8.48779 36.74414,-9.06436 14.17405,-0.54032 21.18803,0.77363 31.25395,5.85488 15.49254,7.82061 23.80574,22.9801 22.41341,40.87181 -1.40149,18.00926 -10.80725,34.57701 -30.5438,53.80124 -8.46903,8.2492 -10.28172,10.49528 -9.09966,11.27527 0.81185,0.53571 5.9761,3.5122 11.4761,6.61442 20.11581,11.3461 49.54812,31.5288 56.41507,38.68565 4.43507,4.62231 5.37746,12.24235 2.14974,17.38256 -4.14312,6.59801 -12.27283,9.01764 -19.34693,5.7582 -1.76983,-0.81547 -9.06788,-5.75815 -16.21788,-10.98373 -20.10587,-14.6944 -59.178,-37.18894 -61.15747,-35.20948 -0.79848,0.79849 1.87674,18.1535 6.24603,40.5201 2.97907,15.24992 2.99907,17.99659 0.16144,22.16594 -4.64707,6.82796 -12.00373,9.48443 -18.33481,6.62066 z m 13.7248,-111.30335 c 3.49801,-2.56988 10.41001,-8.76039 15.36001,-13.75667 20.8308,-21.02558 24.14168,-38.24085 8.78436,-45.6752 -9.95909,-4.82111 -27.07526,-3.32974 -38.78436,3.37937 -5.05035,2.89377 -5.21258,0.27387 2.61459,42.22502 3.37766,18.1032 3.47941,18.5 4.74402,18.5 0.50675,0 3.78338,-2.10263 7.28138,-4.67252 z m 165.9815,95.96261 c -6.18677,-3.04782 -8.65391,-9.37974 -17.64659,-45.29009 -9.23256,-36.86827 -13.9621,-60.43212 -24.9886,-124.5 l -3.61424,-21 -3.83308,-3.54037 c -11.0395,-10.19648 -6.01539,-23.28327 12.29961,-32.03807 13.02614,-6.22665 21.90526,-8.17355 37.66141,-8.2579 15.27951,-0.0818 22.06114,1.27848 33.5,6.71953 16.39377,7.79791 25.56725,17.82222 30.92489,33.79313 5.9257,17.6643 1.45053,35.56 -14.58498,58.32368 -7.07228,10.03965 -30.05763,33.55627 -39.58507,40.5 -4.28234,3.12103 -6.18674,5.17743 -6.21463,6.71068 -0.0752,4.13414 7.86746,38.1756 14.59385,62.54774 3.89488,14.11257 3.84244,16.83341 -0.42209,21.90151 -4.73854,5.63144 -11.77982,7.23901 -18.09048,4.13016 z m 9.27662,-133.28491 c 15.97826,-15.54565 25.81549,-30.72328 27.35571,-42.20643 2.30885,-17.21377 -20.07903,-32.8701 -43.25382,-30.24833 -8.14725,0.92171 -9.5,1.77842 -9.5,6.01647 0,7.28481 10.86583,72.78896 12.51755,75.46151 1.1888,1.92352 2.76176,0.82162 12.88056,-9.02322 z m -63.12842,109.56447 c -4.20853,-1.89762 -6.83526,-6.36443 -8.78584,-14.94046 -0.86899,-3.82066 -3.77863,-15.98772 -6.46587,-27.03792 -10.2985,-42.34841 -18.05624,-84.03896 -18.36042,-98.66995 -0.1802,-8.66745 1.22885,-12.2941 5.66857,-14.58997 3.74739,-1.93785 10.64367,-1.91545 14.43843,0.0469 4.08768,2.11382 5.5525,6.28287 9.78289,27.84326 7.32628,37.33866 9.50758,48.05797 16.52743,81.2188 8.05138,38.03358 8.07974,38.72609 1.79318,43.79175 -4.3288,3.4881 -10.02419,4.40009 -14.59837,2.33759 z m 160.03464,-14.52565 c -5.69381,-3.47173 -6.45542,-5.27863 -13.29581,-31.544 -10.96073,-42.08646 -18.20588,-79.40426 -26.48416,-136.41292 l -3.54503,-24.41292 -3.96708,-3.39567 c -10.81345,-9.25591 -5.99982,-22.27152 11.66008,-31.52778 30.46745,-15.96919 68.28515,-10.65508 90.0954,12.66015 15.1761,16.22329 18.2996,37.40879 8.6352,58.56908 -7.42608,16.25946 -28.34581,40.84158 -49.12817,57.72898 -5.26927,4.28172 -9.27476,8.28922 -9.27476,9.27941 0,2.34784 3.88256,19.44742 11.12839,49.01167 6.66198,27.18207 7.02823,32.03775 2.76527,36.66151 -4.94538,5.36394 -12.95071,6.82058 -18.58933,3.38249 z m 7.58836,-131.01012 c 10.42477,-9.18617 21.14825,-22.56481 26.30036,-32.81237 3.5266,-7.0144 4.16683,-9.22847 4.19287,-14.5 0.0372,-7.52985 -2.33943,-12.6399 -8.44349,-18.15456 -8.17131,-7.38228 -21.9744,-11.43907 -34.39525,-10.10891 -10.32924,1.10617 -9.97207,-0.039 -7.03099,22.54196 4.32169,33.18099 9.05539,60 10.59033,60 0.48443,0 4.43821,-3.13476 8.78617,-6.96612 z m 194.2112,129.29665 c -3.84502,-1.94947 -8.63174,-8.86338 -10.22,-14.76172 -0.85772,-3.18533 -0.75593,-4.61394 0.51929,-7.2881 1.95667,-4.10318 5.57077,-5.59819 12.07193,-4.99366 4.33255,0.40288 5.46229,1.01166 8.74759,4.71366 4.6539,5.24427 6.4605,10.6988 5.1956,15.6867 -1.6948,6.68305 -9.75905,9.96675 -16.31441,6.64312 z m -94.8342,-75.81312 c -6.12772,-2.66389 -7.26173,-6.16081 -7.26595,-22.40588 -0.004,-16.38191 0.67097,-13.469 -14.97734,-64.61153 -17.10914,-55.91684 -18.02348,-59.80358 -15.35077,-65.25352 3.6222,-7.38606 13.81798,-10.62818 21.28319,-6.76778 3.32841,1.72119 2.2074,-1.20082 16.99571,44.30078 6.12757,18.85372 11.52594,34.0416 11.99638,33.75086 0.47044,-0.29075 2.57275,-4.24151 4.67182,-8.77948 18.01108,-38.93819 50.02193,-99.35367 54.92128,-103.65535 10.84763,-9.52436 28.0973,-2.76983 25.91491,10.14761 -0.37742,2.23397 -9.1042,20.75566 -19.39284,41.15932 -18.20983,36.11237 -37.66874,77.08191 -46.00998,96.87117 -2.26578,5.37549 -5.73704,15.95049 -7.71392,23.5 -1.97687,7.54951 -4.44468,15.14098 -5.48401,16.86993 -3.47402,5.77909 -12.39841,7.99959 -19.58848,4.87387 z m 87.8074,-67.66731 c -6.36852,-4.3725 -6.11348,-10.15925 0.64286,-14.58617 4.07301,-2.66874 20.52665,-2.51992 25.07125,0.22676 5.4856,3.31548 5.4951,9.7307 0.02,13.80635 -2.13,1.58567 -4.7262,2.095 -12.50003,2.45225 -9.05849,0.41629 -10.07445,0.2705 -13.2346,-1.89919 z m -394.04121,-13.1001 c -14.02821,-7.1933 -8.86015,-30.13462 6.78852,-30.13462 9.28043,0 16.1756,6.63802 16.1756,15.57234 0,6.70972 -2.98799,12.25534 -7.97362,14.79882 -5.12873,2.61648 -9.56305,2.54651 -14.9905,-0.23654 z"
       id="path1" />
  </g>
</svg>
