<?xml version="1.0" encoding="UTF-8" standalone="no"?>
<!-- Created with Inkscape (http://www.inkscape.org/) -->

<svg
   width="158.75mm"
   height="106.75288mm"
   viewBox="0 0 158.75 106.75288"
   version="1.1"
   id="svg1"
   xml:space="preserve"
   xmlns:inkscape="http://www.inkscape.org/namespaces/inkscape"
   xmlns:sodipodi="http://sodipodi.sourceforge.net/DTD/sodipodi-0.dtd"
   xmlns="http://www.w3.org/2000/svg"
   xmlns:svg="http://www.w3.org/2000/svg"><sodipodi:namedview
     id="namedview1"
     pagecolor="#ffffff"
     bordercolor="#000000"
     borderopacity="0.25"
     inkscape:showpageshadow="2"
     inkscape:pageopacity="0.0"
     inkscape:pagecheckerboard="0"
     inkscape:deskcolor="#d1d1d1"
     inkscape:document-units="mm" /><defs
     id="defs1" /><g
     inkscape:label="Layer 1"
     inkscape:groupmode="layer"
     id="layer1"
     transform="translate(-25.575127,-95.123563)"><path
       style="fill:#000000;stroke-width:0.182573"
       d="m 62.128557,201.61247 c -1.929556,-0.593 -4.522628,-2.78132 -6.102887,-5.15028 -0.972203,-1.45743 -1.142767,-2.08487 -1.144032,-4.20845 l -0.0011,-1.71163 -0.593362,0.12037 c -2.734035,0.5546 -5.769777,0.22127 -7.622437,-0.83695 -1.295003,-0.73969 -3.951309,-3.4319 -4.655622,-4.71855 l -0.547719,-1.00058 -0.056,-5.14539 c -0.05848,-5.37438 0.02379,-6.19225 0.710816,-7.06566 0.208849,-0.26551 1.443358,-1.27098 2.743351,-2.23439 l 2.363623,-1.75165 -0.800682,-0.93884 c -1.727401,-2.02544 -2.913383,-5.12243 -3.258061,-8.50786 -0.167055,-1.64081 -0.151267,-2.17884 0.100373,-3.42073 0.360532,-1.77931 0.866116,-3.06253 1.792171,-4.5487 0.382183,-0.61334 0.694878,-1.20899 0.694878,-1.32366 0,-0.11467 -0.235008,-0.20849 -0.522238,-0.20849 -0.287231,0 -0.901313,-0.052 -1.364628,-0.11546 -0.801214,-0.10982 -0.852019,-0.0901 -1.039389,0.40269 -0.319177,0.8395 -0.718259,4.05676 -0.721868,5.81945 -0.0019,0.8985 0.132485,2.67075 0.2985,3.93833 0.166018,1.26758 0.244835,2.53185 0.175149,2.80949 -0.33434,1.33213 -1.777854,1.8043 -2.824252,0.92382 -1.140706,-0.95985 -1.170501,-2.30193 -0.112094,-5.04976 0.336167,-0.87275 0.698413,-2.21376 0.80499,-2.98002 0.213709,-1.53651 0.235127,-4.28886 0.04331,-5.56596 -0.115543,-0.76931 -0.173723,-0.83898 -0.914376,-1.095 -0.744371,-0.2573 -0.806233,-0.25255 -1.049798,0.0805 -0.356402,0.48741 -0.324133,1.32127 0.103976,2.68699 0.437473,1.39559 0.453022,1.83169 0.09032,2.53308 -0.506071,0.97863 -1.955107,0.89345 -2.211986,-0.13003 -0.07018,-0.27961 0.0087,-1.15 0.178385,-1.96887 0.585613,-2.82576 0.319059,-4.18486 -0.947475,-4.831 -1.004256,-0.51233 -2.818525,-2.22914 -3.763828,-3.56163 -1.69564,-2.39028 -3.448756,-6.76515 -3.939201,-9.83041 -0.277217,-1.73259 -0.134932,-5.69309 0.270414,-7.52692 2.055072,-9.29757 9.03536,-18.52915 19.123367,-25.29111 7.244752,-4.856131 12.808341,-6.225183 16.853955,-4.147309 0.820656,0.421497 1.824824,1.294241 4.003167,3.479233 l 2.907729,2.916606 2.386899,-0.57016 c 5.652463,-1.3502 10.283028,-1.80777 12.507166,-1.23589 0.645793,0.16605 1.571305,0.54627 2.056691,0.84493 0.485386,0.29866 0.965078,0.54302 1.06598,0.54302 0.100904,0 0.695314,-0.21004 1.320916,-0.46676 1.404668,-0.57641 5.008031,-1.33801 7.030421,-1.48594 l 1.511211,-0.110545 0.84442,0.881295 0.84443,0.88129 1.84355,-0.30642 c 4.64207,-0.77157 9.02304,-0.85871 11.28695,-0.2245 0.94189,0.26386 1.11081,0.26526 1.71165,0.0142 0.68401,-0.28579 4.78163,-1.415315 6.73714,-1.857108 1.62992,-0.368236 5.24666,-0.506087 6.84651,-0.260956 0.75311,0.115396 1.82117,0.255394 2.37345,0.311113 l 1.00415,0.101306 0.85614,-1.194059 c 1.59905,-2.230205 3.07417,-2.864707 5.79419,-2.492285 2.11155,0.28911 4.82412,1.092846 8.25301,2.445374 1.64387,0.648423 3.2923,1.234827 3.66318,1.303121 0.49582,0.0913 1.17247,-0.02273 2.55603,-0.430755 2.28055,-0.672555 10.87228,-2.389267 12.66911,-2.531409 1.63643,-0.129455 2.36579,0.107381 3.51632,1.141802 0.93956,0.844748 2.79437,3.707166 3.23962,4.999506 0.36031,1.04579 0.0868,1.58038 -1.4769,2.88639 l -1.27802,1.06742 -0.13994,1.17849 c -0.47459,3.99677 -1.60311,10.78368 -2.60944,15.69307 -0.97569,4.75997 -1.77093,7.14703 -3.09821,9.29981 -0.45704,0.7413 -0.76607,1.40743 -0.68673,1.4803 0.0793,0.0729 1.33555,0.3813 2.79157,0.68542 1.45602,0.30413 3.10697,0.72546 3.66878,0.9363 1.28975,0.48402 3.00313,2.01058 3.73031,3.32356 0.46981,0.8483 0.54179,1.16418 0.53532,2.34937 -0.007,1.21993 -0.0934,1.55592 -0.79546,3.07998 -1.43745,3.12069 -1.64867,6.43294 -0.67467,10.57991 0.51044,2.17329 0.50117,2.92178 -0.0452,3.64606 -0.46045,0.61044 -1.45591,0.71765 -2.08306,0.22433 -0.59648,-0.46919 -0.66164,-1.26801 -0.21757,-2.66718 0.50234,-1.58277 0.58111,-6.31756 0.10015,-6.02031 -0.0796,0.0492 -0.52746,0.74822 -0.99533,1.55344 -0.87988,1.51432 -1.46776,1.9947 -2.79019,2.27994 -0.4845,0.1045 -0.58795,0.22547 -0.68264,0.79822 -0.22234,1.34483 -0.12292,5.407 0.15743,6.43196 1.00412,3.6711 1.04689,3.90731 0.84391,4.66111 -0.5634,2.0923 -3.16371,2.43886 -3.9621,0.52804 -0.35941,-0.86019 -0.3263,-1.48284 0.18714,-3.51876 0.87475,-3.46861 0.97739,-5.44438 0.43204,-8.31598 -0.19136,-1.00762 -0.24787,-1.09142 -0.95141,-1.41093 -1.14375,-0.51944 -1.38697,-0.46532 -1.38697,0.3086 0,0.36097 0.17315,1.22637 0.38478,1.9231 0.32118,1.05742 0.34877,1.35373 0.16691,1.79277 -0.28971,0.69943 -1.13738,1.06154 -1.73554,0.74142 -0.74038,-0.39624 -0.91747,-1.11957 -0.57389,-2.34408 0.31718,-1.1304 0.38635,-2.52887 0.14397,-2.91078 -0.19192,-0.30242 -1.78563,-0.556 -3.79864,-0.60441 l -1.60313,-0.0386 -0.13287,0.52905 c -0.16006,0.63726 -0.99366,6.75564 -1.35314,9.93157 -0.14208,1.25519 -0.25914,3.18825 -0.26015,4.29568 l -0.002,2.01351 1.32366,0.33522 c 4.59739,1.16431 7.37594,4.5543 7.00491,8.5464 -0.25333,2.72574 -1.67781,5.84043 -3.62119,7.91791 -1.55212,1.65923 -2.22542,1.98396 -4.12641,1.99016 l -1.51862,0.005 0.14932,1.09544 c 0.28375,2.08156 0.16974,4.47522 -0.25842,5.42557 -0.54179,1.20256 -1.88654,2.5769 -3.02212,3.08859 -1.40569,0.63341 -3.83347,0.61158 -5.2507,-0.0472 -1.95786,-0.9101 -3.11841,-2.33332 -3.47482,-4.26129 -0.1594,-0.86228 -0.12738,-1.48804 0.17658,-3.45104 0.55371,-3.57584 0.64691,-4.93535 0.35478,-5.17489 -0.25806,-0.21161 -1.41192,-0.40189 -5.53787,-0.91324 -4.0257,-0.49892 -14.6743,-0.44346 -19.44406,0.10127 -4.56821,0.52171 -7.58632,1.0014 -11.22826,1.7846 -13.842894,2.9769 -25.863404,7.74292 -35.774227,14.18416 -1.400233,0.91003 -2.837998,1.75907 -3.195035,1.88674 -0.857149,0.30651 -2.266119,0.28689 -3.351469,-0.0467 z m 3.534633,-2.3261 c 0.546377,-0.33695 2.184704,-1.36847 3.640727,-2.29228 3.752345,-2.38075 10.638192,-5.73072 15.792596,-7.68312 11.715398,-4.43758 22.906507,-6.99649 34.415077,-7.86921 3.56829,-0.27059 12.51797,-0.1088 15.79259,0.2855 2.10597,0.25358 5.85028,0.84628 6.98343,1.10543 0.39808,0.091 0.41079,0.16203 0.41079,2.29354 0,1.29189 -0.15008,3.16507 -0.36368,4.5392 -0.41399,2.66333 -0.33089,3.6016 0.41941,4.73538 1.53316,2.31677 5.67658,2.15075 7.01925,-0.28125 0.65447,-1.18547 0.69372,-2.53955 0.15263,-5.26625 -0.25904,-1.3054 -0.4713,-2.92802 -0.47169,-3.60582 l -7.9e-4,-1.23237 h 0.64059 c 0.52236,0 0.84218,0.18532 1.73286,1.00415 0.86268,0.79309 1.21732,1.00331 1.68722,1.00014 2.6533,-0.0179 5.64407,-4.52836 5.68712,-8.57693 0.0171,-1.61242 -0.3433,-2.44675 -1.66959,-3.86467 -1.08466,-1.15958 -2.57637,-1.85735 -4.94212,-2.31174 -1.03657,-0.19909 -1.91614,-0.39345 -1.95459,-0.4319 -0.29843,-0.29843 0.71128,-9.99494 1.74443,-16.75218 0.29863,-1.95321 0.54297,-3.62842 0.54297,-3.72269 0,-0.10397 1.16713,-0.13128 2.96682,-0.0694 3.15353,0.10842 5.87059,0.52551 8.5353,1.31022 2.50755,0.73843 2.9449,0.64106 3.91065,-0.87061 2.06054,-3.22533 4.12258,-7.77531 4.12258,-9.09667 0,-1.23226 -0.86493,-2.48385 -2.47912,-3.58741 -0.85464,-0.58429 -3.96463,-1.1481 -9.82327,-1.78087 l -1.07414,-0.11602 1.09063,-1.1249 c 2.18184,-2.25042 2.88848,-3.38903 3.97641,-6.40711 1.26963,-3.52219 2.68385,-10.29607 3.75297,-17.97619 0.30204,-2.16977 0.67339,-4.28446 0.82522,-4.69931 0.21012,-0.5741 0.53952,-0.93908 1.37901,-1.52795 1.31528,-0.92261 1.31567,-0.99564 0.0172,-3.16104 -1.72491,-2.876575 -2.20967,-3.117449 -5.22369,-2.595579 -5.29129,0.916175 -8.89629,1.737849 -10.18343,2.321089 -1.17747,0.53354 -1.52161,0.6057 -2.8886,0.6057 -1.51381,0 -1.61232,-0.0277 -4.01661,-1.12741 -3.58526,-1.639955 -5.93751,-2.360031 -9.46528,-2.897538 -1.12705,-0.171722 -2.29324,0.201417 -2.94325,0.941734 -0.66268,0.754753 -0.83288,1.589374 -0.57208,2.805434 0.35664,1.66295 0.36066,1.65915 -1.0319,0.97418 -2.20858,-1.08636 -3.75748,-1.38963 -7.166,-1.40308 -2.69911,-0.0107 -3.21949,0.04 -5.00274,0.48746 -4.49585,1.12798 -5.21308,1.46115 -5.58746,2.59553 -0.249,0.7545 -0.35116,0.77662 -0.89806,0.19447 -1.04494,-1.11228 -3.67919,-1.67889 -6.95122,-1.49516 -2.3172,0.13012 -5.62275,0.64855 -7.5441,1.18319 l -1.24489,0.34641 -0.17005,-0.44727 c -0.0935,-0.246 -0.17005,-0.54967 -0.17005,-0.67483 0,-0.12515 -0.17822,-0.41883 -0.39603,-0.65262 -0.376404,-0.40403 -0.478155,-0.4193 -2.053947,-0.30836 -2.589417,0.18231 -4.729946,0.72579 -6.574089,1.66916 l -1.629842,0.83374 -0.743611,-0.72687 c -1.262952,-1.23451 -2.020967,-1.46796 -4.781476,-1.47258 -3.506655,-0.006 -8.768337,1.02887 -12.949343,2.54658 -1.091817,0.39633 -2.007153,0.69857 -2.034083,0.67164 -0.02693,-0.0269 0.118634,-0.49004 0.323475,-1.02914 0.20484,-0.5391 0.327845,-1.15785 0.273341,-1.37501 -0.115491,-0.46015 -1.949749,-2.88708 -3.151402,-4.169648 -0.46963,-0.501256 -1.278276,-1.096595 -1.859915,-1.369301 -0.950301,-0.445556 -1.210649,-0.481976 -3.402491,-0.475978 -2.192571,0.006 -2.503901,0.05154 -4.085048,0.597519 -7.072683,2.442238 -15.607292,9.260448 -20.497578,16.375308 -4.275532,6.22046 -6.34787,12.81242 -5.632709,17.91725 0.63736,4.54949 2.582942,8.72528 5.210463,11.1832 1.816185,1.69895 3.496657,2.44718 7.095324,3.15917 2.116727,0.4188 6.74462,0.58136 7.842744,0.27549 0.467982,-0.13035 0.38017,0.0219 -0.842232,1.46058 -4.212664,4.95793 -5.018119,7.9581 -3.494656,13.01695 0.899999,2.98856 2.462382,5.10872 4.538215,6.15838 l 1.044657,0.52824 -2.070944,1.22637 c -2.675125,1.58416 -5.196594,3.47308 -5.551032,4.15849 -0.234657,0.45378 -0.270719,1.32316 -0.22537,5.4333 l 0.05399,4.89308 0.692321,1.04223 c 0.99485,1.49765 2.793201,3.19832 3.9633,3.74803 0.915882,0.43027 1.196745,0.46998 3.195034,0.45166 1.516121,-0.0139 2.722431,-0.14042 3.916778,-0.41079 0.949246,-0.21489 1.759855,-0.39071 1.801358,-0.39071 0.04151,0 0.02341,0.51349 -0.04022,1.14108 -0.06362,0.6276 -0.12632,1.88749 -0.139321,2.79976 -0.02217,1.55521 0.01468,1.7306 0.590904,2.81168 0.878351,1.64795 3.023632,3.86618 4.408123,4.55802 1.536591,0.76785 2.492136,0.75381 3.805123,-0.0559 z m -6.211949,-5.71252 c -0.395676,-0.49625 -0.410689,-0.62683 -0.31183,-2.71223 0.154289,-3.25473 0.443842,-4.87947 1.035998,-5.8132 0.41775,-0.65872 0.811511,-0.95088 2.305761,-1.71079 7.224726,-3.67418 19.010935,-7.27038 29.735701,-9.07292 9.207679,-1.54757 16.356159,-2.26767 26.655709,-2.68516 10.07297,-0.40832 23.67985,0.3994 32.84158,1.94951 3.07849,0.52086 3.72095,0.73862 4.28144,1.45117 0.51651,0.65663 0.49719,1.23592 -0.0821,2.46225 -0.26089,0.55228 -0.88055,1.9457 -1.37702,3.09649 -0.49646,1.15078 -0.99145,2.19931 -1.09996,2.33006 -0.25765,0.31045 -0.69656,-0.0282 -0.69656,-0.53748 0,-0.87702 -0.57141,-1.59174 -1.70887,-2.13747 -1.37071,-0.65763 -3.1485,-1.07101 -3.42348,-0.79604 -0.54986,0.54987 -0.68682,3.38674 -0.26894,5.57079 0.14217,0.74304 0.52197,2.24965 0.84401,3.34802 0.63907,2.17967 0.75222,3.51028 0.37578,4.41908 -0.66243,1.59924 -3.21326,1.78309 -4.36819,0.31484 -0.57856,-0.73552 -0.62132,-1.6323 -0.20884,-4.38003 0.46147,-3.07412 0.77504,-8.15249 0.54134,-8.76718 -0.25635,-0.67424 -0.84903,-0.94826 -2.91979,-1.34993 -4.27133,-0.82854 -10.85036,-1.39646 -14.14943,-1.22142 -1.1734,0.0622 -1.85651,0.0415 -1.64316,-0.0498 0.75514,-0.32333 6.52325,-0.79516 10.01446,-0.81916 3.38303,-0.0233 3.54108,-0.0389 2.37345,-0.23539 -3.1408,-0.52843 -5.73401,-0.64939 -12.02277,-0.56079 -8.23788,0.11605 -14.02839,0.73877 -22.50393,2.42011 -11.202008,2.2222 -21.412819,5.40967 -30.990055,9.67404 -2.195965,0.97777 -6.994925,3.44998 -9.274212,4.77765 -2.796382,1.62888 -3.364111,1.77741 -3.956072,1.03498 z m -8.044211,-8.2895 c -0.145902,-0.27262 -0.143037,-0.64888 0.01056,-1.38882 0.115883,-0.55819 0.141426,-1.08252 0.05677,-1.16517 -0.08466,-0.0827 -1.331476,-0.17657 -2.770704,-0.2087 -2.340969,-0.0523 -2.64405,-0.0958 -2.875531,-0.41281 -0.203933,-0.27932 -0.258606,-1.16897 -0.258069,-4.19919 7.93e-4,-4.49557 0.0019,-4.49898 1.856044,-5.80826 2.484808,-1.75462 6.98069,-4.15274 7.785338,-4.15274 0.678728,0 0.762283,0.38016 0.381952,1.73776 -0.63365,2.26182 -0.195201,2.61917 2.159289,1.75989 1.85247,-0.67607 3.635007,-1.81978 5.333595,-3.42214 1.913824,-1.8054 2.276166,-2.69987 1.341665,-3.31198 -0.446278,-0.29231 -1.043882,-0.32374 -6.161849,-0.32402 -5.525329,-2.6e-4 -5.698938,-0.0114 -6.913912,-0.44104 -3.080221,-1.08928 -4.705742,-4.12388 -4.152032,-7.7512 0.976556,-6.39736 10.968347,-15.06193 20.052644,-17.38903 2.34887,-0.6017 5.382233,-0.56268 7.03214,0.0905 1.068801,0.4231 2.413458,1.3363 2.739142,1.86021 0.132611,0.21333 -0.225793,1.18972 -1.407359,3.83404 -0.871905,1.9513 -1.971169,4.43224 -2.44281,5.5132 -0.471644,1.08095 -1.06293,2.21139 -1.313966,2.51208 -0.54864,0.65716 -1.371023,0.84153 -4.55657,1.02156 -1.969288,0.11129 -2.201375,0.0922 -2.30959,-0.18978 -0.07594,-0.19789 0.292637,-1.17151 0.999474,-2.64017 1.402006,-2.91308 1.410756,-3.02825 0.219398,-2.88715 -0.49521,0.0587 -1.255173,0.28682 -1.688804,0.50705 -1.741074,0.88424 -4.520713,2.89508 -5.909945,4.27537 -2.255088,2.24056 -2.82748,3.86642 -1.664816,4.72885 0.49817,0.36953 0.7196,0.38349 6.207495,0.39125 6.046526,0.009 6.795119,0.0742 8.269751,0.72528 2.244066,0.99079 3.283905,2.72451 3.119019,5.2003 -0.112816,1.69394 -0.57305,3.0288 -1.693968,4.9132 -3.391509,5.70151 -11.405225,11.24591 -19.02858,13.16516 -0.941824,0.23712 -1.133067,0.61754 -1.133067,2.25394 0,0.64194 -0.09554,1.23387 -0.219088,1.35742 -0.335,0.335 -0.840883,0.26136 -1.063625,-0.15484 z m 23.800768,-14.979 c 0.256696,-5.58655 1.311661,-14.48857 2.686817,-22.67192 0.737796,-4.39051 1.005774,-5.60927 1.296075,-5.89459 0.358198,-0.35205 5.366885,-1.58454 6.544829,-1.61049 0.895334,-0.0197 1.002199,0.0175 0.986139,0.34302 -0.0099,0.20083 -0.517091,2.58342 -1.127075,5.29463 -1.077902,4.79098 -1.646611,7.85841 -1.48663,8.01839 0.04316,0.0432 0.940501,-0.16384 1.994098,-0.45999 1.0536,-0.29616 2.218973,-0.62045 2.589726,-0.72066 0.629079,-0.17003 0.682157,-0.23983 0.794845,-1.04523 0.433277,-3.09665 1.603796,-9.38373 2.018043,-10.83928 0.04694,-0.16493 0.308544,-0.38954 0.581348,-0.49913 0.895334,-0.35968 4.681747,-1.27062 5.813859,-1.3987 1.332458,-0.15075 1.453638,0.002 1.045748,1.31274 -0.761265,2.4475 -1.532462,6.09348 -2.079456,9.83105 -0.778664,5.32054 -0.948783,7.71722 -0.983917,13.86167 -0.03297,5.76693 -0.04878,6.01667 -0.389287,6.15033 -0.195204,0.0766 -1.780132,0.31726 -3.522064,0.53474 -2.34347,0.29258 -3.220495,0.34207 -3.372266,0.1903 -0.244409,-0.24441 -0.293139,-7.07484 -0.07218,-10.11657 l 0.143626,-1.9771 -0.417486,0.11968 c -1.427686,0.40927 -3.460036,1.08876 -4.18356,1.39872 l -0.844902,0.36195 -0.119517,1.21949 c -0.06573,0.67072 -0.194366,2.93723 -0.285848,5.03668 -0.124368,2.85418 -0.230894,3.88175 -0.422249,4.07311 -0.296177,0.29617 -5.309804,1.84346 -6.503987,2.00724 l -0.805604,0.11048 z m 67.490602,-1.09631 c -3.89493,-0.4247 -3.94832,-0.43649 -4.2733,-0.94377 -0.22625,-0.35317 -0.22678,-0.72633 -0.004,-2.78135 0.49456,-4.56121 2.06115,-13.24182 3.44318,-19.07891 0.15453,-0.6527 0.28219,-1.24835 0.28367,-1.32366 0.004,-0.22302 -1.3795,-0.15125 -4.1922,0.21739 -1.45367,0.19052 -2.70657,0.30713 -2.78424,0.25913 -0.25655,-0.15855 -0.1547,-0.6758 0.71035,-3.60783 0.48305,-1.63727 1.02147,-3.09373 1.23484,-3.34033 0.65148,-0.75293 3.91259,-1.01604 12.8846,-1.03953 8.00716,-0.021 9.85539,0.10344 14.97102,1.00766 1.15478,0.20412 2.38715,0.41697 2.7386,0.47301 0.87387,0.13934 1.14693,0.39269 1.02808,0.95386 -0.0544,0.25667 -0.74312,1.69903 -1.53059,3.20526 -1.21061,2.31562 -1.53366,2.79388 -2.09158,3.09651 -0.65931,0.35764 -0.66109,0.3576 -2.27355,-0.0491 -3.19117,-0.80486 -8.5461,-1.48916 -11.68859,-1.49367 -1.09317,-0.002 -1.32664,0.0513 -1.40325,0.31762 -0.18465,0.64201 -0.84915,4.21249 -1.19774,6.43571 -0.75627,4.8233 -1.14125,8.92055 -1.26089,13.41914 l -0.12139,4.56434 -0.63901,0.0284 c -0.35145,0.0156 -2.07677,-0.12832 -3.83404,-0.31993 z m -45.506405,-0.81599 c -0.565393,-0.57848 0.854311,-12.48378 2.437015,-20.43617 1.23679,-6.21434 1.66463,-8.02217 1.97003,-8.32431 0.65992,-0.65289 8.15298,-1.67736 12.43535,-1.70019 l 3.19503,-0.017 0.0594,0.41891 c 0.0881,0.62145 -0.90843,4.78123 -1.23669,5.16212 -0.22058,0.25595 -0.6673,0.35308 -2.01774,0.43873 -1.69859,0.10773 -3.70162,0.30879 -5.61404,0.56352 l -0.95842,0.12766 -0.27775,0.93501 c -0.33931,1.14222 -0.72654,3.18985 -0.62104,3.28398 0.0424,0.0378 0.82301,-0.0352 1.73478,-0.16225 0.91176,-0.12704 2.45108,-0.29046 3.42072,-0.36315 1.51999,-0.11396 1.77827,-0.0923 1.87398,0.15712 0.18767,0.48906 -0.64307,4.92117 -0.98602,5.26057 -0.20606,0.20392 -1.11527,0.42527 -2.7714,0.6747 -1.35561,0.20418 -2.89145,0.46368 -3.41299,0.57667 l -0.94825,0.20545 -0.19106,0.94558 c -0.18633,0.92216 -0.54554,4.72197 -0.45734,4.83776 0.0244,0.032 1.38743,-0.27275 3.02904,-0.67716 1.64161,-0.40442 3.66967,-0.83132 4.50679,-0.94868 2.14032,-0.30005 2.11539,-0.34082 1.66487,2.72207 -0.19678,1.3378 -0.43186,3.09446 -0.5224,3.90368 -0.0905,0.80922 -0.25968,1.53007 -0.37589,1.60189 -0.1162,0.0718 -1.82889,0.18645 -3.80598,0.25473 -3.30195,0.11404 -6.43211,0.2893 -10.44119,0.58459 -0.853531,0.0629 -1.613494,0.0513 -1.688805,-0.0258 z m 17.818405,-0.36061 c -0.39589,-1.03165 3.57178,-29.46607 4.2082,-30.15821 0.28875,-0.31403 7.67176,-0.77901 12.38205,-0.77982 3.52454,-5.3e-4 3.79456,0.0229 3.96698,0.34505 0.13815,0.25814 0.0197,0.98642 -0.46779,2.87553 -0.35903,1.39141 -0.73701,2.63253 -0.83994,2.75805 -0.12979,0.15827 -0.83784,0.22955 -2.31004,0.23254 -2.26611,0.005 -6.3911,0.27771 -6.54682,0.43344 -0.12735,0.12735 -0.76321,3.19901 -0.7722,3.73029 -0.006,0.36903 0.0592,0.41124 0.49488,0.31908 0.27614,-0.0584 1.73444,-0.18301 3.24067,-0.27687 3.61176,-0.22506 3.47163,-0.35157 2.99268,2.7019 -0.19466,1.2411 -0.43654,2.41088 -0.5375,2.59952 -0.22373,0.41804 -0.26293,0.42588 -4.00705,0.80164 -1.65685,0.16628 -3.07108,0.35911 -3.14272,0.42852 -0.1764,0.17089 -0.69132,3.65999 -0.69132,4.6844 0,0.45254 0.083,0.82279 0.18439,0.82279 0.10142,0 1.39541,-0.2943 2.87553,-0.654 2.97136,-0.72209 7.23159,-1.40289 8.24613,-1.31777 0.59719,0.0501 0.65757,0.10788 0.71221,0.68162 0.0605,0.63535 -0.97082,6.44639 -1.23346,6.94992 -0.0926,0.1776 -0.55321,0.31571 -1.31028,0.39292 -0.64209,0.0655 -2.11225,0.21273 -3.26702,0.32722 -2.30203,0.22824 -6.98653,0.99993 -11.18544,1.8426 -3.16916,0.63601 -2.85808,0.60901 -2.99214,0.25964 z M 51.2926,143.02068 c -0.09837,-0.25634 0.269827,-2.4694 0.599104,-3.60092 0.07261,-0.24951 -0.159218,-0.1732 -1.037318,0.34144 -2.560341,1.50057 -4.815255,2.03061 -7.806777,1.83505 -4.376092,-0.28608 -7.390159,-1.7094 -9.169993,-4.33033 -3.169197,-4.66684 -2.425356,-12.20099 1.941397,-19.66384 6.33989,-10.83497 18.700017,-19.69362 25.542964,-18.30695 1.456436,0.295135 2.380753,0.85596 3.624051,2.19887 1.365621,1.47503 1.371918,1.60175 0.213146,4.28844 -1.621692,3.75999 -4.111059,9.76045 -4.111059,9.90944 0,0.34026 -0.770932,0.95054 -1.422336,1.12594 -0.379807,0.10228 -2.043171,0.26323 -3.696367,0.35769 -3.75965,0.21481 -3.848936,0.17137 -2.959129,-1.43986 1.506641,-2.72816 2.783208,-5.42902 2.783208,-5.88851 0,-2.25733 -6.518143,3.07354 -9.819106,8.03058 -2.996406,4.49968 -4.251936,8.32701 -4.009004,12.22095 0.07705,1.23496 0.210204,1.77225 0.671351,2.70899 0.316384,0.64266 0.785363,1.33376 1.042173,1.53577 1.623639,1.27715 4.606761,0.21622 7.501472,-2.66786 1.518348,-1.51277 3.142144,-3.74436 2.806065,-3.85639 -0.307385,-0.10246 -3.53496,0.81931 -5.667563,1.61861 -1.110887,0.41637 -2.1429,0.70979 -2.293361,0.65205 -0.335989,-0.12893 -0.345776,-0.7193 -0.06348,-3.82892 0.147511,-1.62489 0.301826,-2.44943 0.503394,-2.68974 0.335661,-0.40019 3.703235,-1.48749 7.867467,-2.54019 4.430781,-1.12009 5.282428,-1.29442 6.887591,-1.40986 1.355114,-0.0975 1.51447,-0.0747 1.632765,0.23362 0.157726,0.41102 -0.406736,3.84448 -1.408382,8.56678 -0.404683,1.90789 -1.029042,4.98882 -1.387459,6.8465 -0.358418,1.85769 -0.72245,3.56072 -0.808961,3.78453 -0.20914,0.54105 -1.375738,1.26838 -4.459121,2.78008 -3.076543,1.50836 -3.339531,1.59771 -3.496736,1.18804 z m 29.964115,-4.74746 c -2.486467,-1.65848 -6.16599,-6.27767 -8.574743,-10.76455 -0.485167,-0.90374 -0.897919,-1.66564 -0.917231,-1.69311 -0.01932,-0.0275 -0.160415,-0.002 -0.313569,0.0569 -0.349303,0.13404 -0.4431,0.73678 -0.680802,4.37479 -0.104973,1.60664 -0.222731,3.40252 -0.261683,3.99084 -0.03895,0.58831 -0.182184,1.18095 -0.318291,1.31697 -0.299937,0.29973 -7.19278,1.92452 -7.562506,1.78264 -0.143971,-0.0552 -0.261761,-0.175 -0.261761,-0.26612 0,-1.98041 3.906481,-27.22342 4.335069,-28.01247 0.318585,-0.58654 1.713402,-1.23896 4.976172,-2.32759 3.503755,-1.16905 6.425068,-1.8524 9.150816,-2.14058 3.525771,-0.37275 5.25939,0.27677 6.11057,2.28941 0.460105,1.08792 0.401937,3.99593 -0.113157,5.65729 -1.063784,3.43108 -3.642183,6.94676 -7.536799,10.27652 -0.848527,0.72546 -0.838467,0.77155 0.658717,3.01792 2.15436,3.2324 6.002213,6.43537 8.724353,7.26219 0.970388,0.29475 1.268288,0.46188 1.226603,0.68816 -0.08687,0.47156 -6.450783,4.62321 -7.45503,4.86347 -0.327176,0.0783 -0.673828,-0.0306 -1.186728,-0.3727 z m -8.248417,-18.18284 c 3.41942,-1.73142 7.797739,-6.31739 7.797739,-8.16757 0,-1.23951 -1.470258,-1.46091 -3.955814,-0.59568 -1.82322,0.63467 -3.129606,1.37902 -3.350072,1.9088 -0.187492,0.45054 -1.179333,5.05977 -1.372116,6.37644 -0.06984,0.47697 -0.0733,0.86722 -0.0077,0.86722 0.06561,0 0.465188,-0.17515 0.887952,-0.38921 z m 20.828611,16.23568 c -0.176651,-0.28583 -0.140589,-0.78522 0.313735,-4.34435 0.56405,-4.41871 1.028645,-7.50917 2.0036,-13.32785 1.558446,-9.30102 1.948098,-11.35008 2.204032,-11.59028 0.389984,-0.366 4.095104,-1.5248 6.099904,-1.90778 6.0496,-1.15567 9.53991,-0.26056 10.9715,2.81369 0.51279,1.10118 0.58319,3.34984 0.16094,5.14036 -1.08375,4.59555 -5.25057,9.10568 -10.90584,11.80438 -1.28311,0.61231 -2.37289,1.24115 -2.42174,1.39742 -0.18167,0.58124 -0.458,4.55385 -0.45951,6.60621 -10e-4,1.47776 -0.0709,2.17827 -0.22977,2.30514 -0.12552,0.10024 -1.62491,0.39949 -3.331967,0.66498 -1.707062,0.2655 -3.364354,0.5247 -3.682873,0.576 -0.360423,0.0581 -0.633087,0.006 -0.722011,-0.13792 z m 10.586821,-16.80498 c 1.54779,-0.81927 3.37995,-2.68657 4.12908,-4.20826 1.12887,-2.29307 0.94539,-4.65583 -0.41155,-5.29974 -1.03153,-0.48949 -2.91777,-0.35135 -3.23251,0.23674 -0.25259,0.47196 -1.82662,8.69016 -1.82818,9.54512 -7.9e-4,0.42367 0.0418,0.415 1.34316,-0.27386 z m 9.85034,15.99801 c -0.14625,-0.38065 0.54512,-6.91383 1.51428,-14.30921 0.76521,-5.83908 2.23107,-16.03526 2.36822,-16.47275 0.0959,-0.30603 0.94244,-0.61531 3.63719,-1.3289 0.60249,-0.15955 2.05934,-0.38357 3.23744,-0.49784 5.71375,-0.55416 9.37821,1.21595 10.46903,5.05705 0.36417,1.28236 0.27027,3.58871 -0.21207,5.20922 -1.3427,4.51091 -5.5505,8.69547 -11.21224,11.15029 l -1.55187,0.67286 -0.11934,0.98057 c -0.0656,0.53931 -0.18143,2.76831 -0.25732,4.95334 -0.0866,2.49333 -0.21214,4.02998 -0.3371,4.12639 -0.10951,0.0845 -1.51364,0.25293 -3.12028,0.37431 -1.60665,0.12138 -3.2279,0.26712 -3.60279,0.32386 -0.55524,0.084 -0.706,0.0397 -0.81315,-0.23919 z m 10.4582,-17.19904 c 1.4359,-0.93093 3.02282,-2.68123 3.7077,-4.08943 0.65193,-1.34046 0.89477,-3.12304 0.5828,-4.2781 -0.41312,-1.52954 -1.89694,-2.42334 -3.59925,-2.16807 -0.76878,0.11529 -0.78017,0.12785 -0.96561,1.06563 -0.14914,0.75424 -1.05917,7.25615 -1.35299,9.66685 -0.0857,0.70305 0.3138,0.65471 1.62735,-0.19688 z m 14.83975,17.21498 c -2.85704,-0.44521 -4.80808,-1.51244 -5.77648,-3.15978 -0.40486,-0.6887 -0.49719,-1.06312 -0.4866,-1.97338 0.0133,-1.1454 0.39896,-2.07163 0.86253,-2.07163 0.1255,0 0.85569,0.24164 1.62265,0.53697 1.69207,0.65156 3.80448,1.10619 5.13978,1.10619 1.2475,0 1.54617,0.28194 1.13697,1.07326 -0.86496,1.67265 0.3542,2.4908 2.58381,1.73394 2.53174,-0.85942 4.82753,-3.44225 6.61901,-7.44658 0.47781,-1.06803 1.46625,-3.83629 1.46625,-4.10647 0,-0.0461 -0.71889,0.61452 -1.59752,1.46795 -1.77884,1.72782 -3.8278,3.08131 -5.32777,3.51939 -1.49669,0.43712 -4.12057,0.38689 -5.4326,-0.104 -2.028,-0.75877 -3.65772,-2.83669 -4.25985,-5.43136 -0.34961,-1.50653 -0.11969,-6.12607 0.45067,-9.05475 0.9742,-5.00235 1.06514,-5.74219 0.96368,-7.84044 -0.0563,-1.16488 -0.22304,-2.36253 -0.39419,-2.83197 -0.54017,-1.481559 -0.30351,-1.538225 3.40461,-0.8152 2.43148,0.4741 5.66094,1.45381 6.93528,2.10393 0.73428,0.3746 0.99888,0.93656 0.78012,1.65678 -0.0708,0.23318 -0.56305,1.45094 -1.09382,2.70614 -2.0728,4.90193 -2.7027,7.27829 -2.71008,10.2241 -0.004,1.46548 0.0689,2.05638 0.30809,2.50867 1.5608,2.95128 5.67014,0.12434 8.2911,-5.7037 1.24164,-2.76097 1.89639,-5.14718 2.23902,-8.16014 0.26847,-2.36086 0.30614,-2.48095 0.86915,-2.77145 1.07181,-0.553 10.75337,-2.25688 11.06322,-1.94704 0.0998,0.0998 -0.0524,0.4442 -0.38125,0.86262 -1.15973,1.47553 -1.33711,2.07699 -2.78989,9.45998 -2.37608,12.07527 -4.34549,17.23066 -7.91395,20.71664 -1.81119,1.76933 -4.83347,3.30336 -7.41594,3.76415 -1.76404,0.31476 -7.0746,0.30152 -9.156,-0.0228 z m -54.366002,-5.16244 c -0.586927,-1.09667 1.786213,-16.16034 2.687977,-17.0621 0.506248,-0.50625 4.417814,-1.41098 6.102966,-1.4116 0.594357,-2.2e-4 0.684652,0.0556 0.684652,0.42305 0,0.23281 -0.123614,0.83955 -0.274696,1.3483 -0.809442,2.72568 -2.013005,10.13738 -2.217536,13.65585 -0.06421,1.10457 -0.179589,2.17905 -0.2564,2.38773 -0.126725,0.34429 -0.415899,0.40796 -3.122917,0.68755 -3.61641,0.37351 -3.387772,0.37534 -3.604046,-0.0288 z m 3.449231,-19.57208 c -0.133866,-0.25013 -0.01132,-0.85475 0.477863,-2.35782 0.724517,-2.22613 1.1151,-2.85489 2.004209,-3.22638 1.449273,-0.60554 5.956495,-1.36616 6.158518,-1.03928 0.149897,0.24254 -1.770846,4.95331 -2.181828,5.35111 -0.205155,0.19858 -1.068803,0.4775 -2.166845,0.6998 -1.004155,0.2033 -2.340121,0.49098 -2.96881,0.63929 -1.077595,0.25422 -1.153391,0.25039 -1.323107,-0.0667 z m 84.369431,18.802 c -0.24054,-0.10159 -0.83871,-0.47934 -1.32929,-0.83945 -0.97275,-0.71407 -2.45315,-1.34568 -3.15404,-1.34568 -0.84884,0 -0.63875,-0.32996 0.50051,-0.78603 3.71253,-1.48623 7.06746,-0.92931 7.06746,1.17319 0,1.03079 -0.75309,1.81656 -1.83165,1.91114 -0.44861,0.0393 -1.01246,-0.0116 -1.25299,-0.11317 z m 5.50856,-4.26235 c -0.69723,-0.55435 -1.14169,-0.78561 -2.10441,-1.09497 -0.6694,-0.21511 -0.2633,-0.41674 1.30836,-0.64961 1.94871,-0.28873 2.78779,-0.16757 3.2937,0.4756 0.47064,0.59832 0.47302,1.05536 0.008,1.52047 -0.5824,0.5824 -1.58305,0.48196 -2.50556,-0.25149 z m -8.99655,-0.9624 c 0,-0.17992 1.49627,-1.96669 3.2227,-3.8484 2.36911,-2.58218 5.86961,-4.99901 7.85964,-5.4265 1.77309,-0.38089 3.7061,0.75524 3.7061,2.17827 0,1.63546 -1.25633,2.73969 -3.7403,3.28749 -0.70426,0.15532 -2.20413,0.48174 -3.33305,0.72537 -2.15326,0.46472 -4.66096,1.47755 -6.37837,2.57616 -0.94747,0.6061 -1.33672,0.75391 -1.33672,0.50761 z M 26.946901,113.04772 c -0.504142,-0.1843 -1.082974,-0.83196 -1.281708,-1.43413 -0.290319,-0.87967 0.130506,-1.75079 1.128181,-2.33535 1.347891,-0.78975 2.690016,-1.03132 5.714727,-1.02857 3.897734,0.004 4.371645,0.20005 2.407568,0.99831 -1.282737,0.52134 -2.245852,1.13812 -3.610821,2.31236 -1.584664,1.36323 -3.194508,1.91268 -4.357947,1.48738 z m 8.672232,-6.20273 c -0.467556,-0.17991 -1.725144,-0.32624 -3.495527,-0.40673 -2.593372,-0.11789 -2.811592,-0.15639 -3.511145,-0.61933 -1.262454,-0.83545 -1.190683,-2.03571 0.163872,-2.74051 0.50201,-0.2612 0.941764,-0.31568 2.095895,-0.25966 1.769694,0.0859 3.073077,0.64252 4.33425,1.85094 0.707501,0.6779 1.599383,2.00703 1.599383,2.38347 0,0.16209 -0.412602,0.0897 -1.186728,-0.20818 z m 2.388841,-1.47335 c -0.57213,-1.81876 -0.43325,-3.23114 0.380669,-3.87137 0.606285,-0.47691 1.717231,-0.49753 2.131674,-0.0396 0.559443,0.61817 0.377066,1.25713 -0.677225,2.37263 -0.53866,0.56993 -1.075579,1.2211 -1.193152,1.44703 -0.256161,0.49226 -0.504713,0.5276 -0.641966,0.0913 z"
       id="path3"
       sodipodi:nodetypes="csccssscssscsssssscscssssssscssscscscssscsssssscccsssssscssssssssscssscsssccssssssssssssssssssssccssccsssscsssssssssssscccssssssssssccssssssssssssssscssssssssscssssccssssccsssscscssssssssssssscsscssscsssssssssccsssssssssssssssssssssccscssssssssscssssssssccsssssssssscssscssssssssssssssssssssscsssssscsscsssscscscscssssssssssscssscsccsssscsssscsssssssscssssssssssssscssscscssssssssssssssssssssssssssssssssssssssssscsssssssssscssscssssssssssssssssssssscsssssssscssccsssssssscscscsccssscssssssssssssssssssssssssssssscssssscssssssssssssssssssssssssccssssssscssscccssssssssssscssssssssssssssssss" /></g></svg>
