<svg xmlns="http://www.w3.org/2000/svg" width="475" height="483" style="shape-rendering:geometricPrecision;text-rendering:geometricPrecision;image-rendering:optimizeQuality;fill-rule:evenodd;clip-rule:evenodd"><path style="opacity:.998" fill="#190908" d="M373.5 204.5a53.6 53.6 0 0 0 7 12l5 10q1.78 3.712 6 3-.786 5.715 5 6 6.55 3.804 10.5 10 6.123 5.364 10.5 12 .822 2.84 3 5-1.695 1.683-2 4a312 312 0 0 1-21-21q-.357-2.856-3-4-1.202-5.263-6-4 1.33 22.549-16 36.5-12.595 7.29-25 14.5a531 531 0 0 0-27 7 490 490 0 0 0-41 13 56.9 56.9 0 0 1-17 2 74.5 74.5 0 0 1-10-5.5 455 455 0 0 0-17-18.5q-2.667-3.59-7-5-5.536 2.26-10 6a99.4 99.4 0 0 0-27 20 254 254 0 0 0-20 18q-.656-2.361-3-3.5.834-.574 1-1.5a2.43 2.43 0 0 0 2-.5 232 232 0 0 1 12-13.5 231 231 0 0 0 23-21.5 32 32 0 0 1 6-3.5 54 54 0 0 0 10-2.5q2-1.5 0-3-9.142-2.567-18-.5h-1q-1.46-2.459-4-4-1.5-.5-2-2a8.94 8.94 0 0 0-4-3q-1.487.258-2-1-1.627-3.13-5-4a5.73 5.73 0 0 0-3-1q-1.92-2.147-5-2-1.083.626-1.5 2-1.325-3.903-4.5-6.5-16.032-14.448-37.5-11.5-1.516-.834-2.5-2-4.216-1.463-9-2-1.983-.255-3.5 1a67.5 67.5 0 0 0-17.5-2.5q-1.872-4.37-6.5-5.5-1.892.389-3 2-13.742-9.297-30.5-8a26.7 26.7 0 0 0-7-5q-3.723-1.322-7.5-5a82 82 0 0 0-10-14 392 392 0 0 1-24-23 101 101 0 0 0-13-27 156.5 156.5 0 0 1 0-25 295.5 295.5 0 0 0 19-35q16.651-15.77 23.5-38a116.5 116.5 0 0 1 17-11.5 106 106 0 0 1 9-8.5q3.883.059 6-3 .5-1.5 2-2a808 808 0 0 1 5-4q6.292-6.675 15-10.5a55 55 0 0 1 7-2 14.5 14.5 0 0 1 5-4 29 29 0 0 0 10-3A830 830 0 0 0 161 .5 310.4 310.4 0 0 1 218.5 13q30.982 13.02 54 38a47 47 0 0 0 8 4.5q.859 12.833 8.5 23 1.375 10.124 4 20a90 90 0 0 1 11 19 204 204 0 0 0 24 24q7.376 13.87 20 23 7.118 9.718 12 21 8.994 8.019 13.5 19"/><path style="opacity:1" fill="#dd0102" d="M146.5 7.5q3.535-.245 7 .5a54.4 54.4 0 0 0-6 6.5 13.1 13.1 0 0 1-1-7"/><path style="opacity:1" fill="#f60000" d="M162.5 6.5h9q.134 4.837-2 9-.237 2.728 2 4a40.3 40.3 0 0 1 6-8.5q4.5-1 9 0 2.595 5.777 2.5 12.5 1.065 2.21 3.5 2a105 105 0 0 0-1-9q4.938-.57 7 4 2.175-2.025 2-5 8.421.224 15 5.5a63 63 0 0 1-10 2.5 3.65 3.65 0 0 0 1 1.5 56.8 56.8 0 0 0 17-1.5q4.093-.308 7 2.5-9.147 14.592-26 19-29.627 7.09-56-8-4.158-2.297-6-6.5 2.87-11.02 12-17.5 3.6-.279 7-1.5a9.1 9.1 0 0 0 1-5m-69 19q.876 3.365 3.5 6 3.168-4.75-.5-9 3.334-3.42 8-2.5 2.86 4.98 8 7.5 1.671-1.834.5-4-8.622-10.326 4.5-8.5a27 27 0 0 1 6 3.5q1.5-.5 2-2-2.851-2.153-1-5a614 614 0 0 1 19-4q.614 6.522.5 13-21.867 22.8-53.5 20a61 61 0 0 1 .5-11q.912-2.35 2.5-4"/>><path style="opacity:1" fill="#a50709" d="M96.5 22.5q3.668 4.25.5 9-2.624-2.636-3.5-6a6.54 6.54 0 0 1 3-3"/><path style="opacity:1" fill="#e90101" d="M80.5 33.5h6q-1.215 6.94-5 13-7.498-5.732-1-13"/><path style="opacity:1" fill="#f90000" d="M239.5 31.5a4.93 4.93 0 0 1 3 .5 39 39 0 0 0-5 5.5l2 1a76 76 0 0 0 7.5-3q7.185 2.4-.5 3-.255 1.983 1 3.5 3.97.746 8 .5v4q11.562-.918 15 10h-5v3q5.476-.369 10.5 0 5.515 11.836 5.5 25a70 70 0 0 0-19 2.5 1304 1304 0 0 1-27 9.5q-13.976-1.713-22.5-13-9.51-14.01-14-30 18.687-13.968 40.5-22m-102 3q5.414 3.72 11 7.5a108 108 0 0 0 13 5 300 300 0 0 0 31 5 2063 2063 0 0 1-47 39q-14.9 3.2-24.5-8.5-1.213-7.296 2-14a441 441 0 0 0 14.5-34"/><path style="opacity:1" fill="#f70000" d="M130.5 34.5q1.496-.045 2 1.5A1159 1159 0 0 1 118 75.5Q107.893 88.702 91.5 86a33.3 33.3 0 0 1-3.5-8.5 578 578 0 0 1-.5-34q17.997 3.133 35-3.5 4.883-1.675 8-5.5"/><path style="opacity:1" fill="#f00001" d="M70.5 41.5q1.983-.255 3.5 1l3.5 7a67.8 67.8 0 0 0-10.5 16q-9.815 14.403-16-2a32.4 32.4 0 0 1-.5-8 25.9 25.9 0 0 0 10-1q-2.175-2.025-2-5 6.054.79 11 4-.528-4.521-4-7.5a21.8 21.8 0 0 1 5-4.5"/><path style="opacity:1" fill="#f60000" d="M82.5 50.5q2.196 16.11 4 33-1.281 8.536-9 12.5-14.785 8.457-31 3.5a337 337 0 0 1-7-23q18.525 4.74 30.5-10 6-8.243 12.5-16"/><path style="opacity:1" fill="#fa0000" d="M191.5 58.5q5.398 2.645 8.5 8a169 169 0 0 0 12 23q6.9 6.825 16.5 8.5a41 41 0 0 1-7 5 237.7 237.7 0 0 0-41 21q-12.97 4.403-21.5-6.5a191 191 0 0 1-12.5-23 36350 36350 0 0 1 45-36"/><path style="opacity:1" fill="#e90101" d="M45.5 62.5q5.148 3.39 5 10-5.346.525-10-2 .948-3.697 4.5-5 .725-1.422.5-3"/><path style="opacity:1" fill="#e70101" d="M35.5 82.5q1.935.837 2.5 3 2.76 9.045 5.5 18-3.71.449-6.5 3a32.4 32.4 0 0 1-9.5-7.5 57 57 0 0 1 3-6.5q2.852-1.095 6 0a28.8 28.8 0 0 0-2-7 10 10 0 0 1 1-3"/><path style="opacity:1" fill="#f30000" d="M117.5 85.5a127 127 0 0 1 11 8.5q5.462 1.372 11 2.5a398 398 0 0 0-23.5 34 54.7 54.7 0 0 1-10.5 11l-1-1a970 970 0 0 0 13-55"/><path style="opacity:1" fill="#f80000" d="M105.5 87.5h8a1349 1349 0 0 0-8.5 39q-2.583 9.291-8 17-2.216-1.416-3-4l-3-10a1029 1029 0 0 0-1.5-40q8.353.186 16-2"/><path style="opacity:1" fill="#f50000" d="M279.5 86.5q1.494-.128 2.5 1 2.611 14.34 10.5 26.5-5.02-.326-10-2l-32-1q-9.445-3.19-12-12.5a638 638 0 0 1 41-12"/><path style="opacity:1" fill="#f90000" d="M84.5 95.5q2.51 19.483 3.5 40 2.117 3.226 2.5 7a86 86 0 0 1-22-2 295 295 0 0 0-19-35q18.73.432 35-10"/><path style="opacity:1" fill="#f70000" d="M144.5 99.5q2.39 6.78 6.5 13l16 16q.724 1.422.5 3-15.681 8.322-33 13.5a88.7 88.7 0 0 1-23-.5 762 762 0 0 1 17.5-28q6.485-9.73 15.5-17"/><path style="opacity:1" fill="#f10000" d="M228.5 101.5q8.47 1.194 12.5 9 1.124 1.703-.5 3a406 406 0 0 1-28 5.5q-10.843 5.155-23 4a862 862 0 0 1 35-18q2.39-1.423 4-3.5"/><path style="opacity:1" fill="#dfdfdf" d="M27.5 110.5q3.864 8.975 0 18a46.2 46.2 0 0 1-7 8.5 30.5 30.5 0 0 1-11 0q-2.704-.955-4-3.5a168 168 0 0 1 2-7.5q7.008 1.1 14-.5a72.4 72.4 0 0 0-.5-12q-1.665-2.305-4.5-2 1.146-4.93 5.5-8a57 57 0 0 0 5.5 7"/><path style="opacity:1" fill="#f20001" d="M44.5 106.5q1.495-.128 2.5 1a530 530 0 0 0 15 27q2.942 5.34 4 11a29.6 29.6 0 0 0-4.5-2.5l-30-1a41 41 0 0 1 7-5q1.956-1.206 2-3.5a172 172 0 0 1-1-25q3.08.147 5-2"/><path style="opacity:1" fill="#f70000" d="M264.5 114.5q10.466-.89 20 3.5 7.053.258 14 1.5a122.2 122.2 0 0 0 18.5 23 40.2 40.2 0 0 1-1.5 14 401.3 401.3 0 0 0-68-21 393 393 0 0 0 9-16.5 140 140 0 0 0 13 2.5q.255-1.983-1-3.5a14.7 14.7 0 0 1-5-1.5q.544-1.025 1-2"/><path style="opacity:1" fill="#767373" d="M27.5 110.5q3.384 3.388 3 8.5a33.8 33.8 0 0 1-1.5 8.5q-.575.834-1.5 1 3.864-9.025 0-18"/><path style="opacity:1" fill="#e1e1e1" d="M224.5 147.5q-1 0-1-1 4.922-9.47-2.5-17-1-2 0-4a281 281 0 0 1 16-4q2.38 1.255 2.5 4-2.81 14.292-15 22"/><path style="opacity:1" fill="#eaeaea" d="M215.5 146.5q2.013 1.94 5 2.5-.834.575-1 1.5-9.153 3.816-19 2.5-5.498-2.502-6.5-8.5-1.183-5.387.5-10.5a145 145 0 0 0 15-6 25 25 0 0 1 7-.5 85.4 85.4 0 0 1-5 15q.625 3.323 4 4"/><path style="opacity:1" fill="#ee0001" d="M173.5 130.5q1.982 4.647 2 10.5a63 63 0 0 1-1 11q-3 1-6 0a178 178 0 0 1-17-7.5 15.86 15.86 0 0 1 6-5.5 180 180 0 0 0 16-8.5"/><path style="opacity:1" fill="#e1e0e0" d="M220.5 135.5q4.455.369 4 5-7.841.742-4-5"/><path style="opacity:1" fill="#f90000" d="M244.5 140.5a212.8 212.8 0 0 1 58 14.5l9 5.5q-24.173 1.557-44 15a171.8 171.8 0 0 0-30-25.5 32.8 32.8 0 0 1 7-9.5"/><path style="opacity:1" fill="#ee0101" d="M15.5 144.5h9a235 235 0 0 1-9.5 18 141 141 0 0 1-7.5-14 70 70 0 0 1 8-4"/><path style="opacity:1" fill="#f60000" d="M74.5 145.5h17q-2.898 14.692-10 28-13.28-8.427-29-9 8.335-12.853 22-19"/><path style="opacity:1" fill="#f20001" d="M28.5 145.5a290 290 0 0 1 34 1 393 393 0 0 1-15.5 18q-13.726-.942-27.5-2a204 204 0 0 1 9-17"/><path style="opacity:1" fill="#f60000" d="M108.5 147.5v21q-3.839-.452-7 1-6.46 1.24-13 2a71.5 71.5 0 0 1 6.5-21q6.012-7.44 13.5-3"/><path style="opacity:1" fill="#e1e1e1" d="M215.5 146.5h8q0 1 1 1a31 31 0 0 1-5 3q.166-.925 1-1.5-2.987-.56-5-2.5"/><path style="opacity:1" fill="#f70000" d="M111.5 147.5q13.745-.89 27 2.5 10.471 4.187 10 15.5a87.1 87.1 0 0 0-26 2.5 27 27 0 0 0-6 3.5q-3.775-3.015-4.5-8a129 129 0 0 1-.5-16"/><path style="opacity:1" fill="#ed0101" d="M320.5 148.5a8.4 8.4 0 0 1 4 .5q18.32 16.93 30.5 38.5 2.284 3.495 1.5 7a237.5 237.5 0 0 0-35.5-33 85 85 0 0 1-.5-13"/><path style="opacity:1" fill="#f80000" d="M232.5 154.5q7.92 1.21 14 6.5 11.08 8.577 19 20a97 97 0 0 1-19 13 39 39 0 0 0-5 5.5 206 206 0 0 1-18.5-23 333 333 0 0 0-11.5-11 8100 8100 0 0 0 17-7.5q1.846-2.107 4-3.5"/><path style="opacity:1" fill="#f60000" d="M192.5 164.5a113 113 0 0 1 15 .5 515 515 0 0 1 24.5 29.5 10.1 10.1 0 0 1 1.5 6q-13.74-1.915-25 6-5.27-22.12-16-42"/><path style="opacity:1" fill="#f90000" d="M303.5 163.5q10.026-.977 19 3.5a389 389 0 0 0 25 22q2.87 2.12 4 5.5-31.458-.05-41 30a344 344 0 0 1-38-44.5q.735-2.973 3-5 12.952-8.56 28-11.5"/><path style="opacity:1" fill="#870305" d="M108.5 147.5q1.488 10.722 1 22h-8q3.161-1.452 7-1z"/><path style="opacity:1" fill="#f70000" d="M18.5 167.5h25q-.383 3.774-2.5 7a61.5 61.5 0 0 0-8.5 14q-11.839-7.327-14-21m29 2q18.647-3.167 33.5 8-.048 3.147-2 6l-1 19q-18.075-13.332-40.5-12-.24-2.549.5-5a229 229 0 0 0 9.5-16"/><path style="opacity:1" fill="#f80000" d="M126.5 169.5q12.01-.25 24 .5 10.22 12.913 10 29.5-17.958-1.232-35 4a242 242 0 0 0-7.5-20q-1.19-5.884.5-11.5a128 128 0 0 0 8-2.5"/><path style="opacity:1" fill="#f40000" d="M98.5 171.5a41 41 0 0 1 9 .5q10.603 13.099 12 29.5-6.83-3.505-14.5-3a2223 2223 0 0 1-23.5 2 61 61 0 0 1 .5-11 39.5 39.5 0 0 0 3-13q7.152-1.747 13.5-5"/><path style="opacity:1" fill="#f60000" d="M146.5 148.5q18.954 5.741 38 11.5 14.012 20.027 19 44l-1 1.5a24.1 24.1 0 0 0-10.5-2 1701 1701 0 0 1-23.5 3 212 212 0 0 0-6.5-19 41 41 0 0 1-1.5-13q10.57-.245 21 1.5a42.2 42.2 0 0 1 11.5 5.5q-.747-5.797-6.5-8.5a1154 1154 0 0 0-30-2.5q-6.659-10.313-10-22"/><path style="opacity:1" fill="#f80000" d="M265.5 186.5q3.734-.303 7 1.5a417 417 0 0 1 31 36q-24.841-3.305-42 14.5a828 828 0 0 0-17-29.5 18.2 18.2 0 0 0 2-3.5q-1.247-2.96-.5-6a124.3 124.3 0 0 1 19.5-13"/><path style="opacity:1" fill="#f30000" d="M40.5 193.5q16.125-.47 30 7.5 8.093 8.096 6 19.5-4.973-.708-7-5.5-10.507.002-19-6a286 286 0 0 1-15-13.5q2.687-1.005 5-2"/><path style="opacity:1" fill="#fa0000" d="M343.5 198.5q9.43-1.981 15.5 5a67.7 67.7 0 0 0 14.5 18.5q9.024 12.348 6.5 27.5-13.998 4.261-23 16a92 92 0 0 1-7 11q-2.973-.735-5-3-8.87-21.375-26-37-8.275-10.498-1-22 5.667-9.733 16.5-13.5 4.946-.306 9-2.5"/><path style="opacity:1" fill="#f60000" d="M92.5 202.5q10.013-.25 20 .5 6.333 1.54 10.5 6.5a142.6 142.6 0 0 1 8.5 19.5q.22 3.051-2 5a25.2 25.2 0 0 1-10 0 142 142 0 0 0-15-4 3.65 3.65 0 0 1-1-1.5q5.033-2.528 1-6-2.206 1.321-2.5 4-3.4 2.153-6-1-.007-4.094-3.5-6-1.393 1.783-1 4a131 131 0 0 1-11-2.5q-1.703-7.122-.5-14.5l1.5-1.5q5.837-.628 11-2.5"/><path style="opacity:1" fill="#f70000" d="M140.5 202.5q8.016-.249 16 .5a25.7 25.7 0 0 1 7.5 2.5 380 380 0 0 0 8 26 51.7 51.7 0 0 1 2.5 15 4.93 4.93 0 0 1-3-.5 63.7 63.7 0 0 0-10-9l-22-2-1.5-1.5a262 262 0 0 1-10.5-23.5 3.94 3.94 0 0 1 1-2 99 99 0 0 1 12-5.5"/><path style="opacity:1" fill="#f90000" d="M211.5 232.5v8q-8.787-.483-17 1a215 215 0 0 0-16 4 446 446 0 0 1-8-35q16.346-4.741 33-1.5a195 195 0 0 0 8 23.5"/><path style="opacity:1" fill="#fa0000" d="M288.5 227.5q10.512-.25 21 .5l20.5 26.5 8 14a8.4 8.4 0 0 1 .5 4 167.5 167.5 0 0 0-27 4.5q-11.43 3.177-14 14.5-11.578-.418-18.5-10a2577 2577 0 0 1-15.5-37 31 31 0 0 1 7-9.5q8.588-5.124 18-7.5"/><path style="opacity:1" fill="#f80000" d="M227.5 203.5a41 41 0 0 1 9 .5q25.464 38.676 40 82.5-12.714-1.629-23.5 5a860 860 0 0 0-22.5-17.5 181 181 0 0 0-11.5-5.5q-7.544-20.888 11.5-31.5a77 77 0 0 1 20-3 148 148 0 0 0-9-3.5q-13.54 1.918-23.5 11-4.796-9.394-6-20a25.8 25.8 0 0 0-3.5-7.5q1.981-3.981 6-6 6.322-3.356 13-4.5"/><path style="opacity:1" fill="#fd0000" d="M394.5 241.5q2.643 1.144 3 4 19.12 25.122 45 43a155.5 155.5 0 0 0 20 13q.538 2.806 3 4.5a80 80 0 0 0 9 6.5v57q-6.226 1.86-11 6a44.7 44.7 0 0 0-9 7q-3.324 1.054-5.5 4-4.022 5.536-5.5 12-1.74 5.953-3.5 12-.75 13.491-.5 27v35q-.522 5.377 2 10h-262q4.47-22.35 7-45 2.391-9.142 2-19a132.7 132.7 0 0 0-2.5-28q-3.149-10.83-11.5-18 .129-1.494-1-2.5a55.5 55.5 0 0 0-13-5.5q-3.161-1.452-7-1-3.159-3.328-3-8 6.055-18.11 21-30a254 254 0 0 1 20-18 616 616 0 0 0 27-20q4.464-3.74 10-6 4.333 1.41 7 5a181 181 0 0 0 18 21.5q4.059 2.862 9 2.5a56.9 56.9 0 0 0 17-2 308 308 0 0 0 17-3.5 125.3 125.3 0 0 0 24-9.5 531 531 0 0 1 27-7q25.48-7.597 39.5-30a112 112 0 0 0 2-19 3.65 3.65 0 0 1 1.5-1q1.174 2.682 4 3"/><path style="opacity:1" fill="#830304" d="M211.5 232.5q1.465 4.18 1 9h-18q8.213-1.483 17-1z"/><path style="opacity:1" fill="#f30000" d="M192.5 244.5h23v24q-8.729 1.79-14-5a10.3 10.3 0 0 1 4-1.5 171 171 0 0 1-23.5-9.5q-.926-1.423.5-2.5a74.5 74.5 0 0 1 10-5.5"/><path style="opacity:1" fill="#8b080b" d="M394.5 241.5q-2.826-.318-4-3a3.65 3.65 0 0 0-1.5 1 112 112 0 0 1-2 19q-14.02 22.403-39.5 30 12.405-7.21 25-14.5 17.33-13.951 16-36.5 4.798-1.263 6 4"/><path style="opacity:1" fill="#8f080a" d="M397.5 245.5a312 312 0 0 0 21 21 373 373 0 0 0 24 22q-25.88-17.878-45-43"/><path style="opacity:1" fill="#e50101" d="M374.5 254.5q1.724.436 2 2.5a18.1 18.1 0 0 1-2.5 6.5q-7.579 9.202-18.5 11.5a85 85 0 0 1 4.5-7.5q7.5-6.35 14.5-13"/><path style="opacity:1" fill="#190908" d="M417.5 257.5a981 981 0 0 0 27 25.5q7.751 1.875 14 7 8.611 5.847 16 13.5v8a85.6 85.6 0 0 0-12-10 155.5 155.5 0 0 1-20-13 373 373 0 0 1-24-22q.305-2.317 2-4-2.178-2.16-3-5"/>><path style="opacity:1" fill="#e80101" d="M327.5 276.5q9.213-.6 18 2-16.178 11.577-36 9-2.576 1.752-2 5-3.985-.507-7 2l-1-1.5q4.568-9.067 14-13a655 655 0 0 1 14-3.5"/><path style="opacity:1" fill="#ef0001" d="M267.5 289.5a72.4 72.4 0 0 1 12 .5q3.423 6.178 10 8.5-1.918 2.47-5 3.5-12.28.342-24 2a21.75 21.75 0 0 1-6-7.5q5.511-5.485 13-7"/><path style="opacity:1" fill="#8e080a" d="M218.5 287.5a616 616 0 0 1-27 20 99.4 99.4 0 0 1 27-20"/><path style="opacity:1" fill="#89080b" d="M320.5 295.5a125.3 125.3 0 0 1-24 9.5 308 308 0 0 1-17 3.5 490 490 0 0 1 41-13"/><path style="opacity:1" fill="#8b080b" d="M235.5 286.5a455 455 0 0 1 17 18.5 74.5 74.5 0 0 0 10 5.5q-4.941.362-9-2.5a181 181 0 0 1-18-21.5"/><path style="opacity:1" fill="#94080a" d="M462.5 301.5a85.6 85.6 0 0 1 12 10v1a80 80 0 0 1-9-6.5q-2.462-1.694-3-4.5"/><path style="opacity:1" fill="#150f12" d="M169.5 320.5q-.166.926-1 1.5 2.344 1.139 3 3.5-14.945 11.89-21 30-1.9 3.842 0 8-4.81.788-7.5 5l-10 22a752 752 0 0 0-28 44 158 158 0 0 0-9 22 152.6 152.6 0 0 1-5.5 26h-7l2-5q2.146-.572 2.5-3a136 136 0 0 1 4.5-23 37.5 37.5 0 0 0 3-8q3.525-5.586 6-12a82 82 0 0 0 5-11q3.059-2.116 3-6a1134 1134 0 0 0 6-9 41.2 41.2 0 0 0 7-10 60 60 0 0 1 4-8q3.132-2.754 4-7a48.4 48.4 0 0 1 5-10q3.56-3.119 4-8a97.6 97.6 0 0 0 7-14 101 101 0 0 0 8-11q4.792-4.583 6.5-11a70 70 0 0 1 8.5-6"/><path style="opacity:1" fill="#88080d" d="M150.5 355.5q-.159 4.672 3 8h-3q-1.9-4.158 0-8"/><path style="opacity:1" fill="#0702f3" d="M150.5 363.5h3q3.839-.452 7 1 5.568 6.29 14 8 8.351 7.17 11.5 18a132.7 132.7 0 0 1 2.5 28q-2.069 9.175-2 19a70983 70983 0 0 0-10 45h-86a152.6 152.6 0 0 0 5.5-26 158 158 0 0 1 9-22 752 752 0 0 1 28-44l10-22q2.69-4.212 7.5-5"/><path style="opacity:1" fill="#900520" d="M160.5 364.5a55.5 55.5 0 0 1 13 5.5q1.129 1.006 1 2.5-8.432-1.71-14-8"/><path style="opacity:1" fill="#a00710" d="M474.5 369.5v3a71.4 71.4 0 0 0-11 3q4.774-4.14 11-6"/><path style="opacity:1" fill="#0901f3" d="M474.5 372.5v110h-33q-2.522-4.623-2-10 3.548-7.94 3-17 .392-9.51-3-18-.25-13.509.5-27 1.76-6.047 3.5-12a106 106 0 0 1 11-16 44.7 44.7 0 0 1 9-7 71.4 71.4 0 0 1 11-3"/><path style="opacity:1" fill="#a40709" d="M290.5 380.5q7.359-2.023 15 .5 1.129 1.006 1 2.5-7.441-3.67-16-3"/><path style="opacity:1" fill="#120506" d="M290.5 380.5q8.559-.67 16 3 1 0 1 1 .693 2.07 3 2a42.5 42.5 0 0 0 11-5.5q8.906-1.684 3 4a112 112 0 0 0-17 8.5 101.4 101.4 0 0 0 26.5 0q10.074-.17 1.5 5-10.512-.25-21 .5-10.243 4.76 1 5.5h1a218 218 0 0 0 21 2h2q.961 1.473 2 3a23.4 23.4 0 0 1-5.5 2 509 509 0 0 0-21-3q-11.765 2.094-.5 8.5 12.043 3.001 24 6l4 4-4.5.5a152 152 0 0 1-16.5-4h-2q-1.329-1.914-3 0a109 109 0 0 1-5 13 19.6 19.6 0 0 0-4 3.5q-11.982 2.652-21.5-4.5a86.6 86.6 0 0 0-1.5-13q-1.858.663-3 2-2.687-.201-5 1-9.065.394-17 4h-1q-.014-2.712 1.5-5a210 210 0 0 1 7.5-4h4q9.264 1.086 15-6-3.204-1.94-6 0h-5a92.4 92.4 0 0 1-23 4q.5-4.5 5-5a112 112 0 0 1 20-3.5 51 51 0 0 1 4-2.5h2q2.95-1.132 1-3.5a479 479 0 0 1-30.5-1.5q-.684-1.866 1.5-2.5a340 340 0 0 0 26-1.5q-3.366-4.436-9-5a54 54 0 0 1-8-2q-3.428-2.427-6-6a9.86 9.86 0 0 1 6-1q1.602 1.401 4 1 7.396 4.824 16 8 1.948-.885 2.5-3 .747-4.473.5-9a5.73 5.73 0 0 1 3-1"/><path style="opacity:1" fill="#95080a" d="M264.5 384.5a9.86 9.86 0 0 0-6 1q2.572 3.573 6 6-5.616-.557-9-5 3.627-6.424 9-2"/><path style="opacity:1" fill="#970717" d="M454.5 382.5a106 106 0 0 0-11 16q1.478-6.464 5.5-12 2.176-2.946 5.5-4"/><path style="opacity:1" fill="#8f080a" d="M287.5 381.5a41 41 0 0 1-.5 9q-.552 2.115-2.5 3-8.604-3.176-16-8a142 142 0 0 1 15 5q-.809-5.874 4-9"/><path style="opacity:1" fill="#8c080a" d="M335.5 398.5q8.574-5.17-1.5-5a101.4 101.4 0 0 1-26.5 0 112 112 0 0 1 17-8.5q5.906-5.684-3-4a42.5 42.5 0 0 1-11 5.5q-2.307.07-3-2 7.71-.593 14-5.5 5.64-1.607 9 3-7.644 7.325-18 10a17.9 17.9 0 0 0 7.5 1.5 94 94 0 0 1 20.5-2q1.45 6.527-5 7"/><path style="opacity:1" fill="#84070a" d="M272.5 393.5q5.634.564 9 5a340 340 0 0 1-26 1.5q-2.184.634-1.5 2.5a479 479 0 0 0 30.5 1.5q1.95 2.368-1 3.5v-3q-14.555-.038-29 .5-4.065-2.19-2-6a340 340 0 0 0 26-1.5q-3.317-1.74-6-4"/><path style="opacity:1" fill="#8d080a" d="M335.5 398.5q-1.663 1.185-4 1.5l-17 1a3.65 3.65 0 0 0-1 1.5 31 31 0 0 1 2 2q-11.243-.74-1-5.5 10.488-.75 21-.5"/><path style="opacity:1" fill="#980709" d="M337.5 406.5a218 218 0 0 1-21-2 85.6 85.6 0 0 0 15.5-1q3.982-.564 5.5 3"/><path style="opacity:1" fill="#92080b" d="M281.5 407.5a51 51 0 0 0-4 2.5 112 112 0 0 0-20 3.5q1.27-2.2 4-2.5a133 133 0 0 1 20-3.5"/><path style="opacity:1" fill="#83080a" d="M280.5 414.5q2.796-1.94 6 0-5.736 7.086-15 6 6.603-1.132 12-5.5a4.93 4.93 0 0 0-3-.5"/><path style="opacity:1" fill="#8e080a" d="M339.5 406.5q5.199.913 3 5.5-14.365 1.32-28.5-1.5-4.519.817-.5 3.5 6.938 4.057 15 4 9.538 1.517 16 8.5a7.25 7.25 0 0 1-2 2.5 16.24 16.24 0 0 1-8 0q-7.36-1.192-13-5.5a152 152 0 0 0 16.5 4l4.5-.5-4-4q-11.957-2.999-24-6-11.265-6.406.5-8.5a509 509 0 0 1 21 3 23.4 23.4 0 0 0 5.5-2 186 186 0 0 1-2-3"/>><path style="opacity:1" fill="#87080a" d="M275.5 414.5q-10.134 5.793-22 5.5-.834-.574-1-1.5a92.4 92.4 0 0 0 23-4"/><path style="opacity:1" fill="#97080a" d="M267.5 420.5a210 210 0 0 0-7.5 4q-1.514 2.288-1.5 5h-3q1.947-9.509 12-9"/><path style="opacity:1" fill="#90080a" d="M276.5 425.5q-7.928 3.795-17 4 7.935-3.606 17-4"/><path style="opacity:1" fill="#96080a" d="M319.5 423.5q-3.196 4.243-4.5 10a14.7 14.7 0 0 1-3.5 3 109 109 0 0 0 5-13q1.671-1.914 3 0"/><path style="opacity:1" fill="#9c0421" d="M188.5 418.5q.391 9.858-2 19-.069-9.825 2-19"/><path style="opacity:1" fill="#98080a" d="M311.5 436.5q-1.131 3.886-5 5.5-12.541 1.997-22.5-5.5.152-6.684-2.5-12 1.142-1.337 3-2a86.6 86.6 0 0 1 1.5 13q9.518 7.152 21.5 4.5a19.6 19.6 0 0 1 4-3.5"/><path style="opacity:1" fill="#92051e" d="M439.5 437.5q3.392 8.49 3 18 .548 9.06-3 17z"/><path style="opacity:1" fill="#9a0618" d="M186.5 437.5q-2.53 22.65-7 45h-3q5.03-22.67 10-45"/></svg>