0
SECTION
2
HEADER
9
$INSUNITS
70
4
9
$ACADVER
1
AC1014
9
$HANDSEED
5
FFFF
0
ENDSEC
0
SECTION
2
TABLES
0
TABLE
2
VPORT
5
8
100
AcDbSymbolTable
0
ENDTAB
0
TABLE
2
LTYPE
5
5
100
AcDbSymbolTable
0
LTYPE
5
14
100
AcDbSymbolTableRecord
100
AcDbLinetypeTableRecord
2
BYBLOCK
70
0
0
LTYPE
5
15
100
AcDbSymbolTableRecord
100
AcDbLinetypeTableRecord
2
BYLAYER
70
0
0
ENDTAB
0
TABLE
2
LAYER
5
2
100
AcDbSymbolTable
70
2
0
LAYER
5
50
100
AcDbSymbolTableRecord
100
AcDbLayerTableRecord
2
0
70
0
6
CONTINUOUS
0
ENDTAB
0
TABLE
2
STYLE
5
3
100
AcDbSymbolTable
70
1
0
STYLE
5
11
100
AcDbSymbolTableRecord
100
AcDbTextStyleTableRecord
2
STANDARD
70
0
0
ENDTAB
0
TABLE
2
VIEW
5
6
100
AcDbSymbolTable
70
0
0
ENDTAB
0
TABLE
2
UCS
5
7
100
AcDbSymbolTable
70
0
0
ENDTAB
0
TABLE
2
APPID
5
9
100
AcDbSymbolTable
70
2
0
APPID
5
12
100
AcDbSymbolTableRecord
100
AcDbRegAppTableRecord
2
ACAD
70
0
0
ENDTAB
0
TABLE
2
DIMSTYLE
5
A
100
AcDbSymbolTable
70
1
0
ENDTAB
0
TABLE
2
BLOCK_RECORD
5
1
100
AcDbSymbolTable
70
1
0
BLOCK_RECORD
5
1F
100
AcDbSymbolTableRecord
100
AcDbBlockTableRecord
2
*MODEL_SPACE
0
BLOCK_RECORD
5
1B
100
AcDbSymbolTableRecord
100
AcDbBlockTableRecord
2
*PAPER_SPACE
0
ENDTAB
0
ENDSEC
0
SECTION
2
BLOCKS
0
BLOCK
5
20
100
AcDbEntity
100
AcDbBlockBegin
2
*MODEL_SPACE
0
ENDBLK
5
21
100
AcDbEntity
100
AcDbBlockEnd
0
BLOCK
5
1C
100
AcDbEntity
100
AcDbBlockBegin
2
*PAPER_SPACE
0
ENDBLK
5
1D
100
AcDbEntity
100
AcDbBlockEnd
0
ENDSEC
0
SECTION
2
ENTITIES
0
ARC
5
100
100
AcDbEntity
8
0
100
AcDbCircle
10
-583.24148683774524
20
86.948653776241613
30
0
40
5.75
210
0
220
0
230
1
100
AcDbArc
50
143.26824469520307
51
180
0
SPLINE
5
101
100
AcDbEntity
8
0
100
AcDbSpline
70
0
71
3
72
20
73
16
74
0
42
0.000000001
43
0.0000000001
44
0.0000000001
40
0.033822251406805323
40
0.033822251406805323
40
0.033822251406805323
40
0.033822251406805323
40
0.27536668855510399
40
0.27536668855510399
40
0.27536668855510399
40
0.43815069965353404
40
0.43815069965353404
40
0.43815069965353404
40
0.66905070389563837
40
0.66905070389563837
40
0.66905070389563837
40
0.86595065314365283
40
0.86595065314365283
40
0.86595065314365283
40
0.9999684982309941
40
0.9999684982309941
40
0.9999684982309941
40
0.9999684982309941
10
-587.84979154298344
20
90.387552981463898
30
0
10
-585.07809668961818
20
94.101768976811172
30
0
10
-580.33270680054693
20
97.273646837657125
30
0
10
-573.24274154487671
20
99.976655046487721
30
0
10
-568.4646021826444
20
101.79829301695889
30
0
10
-562.5685139113325
20
103.40633407101934
30
0
10
-555.75630821140919
20
104.80148844738926
30
0
10
-546.093575892697
20
106.78043680508402
30
0
10
-534.67269213485065
20
108.32579835849437
30
0
10
-522.96768667728543
20
109.42261319279822
30
0
10
-512.9862447621706
20
110.35792190324094
30
0
10
-502.81338882849639
20
110.96936247948008
30
0
10
-492.78867195415171
20
111.29091676999876
30
0
10
-485.96545560370913
20
111.50977925959555
30
0
10
-479.19557967055226
20
111.59525921589773
30
0
10
-472.49148510172961
20
111.55306075752569
30
0
0
SPLINE
5
102
100
AcDbEntity
8
0
100
AcDbSpline
70
0
71
3
72
20
73
16
74
0
42
0.000000001
43
0.0000000001
44
0.0000000001
40
0.033822251406857823
40
0.033822251406857823
40
0.033822251406857823
40
0.033822251406857823
40
0.27536668855514335
40
0.27536668855514335
40
0.27536668855514335
40
0.43815069964994546
40
0.43815069964994546
40
0.43815069964994546
40
0.6690507038959711
40
0.6690507038959711
40
0.6690507038959711
40
0.86595065314493691
40
0.86595065314493691
40
0.86595065314493691
40
0.99996849823058309
40
0.99996849823058309
40
0.99996849823058309
40
0.99996849823058309
10
-357.13317866054081
20
90.387552981467167
30
0
10
-359.90487351391221
20
94.101768976813503
30
0
10
-364.65026340296777
20
97.273646837657125
30
0
10
-371.74022865864168
20
99.976655046487963
30
0
10
-376.51836802077014
20
101.79829301691881
30
0
10
-382.41445629193316
20
103.40633407094995
30
0
10
-389.22666199166684
20
104.80148844729898
30
0
10
-398.88939431048937
20
106.78043680504186
30
0
10
-410.31027806851785
20
108.32579835848223
30
0
10
-422.01528352628685
20
109.42261319280279
30
0
10
-431.99672544145415
20
110.35792190324838
30
0
10
-442.16958137519015
20
110.96936247948864
30
0
10
-452.19429824957905
20
111.29091677000524
30
0
10
-459.0175145999325
20
111.50977925959678
30
0
10
-465.78739053299137
20
111.59525921589662
30
0
10
-472.49148510172961
20
111.55306075752611
30
0
0
ARC
5
103
100
AcDbEntity
8
0
100
AcDbCircle
10
-361.74148336577531
20
86.94865377623978
30
0
40
5.7499999999999574
210
0
220
0
230
1
100
AcDbArc
50
0
51
36.731755305432223
0
LINE
5
104
100
AcDbEntity
8
0
100
AcDbLine
10
-355.99148336577537
20
86.94865377623978
30
0
11
-355.99148336577525
21
-87.330620367757049
31
0
0
ARC
5
105
100
AcDbEntity
8
0
100
AcDbCircle
10
-357.74148336577525
20
-87.330620367757092
30
0
40
1.7499999999999505
210
0
220
0
230
1
100
AcDbArc
50
-102.22010882393626
51
0
0
ARC
5
106
100
AcDbEntity
8
0
100
AcDbCircle
10
-474.80818908611184
20
-627.86705129403549
30
0
40
551.31803084858484
210
0
220
-0
230
1
100
AcDbArc
50
77.779891176063444
51
101.72942590317113
0
ARC
5
107
100
AcDbEntity
8
0
100
AcDbCircle
10
-587.24148683774547
20
-86.34789161136672
30
0
40
1.7500000000000426
210
0
220
0
230
1
100
AcDbArc
50
180
51
281.72942590317581
0
LINE
5
108
100
AcDbEntity
8
0
100
AcDbLine
10
-588.99148683774547
20
-86.347891611366748
30
0
11
-588.99148683774524
21
86.948653776241599
31
0
0
ENDSEC
0
SECTION
2
OBJECTS
0
DICTIONARY
5
C
100
AcDbDictionary
3
ACAD_GROUP
350
D
3
ACAD_MLINESTYLE
350
17
0
DICTIONARY
5
D
100
AcDbDictionary
0
DICTIONARY
5
1A
330
C
100
AcDbDictionary
0
DICTIONARY
5
17
100
AcDbDictionary
0
ENDSEC
0
EOF
