0
SECTION
2
HEADER
9
$INSUNITS
70
4
9
$ACADVER
1
AC1014
9
$HANDSEED
5
FFFF
0
ENDSEC
0
SECTION
2
TABLES
0
TABLE
2
VPORT
5
8
100
AcDbSymbolTable
0
ENDTAB
0
TABLE
2
LTYPE
5
5
100
AcDbSymbolTable
0
LTYPE
5
14
100
AcDbSymbolTableRecord
100
AcDbLinetypeTableRecord
2
BYBLOCK
70
0
0
LTYPE
5
15
100
AcDbSymbolTableRecord
100
AcDbLinetypeTableRecord
2
BYLAYER
70
0
0
LTYPE
5
16
100
AcDbSymbolTableRecord
100
AcDbLinetypeTableRecord
2
DASHED
70
0
3
Dashed __ __ __ __ __ __ __ __ __ __ __ __ __ _
72
65
73
2
40
0.75
49
0.5
74
0
49
-0.25
74
0
0
ENDTAB
0
TABLE
2
LAYER
5
2
100
AcDbSymbolTable
70
2
0
LAYER
5
50
100
AcDbSymbolTableRecord
100
AcDbLayerTableRecord
2
0
70
0
62
7
6
CONTINUOUS
0
ENDTAB
0
TABLE
2
STYLE
5
3
100
AcDbSymbolTable
70
1
0
STYLE
5
11
100
AcDbSymbolTableRecord
100
AcDbTextStyleTableRecord
2
STANDARD
70
0
0
ENDTAB
0
TABLE
2
VIEW
5
6
100
AcDbSymbolTable
70
0
0
ENDTAB
0
TABLE
2
UCS
5
7
100
AcDbSymbolTable
70
0
0
ENDTAB
0
TABLE
2
APPID
5
9
100
AcDbSymbolTable
70
2
0
APPID
5
12
100
AcDbSymbolTableRecord
100
AcDbRegAppTableRecord
2
ACAD
70
0
0
ENDTAB
0
TABLE
2
DIMSTYLE
5
A
100
AcDbSymbolTable
70
1
0
ENDTAB
0
TABLE
2
BLOCK_RECORD
5
1
100
AcDbSymbolTable
70
1
0
BLOCK_RECORD
5
1F
100
AcDbSymbolTableRecord
100
AcDbBlockTableRecord
2
*MODEL_SPACE
0
BLOCK_RECORD
5
1B
100
AcDbSymbolTableRecord
100
AcDbBlockTableRecord
2
*PAPER_SPACE
0
ENDTAB
0
ENDSEC
0
SECTION
2
BLOCKS
0
BLOCK
5
20
100
AcDbEntity
100
AcDbBlockBegin
2
*MODEL_SPACE
0
ENDBLK
5
21
100
AcDbEntity
100
AcDbBlockEnd
0
BLOCK
5
1C
100
AcDbEntity
100
AcDbBlockBegin
2
*PAPER_SPACE
0
ENDBLK
5
1D
100
AcDbEntity
100
AcDbBlockEnd
0
ENDSEC
0
SECTION
2
ENTITIES
0
LINE
5
100
100
AcDbEntity
8
0
100
AcDbLine
10
-118.30417187595607
20
-103.17651725567364
30
0
11
-118.30417187595607
21
-9.7997079462477643
31
0
0
LINE
5
101
100
AcDbEntity
8
0
100
AcDbLine
10
-118.30417187595607
20
-9.7997079462477643
30
0
11
-120.75484045955888
21
70.673106888854647
31
0
0
LINE
5
102
100
AcDbEntity
8
0
100
AcDbLine
10
-45.876376477521461
20
-89.961462796548105
30
0
11
52.861385956287705
21
-89.038679970063882
31
0
0
LINE
5
103
100
AcDbEntity
8
0
100
AcDbLine
10
118.24218478418608
20
-99.540642205971622
30
0
11
116.0000017285347
21
-9.0000001341104507
31
0
0
LINE
5
104
100
AcDbEntity
8
0
100
AcDbLine
10
116.0000017285347
20
-9.0000001341104507
30
0
11
117.00000174343586
21
70.000001043081284
31
0
0
SPLINE
5
105
100
AcDbEntity
8
0
100
AcDbSpline
70
4
71
5
72
41
73
35
74
0
42
0.000000001
43
0.0000000001
44
0.0000000001
40
0
40
0
40
0
40
0
40
0
40
0
40
0.033333333333333333
40
0.066666666666666666
40
0.10000000000000001
40
0.13333333333333333
40
0.16666666666666666
40
0.20000000000000001
40
0.23333333333333331
40
0.26666666666666666
40
0.29999999999999999
40
0.33333333333333331
40
0.36666666666666653
40
0.40000000000000002
40
0.43333333333333329
40
0.46666666666666662
40
0.5
40
0.53333333333333333
40
0.56666666666666665
40
0.59999999999999998
40
0.6333333333333333
40
0.66666666666666663
40
0.69999999999999996
40
0.73333333333333306
40
0.76666666666666661
40
0.79999999999999982
40
0.83333333333333315
40
0.8666666666666667
40
0.8999999999999998
40
0.93333333333333324
40
0.96666666666666645
40
0.99121057146950642
40
0.99121057146950642
40
0.99121057146950642
40
0.99121057146950642
40
0.99121057146950642
40
0.99121057146950642
41
1
41
1
41
1
41
1
41
1
41
1
41
1
41
1
41
1
41
1
41
1
41
1
41
1
41
1
41
1
41
1
41
1
41
1
41
1
41
1
41
1
41
1
41
1
41
1
41
1
41
1
41
1
41
1
41
1
41
1
41
1
41
1
41
1
41
1
41
1
10
117.00000174343586
20
70.000001043081284
30
0
10
117.00594492333359
20
70.469512255001263
30
0
10
117.01472902276495
20
71.413200768776605
30
0
10
117.0185987073101
20
72.842732123530425
30
0
10
117.00237884673834
20
74.770193234554199
30
0
10
116.93095818653688
20
77.176637587726987
30
0
10
116.78938127020032
20
79.529991930693086
30
0
10
116.5604082591291
20
81.779094928729975
30
0
10
116.23345748825578
20
83.881998030196741
30
0
10
115.81057924744889
20
85.817511890533282
30
0
10
115.30184234400052
20
87.583905887242665
30
0
10
114.71922523788363
20
89.196242332862511
30
0
10
114.07130999582888
20
90.683896258534219
30
0
10
113.35707308965011
20
92.089280262671423
30
0
10
112.56323860816778
20
93.45999022331695
30
0
10
111.66321335427853
20
94.838244628858746
30
0
10
110.6151327368454
20
96.250853398550603
30
0
10
109.36099650655558
20
97.699767986065794
30
0
10
107.83936901708394
20
99.169574979963087
30
0
10
105.9980666270708
20
100.63415755215915
30
0
10
103.80565368976988
20
102.06315164277358
30
0
10
101.26674842592102
20
103.4294623739288
30
0
10
98.42410042420309
20
104.71241706999581
30
0
10
95.346135266252588
20
105.89605433627021
30
0
10
92.11852456887982
20
106.96875189421489
30
0
10
88.834472325088782
20
107.9223642906252
30
0
10
85.585319971773885
20
108.75161953602543
30
0
10
82.451859797436271
20
109.45346178978384
30
0
10
79.493213269008308
20
110.02644255483672
30
0
10
76.746639852254091
20
110.47023234259086
30
0
10
74.366094149334018
20
110.76861708403221
30
0
10
72.65780135337846
20
110.91461710536997
30
0
10
71.498496825546383
20
110.97384273716189
30
0
10
70.799793605772066
20
110.99225274828922
30
0
10
70.510135236846139
20
110.99661333087286
30
0
0
LINE
5
106
100
AcDbEntity
8
0
100
AcDbLine
10
-74.161137206176917
20
108.65856018312178
30
0
11
-74.161137206176946
21
97.351559259072644
31
0
0
LINE
5
107
100
AcDbEntity
8
0
100
AcDbLine
10
-73.341374631434618
20
94.925432733313869
30
0
11
-67.735935942063662
21
87.577660176666384
31
0
0
ARC
5
108
100
AcDbEntity
8
0
100
AcDbCircle
10
-70.161137206176932
20
97.351559259072701
30
0
40
4.0000000000000124
210
0
220
0
230
1
100
AcDbArc
50
180
51
217.3391376419676
0
LINE
5
109
100
AcDbEntity
8
0
100
AcDbLine
10
-67.735935942063662
20
87.577660176666384
30
0
11
-67.091169548148869
21
86.732481578309901
31
0
0
LINE
5
110
100
AcDbEntity
8
0
100
AcDbLine
10
-67.091169548148869
20
86.732481578309901
30
0
11
-66.620600609717229
21
43.698831410656958
31
0
0
LINE
5
111
100
AcDbEntity
8
0
100
AcDbLine
10
-66.98625630319097
20
42.524006061827528
30
0
11
-72.627275793049421
21
34.528309006032813
31
0
0
LINE
5
112
100
AcDbEntity
8
0
100
AcDbLine
10
-72.992931486523148
20
33.353483657203391
30
0
11
-72.974230926516455
21
31.643312646022551
31
0
0
LINE
5
113
100
AcDbEntity
8
0
100
AcDbLine
10
-72.525170549093218
20
30.402265026812518
30
0
11
-63.614157179624002
21
19.459829477847602
31
0
0
LINE
5
114
100
AcDbEntity
8
0
100
AcDbLine
10
-60.512517057384088
20
17.985661727248093
30
0
11
-43.831222240720216
21
17.985661727248093
31
0
0
LINE
5
115
100
AcDbEntity
8
0
100
AcDbLine
10
-42.413641137685083
20
18.574823743524355
30
0
11
-40.638072747549423
21
20.358878486904217
31
0
0
LINE
5
116
100
AcDbEntity
8
0
100
AcDbLine
10
-40.055870078489313
20
21.799125055503005
30
0
11
-41.000000639728604
21
86.000003238603853
31
0
0
LINE
5
117
100
AcDbEntity
8
0
100
AcDbLine
10
-40.675852959998153
20
87.121310942427954
30
0
11
-35.957300510219774
21
94.36243482588354
31
0
0
LINE
5
118
100
AcDbEntity
8
0
100
AcDbLine
10
-35.633152830483191
20
95.483742529714206
30
0
11
-35.879688768123358
21
112.24818628924649
31
0
0
LINE
5
119
100
AcDbEntity
8
0
100
AcDbLine
10
-35.44569289734789
20
112.75116993964201
30
0
11
-30.08360127343968
21
113.46466439469808
31
0
0
LINE
5
120
100
AcDbEntity
8
0
100
AcDbLine
10
-29.885751056678416
20
113.47776988205516
30
0
11
25.24258995816453
21
113.47776988205516
31
0
0
LINE
5
121
100
AcDbEntity
8
0
100
AcDbLine
10
25.350829525596904
20
113.47483878323061
30
0
11
31.967082058040894
21
113.11624308745188
31
0
0
LINE
5
122
100
AcDbEntity
8
0
100
AcDbLine
10
32.439995370882514
20
112.62215220599174
30
0
11
32.616580548545151
21
95.566125782351747
31
0
0
LINE
5
123
100
AcDbEntity
8
0
100
AcDbLine
10
38.349504854767162
20
85.938193081315461
30
0
11
38.00384748117154
21
22.766060412682325
31
0
0
LINE
5
124
100
AcDbEntity
8
0
100
AcDbLine
10
38.50786130105449
20
21.42767045811993
30
0
11
40.362085064540494
21
19.338066808494922
31
0
0
LINE
5
125
100
AcDbEntity
8
0
100
AcDbLine
10
41.110063185321948
20
19.001790192769
30
0
11
57.629876631883334
21
19.001790192769
31
0
0
LINE
5
126
100
AcDbEntity
8
0
100
AcDbLine
10
60.691111485111691
20
20.048457273145086
30
0
11
61.835472457161281
21
20.934584944033784
31
0
0
LINE
5
127
100
AcDbEntity
8
0
100
AcDbLine
10
62.26728026103963
20
21.394907617308107
30
0
11
69.509283827417477
21
32.095024345530383
31
0
0
LINE
5
128
100
AcDbEntity
8
0
100
AcDbLine
10
69.852982082247749
20
33.216034840105593
30
0
11
69.852982082247749
21
35.346492039251793
31
0
0
LINE
5
129
100
AcDbEntity
8
0
100
AcDbLine
10
69.467107874556646
20
36.527422996845509
30
0
11
64.385875161365419
21
43.472578195247387
31
0
0
LINE
5
130
100
AcDbEntity
8
0
100
AcDbLine
10
64.000000953674331
20
44.653509152841089
30
0
11
64.000000953674316
21
88.012972369874404
31
0
0
LINE
5
131
100
AcDbEntity
8
0
100
AcDbLine
10
64.409564222034021
20
89.225618650802744
30
0
11
69.454551491122771
21
95.842332188466628
31
0
0
LINE
5
132
100
AcDbEntity
8
0
100
AcDbLine
10
70.06885633095257
20
97.676805630419864
30
0
11
70.002615653692658
21
110.49408597524881
31
0
0
LINE
5
133
100
AcDbEntity
8
0
100
AcDbLine
10
38.346303668015096
20
85.353146123535183
30
0
11
38.180373541646659
21
55.027856525419253
31
0
0
LINE
5
134
100
AcDbEntity
8
0
100
AcDbLine
10
32.925909336817121
20
94.518190311582146
30
0
11
38.036897637319996
21
86.432730155676282
31
0
0
ARC
5
135
100
AcDbEntity
8
0
100
AcDbCircle
10
-68.620481048260274
20
43.676962905166704
30
0
40
1.9999999999998703
210
0
220
0
230
1
100
AcDbArc
50
-35.203232845402226
51
0.62649901866375057
0
ARC
5
136
100
AcDbEntity
8
0
100
AcDbCircle
10
-70.993051047980089
20
33.37535216269363
30
0
40
1.9999999999998919
210
0
220
0
230
1
100
AcDbArc
50
144.79676715459811
51
180.62649901866374
0
ARC
5
137
100
AcDbEntity
8
0
100
AcDbCircle
10
-70.974350487973297
20
31.665181151512751
30
0
40
1.9999999999999893
210
0
220
0
230
1
100
AcDbArc
50
180.62649901866257
51
219.15777784083122
0
ARC
5
138
100
AcDbEntity
8
0
100
AcDbCircle
10
-60.51251705738408
20
21.9856617272481
30
0
40
4.0000000000000044
210
0
220
0
230
1
100
AcDbArc
50
219.15777784083085
51
269.99999999999989
0
ARC
5
139
100
AcDbEntity
8
0
100
AcDbCircle
10
-43.831222240720216
20
19.985661727248054
30
0
40
1.9999999999999596
210
0
220
0
230
1
100
AcDbArc
50
270
51
315.13659628699804
0
ARC
5
140
100
AcDbEntity
8
0
100
AcDbCircle
10
-42.055653850584484
20
21.769716470627888
30
0
40
1.9999999999998928
210
0
220
0
230
1
100
AcDbArc
50
-44.86340371300286
51
0.84252426049309692
0
ARC
5
141
100
AcDbEntity
8
0
100
AcDbCircle
10
-39.000216867637455
20
86.029411823478966
30
0
40
1.9999999999958542
210
0
220
0
230
1
100
AcDbArc
50
146.9104228867244
51
180.84252426049483
0
ARC
5
142
100
AcDbEntity
8
0
100
AcDbCircle
10
-37.632936602577651
20
95.45433394483068
30
0
40
1.9999999999924771
210
0
220
0
230
1
100
AcDbArc
50
-33.089577113275389
51
0.84252426073448905
0
ARC
5
143
100
AcDbEntity
8
0
100
AcDbCircle
10
-35.379742825070281
20
112.25553843546736
30
0
40
0.49999999996384153
210
0
220
0
230
1
100
AcDbArc
50
97.579408226700451
51
180.84252426068301
0
ARC
5
144
100
AcDbEntity
8
0
100
AcDbCircle
10
-29.885751056678291
20
111.97776988205291
30
0
40
1.5000000000022418
210
0
220
0
230
1
100
AcDbArc
50
90.000000000004761
51
97.579408223384902
0
ARC
5
145
100
AcDbEntity
8
0
100
AcDbCircle
10
25.242589958164441
20
111.47776988204852
30
0
40
2.0000000000066547
210
0
220
-0
230
1
100
AcDbArc
50
86.897649107274376
51
89.999999999997456
0
ARC
5
146
100
AcDbEntity
8
0
100
AcDbCircle
10
31.9400221661828
20
112.61697586215806
30
0
40
0.49999999995319
210
0
220
-0
230
1
100
AcDbArc
50
0.59317590624937921
51
86.897649107266261
0
ARC
5
147
100
AcDbEntity
8
0
100
AcDbCircle
10
34.616473367524918
20
95.586831157688493
30
0
40
1.9999999999936666
210
0
220
0
230
1
100
AcDbArc
50
180.59317590625366
51
212.29783591070361
0
ARC
5
148
100
AcDbEntity
8
0
100
AcDbCircle
10
36.346333606579634
20
85.364089309551815
30
0
40
1.9999999999895912
210
0
220
0
230
1
100
AcDbArc
50
-0.31350075088517382
51
32.297835910643904
0
ARC
5
149
100
AcDbEntity
8
0
100
AcDbCircle
10
40.003817542617391
20
22.755117226668077
30
0
40
1.9999999999999651
210
0
220
0
230
1
100
AcDbArc
50
179.68649924918341
51
221.58446129858828
0
ARC
5
150
100
AcDbEntity
8
0
100
AcDbCircle
10
41.11006318532197
20
20.001790192769047
30
0
40
1.0000000000000393
210
0
220
0
230
1
100
AcDbArc
50
221.58446129858956
51
269.99999999999881
0
ARC
5
151
100
AcDbEntity
8
0
100
AcDbCircle
10
57.629876631883334
20
24.001790192768997
30
0
40
4.9999999999999956
210
0
220
0
230
1
100
AcDbArc
50
270
51
307.752151503574
0
ARC
5
152
100
AcDbEntity
8
0
100
AcDbCircle
10
60.610978515870002
20
22.515918111883227
30
0
40
1.9999999999999525
210
0
220
0
230
1
100
AcDbArc
50
307.75215150357468
51
325.90925383715069
0
ARC
5
153
100
AcDbEntity
8
0
100
AcDbCircle
10
67.852982082247649
20
33.216034840105621
30
0
40
2.0000000000001061
210
0
220
0
230
1
100
AcDbArc
50
325.90925383715114
51
360
0
ARC
5
154
100
AcDbEntity
8
0
100
AcDbCircle
10
67.852982082247721
20
35.346492039251778
30
0
40
2.0000000000000284
210
0
220
-0
230
1
100
AcDbArc
50
0
51
36.190046948723612
0
ARC
5
155
100
AcDbEntity
8
0
100
AcDbCircle
10
66.000000953674402
20
44.653509152841117
30
0
40
2.0000000000000728
210
0
220
0
230
1
100
AcDbArc
50
180
51
216.19004694872265
0
ARC
5
156
100
AcDbEntity
8
0
100
AcDbCircle
10
66.000000953674331
20
88.012972369874404
30
0
40
2.0000000000000031
210
0
220
0
230
1
100
AcDbArc
50
142.67588571241899
51
180
0
ARC
5
157
100
AcDbEntity
8
0
100
AcDbCircle
10
67.068896393662428
20
97.661301609859123
30
0
40
2.9999999999999147
210
0
220
0
230
1
100
AcDbArc
50
-37.324114287582198
51
0.2961062992967608
0
ARC
5
158
100
AcDbEntity
8
0
100
AcDbCircle
10
70.502608976574379
20
110.49666997867558
30
0
40
0.49999999999999667
210
0
220
-0
230
1
100
AcDbArc
50
89.137521529904475
51
180.29610629929553
0
ARC
5
159
100
AcDbEntity
8
0
100
AcDbCircle
10
-74.661137206176917
20
108.65856018312178
30
0
40
0.49999999999999822
210
0
220
0
230
1
100
AcDbArc
50
0
51
73.980231289688405
0
SPLINE
5
160
100
AcDbEntity
8
0
100
AcDbSpline
70
4
71
5
72
46
73
40
74
0
42
0.000000001
43
0.0000000001
44
0.0000000001
40
0
40
0
40
0
40
0
40
0
40
0
40
0.028571428571428567
40
0.057142857142857134
40
0.085714285714285715
40
0.11428571428571427
40
0.14285714285714285
40
0.17142857142857146
40
0.20000000000000001
40
0.22857142857142854
40
0.25714285714285717
40
0.2857142857142857
40
0.31428571428571433
40
0.34285714285714292
40
0.3714285714285715
40
0.40000000000000008
40
0.42857142857142871
40
0.4571428571428573
40
0.48571428571428582
40
0.51428571428571435
40
0.54285714285714293
40
0.57142857142857151
40
0.60000000000000009
40
0.62857142857142867
40
0.65714285714285725
40
0.68571428571428583
40
0.71428571428571441
40
0.74285714285714299
40
0.77142857142857146
40
0.80000000000000016
40
0.82857142857142863
40
0.85714285714285732
40
0.8857142857142859
40
0.91428571428571459
40
0.94285714285714295
40
0.97142857142857164
40
1
40
1
40
1
40
1
40
1
40
1
41
1
41
1
41
1
41
1
41
1
41
1
41
1
41
1
41
1
41
1
41
1
41
1
41
1
41
1
41
1
41
1
41
1
41
1
41
1
41
1
41
1
41
1
41
1
41
1
41
1
41
1
41
1
41
1
41
1
41
1
41
1
41
1
41
1
41
1
41
1
41
1
41
1
41
1
41
1
41
1
10
-120.75484045955888
20
70.673106888854633
30
0
10
-120.75341734909374
20
71.049687629103303
30
0
10
-120.75090810919953
20
71.789410243450149
30
0
10
-120.74815745892212
20
72.858673627173246
30
0
10
-120.74649942234805
20
74.203643916851419
30
0
10
-120.74486728915907
20
75.754975537792703
30
0
10
-120.73454396224221
20
77.192095295570454
30
0
10
-120.69786053841482
20
78.54609804165986
30
0
10
-120.60371256134822
20
79.872413875922007
30
0
10
-120.41495222408344
20
81.238385185641491
30
0
10
-120.10237631328216
20
82.699532239507477
30
0
10
-119.6554841414308
20
84.281190083494621
30
0
10
-119.09763844836675
20
85.953168128206428
30
0
10
-118.47348532792395
20
87.647464467795601
30
0
10
-117.83054958410305
20
89.284874946521583
30
0
10
-117.20384090152372
20
90.797130951855948
30
0
10
-116.59693717159567
20
92.153984499460435
30
0
10
-115.9712783181706
20
93.378955143845715
30
0
10
-115.26638274941374
20
94.522451291671501
30
0
10
-114.41429056528251
20
95.64300432161636
30
0
10
-113.35819507342954
20
96.782326270857055
30
0
10
-112.06275636930187
20
97.953166207011165
30
0
10
-110.5099727251627
20
99.149526665254513
30
0
10
-108.69822628908837
20
100.35221386773536
30
0
10
-106.64011720076971
20
101.53586106814281
30
0
10
-104.36109128870226
20
102.67599806209084
30
0
10
-101.89730132572627
20
103.75370810320271
30
0
10
-99.292282008618827
20
104.75407231911061
30
0
10
-96.593892803105945
20
105.66594247862973
30
0
10
-93.851222603697565
20
106.4812128078912
30
0
10
-91.111488745241928
20
107.19433244840458
30
0
10
-88.417049279675979
20
107.80174573870609
30
0
10
-85.802084434923586
20
108.30137639031187
30
0
10
-83.290156357035968
20
108.69214881646799
30
0
10
-80.896537236324505
20
108.97374168220269
30
0
10
-78.629889237864575
20
109.14632357648472
30
0
10
-76.921292904203582
20
109.1975139228596
30
0
10
-75.699179112327499
20
109.18723240500887
30
0
10
-74.910772241207368
20
109.15877381166545
30
0
10
-74.523152704853885
20
109.1391434510313
30
0
0
LINE
5
161
100
AcDbEntity
8
0
100
AcDbLine
10
-118.30417187595607
20
-103.17651725567364
30
0
11
-54.937394784623201
21
-90.875557651971363
31
0
0
LINE
5
162
100
AcDbEntity
8
0
100
AcDbLine
10
118.24218478418608
20
-99.540642205971622
30
0
11
61.866311490212631
21
-89.770804333356736
31
0
0
ARC
5
163
100
AcDbEntity
8
0
100
AcDbCircle
10
-45.409107164004958
20
-139.9592793427654
30
0
40
50.000000000005542
210
0
220
0
230
1
100
AcDbArc
50
90.535458985565057
51
100.9858026957742
0
ARC
5
164
100
AcDbEntity
8
0
100
AcDbCircle
10
53.328655269803711
20
-139.03649651627654
30
0
40
50.000000000000924
210
0
220
-0
230
1
100
AcDbArc
50
80.168389823326706
51
90.535458985564532
0
ENDSEC
0
SECTION
2
OBJECTS
0
DICTIONARY
5
C
100
AcDbDictionary
3
ACAD_GROUP
350
D
3
ACAD_MLINESTYLE
350
17
0
DICTIONARY
5
D
100
AcDbDictionary
0
DICTIONARY
5
1A
330
C
100
AcDbDictionary
0
DICTIONARY
5
17
100
AcDbDictionary
0
ENDSEC
0
EOF
