0
SECTION
2
HEADER
9
$INSUNITS
70
4
9
$ACADVER
1
AC1014
9
$HANDSEED
5
FFFF
0
ENDSEC
0
SECTION
2
TABLES
0
TABLE
2
VPORT
5
8
100
AcDbSymbolTable
0
ENDTAB
0
TABLE
2
LTYPE
5
5
100
AcDbSymbolTable
0
LTYPE
5
14
100
AcDbSymbolTableRecord
100
AcDbLinetypeTableRecord
2
BYBLOCK
70
0
0
LTYPE
5
15
100
AcDbSymbolTableRecord
100
AcDbLinetypeTableRecord
2
BYLAYER
70
0
0
LTYPE
5
16
100
AcDbSymbolTableRecord
100
AcDbLinetypeTableRecord
2
DASHED
70
0
3
Dashed __ __ __ __ __ __ __ __ __ __ __ __ __ _
72
65
73
2
40
0.75
49
0.5
74
0
49
-0.25
74
0
0
ENDTAB
0
TABLE
2
LAYER
5
2
100
AcDbSymbolTable
70
2
0
LAYER
5
50
100
AcDbSymbolTableRecord
100
AcDbLayerTableRecord
2
0
70
0
62
7
6
CONTINUOUS
0
ENDTAB
0
TABLE
2
STYLE
5
3
100
AcDbSymbolTable
70
1
0
STYLE
5
11
100
AcDbSymbolTableRecord
100
AcDbTextStyleTableRecord
2
STANDARD
70
0
0
ENDTAB
0
TABLE
2
VIEW
5
6
100
AcDbSymbolTable
70
0
0
ENDTAB
0
TABLE
2
UCS
5
7
100
AcDbSymbolTable
70
0
0
ENDTAB
0
TABLE
2
APPID
5
9
100
AcDbSymbolTable
70
2
0
APPID
5
12
100
AcDbSymbolTableRecord
100
AcDbRegAppTableRecord
2
ACAD
70
0
0
ENDTAB
0
TABLE
2
DIMSTYLE
5
A
100
AcDbSymbolTable
70
1
0
ENDTAB
0
TABLE
2
BLOCK_RECORD
5
1
100
AcDbSymbolTable
70
1
0
BLOCK_RECORD
5
1F
100
AcDbSymbolTableRecord
100
AcDbBlockTableRecord
2
*MODEL_SPACE
0
BLOCK_RECORD
5
1B
100
AcDbSymbolTableRecord
100
AcDbBlockTableRecord
2
*PAPER_SPACE
0
ENDTAB
0
ENDSEC
0
SECTION
2
BLOCKS
0
BLOCK
5
20
100
AcDbEntity
100
AcDbBlockBegin
2
*MODEL_SPACE
0
ENDBLK
5
21
100
AcDbEntity
100
AcDbBlockEnd
0
BLOCK
5
1C
100
AcDbEntity
100
AcDbBlockBegin
2
*PAPER_SPACE
0
ENDBLK
5
1D
100
AcDbEntity
100
AcDbBlockEnd
0
ENDSEC
0
SECTION
2
ENTITIES
0
SPLINE
5
100
100
AcDbEntity
8
0
100
AcDbSpline
70
4
71
5
72
81
73
75
74
0
42
0.000000001
43
0.0000000001
44
0.0000000001
40
0
40
0
40
0
40
0
40
0
40
0
40
0.014285714285714284
40
0.028571428571428567
40
0.042857142857142858
40
0.057142857142857134
40
0.071428571428571438
40
0.085714285714285715
40
0.10000000000000001
40
0.1142857142857143
40
0.12857142857142859
40
0.14285714285714288
40
0.15714285714285714
40
0.17142857142857146
40
0.18571428571428572
40
0.20000000000000004
40
0.21428571428571436
40
0.22857142857142865
40
0.24285714285714291
40
0.25714285714285717
40
0.27142857142857146
40
0.2857142857142857
40
0.30000000000000004
40
0.31428571428571433
40
0.32857142857142863
40
0.34285714285714292
40
0.35714285714285721
40
0.3714285714285715
40
0.38571428571428573
40
0.40000000000000008
40
0.41428571428571442
40
0.42857142857142871
40
0.44285714285714295
40
0.4571428571428573
40
0.47142857142857147
40
0.48571428571428582
40
0.50000000000000011
40
0.51428571428571435
40
0.52857142857142858
40
0.54285714285714282
40
0.55714285714285705
40
0.57142857142857129
40
0.58571428571428552
40
0.59999999999999976
40
0.61428571428571399
40
0.62857142857142823
40
0.64285714285714246
40
0.6571428571428567
40
0.67142857142857093
40
0.68571428571428517
40
0.6999999999999994
40
0.71428571428571364
40
0.72857142857142776
40
0.74285714285714211
40
0.75714285714285634
40
0.77142857142857058
40
0.78571428571428481
40
0.79999999999999905
40
0.81428571428571328
40
0.82857142857142752
40
0.84285714285714175
40
0.85714285714285599
40
0.87142857142857022
40
0.88571428571428445
40
0.89999999999999869
40
0.91428571428571281
40
0.92857142857142716
40
0.94285714285714117
40
0.95714285714285563
40
0.97142857142856975
40
0.98571428571428399
40
1
40
1
40
1
40
1
40
1
40
1
41
1
41
1
41
1
41
1
41
1
41
1
41
1
41
1
41
1
41
1
41
1
41
1
41
1
41
1
41
1
41
1
41
1
41
1
41
1
41
1
41
1
41
1
41
1
41
1
41
1
41
1
41
1
41
1
41
1
41
1
41
1
41
1
41
1
41
1
41
1
41
1
41
1
41
1
41
1
41
1
41
1
41
1
41
1
41
1
41
1
41
1
41
1
41
1
41
1
41
1
41
1
41
1
41
1
41
1
41
1
41
1
41
1
41
1
41
1
41
1
41
1
41
1
41
1
41
1
41
1
41
1
41
1
41
1
41
1
41
1
41
1
41
1
41
1
41
1
41
1
10
-276.79024346664636
20
-455.71634489769684
30
0
10
-276.52305430147749
20
-455.71500501038764
30
0
10
-275.98420948027916
20
-455.71257043922509
30
0
10
-275.16254273924125
20
-455.70965419472606
30
0
10
-274.04018006306819
20
-455.70725250708853
30
0
10
-272.59208125972339
20
-455.70685839589225
30
0
10
-271.09752470251385
20
-455.70930857296173
30
0
10
-269.55393693808435
20
-455.71496058164058
30
0
10
-267.95710503406997
20
-455.72430664942823
30
0
10
-266.30069485976981
20
-455.73799226675425
30
0
10
-264.57785650743358
20
-455.75673212473254
30
0
10
-262.78297166071854
20
-455.78121917573952
30
0
10
-260.91331166008024
20
-455.81203795755039
30
0
10
-258.97082571860437
20
-455.84957190578615
30
0
10
-256.9636723208755
20
-455.89392245023294
30
0
10
-254.90841111039003
20
-455.94479784135814
30
0
10
-252.82769614327071
20
-456.00160800897879
30
0
10
-250.74692689879305
20
-456.0636072067299
30
0
10
-248.69123635175384
20
-456.13002097011281
30
0
10
-246.68239248312429
20
-456.20017741628737
30
0
10
-244.73560871995716
20
-456.27364160277131
30
0
10
-242.85667834481063
20
-456.35033737579113
30
0
10
-241.03819031227985
20
-456.43070496365056
30
0
10
-239.26220023131404
20
-456.51560693938762
30
0
10
-237.5044352568969
20
-456.6061748591062
30
0
10
-235.73789991782277
20
-456.70367816574731
30
0
10
-233.93687025677883
20
-456.80938044011418
30
0
10
-232.08038965624519
20
-456.92440928537701
30
0
10
-230.15680995505255
20
-457.04959974626041
30
0
10
-228.16440499758173
20
-457.18543514782561
30
0
10
-226.1088163085725
20
-457.33206704048376
30
0
10
-224.00140423801952
20
-457.4893109538329
30
0
10
-221.85725445142992
20
-457.65665404890223
30
0
10
-219.69329695146499
20
-457.83325134130337
30
0
10
-217.52647774503993
20
-458.01793978301419
30
0
10
-215.37167007965417
20
-458.20921105820719
30
0
10
-213.24057592205855
20
-458.40532309327614
30
0
10
-211.14193573337914
20
-458.60458840302505
30
0
10
-209.08139846492384
20
-458.8056212710917
30
0
10
-207.06153943677435
20
-459.00759503618048
30
0
10
-205.08177698340097
20
-459.21051153382382
30
0
10
-203.13840543389824
20
-459.41542954861171
30
0
10
-201.22438635858367
20
-459.62480107097912
30
0
10
-199.32983548618992
20
-459.84247927864914
30
0
10
-197.4443439600806
20
-460.07284694041687
30
0
10
-195.55899462135864
20
-460.32009774911899
30
0
10
-193.66842589943829
20
-460.58747964015413
30
0
10
-191.77304949398049
20
-460.87650150005584
30
0
10
-189.88081139421661
20
-461.18627434459739
30
0
10
-188.01017130084205
20
-461.51248362736459
30
0
10
-186.18720252852631
20
-461.84814620833384
30
0
10
-184.43980085823455
20
-462.18523945963545
30
0
10
-182.79296129620485
20
-462.5160168408928
30
0
10
-181.26327686160272
20
-462.83453277501366
30
0
10
-179.85453178930655
20
-463.1378955433097
30
0
10
-178.55086956746476
20
-463.42810359590442
30
0
10
-177.3200196569922
20
-463.71148242013555
30
0
10
-176.12288198905992
20
-463.99662136823986
30
0
10
-174.9210937958299
20
-464.292764636382
30
0
10
-173.68563228572418
20
-464.60801816046745
30
0
10
-172.40440401106844
20
-464.94763490471024
30
0
10
-171.07965913155795
20
-465.31281598026396
30
0
10
-169.72597006513092
20
-465.69931949227077
30
0
10
-168.36796349709047
20
-466.09647807289628
30
0
10
-167.03830092320473
20
-466.48521352537779
30
0
10
-165.77514830171174
20
-466.83936260810725
30
0
10
-164.61887663351533
20
-467.13523681984748
30
0
10
-163.6087328313439
20
-467.35754554378354
30
0
10
-162.77993198105628
20
-467.51076272221979
30
0
10
-162.15961997688561
20
-467.61905894081644
30
0
10
-161.75345809979257
20
-467.70068282758223
30
0
10
-161.5712896943387
20
-467.68406873339296
30
0
10
-161.48241091103102
20
-467.6055772418527
30
0
10
-161.43556224807276
20
-467.55849167134562
30
0
10
-161.4152434666463
20
-467.53609065276657
30
0
0
SPLINE
5
101
100
AcDbEntity
8
0
100
AcDbSpline
70
4
71
5
72
136
73
130
74
0
42
0.000000001
43
0.0000000001
44
0.0000000001
40
0
40
0
40
0
40
0
40
0
40
0
40
0.0080000000000000002
40
0.016
40
0.024
40
0.032000000000000001
40
0.040000000000000001
40
0.048000000000000001
40
0.056000000000000001
40
0.064000000000000001
40
0.072000000000000008
40
0.080000000000000016
40
0.088000000000000009
40
0.096000000000000044
40
0.10400000000000004
40
0.11200000000000004
40
0.12000000000000005
40
0.12800000000000006
40
0.13600000000000007
40
0.14400000000000007
40
0.15200000000000008
40
0.16000000000000009
40
0.16800000000000007
40
0.1760000000000001
40
0.18400000000000008
40
0.19200000000000009
40
0.20000000000000007
40
0.20800000000000013
40
0.21600000000000014
40
0.22400000000000012
40
0.2320000000000001
40
0.24000000000000016
40
0.24800000000000014
40
0.25600000000000017
40
0.26400000000000012
40
0.27200000000000013
40
0.28000000000000014
40
0.2880000000000002
40
0.29600000000000021
40
0.30400000000000021
40
0.31200000000000028
40
0.32000000000000023
40
0.32800000000000024
40
0.33600000000000024
40
0.34400000000000025
40
0.35200000000000026
40
0.36000000000000026
40
0.36800000000000027
40
0.37600000000000022
40
0.38400000000000023
40
0.39200000000000024
40
0.4000000000000003
40
0.40800000000000031
40
0.41600000000000031
40
0.42400000000000032
40
0.43200000000000027
40
0.44000000000000028
40
0.44800000000000029
40
0.45600000000000041
40
0.46400000000000041
40
0.47200000000000042
40
0.48000000000000043
40
0.48800000000000038
40
0.49600000000000039
40
0.50400000000000034
40
0.51200000000000034
40
0.52000000000000035
40
0.52800000000000036
40
0.53600000000000037
40
0.54400000000000037
40
0.55200000000000038
40
0.56000000000000039
40
0.56800000000000039
40
0.5760000000000004
40
0.58400000000000041
40
0.59200000000000041
40
0.60000000000000042
40
0.60800000000000043
40
0.61600000000000055
40
0.62400000000000055
40
0.63200000000000045
40
0.64000000000000046
40
0.64800000000000046
40
0.65600000000000047
40
0.66400000000000048
40
0.67200000000000049
40
0.68000000000000049
40
0.6880000000000005
40
0.69600000000000051
40
0.70400000000000051
40
0.71200000000000052
40
0.72000000000000053
40
0.72800000000000054
40
0.73600000000000054
40
0.74400000000000055
40
0.75200000000000045
40
0.76000000000000045
40
0.76800000000000046
40
0.77600000000000058
40
0.78400000000000059
40
0.79200000000000059
40
0.8000000000000006
40
0.80800000000000061
40
0.81600000000000061
40
0.82400000000000062
40
0.83200000000000063
40
0.84000000000000064
40
0.84800000000000064
40
0.85600000000000065
40
0.86400000000000055
40
0.87200000000000055
40
0.88000000000000056
40
0.88800000000000057
40
0.89600000000000057
40
0.9040000000000008
40
0.91200000000000081
40
0.92000000000000082
40
0.92800000000000082
40
0.93600000000000083
40
0.94400000000000084
40
0.95200000000000085
40
0.96000000000000085
40
0.96800000000000075
40
0.97600000000000076
40
0.98400000000000076
40
0.99200000000000077
40
1
40
1
40
1
40
1
40
1
40
1
41
1
41
1
41
1
41
1
41
1
41
1
41
1
41
1
41
1
41
1
41
1
41
1
41
1
41
1
41
1
41
1
41
1
41
1
41
1
41
1
41
1
41
1
41
1
41
1
41
1
41
1
41
1
41
1
41
1
41
1
41
1
41
1
41
1
41
1
41
1
41
1
41
1
41
1
41
1
41
1
41
1
41
1
41
1
41
1
41
1
41
1
41
1
41
1
41
1
41
1
41
1
41
1
41
1
41
1
41
1
41
1
41
1
41
1
41
1
41
1
41
1
41
1
41
1
41
1
41
1
41
1
41
1
41
1
41
1
41
1
41
1
41
1
41
1
41
1
41
1
41
1
41
1
41
1
41
1
41
1
41
1
41
1
41
1
41
1
41
1
41
1
41
1
41
1
41
1
41
1
41
1
41
1
41
1
41
1
41
1
41
1
41
1
41
1
41
1
41
1
41
1
41
1
41
1
41
1
41
1
41
1
41
1
41
1
41
1
41
1
41
1
41
1
41
1
41
1
41
1
41
1
41
1
41
1
41
1
41
1
41
1
41
1
41
1
41
1
41
1
41
1
41
1
41
1
41
1
41
1
10
-161.41524346664639
20
-467.53609065276657
30
0
10
-161.35140635798393
20
-467.11124593558878
30
0
10
-161.22702638219062
20
-466.27351338377395
30
0
10
-161.05033921680345
20
-465.05278576672379
30
0
10
-160.83452334716446
20
-463.49689396422576
30
0
10
-160.59672021628145
20
-461.66428959813436
30
0
10
-160.3879159813394
20
-459.9218334911921
30
0
10
-160.20217997523156
20
-458.22540144497793
30
0
10
-160.02955679216308
20
-456.50096693163698
30
0
10
-159.85825523075965
20
-454.66149461261955
30
0
10
-159.67687725440987
20
-452.6241328788791
30
0
10
-159.47671920336418
20
-450.32797275296048
30
0
10
-159.25380020782299
20
-447.74968555753355
30
0
10
-159.00771922010881
20
-444.89451839061218
30
0
10
-158.74074444406426
20
-441.78909589123981
30
0
10
-158.45681802048114
20
-438.47356269907436
30
0
10
-158.16059200569029
20
-434.99397202382431
30
0
10
-157.85646458438222
20
-431.394669607737
30
0
10
-157.5475800620184
20
-427.71041395020694
30
0
10
-157.23603418561942
20
-423.96737343519794
30
0
10
-156.92312789295826
20
-420.18448139740599
30
0
10
-156.60960331173655
20
-416.37465763408181
30
0
10
-156.29588607930472
20
-412.54608103476897
30
0
10
-155.9823268836881
20
-408.70344398202099
30
0
10
-155.66943836051485
20
-404.84919890429325
30
0
10
-155.35814571706885
20
-400.98484031216378
30
0
10
-155.04999805011926
20
-397.11207548402064
30
0
10
-154.74691605913625
20
-393.23267408327172
30
0
10
-154.45097206673282
20
-389.34840989158749
30
0
10
-154.16415799545001
20
-385.46096753931113
30
0
10
-153.88815813090304
20
-381.57186410965016
30
0
10
-153.62412045582616
20
-377.68236422435325
30
0
10
-153.37242665644476
20
-373.79339797834541
30
0
10
-153.13246646582556
20
-369.90547717063998
30
0
10
-152.90239846876844
20
-366.01861307269326
30
0
10
-152.67953683641571
20
-362.13216618960791
30
0
10
-152.46075286150307
20
-358.24469263307083
30
0
10
-152.24286948828711
20
-354.35379475486741
30
0
10
-152.02306170892498
20
-350.45596202073534
30
0
10
-151.7992476451208
20
-346.54643308806959
30
0
10
-151.57049995059978
20
-342.6190075744496
30
0
10
-151.33741118345299
20
-338.66597457938781
30
0
10
-151.10257923805796
20
-334.67773762647744
30
0
10
-150.87010428281076
20
-330.64495283288397
30
0
10
-150.64490581388057
20
-326.56113057610804
30
0
10
-150.4321068498173
20
-322.42505718698959
30
0
10
-150.2363809573211
20
-318.24333797290814
30
0
10
-150.06133617314782
20
-314.03279052539585
30
0
10
-149.90883375244962
20
-309.82314080279087
30
0
10
-149.77844823108214
20
-305.65904868267273
30
0
10
-149.66659113396025
20
-301.60374342416003
30
0
10
-149.5666502168838
20
-297.73778989989603
30
0
10
-149.47183140941684
20
-294.14476326216385
30
0
10
-149.37759244951792
20
-290.8990319697524
30
0
10
-149.28405484364376
20
-288.05332316682171
30
0
10
-149.19884731962512
20
-285.62495686465974
30
0
10
-149.13878559190158
20
-283.58594137151186
30
0
10
-149.13447961019011
20
-281.84324248590741
30
0
10
-149.22429771331076
20
-280.25453770877039
30
0
10
-149.43403904362077
20
-278.68974441975593
30
0
10
-149.76266362752403
20
-277.07543791501303
30
0
10
-150.15987041638431
20
-275.4589826047569
30
0
10
-150.56227710043208
20
-273.9361273740675
30
0
10
-150.9283818408428
20
-272.57771821995698
30
0
10
-151.29087477612353
20
-271.32527657817928
30
0
10
-151.73761879372549
20
-270.01896969932926
30
0
10
-152.34021996054361
20
-268.52525374990802
30
0
10
-153.0760305665585
20
-266.87320068824414
30
0
10
-153.83496040384841
20
-265.24570609369385
30
0
10
-154.50761407747615
20
-263.82994540012328
30
0
10
-155.05144785060097
20
-262.70608674717641
30
0
10
-155.56299444123221
20
-261.72509367830833
30
0
10
-156.18427641177433
20
-260.66143126958758
30
0
10
-156.99005389108697
20
-259.39671694078118
30
0
10
-157.9425733074045
20
-257.99378834360181
30
0
10
-158.96385577994991
20
-256.57977590596386
30
0
10
-159.98182614002317
20
-255.27168904019899
30
0
10
-160.98555731572546
20
-254.08718957883741
30
0
10
-161.99992068812327
20
-252.98666697111489
30
0
10
-163.06560637994238
20
-251.90654877386888
30
0
10
-164.21363875980788
20
-250.80163940815635
30
0
10
-165.46132678215841
20
-249.65213311878648
30
0
10
-166.81618175630788
20
-248.45731109903309
30
0
10
-168.27728951705595
20
-247.23380268969859
30
0
10
-169.83770569986513
20
-246.01110672489818
30
0
10
-171.48624610125756
20
-244.82375021452501
30
0
10
-173.20949017886576
20
-243.70384890071645
30
0
10
-174.99370009108873
20
-242.67328581226732
30
0
10
-176.82674932160708
20
-241.73670261274901
30
0
10
-178.69898834085342
20
-240.88780812236391
30
0
10
-180.60429370289555
20
-240.11527988917277
30
0
10
-182.54079664012175
20
-239.4083672117481
30
0
10
-184.51239064428995
20
-238.7637511937744
30
0
10
-186.52555611986878
20
-238.18452544024339
30
0
10
-188.58428616558336
20
-237.6765166453342
30
0
10
-190.6863291174777
20
-237.24564437111013
30
0
10
-192.8172830289607
20
-236.89449210401531
30
0
10
-194.95096138864412
20
-236.62041242700138
30
0
10
-197.06124801801019
20
-236.41621564512388
30
0
10
-199.13172786683759
20
-236.27028049542167
30
0
10
-201.1656364346839
20
-236.16695504412459
30
0
10
-203.19722099169275
20
-236.08666448871315
30
0
10
-205.2786229071242
20
-236.00892072960218
30
0
10
-207.46337455885418
20
-235.91579669033632
30
0
10
-209.79267126774084
20
-235.7948701488564
30
0
10
-212.27677278335017
20
-235.64326334973626
30
0
10
-214.89221421142943
20
-235.46798406600215
30
0
10
-217.59833293235738
20
-235.28171213912029
30
0
10
-220.34880199837283
20
-235.099764094026
30
0
10
-223.10536071836674
20
-234.93654355426369
30
0
10
-225.85020067089175
20
-234.80229901286125
30
0
10
-228.60003985580187
20
-234.69951129948339
30
0
10
-231.39529597120614
20
-234.62461050049171
30
0
10
-234.28769530035891
20
-234.57001873283997
30
0
10
-237.32861216643101
20
-234.52605249243859
30
0
10
-240.55673676324562
20
-234.48293130175213
30
0
10
-243.98688174572794
20
-234.43262733051017
30
0
10
-247.59605319426515
20
-234.37107989459176
30
0
10
-251.32898806914002
20
-234.29783091335179
30
0
10
-255.10791683169234
20
-234.21509963312798
30
0
10
-258.84092437731596
20
-234.12704632467378
30
0
10
-262.43075739545117
20
-234.03896837600513
30
0
10
-265.78374730352988
20
-233.95650120355208
30
0
10
-268.81795859738469
20
-233.88487529911822
30
0
10
-271.47344679448793
20
-233.82800746397604
30
0
10
-273.71531664544136
20
-233.78816631735401
30
0
10
-275.16377274468141
20
-233.77084026840518
30
0
10
-276.05347641822129
20
-233.76619552914403
30
0
10
-276.55921961786015
20
-233.76681021805513
30
0
10
-276.79024346664642
20
-233.76804532638332
30
0
0
SPLINE
5
102
100
AcDbEntity
8
0
100
AcDbSpline
70
4
71
5
72
136
73
130
74
0
42
0.000000001
43
0.0000000001
44
0.0000000001
40
-1
40
-1
40
-1
40
-1
40
-1
40
-1
40
-0.99200000000000077
40
-0.98400000000000076
40
-0.97600000000000076
40
-0.96800000000000075
40
-0.96000000000000085
40
-0.95200000000000085
40
-0.94400000000000084
40
-0.93600000000000083
40
-0.92800000000000082
40
-0.92000000000000082
40
-0.91200000000000081
40
-0.9040000000000008
40
-0.89600000000000057
40
-0.88800000000000057
40
-0.88000000000000056
40
-0.87200000000000055
40
-0.86400000000000055
40
-0.85600000000000065
40
-0.84800000000000064
40
-0.84000000000000064
40
-0.83200000000000063
40
-0.82400000000000062
40
-0.81600000000000061
40
-0.80800000000000061
40
-0.8000000000000006
40
-0.79200000000000059
40
-0.78400000000000059
40
-0.77600000000000058
40
-0.76800000000000046
40
-0.76000000000000045
40
-0.75200000000000045
40
-0.74400000000000055
40
-0.73600000000000054
40
-0.72800000000000054
40
-0.72000000000000053
40
-0.71200000000000052
40
-0.70400000000000051
40
-0.69600000000000051
40
-0.6880000000000005
40
-0.68000000000000049
40
-0.67200000000000049
40
-0.66400000000000048
40
-0.65600000000000047
40
-0.64800000000000046
40
-0.64000000000000046
40
-0.63200000000000045
40
-0.62400000000000055
40
-0.61600000000000055
40
-0.60800000000000043
40
-0.60000000000000042
40
-0.59200000000000041
40
-0.58400000000000041
40
-0.5760000000000004
40
-0.56800000000000039
40
-0.56000000000000039
40
-0.55200000000000038
40
-0.54400000000000037
40
-0.53600000000000037
40
-0.52800000000000036
40
-0.52000000000000035
40
-0.51200000000000034
40
-0.50400000000000034
40
-0.49600000000000039
40
-0.48800000000000038
40
-0.48000000000000043
40
-0.47200000000000042
40
-0.46400000000000041
40
-0.45600000000000041
40
-0.44800000000000029
40
-0.44000000000000028
40
-0.43200000000000027
40
-0.42400000000000032
40
-0.41600000000000031
40
-0.40800000000000031
40
-0.4000000000000003
40
-0.39200000000000024
40
-0.38400000000000023
40
-0.37600000000000022
40
-0.36800000000000027
40
-0.36000000000000026
40
-0.35200000000000026
40
-0.34400000000000025
40
-0.33600000000000024
40
-0.32800000000000024
40
-0.32000000000000023
40
-0.31200000000000028
40
-0.30400000000000021
40
-0.29600000000000021
40
-0.2880000000000002
40
-0.28000000000000014
40
-0.27200000000000013
40
-0.26400000000000012
40
-0.25600000000000017
40
-0.24800000000000014
40
-0.24000000000000016
40
-0.2320000000000001
40
-0.22400000000000012
40
-0.21600000000000014
40
-0.20800000000000013
40
-0.20000000000000007
40
-0.19200000000000009
40
-0.18400000000000008
40
-0.1760000000000001
40
-0.16800000000000007
40
-0.16000000000000009
40
-0.15200000000000008
40
-0.14400000000000007
40
-0.13600000000000007
40
-0.12800000000000006
40
-0.12000000000000005
40
-0.11200000000000004
40
-0.10400000000000004
40
-0.096000000000000044
40
-0.088000000000000009
40
-0.080000000000000016
40
-0.072000000000000008
40
-0.064000000000000001
40
-0.056000000000000001
40
-0.048000000000000001
40
-0.040000000000000001
40
-0.032000000000000001
40
-0.024
40
-0.016
40
-0.0080000000000000002
40
0
40
0
40
0
40
0
40
0
40
0
41
1
41
1
41
1
41
1
41
1
41
1
41
1
41
1
41
1
41
1
41
1
41
1
41
1
41
1
41
1
41
1
41
1
41
1
41
1
41
1
41
1
41
1
41
1
41
1
41
1
41
1
41
1
41
1
41
1
41
1
41
1
41
1
41
1
41
1
41
1
41
1
41
1
41
1
41
1
41
1
41
1
41
1
41
1
41
1
41
1
41
1
41
1
41
1
41
1
41
1
41
1
41
1
41
1
41
1
41
1
41
1
41
1
41
1
41
1
41
1
41
1
41
1
41
1
41
1
41
1
41
1
41
1
41
1
41
1
41
1
41
1
41
1
41
1
41
1
41
1
41
1
41
1
41
1
41
1
41
1
41
1
41
1
41
1
41
1
41
1
41
1
41
1
41
1
41
1
41
1
41
1
41
1
41
1
41
1
41
1
41
1
41
1
41
1
41
1
41
1
41
1
41
1
41
1
41
1
41
1
41
1
41
1
41
1
41
1
41
1
41
1
41
1
41
1
41
1
41
1
41
1
41
1
41
1
41
1
41
1
41
1
41
1
41
1
41
1
41
1
41
1
41
1
41
1
41
1
41
1
10
-276.79024346664642
20
-233.76804532638332
30
0
10
-277.02126731543274
20
-233.76681021805513
30
0
10
-277.52701051507154
20
-233.76619552914403
30
0
10
-278.41671418861154
20
-233.77084026840518
30
0
10
-279.86517028785153
20
-233.78816631735401
30
0
10
-282.10704013880502
20
-233.82800746397604
30
0
10
-284.7625283359082
20
-233.88487529911822
30
0
10
-287.79673962976295
20
-233.95650120355208
30
0
10
-291.14972953784161
20
-234.03896837600513
30
0
10
-294.73956255597693
20
-234.12704632467378
30
0
10
-298.47257010160052
20
-234.21509963312798
30
0
10
-302.25149886415284
20
-234.29783091335179
30
0
10
-305.98443373902774
20
-234.37107989459176
30
0
10
-309.59360518756489
20
-234.43262733051017
30
0
10
-313.02375017004726
20
-234.48293130175213
30
0
10
-316.25187476686187
20
-234.52605249243859
30
0
10
-319.29279163293393
20
-234.57001873283997
30
0
10
-322.18519096208666
20
-234.62461050049171
30
0
10
-324.98044707749091
20
-234.69951129948339
30
0
10
-327.73028626240102
20
-234.80229901286125
30
0
10
-330.47512621492604
20
-234.93654355426369
30
0
10
-333.23168493492
20
-235.099764094026
30
0
10
-335.98215400093545
20
-235.28171213912029
30
0
10
-338.68827272186337
20
-235.46798406600215
30
0
10
-341.30371414994261
20
-235.64326334973626
30
0
10
-343.78781566555188
20
-235.7948701488564
30
0
10
-346.1171123744387
20
-235.91579669033632
30
0
10
-348.30186402616869
20
-236.00892072960218
30
0
10
-350.38326594159997
20
-236.08666448871315
30
0
10
-352.41485049860887
20
-236.16695504412459
30
0
10
-354.44875906645518
20
-236.27028049542167
30
0
10
-356.5192389152827
20
-236.41621564512388
30
0
10
-358.62952554464869
20
-236.62041242700138
30
0
10
-360.7632039043321
20
-236.89449210401531
30
0
10
-362.89415781581511
20
-237.24564437111013
30
0
10
-364.99620076770941
20
-237.6765166453342
30
0
10
-367.05493081342405
20
-238.18452544024339
30
0
10
-369.06809628900282
20
-238.7637511937744
30
0
10
-371.03969029317102
20
-239.4083672117481
30
0
10
-372.97619323039726
20
-240.11527988917277
30
0
10
-374.88149859243941
20
-240.88780812236391
30
0
10
-376.75373761168572
20
-241.73670261274901
30
0
10
-378.58678684220411
20
-242.67328581226732
30
0
10
-380.3709967544271
20
-243.70384890071645
30
0
10
-382.09424083203533
20
-244.82375021452501
30
0
10
-383.74278123342765
20
-246.01110672489818
30
0
10
-385.30319741623703
20
-247.23380268969859
30
0
10
-386.76430517698486
20
-248.45731109903309
30
0
10
-388.11916015113439
20
-249.65213311878648
30
0
10
-389.36684817348493
20
-250.80163940815635
30
0
10
-390.51488055335039
20
-251.90654877386888
30
0
10
-391.58056624516951
20
-252.98666697111489
30
0
10
-392.5949296175674
20
-254.08718957883741
30
0
10
-393.59866079326963
20
-255.27168904019899
30
0
10
-394.61663115334289
20
-256.57977590596386
30
0
10
-395.6379136258883
20
-257.99378834360181
30
0
10
-396.59043304220586
20
-259.39671694078118
30
0
10
-397.39621052151853
20
-260.66143126958758
30
0
10
-398.01749249206057
20
-261.72509367830833
30
0
10
-398.52903908269184
20
-262.70608674717641
30
0
10
-399.07287285581663
20
-263.82994540012328
30
0
10
-399.74552652944442
20
-265.24570609369385
30
0
10
-400.5044563667343
20
-266.87320068824414
30
0
10
-401.24026697274917
20
-268.52525374990802
30
0
10
-401.84286813956732
20
-270.01896969932926
30
0
10
-402.28961215716924
20
-271.32527657817928
30
0
10
-402.65210509244991
20
-272.57771821995698
30
0
10
-403.01820983286069
20
-273.9361273740675
30
0
10
-403.42061651690847
20
-275.4589826047569
30
0
10
-403.81782330576868
20
-277.07543791501303
30
0
10
-404.14644788967195
20
-278.68974441975593
30
0
10
-404.35618921998196
20
-280.25453770877039
30
0
10
-404.44600732310266
20
-281.84324248590741
30
0
10
-404.44170134139114
20
-283.58594137151186
30
0
10
-404.38163961366769
20
-285.62495686465974
30
0
10
-404.29643208964899
20
-288.05332316682171
30
0
10
-404.2028944837748
20
-290.8990319697524
30
0
10
-404.10865552387588
20
-294.14476326216385
30
0
10
-404.013836716409
20
-297.73778989989603
30
0
10
-403.91389579933247
20
-301.60374342416003
30
0
10
-403.80203870221067
20
-305.65904868267273
30
0
10
-403.67165318084318
20
-309.82314080279093
30
0
10
-403.51915076014495
20
-314.03279052539597
30
0
10
-403.34410597597173
20
-318.24333797290814
30
0
10
-403.1483800834755
20
-322.42505718698965
30
0
10
-402.9355811194124
20
-326.56113057610804
30
0
10
-402.71038265048213
20
-330.64495283288397
30
0
10
-402.47790769523482
20
-334.67773762647744
30
0
10
-402.24307574983982
20
-338.66597457938786
30
0
10
-402.00998698269296
20
-342.61900757444971
30
0
10
-401.781239288172
20
-346.54643308806965
30
0
10
-401.55742522436782
20
-350.4559620207354
30
0
10
-401.33761744500555
20
-354.35379475486747
30
0
10
-401.11973407178971
20
-358.24469263307088
30
0
10
-400.90095009687707
20
-362.13216618960791
30
0
10
-400.67808846452442
20
-366.01861307269331
30
0
10
-400.44802046746724
20
-369.90547717064004
30
0
10
-400.20806027684796
20
-373.79339797834541
30
0
10
-399.9563664774667
20
-377.68236422435325
30
0
10
-399.69232880238974
20
-381.57186410965028
30
0
10
-399.41632893784276
20
-385.46096753931118
30
0
10
-399.12951486655993
20
-389.34840989158761
30
0
10
-398.83357087415646
20
-393.23267408327177
30
0
10
-398.53048888317352
20
-397.11207548402069
30
0
10
-398.22234121622387
20
-400.9848403121639
30
0
10
-397.91104857277793
20
-404.8491989042933
30
0
10
-397.59816004960464
20
-408.70344398202099
30
0
10
-397.28460085398808
20
-412.54608103476903
30
0
10
-396.9708836215562
20
-416.37465763408187
30
0
10
-396.65735904033454
20
-420.18448139740605
30
0
10
-396.34445274767336
20
-423.96737343519794
30
0
10
-396.03290687127441
20
-427.710413950207
30
0
10
-395.72402234891064
20
-431.394669607737
30
0
10
-395.41989492760257
20
-434.99397202382443
30
0
10
-395.1236689128117
20
-438.47356269907442
30
0
10
-394.8397424892284
20
-441.78909589123987
30
0
10
-394.57276771318391
20
-444.89451839061218
30
0
10
-394.32668672546981
20
-447.74968555753355
30
0
10
-394.10376772992856
20
-450.32797275296048
30
0
10
-393.9036096788829
20
-452.6241328788791
30
0
10
-393.72223170253324
20
-454.66149461261955
30
0
10
-393.5509301411297
20
-456.50096693163698
30
0
10
-393.37830695806122
20
-458.22540144497793
30
0
10
-393.19257095195337
20
-459.92183349119216
30
0
10
-392.98376671701135
20
-461.66428959813436
30
0
10
-392.74596358612831
20
-463.49689396422576
30
0
10
-392.53014771648918
20
-465.05278576672379
30
0
10
-392.3534605511021
20
-466.27351338377395
30
0
10
-392.2290805753089
20
-467.11124593558878
30
0
10
-392.16524346664642
20
-467.53609065276663
30
0
0
SPLINE
5
103
100
AcDbEntity
8
0
100
AcDbSpline
70
4
71
5
72
81
73
75
74
0
42
0.000000001
43
0.0000000001
44
0.0000000001
40
-1
40
-1
40
-1
40
-1
40
-1
40
-1
40
-0.98571428571428399
40
-0.97142857142856975
40
-0.95714285714285563
40
-0.94285714285714117
40
-0.92857142857142716
40
-0.91428571428571281
40
-0.89999999999999869
40
-0.88571428571428445
40
-0.87142857142857022
40
-0.85714285714285599
40
-0.84285714285714175
40
-0.82857142857142752
40
-0.81428571428571328
40
-0.79999999999999905
40
-0.78571428571428481
40
-0.77142857142857058
40
-0.75714285714285634
40
-0.74285714285714211
40
-0.72857142857142776
40
-0.71428571428571364
40
-0.6999999999999994
40
-0.68571428571428517
40
-0.67142857142857093
40
-0.6571428571428567
40
-0.64285714285714246
40
-0.62857142857142823
40
-0.61428571428571399
40
-0.59999999999999976
40
-0.58571428571428552
40
-0.57142857142857129
40
-0.55714285714285705
40
-0.54285714285714282
40
-0.52857142857142858
40
-0.51428571428571435
40
-0.50000000000000011
40
-0.48571428571428582
40
-0.47142857142857147
40
-0.4571428571428573
40
-0.44285714285714295
40
-0.42857142857142871
40
-0.41428571428571442
40
-0.40000000000000008
40
-0.38571428571428573
40
-0.3714285714285715
40
-0.35714285714285721
40
-0.34285714285714292
40
-0.32857142857142863
40
-0.31428571428571433
40
-0.30000000000000004
40
-0.2857142857142857
40
-0.27142857142857146
40
-0.25714285714285717
40
-0.24285714285714291
40
-0.22857142857142865
40
-0.21428571428571436
40
-0.20000000000000004
40
-0.18571428571428572
40
-0.17142857142857146
40
-0.15714285714285714
40
-0.14285714285714288
40
-0.12857142857142859
40
-0.1142857142857143
40
-0.10000000000000001
40
-0.085714285714285715
40
-0.071428571428571438
40
-0.057142857142857134
40
-0.042857142857142858
40
-0.028571428571428567
40
-0.014285714285714284
40
0
40
0
40
0
40
0
40
0
40
0
41
1
41
1
41
1
41
1
41
1
41
1
41
1
41
1
41
1
41
1
41
1
41
1
41
1
41
1
41
1
41
1
41
1
41
1
41
1
41
1
41
1
41
1
41
1
41
1
41
1
41
1
41
1
41
1
41
1
41
1
41
1
41
1
41
1
41
1
41
1
41
1
41
1
41
1
41
1
41
1
41
1
41
1
41
1
41
1
41
1
41
1
41
1
41
1
41
1
41
1
41
1
41
1
41
1
41
1
41
1
41
1
41
1
41
1
41
1
41
1
41
1
41
1
41
1
41
1
41
1
41
1
41
1
41
1
41
1
41
1
41
1
41
1
41
1
41
1
41
1
10
-392.16524346664642
20
-467.53609065276663
30
0
10
-392.14492468521985
20
-467.55849167134562
30
0
10
-392.09807602226169
20
-467.60557724185276
30
0
10
-392.00919723895413
20
-467.68406873339296
30
0
10
-391.827028833501
20
-467.70068282758223
30
0
10
-391.42086695640683
20
-467.61905894081644
30
0
10
-390.80055495223485
20
-467.51076272221979
30
0
10
-389.97175410194916
20
-467.3575455437836
30
0
10
-388.9616102997785
20
-467.13523681984748
30
0
10
-387.80533863158291
20
-466.83936260810725
30
0
10
-386.54218601008949
20
-466.48521352537779
30
0
10
-385.21252343620233
20
-466.09647807289628
30
0
10
-383.85451686816168
20
-465.69931949227083
30
0
10
-382.50082780173585
20
-465.31281598026402
30
0
10
-381.17608292222678
20
-464.9476349047103
30
0
10
-379.89485464757109
20
-464.60801816046745
30
0
10
-378.65939313746338
20
-464.29276463638212
30
0
10
-377.45760494423007
20
-463.99662136823986
30
0
10
-376.26046727629358
20
-463.71148242013561
30
0
10
-375.02961736581972
20
-463.42810359590453
30
0
10
-373.72595514398154
20
-463.13789554330975
30
0
10
-372.31721007169307
20
-462.83453277501366
30
0
10
-370.78752563709929
20
-462.51601684089269
30
0
10
-369.1406860750763
20
-462.18523945963523
30
0
10
-367.39328440478585
20
-461.8481462083335
30
0
10
-365.57031563246568
20
-461.5124836273643
30
0
10
-363.69967553908236
20
-461.18627434459722
30
0
10
-361.8074374393089
20
-460.87650150005595
30
0
10
-359.91206103384314
20
-460.58747964015447
30
0
10
-358.02149231191777
20
-460.32009774911955
30
0
10
-356.13614297319435
20
-460.07284694041755
30
0
10
-354.25065144708742
20
-459.84247927864988
30
0
10
-352.35610057469921
20
-459.62480107097963
30
0
10
-350.44208149939266
20
-459.41542954861177
30
0
10
-348.4987099498976
20
-459.21051153382359
30
0
10
-346.51894749652956
20
-459.00759503617991
30
0
10
-344.49908846838048
20
-458.8056212710909
30
0
10
-342.43855119992372
20
-458.60458840302408
30
0
10
-340.33991101124144
20
-458.40532309327534
30
0
10
-338.20881685364259
20
-458.20921105820662
30
0
10
-336.05400918825438
20
-458.01793978301407
30
0
10
-333.88718998182594
20
-457.83325134130359
30
0
10
-331.7232324818583
20
-457.65665404890274
30
0
10
-329.57908269526786
20
-457.48931095383347
30
0
10
-327.47167062471596
20
-457.33206704048428
30
0
10
-325.41608193570994
20
-457.18543514782596
30
0
10
-323.42367697824238
20
-457.04959974626064
30
0
10
-321.50009727705071
20
-456.92440928537707
30
0
10
-319.64361667651235
20
-456.80938044011413
30
0
10
-317.84258701545912
20
-456.70367816574719
30
0
10
-316.07605167637411
20
-456.60617485910609
30
0
10
-314.31828670194938
20
-456.51560693938745
30
0
10
-312.54229662098271
20
-456.4307049636505
30
0
10
-310.7238085884631
20
-456.35033737579113
30
0
10
-308.84487821333897
20
-456.27364160277131
30
0
10
-306.89809445019978
20
-456.20017741628737
30
0
10
-304.88925058159487
20
-456.13002097011275
30
0
10
-302.83356003456572
20
-456.06360720672973
30
0
10
-300.75279079008186
20
-456.00160800897874
30
0
10
-298.67207582294225
20
-455.94479784135814
30
0
10
-296.61681461243114
20
-455.89392245023299
30
0
10
-294.60966121468249
20
-455.84957190578615
30
0
10
-292.6671752731994
20
-455.81203795755027
30
0
10
-290.79751527256212
20
-455.7812191757393
30
0
10
-289.00263042585254
20
-455.75673212473225
30
0
10
-287.27979207352138
20
-455.73799226675391
30
0
10
-285.62338189922309
20
-455.724306649428
30
0
10
-284.02654999520803
20
-455.71496058164053
30
0
10
-282.48296223077938
20
-455.70930857296213
30
0
10
-280.98840567357024
20
-455.70685839589288
30
0
10
-279.54030687022737
20
-455.70725250708909
30
0
10
-278.41794419405375
20
-455.70965419472645
30
0
10
-277.59627745301435
20
-455.71257043922515
30
0
10
-277.05743263181535
20
-455.71500501038764
30
0
10
-276.79024346664636
20
-455.71634489769684
30
0
0
ENDSEC
0
SECTION
2
OBJECTS
0
DICTIONARY
5
C
100
AcDbDictionary
3
ACAD_GROUP
350
D
3
ACAD_MLINESTYLE
350
17
0
DICTIONARY
5
D
100
AcDbDictionary
0
DICTIONARY
5
1A
330
C
100
AcDbDictionary
0
DICTIONARY
5
17
100
AcDbDictionary
0
ENDSEC
0
EOF
