0
SECTION
2
HEADER
9
$INSUNITS
70
4
9
$ACADVER
1
AC1014
9
$HANDSEED
5
FFFF
0
ENDSEC
0
SECTION
2
TABLES
0
TABLE
2
VPORT
5
8
100
AcDbSymbolTable
0
ENDTAB
0
TABLE
2
LTYPE
5
5
100
AcDbSymbolTable
0
LTYPE
5
14
100
AcDbSymbolTableRecord
100
AcDbLinetypeTableRecord
2
BYBLOCK
70
0
0
LTYPE
5
15
100
AcDbSymbolTableRecord
100
AcDbLinetypeTableRecord
2
BYLAYER
70
0
0
ENDTAB
0
TABLE
2
LAYER
5
2
100
AcDbSymbolTable
70
2
0
LAYER
5
50
100
AcDbSymbolTableRecord
100
AcDbLayerTableRecord
2
0
70
0
6
CONTINUOUS
0
ENDTAB
0
TABLE
2
STYLE
5
3
100
AcDbSymbolTable
70
1
0
STYLE
5
11
100
AcDbSymbolTableRecord
100
AcDbTextStyleTableRecord
2
STANDARD
70
0
0
ENDTAB
0
TABLE
2
VIEW
5
6
100
AcDbSymbolTable
70
0
0
ENDTAB
0
TABLE
2
UCS
5
7
100
AcDbSymbolTable
70
0
0
ENDTAB
0
TABLE
2
APPID
5
9
100
AcDbSymbolTable
70
2
0
APPID
5
12
100
AcDbSymbolTableRecord
100
AcDbRegAppTableRecord
2
ACAD
70
0
0
ENDTAB
0
TABLE
2
DIMSTYLE
5
A
100
AcDbSymbolTable
70
1
0
ENDTAB
0
TABLE
2
BLOCK_RECORD
5
1
100
AcDbSymbolTable
70
1
0
BLOCK_RECORD
5
1F
100
AcDbSymbolTableRecord
100
AcDbBlockTableRecord
2
*MODEL_SPACE
0
BLOCK_RECORD
5
1B
100
AcDbSymbolTableRecord
100
AcDbBlockTableRecord
2
*PAPER_SPACE
0
ENDTAB
0
ENDSEC
0
SECTION
2
BLOCKS
0
BLOCK
5
20
100
AcDbEntity
100
AcDbBlockBegin
2
*MODEL_SPACE
0
ENDBLK
5
21
100
AcDbEntity
100
AcDbBlockEnd
0
BLOCK
5
1C
100
AcDbEntity
100
AcDbBlockBegin
2
*PAPER_SPACE
0
ENDBLK
5
1D
100
AcDbEntity
100
AcDbBlockEnd
0
ENDSEC
0
SECTION
2
ENTITIES
0
SPLINE
5
100
100
AcDbEntity
8
0
100
AcDbSpline
70
4
71
5
72
81
73
75
74
0
42
0.000000001
43
0.0000000001
44
0.0000000001
40
0
40
0
40
0
40
0
40
0
40
0
40
0.014285714285714285
40
0.028571428571428571
40
0.042857142857142858
40
0.057142857142857141
40
0.071428571428571425
40
0.085714285714285715
40
0.10000000000000001
40
0.1142857142857143
40
0.12857142857142859
40
0.14285714285714288
40
0.15714285714285717
40
0.17142857142857146
40
0.18571428571428575
40
0.20000000000000004
40
0.21428571428571433
40
0.22857142857142862
40
0.24285714285714291
40
0.25714285714285717
40
0.27142857142857146
40
0.28571428571428575
40
0.30000000000000004
40
0.31428571428571433
40
0.32857142857142863
40
0.34285714285714292
40
0.35714285714285721
40
0.3714285714285715
40
0.38571428571428579
40
0.40000000000000008
40
0.41428571428571437
40
0.42857142857142866
40
0.44285714285714295
40
0.45714285714285724
40
0.47142857142857153
40
0.48571428571428582
40
0.50000000000000011
40
0.51428571428571435
40
0.52857142857142858
40
0.54285714285714282
40
0.55714285714285705
40
0.57142857142857129
40
0.58571428571428552
40
0.59999999999999976
40
0.61428571428571399
40
0.62857142857142823
40
0.64285714285714246
40
0.6571428571428567
40
0.67142857142857093
40
0.68571428571428517
40
0.6999999999999994
40
0.71428571428571364
40
0.72857142857142787
40
0.74285714285714211
40
0.75714285714285634
40
0.77142857142857058
40
0.78571428571428481
40
0.79999999999999905
40
0.81428571428571328
40
0.82857142857142752
40
0.84285714285714175
40
0.85714285714285599
40
0.87142857142857022
40
0.88571428571428445
40
0.89999999999999869
40
0.91428571428571292
40
0.92857142857142716
40
0.94285714285714139
40
0.95714285714285563
40
0.97142857142856986
40
0.9857142857142841
40
1
40
1
40
1
40
1
40
1
40
1
41
1
41
1
41
1
41
1
41
1
41
1
41
1
41
1
41
1
41
1
41
1
41
1
41
1
41
1
41
1
41
1
41
1
41
1
41
1
41
1
41
1
41
1
41
1
41
1
41
1
41
1
41
1
41
1
41
1
41
1
41
1
41
1
41
1
41
1
41
1
41
1
41
1
41
1
41
1
41
1
41
1
41
1
41
1
41
1
41
1
41
1
41
1
41
1
41
1
41
1
41
1
41
1
41
1
41
1
41
1
41
1
41
1
41
1
41
1
41
1
41
1
41
1
41
1
41
1
41
1
41
1
41
1
41
1
41
1
41
1
41
1
41
1
41
1
41
1
41
1
10
-276.79024346664642
20
-11.819745755069739
30
0
10
-277.05743263181535
20
-11.821085642378993
30
0
10
-277.59627745301361
20
-11.823520213541489
30
0
10
-278.41794419405153
20
-11.826436458040559
30
0
10
-279.54030687022464
20
-11.828838145678091
30
0
10
-280.98840567356939
20
-11.829232256874329
30
0
10
-282.48296223077898
20
-11.826782079804827
30
0
10
-284.02654999520854
20
-11.821130071126035
30
0
10
-285.62338189922281
20
-11.811784003338401
30
0
10
-287.27979207352297
20
-11.798098386012363
30
0
10
-289.00263042585919
20
-11.779358528034042
30
0
10
-290.79751527257429
20
-11.754871477027059
30
0
10
-292.66717527321259
20
-11.724052695216242
30
0
10
-294.60966121468834
20
-11.686518746980497
30
0
10
-296.61681461241733
20
-11.642168202533671
30
0
10
-298.67207582290274
20
-11.591292811408456
30
0
10
-300.75279079002212
20
-11.534482643787777
30
0
10
-302.83356003449973
20
-11.47248344603673
30
0
10
-304.88925058153893
20
-11.406069682653763
30
0
10
-306.89809445016846
20
-11.335913236479236
30
0
10
-308.84487821333562
20
-11.262449049995302
30
0
10
-310.72380858848214
20
-11.185753276975474
30
0
10
-312.54229662101295
20
-11.105385689116067
30
0
10
-314.31828670197871
20
-11.020483713378979
30
0
10
-316.07605167639588
20
-10.929915793660376
30
0
10
-317.84258701546997
20
-10.832412487019273
30
0
10
-319.64361667651394
20
-10.726710212652401
30
0
10
-321.50009727704764
20
-10.611681367389602
30
0
10
-323.42367697824022
20
-10.486490906506177
30
0
10
-325.41608193571102
20
-10.350655504941015
30
0
10
-327.47167062472022
20
-10.2040236122828
30
0
10
-329.57908269527331
20
-10.046779698933673
30
0
10
-331.72323248186285
20
-9.879436603864395
30
0
10
-333.88718998182782
20
-9.7028393114632259
30
0
10
-336.05400918825285
20
-9.5181508697523949
30
0
10
-338.20881685363867
20
-9.3268795945594416
30
0
10
-340.33991101123422
20
-9.1307675594904154
30
0
10
-342.43855119991372
20
-8.9315022497415608
30
0
10
-344.499088468369
20
-8.7304693816748458
30
0
10
-346.51894749651836
20
-8.5284956165860919
30
0
10
-348.4987099498918
20
-8.3255791189427928
30
0
10
-350.44208149939448
20
-8.1206611041549177
30
0
10
-352.35610057470922
20
-7.9112895817874671
30
0
10
-354.25065144710288
20
-7.6936113741174363
30
0
10
-356.1361429732122
20
-7.4632437123497217
30
0
10
-358.02149231193414
20
-7.2159929036476287
30
0
10
-359.91206103385451
20
-6.9486110126124734
30
0
10
-361.80743743931231
20
-6.659589152710728
30
0
10
-363.69967553907622
20
-6.3498163081691672
30
0
10
-365.57031563245073
20
-6.0236070254020095
30
0
10
-367.39328440476652
20
-5.6879444444327412
30
0
10
-369.14068607505817
20
-5.3508511931311311
30
0
10
-370.78752563708792
20
-5.0200738118738002
30
0
10
-372.31721007169006
20
-4.7015578777529106
30
0
10
-373.72595514398631
20
-4.3981951094569443
30
0
10
-375.02961736582796
20
-4.1079870568621244
30
0
10
-376.26046727630057
20
-3.8246082326310198
30
0
10
-377.45760494423286
20
-3.5394692845267568
30
0
10
-378.65939313746281
20
-3.2433260163845241
30
0
10
-379.89485464756859
20
-2.9280724922991435
30
0
10
-381.1760829222244
20
-2.5884557480563237
30
0
10
-382.50082780173494
20
-2.223274672502594
30
0
10
-383.8545168681618
20
-1.8367711604957973
30
0
10
-385.21252343620228
20
-1.4396125798703241
30
0
10
-386.54218601008813
20
-1.0508771273888231
30
0
10
-387.80533863158109
20
-0.69672804465933402
30
0
10
-388.96161029977742
20
-0.400853832919145
30
0
10
-389.97175410194893
20
-0.17854510898304027
30
0
10
-390.80055495223644
20
-0.025327930546773722
30
0
10
-391.42086695640717
20
0.08296828804986045
30
0
10
-391.82702883350021
20
0.16459217481565641
30
0
10
-392.00919723895413
20
0.14797808062635082
30
0
10
-392.09807602226181
20
0.06948658908613195
30
0
10
-392.14492468521996
20
0.022401018579017735
30
0
10
-392.16524346664647
20
0
30
0
0
SPLINE
5
101
100
AcDbEntity
8
0
100
AcDbSpline
70
4
71
5
72
136
73
130
74
0
42
0.000000001
43
0.0000000001
44
0.0000000001
40
0
40
0
40
0
40
0
40
0
40
0
40
0.0080000000000000002
40
0.016
40
0.024
40
0.032000000000000001
40
0.040000000000000001
40
0.048000000000000001
40
0.056000000000000001
40
0.064000000000000001
40
0.072000000000000008
40
0.080000000000000016
40
0.088000000000000023
40
0.09600000000000003
40
0.10400000000000004
40
0.11200000000000004
40
0.12000000000000005
40
0.12800000000000006
40
0.13600000000000007
40
0.14400000000000007
40
0.15200000000000008
40
0.16000000000000009
40
0.16800000000000009
40
0.1760000000000001
40
0.18400000000000011
40
0.19200000000000012
40
0.20000000000000012
40
0.20800000000000013
40
0.21600000000000014
40
0.22400000000000014
40
0.23200000000000015
40
0.24000000000000016
40
0.24800000000000016
40
0.25600000000000017
40
0.26400000000000018
40
0.27200000000000019
40
0.28000000000000019
40
0.2880000000000002
40
0.29600000000000021
40
0.30400000000000021
40
0.31200000000000022
40
0.32000000000000023
40
0.32800000000000024
40
0.33600000000000024
40
0.34400000000000025
40
0.35200000000000026
40
0.36000000000000026
40
0.36800000000000027
40
0.37600000000000028
40
0.38400000000000029
40
0.39200000000000029
40
0.4000000000000003
40
0.40800000000000031
40
0.41600000000000031
40
0.42400000000000032
40
0.43200000000000033
40
0.44000000000000034
40
0.44800000000000034
40
0.45600000000000035
40
0.46400000000000036
40
0.47200000000000036
40
0.48000000000000037
40
0.48800000000000038
40
0.49600000000000039
40
0.50400000000000034
40
0.51200000000000034
40
0.52000000000000035
40
0.52800000000000036
40
0.53600000000000037
40
0.54400000000000037
40
0.55200000000000038
40
0.56000000000000039
40
0.56800000000000039
40
0.5760000000000004
40
0.58400000000000041
40
0.59200000000000041
40
0.60000000000000042
40
0.60800000000000043
40
0.61600000000000044
40
0.62400000000000044
40
0.63200000000000045
40
0.64000000000000046
40
0.64800000000000046
40
0.65600000000000047
40
0.66400000000000048
40
0.67200000000000049
40
0.68000000000000049
40
0.6880000000000005
40
0.69600000000000051
40
0.70400000000000051
40
0.71200000000000052
40
0.72000000000000053
40
0.72800000000000054
40
0.73600000000000054
40
0.74400000000000055
40
0.75200000000000056
40
0.76000000000000056
40
0.76800000000000057
40
0.77600000000000058
40
0.78400000000000059
40
0.79200000000000059
40
0.8000000000000006
40
0.80800000000000061
40
0.81600000000000061
40
0.82400000000000062
40
0.83200000000000063
40
0.84000000000000064
40
0.84800000000000064
40
0.85600000000000065
40
0.86400000000000066
40
0.87200000000000066
40
0.88000000000000067
40
0.88800000000000068
40
0.89600000000000068
40
0.90400000000000069
40
0.9120000000000007
40
0.92000000000000071
40
0.92800000000000071
40
0.93600000000000072
40
0.94400000000000073
40
0.95200000000000073
40
0.96000000000000074
40
0.96800000000000075
40
0.97600000000000076
40
0.98400000000000076
40
0.99200000000000077
40
1
40
1
40
1
40
1
40
1
40
1
41
1
41
1
41
1
41
1
41
1
41
1
41
1
41
1
41
1
41
1
41
1
41
1
41
1
41
1
41
1
41
1
41
1
41
1
41
1
41
1
41
1
41
1
41
1
41
1
41
1
41
1
41
1
41
1
41
1
41
1
41
1
41
1
41
1
41
1
41
1
41
1
41
1
41
1
41
1
41
1
41
1
41
1
41
1
41
1
41
1
41
1
41
1
41
1
41
1
41
1
41
1
41
1
41
1
41
1
41
1
41
1
41
1
41
1
41
1
41
1
41
1
41
1
41
1
41
1
41
1
41
1
41
1
41
1
41
1
41
1
41
1
41
1
41
1
41
1
41
1
41
1
41
1
41
1
41
1
41
1
41
1
41
1
41
1
41
1
41
1
41
1
41
1
41
1
41
1
41
1
41
1
41
1
41
1
41
1
41
1
41
1
41
1
41
1
41
1
41
1
41
1
41
1
41
1
41
1
41
1
41
1
41
1
41
1
41
1
41
1
41
1
41
1
41
1
41
1
41
1
41
1
41
1
41
1
41
1
41
1
41
1
41
1
41
1
41
1
41
1
41
1
41
1
41
1
41
1
41
1
10
-392.16524346664642
20
0
30
0
10
-392.2290805753089
20
-0.42484471717781069
30
0
10
-392.3534605511021
20
-1.2625772689926684
30
0
10
-392.5301477164893
20
-2.4833048860427942
30
0
10
-392.74596358612831
20
-4.0391966885408532
30
0
10
-392.98376671701135
20
-5.8718010546322121
30
0
10
-393.19257095195337
20
-7.6142571615744856
30
0
10
-393.37830695806122
20
-9.3106892077886449
30
0
10
-393.5509301411297
20
-11.03512372112962
30
0
10
-393.72223170253312
20
-12.874596040147033
30
0
10
-393.9036096788829
20
-14.91195777388751
30
0
10
-394.10376772992856
20
-17.208117899806126
30
0
10
-394.32668672546981
20
-19.786405095233068
30
0
10
-394.57276771318391
20
-22.64157226215444
30
0
10
-394.83974248922846
20
-25.746994761526743
30
0
10
-395.1236689128117
20
-29.062527953692182
30
0
10
-395.41989492760263
20
-32.542118628942241
30
0
10
-395.72402234891069
20
-36.141421045029574
30
0
10
-396.03290687127441
20
-39.825676702559612
30
0
10
-396.34445274767336
20
-43.56871721756864
30
0
10
-396.65735904033454
20
-47.351609255360572
30
0
10
-396.97088362155625
20
-51.161433018684761
30
0
10
-397.28460085398808
20
-54.990009617997593
30
0
10
-397.59816004960464
20
-58.832646670745596
30
0
10
-397.91104857277793
20
-62.6868917484733
30
0
10
-398.22234121622387
20
-66.551250340602778
30
0
10
-398.53048888317352
20
-70.424015168745896
30
0
10
-398.83357087415646
20
-74.303416569494871
30
0
10
-399.12951486655993
20
-78.187680761179081
30
0
10
-399.41632893784276
20
-82.075123113455447
30
0
10
-399.69232880238974
20
-85.964226543116382
30
0
10
-399.9563664774667
20
-89.853726428413353
30
0
10
-400.20806027684796
20
-93.742692674421193
30
0
10
-400.44802046746724
20
-97.630613482126591
30
0
10
-400.67808846452442
20
-101.51747758007332
30
0
10
-400.90095009687707
20
-105.40392446315866
30
0
10
-401.11973407178971
20
-109.29139801969575
30
0
10
-401.33761744500555
20
-113.18229589789914
30
0
10
-401.55742522436782
20
-117.08012863203122
30
0
10
-401.781239288172
20
-120.98965756469697
30
0
10
-402.00998698269296
20
-124.91708307831694
30
0
10
-402.24307574983976
20
-128.87011607337874
30
0
10
-402.47790769523482
20
-132.85835302628914
30
0
10
-402.71038265048213
20
-136.89113781988263
30
0
10
-402.93558111941229
20
-140.97496007665856
30
0
10
-403.1483800834755
20
-145.11103346577701
30
0
10
-403.34410597597173
20
-149.29275267985847
30
0
10
-403.51915076014495
20
-153.50330012737066
30
0
10
-403.67165318084318
20
-157.7129498499757
30
0
10
-403.80203870221067
20
-161.87704197009384
30
0
10
-403.91389579933247
20
-165.93234722860655
30
0
10
-404.013836716409
20
-169.79830075287052
30
0
10
-404.10865552387588
20
-173.39132739060275
30
0
10
-404.20289448377491
20
-176.63705868301417
30
0
10
-404.29643208964904
20
-179.48276748594486
30
0
10
-404.38163961366769
20
-181.91113378810684
30
0
10
-404.44170134139114
20
-183.95014928125471
30
0
10
-404.44600732310266
20
-185.69284816685916
30
0
10
-404.35618921998196
20
-187.28155294399625
30
0
10
-404.14644788967195
20
-188.84634623301068
30
0
10
-403.81782330576868
20
-190.46065273775355
30
0
10
-403.42061651690847
20
-192.07710804800968
30
0
10
-403.01820983286069
20
-193.59996327869908
30
0
10
-402.65210509244991
20
-194.95837243280957
30
0
10
-402.28961215716924
20
-196.21081407458735
30
0
10
-401.84286813956732
20
-197.51712095343734
30
0
10
-401.24026697274917
20
-199.01083690285861
30
0
10
-400.5044563667343
20
-200.66288996452238
30
0
10
-399.74552652944442
20
-202.29038455907269
30
0
10
-399.07287285581663
20
-203.7061452526433
30
0
10
-398.52903908269184
20
-204.83000390559016
30
0
10
-398.01749249206057
20
-205.81099697445822
30
0
10
-397.39621052151853
20
-206.87465938317899
30
0
10
-396.59043304220586
20
-208.13937371198546
30
0
10
-395.6379136258883
20
-209.54230230916477
30
0
10
-394.61663115334289
20
-210.95631474680272
30
0
10
-393.59866079326963
20
-212.26440161256758
30
0
10
-392.59492961756735
20
-213.44890107392922
30
0
10
-391.58056624516951
20
-214.54942368165172
30
0
10
-390.51488055335039
20
-215.62954187889775
30
0
10
-389.36684817348493
20
-216.73445124461026
30
0
10
-388.11916015113434
20
-217.88395753398007
30
0
10
-386.76430517698486
20
-219.07877955373351
30
0
10
-385.30319741623691
20
-220.30228796306798
30
0
10
-383.74278123342765
20
-221.52498392786839
30
0
10
-382.09424083203533
20
-222.71234043824154
30
0
10
-380.37099675442704
20
-223.83224175205015
30
0
10
-378.58678684220411
20
-224.86280484049931
30
0
10
-376.75373761168572
20
-225.79938804001756
30
0
10
-374.88149859243936
20
-226.64828253040267
30
0
10
-372.97619323039726
20
-227.42081076359381
30
0
10
-371.03969029317102
20
-228.12772344101847
30
0
10
-369.06809628900282
20
-228.77233945899221
30
0
10
-367.05493081342405
20
-229.35156521252321
30
0
10
-364.99620076770941
20
-229.85957400743234
30
0
10
-362.89415781581505
20
-230.29044628165644
30
0
10
-360.7632039043321
20
-230.64159854875129
30
0
10
-358.62952554464869
20
-230.91567822576519
30
0
10
-356.5192389152827
20
-231.11987500764272
30
0
10
-354.44875906645518
20
-231.2658101573449
30
0
10
-352.41485049860887
20
-231.36913560864198
30
0
10
-350.38326594159997
20
-231.44942616405345
30
0
10
-348.30186402616857
20
-231.52716992316442
30
0
10
-346.11711237443865
20
-231.62029396243028
30
0
10
-343.78781566555199
20
-231.7412205039102
30
0
10
-341.30371414994261
20
-231.89282730303032
30
0
10
-338.68827272186337
20
-232.06810658676446
30
0
10
-335.98215400093545
20
-232.25437851364629
30
0
10
-333.23168493492
20
-232.43632655874057
30
0
10
-330.47512621492604
20
-232.59954709850294
30
0
10
-327.73028626240102
20
-232.73379163990535
30
0
10
-324.98044707749091
20
-232.83657935328318
30
0
10
-322.18519096208666
20
-232.91148015227492
30
0
10
-319.29279163293393
20
-232.96607191992666
30
0
10
-316.25187476686182
20
-233.01003816032795
30
0
10
-313.02375017004715
20
-233.05315935101444
30
0
10
-309.59360518756489
20
-233.1034633222564
30
0
10
-305.98443373902768
20
-233.16501075817487
30
0
10
-302.25149886415278
20
-233.23825973941479
30
0
10
-298.47257010160047
20
-233.32099101963863
30
0
10
-294.73956255597687
20
-233.40904432809276
30
0
10
-291.14972953784167
20
-233.49712227676144
30
0
10
-287.79673962976295
20
-233.5795894492145
30
0
10
-284.76252833590814
20
-233.65121535364833
30
0
10
-282.10704013880496
20
-233.70808318879057
30
0
10
-279.86517028785147
20
-233.74792433541259
30
0
10
-278.41671418861148
20
-233.76525038436142
30
0
10
-277.52701051507154
20
-233.7698951236226
30
0
10
-277.02126731543268
20
-233.76928043471145
30
0
10
-276.79024346664642
20
-233.76804532638323
30
0
0
SPLINE
5
102
100
AcDbEntity
8
0
100
AcDbSpline
70
4
71
5
72
136
73
130
74
0
42
0.000000001
43
0.0000000001
44
0.0000000001
40
-1
40
-1
40
-1
40
-1
40
-1
40
-1
40
-0.99200000000000077
40
-0.98400000000000076
40
-0.97600000000000076
40
-0.96800000000000075
40
-0.96000000000000074
40
-0.95200000000000073
40
-0.94400000000000073
40
-0.93600000000000072
40
-0.92800000000000071
40
-0.92000000000000071
40
-0.9120000000000007
40
-0.90400000000000069
40
-0.89600000000000068
40
-0.88800000000000068
40
-0.88000000000000067
40
-0.87200000000000066
40
-0.86400000000000066
40
-0.85600000000000065
40
-0.84800000000000064
40
-0.84000000000000064
40
-0.83200000000000063
40
-0.82400000000000062
40
-0.81600000000000061
40
-0.80800000000000061
40
-0.8000000000000006
40
-0.79200000000000059
40
-0.78400000000000059
40
-0.77600000000000058
40
-0.76800000000000057
40
-0.76000000000000056
40
-0.75200000000000056
40
-0.74400000000000055
40
-0.73600000000000054
40
-0.72800000000000054
40
-0.72000000000000053
40
-0.71200000000000052
40
-0.70400000000000051
40
-0.69600000000000051
40
-0.6880000000000005
40
-0.68000000000000049
40
-0.67200000000000049
40
-0.66400000000000048
40
-0.65600000000000047
40
-0.64800000000000046
40
-0.64000000000000046
40
-0.63200000000000045
40
-0.62400000000000044
40
-0.61600000000000044
40
-0.60800000000000043
40
-0.60000000000000042
40
-0.59200000000000041
40
-0.58400000000000041
40
-0.5760000000000004
40
-0.56800000000000039
40
-0.56000000000000039
40
-0.55200000000000038
40
-0.54400000000000037
40
-0.53600000000000037
40
-0.52800000000000036
40
-0.52000000000000035
40
-0.51200000000000034
40
-0.50400000000000034
40
-0.49600000000000039
40
-0.48800000000000038
40
-0.48000000000000037
40
-0.47200000000000036
40
-0.46400000000000036
40
-0.45600000000000035
40
-0.44800000000000034
40
-0.44000000000000034
40
-0.43200000000000033
40
-0.42400000000000032
40
-0.41600000000000031
40
-0.40800000000000031
40
-0.4000000000000003
40
-0.39200000000000029
40
-0.38400000000000029
40
-0.37600000000000028
40
-0.36800000000000027
40
-0.36000000000000026
40
-0.35200000000000026
40
-0.34400000000000025
40
-0.33600000000000024
40
-0.32800000000000024
40
-0.32000000000000023
40
-0.31200000000000022
40
-0.30400000000000021
40
-0.29600000000000021
40
-0.2880000000000002
40
-0.28000000000000019
40
-0.27200000000000019
40
-0.26400000000000018
40
-0.25600000000000017
40
-0.24800000000000016
40
-0.24000000000000016
40
-0.23200000000000015
40
-0.22400000000000014
40
-0.21600000000000014
40
-0.20800000000000013
40
-0.20000000000000012
40
-0.19200000000000012
40
-0.18400000000000011
40
-0.1760000000000001
40
-0.16800000000000009
40
-0.16000000000000009
40
-0.15200000000000008
40
-0.14400000000000007
40
-0.13600000000000007
40
-0.12800000000000006
40
-0.12000000000000005
40
-0.11200000000000004
40
-0.10400000000000004
40
-0.09600000000000003
40
-0.088000000000000023
40
-0.080000000000000016
40
-0.072000000000000008
40
-0.064000000000000001
40
-0.056000000000000001
40
-0.048000000000000001
40
-0.040000000000000001
40
-0.032000000000000001
40
-0.024
40
-0.016
40
-0.0080000000000000002
40
0
40
0
40
0
40
0
40
0
40
0
41
1
41
1
41
1
41
1
41
1
41
1
41
1
41
1
41
1
41
1
41
1
41
1
41
1
41
1
41
1
41
1
41
1
41
1
41
1
41
1
41
1
41
1
41
1
41
1
41
1
41
1
41
1
41
1
41
1
41
1
41
1
41
1
41
1
41
1
41
1
41
1
41
1
41
1
41
1
41
1
41
1
41
1
41
1
41
1
41
1
41
1
41
1
41
1
41
1
41
1
41
1
41
1
41
1
41
1
41
1
41
1
41
1
41
1
41
1
41
1
41
1
41
1
41
1
41
1
41
1
41
1
41
1
41
1
41
1
41
1
41
1
41
1
41
1
41
1
41
1
41
1
41
1
41
1
41
1
41
1
41
1
41
1
41
1
41
1
41
1
41
1
41
1
41
1
41
1
41
1
41
1
41
1
41
1
41
1
41
1
41
1
41
1
41
1
41
1
41
1
41
1
41
1
41
1
41
1
41
1
41
1
41
1
41
1
41
1
41
1
41
1
41
1
41
1
41
1
41
1
41
1
41
1
41
1
41
1
41
1
41
1
41
1
41
1
41
1
41
1
41
1
41
1
41
1
41
1
41
1
10
-276.79024346664642
20
-233.76804532638323
30
0
10
-276.55921961786009
20
-233.76928043471145
30
0
10
-276.05347641822129
20
-233.7698951236226
30
0
10
-275.1637727446813
20
-233.76525038436142
30
0
10
-273.71531664544131
20
-233.74792433541259
30
0
10
-271.47344679448781
20
-233.70808318879057
30
0
10
-268.81795859738463
20
-233.65121535364833
30
0
10
-265.78374730352982
20
-233.5795894492145
30
0
10
-262.43075739545117
20
-233.49712227676144
30
0
10
-258.8409243773159
20
-233.40904432809276
30
0
10
-255.10791683169231
20
-233.32099101963863
30
0
10
-251.32898806914002
20
-233.23825973941479
30
0
10
-247.59605319426512
20
-233.16501075817487
30
0
10
-243.98688174572794
20
-233.1034633222564
30
0
10
-240.55673676324562
20
-233.05315935101444
30
0
10
-237.32861216643099
20
-233.01003816032795
30
0
10
-234.28769530035891
20
-232.96607191992666
30
0
10
-231.39529597120614
20
-232.91148015227492
30
0
10
-228.60003985580195
20
-232.83657935328318
30
0
10
-225.85020067089178
20
-232.73379163990535
30
0
10
-223.10536071836677
20
-232.59954709850294
30
0
10
-220.34880199837283
20
-232.43632655874057
30
0
10
-217.59833293235738
20
-232.25437851364629
30
0
10
-214.8922142114294
20
-232.06810658676446
30
0
10
-212.27677278335022
20
-231.89282730303032
30
0
10
-209.79267126774084
20
-231.7412205039102
30
0
10
-207.46337455885418
20
-231.62029396243028
30
0
10
-205.27862290712417
20
-231.52716992316442
30
0
10
-203.19722099169286
20
-231.44942616405345
30
0
10
-201.16563643468396
20
-231.36913560864198
30
0
10
-199.13172786683759
20
-231.2658101573449
30
0
10
-197.06124801801008
20
-231.11987500764272
30
0
10
-194.95096138864412
20
-230.91567822576519
30
0
10
-192.81728302896067
20
-230.64159854875129
30
0
10
-190.68632911747778
20
-230.29044628165644
30
0
10
-188.58428616558345
20
-229.85957400743234
30
0
10
-186.52555611986878
20
-229.35156521252321
30
0
10
-184.51239064428995
20
-228.77233945899221
30
0
10
-182.54079664012184
20
-228.12772344101847
30
0
10
-180.60429370289557
20
-227.42081076359381
30
0
10
-178.69898834085345
20
-226.64828253040267
30
0
10
-176.82674932160708
20
-225.79938804001756
30
0
10
-174.99370009108873
20
-224.86280484049931
30
0
10
-173.20949017886576
20
-223.83224175205015
30
0
10
-171.48624610125754
20
-222.71234043824154
30
0
10
-169.83770569986518
20
-221.52498392786839
30
0
10
-168.27728951705586
20
-220.30228796306798
30
0
10
-166.81618175630797
20
-219.07877955373351
30
0
10
-165.46132678215849
20
-217.88395753398007
30
0
10
-164.21363875980791
20
-216.73445124461026
30
0
10
-163.06560637994241
20
-215.62954187889775
30
0
10
-161.99992068812327
20
-214.54942368165172
30
0
10
-160.98555731572543
20
-213.44890107392922
30
0
10
-159.98182614002317
20
-212.26440161256758
30
0
10
-158.96385577994988
20
-210.95631474680272
30
0
10
-157.94257330740447
20
-209.54230230916477
30
0
10
-156.99005389108692
20
-208.13937371198546
30
0
10
-156.18427641177425
20
-206.87465938317899
30
0
10
-155.56299444123229
20
-205.81099697445822
30
0
10
-155.05144785060097
20
-204.83000390559016
30
0
10
-154.50761407747621
20
-203.7061452526433
30
0
10
-153.83496040384844
20
-202.29038455907269
30
0
10
-153.07603056655853
20
-200.66288996452238
30
0
10
-152.34021996054366
20
-199.01083690285861
30
0
10
-151.73761879372546
20
-197.51712095343734
30
0
10
-151.29087477612356
20
-196.21081407458735
30
0
10
-150.92838184084289
20
-194.95837243280957
30
0
10
-150.56227710043208
20
-193.59996327869908
30
0
10
-150.15987041638434
20
-192.07710804800968
30
0
10
-149.76266362752415
20
-190.46065273775355
30
0
10
-149.43403904362086
20
-188.84634623301068
30
0
10
-149.22429771331085
20
-187.28155294399625
30
0
10
-149.1344796101902
20
-185.69284816685916
30
0
10
-149.13878559190164
20
-183.95014928125471
30
0
10
-149.19884731962514
20
-181.91113378810684
30
0
10
-149.28405484364379
20
-179.48276748594486
30
0
10
-149.37759244951795
20
-176.63705868301417
30
0
10
-149.47183140941689
20
-173.39132739060275
30
0
10
-149.5666502168838
20
-169.79830075287052
30
0
10
-149.66659113396037
20
-165.93234722860655
30
0
10
-149.77844823108211
20
-161.87704197009384
30
0
10
-149.90883375244965
20
-157.7129498499757
30
0
10
-150.06133617314785
20
-153.50330012737066
30
0
10
-150.23638095732113
20
-149.29275267985847
30
0
10
-150.4321068498173
20
-145.11103346577701
30
0
10
-150.64490581388048
20
-140.97496007665856
30
0
10
-150.8701042828107
20
-136.89113781988263
30
0
10
-151.10257923805798
20
-132.85835302628914
30
0
10
-151.33741118345304
20
-128.87011607337874
30
0
10
-151.57049995059987
20
-124.91708307831694
30
0
10
-151.7992476451208
20
-120.98965756469697
30
0
10
-152.02306170892501
20
-117.08012863203122
30
0
10
-152.24286948828725
20
-113.18229589789914
30
0
10
-152.46075286150307
20
-109.29139801969575
30
0
10
-152.67953683641574
20
-105.40392446315866
30
0
10
-152.90239846876835
20
-101.51747758007332
30
0
10
-153.13246646582559
20
-97.630613482126591
30
0
10
-153.37242665644479
20
-93.742692674421193
30
0
10
-153.62412045582607
20
-89.853726428413353
30
0
10
-153.88815813090301
20
-85.964226543116382
30
0
10
-154.1641579954501
20
-82.075123113455447
30
0
10
-154.4509720667329
20
-78.187680761179081
30
0
10
-154.74691605913631
20
-74.303416569494871
30
0
10
-155.04999805011926
20
-70.424015168745896
30
0
10
-155.35814571706896
20
-66.551250340602778
30
0
10
-155.66943836051485
20
-62.6868917484733
30
0
10
-155.98232688368819
20
-58.832646670745596
30
0
10
-156.29588607930475
20
-54.990009617997593
30
0
10
-156.60960331173658
20
-51.161433018684761
30
0
10
-156.92312789295829
20
-47.351609255360572
30
0
10
-157.23603418561942
20
-43.56871721756864
30
0
10
-157.54758006201843
20
-39.825676702559612
30
0
10
-157.85646458438211
20
-36.141421045029574
30
0
10
-158.16059200569018
20
-32.542118628942241
30
0
10
-158.45681802048114
20
-29.062527953692182
30
0
10
-158.74074444406435
20
-25.746994761526743
30
0
10
-159.00771922010892
20
-22.64157226215444
30
0
10
-159.25380020782299
20
-19.786405095233068
30
0
10
-159.47671920336424
20
-17.208117899806126
30
0
10
-159.67687725440987
20
-14.91195777388751
30
0
10
-159.85825523075965
20
-12.874596040147033
30
0
10
-160.02955679216316
20
-11.03512372112962
30
0
10
-160.20217997523162
20
-9.3106892077886449
30
0
10
-160.38791598133943
20
-7.6142571615744856
30
0
10
-160.59672021628148
20
-5.8718010546322121
30
0
10
-160.83452334716446
20
-4.0391966885408532
30
0
10
-161.05033921680354
20
-2.4833048860427942
30
0
10
-161.2270263821907
20
-1.2625772689926684
30
0
10
-161.35140635798393
20
-0.42484471717781069
30
0
10
-161.41524346664639
20
0
30
0
0
SPLINE
5
103
100
AcDbEntity
8
0
100
AcDbSpline
70
4
71
5
72
81
73
75
74
0
42
0.000000001
43
0.0000000001
44
0.0000000001
40
-1
40
-1
40
-1
40
-1
40
-1
40
-1
40
-0.9857142857142841
40
-0.97142857142856986
40
-0.95714285714285563
40
-0.94285714285714139
40
-0.92857142857142716
40
-0.91428571428571292
40
-0.89999999999999869
40
-0.88571428571428445
40
-0.87142857142857022
40
-0.85714285714285599
40
-0.84285714285714175
40
-0.82857142857142752
40
-0.81428571428571328
40
-0.79999999999999905
40
-0.78571428571428481
40
-0.77142857142857058
40
-0.75714285714285634
40
-0.74285714285714211
40
-0.72857142857142787
40
-0.71428571428571364
40
-0.6999999999999994
40
-0.68571428571428517
40
-0.67142857142857093
40
-0.6571428571428567
40
-0.64285714285714246
40
-0.62857142857142823
40
-0.61428571428571399
40
-0.59999999999999976
40
-0.58571428571428552
40
-0.57142857142857129
40
-0.55714285714285705
40
-0.54285714285714282
40
-0.52857142857142858
40
-0.51428571428571435
40
-0.50000000000000011
40
-0.48571428571428582
40
-0.47142857142857153
40
-0.45714285714285724
40
-0.44285714285714295
40
-0.42857142857142866
40
-0.41428571428571437
40
-0.40000000000000008
40
-0.38571428571428579
40
-0.3714285714285715
40
-0.35714285714285721
40
-0.34285714285714292
40
-0.32857142857142863
40
-0.31428571428571433
40
-0.30000000000000004
40
-0.28571428571428575
40
-0.27142857142857146
40
-0.25714285714285717
40
-0.24285714285714291
40
-0.22857142857142862
40
-0.21428571428571433
40
-0.20000000000000004
40
-0.18571428571428575
40
-0.17142857142857146
40
-0.15714285714285717
40
-0.14285714285714288
40
-0.12857142857142859
40
-0.1142857142857143
40
-0.10000000000000001
40
-0.085714285714285715
40
-0.071428571428571425
40
-0.057142857142857141
40
-0.042857142857142858
40
-0.028571428571428571
40
-0.014285714285714285
40
0
40
0
40
0
40
0
40
0
40
0
41
1
41
1
41
1
41
1
41
1
41
1
41
1
41
1
41
1
41
1
41
1
41
1
41
1
41
1
41
1
41
1
41
1
41
1
41
1
41
1
41
1
41
1
41
1
41
1
41
1
41
1
41
1
41
1
41
1
41
1
41
1
41
1
41
1
41
1
41
1
41
1
41
1
41
1
41
1
41
1
41
1
41
1
41
1
41
1
41
1
41
1
41
1
41
1
41
1
41
1
41
1
41
1
41
1
41
1
41
1
41
1
41
1
41
1
41
1
41
1
41
1
41
1
41
1
41
1
41
1
41
1
41
1
41
1
41
1
41
1
41
1
41
1
41
1
41
1
41
1
10
-161.41524346664642
20
0
30
0
10
-161.43556224807296
20
0.022401018579015514
30
0
10
-161.48241091103108
20
0.069486589086129993
30
0
10
-161.57128969433873
20
0.14797808062636211
30
0
10
-161.75345809979171
20
0.16459217481566021
30
0
10
-162.15961997688598
20
0.082968288049853595
30
0
10
-162.77993198105798
20
-0.025327930546784151
30
0
10
-163.6087328313437
20
-0.1785451089830436
30
0
10
-164.61887663351428
20
-0.40085383291913979
30
0
10
-165.77514830170992
20
-0.69672804465932725
30
0
10
-167.03830092320331
20
-1.0508771273888173
30
0
10
-168.3679634970905
20
-1.4396125798703243
30
0
10
-169.72597006513109
20
-1.8367711604958057
30
0
10
-171.07965913155692
20
-2.2232746725026113
30
0
10
-172.40440401106605
20
-2.588455748056341
30
0
10
-173.68563228572168
20
-2.9280724922991568
30
0
10
-174.92109379582942
20
-3.2433260163845237
30
0
10
-176.12288198906273
20
-3.5394692845267377
30
0
10
-177.32001965699925
20
-3.8246082326309798
30
0
10
-178.55086956747306
20
-4.1079870568620684
30
0
10
-179.85453178931118
20
-4.3981951094568972
30
0
10
-181.26327686159979
20
-4.7015578777529292
30
0
10
-182.79296129619354
20
-5.0200738118739361
30
0
10
-184.4398008582165
20
-5.3508511931313896
30
0
10
-186.18720252850696
20
-5.6879444444330751
30
0
10
-188.01017130082715
20
-6.0236070254023186
30
0
10
-189.88081139421044
20
-6.3498163081693315
30
0
10
-191.77304949398382
20
-6.6595891527106579
30
0
10
-193.66842589944966
20
-6.948611012612127
30
0
10
-195.55899462137504
20
-7.2159929036470487
30
0
10
-197.44434396009842
20
-7.4632437123490281
30
0
10
-199.32983548620538
20
-7.6936113741167924
30
0
10
-201.22438635859356
20
-7.9112895817870301
30
0
10
-203.13840543390012
20
-8.1206611041548076
30
0
10
-205.08177698339526
20
-8.3255791189430575
30
0
10
-207.06153943676327
20
-8.5284956165867101
30
0
10
-209.08139846491227
20
-8.7304693816757144
30
0
10
-211.14193573336905
20
-8.9315022497425076
30
0
10
-213.24057592205139
20
-9.1307675594912521
30
0
10
-215.37167007965027
20
-9.326879594559994
30
0
10
-217.52647774503845
20
-9.5181508697525494
30
0
10
-219.69329695146689
20
-9.7028393114630003
30
0
10
-221.85725445143436
20
-9.879436603863903
30
0
10
-224.00140423802497
20
-10.04677969893309
30
0
10
-226.10881630857676
20
-10.204023612282295
30
0
10
-228.16440499758286
20
-10.350655504940669
30
0
10
-230.15680995505045
20
-10.486490906505992
30
0
10
-232.08038965624206
20
-10.611681367389547
30
0
10
-233.93687025678048
20
-10.726710212652455
30
0
10
-235.73789991783369
20
-10.832412487019404
30
0
10
-237.50443525691867
20
-10.929915793660554
30
0
10
-239.2622002313434
20
-11.020483713379125
30
0
10
-241.03819031231009
20
-11.105385689116146
30
0
10
-242.85667834482967
20
-11.185753276975483
30
0
10
-244.7356087199538
20
-11.26244904999529
30
0
10
-246.68239248309305
20
-11.335913236479254
30
0
10
-248.69123635169791
20
-11.406069682653824
30
0
10
-250.74692689872705
20
-11.472483446036833
30
0
10
-252.82769614321094
20
-11.534482643787872
30
0
10
-254.90841111035053
20
-11.591292811408477
30
0
10
-256.96367232086163
20
-11.642168202533645
30
0
10
-258.97082571861029
20
-11.686518746980493
30
0
10
-260.91331166009337
20
-11.72405269521632
30
0
10
-262.78297166073065
20
-11.754871477027258
30
0
10
-264.57785650744029
20
-11.779358528034326
30
0
10
-266.30069485977145
20
-11.798098386012688
30
0
10
-267.95710503406968
20
-11.81178400333863
30
0
10
-269.55393693808475
20
-11.82113007112606
30
0
10
-271.0975247025134
20
-11.826782079804481
30
0
10
-272.59208125972253
20
-11.829232256873688
30
0
10
-274.04018006306541
20
-11.828838145677478
30
0
10
-275.16254273923903
20
-11.826436458040206
30
0
10
-275.98420948027842
20
-11.823520213541432
30
0
10
-276.52305430147749
20
-11.821085642378993
30
0
10
-276.79024346664642
20
-11.819745755069739
30
0
0
ENDSEC
0
SECTION
2
OBJECTS
0
DICTIONARY
5
C
100
AcDbDictionary
3
ACAD_GROUP
350
D
3
ACAD_MLINESTYLE
350
17
0
DICTIONARY
5
D
100
AcDbDictionary
0
DICTIONARY
5
1A
330
C
100
AcDbDictionary
0
DICTIONARY
5
17
100
AcDbDictionary
0
ENDSEC
0
EOF
