0
SECTION
2
HEADER
9
$INSUNITS
70
4
9
$ACADVER
1
AC1014
9
$HANDSEED
5
FFFF
0
ENDSEC
0
SECTION
2
TABLES
0
TABLE
2
VPORT
5
8
100
AcDbSymbolTable
0
ENDTAB
0
TABLE
2
LTYPE
5
5
100
AcDbSymbolTable
0
LTYPE
5
14
100
AcDbSymbolTableRecord
100
AcDbLinetypeTableRecord
2
BYBLOCK
70
0
0
LTYPE
5
15
100
AcDbSymbolTableRecord
100
AcDbLinetypeTableRecord
2
BYLAYER
70
0
0
LTYPE
5
16
100
AcDbSymbolTableRecord
100
AcDbLinetypeTableRecord
2
DASHED
70
0
3
Dashed __ __ __ __ __ __ __ __ __ __ __ __ __ _
72
65
73
2
40
0.75
49
0.5
74
0
49
-0.25
74
0
0
ENDTAB
0
TABLE
2
LAYER
5
2
100
AcDbSymbolTable
70
2
0
LAYER
5
50
100
AcDbSymbolTableRecord
100
AcDbLayerTableRecord
2
0
70
0
62
7
6
CONTINUOUS
0
ENDTAB
0
TABLE
2
STYLE
5
3
100
AcDbSymbolTable
70
1
0
STYLE
5
11
100
AcDbSymbolTableRecord
100
AcDbTextStyleTableRecord
2
STANDARD
70
0
0
ENDTAB
0
TABLE
2
VIEW
5
6
100
AcDbSymbolTable
70
0
0
ENDTAB
0
TABLE
2
UCS
5
7
100
AcDbSymbolTable
70
0
0
ENDTAB
0
TABLE
2
APPID
5
9
100
AcDbSymbolTable
70
2
0
APPID
5
12
100
AcDbSymbolTableRecord
100
AcDbRegAppTableRecord
2
ACAD
70
0
0
ENDTAB
0
TABLE
2
DIMSTYLE
5
A
100
AcDbSymbolTable
70
1
0
ENDTAB
0
TABLE
2
BLOCK_RECORD
5
1
100
AcDbSymbolTable
70
1
0
BLOCK_RECORD
5
1F
100
AcDbSymbolTableRecord
100
AcDbBlockTableRecord
2
*MODEL_SPACE
0
BLOCK_RECORD
5
1B
100
AcDbSymbolTableRecord
100
AcDbBlockTableRecord
2
*PAPER_SPACE
0
ENDTAB
0
ENDSEC
0
SECTION
2
BLOCKS
0
BLOCK
5
20
100
AcDbEntity
100
AcDbBlockBegin
2
*MODEL_SPACE
0
ENDBLK
5
21
100
AcDbEntity
100
AcDbBlockEnd
0
BLOCK
5
1C
100
AcDbEntity
100
AcDbBlockBegin
2
*PAPER_SPACE
0
ENDBLK
5
1D
100
AcDbEntity
100
AcDbBlockEnd
0
ENDSEC
0
SECTION
2
ENTITIES
0
SPLINE
5
100
100
AcDbEntity
8
0
100
AcDbSpline
70
0
71
3
72
15
73
11
74
0
42
0.000000001
43
0.0000000001
44
0.0000000001
40
0
40
0
40
0
40
0
40
0.86143425969837473
40
1.7228685193967495
40
2.5843027790951241
40
3.4457370387934989
40
4.3071712984918733
40
5.1686055581902481
40
6.030039817888623
40
6.8914740775869978
40
6.8914740775869978
40
6.8914740775869978
40
6.8914740775869978
10
0.45076685024525887
20
113.06858734752723
30
0
10
3.3222116131663815
20
113.07257538024234
30
0
10
9.0650176972009504
20
112.99399120327121
30
0
10
17.675100383499228
20
112.71262154404528
30
0
10
26.277103642175234
20
112.24169059332215
30
0
10
34.867101111847632
20
111.58862050665101
30
0
10
43.441250925367321
20
110.75236376811952
30
0
10
51.995466019324141
20
109.73232719331627
30
0
10
60.526189504319596
20
108.53133286858957
30
0
10
66.194473654904954
20
107.60659419806301
30
0
10
69.023681995596462
20
107.11588950491887
30
0
0
SPLINE
5
101
100
AcDbEntity
8
0
100
AcDbSpline
70
0
71
3
72
15
73
11
74
0
42
0.000000001
43
0.0000000001
44
0.0000000001
40
0
40
0
40
0
40
0
40
0.95658892557020203
40
1.9131778511404041
40
2.8697667767106063
40
3.8263557022808081
40
4.7829446278510099
40
5.7395335534212117
40
6.6961224789914136
40
7.6527114045616162
40
7.6527114045616162
40
7.6527114045616162
40
7.6527114045616162
10
-75.625486267021813
20
105.91151326626914
30
0
10
-72.492626348742391
20
106.50527115223309
30
0
10
-66.215863028533278
20
107.63526202951044
30
0
10
-56.760317987244271
20
109.08898196553181
30
0
10
-47.274309664527941
20
110.32736521950321
30
0
10
-37.760829689914878
20
111.33435487957642
30
0
10
-28.22636544847456
20
112.11670502464564
30
0
10
-18.676140646241912
20
112.6755174946573
30
0
10
-9.1151561393087412
20
113.00420873720468
30
0
10
-2.7378628457492136
20
113.06918444748747
30
0
10
0.45076685024525887
20
113.06858734752723
30
0
0
SPLINE
5
102
100
AcDbEntity
8
0
100
AcDbSpline
70
0
71
3
72
21
73
17
74
0
42
0.000000001
43
0.0000000001
44
0.0000000001
40
0
40
0
40
0
40
0
40
0.86715486783049212
40
1.7343097356609842
40
2.6014646034914763
40
3.4686194713219685
40
4.3357743391524606
40
5.2029292069829527
40
6.0700840748134448
40
6.2868727917710672
40
6.5036615087286904
40
6.612055867207502
40
6.7204502256863137
40
6.7746474049257195
40
6.8288445841651253
40
6.9372389426439369
40
6.9372389426439369
40
6.9372389426439369
40
6.9372389426439369
10
-121.59013996708524
20
58.612013049732923
30
0
10
-120.9377037661762
20
61.427934045979136
30
0
10
-119.24952593561355
20
66.970690088989556
30
0
10
-115.61913815764328
20
74.867653062458558
30
0
10
-110.95561545889204
20
82.202085333517303
30
0
10
-105.34615744175372
20
88.84077271893716
30
0
10
-98.893626294990952
20
94.664069527006788
30
0
10
-91.712001580016221
20
99.559081394449649
30
0
10
-85.882797275753902
20
102.47677561283535
30
0
10
-81.852672315868759
20
104.07773010391109
30
0
10
-80.152999454651336
20
104.69058893255621
30
0
10
-78.780732764688025
20
105.14445884978811
30
0
10
-77.917626153098794
20
105.41063067207155
30
0
10
-77.227362552022413
20
105.62528357168345
30
0
10
-76.511333723064638
20
105.73620553304751
30
0
10
-75.979537617082869
20
105.83943116132176
30
0
10
-75.625486267021813
20
105.91151326626914
30
0
0
SPLINE
5
103
100
AcDbEntity
8
0
100
AcDbSpline
70
0
71
3
72
16
73
12
74
0
42
0.000000001
43
0.0000000001
44
0.0000000001
40
0
40
0
40
0
40
0
40
0.67164693366682005
40
1.3432938673336401
40
2.0149408010004599
40
2.6865877346672802
40
3.3582346683341004
40
3.6940581351675106
40
4.0298816020009207
40
4.701528535667741
40
5.3731754693345604
40
5.3731754693345604
40
5.3731754693345604
40
5.3731754693345604
10
-122.5406671724113
20
5.0145696241156656
30
0
10
-122.60575623038322
20
7.2524463728118516
30
0
10
-122.73382228080349
20
11.728266656965079
30
0
10
-122.89477697950596
20
18.442818404927298
30
0
10
-123.02868788640376
20
25.157981827695824
30
0
10
-123.13357762093614
20
31.873594737607625
30
0
10
-123.20348386253701
20
37.470356901684042
30
0
10
-123.23726508827293
20
41.94764002463495
30
0
10
-123.28519248408372
20
46.426050112668563
30
0
10
-122.87512690203852
20
52.015831100266332
30
0
10
-122.10716553755972
20
56.433707862827696
30
0
10
-121.59013996708524
20
58.612013049732923
30
0
0
SPLINE
5
104
100
AcDbEntity
8
0
100
AcDbSpline
70
0
71
3
72
11
73
7
74
0
42
0.000000001
43
0.0000000001
44
0.0000000001
40
0
40
0
40
0
40
0
40
1.8670228242316591
40
3.7340456484633182
40
5.6010684726949771
40
7.4680912969266364
40
7.4680912969266364
40
7.4680912969266364
40
7.4680912969266364
10
-118.60107260648937
20
-69.555965239513284
30
0
10
-119.06121493626785
20
-63.349589987248613
30
0
10
-119.94177960936997
20
-50.933801228132332
30
0
10
-121.0254321375329
20
-32.294704327229582
30
0
10
-121.91161501131558
20
-13.645209121472227
30
0
10
-122.34828986090419
20
-1.2058657067590672
30
0
10
-122.5406671724113
20
5.0145696241156656
30
0
0
SPLINE
5
105
100
AcDbEntity
8
0
100
AcDbSpline
70
0
71
3
72
11
73
7
74
0
42
0.000000001
43
0.0000000001
44
0.0000000001
40
0
40
0
40
0
40
0
40
1.0921423708674676
40
2.1842847417349351
40
3.2764271126024029
40
4.3685694834698703
40
4.3685694834698703
40
4.3685694834698703
40
4.3685694834698703
10
-114.73046195406332
20
-113.06858490645652
30
0
10
-115.09577374389659
20
-109.44648573776871
30
0
10
-115.81834120678781
20
-102.20146225469151
30
0
10
-116.82142256296451
20
-91.326112869894899
30
0
10
-117.7514972634057
20
-80.444318934580366
30
0
10
-118.32660930806003
20
-73.186078872640408
30
0
10
-118.60107260648937
20
-69.555965239513284
30
0
0
SPLINE
5
106
100
AcDbEntity
8
0
100
AcDbSpline
70
0
71
3
72
15
73
11
74
0
42
0.000000001
43
0.0000000001
44
0.0000000001
40
0
40
0
40
0
40
0
40
0.55192496920470124
40
1.1038499384094025
40
1.6557749076141037
40
2.207699876818805
40
2.759624846023506
40
3.311549815228207
40
3.863474784432908
40
4.4153997536376099
40
4.4153997536376099
40
4.4153997536376099
40
4.4153997536376099
10
-71.044816795688348
20
-106.71416128881901
30
0
10
-72.873063175012987
20
-106.91957516683607
30
0
10
-76.528948188002502
20
-107.3359152582851
30
0
10
-82.006416544640587
20
-108.01433508544278
30
0
10
-87.477888557053632
20
-108.73926059317881
30
0
10
-92.943181604310581
20
-109.50949652284763
30
0
10
-98.401485844514013
20
-110.32781725432984
30
0
10
-103.85262365328288
20
-111.19248981242276
30
0
10
-109.2963823145536
20
-112.10259718380351
30
0
10
-112.91968827383124
20
-112.74334904777162
30
0
10
-114.73046195406332
20
-113.06858490645652
30
0
0
SPLINE
5
107
100
AcDbEntity
8
0
100
AcDbSpline
70
0
71
3
72
15
73
11
74
0
42
0.000000001
43
0.0000000001
44
0.0000000001
40
0
40
0
40
0
40
0
40
0.90217834923204643
40
1.8043566984640929
40
2.7065350476961392
40
3.6087133969281857
40
4.5108917461602323
40
5.4130700953922783
40
6.3152484446243244
40
7.2174267938563714
40
7.2174267938563714
40
7.2174267938563714
40
7.2174267938563714
10
0.98522120391237422
20
-102.79423172601298
30
0
10
-2.0220374837011224
20
-102.79037233250293
30
0
10
-8.0366153544005847
20
-102.82150106994095
30
0
10
-17.056881863971036
20
-102.99860871122235
30
0
10
-26.073858104153281
20
-103.29885204166445
30
0
10
-35.085769798687835
20
-103.72587658221505
30
0
10
-44.090627038077457
20
-104.28111530276944
30
0
10
-53.087415267490734
20
-104.95592281778471
30
0
10
-62.072604468421211
20
-105.76861819513724
30
0
10
-68.057037177255751
20
-106.37241187649485
30
0
10
-71.044816795688348
20
-106.71416128881901
30
0
0
SPLINE
5
108
100
AcDbEntity
8
0
100
AcDbSpline
70
0
71
3
72
15
73
11
74
0
42
0.000000001
43
0.0000000001
44
0.0000000001
40
0
40
0
40
0
40
0
40
0.90493313222600213
40
1.8098662644520043
40
2.7147993966780062
40
3.6197325289040085
40
4.5246656611300109
40
5.4295987933560133
40
6.3345319255820156
40
7.2394650578080171
40
7.2394650578080171
40
7.2394650578080171
40
7.2394650578080171
10
73.221939504444435
20
-106.95885123387143
30
0
10
70.224365929856091
20
-106.62197483642585
30
0
10
64.22651856773534
20
-105.97176855309634
30
0
10
55.215378039898297
20
-105.13813443467325
30
0
10
46.193865529137511
20
-104.42692751999846
30
0
10
37.163274813254439
20
-103.84100193418035
30
0
10
28.125150195736694
20
-103.38672182283742
30
0
10
19.08176533374192
20
-103.05279605383259
30
0
10
10.03447524323995
20
-102.85075540696337
30
0
10
4.0016647481562542
20
-102.79540927247409
30
0
10
0.98522120391237422
20
-102.79423172601298
30
0
0
SPLINE
5
109
100
AcDbEntity
8
0
100
AcDbSpline
70
0
71
3
72
15
73
11
74
0
42
0.000000001
43
0.0000000001
44
0.0000000001
40
0
40
0
40
0
40
0
40
0.52453951185988923
40
1.0490790237197785
40
1.5736185355796677
40
2.0981580474395569
40
2.6226975592994464
40
3.1472370711593358
40
3.6717765830192253
40
4.1963160948791138
40
4.1963160948791138
40
4.1963160948791138
40
4.1963160948791138
10
114.73045452726637
20
-113.06858490645652
30
0
10
113.00946835431149
20
-112.75981867292845
30
0
10
109.56597364651272
20
-112.15075710767493
30
0
10
104.39314101699125
20
-111.28094767447239
30
0
10
99.213002483499679
20
-110.45588756663777
30
0
10
94.026685275853126
20
-109.67070585009672
30
0
10
88.834367183903638
20
-108.92615318066071
30
0
10
83.635952700443212
20
-108.22519916546855
30
0
10
78.431663546342961
20
-107.56984954864365
30
0
10
74.959813693308121
20
-107.15100559408837
30
0
10
73.221939504444435
20
-106.95885123387143
30
0
0
SPLINE
5
110
100
AcDbEntity
8
0
100
AcDbSpline
70
0
71
3
72
11
73
7
74
0
42
0.000000001
43
0.0000000001
44
0.0000000001
40
0
40
0
40
0
40
0
40
1.1734787063064709
40
2.3469574126129418
40
3.5204361189194127
40
4.6939148252258835
40
4.6939148252258835
40
4.6939148252258835
40
4.6939148252258835
10
118.84216418326218
20
-66.311458355228865
30
0
10
118.55193952367756
20
-70.212272433201591
30
0
10
117.95567147281602
20
-78.012753550925794
30
0
10
116.96473134643213
20
-89.705707641605059
30
0
10
115.89877355651566
20
-101.39206850315476
30
0
10
115.12270054469658
20
-109.17670568354231
30
0
10
114.73045452726637
20
-113.06858490645652
30
0
0
SPLINE
5
111
100
AcDbEntity
8
0
100
AcDbSpline
70
0
71
3
72
11
73
7
74
0
42
0.000000001
43
0.0000000001
44
0.0000000001
40
0
40
0
40
0
40
0
40
2.6442778961849118
40
5.2885557923698236
40
7.9328336885547355
40
10.577111584739647
40
10.577111584739647
40
10.577111584739647
40
10.577111584739647
10
123.21753045939772
20
39.350950140650411
30
0
10
123.1371036413293
20
30.5370574266346
30
0
10
122.82872178497287
20
12.910635831801073
30
0
10
121.94911240440641
20
-13.51828425136185
30
0
10
120.64628081918684
20
-39.929938539031326
30
0
10
119.48202460999684
20
-57.520454323746193
30
0
10
118.84216418326218
20
-66.311458355228865
30
0
0
SPLINE
5
112
100
AcDbEntity
8
0
100
AcDbSpline
70
0
71
3
72
15
73
11
74
0
42
0.000000001
43
0.0000000001
44
0.0000000001
40
0
40
0
40
0
40
0
40
0.50943160190810877
40
1.0188632038162175
40
1.5282948057243262
40
2.0377264076324351
40
2.5471580095405439
40
3.0565896114486528
40
3.5660212133567617
40
4.0754528152648701
40
4.0754528152648701
40
4.0754528152648701
40
4.0754528152648701
10
113.4126749666143
20
78.244215490713032
30
0
10
114.31531788450799
20
76.805883989468413
30
0
10
116.01081120957859
20
73.860280041347892
30
0
10
118.19366241566215
20
69.252608842548796
30
0
10
120.00116286190377
20
64.48544735745304
30
0
10
121.42609083056321
20
59.590306912102228
30
0
10
122.45705952889465
20
54.59755134602738
30
0
10
123.09369436496971
20
49.538731081480599
30
0
10
123.30807742932571
20
44.445299087649069
30
0
10
123.22908316170923
20
41.049016181699912
30
0
10
123.21753045939772
20
39.350950140650411
30
0
0
SPLINE
5
113
100
AcDbEntity
8
0
100
AcDbSpline
70
0
71
3
72
22
73
18
74
0
42
0.000000001
43
0.0000000001
44
0.0000000001
40
0
40
0
40
0
40
0
40
0.34198120288672257
40
0.51297180433008382
40
0.68396240577344514
40
0.76945770649512579
40
0.85495300721680634
40
0.94044830793848699
40
1.0259436086601676
40
1.196934210103529
40
1.3679248115468903
40
2.0518872173203353
40
2.7358496230937805
40
3.4198120288672258
40
4.1037744346406706
40
4.7877368404141158
40
5.4716992461875611
40
5.4716992461875611
40
5.4716992461875611
40
5.4716992461875611
10
69.023681995596462
20
107.11588950491887
30
0
10
70.14633048978385
20
106.91810804885236
30
0
10
71.829974968578057
20
106.62003235263629
30
0
10
74.072378806594514
20
106.20714095047653
30
0
10
75.470750276991339
20
105.93597152498742
30
0
10
76.592541696528244
20
105.72970794710574
30
0
10
77.435666459640501
20
105.58227874474892
30
0
10
78.245164438638241
20
105.30076918917339
30
0
10
79.336168149169097
20
104.97194701652994
30
0
10
80.682482991418368
20
104.50317130311716
30
0
10
83.888276065159545
20
103.31264081567868
30
0
10
88.573429622808334
20
101.20510907753453
30
0
10
94.485643177215351
20
97.747200015098429
30
0
10
99.995376734984404
20
93.678539457600152
30
0
10
105.04279982564998
20
89.047970022392988
30
0
10
109.56116374025434
20
83.901717654168039
30
0
10
112.20809074803695
20
80.179882157216937
30
0
10
113.4126749666143
20
78.244215490713032
30
0
0
ENDSEC
0
SECTION
2
OBJECTS
0
DICTIONARY
5
C
100
AcDbDictionary
3
ACAD_GROUP
350
D
3
ACAD_MLINESTYLE
350
17
0
DICTIONARY
5
D
100
AcDbDictionary
0
DICTIONARY
5
1A
330
C
100
AcDbDictionary
0
DICTIONARY
5
17
100
AcDbDictionary
0
ENDSEC
0
EOF
