0
SECTION
2
HEADER
9
$INSUNITS
70
4
9
$ACADVER
1
AC1014
9
$HANDSEED
5
FFFF
0
ENDSEC
0
SECTION
2
TABLES
0
TABLE
2
VPORT
5
8
100
AcDbSymbolTable
0
ENDTAB
0
TABLE
2
LTYPE
5
5
100
AcDbSymbolTable
0
LTYPE
5
14
100
AcDbSymbolTableRecord
100
AcDbLinetypeTableRecord
2
BYBLOCK
70
0
0
LTYPE
5
15
100
AcDbSymbolTableRecord
100
AcDbLinetypeTableRecord
2
BYLAYER
70
0
0
LTYPE
5
16
100
AcDbSymbolTableRecord
100
AcDbLinetypeTableRecord
2
DASHED
70
0
3
Dashed __ __ __ __ __ __ __ __ __ __ __ __ __ _
72
65
73
2
40
0.75
49
0.5
74
0
49
-0.25
74
0
0
ENDTAB
0
TABLE
2
LAYER
5
2
100
AcDbSymbolTable
70
2
0
LAYER
5
50
100
AcDbSymbolTableRecord
100
AcDbLayerTableRecord
2
0
70
0
62
7
6
CONTINUOUS
0
ENDTAB
0
TABLE
2
STYLE
5
3
100
AcDbSymbolTable
70
1
0
STYLE
5
11
100
AcDbSymbolTableRecord
100
AcDbTextStyleTableRecord
2
STANDARD
70
0
0
ENDTAB
0
TABLE
2
VIEW
5
6
100
AcDbSymbolTable
70
0
0
ENDTAB
0
TABLE
2
UCS
5
7
100
AcDbSymbolTable
70
0
0
ENDTAB
0
TABLE
2
APPID
5
9
100
AcDbSymbolTable
70
2
0
APPID
5
12
100
AcDbSymbolTableRecord
100
AcDbRegAppTableRecord
2
ACAD
70
0
0
ENDTAB
0
TABLE
2
DIMSTYLE
5
A
100
AcDbSymbolTable
70
1
0
ENDTAB
0
TABLE
2
BLOCK_RECORD
5
1
100
AcDbSymbolTable
70
1
0
BLOCK_RECORD
5
1F
100
AcDbSymbolTableRecord
100
AcDbBlockTableRecord
2
*MODEL_SPACE
0
BLOCK_RECORD
5
1B
100
AcDbSymbolTableRecord
100
AcDbBlockTableRecord
2
*PAPER_SPACE
0
ENDTAB
0
ENDSEC
0
SECTION
2
BLOCKS
0
BLOCK
5
20
100
AcDbEntity
100
AcDbBlockBegin
2
*MODEL_SPACE
0
ENDBLK
5
21
100
AcDbEntity
100
AcDbBlockEnd
0
BLOCK
5
1C
100
AcDbEntity
100
AcDbBlockBegin
2
*PAPER_SPACE
0
ENDBLK
5
1D
100
AcDbEntity
100
AcDbBlockEnd
0
ENDSEC
0
SECTION
2
ENTITIES
0
LWPOLYLINE
5
100
100
AcDbEntity
8
0
100
AcDbPolyline
90
1124
70
1
43
0.0
10
-195.47619340650272
20
-139.1491582800831
10
-195.21972163135231
20
-141.9006937013003
10
-194.95862387197008
20
-144.65179055518121
10
-194.69291214389898
20
-147.40242481063899
10
-194.60208665088601
20
-148.33182709725781
10
-194.58843699351561
20
-148.47093104389245
10
-194.56113767877497
20
-148.74911490607471
10
-194.33942687085391
20
-150.98938895307558
10
-194.19406282607673
20
-152.44158753563229
10
-194.04740110260582
20
-153.89365394721094
10
-193.89946573152827
20
-155.34558818781147
10
-191.1632981903962
20
-154.85757689018993
10
-188.42505196024553
20
-154.38134082515899
10
-185.68478711879365
20
-153.91690402380573
10
-182.94253971267096
20
-153.4642664861299
10
-180.19838183513804
20
-153.02342821213173
10
-177.45234352505372
20
-152.59442524844147
10
-174.70447284459169
20
-152.17724557951578
10
-171.95484789478462
20
-151.77188920535446
10
-169.20349871449105
20
-151.37836814150114
10
-166.45047937365661
20
-150.99670641904265
10
-163.6958439422267
20
-150.62690403797913
10
-160.93965249791879
20
-150.2689369672234
10
-158.18192306404799
20
-149.92287730003642
10
-155.42274575719031
20
-149.58866495870095
10
-152.6621506162044
20
-149.26633598984719
10
-149.90018570326407
20
-148.95591442456211
10
-147.1369291194018
20
-148.6573642162154
10
-144.37240489570453
20
-148.37072141143733
10
-141.60666109434604
20
-148.09597399468456
10
-138.83976980858714
20
-147.83314599704394
10
-136.07177309282997
20
-147.58222540297203
10
-133.30271300147652
20
-147.34322422801228
10
-130.53266763555945
20
-147.11614247216474
10
-127.76165501839381
20
-146.90099215097274
10
-124.98974123546867
20
-146.69776124889302
10
-122.21698636450137
20
-146.50648581255575
10
-119.44342945600818
20
-146.32711777978722
10
-116.66913359159211
20
-146.15971722830463
10
-113.89413181399783
20
-146.00427214256462
10
-111.11849621648604
20
-145.86075849148028
10
-108.34225683791541
20
-145.72917627505149
10
-105.56548877543251
20
-145.6095855709957
10
-102.78822657372484
20
-145.50191428605211
10
-100.01052430273795
20
-145.40621048239441
10
-97.232440538246209
20
-145.32247416002278
10
-94.45401282882294
20
-145.25069330339366
10
-91.675311014814497
20
-145.19087992805061
10
-88.89637264479417
20
-145.14301000290658
10
-86.117258547450803
20
-145.10711957459208
10
-83.338015658500879
20
-145.0831966275635
10
-80.558688097518157
20
-145.07124116182098
10
-77.779345517106151
20
-145.07124116182098
10
-75.000025653580991
20
-145.0831966275635
10
-72.220774128459254
20
-145.10711957459208
10
-69.441660782087297
20
-145.14301000290664
10
-66.662714902352306
20
-145.19087992805066
10
-63.884013088343877
20
-145.25069330339366
10
-61.105600398349921
20
-145.32247416002278
10
-58.327509124143511
20
-145.40621048239444
10
-55.549814362871274
20
-145.50191428605214
10
-52.772549157277773
20
-145.60958557099576
10
-49.995769079251446
20
-145.72917627505151
10
-47.219538712338363
20
-145.8607584914804
10
-44.443903114826583
20
-146.00427214256473
10
-41.668910348889852
20
-146.15971722830466
10
-38.894602468930387
20
-146.32711777978724
10
-36.121039552665394
20
-146.50648581255581
10
-33.348290689469842
20
-146.69776124889307
10
-30.576379910430596
20
-146.90099215097277
10
-27.805370297150816
20
-147.11614247216477
10
-25.035318923462
20
-147.3432242280123
10
-22.266258832108612
20
-147.58222540297209
10
-19.498268124123133
20
-147.83314599704397
10
-16.731376838364245
20
-148.09597399468464
10
-13.96563303700578
20
-148.37072141143744
10
-11.20110280553674
20
-148.65736421621546
10
-8.437840213902712
20
-148.95591442456214
10
-5.6758813087340965
20
-149.26633598984722
10
-2.9152921755199035
20
-149.588664958701
10
-0.15610285311876915
20
-149.92287730003653
10
2.601614565208541
20
-150.26893696722342
10
5.3578060095164304
20
-150.62690403797916
10
8.1124414409462986
20
-150.99670641904277
10
10.865472797324255
20
-151.37836814150117
10
13.616809962074377
20
-151.77188920535451
10
16.366446927424935
20
-152.17724557951581
10
19.114305592343438
20
-152.59442524844161
10
21.860343902427779
20
-153.02342821213188
10
24.604513795504097
20
-153.46426648613004
10
27.346749186083397
20
-153.91690402380576
10
30.087026043078726
20
-154.38134082515916
10
32.825260257685891
20
-154.85757689018996
10
35.561439814361428
20
-155.3455881878115
10
35.717365521839817
20
-153.81484399765785
10
35.871873395189937
20
-152.28395562098262
10
36.024939403324879
20
-150.75292305778589
10
36.307460876696197
20
-147.88834540369862
10
36.342125719577837
20
-147.53326206337331
10
36.376718469198728
20
-147.17816670750452
10
36.411227110015389
20
-146.8230713516358
10
36.745499529068233
20
-143.34169980512428
10
37.155878400395729
20
-138.95717392668175
10
37.554530101306405
20
-134.57157265709967
10
37.941442616256829
20
-130.18491401969314
10
38.316639976333903
20
-125.79722805332079
10
38.470631739872928
20
-123.95170659354449
10
38.645548102901834
20
-121.82648335454689
10
38.776751182041679
20
-120.2168011420919
10
38.795639616360553
20
-119.98266025446168
10
38.814492004049043
20
-119.74851335905967
10
38.833320360650625
20
-119.51434844034253
10
38.918871030084709
20
-118.4445565439388
10
38.959111085131724
20
-117.93851592335585
10
38.999182922570306
20
-117.43245727945755
10
39.039098557943902
20
-116.92638662001592
10
39.234423232427112
20
-114.42093553662801
10
39.31493938915154
20
-113.373462512201
10
39.394782675442208
20
-112.32594743337188
10
39.473977122386032
20
-111.27837227682541
10
39.660999056338483
20
-108.76772447089117
10
39.857357067559263
20
-106.07445241991066
10
40.049281343243322
20
-103.38086195702857
10
40.236783898934199
20
-100.68697110555991
10
40.388143699897839
20
-98.464600218314303
10
40.45046832382404
20
-97.536273322835029
10
40.512276279381474
20
-96.607910380725457
10
40.573567566570148
20
-95.679517399757145
10
40.718162616565898
20
-93.456395541045197
10
40.796119462533362
20
-92.238208679026599
10
40.873163127197884
20
-91.019967747062367
10
40.94931764164636
20
-89.801678752924346
10
41.200694826369748
20
-85.672161757216045
10
41.263536118664732
20
-84.612087431585508
10
41.325704540525948
20
-83.551977059324571
10
41.387188076409977
20
-82.49182463266159
10
41.463510808466907
20
-81.158970435519791
10
41.472005797693015
20
-81.009202694064555
10
41.480500786919123
20
-80.85944096038105
10
41.488995776145217
20
-80.709667211154141
10
41.666734509623907
20
-77.51175284486277
10
41.773031207992474
20
-75.545999424829873
10
41.850098903743898
20
-74.091626028906958
10
41.925880936345131
20
-72.637180539723332
10
42.000377305796171
20
-71.18266596116473
10
42.06588604873923
20
-69.882334836282922
10
42.078982991110465
20
-69.619837266087472
10
42.085519446752606
20
-69.488582473218017
10
42.142701418078005
20
-68.330584472275575
10
42.289134846223114
20
-65.287059329440709
10
42.429908953398652
20
-62.243266840763866
10
42.56507180177843
20
-59.199222025674345
10
42.596876945316623
20
-58.463586898717722
10
42.602536266286208
20
-58.332339615562923
10
42.608159540625429
20
-58.201083320750548
10
42.61378281496463
20
-58.069834535652788
10
42.641839108943358
20
-57.410968217804012
10
42.717597110457682
20
-55.600047087196671
10
42.791360531757654
20
-53.789042598756538
10
42.863117357299842
20
-51.977961511226866
10
42.955012233680712
20
-49.581965270014905
10
42.992140262971645
20
-48.586573618714638
10
43.028691546176468
20
-47.591150802098419
10
43.064642052208335
20
-46.595705831823949
10
43.148366359036515
20
-44.208765743266305
10
43.275130342537864
20
-40.389193258219166
10
43.393038870509315
20
-36.569353990558611
10
43.502079927407394
20
-32.749239491855668
10
43.6022535132321
20
-28.928880927426235
10
43.693583659070384
20
-25.108294067670993
10
43.752219511154422
20
-22.434114715248263
10
43.81786042507553
20
-19.172349754609339
10
43.877036976615273
20
-15.910478156022183
10
43.929749165773615
20
-12.648486402000447
10
43.930794518054597
20
-12.579607299116891
10
43.933906543810714
20
-12.372972994352125
10
43.936994538479894
20
-12.166338689587324
10
43.940058502062143
20
-11.959689365393196
10
43.994737072280344
20
-7.9056417536205004
10
44.024035135302995
20
-5.3743004224981838
10
44.046816605702858
20
-3.1113920955048258
10
44.066486050346619
20
-0.84843570633765353
10
44.083043469234291
20
1.4145326983730122
10
44.082911298256214
20
2.2841786834802491
10
44.07099187914406
20
3.1537615869842739
10
44.047261180810864
20
4.0230831524181099
10
44.011743234343577
20
4.8920142126894461
10
43.964438039742163
20
5.7603715307606151
10
43.905369628093581
20
6.6280199317676036
10
43.834525983854348
20
7.4947821864444819
10
43.751931138111374
20
8.3605020927262252
10
43.657609121951609
20
9.2250324602053979
10
43.551571950918486
20
10.088193055730148
10
43.433819625012035
20
10.94983969277898
10
43.304388190862596
20
11.809798145971691
10
43.163301679557115
20
12.667936244330242
10
43.010596137725969
20
13.524073754702748
10
42.846283580912605
20
14.37806649056764
10
42.670412071290883
20
15.229752242088281
10
42.483017655491167
20
16.07896279165616
10
42.284088317969989
20
16.925565968293252
10
42.073708167531606
20
17.769393554391144
10
41.851889219719432
20
18.610277332341383
10
41.618691552250802
20
19.448091138937595
10
41.374151211756072
20
20.282648733256188
10
41.118304244865612
20
21.1138119365474
10
40.851210729296753
20
21.941430554517972
10
40.572918727223318
20
22.765360400646326
10
40.283464285275691
20
23.585433257324127
10
39.982931512258091
20
24.401498930258025
10
39.671344439257446
20
25.213419240698265
10
39.348763143991022
20
26.021031978808189
10
39.01527173526307
20
26.824198965837958
10
38.670906259703948
20
27.622770007494335
10
38.315738810574445
20
28.41659490948409
10
37.949841481135287
20
29.205511461970488
10
37.573262333560351
20
29.989405517290663
10
37.186097492197291
20
30.768120873379665
10
36.788395019219926
20
31.541513343715934
10
36.380239023432509
20
32.309438741777974
10
35.961725629182702
20
33.071752881044283
10
35.532878867557436
20
33.828335606080238
10
35.093818893991305
20
34.579006683733951
10
34.644605786201595
20
35.323663981886035
10
34.185359699622936
20
36.062157306243179
10
33.716116680885655
20
36.794354485827377
10
33.236996885424404
20
37.520123349660572
10
32.748072406499929
20
38.239313703449497
10
32.249427352916413
20
38.951823415074777
10
31.74115784902158
20
39.657478259156171
10
31.223384050250012
20
40.35620013466125
10
30.696154018775541
20
41.047814816209851
10
30.159611941119699
20
41.732220171682499
10
29.613817894999777
20
42.409278022329502
10
29.058904051393828
20
43.078880228259642
10
28.494942503562619
20
43.740888610723175
10
27.922065422484209
20
44.395177006513755
10
27.34036893250628
20
45.041655299055449
10
26.749949157976488
20
45.680149262968058
10
26.150914238785997
20
46.310598820534317
10
25.543384330369399
20
46.932871800776148
10
24.927491603704741
20
47.546830024943752
10
24.303296136509353
20
48.152383376461209
10
23.670954130848166
20
48.749399684350443
10
23.030573726612356
20
49.337806855350721
10
22.382263063693038
20
49.917454695168743
10
21.726166328611761
20
50.488259095000345
10
21.062361622400974
20
51.050117922726066
10
20.391011154897424
20
51.602917030683095
10
19.712223065992212
20
52.146542271208503
10
19.026135534435173
20
52.680933566585047
10
18.332844684573924
20
53.205946730291174
10
17.632494702930046
20
53.721521684609584
10
16.925217760481559
20
54.227538274105704
10
16.211140020434787
20
54.723912389975304
10
15.490411677082999
20
55.210559923414138
10
14.763122847002141
20
55.68740878116148
10
14.029435740028916
20
56.154308768924075
10
13.289500550456577
20
56.611229847843276
10
12.543419410404507
20
57.058069885799661
10
11.791354529709469
20
57.494744773989019
10
11.033420056034293
20
57.92118241915059
10
10.269802230302577
20
58.337304720251886
10
9.5005671380034009
20
58.743015552945224
10
8.7259310589190253
20
59.138266855056791
10
7.9459841096254191
20
59.522956494467117
10
7.1609065232744307
20
59.897048424545872
10
6.3708244630724309
20
60.260446520945379
10
5.5758761077691954
20
60.613102721491785
10
4.7762176594296957
20
60.954932917380887
10
3.9720053201189209
20
61.28587703089535
10
3.1633652530431799
20
61.605886999861355
10
2.3504716835826844
20
61.91491476210507
10
1.5334507749437076
20
62.21286419327879
10
0.71247074473470562
20
62.499723277839088
10
-0.11233022829450157
20
62.775407906981755
10
-0.940789934307249
20
63.039858002989448
10
-1.7727762023254545
20
63.293073565862166
10
-1.773689383628394
20
63.293253799014067
10
-1.7746085727030714
20
63.293434032165962
10
-1.7755337695494866
20
63.293626280861339
10
-3.0791120950513573
20
63.546409284169499
10
-5.0063271649777263
20
63.911994209478706
10
-6.935296504249262
20
64.268219026432689
10
-8.865978058463817
20
64.615011641770678
10
-10.798317757675822
20
64.952432133210024
10
-12.73227955525492
20
65.280456469663747
10
-14.667809381255514
20
65.599036588958043
10
-16.604883204590717
20
65.908208537723269
10
-18.543416916456277
20
66.207936269329053
10
-20.483404509080465
20
66.498255830405796
10
-21.410896248610179
20
66.633588126250004
10
-22.759821310808555
20
66.826616602076399
10
-23.709571920276666
20
66.959676730350694
10
-24.659634933874734
20
67.090489951998023
10
-25.610010351602803
20
67.219056267018331
10
-27.883020746760003
20
67.517185931343974
10
-29.940484307791113
20
67.775736395512894
10
-31.999233531972422
20
68.023677134806761
10
-34.059244388216996
20
68.261044195855959
10
-36.120447787149942
20
68.487789516486657
10
-38.182777643282279
20
68.703937127785807
10
-39.16712969196972
20
68.802804845862212
10
-40.512768844614143
20
68.935047825371569
10
-41.373451428932327
20
69.016949781466295
10
-42.347654099497461
20
69.107334513220806
10
-43.619456600329336
20
69.222431859164942
10
-43.799966109726554
20
69.238364469792714
10
-43.980493642438972
20
69.254237002703164
10
-44.161021175151433
20
69.270013411265936
10
-45.391929493808121
20
69.375413758495682
10
-47.368630579473901
20
69.536734444987545
10
-49.346094652149333
20
69.688334556820365
10
-51.324273649660661
20
69.830214093994215
10
-53.303125517605707
20
69.962337009878652
10
-54.336533510526408
20
70.027147955685706
10
-55.705388874772552
20
70.109195476257895
10
-56.414039317209408
20
70.150218522791846
10
-58.303934627875208
20
70.252692617585751
10
-58.4652192677367
20
70.261031404746902
10
-58.626506911484043
20
70.269298098647269
10
-58.787791551345535
20
70.277492699286881
10
-59.444422978110779
20
70.310186993041114
10
-60.082682638925959
20
70.340946784298325
10
-60.720987358029049
20
70.370709285448342
10
-61.359340139306028
20
70.399438449860838
10
-62.875920845898179
20
70.463623973191275
10
-64.638087568682494
20
70.531068728463424
10
-64.912591670680214
20
70.540885427470101
10
-65.187113795993113
20
70.550521893324898
10
-65.461634419363094
20
70.559954094940878
10
-67.043253691968502
20
70.610644163151989
10
-68.51735984463852
20
70.652305561973222
10
-69.225169225856561
20
70.670400970423771
10
-69.93302441633405
20
70.68725877789791
10
-70.640894626240907
20
70.702842937765354
10
-71.697718747365528
20
70.723834092189691
10
-71.8680218035651
20
70.726958133489234
10
-72.038324859764657
20
70.729998065984589
10
-72.208628666935667
20
70.732977920762607
10
-73.909046217790547
20
70.7586941124042
10
-74.947993502038372
20
70.770007250240837
10
-75.926499829307545
20
70.780032096970942
10
-77.915766712048992
20
70.791133151108255
10
-80.102816595094467
20
70.79198625469391
10
-82.289843479638719
20
70.780992032428159
10
-84.476779027278397
20
70.758126453224065
10
-86.663554242510031
20
70.723401532625132
10
-88.850115806359597
20
70.676793239544395
10
-91.036388246194591
20
70.618349636155727
10
-93.22230848041194
20
70.548034675828717
10
-95.407817182265774
20
70.465848358563377
10
-96.283176558288162
20
70.429609479488505
10
-98.181614401628181
20
70.344443307445133
10
-100.07962268928956
20
70.250337571067632
10
-101.97717438629945
20
70.147292270356033
10
-103.8742184265982
20
70.03529538976683
10
-105.77071125384073
20
69.914346929300024
10
-107.66661381751072
20
69.784470920042594
10
-107.94727588553161
20
69.764477055725408
10
-108.21017898031886
20
69.745576605863064
10
-108.47306405179091
20
69.726495922848841
10
-108.73594311549121
20
69.707259037769632
10
-110.86102314207855
20
69.545293200296754
10
-111.71192045237576
20
69.475677220059652
10
-113.02042479084464
20
69.369141861805005
10
-113.4629133214286
20
69.331407815458221
10
-115.12662017661947
20
69.186096855742392
10
-116.470868112847
20
69.063430172560857
10
-117.81469250116773
20
68.936269676125335
10
-119.15808432992372
20
68.804603350892378
10
-120.03843572042788
20
68.715581575383908
10
-121.4520681510473
20
68.568866356034619
10
-122.00575458046016
20
68.510446547768652
10
-123.74363325433515
20
68.320953695546748
10
-124.68429110129007
20
68.215156835382828
10
-125.62469962571816
20
68.107173146309222
10
-126.56484380819018
20
67.996990612782469
10
-127.06380727367537
20
67.937585765916978
10
-127.20223534599035
20
67.921004315942412
10
-127.34065440664773
20
67.904374803793985
10
-127.47907647119105
20
67.887673198384817
10
-128.77177171820412
20
67.729500584279435
10
-130.81541139648468
20
67.470805933589006
10
-132.85770533389774
20
67.201657760088494
10
-134.89859946049765
20
66.922068079321406
10
-136.78785142086272
20
66.653773009406564
10
-136.91817801299987
20
66.634932637261528
10
-137.04848658182192
20
66.616032187399185
10
-137.17880115841558
20
66.597119721993408
10
-137.81201660719452
20
66.504069715639815
10
-138.70113099729699
20
66.372473775856079
10
-139.42846535263035
20
66.263484126743919
10
-141.33014739270459
20
65.971326187517832
10
-143.23041159865053
20
65.670084497436108
10
-145.12921591606616
20
65.359783087585654
10
-146.45360321961499
20
65.137232860651096
10
-147.53724644823617
20
64.952657027619608
10
-148.48021626029745
20
64.788954257632042
10
-149.66653340634812
20
64.580235379710103
10
-150.14934126111007
20
64.49446202620058
10
-151.29651801650419
20
64.287552035859619
10
-153.0542238070708
20
63.963853295051436
10
-154.8104877324223
20
63.632356466537807
10
-156.56526773815639
20
63.293073565862237
10
-154.41114513776265
20
63.708426872182102
10
-152.2547996618288
20
64.112053008085141
10
-150.09629739584392
20
64.503951973571375
10
-147.93568039420998
20
64.884087722010449
10
-145.77303877350315
20
65.252448237858886
10
-143.6084145881255
20
65.609057552203552
10
-141.44188593910945
20
65.953867602870687
10
-139.27351290417218
20
66.286878389860249
10
-137.10336156880305
20
66.608077897628789
10
-134.93148600294728
20
66.917478141719741
10
-132.75797031540924
20
67.215031059959301
10
-130.58286256836286
20
67.50077269897784
10
-128.40621983563943
20
67.774667012144988
10
-126.22813824158671
20
68.036701983917226
10
-124.04865082894921
20
68.2868896298381
10
-121.86783870264519
20
68.525193903277156
10
-119.68576194039207
20
68.75166286640831
10
-117.50248362379301
20
68.966224425970722
10
-115.31807284222276
20
69.168890597507897
10
-113.13258666951293
20
69.359697427650218
10
-110.94609419503827
20
69.53858483868035
10
-108.75866450817382
20
69.705576861685259
10
-106.57035468275086
20
69.860661481121454
10
-104.38123681203027
20
70.003826681445503
10
-102.19137097372931
20
70.13508447820081
10
-100.00082024945114
20
70.254422855843984
10
-97.809656732456446
20
70.361841814374984
10
-95.617937496576801
20
70.457317322706885
10
-93.42573914090174
20
70.540873411926654
10
-91.233111229547916
20
70.612498066490787
10
-89.040125855776168
20
70.672191286399283
10
-86.846850607018467
20
70.719953071652156
10
-84.653346311963588
20
70.755759391162485
10
-82.459681684500651
20
70.779646291560653
10
-80.265917741061301
20
70.791577726216289
10
-78.072115873562907
20
70.791577726216289
10
-75.878352117866413
20
70.779646291560653
10
-73.684687490403462
20
70.755759391162499
10
-71.491190329577506
20
70.719953071652156
10
-69.297907571105128
20
70.672191286399283
10
-67.104930458019524
20
70.612498066490772
10
-64.912301795694262
20
70.54087341192664
10
-62.720088420589818
20
70.457317322706899
10
-60.528376694424857
20
70.361841814374984
10
-58.337213177430201
20
70.25442285584397
10
-56.146662453152025
20
70.13508447820081
10
-53.956798116793969
20
70.003826681445503
10
-51.767677242187503
20
69.860661481121454
10
-49.579370420650463
20
69.705576861685245
10
-47.391931722128376
20
69.53858483868035
10
-45.205454267083098
20
69.359697427650218
10
-43.019968094373198
20
69.168890597507882
10
-40.835551305031288
20
68.966224425970708
10
-38.652278996203933
20
68.751662866408282
10
-36.470193222293204
20
68.525193903277156
10
-34.289375088217525
20
68.286889629838086
10
-32.109905698895176
20
68.036701983917226
10
-29.931806081527235
20
67.77466701214496
10
-27.755181372119022
20
67.500772698977826
10
-25.580073625072597
20
67.215031059959301
10
-23.40654592199116
20
66.917478141719727
10
-21.234676363907159
20
66.608077897628775
10
-19.06452502853794
20
66.28687838986022
10
-16.896139978057327
20
65.953867602870687
10
-14.729623344584688
20
65.609057552203538
10
-12.564993151435244
20
65.252448237858843
10
-10.402357538500144
20
64.884087722010435
10
-8.2417405368662955
20
64.503951973571375
10
-6.0832262553379302
20
64.112053008085098
10
-3.9268927949475163
20
63.708426872182038
10
-1.7727762023254545
20
63.293073565862166
10
-0.98957304075421249
20
63.055045649922675
10
-0.20948190493906615
20
62.807044832911515
10
0.56738906522884491
20
62.549107161459048
10
1.3408896754562605
20
62.281280697739149
10
2.1109177936237877
20
62.003589472838705
10
2.8773292332098954
20
61.71608154893157
10
4.2034732087170923
20
61.191388364403693
10
4.6148767941799029
20
61.022090296925228
10
5.2238987854282826
20
60.765147408432654
10
5.8847536757196561
20
60.477615453438602
10
6.5423283226465134
20
60.182657892586356
10
7.1965506329480622
20
59.880346819136712
10
7.8473425055918167
20
59.570682233089641
10
8.6340380882921686
20
59.184149727248808
10
9.080585677049875
20
58.956302715372132
10
9.3814751555543108
20
58.80436330478986
10
10.56051229654177
20
58.180477847014025
10
11.306509327789595
20
57.769095677807613
10
12.046979209045912
20
57.347848747420699
10
12.781789769332637
20
56.916809149114016
10
13.510796822128238
20
56.476018937289666
10
14.23389222754162
20
56.025598267382236
10
14.950931799051222
20
55.565607217109054
10
15.661789373450748
20
55.096123887502593
10
16.366350803077321
20
54.617244402910529
10
17.064501940268052
20
54.12904085659364
10
17.661283756615301
20
53.700597812377929
10
17.919643908791173
20
53.510079040036672
10
18.337661868437863
20
53.202347768389828
10
18.613338445360213
20
52.993665064297055
10
19.01253949745854
20
52.691359318650903
10
19.298673706730945
20
52.468986843590642
10
19.678532546917047
20
52.173116056948324
10
19.975393890211155
20
51.936292786265028
10
20.335455032525836
20
51.647928378736374
10
20.643108655752332
20
51.396026267987622
10
20.982959853677588
20
51.11618816829909
10
21.523854615606655
20
50.661138734300557
10
22.184030627692554
20
50.091577943217061
10
22.836390528757825
20
49.513089603342884
10
23.480820171139605
20
48.925787862340961
10
24.117199399403294
20
48.329768844558885
10
24.745420073657748
20
47.725158713203022
10
25.365362038468376
20
47.112059600392769
10
25.976905138400546
20
46.490567630475837
10
26.5799292180197
20
45.860832997745462
10
27.174338152978148
20
45.222945818777582
10
27.760035818928223
20
44.577038264550239
10
28.336878029348377
20
43.923230490498035
10
28.904768659890969
20
43.261624628740385
10
29.46361158620828
20
42.592364865798864
10
30.013298668409188
20
41.915565349336255
10
30.553733782146036
20
41.231352242558955
10
31.084820803071104
20
40.539851708673211
10
31.627663380220593
20
39.811905784903274
10
31.89387656030739
20
39.447158476795501
10
32.050419913709476
20
39.22982185756014
10
32.390069289113896
20
38.752918108640522
10
32.466524192148867
20
38.644117362611645
10
32.542762815401574
20
38.535148398974322
10
32.618785158872001
20
38.426041256587197
10
32.951883412067616
20
37.941229375697745
10
33.104884623511744
20
37.716170087132994
10
33.355391127278622
20
37.342170588094618
10
33.583888722074356
20
36.996043291050135
10
34.31667757409555
20
35.853279098737268
10
34.74350572441957
20
35.161676432732143
10
35.161550512474442
20
34.464714834343937
10
35.570727829455954
20
33.762502443463745
10
35.970977597646801
20
33.055171431069709
10
36.362203692699282
20
32.342817921509422
10
36.744382083526531
20
31.625562070217541
10
37.141953358456135
20
30.855121149733769
10
37.371024662714262
20
30.398137857038456
10
37.490694294506554
20
30.157443016034584
10
37.795658027458586
20
29.529750902234355
10
37.929883663448493
20
29.247734081688375
10
38.062727511940537
20
28.965080437339008
10
38.194189572934675
20
28.68178996918628
10
38.410795509097994
20
28.206282423655988
10
38.548571782083805
20
27.898342502169555
10
38.706086875216563
20
27.542387087526308
10
38.878976765641056
20
27.141461705375374
10
39.029197856651862
20
26.79120971705639
10
39.22644693223009
20
26.316163159392836
10
39.348709092018318
20
26.021160871973883
10
39.921219681048342
20
24.56491632908363
10
40.197288807581693
20
23.822950512666552
10
40.464178058911742
20
23.077632359624218
10
40.721839372864622
20
22.329082025391173
10
40.970212671723033
20
21.577407649858511
10
41.365449869866531
20
20.311571893103455
10
41.478592128870126
20
19.927828838860584
10
41.596285089457623
20
19.526170961647303
10
41.734671620979917
20
19.03440045525242
10
41.808657152793252
20
18.76859119260228
10
41.99236293830846
20
18.083155440758041
10
42.02657119053864
20
17.951975745035192
10
42.060503085269225
20
17.820723956051605
10
42.094170638043721
20
17.68940608157898
10
42.261734801992795
20
17.017435892371331
10
42.317497868520292
20
16.780119517373613
10
42.551217880169233
20
15.776153073152912
10
42.732111886957178
20
14.937618333949079
10
42.901759345066708
20
14.096722540455406
10
43.060124207867432
20
13.253645925823765
10
43.314524026142266
20
11.744789913837401
10
43.369095078488733
20
11.375368071067289
10
43.445118912185421
20
10.870256319341625
10
43.508216754508176
20
10.399113515670813
10
43.564540832958059
20
9.9869649452913301
10
43.679946017243466
20
9.0298279411567783
10
43.729209745428818
20
8.5791008748911146
10
43.775277339053858
20
8.128037373408592
10
43.818148798118571
20
7.6766644716819776
10
43.893640772065737
20
6.7807139383951132
10
43.915605543924883
20
6.4580761925991048
10
43.955000224400848
20
5.9086951125580356
10
43.993263328502337
20
5.2577523361777523
10
44.029658409642209
20
4.4896376933061966
10
44.056825553404913
20
3.7211595802450326
10
44.074788790877371
20
2.9524051096842463
10
44.083536106516149
20
2.1834974409443397
10
44.083043469234291
20
1.4145326983730122
10
44.048354595265721
20
-2.947863552902259
10
44.002082737401849
20
-7.310136644857046
10
43.944263942273096
20
-11.6722895813772
10
43.874898209879412
20
-16.034256276973764
10
43.793985540220831
20
-20.396044241361349
10
43.701513917753871
20
-24.757585887108036
10
43.597495358022009
20
-29.118884218099623
10
43.481905829938306
20
-33.479876152733041
10
43.354793395676637
20
-37.840548549007522
10
43.216109993063114
20
-42.200877047286198
10
43.065891668728156
20
-46.560816448473936
10
42.904126407128274
20
-50.920344364233841
10
42.730790177176587
20
-55.279430333285916
10
42.545931041046892
20
-59.638041688371324
10
42.3495249676523
20
-63.996143884802592
10
42.141583972536253
20
-68.353711389549943
10
41.922084024611834
20
-72.7107186695834
10
41.691049154965953
20
-77.067119164672206
10
41.448479363598629
20
-81.422900859272829
10
41.194374650509857
20
-85.778024702869047
10
40.928735015699658
20
-90.132457652716198
10
40.651560459167982
20
-94.486169669955899
10
40.362850980914871
20
-98.839136723501042
10
40.06260658094029
20
-103.19132276672133
10
39.750863305874667
20
-107.54268574521458
10
39.427573093544112
20
-111.89322565898078
10
39.092759975035584
20
-116.24288243030264
10
38.746447981435949
20
-120.59165605918039
10
38.388601066114902
20
-124.93947445235293
10
38.0192432601593
20
-129.28634361759222
10
37.638374563569201
20
-133.63220948495268
10
37.245994976344548
20
-137.97706003889064
10
36.842104498485369
20
-142.32085322500416
10
36.426715145535134
20
-146.66355299666293
10
35.999814901950359
20
-151.005153346095
10
35.561439814361428
20
-155.3455881878115
10
34.53551666712962
20
-155.16118564233329
10
33.509281115767863
20
-154.97845325739604
10
32.482781222449987
20
-154.79735498636927
10
30.286375924620998
20
-154.41560915510649
10
29.368820963853501
20
-154.25844584665188
10
28.451061738847223
20
-154.10261626352116
10
27.533074218515196
20
-153.94809637462748
10
25.334722402645689
20
-153.58360486377319
10
23.011937618706074
20
-153.20696563848088
10
20.687813101670685
20
-152.83877334024089
10
18.362354859311235
20
-152.47906401568358
10
16.035610953801601
20
-152.12783766480896
10
13.707575377370027
20
-151.78507025652999
10
11.378314215505551
20
-151.45080985302059
10
9.8631113068125522
20
-151.23825772729106
10
9.2104756832182844
20
-151.14778072067733
10
7.7242853172477677
20
-150.94387407444975
10
7.1270347062610817
20
-150.86303349805192
10
6.5297180097853413
20
-150.78275765219672
10
5.9323172045053862
20
-150.7030345213407
10
3.1491508651301281
20
-150.33910774102893
10
2.4804618405029366
20
-150.25348497833409
10
1.8116646759845878
20
-150.16858314824685
10
1.142801425977229
20
-150.08437821968033
10
-0.11083429313380577
20
-149.92846452774532
10
-0.29696106909850251
20
-149.90551483973704
10
-0.48306982174802116
20
-149.8826372449895
10
-0.66919659771270901
20
-149.85980771241583
10
-2.4574584480508044
20
-149.6433967404316
10
-6.0450829126247019
20
-149.22414941675967
10
-8.5707020857099447
20
-148.94127949262807
10
-11.09742068102177
20
-148.66834642293767
10
-13.625208659701489
20
-148.40536222323215
10
-16.153999936260128
20
-148.15233890905475
10
-18.683758464067274
20
-147.90926446486213
10
-21.214472227579499
20
-147.67616292174114
10
-24.107382533145216
20
-147.42197409984814
10
-24.731956489959607
20
-147.36881733558187
10
-25.356578508947834
20
-147.31626134848852
10
-25.981254597881616
20
-147.26433016965504
10
-27.722775922536307
20
-147.12273573817583
10
-29.401971681007897
20
-146.99071221398754
10
-31.711494308853752
20
-146.81633063175471
10
-34.021632733301885
20
-146.65021574342248
10
-36.332344899950222
20
-146.49240359562089
10
-38.643627804912924
20
-146.34288217280658
10
-41.59238140832187
20
-146.16419076637504
10
-43.744850811876326
20
-146.04230133761516
10
-45.863536570721223
20
-145.92935522909258
10
-47.982567776440526
20
-145.82340216686362
10
-50.101953440691886
20
-145.72439408875465
10
-54.020624683652741
20
-145.55970905009394
10
-56.379801544846373
20
-145.47206767609788
10
-58.739298319884611
20
-145.39304144676248
10
-61.099054931050162
20
-145.32265439317473
10
-63.459069876400122
20
-145.26090651533454
10
-65.819284580160073
20
-145.20777378215513
10
-68.179667501528485
20
-145.16325619363644
10
-70.149294467925344
20
-145.13297937415672
10
-71.212419577464416
20
-145.11924980980368
10
-72.566160370825003
20
-145.10361247146494
10
-75.404078341276886
20
-145.08072142561076
10
-76.645388553455376
20
-145.07466559170706
10
-77.886706369219979
20
-145.07101286649515
10
-79.128024052977835
20
-145.06973921888846
10
-80.978555959490009
20
-145.07244760788524
10
-82.605858478328415
20
-145.08089501899406
10
-83.667460264384687
20
-145.08546157097723
10
-86.242510825390525
20
-145.10848934654646
10
-88.963961578698715
20
-145.14403132410067
10
-91.685237355655261
20
-145.19107217674591
10
-94.406299105743884
20
-145.2495638423085
10
-97.077572198592307
20
-145.31814856437728
10
-97.734966612367216
20
-145.33674862565303
10
-98.39233699505526
20
-145.35597349518878
10
-99.049693860256895
20
-145.37590728178873
10
-103.01838130481227
20
-145.51038524419124
10
-103.80527023433982
20
-145.53995549664589
10
-104.59212762306583
20
-145.5704869925774
10
-105.37894746321847
20
-145.60196771644218
10
-108.39638085343024
20
-145.73163946146084
10
-108.98145671500627
20
-145.75841009228938
10
-109.56651755715298
20
-145.78573343811706
10
-110.15154535655519
20
-145.81356143677002
10
-111.58697580049528
20
-145.8842083494778
10
-113.46645056008816
20
-145.98138253227373
10
-114.46502332651954
20
-146.03527224469104
10
-115.46350597637493
20
-146.09069994667135
10
-116.46190451742606
20
-146.14770168484478
10
-120.63760625830811
20
-146.40288779684499
10
-120.77425002241937
20
-146.41169519020107
10
-120.91089078264469
20
-146.42052661464402
10
-121.04753154287002
20
-146.42939408571746
10
-123.22701595162171
20
-146.57478216158148
10
-124.67481684527206
20
-146.67543636914459
10
-126.12237742805328
20
-146.77934678898535
10
-127.56971271939454
20
-146.88652543664713
10
-129.78989076995884
20
-147.05729034029844
10
-130.7168779323423
20
-147.13086151290301
10
-131.64376897037806
20
-147.20579044191862
10
-132.57053985297924
20
-147.28204108071478
10
-134.78878340104649
20
-147.46998821151362
10
-136.25618164607982
20
-147.59856654207744
10
-137.72328551029838
20
-147.73048519372307
10
-139.19008898593057
20
-147.8657441664505
10
-141.04995092699281
20
-148.04212032889757
10
-142.49631596319975
20
-148.18303862259467
10
-143.94236258750499
20
-148.32720111302581
10
-145.38807277659328
20
-148.47463183127812
10
-147.65427636638049
20
-148.71233532754422
10
-148.51636757853737
20
-148.80489105881537
10
-149.37833863525961
20
-148.89860028225868
10
-150.24018352877556
20
-148.9934629978741
10
-152.76339959316877
20
-149.27794300482941
10
-155.31974851865255
20
-149.57642111991532
10
-157.8748778664752
20
-149.88507640031179
10
-160.42876961332141
20
-150.20392086156221
10
-162.98136368147402
20
-150.53295450366659
10
-165.53261801653093
20
-150.87214127999442
10
-168.08250858740507
20
-151.22150522163284
10
-168.47977249304606
20
-151.27686083035229
10
-171.22539626688109
20
-151.66638071823357
10
-173.96934387240336
20
-152.06767583870541
10
-176.71153120080879
20
-152.48075820731142
10
-179.45191018992352
20
-152.90561580850803
10
-182.1904508008889
20
-153.34224864229515
10
-182.60146649601978
20
-153.40882676860619
10
-182.73127041201647
20
-153.42989001629132
10
-182.86108634355662
20
-153.45101334169368
10
-182.99089025955334
20
-153.47214868263958
10
-183.32965649186008
20
-153.52743219809832
10
-185.51905672785205
20
-153.88919618058731
10
-187.70718331623721
20
-154.25850592436902
10
-189.89403625701556
20
-154.63532538281316
10
-190.20050470850236
20
-154.68874648903565
10
-191.43392427574227
20
-154.90530262881236
10
-192.66691128341756
20
-155.12426187728113
10
-193.89946573152827
20
-155.34558818781147
10
-194.33785283466065
20
-151.00515334609494
10
-194.76475307824543
20
-146.6635529966629
10
-195.18014243119566
20
-142.32085322500413
10
-195.58403290905483
20
-137.97706003889056
10
-195.97641249627941
20
-133.63220948495263
10
-196.35726917732612
20
-129.28634361759208
10
-196.72662698328168
20
-124.9394744523529
10
-197.08447389860277
20
-120.59165605918032
10
-197.43080992328927
20
-116.24288243030261
10
-197.76561102625436
20
-111.89322565898074
10
-198.08890123858481
20
-107.54268574521447
10
-198.40065652919407
20
-103.19132276672119
10
-198.70088891362514
20
-98.839136723501014
10
-198.98958637633484
20
-94.486169669955871
10
-199.26676093286645
20
-90.13245765271617
10
-199.53240056767669
20
-85.778024702869004
10
-199.78650528076543
20
-81.422900859272715
10
-200.02907507213274
20
-77.067119164672135
10
-200.26010994177852
20
-72.710718669583301
10
-200.47960988970303
20
-68.3537113895499
10
-200.68756290036248
20
-63.996143884802507
10
-200.88395695821367
20
-59.638041688371253
10
-201.06882810988679
20
-55.279430333285866
10
-201.24215232429506
20
-50.920344364233756
10
-201.40391758589487
20
-46.560816448473844
10
-201.55413591022992
20
-42.200877047286127
10
-201.69281931284337
20
-37.840548549007451
10
-201.81995577819202
20
-33.47987615273297
10
-201.93552127518871
20
-29.118884218099588
10
-202.03955185046402
20
-24.757585887107965
10
-202.13202347293105
20
-20.396044241361295
10
-202.21293614258963
20
-16.034256276973711
10
-202.28231389052672
20
-11.672289581377129
10
-202.34012067011201
20
-7.3101366448569571
10
-202.38638051243237
20
-2.9478635529021702
10
-202.42108140194446
20
1.4145326983730655
10
-202.42091318433603
20
2.2892882933365932
10
-202.408813532072
20
3.1639717950394086
10
-202.38477042960881
20
4.0384059742152978
10
-202.34879589249005
20
4.9124286210277823
10
-202.30091395180261
20
5.7858745217541774
10
-202.22701523844995
20
6.8348553175124849
10
-202.18290976944706
20
7.3744796714981042
10
-202.15523690867272
20
7.6829917664628766
10
-202.10812529826768
20
8.1768651157543459
10
-202.07273049274841
20
8.5249136060515163
10
-202.0179969637943
20
9.0096267080821768
10
-201.98006107684313
20
9.357292610772614
10
-201.905176152168
20
9.9558953740164746
10
-201.87837468111871
20
10.174063903848651
10
-201.77055987902861
20
10.958767241569696
10
-201.74477452276369
20
11.136411043851737
10
-201.71850854476054
20
11.31395872178615
10
-201.6917258983886
20
11.491440314231482
10
-201.62987682057968
20
11.889073134541004
10
-201.60752835580524
20
12.025004407384348
10
-201.5443757562951
20
12.412541064921268
10
-201.44801463039249
20
12.974590936740729
10
-201.29940638888115
20
13.786619387072143
10
-201.1403326090163
20
14.596665272732654
10
-200.97085336851521
20
15.404602430515979
10
-200.81330157720907
20
16.112853657240677
10
-200.7072537445076
20
16.56417186479753
10
-200.62539695043733
20
16.912000959589413
10
-200.54398634942302
20
17.240711537009361
10
-200.43131628119619
20
17.692627326114241
10
-200.34658099059874
20
18.01882169530364
10
-200.22715986892655
20
18.471554542431569
10
-200.13926878265829
20
18.794764324502566
10
-200.01281062670003
20
19.249093006982569
10
-199.92194249176677
20
19.568860718235193
10
-199.78813934149764
20
20.025476377187896
10
-199.69446004771447
20
20.341416474274602
10
-199.45721931224838
20
21.111024330464794
10
-199.25479345158038
20
21.741834354334848
10
-199.04586718190069
20
22.370541658099423
10
-198.83045251875259
20
22.997032094095637
10
-198.60856147767953
20
23.621269615693173
10
-198.35543390248296
20
24.309468433882778
10
-198.17576485352026
20
24.782915217276404
10
-198.10715234675328
20
24.961702762144107
10
-197.88783313432793
20
25.521461728378352
10
-197.6167504583303
20
26.192319558600055
10
-197.3381100054965
20
26.860053347522204
10
-197.05195983800039
20
27.52462104074268
10
-196.75831197138521
20
28.185908490598621
10
-196.35354516286748
20
29.065412711620464
10
-195.76125015954403
20
30.294354002529822
10
-195.37862719360874
20
31.054084799952246
10
-194.98595923334102
20
31.808678952545613
10
-194.58329434091473
20
32.557992273788358
10
-194.17072864067757
20
33.301904608245906
10
-193.74833422589029
20
34.040259753853299
10
-193.3161831898135
20
34.772961586262809
10
-192.8743476257082
20
35.499853903409495
10
-192.42288761129151
20
36.220834573173946
10
-191.96191128645461
20
36.935759409034631
10
-191.49150276000177
20
37.644484224470027
10
-191.01171009410672
20
38.346918902904186
10
-190.5226534442042
20
39.042919257815633
10
-190.02440490355491
20
39.732371141541442
10
-189.51703656541946
20
40.415160406418771
10
-189.00065656968928
20
41.091154881469564
10
-188.4753610407119
20
41.760240419030936
10
-187.94123408729143
20
42.422284848124846
10
-187.39835981823228
20
43.077168013316687
10
-186.84685838896888
20
43.724817821345702
10
-186.28680189276218
20
44.365090085690383
10
-185.71828645395959
20
44.99787065868783
10
-184.9065740235794
20
45.871347599038977
10
-184.51042726582807
20
46.288269117559402
10
-184.32052988340496
20
46.483688317591884
10
-183.93678700177907
20
46.876743578390865
10
-183.72891960272602
20
47.085690372689541
10
-183.36214271656553
20
47.451308089620056
10
-183.13290268744061
20
47.676409897410835
10
-182.78925331434317
20
48.009802314456273
10
-182.53391872496266
20
48.254716042969122
10
-181.88237226657839
20
48.867025847050641
10
-181.341684826429
20
49.362192400802527
10
-180.7953741119403
20
49.851146918585663
10
-180.24351221637318
20
50.333811299367568
10
-179.68615921744481
20
50.810131473202667
10
-179.34654737158945
20
51.095025094662248
10
-179.05643271054046
20
51.334873960459461
10
-178.95022070902888
20
51.422331150041991
10
-178.44538509513356
20
51.831541076080768
10
-178.28769745825275
20
51.957827119593993
10
-177.81703544627788
20
52.329521005526459
10
-177.61717502398739
20
52.48519026028552
10
-177.17442911645838
20
52.825794595532763
10
-176.93929645662456
20
53.003855133407598
10
-176.42670875086475
20
53.387369420991405
10
-176.06566570098352
20
53.652336185367879
10
-175.70277225740932
20
53.914785693389497
10
-175.33805845900099
20
54.174705929512832
10
-174.72410754051486
20
54.603290509245213
10
-174.4644086309699
20
54.78180701234308
10
-174.13006616115462
20
55.007556737957017
10
-173.7712255220768
20
55.248546132440346
10
-173.0386318915472
20
55.727732945012782
10
-172.33112665377297
20
56.177090239324016
10
-171.61780589296427
20
56.617141495225589
10
-170.89879577232722
20
57.047832642771937
10
-170.17422245506827
20
57.46909759647405
10
-169.44420609662211
20
57.880840231984216
10
-168.70886084465133
20
58.283012487128644
10
-167.96831887013434
20
58.675524245331339
10
-167.22271234404894
20
59.058339459961957
10
-166.47216742960148
20
59.431374022216247
10
-165.71679827445502
20
59.794555838833475
10
-164.95675507290252
20
60.147824832096354
10
-164.19215197260718
20
60.491120924287515
10
-163.42313916786202
20
60.824420084320117
10
-162.64981879078647
20
61.147602156759518
10
-161.87234704344561
20
61.460679157149194
10
-161.09084408127393
20
61.763542945598012
10
-160.54632925728322
20
61.967601441514766
10
-159.89442638011872
20
62.20468160818271
10
-159.76358311961272
20
62.251277885719972
10
-159.63265575030246
20
62.297597805757661
10
-159.50161423332949
20
62.343641368295778
10
-158.94578974522128
20
62.535372858014718
10
-158.72642025783881
20
62.608696287862955
10
-158.27583636711418
20
62.758981880651099
10
-157.9280864014151
20
62.86998528161952
10
-156.65441105508501
20
63.266531230359433
10
-156.62470863165234
20
63.275386685889345
10
-156.59498217713258
20
63.284242141419256
10
-156.56526773815639
20
63.293073565862237
10
-157.39724199063122
20
63.039858002989497
10
-158.22570770441556
20
62.775407906981798
10
-159.05050266967311
20
62.499723277839159
10
-159.8714887076539
20
62.212864193278854
10
-160.68850961629281
20
61.91491476210512
10
-161.50140919352509
20
61.605886999861418
10
-162.31003724505734
20
61.285877030895399
10
-163.11425559213978
20
60.95493291738093
10
-163.91390202493591
20
60.613102721491856
10
-164.70886239578255
20
60.260446520945443
10
-165.49894445598454
20
59.897048424545943
10
-166.28402204233561
20
59.522956494467174
10
-167.06396298385749
20
59.138266855056827
10
-167.83861107848531
20
58.743015552945288
10
-168.60782814746921
20
58.33730472025195
10
-169.37147000428786
20
57.921182419150654
10
-170.12938645464794
20
57.494744773989083
10
-170.88144532757121
20
57.058069885799718
10
-171.62752646762328
20
56.611229847843333
10
-172.36747968051071
20
56.154308768924139
10
-173.1011607797123
20
55.687408781161558
10
-173.82843759424964
20
55.210559923414202
10
-174.54917795314492
20
54.723912389975347
10
-175.26325569319164
20
54.227538274105768
10
-175.97052662786851
20
53.721521684609655
10
-176.6708706017406
20
53.205946730291231
10
-177.36416145160192
20
52.680933566585111
10
-178.05025499093063
20
52.146542271208567
10
-178.72905509537929
20
51.602917030683166
10
-179.40039955511111
20
51.05011792272613
10
-180.06419224577849
20
50.488259095000402
10
-180.72030099640315
20
49.9174546951688
10
-181.36859964377896
20
49.33780685535077
10
-182.00898004801488
20
48.749399684350507
10
-182.64133406921951
20
48.152383376461287
10
-183.26551752087141
20
47.54683002494383
10
-183.88142226307949
20
46.932871800776212
10
-184.48895217149612
20
46.310598820534381
10
-185.08798709068662
20
45.680149262968122
10
-185.67839484967294
20
45.04165529905552
10
-186.26010335519439
20
44.395177006513826
10
-186.83298043627281
20
43.74088861072326
10
-187.39694198410399
20
43.078880228259706
10
-187.95185582770989
20
42.409278022329559
10
-188.49763785828634
20
41.732220171682584
10
-189.03419195148564
20
41.047814816209886
10
-189.56140996741675
20
40.356200134661321
10
-190.07919578173181
20
39.657478259156235
10
-190.58745327008319
20
38.951823415074813
10
-191.08609832366668
20
38.239313703449547
10
-191.57502280259109
20
37.520123349660636
10
-192.05415461359578
20
36.794354485827448
10
-192.52339763233309
20
36.062157306243236
10
-192.98265573445519
20
35.323663981886085
10
-193.43185682670145
20
34.579006683734015
10
-193.87091680026757
20
33.828335606080302
10
-194.29975154634946
20
33.071752881044347
10
-194.71828897168615
20
32.309438741778038
10
-195.12643295193001
20
31.541513343715984
10
-195.52412340936399
20
30.768120873379694
10
-195.91130026627047
20
29.989405517290734
10
-196.28786739830196
20
29.205511461970552
10
-196.65377674328468
20
28.416594909484154
10
-197.00894419241416
20
27.622770007494406
10
-197.3532976524298
20
26.824198965838029
10
-197.68680107670122
20
26.02103197880826
10
-198.00937035642414
20
25.213419240698364
10
-198.32095742942477
20
24.401498930258079
10
-198.62150221798595
20
23.58543325732418
10
-198.91095665993348
20
22.765360400646408
10
-199.18924866200689
20
21.941430554518043
10
-199.45634217757578
20
21.113811936547489
10
-199.71217712892275
20
20.282648733256259
10
-199.95672948496099
20
19.448091138937649
10
-200.18992715242968
20
18.610277332341436
10
-200.41173408469831
20
17.769393554391179
10
-200.62211423513668
20
16.925565968293323
10
-200.82104357265791
20
16.078962791656206
10
-201.00845000400108
20
15.22975224208837
10
-201.18432151362276
20
14.378066490567711
10
-201.3486220548927
20
13.524073754702819
10
-201.50133961226737
20
12.667936244330331
10
-201.64242612357276
20
11.809798145971779
10
-201.77185755772223
20
10.949839692779033
10
-201.88959786808516
20
10.088193055730237
10
-201.99563503911827
20
9.2250324602054512
10
-202.08996907082161
20
8.3605020927262608
10
-202.17255190102108
20
7.494782186444553
10
-202.24339554526034
20
6.6280199317676747
10
-202.30247597245238
20
5.7603715307606684
10
-202.34976915151032
20
4.8920142126895172
10
-202.38528709797754
20
4.0230831524181632
10
-202.40901779631082
20
3.1537615869843449
10
-202.42094923096644
20
2.2841786834803024
10
-202.42108140194446
20
1.4145326983730655
10
-202.41593874934375
20
0.66342004949721201
10
-202.41043563043911
20
-0.087680583835165748
10
-202.40459607631755
20
-0.83879022882518584
10
-202.40325033545005
20
-1.0054187816404259
10
-202.39817977611006
20
-1.618517894450644
10
-202.39286890590074
20
-2.2315989839457373
10
-202.3873417559092
20
-2.8446980967559554
10
-202.37274287060552
20
-4.3524054862112393
10
-202.3642839280098
20
-5.1671945076525461
10
-202.3554284724799
20
-5.9819805252079661
10
-202.34616448847234
20
-6.7967545272199459
10
-202.3132659304793
20
-9.4456051140293518
10
-202.30402597755864
20
-10.132786060041248
10
-202.29450966713847
20
-10.819964002167275
10
-202.28470498367523
20
-11.507144948179171
10
-202.2603855237125
20
-13.132021909683154
10
-202.25717737360873
20
-13.338472977410145
10
-202.25394519241803
20
-13.54492404513719
10
-202.25068898014035
20
-13.751390132293544
10
-202.16337202581775
20
-18.778275975756777
10
-202.08242330952879
20
-22.802568351558428
10
-201.99163386314623
20
-26.826632432034323
10
-201.89101570221345
20
-30.850465964270093
10
-201.78055681118721
20
-34.874056181750852
10
-201.68261811644598
20
-38.174166496427432
10
-201.64859009736767
20
-39.27125808305766
10
-201.61382913013838
20
-40.368334650258539
10
-201.57835924584481
20
-41.46538052150072
10
-201.4756503803502
20
-44.520617345965888
10
-201.45070611212753
20
-45.238245866847876
10
-201.42546145531838
20
-45.955866878015229
10
-201.39988036329237
20
-46.673472306524673
10
-201.2795086489117
20
-49.940966428479534
10
-201.24703063493982
20
-50.793123790080976
10
-201.21412006140326
20
-51.645259373509873
10
-201.18078894384558
20
-52.497385945281167
10
-201.05881916218479
20
-55.522531812451263
10
-200.99351468348056
20
-57.088328346763149
10
-200.92670826184383
20
-58.654063301414823
10
-200.85842392836156
20
-60.219736676406264
10
-200.75921158601352
20
-62.435595139096733
10
-200.75273520808878
20
-62.578143040875545
10
-200.74623479907694
20
-62.720690942654294
10
-200.73972237452168
20
-62.863238844433113
10
-200.70476915859706
20
-63.624187717573761
10
-200.65950660638379
20
-64.598223242317161
10
-200.61367932362799
20
-65.572239241802421
10
-200.56727529478599
20
-66.546220696600287
10
-200.34549239360422
20
-71.04296424124297
10
-200.28024799261729
20
-72.320321647029573
10
-200.21401831706663
20
-73.597636998414089
10
-200.1467793358654
20
-74.874889268195446
10
-200.02128899997075
20
-77.210482621463257
10
-199.98945982534565
20
-77.793146362689754
10
-199.95741437093818
20
-78.375804096144392
10
-199.92517666783556
20
-78.958446810169889
10
-199.87742689812606
20
-79.814677441004207
10
-199.86471445314555
20
-80.04116442745044
10
-199.85196596153463
20
-80.26764240223919
10
-199.83920545438031
20
-80.494129388685494
10
-199.74171133474712
20
-82.205341033834316
10
-199.54266184179133
20
-85.606013186583709
10
-199.33657124036813
20
-89.006258787540247
10
-199.12346356156434
20
-92.406077836703986
10
-198.86353130989755
20
-96.408230071737904
10
-198.56653110665712
20
-100.8076071618967
10
-198.25774365528261
20
-105.20616118732849
10
-197.93716895577404
20
-109.60389214803325
10
-197.60484305476169
20
-114.0007219429786
10
-197.42564323960153
20
-116.3087876861799
10
-197.35063020178183
20
-117.262719704772
10
-197.27506444896278
20
-118.21660966896211
10
-197.19893396560124
20
-119.17045157097829
10
-197.01366630099392
20
-121.46325156621387
10
-196.87082552034332
20
-123.20444800006669
10
-196.72613434599981
20
-124.94547020853943
10
-196.57959277796365
20
-126.6863602460339
10
-196.56487373722527
20
-126.85999085680045
10
-196.42042287375114
20
-128.55268054170583
10
-196.27422975647511
20
-130.24522003231806
10
-196.12630640094102
20
-131.93759731309353
10
-195.65092343949578
20
-137.24531944995783
10
-195.63369315017439
20
-137.43419778537483
10
-195.61643882976611
20
-137.62307011302011
10
-195.59914846272733
20
-137.81192441735021
0
ENDSEC
0
SECTION
2
OBJECTS
0
DICTIONARY
5
C
100
AcDbDictionary
3
ACAD_GROUP
350
D
3
ACAD_MLINESTYLE
350
17
0
DICTIONARY
5
D
100
AcDbDictionary
0
DICTIONARY
5
1A
330
C
100
AcDbDictionary
0
DICTIONARY
5
17
100
AcDbDictionary
0
ENDSEC
0
EOF
