0
SECTION
2
HEADER
9
$INSUNITS
70
4
9
$ACADVER
1
AC1014
9
$HANDSEED
5
FFFF
0
ENDSEC
0
SECTION
2
TABLES
0
TABLE
2
VPORT
5
8
100
AcDbSymbolTable
0
ENDTAB
0
TABLE
2
LTYPE
5
5
100
AcDbSymbolTable
0
LTYPE
5
14
100
AcDbSymbolTableRecord
100
AcDbLinetypeTableRecord
2
BYBLOCK
70
0
0
LTYPE
5
15
100
AcDbSymbolTableRecord
100
AcDbLinetypeTableRecord
2
BYLAYER
70
0
0
LTYPE
5
16
100
AcDbSymbolTableRecord
100
AcDbLinetypeTableRecord
2
DASHED
70
0
3
Dashed __ __ __ __ __ __ __ __ __ __ __ __ __ _
72
65
73
2
40
0.75
49
0.5
74
0
49
-0.25
74
0
0
ENDTAB
0
TABLE
2
LAYER
5
2
100
AcDbSymbolTable
70
2
0
LAYER
5
50
100
AcDbSymbolTableRecord
100
AcDbLayerTableRecord
2
0
70
0
62
7
6
CONTINUOUS
0
ENDTAB
0
TABLE
2
STYLE
5
3
100
AcDbSymbolTable
70
1
0
STYLE
5
11
100
AcDbSymbolTableRecord
100
AcDbTextStyleTableRecord
2
STANDARD
70
0
0
ENDTAB
0
TABLE
2
VIEW
5
6
100
AcDbSymbolTable
70
0
0
ENDTAB
0
TABLE
2
UCS
5
7
100
AcDbSymbolTable
70
0
0
ENDTAB
0
TABLE
2
APPID
5
9
100
AcDbSymbolTable
70
2
0
APPID
5
12
100
AcDbSymbolTableRecord
100
AcDbRegAppTableRecord
2
ACAD
70
0
0
ENDTAB
0
TABLE
2
DIMSTYLE
5
A
100
AcDbSymbolTable
70
1
0
ENDTAB
0
TABLE
2
BLOCK_RECORD
5
1
100
AcDbSymbolTable
70
1
0
BLOCK_RECORD
5
1F
100
AcDbSymbolTableRecord
100
AcDbBlockTableRecord
2
*MODEL_SPACE
0
BLOCK_RECORD
5
1B
100
AcDbSymbolTableRecord
100
AcDbBlockTableRecord
2
*PAPER_SPACE
0
ENDTAB
0
ENDSEC
0
SECTION
2
BLOCKS
0
BLOCK
5
20
100
AcDbEntity
100
AcDbBlockBegin
2
*MODEL_SPACE
0
ENDBLK
5
21
100
AcDbEntity
100
AcDbBlockEnd
0
BLOCK
5
1C
100
AcDbEntity
100
AcDbBlockBegin
2
*PAPER_SPACE
0
ENDBLK
5
1D
100
AcDbEntity
100
AcDbBlockEnd
0
ENDSEC
0
SECTION
2
ENTITIES
0
SPLINE
5
100
100
AcDbEntity
8
0
100
AcDbSpline
70
4
71
5
72
51
73
45
74
0
42
0.000000001
43
0.0000000001
44
0.0000000001
40
0
40
0
40
0
40
0
40
0
40
0
40
0.025000000000000001
40
0.050000000000000003
40
0.075000000000000011
40
0.10000000000000001
40
0.125
40
0.14999999999999999
40
0.17499999999999999
40
0.20000000000000001
40
0.22500000000000001
40
0.25
40
0.27500000000000002
40
0.29999999999999999
40
0.32500000000000001
40
0.35000000000000003
40
0.37500000000000011
40
0.40000000000000008
40
0.4250000000000001
40
0.45000000000000012
40
0.4750000000000002
40
0.50000000000000011
40
0.52500000000000013
40
0.55000000000000016
40
0.57500000000000018
40
0.6000000000000002
40
0.62500000000000022
40
0.65000000000000024
40
0.67500000000000016
40
0.70000000000000018
40
0.72500000000000031
40
0.75000000000000033
40
0.77500000000000036
40
0.80000000000000027
40
0.8250000000000004
40
0.85000000000000031
40
0.87500000000000033
40
0.90000000000000036
40
0.92500000000000038
40
0.9500000000000004
40
0.97500000000000042
40
1
40
1
40
1
40
1
40
1
40
1
41
1
41
1
41
1
41
1
41
1
41
1
41
1
41
1
41
1
41
1
41
1
41
1
41
1
41
1
41
1
41
1
41
1
41
1
41
1
41
1
41
1
41
1
41
1
41
1
41
1
41
1
41
1
41
1
41
1
41
1
41
1
41
1
41
1
41
1
41
1
41
1
41
1
41
1
41
1
41
1
41
1
41
1
41
1
41
1
41
1
10
-112.85156329503718
20
260.79403220713232
30
0
10
-111.90661106845815
20
260.7864657436005
30
0
10
-110.02335006119183
20
260.77147192356824
30
0
10
-107.21838890616921
20
260.74939851703613
30
0
10
-103.51834182538333
20
260.7208027843746
30
0
10
-98.960436005988157
20
260.68641670615165
30
0
10
-94.471225867767828
20
260.65327852175778
30
0
10
-90.05349598704818
20
260.62116069039058
30
0
10
-85.711602409651817
20
260.58967583371344
30
0
10
-81.451852568903732
20
260.55823907605924
30
0
10
-77.282773305940594
20
260.52601610993827
30
0
10
-73.215654435534745
20
260.49190309144007
30
0
10
-69.264278358998709
20
260.45440840584342
30
0
10
-65.442136729698831
20
260.41124084062068
30
0
10
-61.760028829879147
20
260.35893421024832
30
0
10
-58.223582136149581
20
260.29247722754025
30
0
10
-54.830572407243814
20
260.20488107605831
30
0
10
-51.568769260311463
20
260.086894033249
30
0
10
-48.412273151414738
20
259.92631797858968
30
0
10
-45.325861411904896
20
259.70944623967341
30
0
10
-42.272113611746491
20
259.42322270366134
30
0
10
-39.217782305060929
20
259.05724772821611
30
0
10
-36.140089170805048
20
258.60568462581369
30
0
10
-33.034037429076648
20
258.06965424712109
30
0
10
-29.916390255453535
20
257.45812722439473
30
0
10
-26.818330484304038
20
256.78371669830227
30
0
10
-23.780139545394192
20
256.0594148565537
30
0
10
-20.845008649436494
20
255.29482935883436
30
0
10
-18.053507761980025
20
254.49294739367505
30
0
10
-15.437061248413624
20
253.64581988423734
30
0
10
-13.016835542355309
20
252.7367113620011
30
0
10
-10.803868003732102
20
251.74389125672724
30
0
10
-8.7989281541171849
20
250.64390197375718
30
0
10
-6.9919603448488665
20
249.41491697499558
30
0
10
-5.3631373894666901
20
248.04051410216121
30
0
10
-3.891477632906355
20
246.5169717705171
30
0
10
-2.5614022941545933
20
244.85877010796435
30
0
10
-1.3719781401918674
20
243.10768054416616
30
0
10
-0.3384526282742506
20
241.33051967853294
30
0
10
0.5178013257745917
20
239.59907019716582
30
0
10
1.1760066463765995
20
237.9755901390989
30
0
10
1.5355221883083203
20
236.78944971656625
30
0
10
1.7098820875012599
20
235.96773359939488
30
0
10
1.7838077715785694
20
235.45009430469887
30
0
10
1.8101927483310121
20
235.19881583808069
30
0
0
SPLINE
5
101
100
AcDbEntity
8
0
100
AcDbSpline
70
4
71
5
72
31
73
25
74
0
42
0.000000001
43
0.0000000001
44
0.0000000001
40
0
40
0
40
0
40
0
40
0
40
0
40
0.050000000000000003
40
0.10000000000000001
40
0.15000000000000002
40
0.20000000000000001
40
0.25
40
0.29999999999999999
40
0.34999999999999998
40
0.40000000000000002
40
0.45000000000000001
40
0.5
40
0.54999999999999993
40
0.59999999999999998
40
0.65000000000000002
40
0.70000000000000007
40
0.75000000000000022
40
0.80000000000000016
40
0.8500000000000002
40
0.90000000000000024
40
0.9500000000000004
40
1
40
1
40
1
40
1
40
1
40
1
41
1
41
1
41
1
41
1
41
1
41
1
41
1
41
1
41
1
41
1
41
1
41
1
41
1
41
1
41
1
41
1
41
1
41
1
41
1
41
1
41
1
41
1
41
1
41
1
41
1
10
1.8101927483310476
20
85.373496677877426
30
0
10
1.7917537035252096
20
85.272278759988964
30
0
10
1.7546410095937937
20
85.073498650745933
30
0
10
1.6982680605148026
20
84.78629540811508
30
0
10
1.6216914074315802
20
84.42538334814644
30
0
10
1.5232478799826765
20
84.010983690127986
30
0
10
1.421047820840613
20
83.632528794758798
30
0
10
1.3130308801905777
20
83.287617811496546
30
0
10
1.1958405802676175
20
82.971666081195465
30
0
10
1.0642935327214964
20
82.676660069107896
30
0
10
0.91203364843257972
20
82.392798298974611
30
0
10
0.73276903521103165
20
82.111547140412853
30
0
10
0.52131928239758096
20
81.82816949248388
30
0
10
0.27483177501339995
20
81.544687583116087
30
0
10
-0.0061442428499880464
20
81.272285520684306
30
0
10
-0.3186392581560149
20
81.026593615128576
30
0
10
-0.65806249203193445
20
80.82340996373992
30
0
10
-1.018998275745151
20
80.674360987705001
30
0
10
-1.3959675843302755
20
80.582250749605834
30
0
10
-1.7841340097639247
20
80.537060688744461
30
0
10
-2.1794335546156596
20
80.521813576608153
30
0
10
-2.4988828974301569
20
80.51846562300797
30
0
10
-2.7393676663324129
20
80.513952166476969
30
0
10
-2.8999918413592951
20
80.509125764447646
30
0
10
-2.9803791727101903
20
80.506258219716955
30
0
0
LINE
5
102
100
AcDbEntity
8
0
100
AcDbLine
10
-56.514195744682574
20
80.506258219716941
30
0
11
-2.9803791727101903
21
80.506258219716955
31
0
0
LINE
5
103
100
AcDbEntity
8
0
100
AcDbLine
10
-56.413724868813695
20
78.068370197995705
30
0
11
-56.514195744682574
21
80.506258219716941
31
0
0
LINE
5
104
100
AcDbEntity
8
0
100
AcDbLine
10
-56.413724868813695
20
78.068370197995705
30
0
11
-12.426162750202199
21
77.061200719178586
31
0
0
SPLINE
5
105
100
AcDbEntity
8
0
100
AcDbSpline
70
4
71
5
72
56
73
50
74
0
42
0.000000001
43
0.0000000001
44
0.0000000001
40
0
40
0
40
0
40
0
40
0
40
0
40
0.022222222222222227
40
0.044444444444444453
40
0.066666666666666666
40
0.088888888888888906
40
0.11111111111111112
40
0.13333333333333333
40
0.15555555555555556
40
0.17777777777777778
40
0.20000000000000001
40
0.22222222222222224
40
0.24444444444444449
40
0.26666666666666666
40
0.28888888888888892
40
0.31111111111111106
40
0.33333333333333331
40
0.35555555555555546
40
0.37777777777777771
40
0.39999999999999991
40
0.42222222222222211
40
0.44444444444444425
40
0.46666666666666651
40
0.48888888888888871
40
0.51111111111111085
40
0.5333333333333331
40
0.55555555555555536
40
0.57777777777777761
40
0.59999999999999987
40
0.62222222222222212
40
0.64444444444444438
40
0.66666666666666663
40
0.68888888888888888
40
0.71111111111111125
40
0.73333333333333339
40
0.75555555555555554
40
0.7777777777777779
40
0.80000000000000016
40
0.82222222222222241
40
0.84444444444444455
40
0.86666666666666692
40
0.88888888888888906
40
0.91111111111111143
40
0.93333333333333379
40
0.95555555555555605
40
0.97777777777777797
40
1
40
1
40
1
40
1
40
1
40
1
41
1
41
1
41
1
41
1
41
1
41
1
41
1
41
1
41
1
41
1
41
1
41
1
41
1
41
1
41
1
41
1
41
1
41
1
41
1
41
1
41
1
41
1
41
1
41
1
41
1
41
1
41
1
41
1
41
1
41
1
41
1
41
1
41
1
41
1
41
1
41
1
41
1
41
1
41
1
41
1
41
1
41
1
41
1
41
1
41
1
41
1
41
1
41
1
41
1
41
1
10
-12.426162750202199
20
77.061200719178586
30
0
10
-12.308906103388342
20
77.064649091346212
30
0
10
-12.078521394980157
20
77.05532719617409
30
0
10
-11.745307360756225
20
76.992669441639691
30
0
10
-11.325965230321717
20
76.811862544825132
30
0
10
-10.854790116944084
20
76.432615737189195
30
0
10
-10.474532756243224
20
75.930714044899617
30
0
10
-10.251787521093707
20
75.360361929963062
30
0
10
-10.248611871175513
20
74.772480423355475
30
0
10
-10.488158150070959
20
74.186110461289147
30
0
10
-10.942522152519576
20
73.580602957956103
30
0
10
-11.559605398141635
20
72.92376162245742
30
0
10
-12.280452700440616
20
72.191267229915354
30
0
10
-13.060404543901516
20
71.389645754318551
30
0
10
-13.867323189792238
20
70.544955985369867
30
0
10
-14.680547647082065
20
69.692136642367601
30
0
10
-15.489568461665133
20
68.864162769529642
30
0
10
-16.292870643388504
20
68.081171033403194
30
0
10
-17.096704325077425
20
67.339894478354267
30
0
10
-17.912190485838302
20
66.622012017586414
30
0
10
-18.75244078779664
20
65.902144642092708
30
0
10
-19.629720788546301
20
65.155841513625333
30
0
10
-20.552502964767871
20
64.367821642740509
30
0
10
-21.522814537467987
20
63.539398169635497
30
0
10
-22.538093809012754
20
62.683111677705412
30
0
10
-23.592752995054376
20
61.81820409557433
30
0
10
-24.679875872962445
20
60.965672626001783
30
0
10
-25.792765543396197
20
60.14380826674612
30
0
10
-26.92675795672006
20
59.362811569443025
30
0
10
-28.080265459665199
20
58.62208038104194
30
0
10
-29.253905988783515
20
57.914181258593338
30
0
10
-30.45000935660342
20
57.22748696563373
30
0
10
-31.671970819712669
20
56.549386097665675
30
0
10
-32.923692629974241
20
55.869101016129349
30
0
10
-34.208942417904787
20
55.181012202410606
30
0
10
-35.53089120405496
20
54.486736910842097
30
0
10
-36.892222352746067
20
53.793095818177136
30
0
10
-38.29514561062463
20
53.11075280400388
30
0
10
-39.741445490941686
20
52.452626099052239
30
0
10
-41.232510852160004
20
51.83235732932657
30
0
10
-42.769371342764842
20
51.26287229197311
30
0
10
-44.352722625763164
20
50.754618240535869
30
0
10
-45.982974037299741
20
50.31508808154971
30
0
10
-47.660314381432897
20
49.949496390620226
30
0
10
-49.384770184564587
20
49.661122736156322
30
0
10
-51.156264408008134
20
49.451781458427675
30
0
10
-52.610990875706428
20
49.348138953029576
30
0
10
-53.723094245506175
20
49.306367435648099
30
0
10
-54.473848308888009
20
49.294489222143199
30
0
10
-54.85156329503711
20
49.29254248589173
30
0
0
LINE
5
106
100
AcDbEntity
8
0
100
AcDbLine
10
1.8101927483310121
20
235.19881583808069
30
0
11
1.8101927483310476
21
85.373496677877398
31
0
0
LINE
5
107
100
AcDbEntity
8
0
100
AcDbLine
10
-112.85156329503714
20
49.292542485891744
30
0
11
-54.851563295037124
21
49.292542485891744
31
0
0
LINE
5
108
100
AcDbEntity
8
0
100
AcDbLine
10
-112.85156329503714
20
49.292542485891744
30
0
11
-170.85156329503715
21
49.292542485891744
31
0
0
SPLINE
5
109
100
AcDbEntity
8
0
100
AcDbSpline
70
4
71
5
72
56
73
50
74
0
42
0.000000001
43
0.0000000001
44
0.0000000001
40
0
40
0
40
0
40
0
40
0
40
0
40
0.022222222222222227
40
0.044444444444444453
40
0.066666666666666666
40
0.088888888888888906
40
0.11111111111111112
40
0.13333333333333333
40
0.15555555555555556
40
0.17777777777777778
40
0.20000000000000001
40
0.22222222222222224
40
0.24444444444444449
40
0.26666666666666666
40
0.28888888888888892
40
0.31111111111111106
40
0.33333333333333331
40
0.35555555555555546
40
0.37777777777777771
40
0.39999999999999991
40
0.42222222222222211
40
0.44444444444444425
40
0.46666666666666651
40
0.48888888888888871
40
0.51111111111111085
40
0.5333333333333331
40
0.55555555555555536
40
0.57777777777777761
40
0.59999999999999987
40
0.62222222222222212
40
0.64444444444444438
40
0.66666666666666663
40
0.68888888888888888
40
0.71111111111111125
40
0.73333333333333339
40
0.75555555555555554
40
0.7777777777777779
40
0.80000000000000016
40
0.82222222222222241
40
0.84444444444444455
40
0.86666666666666692
40
0.88888888888888906
40
0.91111111111111143
40
0.93333333333333379
40
0.95555555555555605
40
0.97777777777777797
40
1
40
1
40
1
40
1
40
1
40
1
41
1
41
1
41
1
41
1
41
1
41
1
41
1
41
1
41
1
41
1
41
1
41
1
41
1
41
1
41
1
41
1
41
1
41
1
41
1
41
1
41
1
41
1
41
1
41
1
41
1
41
1
41
1
41
1
41
1
41
1
41
1
41
1
41
1
41
1
41
1
41
1
41
1
41
1
41
1
41
1
41
1
41
1
41
1
41
1
41
1
41
1
41
1
41
1
41
1
41
1
10
-213.27696383987211
20
77.061200719178515
30
0
10
-213.39422048668592
20
77.064649091346169
30
0
10
-213.62460519509412
20
77.055327196174034
30
0
10
-213.95781922931806
20
76.992669441639663
30
0
10
-214.37716135975256
20
76.81186254482509
30
0
10
-214.84833647313019
20
76.432615737189138
30
0
10
-215.22859383383107
20
75.93071404489956
30
0
10
-215.45133906898059
20
75.360361929963005
30
0
10
-215.45451471889876
20
74.772480423355447
30
0
10
-215.2149684400033
20
74.186110461289104
30
0
10
-214.76060443755466
20
73.580602957956017
30
0
10
-214.14352119193265
20
72.923761622457363
30
0
10
-213.42267388963364
20
72.191267229915297
30
0
10
-212.64272204617274
20
71.389645754318494
30
0
10
-211.83580340028203
20
70.544955985369825
30
0
10
-211.0225789429922
20
69.692136642367558
30
0
10
-210.21355812840909
20
68.864162769529571
30
0
10
-209.41025594668574
20
68.081171033403152
30
0
10
-208.60642226499687
20
67.339894478354154
30
0
10
-207.79093610423593
20
66.622012017586371
30
0
10
-206.95068580227766
20
65.902144642092679
30
0
10
-206.07340580152797
20
65.155841513625262
30
0
10
-205.15062362530642
20
64.367821642740509
30
0
10
-204.18031205260627
20
63.539398169635461
30
0
10
-203.16503278106157
20
62.683111677705377
30
0
10
-202.11037359501987
20
61.818204095574259
30
0
10
-201.02325071711186
20
60.965672626001691
30
0
10
-199.9103610466781
20
60.143808266746049
30
0
10
-198.77636863335422
20
59.362811569442982
30
0
10
-197.62286113040909
20
58.622080381041869
30
0
10
-196.44922060129076
20
57.914181258593267
30
0
10
-195.25311723347087
20
57.227486965633702
30
0
10
-194.03115577036161
20
56.549386097665639
30
0
10
-192.77943396010002
20
55.869101016129306
30
0
10
-191.4941841721695
20
55.181012202410557
30
0
10
-190.17223538601937
20
54.486736910842026
30
0
10
-188.8109042373282
20
53.793095818177093
30
0
10
-187.40798097944969
20
53.110752804003823
30
0
10
-185.96168109913262
20
52.452626099052182
30
0
10
-184.47061573791427
20
51.832357329326548
30
0
10
-182.93375524730942
20
51.26287229197311
30
0
10
-181.35040396431111
20
50.754618240535869
30
0
10
-179.72015255277455
20
50.31508808154971
30
0
10
-178.04281220864141
20
49.949496390620226
30
0
10
-176.31835640550969
20
49.661122736156322
30
0
10
-174.54686218206615
20
49.451781458427675
30
0
10
-173.09213571436786
20
49.348138953029576
30
0
10
-171.98003234456814
20
49.306367435648099
30
0
10
-171.22927828118628
20
49.294489222143199
30
0
10
-170.85156329503715
20
49.29254248589173
30
0
0
LINE
5
110
100
AcDbEntity
8
0
100
AcDbLine
10
-169.28940172126062
20
78.068370197995705
30
0
11
-213.27696383987211
21
77.061200719178515
31
0
0
LINE
5
111
100
AcDbEntity
8
0
100
AcDbLine
10
-169.28940172126062
20
78.068370197995705
30
0
11
-169.18893084539172
21
80.506258219716941
31
0
0
LINE
5
112
100
AcDbEntity
8
0
100
AcDbLine
10
-169.18893084539172
20
80.506258219716941
30
0
11
-222.7227474173641
21
80.506258219716898
31
0
0
SPLINE
5
113
100
AcDbEntity
8
0
100
AcDbSpline
70
4
71
5
72
31
73
25
74
0
42
0.000000001
43
0.0000000001
44
0.0000000001
40
0
40
0
40
0
40
0
40
0
40
0
40
0.050000000000000003
40
0.10000000000000001
40
0.15000000000000002
40
0.20000000000000001
40
0.25
40
0.29999999999999999
40
0.34999999999999998
40
0.40000000000000002
40
0.45000000000000001
40
0.5
40
0.54999999999999993
40
0.59999999999999998
40
0.65000000000000002
40
0.70000000000000007
40
0.75000000000000022
40
0.80000000000000016
40
0.8500000000000002
40
0.90000000000000024
40
0.9500000000000004
40
1
40
1
40
1
40
1
40
1
40
1
41
1
41
1
41
1
41
1
41
1
41
1
41
1
41
1
41
1
41
1
41
1
41
1
41
1
41
1
41
1
41
1
41
1
41
1
41
1
41
1
41
1
41
1
41
1
41
1
41
1
10
-227.51331933840532
20
85.373496677877384
30
0
10
-227.49488029359946
20
85.272278759988893
30
0
10
-227.4577675996681
20
85.07349865074589
30
0
10
-227.40139465058911
20
84.786295408115024
30
0
10
-227.32481799750587
20
84.425383348146397
30
0
10
-227.22637447005695
20
84.010983690127929
30
0
10
-227.12417441091489
20
83.632528794758741
30
0
10
-227.01615747026489
20
83.287617811496517
30
0
10
-226.89896717034188
20
82.971666081195423
30
0
10
-226.76742012279578
20
82.676660069107854
30
0
10
-226.61516023850686
20
82.392798298974554
30
0
10
-226.43589562528533
20
82.111547140412782
30
0
10
-226.22444587247188
20
81.828169492483823
30
0
10
-225.97795836508766
20
81.544687583116001
30
0
10
-225.69698234722426
20
81.272285520684235
30
0
10
-225.38448733191825
20
81.026593615128547
30
0
10
-225.0450640980423
20
80.823409963739863
30
0
10
-224.68412831432912
20
80.674360987704929
30
0
10
-224.30715900574398
20
80.582250749605777
30
0
10
-223.91899258031032
20
80.537060688744418
30
0
10
-223.52369303545859
20
80.521813576608082
30
0
10
-223.20424369264413
20
80.518465623007927
30
0
10
-222.96375892374186
20
80.513952166476926
30
0
10
-222.80313474871497
20
80.509125764447603
30
0
10
-222.7227474173641
20
80.506258219716898
30
0
0
LINE
5
114
100
AcDbEntity
8
0
100
AcDbLine
10
-227.51331933840538
20
235.19881583808061
30
0
11
-227.51331933840532
21
85.373496677877384
31
0
0
SPLINE
5
115
100
AcDbEntity
8
0
100
AcDbSpline
70
4
71
5
72
51
73
45
74
0
42
0.000000001
43
0.0000000001
44
0.0000000001
40
0
40
0
40
0
40
0
40
0
40
0
40
0.025000000000000001
40
0.050000000000000003
40
0.075000000000000011
40
0.10000000000000001
40
0.125
40
0.14999999999999999
40
0.17499999999999999
40
0.20000000000000001
40
0.22500000000000001
40
0.25
40
0.27500000000000002
40
0.29999999999999999
40
0.32500000000000001
40
0.35000000000000003
40
0.37500000000000011
40
0.40000000000000008
40
0.4250000000000001
40
0.45000000000000012
40
0.4750000000000002
40
0.50000000000000011
40
0.52500000000000013
40
0.55000000000000016
40
0.57500000000000018
40
0.6000000000000002
40
0.62500000000000022
40
0.65000000000000024
40
0.67500000000000016
40
0.70000000000000018
40
0.72500000000000031
40
0.75000000000000033
40
0.77500000000000036
40
0.80000000000000027
40
0.8250000000000004
40
0.85000000000000031
40
0.87500000000000033
40
0.90000000000000036
40
0.92500000000000038
40
0.9500000000000004
40
0.97500000000000042
40
1
40
1
40
1
40
1
40
1
40
1
41
1
41
1
41
1
41
1
41
1
41
1
41
1
41
1
41
1
41
1
41
1
41
1
41
1
41
1
41
1
41
1
41
1
41
1
41
1
41
1
41
1
41
1
41
1
41
1
41
1
41
1
41
1
41
1
41
1
41
1
41
1
41
1
41
1
41
1
41
1
41
1
41
1
41
1
41
1
41
1
41
1
41
1
41
1
41
1
41
1
10
-112.85156329503718
20
260.79403220713232
30
0
10
-113.79651552161621
20
260.7864657436005
30
0
10
-115.67977652888253
20
260.77147192356824
30
0
10
-118.48473768390517
20
260.74939851703613
30
0
10
-122.18478476469103
20
260.7208027843746
30
0
10
-126.7426905840862
20
260.68641670615165
30
0
10
-131.23190072230653
20
260.65327852175778
30
0
10
-135.6496306030262
20
260.62116069039058
30
0
10
-139.99152418042254
20
260.58967583371344
30
0
10
-144.25127402117062
20
260.55823907605924
30
0
10
-148.42035328413377
20
260.52601610993827
30
0
10
-152.48747215453963
20
260.49190309144007
30
0
10
-156.43884823107567
20
260.45440840584342
30
0
10
-160.26098986037553
20
260.41124084062068
30
0
10
-163.9430977601952
20
260.35893421024832
30
0
10
-167.4795444539248
20
260.29247722754025
30
0
10
-170.87255418283053
20
260.20488107605831
30
0
10
-174.13435732976291
20
260.086894033249
30
0
10
-177.29085343865961
20
259.92631797858968
30
0
10
-180.37726517816947
20
259.70944623967341
30
0
10
-183.43101297832789
20
259.42322270366134
30
0
10
-186.48534428501338
20
259.05724772821605
30
0
10
-189.56303741926931
20
258.60568462581364
30
0
10
-192.66908916099769
20
258.06965424712104
30
0
10
-195.78673633462085
20
257.45812722439473
30
0
10
-198.88479610577036
20
256.78371669830221
30
0
10
-201.92298704468016
20
256.05941485655364
30
0
10
-204.85811794063784
20
255.29482935883431
30
0
10
-207.64961882809433
20
254.49294739367502
30
0
10
-210.26606534166078
20
253.64581988423731
30
0
10
-212.68629104771907
20
252.73671136200107
30
0
10
-214.89925858634228
20
251.74389125672718
30
0
10
-216.9041984359572
20
250.64390197375707
30
0
10
-218.71116624522551
20
249.41491697499549
30
0
10
-220.33998920060776
20
248.04051410216113
30
0
10
-221.81164895716805
20
246.51697177051705
30
0
10
-223.14172429591977
20
244.85877010796429
30
0
10
-224.33114844988253
20
243.1076805441661
30
0
10
-225.36467396180012
20
241.33051967853291
30
0
10
-226.22092791584896
20
239.59907019716576
30
0
10
-226.87913323645097
20
237.97559013909887
30
0
10
-227.23864877838275
20
236.78944971656625
30
0
10
-227.41300867757565
20
235.96773359939482
30
0
10
-227.48693436165297
20
235.45009430469875
30
0
10
-227.51331933840538
20
235.19881583808061
30
0
0
ENDSEC
0
SECTION
2
OBJECTS
0
DICTIONARY
5
C
100
AcDbDictionary
3
ACAD_GROUP
350
D
3
ACAD_MLINESTYLE
350
17
0
DICTIONARY
5
D
100
AcDbDictionary
0
DICTIONARY
5
1A
330
C
100
AcDbDictionary
0
DICTIONARY
5
17
100
AcDbDictionary
0
ENDSEC
0
EOF
