0
SECTION
2
HEADER
9
$INSUNITS
70
4
9
$ACADVER
1
AC1014
9
$HANDSEED
5
FFFF
0
ENDSEC
0
SECTION
2
TABLES
0
TABLE
2
VPORT
5
8
100
AcDbSymbolTable
0
ENDTAB
0
TABLE
2
LTYPE
5
5
100
AcDbSymbolTable
0
LTYPE
5
14
100
AcDbSymbolTableRecord
100
AcDbLinetypeTableRecord
2
BYBLOCK
70
0
0
LTYPE
5
15
100
AcDbSymbolTableRecord
100
AcDbLinetypeTableRecord
2
BYLAYER
70
0
0
LTYPE
5
16
100
AcDbSymbolTableRecord
100
AcDbLinetypeTableRecord
2
DASHED
70
0
3
Dashed __ __ __ __ __ __ __ __ __ __ __ __ __ _
72
65
73
2
40
0.75
49
0.5
74
0
49
-0.25
74
0
0
ENDTAB
0
TABLE
2
LAYER
5
2
100
AcDbSymbolTable
70
2
0
LAYER
5
50
100
AcDbSymbolTableRecord
100
AcDbLayerTableRecord
2
0
70
0
62
7
6
CONTINUOUS
0
ENDTAB
0
TABLE
2
STYLE
5
3
100
AcDbSymbolTable
70
1
0
STYLE
5
11
100
AcDbSymbolTableRecord
100
AcDbTextStyleTableRecord
2
STANDARD
70
0
0
ENDTAB
0
TABLE
2
VIEW
5
6
100
AcDbSymbolTable
70
0
0
ENDTAB
0
TABLE
2
UCS
5
7
100
AcDbSymbolTable
70
0
0
ENDTAB
0
TABLE
2
APPID
5
9
100
AcDbSymbolTable
70
2
0
APPID
5
12
100
AcDbSymbolTableRecord
100
AcDbRegAppTableRecord
2
ACAD
70
0
0
ENDTAB
0
TABLE
2
DIMSTYLE
5
A
100
AcDbSymbolTable
70
1
0
ENDTAB
0
TABLE
2
BLOCK_RECORD
5
1
100
AcDbSymbolTable
70
1
0
BLOCK_RECORD
5
1F
100
AcDbSymbolTableRecord
100
AcDbBlockTableRecord
2
*MODEL_SPACE
0
BLOCK_RECORD
5
1B
100
AcDbSymbolTableRecord
100
AcDbBlockTableRecord
2
*PAPER_SPACE
0
ENDTAB
0
ENDSEC
0
SECTION
2
BLOCKS
0
BLOCK
5
20
100
AcDbEntity
100
AcDbBlockBegin
2
*MODEL_SPACE
0
ENDBLK
5
21
100
AcDbEntity
100
AcDbBlockEnd
0
BLOCK
5
1C
100
AcDbEntity
100
AcDbBlockBegin
2
*PAPER_SPACE
0
ENDBLK
5
1D
100
AcDbEntity
100
AcDbBlockEnd
0
ENDSEC
0
SECTION
2
ENTITIES
0
CIRCLE
5
100
100
AcDbEntity
8
0
100
AcDbCircle
10
109.03283923314251
20
45.928834211791418
30
0
40
7.0000000000000284
210
0
220
0
230
1
0
CIRCLE
5
101
100
AcDbEntity
8
0
100
AcDbCircle
10
-109.41589206146233
20
45.928834211791454
30
0
40
6.9999999999999929
210
0
220
0
230
1
0
SPLINE
5
102
100
AcDbEntity
8
0
100
AcDbSpline
70
4
71
5
72
151
73
145
74
0
42
0.000000001
43
0.0000000001
44
0.0000000001
40
0
40
0
40
0
40
0
40
0
40
0
40
0.0071428571428571435
40
0.014285714285714284
40
0.021428571428571429
40
0.028571428571428567
40
0.035714285714285712
40
0.042857142857142858
40
0.050000000000000003
40
0.057142857142857148
40
0.064285714285714293
40
0.071428571428571438
40
0.07857142857142857
40
0.085714285714285757
40
0.092857142857142874
40
0.10000000000000002
40
0.10714285714285716
40
0.11428571428571432
40
0.12142857142857146
40
0.12857142857142859
40
0.13571428571428573
40
0.14285714285714288
40
0.15000000000000002
40
0.15714285714285714
40
0.16428571428571431
40
0.17142857142857146
40
0.1785714285714286
40
0.18571428571428572
40
0.19285714285714287
40
0.20000000000000004
40
0.20714285714285721
40
0.21428571428571436
40
0.22142857142857147
40
0.22857142857142865
40
0.23571428571428574
40
0.24285714285714291
40
0.25000000000000011
40
0.25714285714285717
40
0.26428571428571429
40
0.27142857142857141
40
0.27857142857142853
40
0.28571428571428564
40
0.29285714285714282
40
0.29999999999999988
40
0.307142857142857
40
0.31428571428571411
40
0.32142857142857123
40
0.32857142857142835
40
0.33571428571428552
40
0.34285714285714253
40
0.3499999999999997
40
0.35714285714285682
40
0.36428571428571388
40
0.37142857142857111
40
0.37857142857142817
40
0.38571428571428529
40
0.39285714285714241
40
0.39999999999999952
40
0.40714285714285664
40
0.41428571428571376
40
0.42142857142857088
40
0.42857142857142799
40
0.43571428571428511
40
0.44285714285714223
40
0.44999999999999934
40
0.45714285714285652
40
0.46428571428571358
40
0.4714285714285707
40
0.47857142857142781
40
0.48571428571428488
40
0.49285714285714211
40
0.49999999999999922
40
0.50714285714285634
40
0.51428571428571346
40
0.52142857142857058
40
0.52857142857142769
40
0.53571428571428481
40
0.54285714285714193
40
0.54999999999999905
40
0.55714285714285616
40
0.56428571428571328
40
0.5714285714285704
40
0.57857142857142752
40
0.58571428571428463
40
0.59285714285714175
40
0.59999999999999887
40
0.60714285714285599
40
0.6142857142857131
40
0.62142857142857022
40
0.62857142857142745
40
0.63571428571428445
40
0.64285714285714157
40
0.64999999999999858
40
0.65714285714285581
40
0.66428571428571292
40
0.67142857142857015
40
0.67857142857142716
40
0.68571428571428417
40
0.69285714285714139
40
0.69999999999999851
40
0.70714285714285563
40
0.71428571428571275
40
0.72142857142856975
40
0.72857142857142687
40
0.7357142857142841
40
0.74285714285714111
40
0.74999999999999822
40
0.75714285714285545
40
0.76428571428571246
40
0.7714285714285698
40
0.7785714285714268
40
0.78571428571428381
40
0.79285714285714104
40
0.79999999999999805
40
0.80714285714285516
40
0.8142857142857125
40
0.8214285714285694
40
0.82857142857142663
40
0.83571428571428374
40
0.84285714285714075
40
0.84999999999999809
40
0.8571428571428551
40
0.86428571428571221
40
0.87142857142856933
40
0.87857142857142645
40
0.88571428571428346
40
0.8928571428571408
40
0.8999999999999978
40
0.90714285714285481
40
0.91428571428571204
40
0.92142857142856915
40
0.92857142857142616
40
0.93571428571428339
40
0.9428571428571404
40
0.94999999999999762
40
0.95714285714285485
40
0.96428571428571175
40
0.97142857142856898
40
0.97857142857142598
40
0.98571428571428321
40
0.99285714285714044
40
1
40
1
40
1
40
1
40
1
40
1
41
1
41
1
41
1
41
1
41
1
41
1
41
1
41
1
41
1
41
1
41
1
41
1
41
1
41
1
41
1
41
1
41
1
41
1
41
1
41
1
41
1
41
1
41
1
41
1
41
1
41
1
41
1
41
1
41
1
41
1
41
1
41
1
41
1
41
1
41
1
41
1
41
1
41
1
41
1
41
1
41
1
41
1
41
1
41
1
41
1
41
1
41
1
41
1
41
1
41
1
41
1
41
1
41
1
41
1
41
1
41
1
41
1
41
1
41
1
41
1
41
1
41
1
41
1
41
1
41
1
41
1
41
1
41
1
41
1
41
1
41
1
41
1
41
1
41
1
41
1
41
1
41
1
41
1
41
1
41
1
41
1
41
1
41
1
41
1
41
1
41
1
41
1
41
1
41
1
41
1
41
1
41
1
41
1
41
1
41
1
41
1
41
1
41
1
41
1
41
1
41
1
41
1
41
1
41
1
41
1
41
1
41
1
41
1
41
1
41
1
41
1
41
1
41
1
41
1
41
1
41
1
41
1
41
1
41
1
41
1
41
1
41
1
41
1
41
1
41
1
41
1
41
1
41
1
41
1
41
1
41
1
41
1
41
1
41
1
41
1
41
1
41
1
41
1
41
1
41
1
41
1
41
1
41
1
41
1
41
1
10
-0.19152641415981719
20
112.25482754381628
30
0
10
-0.99612383525368386
20
112.24299950829828
30
0
10
-2.602296069595269
20
112.21877237316437
30
0
10
-5.0024866021192338
20
112.18071847889874
30
0
10
-8.1846034620796893
20
112.12655327924665
30
0
10
-12.131887140161037
20
112.05309002942127
30
0
10
-16.04842145329437
20
111.97373586700699
30
0
10
-19.933444971944265
20
111.88822477814003
30
0
10
-23.785695786456653
20
111.79611479949915
30
0
10
-27.60329615538863
20
111.69674560669097
30
0
10
-31.383612000801211
20
111.58919204153617
30
0
10
-35.123170595454063
20
111.47222693152159
30
0
10
-38.817435501231827
20
111.34426098972334
30
0
10
-42.461097189501089
20
111.20336526171843
30
0
10
-46.048925799295688
20
111.04738321747644
30
0
10
-49.576468958346069
20
110.87401853167901
30
0
10
-53.040825815570898
20
110.6809337553905
30
0
10
-56.441359503309911
20
110.46584194088609
30
0
10
-59.780505215759447
20
110.22660681113354
30
0
10
-63.064377651970318
20
109.96132640025894
30
0
10
-66.303879664735916
20
109.66845716254366
30
0
10
-69.512973884081504
20
109.34670900584595
30
0
10
-72.706034183635495
20
108.99486460304118
30
0
10
-75.895468240341131
20
108.61162367412781
30
0
10
-79.089301669170879
20
108.19543715794285
30
0
10
-82.288603394271604
20
107.74434492220638
30
0
10
-85.48538461560301
20
107.25581358182119
30
0
10
-88.659258816101357
20
106.72656968792886
30
0
10
-91.779868525234178
20
106.1524568038345
30
0
10
-94.812302693895674
20
105.52830439520224
30
0
10
-97.721572223281782
20
104.84779397261948
30
0
10
-100.4774907850688
20
104.10332323235093
30
0
10
-103.05934850484377
20
103.28587705325037
30
0
10
-105.46075980258198
20
102.38487977121562
30
0
10
-107.69420540640479
20
101.38810041148363
30
0
10
-109.78299716595441
20
100.28433567738151
30
0
10
-111.75371348504879
20
99.065948296097474
30
0
10
-113.6281078968828
20
97.731618080200803
30
0
10
-115.41604892127194
20
96.288643875435184
30
0
10
-117.10591902628818
20
94.756376162955604
30
0
10
-118.6710387035686
20
93.162495216477225
30
0
10
-120.08042035900647
20
91.537348686576962
30
0
10
-121.3081141886951
20
89.908932293789434
30
0
10
-122.34301838443351
20
88.297631238628213
30
0
10
-123.19883601599227
20
86.710978140852745
30
0
10
-123.90341370131782
20
85.144097704048363
30
0
10
-124.48777035929905
20
83.580317085428788
30
0
10
-124.97496971273193
20
81.991639746693494
30
0
10
-125.36982452958173
20
80.339472354343997
30
0
10
-125.66710476526637
20
78.580618404425337
30
0
10
-125.85862456279891
20
76.672843942361453
30
0
10
-125.94128776253444
20
74.580992420950764
30
0
10
-125.92316111791962
20
72.281735530960731
30
0
10
-125.81957079281753
20
69.761068248242537
30
0
10
-125.65045971532939
20
67.012740160338524
30
0
10
-125.43715907182556
20
64.036233992607549
30
0
10
-125.19964093163668
20
60.835153710287706
30
0
10
-124.95299201676301
20
57.414907183670572
30
0
10
-124.70656640636238
20
53.782870337383351
30
0
10
-124.46547554307816
20
49.950720204625902
30
0
10
-124.2314276743318
20
45.936175088795252
30
0
10
-124.00382988913915
20
41.764958497871092
30
0
10
-123.78078282836074
20
37.472718688718487
30
0
10
-123.56010684576762
20
33.10685761529232
30
0
10
-123.34038734879118
20
28.728665944234066
30
0
10
-123.12193452702235
20
24.414712100017191
30
0
10
-122.90798431786993
20
20.260183899672697
30
0
10
-122.7039770027844
20
16.366972152477004
30
0
10
-122.51647125373478
20
12.828961806956549
30
0
10
-122.35217277991694
20
9.7180166461360784
30
0
10
-122.21694258157856
20
7.0702774903328702
30
0
10
-122.11474987405559
20
4.8709000625403576
30
0
10
-122.04679778167851
20
3.0427582018146282
30
0
10
-122.01019788871434
20
1.4250913010023325
30
0
10
-121.99857458443198
20
-0.20488968221751946
30
0
10
-122.00402807055823
20
-2.0795239072625193
30
0
10
-122.01856682517779
20
-4.401248693091695
30
0
10
-122.03605285153856
20
-7.2887668416479556
30
0
10
-122.05261228009934
20
-10.769607204988993
30
0
10
-122.06607413390188
20
-14.802655287888413
30
0
10
-122.07569374777393
20
-19.291882735257069
30
0
10
-122.08175992725536
20
-24.103632418227221
30
0
10
-122.08525139238776
20
-29.082477454579063
30
0
10
-122.08747451418827
20
-34.067421129744119
30
0
10
-122.08970410544495
20
-38.908557825548655
30
0
10
-122.0928349662897
20
-43.482109589372016
30
0
10
-122.09699923622708
20
-47.709662257804055
30
0
10
-122.10130439646406
20
-51.563066561736619
30
0
10
-122.10374857482179
20
-55.048745630305831
30
0
10
-122.10108914532917
20
-58.196950658990204
30
0
10
-122.08873701313898
20
-61.049137809488712
30
0
10
-122.06062289487598
20
-63.645896655419421
30
0
10
-122.00911330212321
20
-66.015241861649372
30
0
10
-121.9248212160614
20
-68.159310152884629
30
0
10
-121.79653297291338
20
-70.046075615941064
30
0
10
-121.60528090820002
20
-71.63524320264797
30
0
10
-121.32310325460506
20
-72.898219053746303
30
0
10
-120.90157934898109
20
-73.844603467553313
30
0
10
-120.28901488646824
20
-74.533156392329275
30
0
10
-119.52637288987529
20
-75.02964604248362
30
0
10
-118.85429691333556
20
-75.371846413968768
30
0
10
-118.29320732278106
20
-75.57873393676698
30
0
10
-117.29431710604416
20
-75.662323129955979
30
0
10
-115.44259156477111
20
-75.646064475468506
30
0
10
-112.96763938081568
20
-75.579016561120682
30
0
10
-110.41437024721046
20
-75.518149515835518
30
0
10
-108.35753711467387
20
-75.511866948563849
30
0
10
-107.14308050323538
20
-75.586430431800551
30
0
10
-106.51113983287942
20
-75.722700045180204
30
0
10
-105.79741179011769
20
-75.88010515176282
30
0
10
-104.72957385982866
20
-76.074288687839243
30
0
10
-103.47120002765124
20
-76.376462536097591
30
0
10
-102.22256251823293
20
-76.864132648261076
30
0
10
-101.00163183942065
20
-77.590299324448821
30
0
10
-99.741571539095986
20
-78.577152688916598
30
0
10
-98.362243205654352
20
-79.808824054873924
30
0
10
-96.855079623232001
20
-81.223347775043507
30
0
10
-95.259621023737751
20
-82.732909295484518
30
0
10
-93.634559139328886
20
-84.246790908341538
30
0
10
-92.032938715582659
20
-85.691343249736633
30
0
10
-90.470297553124155
20
-87.035894230217565
30
0
10
-88.91377304554716
20
-88.300322871326884
30
0
10
-87.308945949261769
20
-89.529399018758681
30
0
10
-85.599194010454838
20
-90.773684712791706
30
0
10
-83.746377481054537
20
-92.069379886872156
30
0
10
-81.755233486392001
20
-93.414589764867713
30
0
10
-79.664967948514374
20
-94.776541975009735
30
0
10
-77.532301695152128
20
-96.106852030320397
30
0
10
-75.416787175827267
20
-97.354634290017103
30
0
10
-73.36665309395471
20
-98.479162699931834
30
0
10
-71.400797597608587
20
-99.466040123457105
30
0
10
-69.506313968286406
20
-100.32916897670415
30
0
10
-67.653365743828459
20
-101.09686387882584
30
0
10
-65.805711001871998
20
-101.80192571427789
30
0
10
-63.932464938740807
20
-102.47062380648819
30
0
10
-62.020735654358745
20
-103.11077193067652
30
0
10
-60.072248911416182
20
-103.71552030008647
30
0
10
-58.097282350726402
20
-104.26979700709596
30
0
10
-56.109891699914449
20
-104.75543828871585
30
0
10
-54.121820222780173
20
-105.15772577033781
30
0
10
-52.139703905015224
20
-105.46830052342243
30
0
10
-50.561542651714788
20
-105.63993375319212
30
0
10
-49.382652096079447
20
-105.72483002947646
30
0
10
-48.598830181432966
20
-105.76194654376253
30
0
10
-48.207445337234063
20
-105.77563473595831
30
0
0
LINE
5
103
100
AcDbEntity
8
0
100
AcDbLine
10
-48.207445337234063
20
-105.77563473595831
30
0
11
47.8243925089143
21
-105.77563473595831
31
0
0
SPLINE
5
104
100
AcDbEntity
8
0
100
AcDbSpline
70
4
71
5
72
151
73
145
74
0
42
0.000000001
43
0.0000000001
44
0.0000000001
40
-1
40
-1
40
-1
40
-1
40
-1
40
-1
40
-0.99285714285714044
40
-0.98571428571428321
40
-0.97857142857142598
40
-0.97142857142856898
40
-0.96428571428571175
40
-0.95714285714285485
40
-0.94999999999999762
40
-0.9428571428571404
40
-0.93571428571428339
40
-0.92857142857142616
40
-0.92142857142856915
40
-0.91428571428571204
40
-0.90714285714285481
40
-0.8999999999999978
40
-0.8928571428571408
40
-0.88571428571428346
40
-0.87857142857142645
40
-0.87142857142856933
40
-0.86428571428571221
40
-0.8571428571428551
40
-0.84999999999999809
40
-0.84285714285714075
40
-0.83571428571428374
40
-0.82857142857142663
40
-0.8214285714285694
40
-0.8142857142857125
40
-0.80714285714285516
40
-0.79999999999999805
40
-0.79285714285714104
40
-0.78571428571428381
40
-0.7785714285714268
40
-0.7714285714285698
40
-0.76428571428571246
40
-0.75714285714285545
40
-0.74999999999999822
40
-0.74285714285714111
40
-0.7357142857142841
40
-0.72857142857142687
40
-0.72142857142856975
40
-0.71428571428571275
40
-0.70714285714285563
40
-0.69999999999999851
40
-0.69285714285714139
40
-0.68571428571428417
40
-0.67857142857142716
40
-0.67142857142857015
40
-0.66428571428571292
40
-0.65714285714285581
40
-0.64999999999999858
40
-0.64285714285714157
40
-0.63571428571428445
40
-0.62857142857142745
40
-0.62142857142857022
40
-0.6142857142857131
40
-0.60714285714285599
40
-0.59999999999999887
40
-0.59285714285714175
40
-0.58571428571428463
40
-0.57857142857142752
40
-0.5714285714285704
40
-0.56428571428571328
40
-0.55714285714285616
40
-0.54999999999999905
40
-0.54285714285714193
40
-0.53571428571428481
40
-0.52857142857142769
40
-0.52142857142857058
40
-0.51428571428571346
40
-0.50714285714285634
40
-0.49999999999999922
40
-0.49285714285714211
40
-0.48571428571428488
40
-0.47857142857142781
40
-0.4714285714285707
40
-0.46428571428571358
40
-0.45714285714285652
40
-0.44999999999999934
40
-0.44285714285714223
40
-0.43571428571428511
40
-0.42857142857142799
40
-0.42142857142857088
40
-0.41428571428571376
40
-0.40714285714285664
40
-0.39999999999999952
40
-0.39285714285714241
40
-0.38571428571428529
40
-0.37857142857142817
40
-0.37142857142857111
40
-0.36428571428571388
40
-0.35714285714285682
40
-0.3499999999999997
40
-0.34285714285714253
40
-0.33571428571428552
40
-0.32857142857142835
40
-0.32142857142857123
40
-0.31428571428571411
40
-0.307142857142857
40
-0.29999999999999988
40
-0.29285714285714282
40
-0.28571428571428564
40
-0.27857142857142853
40
-0.27142857142857141
40
-0.26428571428571429
40
-0.25714285714285717
40
-0.25000000000000011
40
-0.24285714285714291
40
-0.23571428571428574
40
-0.22857142857142865
40
-0.22142857142857147
40
-0.21428571428571436
40
-0.20714285714285721
40
-0.20000000000000004
40
-0.19285714285714287
40
-0.18571428571428572
40
-0.1785714285714286
40
-0.17142857142857146
40
-0.16428571428571431
40
-0.15714285714285714
40
-0.15000000000000002
40
-0.14285714285714288
40
-0.13571428571428573
40
-0.12857142857142859
40
-0.12142857142857146
40
-0.11428571428571432
40
-0.10714285714285716
40
-0.10000000000000002
40
-0.092857142857142874
40
-0.085714285714285757
40
-0.07857142857142857
40
-0.071428571428571438
40
-0.064285714285714293
40
-0.057142857142857148
40
-0.050000000000000003
40
-0.042857142857142858
40
-0.035714285714285712
40
-0.028571428571428567
40
-0.021428571428571429
40
-0.014285714285714284
40
-0.0071428571428571435
40
0
40
0
40
0
40
0
40
0
40
0
41
1
41
1
41
1
41
1
41
1
41
1
41
1
41
1
41
1
41
1
41
1
41
1
41
1
41
1
41
1
41
1
41
1
41
1
41
1
41
1
41
1
41
1
41
1
41
1
41
1
41
1
41
1
41
1
41
1
41
1
41
1
41
1
41
1
41
1
41
1
41
1
41
1
41
1
41
1
41
1
41
1
41
1
41
1
41
1
41
1
41
1
41
1
41
1
41
1
41
1
41
1
41
1
41
1
41
1
41
1
41
1
41
1
41
1
41
1
41
1
41
1
41
1
41
1
41
1
41
1
41
1
41
1
41
1
41
1
41
1
41
1
41
1
41
1
41
1
41
1
41
1
41
1
41
1
41
1
41
1
41
1
41
1
41
1
41
1
41
1
41
1
41
1
41
1
41
1
41
1
41
1
41
1
41
1
41
1
41
1
41
1
41
1
41
1
41
1
41
1
41
1
41
1
41
1
41
1
41
1
41
1
41
1
41
1
41
1
41
1
41
1
41
1
41
1
41
1
41
1
41
1
41
1
41
1
41
1
41
1
41
1
41
1
41
1
41
1
41
1
41
1
41
1
41
1
41
1
41
1
41
1
41
1
41
1
41
1
41
1
41
1
41
1
41
1
41
1
41
1
41
1
41
1
41
1
41
1
41
1
10
47.8243925089143
20
-105.77563473595831
30
0
10
48.215777353113147
20
-105.76194654376255
30
0
10
48.999599267759557
20
-105.72483002947649
30
0
10
50.178489823394969
20
-105.63993375319214
30
0
10
51.756651076695405
20
-105.46830052342246
30
0
10
53.73876739446041
20
-105.15772577033785
30
0
10
55.726838871594623
20
-104.75543828871588
30
0
10
57.714229522406541
20
-104.269797007096
30
0
10
59.689196083096348
20
-103.71552030008652
30
0
10
61.637682826038954
20
-103.11077193067659
30
0
10
63.549412110420903
20
-102.47062380648825
30
0
10
65.422658173552122
20
-101.80192571427794
30
0
10
67.270312915508555
20
-101.0968638788259
30
0
10
69.123261139966559
20
-100.3291689767042
30
0
10
71.017744769288669
20
-99.466040123457148
30
0
10
72.983600265634834
20
-98.479162699931862
30
0
10
75.033734347507405
20
-97.354634290017131
30
0
10
77.149248866832224
20
-96.106852030320468
30
0
10
79.281915120194583
20
-94.776541975009792
30
0
10
81.372180658072239
20
-93.414589764867756
30
0
10
83.363324652734718
20
-92.069379886872227
30
0
10
85.216141182134919
20
-90.773684712791749
30
0
10
86.925893120941922
20
-89.529399018758767
30
0
10
88.530720217227383
20
-88.300322871326941
30
0
10
90.087244724804307
20
-87.03589423021765
30
0
10
91.649885887262812
20
-85.691343249736676
30
0
10
93.251506311009038
20
-84.246790908341595
30
0
10
94.876568195417974
20
-82.732909295484575
30
0
10
96.472026794912082
20
-81.223347775043564
30
0
10
97.979190377334575
20
-79.808824054873995
30
0
10
99.358518710776167
20
-78.577152688916655
30
0
10
100.61857901110081
20
-77.590299324448878
30
0
10
101.83950968991311
20
-76.864132648261148
30
0
10
103.08814719933139
20
-76.376462536097648
30
0
10
104.34652103150881
20
-76.074288687839285
30
0
10
105.41435896179784
20
-75.880105151762876
30
0
10
106.12808700455957
20
-75.722700045180261
30
0
10
106.76002767491553
20
-75.586430431800622
30
0
10
107.97448428635413
20
-75.511866948563906
30
0
10
110.03131741889064
20
-75.518149515835574
30
0
10
112.58458655249584
20
-75.579016561120767
30
0
10
115.05953873645126
20
-75.646064475468563
30
0
10
116.91126427772431
20
-75.662323129956064
30
0
10
117.91015449446128
20
-75.578733936767023
30
0
10
118.47124408501578
20
-75.371846413968825
30
0
10
119.14332006155554
20
-75.029646042483691
30
0
10
119.90596205814838
20
-74.533156392329332
30
0
10
120.51852652066123
20
-73.844603467553355
30
0
10
120.94005042628515
20
-72.898219053746359
30
0
10
121.22222807988015
20
-71.635243202648013
30
0
10
121.41348014459352
20
-70.046075615941135
30
0
10
121.54176838774161
20
-68.159310152884686
30
0
10
121.62606047380336
20
-66.015241861649429
30
0
10
121.67757006655613
20
-63.645896655419492
30
0
10
121.70568418481913
20
-61.049137809488784
30
0
10
121.71803631700939
20
-58.196950658990275
30
0
10
121.72069574650195
20
-55.048745630305902
30
0
10
121.71825156814428
20
-51.56306656173669
30
0
10
121.71394640790723
20
-47.709662257804112
30
0
10
121.70978213796985
20
-43.482109589372087
30
0
10
121.70665127712518
20
-38.908557825548726
30
0
10
121.70442168586852
20
-34.06742112974419
30
0
10
121.70219856406796
20
-29.082477454579134
30
0
10
121.69870709893551
20
-24.103632418227292
30
0
10
121.69264091945415
20
-19.291882735257104
30
0
10
121.6830213055821
20
-14.802655287888484
30
0
10
121.66955945177953
20
-10.769607204989029
30
0
10
121.65300002321864
20
-7.2887668416480267
30
0
10
121.63551399685801
20
-4.4012486930917305
30
0
10
121.62097524223839
20
-2.0795239072625904
30
0
10
121.61552175611213
20
-0.20488968221759052
30
0
10
121.62714506039458
20
1.4250913010022614
30
0
10
121.66374495335867
20
3.0427582018145571
30
0
10
121.73169704573576
20
4.870900062540322
30
0
10
121.83388975325877
20
7.0702774903328347
30
0
10
121.96911995159711
20
9.7180166461360429
30
0
10
122.13341842541504
20
12.828961806956478
30
0
10
122.32092417446454
20
16.366972152476968
30
0
10
122.5249314895502
20
20.260183899672661
30
0
10
122.73888169870256
20
24.41471210001712
30
0
10
122.95733452047146
20
28.728665944233995
30
0
10
123.17705401744783
20
33.106857615292249
30
0
10
123.39773000004095
20
37.472718688718452
30
0
10
123.62077706081935
20
41.764958497871021
30
0
10
123.84837484601201
20
45.936175088795181
30
0
10
124.08242271475839
20
49.950720204625831
30
0
10
124.32351357804268
20
53.782870337383279
30
0
10
124.56993918844316
20
57.414907183670465
30
0
10
124.81658810331692
20
60.835153710287599
30
0
10
125.05410624350577
20
64.036233992607521
30
0
10
125.26740688700966
20
67.012740160338424
30
0
10
125.43651796449777
20
69.761068248242424
30
0
10
125.54010828959991
20
72.281735530960631
30
0
10
125.5582349342147
20
74.580992420950736
30
0
10
125.47557173447912
20
76.672843942361411
30
0
10
125.28405193694665
20
78.580618404425238
30
0
10
124.98677170126213
20
80.339472354343897
30
0
10
124.59191688441214
20
81.991639746693465
30
0
10
124.10471753097929
20
83.580317085428675
30
0
10
123.52036087299807
20
85.14409770404832
30
0
10
122.81578318767251
20
86.710978140852717
30
0
10
121.95996555611386
20
88.297631238628185
30
0
10
120.92506136037541
20
89.908932293789405
30
0
10
119.69736753068665
20
91.537348686576863
30
0
10
118.28798587524892
20
93.162495216477197
30
0
10
116.72286619796841
20
94.756376162955576
30
0
10
115.03299609295217
20
96.288643875435085
30
0
10
113.24505506856303
20
97.731618080200704
30
0
10
111.37066065672903
20
99.065948296097446
30
0
10
109.39994433763466
20
100.28433567738148
30
0
10
107.31115257808504
20
101.38810041148361
30
0
10
105.07770697426231
20
102.38487977121551
30
0
10
102.67629567652406
20
103.28587705325035
30
0
10
100.09443795674905
20
104.10332323235082
30
0
10
97.338519394962049
20
104.84779397261946
30
0
10
94.429249865575997
20
105.52830439520221
30
0
10
91.396815696914402
20
106.15245680383438
30
0
10
88.276205987781609
20
106.72656968792879
30
0
10
85.102331787283418
20
107.25581358182112
30
0
10
81.905550565951927
20
107.74434492220632
30
0
10
78.706248840851259
20
108.19543715794279
30
0
10
75.51241541202144
20
108.61162367412777
30
0
10
72.322981355315804
20
108.99486460304115
30
0
10
69.12992105576167
20
109.3467090058459
30
0
10
65.920826836416225
20
109.66845716254358
30
0
10
62.68132482365057
20
109.96132640025888
30
0
10
59.397452387439806
20
110.22660681113348
30
0
10
56.058306674990234
20
110.46584194088607
30
0
10
52.657772987251221
20
110.68093375539047
30
0
10
49.193416130026364
20
110.87401853167897
30
0
10
45.665872970976054
20
111.04738321747639
30
0
10
42.078044361181384
20
111.2033652617184
30
0
10
38.434382672912129
20
111.3442609897233
30
0
10
34.740117767134329
20
111.47222693152156
30
0
10
31.00055917248147
20
111.58919204153612
30
0
10
27.220243327068925
20
111.69674560669094
30
0
10
23.402642958136983
20
111.79611479949912
30
0
10
19.550392143624631
20
111.88822477814
30
0
10
15.665368624974718
20
111.97373586700695
30
0
10
11.748834311841421
20
112.05309002942123
30
0
10
7.8015506337600726
20
112.12655327924662
30
0
10
4.6194337737995639
20
112.18071847889874
30
0
10
2.2192432412755636
20
112.21877237316437
30
0
10
0.61307100693397842
20
112.24299950829828
30
0
10
-0.19152641415981719
20
112.25482754381628
30
0
0
ENDSEC
0
SECTION
2
OBJECTS
0
DICTIONARY
5
C
100
AcDbDictionary
3
ACAD_GROUP
350
D
3
ACAD_MLINESTYLE
350
17
0
DICTIONARY
5
D
100
AcDbDictionary
0
DICTIONARY
5
1A
330
C
100
AcDbDictionary
0
DICTIONARY
5
17
100
AcDbDictionary
0
ENDSEC
0
EOF
