<svg xmlns="http://www.w3.org/2000/svg" width="1000" height="563" style="shape-rendering:geometricPrecision;text-rendering:geometricPrecision;image-rendering:optimizeQuality;fill-rule:evenodd;clip-rule:evenodd"><path style="opacity:1" fill="#4570f0" d="M405.5 86.5a164 164 0 0 0 29 2q4.944 3.33 11 3.5a270 270 0 0 0 22 17q2.946 2.176 4 5.5-.462 6.545 6 8-2.229 2.703-3 6h3q-.059-2.788 2.5-4 .44 5.099 5.5 6-1.27 2.017-3.5 3-.289 5.64 2.5.5a4.93 4.93 0 0 1 3-.5 6.85 6.85 0 0 0 1 4 9.4 9.4 0 0 1-3 3q4.266 5.256 9.5 1 1.45 1.767 1.5 4a10.3 10.3 0 0 0 4 1.5q-2.701.476-1 2 2.96.743 6 .5a50.3 50.3 0 0 1 7-10 34 34 0 0 0 7-2q2-4.49 6-7a1428 1428 0 0 0 21-4q2.316.434 4 2 2.2-1.792 4.5 0a48.4 48.4 0 0 0 5.5-5.5q2.826-.324 5-2a370 370 0 0 1 66-1.5q2.803.997 6 2a56 56 0 0 1 8 5.5q2.166 1.171 4-.5a4.46 4.46 0 0 0-2-1.5l1.5-.5a16.7 16.7 0 0 0 7.5 2.5q1.01 2.626 1 5l1 .5a6.8 6.8 0 0 0 1.5-3 757 757 0 0 0 18.5 10q4.144 9.434 4 20a692 692 0 0 1 1 61q-2.378 8.626-8 2a9700 9700 0 0 1-21-8q-1.025-2.514-4-2v-4a6.85 6.85 0 0 0-4 1q-1.329-1.237-1-3-6.848.923-14-1-1.418-3.025-4.5-1-16.19-1.952-30-6a707 707 0 0 1-47.5 0q-15.534.002-30 2a577 577 0 0 0-48 1q-.544 1.025-1 2v1q-14.005.934-27 4a355 355 0 0 0-26 4 50.5 50.5 0 0 0-10 .5 102.4 102.4 0 0 1-14 3.5 30.2 30.2 0 0 0-10-.5q-4.943 5.5-12.5 6.5-1.545.504-1.5 2-5.257-.936-8.5 3a26 26 0 0 0-4.5-4q-1.996.999-4.5 0-4.802 1.107-4.5 6 1.763-.329 3 1-4.962 8.097-9-.5-2.547.745-5-.5l-1 1a20.2 20.2 0 0 0 6 1.5q-2.088 3.341-6 3.5v5a20.1 20.1 0 0 0-6 1.5q.686.621 1 1.5a514 514 0 0 0-3 4 31.7 31.7 0 0 0-6.5 2l-1-1a4.93 4.93 0 0 0-.5 3h-5q-.7 3.317-3 6-1.954-1.827-3 1-5.403 1.509-10 4 .163 6.58-5 1-1.846 1.726 0 3.5a4.93 4.93 0 0 1-3 .5v3q-3.618-.384-5 3-2.075-3.864-2.5 1-.279-3.804-1.5-7h-1a120 120 0 0 0-1.5-26 870 870 0 0 1 0-59 112.8 112.8 0 0 1 6.5-24q.883-5.26 5.5-8 2.754-8.25 10-13a15.4 15.4 0 0 0 3-6 70.8 70.8 0 0 0 12.5-12q2.024-2.175 5-2a185 185 0 0 0 13-10.5q3.464-1.134 6 1.5.597-5.256 4-9 5.787-.405 10-4a227 227 0 0 0 25-6.5 514 514 0 0 1 26-2.5"/><path style="opacity:1" fill="#0f1016" d="M676.5 129.5q-3.5.5-4 4a213 213 0 0 0-25-11.5 47.4 47.4 0 0 0-16-2.5q-.166-.925-1-1.5a592 592 0 0 0-66 1 131.7 131.7 0 0 1-25 8q-3.465.745-7 .5 2.688-1.214 6-1.5.734-2.646 0-4.5a1018 1018 0 0 1 31-9.5q19.259-.534 38.5-1.5 28.463-.8 54.5 10.5 7.845 3.159 14 8.5"/><path style="opacity:1" fill="#4d6ed7" d="M631.5 119.5a370 370 0 0 0-66 1.5q-2.174 1.676-5 2a48.4 48.4 0 0 1-5.5 5.5q-2.3-1.792-4.5 0-1.684-1.565-4-2a1428 1428 0 0 1-21 4q2.514-3.501 7-3 3.535.245 7-.5a131.7 131.7 0 0 0 25-8 592 592 0 0 1 66-1q.834.575 1 1.5"/><path style="opacity:1" fill="#4f70da" d="M631.5 119.5a47.4 47.4 0 0 1 16 2.5 213 213 0 0 1 25 11.5 25.6 25.6 0 0 1 6 6 757 757 0 0 1-18.5-10 6.8 6.8 0 0 1-1.5 3l-1-.5q.01-2.374-1-5a16.7 16.7 0 0 1-7.5-2.5l-1.5.5a4.46 4.46 0 0 1 2 1.5q-1.834 1.671-4 .5a56 56 0 0 0-8-5.5 169 169 0 0 1-6-2"/><path style="opacity:1" fill="#050506" d="M538.5 121.5q.734 1.854 0 4.5-3.312.286-6 1.5-4.486-.501-7 3a11.64 11.64 0 0 0-5 2 1247 1247 0 0 0-8 7 69 69 0 0 0-8.5 6 1413 1413 0 0 1-32.5-31q-1.054-3.324-4-5.5a270 270 0 0 1-22-17q-6.056-.17-11-3.5-14.153-2.828-29-3-10.013-.25-20 .5a288 288 0 0 1-21 5q-5.341 1.848-10 4.5-5.665.65-10 4-13.228 6.72-23 18-2.976-.175-5 2a70.8 70.8 0 0 1-12.5 12 15.4 15.4 0 0 1-3 6q-7.246 4.75-10 13-4.617 2.74-5.5 8a33 33 0 0 0-5 8q-3.267 4.105-5 9.5a399 399 0 0 0 1 32.5 1692 1692 0 0 0 3 59 32.5 32.5 0 0 0 .5 8q3.135 3.775 5.5 0a215 215 0 0 0 23-15.5l4-1a2316 2316 0 0 0 15-11.5 139 139 0 0 0 19-11.5 63.6 63.6 0 0 1 17-7q2.462-3.245 6-4.5l48-12a355 355 0 0 1 26-4 171.6 171.6 0 0 0 25-2.5q1.374-.417 2-1.5v-1a75.5 75.5 0 0 0 16-1q17.008.25 34-.5 3.312-.286 6-1.5 12.3-1.179 23.5 3 16.897-.985 33.5-2a11 11 0 0 1 2.5-1 758 758 0 0 1 31.5 3.5 442 442 0 0 0 33 9.5q5.638 2.12 11 5.5a346 346 0 0 1 14 3.5q5.622 6.626 8-2 1.185-1.663 1.5-4a519 519 0 0 0-2-72q-1.573-3.176-4.5-5a25.6 25.6 0 0 0-6-6q.5-3.5 4-4 9.285 5.03 12.5 15a602 602 0 0 1 2 73 97.6 97.6 0 0 1-9 21 310 310 0 0 0-18.5 23.5q50.856 24.087 89.5 65.5l9 15q22.365 56.41 16 117a765 765 0 0 1-22.5 103h-6a1373 1373 0 0 0 22.5-104q4.854-56.842-15-110a118.4 118.4 0 0 0-9-16q-36.345-39.516-84.5-62.5a579 579 0 0 0-42-18 256.5 256.5 0 0 0-51-6 4236 4236 0 0 0-103-2 323 323 0 0 0-26.5-4.5 228 228 0 0 0-22.5 4.5 1738 1738 0 0 0-39 12l-70 36a604 604 0 0 0-57 44q-21.209 19.166-25.5 47.5-1.26 63.534 2 127a471 471 0 0 1 8.5 52h-6a798 798 0 0 1-10.5-71 2116 2116 0 0 1-1-103q2.946-35.641 29.5-59.5a442 442 0 0 0 27.5-22.5 2697 2697 0 0 1-6.5-100.5 313 313 0 0 1 3.5-38.5q24.792-48.801 72.5-76.5 37.874-13.86 78-10 24.078 3.27 42 19.5l1-4a1394 1394 0 0 1-5-37 10.3 10.3 0 0 1 1.5-4q14.037-2.574 27.5 2.5 4.629 4.526 11 3A308 308 0 0 0 523 39.5q8.205 5.22 9 15a26959 26959 0 0 1-1.5 67z"/><path style="opacity:1" fill="#486bd0" d="M344.5 99.5q-3.403 3.744-4 9-2.536-2.634-6-1.5a185 185 0 0 1-13 10.5q9.772-11.28 23-18"/><path style="opacity:1" fill="#4f67b7" d="M354.5 95.5q-4.213 3.595-10 4 4.335-3.35 10-4"/><path style="opacity:1" fill="#425db1" d="M405.5 85.5v1a514 514 0 0 0-26 2.5 227 227 0 0 1-25 6.5q4.659-2.652 10-4.5a288 288 0 0 0 21-5q9.987-.75 20-.5"/><path style="opacity:1" fill="#4a69c5" d="M405.5 86.5v-1q14.847.172 29 3a164 164 0 0 1-29-2"/><path style="opacity:1" fill="#4670e6" d="M471.5 114.5a1413 1413 0 0 0 32.5 31 69 69 0 0 1 8.5-6 50.3 50.3 0 0 0-7 10 18.5 18.5 0 0 1-6-.5q-1.701-1.524 1-2a10.3 10.3 0 0 1-4-1.5q-.05-2.233-1.5-4-5.234 4.256-9.5-1a9.4 9.4 0 0 0 3-3 6.85 6.85 0 0 1-1-4 4.93 4.93 0 0 0-3 .5q-2.789 5.14-2.5-.5 2.23-.983 3.5-3-5.06-.901-5.5-6-2.559 1.212-2.5 4h-3q.771-3.297 3-6-6.462-1.455-6-8"/><path style="opacity:1" fill="#4769c7" d="M525.5 130.5q-4 2.51-6 7a34 34 0 0 1-7 2q3.953-3.489 8-7a11.64 11.64 0 0 1 5-2"/><path style="opacity:1" fill="#06061f" d="M280.5 166.5q-5.161 20.616-4 42a399 399 0 0 1-1-32.5q1.733-5.395 5-9.5"/><path style="opacity:1" fill="#4d69bb" d="M678.5 139.5q2.927 1.824 4.5 5a519 519 0 0 1 2 72q-.315 2.337-1.5 4 .846-30.48-1-61 .144-10.566-4-20"/><path style="opacity:1" fill="#4766c2" d="M285.5 158.5a112.8 112.8 0 0 0-6.5 24 870 870 0 0 0 0 59 120 120 0 0 1 1.5 26h-1a1692 1692 0 0 1-3-59q-1.161-21.384 4-42a33 33 0 0 1 5-8"/><path style="opacity:1" fill="#4869d0" d="m654.5 214.5-4-1a442 442 0 0 1-33-9.5 758 758 0 0 0-31.5-3.5q-1.353.365-2.5 1a317 317 0 0 1-44.5-2q-6.52.001-12.5 1h-7q14.466-1.998 30-2 23.943.798 47.5 0 13.81 4.048 30 6 3.082-2.025 4.5 1 7.152 1.923 14 1-.329 1.763 1 3a6.85 6.85 0 0 1 4-1v4q2.975-.514 4 2"/><path style="opacity:1" fill="#4664c2" d="m519.5 200.5-33 2a75.5 75.5 0 0 1-16 1q.456-.975 1-2a577 577 0 0 1 48-1"/><path style="opacity:1" fill="#0a0a1e" d="M526.5 200.5q5.98-.999 12.5-1a317 317 0 0 0 44.5 2q-16.603 1.015-33.5 2-11.2-4.179-23.5-3"/><path style="opacity:1" fill="#050a26" d="M519.5 200.5h7q-2.688 1.214-6 1.5-16.992.75-34 .5z"/><path style="opacity:1" fill="#070c27" d="M470.5 204.5q-.626 1.083-2 1.5a171.6 171.6 0 0 1-25 2.5q12.995-3.066 27-4"/><path style="opacity:1" fill="#496cd6" d="m417.5 212.5-48 12q-.045-1.496 1.5-2 7.557-1 12.5-6.5a30.2 30.2 0 0 1 10 .5 102.4 102.4 0 0 0 14-3.5 50.5 50.5 0 0 1 10-.5"/><path style="opacity:1" fill="#4662b4" d="m650.5 213.5 4 1a9700 9700 0 0 0 21 8 346 346 0 0 0-14-3.5q-5.362-3.38-11-5.5"/><path style="opacity:1" fill="#4870e6" d="M369.5 224.5q-3.538 1.255-6 4.5a63.6 63.6 0 0 0-17 7 139 139 0 0 1-19 11.5 514 514 0 0 1 3-4 3.65 3.65 0 0 0-1-1.5 20.1 20.1 0 0 1 6-1.5v-5q3.912-.159 6-3.5a20.2 20.2 0 0 1-6-1.5l1-1q2.453 1.245 5 .5 4.038 8.597 9 .5-1.237-1.329-3-1-.302-4.893 4.5-6 2.504.999 4.5 0a26 26 0 0 1 4.5 4q3.243-3.936 8.5-3"/><path style="opacity:1" fill="#fefefe" d="M749.5 562.5h-512a471 471 0 0 0-8.5-52 1785 1785 0 0 1-2-127q4.291-28.334 25.5-47.5a604 604 0 0 1 57-44l70-36q19.466-6.24 39-12a228 228 0 0 1 22.5-4.5 323 323 0 0 1 26.5 4.5q51.514.374 103 2a256.5 256.5 0 0 1 51 6 579 579 0 0 1 42 18q48.155 22.984 84.5 62.5a118.4 118.4 0 0 1 9 16q19.854 53.158 15 110a1373 1373 0 0 1-22.5 104"/><path style="opacity:1" fill="#486ddc" d="M327.5 247.5a2316 2316 0 0 1-15 11.5l-4 1a215 215 0 0 1-23 15.5h-4v-8q1.221 3.196 1.5 7 .425-4.864 2.5-1 1.382-3.384 5-3v-3a4.93 4.93 0 0 0 3-.5q-1.846-1.774 0-3.5 5.163 5.58 5-1 4.597-2.491 10-4 1.046-2.827 3-1 2.3-2.683 3-6h5a4.93 4.93 0 0 1 .5-3l1 1a31.7 31.7 0 0 1 6.5-2"/><path style="opacity:1" fill="#364c92" d="M279.5 267.5h2v8h4q-2.365 3.775-5.5 0a32.5 32.5 0 0 1-.5-8"/><path style="opacity:1" fill="#141312" d="m701.5 410.5-2-2a4.93 4.93 0 0 0-.5-3 85 85 0 0 1-7.5-8q-1.963-1.689-4 0a10.2 10.2 0 0 0-3-3q-3.576-3.706-9-4a102.6 102.6 0 0 1-16 3q0-2-2-2 8.13-2.949 17-4.5a4.93 4.93 0 0 0 1-2.5 463 463 0 0 0-31.5-63q-6.982-8.12-17.5-10.5a153.7 153.7 0 0 0-40-2q-10.566 6.057-18.5 15.5a191 191 0 0 0-18 28q-6.321 26.207 10.5 47a2.43 2.43 0 0 0-2 .5q2.21 1.064 2 3.5-7.407-1.581-11.5-8a626 626 0 0 1-26.5-45.5q-20.6-16.602-47-15-14.92 7.407-25.5 20.5a113.6 113.6 0 0 0-13 21q-3.752 5.023-9.5 7 1.601-3.36 5-5.5a2.43 2.43 0 0 0-2-.5 704 704 0 0 1 18-26.5 250 250 0 0 0-14-23q-12.492-7.923-27-12-20.695 2.645-40 11a159 159 0 0 0-16.5 13.5q-8.641 20.008-11.5 41.5-.63 8.064 4 14.5 2.318 1.428 5 1 1.185 1.352 3 2l-9 4-18 5a19.2 19.2 0 0 0-6-1 129.4 129.4 0 0 1 21-7 64.4 64.4 0 0 1-5-19.5 208 208 0 0 1 12.5-42.5 134.7 134.7 0 0 1 21.5-17.5 216.5 216.5 0 0 1 40-9q15.088 3.688 28 12a875 875 0 0 1 15.5 22.5 91.7 91.7 0 0 1 22.5-15.5q10.584-2.637 21 1 14.08 3.762 26 12a57.2 57.2 0 0 1 8.5 9.5 214 214 0 0 0 11 22q1.349 2.74 4 4l1.5-1q-5.592-13.899-.5-28 12.255-26.253 35.5-43.5 8.055-3.678 17-3.5 20.654.358 40 7.5a45.3 45.3 0 0 1 8.5 7.5 539 539 0 0 1 34 68 57.9 57.9 0 0 1 18 13 47 47 0 0 1 4.5 8q-.663 1.858-2 3"/><path style="opacity:1" fill="#fbfbfb" d="M430.5 377.5q-2.276-.016-3.5-2-7.028-13.032-18.5-22.5-21.276-12.075-34.5 8.5-9.803 15.387-15 33-5.415 1.422-10.5 3-2.682.428-5-1-4.63-6.436-4-14.5 2.859-21.492 11.5-41.5a159 159 0 0 1 16.5-13.5q19.305-8.355 40-11 14.508 4.077 27 12a250 250 0 0 1 14 23 704 704 0 0 0-18 26.5"/><path style="opacity:1" fill="#fcfcfc" d="M657.5 391.5q-2.217.393-4-1-10.289-21.533-27-38.5-17.625-12.864-35 0-17.748 20.746-24 47.5-3.466 1.612-7 0-16.821-20.793-10.5-47a191 191 0 0 1 18-28q7.934-9.443 18.5-15.5a153.7 153.7 0 0 1 40 2q10.518 2.38 17.5 10.5a463 463 0 0 1 31.5 63 4.93 4.93 0 0 1-1 2.5q-8.87 1.551-17 4.5"/><path style="opacity:1" fill="#fcc606" d="M560.5 403.5q9.03 2.257 18.5 2a181 181 0 0 0 25.5-2q7.875.297 15-2a543 543 0 0 1 25-4q5.495-.678 11-1.5 1.374-.417 2-1.5.513-1.258 2-1a102.6 102.6 0 0 0 16-3q5.424.294 9 4 .014 2.712-1.5 5-6.709 6.223-15.5 8.5a177 177 0 0 1-15 9 239 239 0 0 1-52 9.5q-13.509.25-27-.5-7.624-.717-14.5-3.5a142 142 0 0 1-22 3q-5.535.177-10.5-2a967 967 0 0 0-17-8q-2.464-4.675-8-5.5l-3-3a339 339 0 0 0-23.5-2.5q-6.023.002-11.5 1a104 104 0 0 0-24 2 129.5 129.5 0 0 0-18 2 3.65 3.65 0 0 1-1 1.5q-6.021.585-12 1.5-4.07.712-6 4a305 305 0 0 0-23 6.5q-18.865 20.468-46 14-11.243-3.982-21-10.5a25.6 25.6 0 0 1-6-6q-1.1-1.812-1-4a299 299 0 0 1 23-5.5l2-2a659 659 0 0 1 26-8 308 308 0 0 0 30-2.5q4.878.031 9.5 1 9.437-3.735 17.5-9a97 97 0 0 0 14-7q5.748-1.977 9.5-7a113.6 113.6 0 0 1 13-21q10.58-13.093 25.5-20.5 26.4-1.602 47 15a626 626 0 0 0 26.5 45.5q4.093 6.419 11.5 8"/><path style="opacity:1" fill="#030302" d="M657.5 391.5q2 0 2 2-1.487-.258-2 1-6.937.394-13 3a543 543 0 0 0-25 4q-7.875-.297-15 2a181 181 0 0 1-25.5 2q-9.47.257-18.5-2 .21-2.436-2-3.5a2.43 2.43 0 0 1 2-.5q3.534 1.612 7 0 6.252-26.754 24-47.5 17.375-12.864 35 0 16.711 16.967 27 38.5 1.783 1.393 4 1m-227-14a2.43 2.43 0 0 1 2 .5q-3.399 2.14-5 5.5a97 97 0 0 1-14 7 748 748 0 0 1-29 6.5 972 972 0 0 0-29 2.5h-4q-1.815-.648-3-2 5.085-1.578 10.5-3 5.197-17.613 15-33 13.224-20.575 34.5-8.5 11.472 9.468 18.5 22.5 1.224 1.984 3.5 2"/><path style="opacity:1" fill="#e2ba23" d="M413.5 390.5q-8.063 5.265-17.5 9a47.7 47.7 0 0 0-9.5-1 308 308 0 0 1-30 2.5 659 659 0 0 0-26 8l-2 2a299 299 0 0 0-23 5.5q-.1 2.188 1 4-4.334-.749-2-4.5a674 674 0 0 0 20-7.5l18-5q6.997-.835 13-4a972 972 0 0 1 29-2.5 748 748 0 0 0 29-6.5"/><path style="opacity:1" fill="#b89f32" d="M657.5 394.5q-.626 1.083-2 1.5-5.505.822-11 1.5 6.063-2.606 13-3"/><path style="opacity:1" fill="#b4982a" d="M351.5 399.5h4q-6.003 3.165-13 4z"/><path style="opacity:1" fill="#a58d2b" d="M619.5 401.5q-7.125 2.297-15 2 7.125-2.297 15-2"/><path style="opacity:1" fill="#d4ad20" d="M463.5 405.5q5.477-.998 11.5-1a339 339 0 0 1 23.5 2.5l3 3q5.536.825 8 5.5-21.705-10.317-46-10"/><path style="opacity:1" fill="#e3bd2a" d="M439.5 407.5a1898 1898 0 0 1-37 9q1.93-3.288 6-4a220 220 0 0 1 12-1.5 3.65 3.65 0 0 0 1-1.5 129.5 129.5 0 0 1 18-2"/><path style="opacity:1" fill="#170e02" d="M684.5 394.5a10.2 10.2 0 0 1 3 3 54 54 0 0 1-5 7.5 117 117 0 0 0-23 12.5 248 248 0 0 1-33 10 2376 2376 0 0 1-39 4l-24-2h-1q-1.94-.988-4.5-1a438 438 0 0 1-24.5 3q-3.914.088-7-2a141 141 0 0 0-24-13.5 259 259 0 0 1-15-5 100 100 0 0 0-14-1.5q-18.331-.62-37 2.5a1556 1556 0 0 0-48 12q-4.776 1.131-8 4.5a4511 4511 0 0 1-13 10q-28.905 10.759-54-7-1.063-1.356-3-1 1.96-1.451 2-4 9.757 6.518 21 10.5 27.135 6.468 46-14a305 305 0 0 1 23-6.5 1898 1898 0 0 0 37-9 104 104 0 0 1 24-2q24.295-.317 46 10a967 967 0 0 1 17 8q3.321 5.028 9.5 4a607 607 0 0 1 23-3q20.78 4.568 41.5 2a239 239 0 0 0 52-9.5 177 177 0 0 0 15-9q8.791-2.277 15.5-8.5 1.514-2.288 1.5-5"/><path style="opacity:1" fill="#f8c511" d="M699.5 408.5q-35.164 26.684-78 37a54.5 54.5 0 0 0-14 3v-9q7.791-.663 0-3-2.03-1.536-2-4a145 145 0 0 0-17 .5 11.3 11.3 0 0 0-3.5 1.5q-7.977-2.466-16.5-2.5a39.5 39.5 0 0 0-5-2.5l24 2a2376 2376 0 0 0 39-4 71.3 71.3 0 0 1 17-.5q7.684-5.757 16-9.5a117 117 0 0 1 23-12.5 54 54 0 0 0 5-7.5q2.037-1.689 4 0a85 85 0 0 0 7.5 8q.724 1.422.5 3"/><path style="opacity:1" fill="#140f0b" d="M318.5 407.5a19.2 19.2 0 0 1 6 1 674 674 0 0 1-20 7.5q-2.334 3.751 2 4.5a25.6 25.6 0 0 0 6 6q-.04 2.549-2 4-1.457 2.193 1 4 15.735 25.444 46 25a115.3 115.3 0 0 0 31 2.5 1798 1798 0 0 1 33-8 107 107 0 0 0 14-5.5q21.25-4.356 43-2.5a1317 1317 0 0 1 41 7.5 9035 9035 0 0 1 18 6q2.472 2.14 6 2.5 22.906 1.324 45-5a709 709 0 0 1 32-10q.834-.574 1-1.5 42.836-10.316 78-37l2 2a40.3 40.3 0 0 1-9 8.5 430 430 0 0 1-36 19 938 938 0 0 0-46 16 428 428 0 0 1-47 12 90.5 90.5 0 0 1-19 0q-49.088-19.846-102-15a273 273 0 0 1-61 15.5q-27.038-1.356-53-9.5-10.61-5.606-17.5-15.5a317 317 0 0 0-14.5-25.5q1.416-2.216 4-3a193 193 0 0 1 18-5.5"/><path style="opacity:1" fill="#e6be28" d="M621.5 445.5q-.166.926-1 1.5a709 709 0 0 0-32 10q-22.094 6.324-45 5-3.528-.36-6-2.5a107.5 107.5 0 0 0 28 0 7.3 7.3 0 0 1 3-2 15.4 15.4 0 0 0 7 1v-4q8.514.249 17-.5 7.154-4.006 15-5.5a54.5 54.5 0 0 1 14-3"/><path style="opacity:1" fill="#f3c31a" d="M313.5 431.5q25.095 17.759 54 7-1.252 2.164-4 3-10.143 3.233-21 4a3.65 3.65 0 0 1-1 1.5q3.17 1.308 4 4.5-.487 3.103-2.5 1l-1.5 1.5q8.13 2.854 16 5.5-30.265.444-46-25-.322-2.518 2-3"/><path style="opacity:1" fill="#9f893b" d="M310.5 430.5q1.937-.356 3 1-2.322.482-2 3-2.457-1.807-1-4"/><path style="opacity:1" fill="#dfb92c" d="M562.5 429.5a189 189 0 0 1-24.5 3l-10.5-.5q-1.129-1.006-1-2.5 3.086 2.088 7 2 12.294-1.155 24.5-3 2.56.012 4.5 1"/><path style="opacity:1" fill="#deb727" d="M659.5 417.5q-8.316 3.743-16 9.5a71.3 71.3 0 0 0-17 .5 248 248 0 0 0 33-10"/><path style="opacity:1" fill="#d4b22a" d="M600.5 426.5q-20.72 2.568-41.5-2a607 607 0 0 0-23 3q-6.179 1.028-9.5-4 4.965 2.177 10.5 2a142 142 0 0 0 22-3q6.876 2.783 14.5 3.5 13.491.75 27 .5"/><path style="opacity:1" fill="#f2c319" d="M473.5 409.5a286 286 0 0 1-33 3.5q-6.351.834-12 3.5a52 52 0 0 1-1 7q-3.659-.83-7 0a16.9 16.9 0 0 0-1 8h-4a25 25 0 0 0-.5-7q-11.026-3.84-23.5.5-2 1 0 2a47 47 0 0 1-11 1.5q3.224-3.369 8-4.5a1556 1556 0 0 1 48-12q18.669-3.12 37-2.5"/><path style="opacity:1" fill="#fdc602" d="M473.5 409.5q7.044.256 14 1.5a259 259 0 0 0 15 5 141 141 0 0 1 24 13.5q-.129 1.494 1 2.5l10.5.5a189 189 0 0 0 24.5-3h1a39.5 39.5 0 0 1 5 2.5q8.523.034 16.5 2.5a11.3 11.3 0 0 1 3.5-1.5 145 145 0 0 1 17-.5q-.03 2.464 2 4 7.791 2.337 0 3v9q-7.846 1.494-15 5.5-8.486.749-17 .5v4a15.4 15.4 0 0 1-7-1 7.3 7.3 0 0 0-3 2 107.5 107.5 0 0 1-28 0 9035 9035 0 0 0-18-6q.456-.975 1-2a62.7 62.7 0 0 0-11-1.5q-1.865-3.683-6-3.5v-7a41 41 0 0 0-9 .5q-2.84 1.619-1 4-24.995.75-50 .5v-3a9.86 9.86 0 0 0-6 1 18 18 0 0 0 2 3.5q-2.905.183-4 2.5a107 107 0 0 1-14 5.5 1798 1798 0 0 0-33 8q-15.72.846-31-2.5a1274 1274 0 0 1-16-5.5l1.5-1.5q2.013 2.103 2.5-1-.83-3.192-4-4.5a3.65 3.65 0 0 0 1-1.5q10.857-.767 21-4 2.748-.836 4-3 6.464-4.954 13-10a47 47 0 0 0 11-1.5q-2-1 0-2 12.474-4.34 23.5-.5.745 3.465.5 7h4a16.9 16.9 0 0 1 1-8q3.341-.83 7 0a52 52 0 0 0 1-7q5.649-2.666 12-3.5a286 286 0 0 0 33-3.5"/><path style="opacity:1" fill="#f1c21a" d="M519.5 453.5a1317 1317 0 0 0-41-7.5q-21.75-1.856-43 2.5 1.095-2.317 4-2.5a18 18 0 0 1-2-3.5 9.86 9.86 0 0 1 6-1v3q25.005.25 50-.5-1.84-2.381 1-4a41 41 0 0 1 9-.5v7q4.135-.183 6 3.5 5.567.263 11 1.5-.544 1.025-1 2"/></svg>