<svg xmlns="http://www.w3.org/2000/svg" width="860" height="825" style="shape-rendering:geometricPrecision;text-rendering:geometricPrecision;image-rendering:optimizeQuality;fill-rule:evenodd;clip-rule:evenodd"><path style="opacity:1" fill="#030202" d="M399.5 39.5q16.975 1.035 34 1.5a131 131 0 0 1 28 6q11.51 6.285 13 19.5 17.022-8.5 36-5.5 15.64 3.825 29 12.5a25.7 25.7 0 0 0 6 6q14.83 21.316 5.5 46a390 390 0 0 1-4.5 15q-8.948 21.917-26 38a462 462 0 0 0-19.5 17 81.7 81.7 0 0 0-8 13q-1.197 2.639.5 5a36 36 0 0 1 8.5 5 42.5 42.5 0 0 1 0 13q-7.495 18.247-5.5 38h3q-.576-3.248 2-5 2.674 2.285 2 6a25.7 25.7 0 0 1 11 4q2.366-1.71 5-1.5 2 2 0 4l7.5 5.5q2.167-2.483 5.5-2a17.7 17.7 0 0 0-.5 6l5.5 5.5q4.36 1.281 7-2.5 2.572 4.905-2 7.5l2 3q39.313-3.322 77.5 6.5 5.332-4.637 7.5 2a367 367 0 0 1 20 8q1.163-2.963 4-2.5l2 5q13.624 7.887 24 19.5 0 1 1 1 23.367 35.074 8 74.5a34 34 0 0 0-7.5 1.5l-1 10q-1.006 1.129-2.5 1-1.083-.626-1.5-2a50.5 50.5 0 0 1-.5-10 35.2 35.2 0 0 1-8-2 42.8 42.8 0 0 0-1.5 9q-2 4-4 0a86.6 86.6 0 0 0-1.5-13 36.4 36.4 0 0 1-8.5-9 290 290 0 0 0-11-25q-14.472-16.485-32.5-28.5-19.8-10.333-40-1-3.753 2.006-6 5.5a561 561 0 0 0 22.5 50 6382 6382 0 0 0 22 88q11.379 33.871 46.5 41.5a106 106 0 0 0 17 2q10.896 3.48 22 7 6.683 3.437 11 9.5a28.7 28.7 0 0 0-2 7q-.995 6.027-3.5 12a148 148 0 0 1-14 15q-1.056 18.16 6 35a189.6 189.6 0 0 1 18 40l6 12q1-2 2 0 .693 5.883 4.5 10a82.8 82.8 0 0 0 10.5 16l17 19a1055 1055 0 0 0 41 36l7 9q15.94 27.945 33.5 53-11.35-1.05-19.5-9-9.477-17.954-19-36-13.863-18.618-31.5-34 7.884 27.845 20.5 55 4.284 11.836 1 24l-1.5 1.5a63 63 0 0 1 3 10.5h-61a68 68 0 0 1-4.5-10l-1-33a557 557 0 0 1-6-94 80 80 0 0 1 2.5-10.5q-25.981-36.735-32.5-81.5-4.52-22.469 12-38 2.133-3.795 1-8a80.8 80.8 0 0 0-16.5-9 4.46 4.46 0 0 0-2 1.5l-11 .5-31-2q-2.795 10.806-12 17.5a152.3 152.3 0 0 1-25 14 2404 2404 0 0 0-86 35q-17.879 5.565-36 2-17.709 3.225-28.5 17.5-2.446 3.683-.5 7.5a1319 1319 0 0 1 85 7.5q.255 1.983-1 3.5a67 67 0 0 0-13 4.5 28.5 28.5 0 0 1 8.5 7 368 368 0 0 0 15 21q17.583 15.063 27 36 .65 3.246-1.5 6 4.917 5.724 6.5 15a1420 1420 0 0 1 3.5 61 94 94 0 0 1-1 13.5q6.68 9.12-2 15.5h-66a344 344 0 0 0-1-4 34 34 0 0 0 3-6.5 9.8 9.8 0 0 0-2-5q3.506-6.213 3.5-13.5 4.053-5.808 4-13l5-8a56.7 56.7 0 0 1 6.5-14.5q-30.662 10.469-51.5 35.5a68 68 0 0 0-7 12 18.2 18.2 0 0 1-7.5 3q1.02-5.429 1.5-11l5-10q22.798-28.281 58.5-35.5a39.8 39.8 0 0 1 7-8 669 669 0 0 1 24-19.5q.673-5.403 4-9.5-20.217-34.733-50.5-61.5l-2.5-5a343.4 343.4 0 0 1-50-4.5q-10.575-1.821-19.5-7.5-1-7.5 0-15 14.889-24.321 43.5-23a229 229 0 0 0-3-21 416 416 0 0 0-2.5-34q-7.023-3.455.5-4v-12a32.5 32.5 0 0 1-8-.5q-4.719-.165-3-4a50.5 50.5 0 0 1 10-.5v-27a50.5 50.5 0 0 1-10-.5 10.9 10.9 0 0 1-5-4.5 63.5 63.5 0 0 1 14 0v-15a41 41 0 0 1-9-.5q-2.04-2.906 1-5a25 25 0 0 1 7-.5 101.3 101.3 0 0 0-1.5-22q-1.517-1.255-3.5-1v6a4.93 4.93 0 0 1-3-.5q.137-6.443-6-8-10.994-2.973-21.5.5-7.908-2.71-16.5-2v5h-4v-3h-6a27 27 0 0 1-2 10q-1.783 1.393-4 1 .852-4.632 0-9a162.6 162.6 0 0 0-27 12q-.673 3.815 0 8-1.763.329-3-1-.789-2.596-3-4a182 182 0 0 1-17 7.5q2.305 1.665 2 4.5a35.9 35.9 0 0 1-10.5-2q-5.3.11-8.5 4 4.617 4.812 2 11-1.034 1.911-2.5 0a18.5 18.5 0 0 1-.5-6q-27.591-1.7-38 24 4.748 2.937 7.5 8 1.952 2.798 1 6-1.574 1.526-3.5.5-2.128-5.379-7-8.5-3.991 5.823-3 13 3.535-.245 7 .5a22.6 22.6 0 0 0 8 4q4.324 5.552-3 4-5.554-3.531-12-4.5v8h6q-.389 5.352-6 4-.249 8.514.5 17a3.65 3.65 0 0 1 1.5-1 147 147 0 0 0 9 4.5q2.84 1.619 1 4-7.491-.188-12-6.5-6.576 20.844 1.5 41a130 130 0 0 1 7.5 12l-1 2q-10.385-6.901-14-19a15.7 15.7 0 0 0-2 4 23.7 23.7 0 0 1 3.5 3q1.067 8.964 6.5 16-1.272 2.675-4 1.5-5.382-6.735-6-15.5-5.489 1.222-8 6.5 2.72 3.722 2 8.5-4.284-1.371-7.5-5-11.403 6.55-24.5 8-.16 3.604 3 5.5-7.047 3.736-7-4.5h-9a25 25 0 0 1-.5 7q-1.5 2-3 0a26.7 26.7 0 0 0-1.5-7 146 146 0 0 0-8.5 14 134 134 0 0 0-9.5 10q6.593 6.189 4.5 15-1.304 4.894-4 1 .62-8.256-6-13a82 82 0 0 1-10.5 3q-3.721 2.417-4.5 7l-1 18q-28.062 12.24-52-7-1.21-14.072.5-28a76.8 76.8 0 0 0-16-6 740 740 0 0 1-1.5 59 285 285 0 0 0 19.5 20.5q-.974 4.466-4 1a182 182 0 0 0-16.5-15.5 12.9 12.9 0 0 0-.5 5q14.017 5.01 15 20-2.835.305-4.5-2-1.628-10.379-11.5-14a114 114 0 0 1-6.5 20q-6.778 8.264-17.5 8a32.4 32.4 0 0 0 .5 8q2.55 1.359 5.5 1 .255 1.983-1 3.5-4.815 1.197-9-1.5-1.08-4.876-1-9.5-13.774-.92-24-10-12.78-14.314-19.5-32.5-3.122-1.25-6.5 0 .472-2.59.5-5-2.36 2.021-5.5 2-6.242-.224-2-4.5a6143 6143 0 0 0 8.5-3.5 133.6 133.6 0 0 0-3-25 210.5 210.5 0 0 1 0-29q.822-20.795 10.5-39a50.5 50.5 0 0 0-10-9 3.65 3.65 0 0 1 1-1.5q6.876 1.194 12 6.5a25.5 25.5 0 0 1 4-4.5q-2.781-19.529 3-38.5a40.5 40.5 0 0 0-13-.5 36.1 36.1 0 0 1-14 3.5q-.255-1.983 1-3.5 12.33-7.528 26-2.5 3.916-1.256 6-5a83 83 0 0 1-15-8.5q10.21-1.018 19 4.5l1-1a32 32 0 0 1-4-2.5q3.587-4.59 8-.5-1.054-9.408-9.5-15-.242-5.936 5.5-3a145 145 0 0 1 8.5 12 26.1 26.1 0 0 0 5.5-6.5q3.26-1.315 5 1.5v6q1.936.356 3-1a172 172 0 0 0 14-2.5l-2.5-2.5a99.7 99.7 0 0 0-.5-23 105 105 0 0 0-17 4q-.483-3.333 2-5.5a55.8 55.8 0 0 1 16-1.5q.472-2.59.5-5a18.7 18.7 0 0 1-6.5-6q.5-1.5 2-2l7 4a46.6 46.6 0 0 0 6-5.5q-1.895-3.579-5.5-5.5a4.93 4.93 0 0 1-.5-3q6.234.117 10 5a59 59 0 0 0 9-5q-4.57-2.062-4-7 3.96.681 7 3.5 10.594-1.037 19-8l14-1q-3.265-1.779-3-5.5 6.5-.5 6 6 11.448-.489 22-4.5a88 88 0 0 0-7-8.5q1.623-5.115 6-1.5a85 85 0 0 0 7 8.5q15.147-6.2 26.5-18a8.4 8.4 0 0 0 .5-4q-5.1.702-7-4 4.395-5.337 10-1 1.738-5.433.5-11-5.56-4.125-4.5-11a4.93 4.93 0 0 1 3 .5 13.24 13.24 0 0 0 3 5q6.572 1.869 7.5-4.5a30 30 0 0 1-6-7q-1.174-2.728 1.5-4l10 7 1-1.5a17.7 17.7 0 0 0-4.5-5.5q-1.387-3.951 2.5-3.5a25.5 25.5 0 0 1 4 4.5 92 92 0 0 0 4.5-12q-1.849-12.101 7-20a76 76 0 0 0 3.5-7.5q-2.32-.5-4 1.5-3.106-1.93-1-5a110 110 0 0 0 6.5-2 178 178 0 0 1 3.5-10q-.885-1.948-3-2.5-6.874.918-5.5-5.5 5.48-4.187 12.5-4-.255-1.983 1-3.5-1.077-11.232-7-21 .394-2.918 3-2a145 145 0 0 1 7.5 11.5 42.2 42.2 0 0 1 4.5-12l-4.5-7q-.633-8.432 5-2 .54 2.882 2.5 5a61.4 61.4 0 0 1 16-8.5q-.783-3.279 0-7 1-1 2 0a10.9 10.9 0 0 0 5 4.5 402 402 0 0 1 25-10 6.85 6.85 0 0 1-1-4q4.381-.531 7 3a274 274 0 0 1 37-8.5 3.65 3.65 0 0 0 1-1.5 64.3 64.3 0 0 1-9.5-16q-2.911-22.826-20-38l-.5-3.5q1.612-5.17 6-9a116 116 0 0 0 22.5-6.5l13-33q1-19.5 0-39-16.123-9.75-16-29-3.705-16.373 7-29 12.883-14.16 29.5-23"/><path style="opacity:1" fill="#97fa3e" d="M392.5 157.5q-2.128-1.426-5-1v-4q.25-13.01-.5-26a195.3 195.3 0 0 1-12-33q-3.785-30.181 23.5-43.5 34.71-7.283 66 10a612 612 0 0 1 1.5 34.5q4 6 8 0a119 119 0 0 1 7-23 6.98 6.98 0 0 1 3.5-2.5q30.427-6.19 51.5 16.5 15.756 30.714-3 60-8.927 10.437-20.5 17.5a102 102 0 0 0-16 18 73882 73882 0 0 1-54-16 393 393 0 0 0-50-7.5"/><path style="opacity:1" fill="#5c9726" d="M387.5 152.5v4q2.872-.426 5 1h-6q-.426-2.872 1-5"/><path style="opacity:1" fill="#96fa3e" d="M358.5 204.5a1906 1906 0 0 1 60 11.5l66 4q6.218.109 10 5-6.46 11.84-6.5 25.5a14.6 14.6 0 0 0-4 6q-.75 12.49-.5 25-32.362 5.19-64-3.5a417 417 0 0 0-27-3q-10.31-2.028-16.5-10.5-9.309-30.87-28.5-56.5a151 151 0 0 1 11-3.5"/><path style="opacity:1" fill="#fcfcfc" d="M310.5 326.5q7.722-.86 14.5 2 1.62 13.24-2 26a4.46 4.46 0 0 1-1.5 2q-2.822-3.35-7-4 .543 5.554 5 9a63 63 0 0 0-7.5 13q-5.344 15.604 10.5 12.5 14.614-24.864 41-36.5 2.576 1.752 2 5h5q.507-3.985-2-7 10.458-6.205 22-2.5 4.65 4.379 6 10.5-5.57-1.19-11 0 4.375 6.188 12 6a231 231 0 0 0 2 39 10.4 10.4 0 0 1-1.5 5 278 278 0 0 0-19.5 25l-10 2a16.64 16.64 0 0 0 6 5 43 43 0 0 0-5 9.5 67 67 0 0 0-10 4.5 68 68 0 0 1-5-6.5q-1-1-2 0a58.4 58.4 0 0 1 0 10q-12.663 6.825-25 13.5v-5q-1.983-.255-3.5 1a118 118 0 0 1-3.5 8q-10.77 5.511-18.5 15l-15.5 21a59 59 0 0 0-9-5q-1.671 1.834-.5 4a33 33 0 0 1 7.5 6q-1.237 1.329-3 1a920 920 0 0 1-1.5 59 53 53 0 0 1-3 14q-5.725.754-11.5 1 2.991 5.025 9 4.5-2.727 6.524-10 6 4.452 3.876-1 6-8.36 5.088-18 6.5a13.1 13.1 0 0 0-1-7q-4.008 2.888-3 8a31.1 31.1 0 0 1-11-1 515 515 0 0 1-1.5-31q-2.109-6.17-8.5-7a237 237 0 0 1-6.5 55 11.5 11.5 0 0 1-3.5 4.5 31.3 31.3 0 0 1-10 1.5q1-6-5-5l1 6a247.6 247.6 0 0 1-57-1.5q-.93-3.319-3.5-5.5-3.03.798-2.5 4a60.2 60.2 0 0 1-13-2.5 12.2 12.2 0 0 1-3.5-4.5q-.606-11.115-1-22a214 214 0 0 1 15.5-4l-.5-1q-8.683-1.832-17.5 0-1.204-12.317-7.5-23-14.582-7.703-29.5-.5-5.994 9.043-15.5 3.5-1.698-28.404 18.5-48.5a768 768 0 0 0 48.5-2.5q5.69 1.095 11.5 1.5a63.7 63.7 0 0 0 9 10q3.613 2.56 8 2.5a4.93 4.93 0 0 0-.5-3q-6.536-4.285-10.5-11a86 86 0 0 1 12-4.5q-5.713-4.857-13-6.5a18.5 18.5 0 0 0-.5-6q-1.517-1.255-3.5-1v5q-13.5 1.725-22-8.5-3.82-.99-7.5.5-2.216-1.416-3-4-1-4.5 0-9a69.8 69.8 0 0 1 16-12q6.42 5.583 14.5 3a7.3 7.3 0 0 0-2-3q-4.114-.642-7-3.5 6.903-6.1 15.5-6.5a56 56 0 0 1 3 10 7.25 7.25 0 0 0 2.5 2q4.413-7.869-2-14.5 7.174-5.148 15-2 1.255-1.517 1-3.5a454 454 0 0 0 32-4.5q8.924-2.96 16-9a287.7 287.7 0 0 0 30.5-48.5q3.404 10.175 13.5 12 .014-2.712-1.5-5a14.5 14.5 0 0 1-5-4 43.4 43.4 0 0 0-4.5-9.5 133 133 0 0 0 9-22.5q3.783.558 6-2.5 5.043-1.94 6 3-2.412 3.278-3 7.5 9.155.605 11-8.5a6.3 6.3 0 0 0-1-3 43.4 43.4 0 0 1-9.5-4.5 123 123 0 0 0-1.5-13.5q4.083-13.836 18-18.5a10.3 10.3 0 0 1 1.5 4q1.077 1.426 2.5.5 1.384-3.062 1-6.5a77.5 77.5 0 0 1 21-4 13 13 0 0 1-1 5.5q1.833 4.448 4.5.5.745-3.465.5-7"/><path style="opacity:1" fill="#0c0c0c" d="M275.5 351.5q11.88 1.11 9 12.5-18.523 8.98-11.5-10.5 1.492-.85 2.5-2"/><path style="opacity:1" fill="#111" d="M300.5 355.5q9.782-.393 3 6.5a43.4 43.4 0 0 0-9.5 4.5 50.5 50.5 0 0 0-.5 10q-3.49.38-6-2a6.85 6.85 0 0 1-4 1v-8q3.333-.483 5.5 2a9.5 9.5 0 0 1 1.5-2.5q-3.67-6.729 4-10 3.312-.286 6-1.5"/>><path style="opacity:1" fill="#131313" d="M358.5 380.5q18.016-3.729 12.5 14-6.368 9.775-16.5 3.5a3.65 3.65 0 0 1-1-1.5 25.5 25.5 0 0 1 4-4.5 79 79 0 0 0 10-2q2.822-5.963-4-6.5a13.14 13.14 0 0 1-6 2q-.201-2.687 1-5"/><path style="opacity:1" fill="#070707" d="M376.5 380.5q7.42-1.308 12.5 4 .513 9.984-9.5 8.5a6.98 6.98 0 0 1-2.5-3.5 41 41 0 0 1-.5-9"/><path style="opacity:1" fill="#1b1b1b" d="M377.5 398.5q13.764-3.533 10.5 10-1.517 1.255-3.5 1v-6q-11.688-.047-10.5 12-2.092 1.972-3-1-2.09-10.304 6.5-16"/><path style="opacity:1" fill="#0b0b0b" d="M272.5 456.5q8.227-1.727 17-.5.686.621 1 1.5-9.382 6.303-18-1"/><path style="opacity:1" fill="#101010" d="M297.5 455.5h13a25 25 0 0 1-.5 7q-2.679 5.103-7.5 1.5l-5.5-5.5q-.705-1.615.5-3"/><path style="opacity:1" fill="#0d0d0d" d="M294.5 466.5q9.991 1.241 7.5 11-1.517 1.255-3.5 1-.042-6.328-5-10.5.834-.574 1-1.5"/><path style="opacity:1" fill="#111" d="M207.5 473.5q3.64.034 7 1.5 6.844 5.098 12 11.5a4.93 4.93 0 0 1-1 2.5 374 374 0 0 1-20 11.5q-1.87-2.259 0-4.5a87.4 87.4 0 0 0 15-9.5q-4.664-7.088-13-9-1.689-1.962 0-4"/><path style="opacity:1" fill="#131313" d="M241.5 487.5q2.835-.305 4.5 2l1 13a49.3 49.3 0 0 1 8 5q1.026 1.926-.5 3.5-9.547-2.298-13-11.5a25.5 25.5 0 0 1-4.5-4 60.4 60.4 0 0 0-13.5 9.5 10.1 10.1 0 0 1-6 1.5q1.404-5.189 6-8.5a234 234 0 0 0 18-10.5"/><path style="opacity:1" fill="#0e0e0e" d="M315.5 488.5q1.983-.255 3.5 1a33.7 33.7 0 0 1 1.5 11q-1.983.255-3.5-1-.63-5.537-1.5-11"/><path style="opacity:1" fill="#d5d5d5" d="M112.5 512.5q4.775-2.532 8 2-4.58 1.73-8-2"/><path style="opacity:1" fill="#717171" d="M87.5 520.5q.708 3.047 3 5-1.064 1.356-3 1z"/><path style="opacity:1" fill="#7e7e7e" d="M83.5 524.5q1.914 1.329 0 3-1.426 1.238-3 .5a14.7 14.7 0 0 0 3-3.5"/><path style="opacity:1" fill="#fe0000" d="M721.5 824.5h-150q8.68-6.38 2-15.5a94 94 0 0 0 1-13.5 1420 1420 0 0 0-3.5-61q-1.583-9.276-6.5-15 2.15-2.754 1.5-6-9.417-20.937-27-36a368 368 0 0 1-15-21 28.5 28.5 0 0 0-8.5-7 67 67 0 0 1 13-4.5q1.255-1.517 1-3.5a1319 1319 0 0 0-85-7.5q-1.946-3.817.5-7.5 10.791-14.275 28.5-17.5 18.121 3.565 36-2a2404 2404 0 0 1 86-35 152.3 152.3 0 0 0 25-14q9.205-6.694 12-17.5l31 2 11-.5a4.46 4.46 0 0 1 2-1.5 80.8 80.8 0 0 1 16.5 9q1.133 4.205-1 8-16.52 15.531-12 38 6.519 44.765 32.5 81.5a80 80 0 0 0-2.5 10.5 557 557 0 0 0 6 94l1 33a68 68 0 0 0 4.5 10"/><path style="opacity:1" fill="#0d0d0d" d="M252.5 561.5q2.835-.305 4.5 2 .745 3.465.5 7-1.983.255-3.5-1-.35-3.42-2.5-6 .544-1.025 1-2"/><path style="opacity:1" fill="#171717" d="M119.5 561.5q5.66-.355 11 1.5 2.41 1.573 2 4.5 6.397-.697 10-6 2.461 6.85-5 8.5-3.38 1.726-7 1-2.305-1.665-2-4.5-4.941.362-9-2.5-1.647-1.155 0-2.5"/><path style="opacity:1" fill="#151515" d="M249.5 570.5q4.825 5.54 11 10 1.393 1.783 1 4-10.133-.861-14-10.5a11.8 11.8 0 0 1 2-3.5"/><path style="opacity:1" fill="#161616" d="M246.5 585.5q5.775.301 3 5.5-6.082 3.312-12.5 1.5-.926-1.423.5-2.5a25.8 25.8 0 0 1 8-2q1.129-1.006 1-2.5"/><path style="opacity:1" fill="#141414" d="M184.5 613.5q2.712-.014 5 1.5a79 79 0 0 1 11 10q-2.145 2.16-5 1a49.5 49.5 0 0 0-11.5-9.5q-.705-1.615.5-3"/><path style="opacity:1" fill="#191919" d="M175.5 625.5h11q-4.634 8.887-12 1.5.834-.575 1-1.5"/><path style="opacity:1" fill="#0e0e0e" d="M124.5 642.5q1.983-.255 3.5 1 1.214 7.136-1 14-2.53 5.923-4.5 0a38.7 38.7 0 0 0 2-15"/><path style="opacity:1" fill="#fafafa" d="M144.5 645.5q12.54 3.597 25 7.5a49.6 49.6 0 0 0 13 1.5 302 302 0 0 0-1 20q-19.497 2.892-36-7.5a119 119 0 0 1-1-21.5"/><path style="opacity:1" fill="#fb0000" d="M829.5 812.5v12h-47a63 63 0 0 0-3-10.5l1.5-1.5q3.284-12.164-1-24-12.616-27.155-20.5-55 17.637 15.382 31.5 34 9.523 18.046 19 36 8.15 7.95 19.5 9m-324 12q-28.045.98-55-2 2.74-2.47 4-6 2.643-1.144 3-4-.258-1.487 1-2a18.2 18.2 0 0 0 7.5-3 68 68 0 0 1 7-12q20.838-25.031 51.5-35.5a56.7 56.7 0 0 0-6.5 14.5l-5 8q.053 7.192-4 13 .006 7.287-3.5 13.5a9.8 9.8 0 0 1 2 5 34 34 0 0 1-3 6.5 344 344 0 0 1 1 4"/><path style="opacity:1" fill="#531e18" d="M457.5 812.5q-.357 2.856-3 4 .357-2.856 3-4"/><path style="opacity:1" fill="#4a2622" d="M454.5 816.5q-1.26 3.53-4 6 .517-4.047 4-6"/></svg>