<svg width="728.822" height="634.246" viewBox="0 0 728.822 634.246" xmlns="http://www.w3.org/2000/svg"><path style="fill:#000" d="M492.605 739.56c-2.724-2.724-3.4-4.19-3.4-7.366 0-8.101.859-8.613 49.347-29.35 79.52-34.01 166.463-66.611 259.153-97.174 65.76-21.684 147.973-45.716 156.363-45.707 7.807.008 13.574 7.074 11.1 13.602-2.723 7.187-4.11 7.756-52.463 21.522-91.958 26.18-177.27 54.932-273.5 92.176-52.715 20.402-73.696 28.928-115.153 46.795-23.835 10.272-26.253 10.695-31.447 5.501m-71.9-10.793c-4.536-2.564-6.018-7.889-3.534-12.695 2.285-4.42 29.296-31.236 33.734-33.488 7.741-3.93 15.2-.248 15.268 7.535.024 2.793-.95 4.926-4.107 9-4.642 5.99-4.052 5.398-20.065 20.097-10.634 9.76-12.05 10.74-15.5 10.713-2.088-.017-4.696-.54-5.796-1.162m231.186-7.223c-5.499-5.096-4.074-12.826 3.03-16.429 11.587-5.878 84.39-33.723 118.784-45.431 32.227-10.971 46.381-15.004 50.406-14.364 9.153 1.456 10.854 12.62 2.672 17.539-1.693 1.018-10.278 4.22-19.078 7.114-33.75 11.103-92.362 32.572-129.43 47.41-18.272 7.314-22.297 7.949-26.384 4.161M504.705 687.87c-14.967-.977-26.91-5.507-37.707-14.303-10.274-8.369-18.793-22.033-18.793-30.143 0-2.993 3.87-8.462 7.921-11.192 4.361-2.939 12.214-3.099 16.737-.34 1.738 1.059 5.605 5.234 8.595 9.276 6.497 8.785 10.405 12.242 17.747 15.7 4.61 2.17 6.875 2.583 14 2.543 7.2-.04 9.385-.474 14.293-2.843 19.895-9.603 30.468-32.797 22.826-50.073-6.47-14.626-22.09-22.284-65.12-31.923-23.324-5.225-30.455-8.165-37.93-15.64-2.68-2.68-6.154-7.483-7.721-10.673-2.607-5.31-2.848-6.733-2.848-16.8 0-9.646.325-11.774 2.645-17.28 4.594-10.902 9.075-17.373 18.855-27.221 19.679-19.818 43.453-30.165 69.18-30.11 14.64.03 18.148 1.339 21.023 7.837 4.893 11.06-3.34 18.574-23.312 21.273-14.24 1.925-20.38 3.93-30.684 10.022-12.242 7.238-19.319 13.554-22.629 20.197-2.877 5.774-3.102 7.539-1.425 11.22 1.802 3.953 7.807 6.128 29.048 10.52 29.942 6.192 47.08 12.844 60.742 23.578 10.837 8.514 18.78 20.79 22.619 34.963 2.178 8.04 3.035 29.313 1.48 36.794-.661 3.187-3.05 9.487-5.306 14-3.268 6.535-6.052 10.162-13.67 17.811-17.965 18.038-35.054 24.473-60.566 22.807m-142.457-30.715c-3.682-3.682-4.077-8.613-1.003-12.521 4.493-5.712 48.558-27.46 57.525-28.391 5.604-.583 10.605 1.296 12.405 4.66 4.127 7.71-4.262 14.103-41.902 31.93-9.518 4.507-15.123 6.566-18.775 6.896-4.768.43-5.463.213-8.25-2.574m239.233-24.17c-1.8-1.097-3.923-3.636-4.807-5.746-1.536-3.67-9.764-35.87-26.516-103.78-4.478-18.15-8.384-36.031-8.68-39.735l-.54-6.735 4.016-4.015c3.728-3.729 4.415-4.016 9.598-4.016 4.772 0 6.077.434 8.984 2.986 3.83 3.363 5.463 8.312 14.688 44.514 7.547 29.618 7.826 30.5 9.633 30.5 1.556 0 20.18-6.6 25.623-9.08 1.549-.705 2.725-2.046 2.725-3.106 0-1.026-3.354-15.466-7.452-32.09-13.795-55.95-15.854-69.977-11.278-76.826 6.08-9.101 20.154-8.613 23.801.826.473 1.223 2.934 11.573 5.47 23 5.615 25.305 18.8 77.476 29.636 117.276 11.86 43.558 12.416 46.956 8.845 53.956-3.856 7.558-12.646 10.9-20.28 7.71-4.598-1.921-7.159-6.02-8.72-13.961-3.706-18.836-11.908-48.705-13.375-48.705-1.292 0-21.612 7.451-24.914 9.136-2.74 1.398-3.694 2.446-3.333 3.661 3.883 13.08 8.708 34.881 8.732 39.454.066 12.908-11.782 20.918-21.856 14.776m105.522-27.388c-4.493-1.995-7.67-5.682-9.8-11.372-3.304-8.831-20.537-68.23-25.936-89.394-8.328-32.652-8.547-38.323-1.738-45.13 1.785-1.784 14.027-8.934 27.21-15.892 39.906-21.062 40.455-21.272 48.077-18.361 7.31 2.792 10.34 9.873 6.978 16.31-3.233 6.188-10.284 10.907-36.09 24.15-9.9 5.081-18.613 9.743-19.363 10.36-.961.792-1.2 2.51-.808 5.818.894 7.545 6.923 29.031 8.294 29.558.691.265 11.07-3.418 23.067-8.184 23.632-9.389 29.497-10.576 34.87-7.055 3.954 2.59 5.902 8.068 4.516 12.696-1.85 6.176-7.236 9.67-32.007 20.761-17.395 7.79-23.068 10.762-23.068 12.084 0 2.244 6.313 22.87 9.125 29.812 2.607 6.434.217 6.707 30.06-3.432 23.033-7.826 29.069-8.84 34.847-5.851 3.16 1.634 5.968 6.095 5.968 9.483 0 2.779-2.253 6.992-5.155 9.64-5.256 4.795-22.912 11.978-50.079 20.371-16.744 5.174-23.561 6.027-28.968 3.628m-392.487-22.15c-3.659-1.538-5.311-4.135-5.311-8.345 0-2.27 1.004-3.848 4.18-6.566 2.299-1.968 4.553-3.578 5.01-3.578s2.739-.87 5.07-1.932c5.423-2.47 15.747-6.68 49.473-20.173 28.428-11.373 32.498-12.378 38.195-9.432 4.596 2.377 5.37 6.897 2.099 12.26-2.56 4.198-11.542 8.695-42.587 21.321-40.77 16.582-49.63 19.178-56.129 16.445m493.189-6.403c-5.87-.974-10.288-4.01-12.466-8.564-2.464-5.151-16.355-55.423-25.429-92.022-8.651-34.897-8.686-43.167-.207-50.155 8.362-6.893 60.763-34.635 67.435-35.702 8.578-1.372 16.167 4.467 16.167 12.44 0 8.37-8.683 15.198-41.5 32.63-17.936 9.526-17.86 9.456-17.198 15.9.898 8.75 6.798 31.488 8.322 32.073.774.297 8.713-2.506 17.642-6.23 40.114-16.729 42.06-17.446 47.336-17.451 14.17-.014 17.945 13.47 6.177 22.066-5.48 4.003-33.6 18.072-49.78 24.905-6.874 2.904-13.03 5.785-13.68 6.402-.903.857-.164 4.623 3.136 15.973 2.375 8.168 4.989 15.522 5.81 16.342 1.321 1.323 2.782 1.13 12.863-1.702 6.254-1.757 20.46-6.074 31.568-9.593 11.185-3.543 22.027-6.398 24.3-6.398 8.217 0 12.874 5.092 11.678 12.767-1.217 7.807-11.442 13.783-40.674 23.772-6.43 2.197-47.337 13.692-47.458 13.336-.023-.069-1.842-.424-4.042-.79m112.262-40.651c-1.505-.817-3.404-2.775-4.219-4.35-3.515-6.798-23.829-92.35-33.017-139.055-1.999-10.16-3.835-18.672-4.081-18.918-.484-.484-2.474.135-15.445 4.803-9.673 3.48-16.828 3.938-22.993 1.471-7.13-2.852-10.429-10.049-7.653-16.691 2.012-4.817 7.323-8.11 25.335-15.707 54.583-23.024 82.517-32.66 108.806-37.533 11.726-2.174 26.768-1.693 30.806.984 7.76 5.146 7.534 18.01-.387 22.105-1.678.868-9.433 2.643-17.233 3.945-7.8 1.301-20.903 4.454-29.12 7.006-18.078 5.616-40.528 14.083-42.497 16.029-1.246 1.231-1.141 3.23.799 15.197 3.713 22.905 8.754 46.702 19.124 90.28 14.376 60.414 14.19 59.334 11.185 64.937-3.373 6.29-12.95 9.002-19.41 5.497m-537.469-50.969c-11.992-3.23-21.082-9.151-31.889-20.77-38.022-40.878-43.562-127.522-11.713-183.196 12.723-22.241 26.99-35.64 44.852-42.123 21.543-7.82 42.868-.369 51.566 18.017 4.638 9.804 3.66 17.257-3.002 22.862-7.078 5.956-15.152 4.22-22.107-4.756-7.535-9.723-14.412-10.552-25.361-3.06-10.313 7.058-21.662 24.415-27.51 42.075-8.916 26.92-9.35 67.06-1.007 93.27 11.37 35.726 31.071 54.76 49.424 47.75 13.139-5.017 27.871-24.683 32.989-44.035 2.057-7.78 3.004-24.149 1.604-27.719-1.045-2.664-1.142-2.691-4.853-1.367-2.082.743-8.511 3.48-14.286 6.084-11.625 5.24-16.743 5.948-21.72 3.009-3.613-2.135-7.28-8.142-7.28-11.925 0-7.52 4.682-12.433 17.796-18.672 13.714-6.524 49.468-20.769 53.916-21.48 8.01-1.28 15.276 4.844 15.284 12.886.004 4.352-1.166 7.03-4.751 10.877-2.453 2.632-2.495 2.93-1.823 13 .945 14.148 4.396 52.563 5.594 62.28 2.148 17.418 1.072 21.91-6.13 25.585-6.772 3.455-14.192 1.933-19.119-3.922-1.45-1.725-2.78-3.134-2.953-3.132s-4.814 4.395-10.314 9.762c-10.832 10.571-19.475 15.95-30.053 18.706-7.209 1.877-20.172 1.875-27.154-.006M504.62 437.59c-3.855-1.744-7.078-5.768-8.407-10.497-2.37-8.433-8.25-39.41-11.983-63.134-7.505-47.686-8.174-51.499-12.6-71.826-2.434-11.18-4.425-22.332-4.425-24.783 0-8.29 3.482-13.076 13-17.868 1.925-.97 7.44-3.753 12.255-6.185 12.209-6.167 21.62-8.488 36.745-9.065 14.174-.54 21.188.774 31.254 5.855 15.492 7.82 23.805 22.98 22.413 40.872-1.402 18.01-10.807 34.577-30.544 53.801-8.469 8.25-10.282 10.496-9.1 11.276.812.535 5.977 3.512 11.477 6.614 20.115 11.346 49.548 31.529 56.415 38.686 4.435 4.622 5.377 12.242 2.15 17.382-4.144 6.598-12.273 9.018-19.348 5.758-1.77-.815-9.067-5.758-16.217-10.983-20.106-14.695-59.178-37.19-61.158-35.21-.798.799 1.877 18.154 6.246 40.52 2.98 15.25 3 17.997.162 22.166-4.647 6.828-12.004 9.485-18.335 6.62m13.725-111.303c3.498-2.57 10.41-8.76 15.36-13.757 20.83-21.026 24.141-38.241 8.784-45.675-9.96-4.821-27.075-3.33-38.784 3.38-5.05 2.893-5.213.273 2.614 42.224 3.378 18.103 3.48 18.5 4.744 18.5.507 0 3.784-2.103 7.282-4.672m165.981 95.962c-6.187-3.048-8.654-9.38-17.647-45.29-9.232-36.868-13.962-60.432-24.988-124.5l-3.614-21-3.833-3.54c-11.04-10.197-6.016-23.284 12.3-32.038 13.025-6.227 21.904-8.174 37.66-8.258 15.28-.082 22.062 1.278 33.5 6.72 16.394 7.797 25.568 17.821 30.925 33.792 5.926 17.665 1.451 35.56-14.584 58.324-7.073 10.04-30.058 33.556-39.586 40.5-4.282 3.121-6.186 5.178-6.214 6.71-.075 4.135 7.867 38.176 14.594 62.549 3.895 14.112 3.842 16.833-.422 21.901-4.739 5.631-11.78 7.239-18.09 4.13m9.277-133.285c15.978-15.545 25.815-30.723 27.355-42.206 2.31-17.214-20.079-32.87-43.253-30.249-8.148.922-9.5 1.779-9.5 6.017 0 7.285 10.865 72.789 12.517 75.461 1.189 1.924 2.762.822 12.88-9.023M630.474 398.53c-4.208-1.898-6.835-6.365-8.786-14.94-.869-3.821-3.778-15.988-6.465-27.039-10.299-42.348-18.057-84.039-18.36-98.67-.181-8.667 1.228-12.294 5.668-14.59 3.747-1.937 10.643-1.915 14.438.047 4.088 2.114 5.553 6.283 9.783 27.844 7.326 37.338 9.508 48.058 16.527 81.218 8.052 38.034 8.08 38.726 1.794 43.792-4.33 3.488-10.025 4.4-14.599 2.338m160.035-14.526c-5.694-3.472-6.455-5.279-13.296-31.544-10.96-42.086-18.206-79.404-26.484-136.413l-3.545-24.413-3.967-3.395c-10.814-9.256-6-22.272 11.66-31.528 30.467-15.97 68.285-10.655 90.095 12.66 15.176 16.223 18.3 37.409 8.636 58.569-7.427 16.26-28.346 40.842-49.129 57.729-5.269 4.282-9.274 8.29-9.274 9.28 0 2.347 3.882 19.447 11.128 49.011 6.662 27.182 7.028 32.038 2.765 36.662-4.945 5.364-12.95 6.82-18.59 3.382m7.588-131.01c10.425-9.186 21.149-22.565 26.3-32.812 3.527-7.015 4.167-9.229 4.194-14.5.037-7.53-2.34-12.64-8.444-18.155-8.171-7.382-21.974-11.439-34.395-10.109-10.33 1.106-9.972-.039-7.031 22.542 4.321 33.181 9.055 60 10.59 60 .485 0 4.438-3.135 8.786-6.966M992.308 382.29c-3.845-1.95-8.631-8.864-10.22-14.762-.857-3.185-.755-4.614.52-7.288 1.956-4.103 5.57-5.598 12.072-4.994 4.332.403 5.462 1.012 8.747 4.714 4.654 5.244 6.46 10.699 5.196 15.686-1.695 6.684-9.76 9.967-16.315 6.644m-94.834-75.814c-6.127-2.663-7.261-6.16-7.266-22.405-.004-16.382.671-13.47-14.977-64.612-17.11-55.917-18.023-59.804-15.35-65.253 3.621-7.386 13.817-10.629 21.282-6.768 3.329 1.721 2.208-1.201 16.996 44.3 6.128 18.854 11.526 34.042 11.997 33.751.47-.29 2.572-4.241 4.671-8.78 18.011-38.937 50.022-99.353 54.922-103.654 10.847-9.525 28.097-2.77 25.915 10.147-.378 2.234-9.105 20.756-19.393 41.16-18.21 36.112-37.67 77.081-46.01 96.87-2.266 5.376-5.737 15.951-7.714 23.5-1.977 7.55-4.445 15.142-5.484 16.87-3.474 5.78-12.399 8-19.589 4.874m87.808-67.667c-6.369-4.372-6.114-10.16.643-14.586 4.073-2.669 20.526-2.52 25.07.227 5.486 3.315 5.496 9.73.02 13.806-2.13 1.586-4.725 2.095-12.5 2.452-9.058.417-10.074.27-13.234-1.899zm-394.042-13.1c-14.028-7.193-8.86-30.135 6.789-30.135 9.28 0 16.176 6.638 16.176 15.573 0 6.71-2.988 12.255-7.974 14.799-5.129 2.616-9.563 2.546-14.99-.237" transform="translate(-309.205 -108.58)"/></svg>