<?xml version="1.0" encoding="UTF-8"?>
<svg id="Layer_1" xmlns="http://www.w3.org/2000/svg" version="1.1" viewBox="0 0 1274.28003 1254.12">
  <!-- Generator: Adobe Illustrator 29.5.1, SVG Export Plug-In . SVG Version: 2.1.0 Build 141)  -->
  <g>
    <polygon points="495.52002 600.94 404.64001 494.60999 424.52002 439.07001 348.44 513.65002 499.62 686.14001 490.15002 693.07996 335.22998 527.42004 335.22998 780.47998 403.70001 780.47998 403.70001 624.60999 481.95001 716.43005 556.09998 638.81006 606.58002 548.88 575.97998 643.54004 575.97998 783.32007 618.89001 783.32007 646.65997 755.87 646.65997 482.92999 610.69 435.60004 495.52002 600.94" style="fill: #fdfdfd;"/>
    <polygon points="756.12 627.83002 664.08002 506.67004 664.08002 659.62 730.01001 659.62 756.12 627.83002" style="fill: #fdfdfd;"/>
    <polygon points="664.08002 731.57996 713.27997 677.03003 664.08002 677.03003 664.08002 731.57996" style="fill: #fdfdfd;"/>
    <polygon points="661.73999 436.06 735.69995 518.72003 831.08997 518.72003 841.80005 538.79999 825.72998 554.87 765.48999 554.87 817.69995 617.12 776.87 663.64001 830.07996 663.64001 842.13 684.05005 826.06995 701.45996 740.71997 701.45996 664.08002 781.45007 886.30994 781.45007 947.89001 734.58997 947.89001 647.23999 912.75 607.41003 949.55994 571.27002 949.55994 487.92999 890.66003 436.06 661.73999 436.06" style="fill: #fdfdfd;"/>
    <polygon points="433.26001 716.76001 420.22998 729.56006 420.22998 776.88 455.65997 739.62 433.26001 716.76001" style="fill: #fdfdfd;"/>
    <polygon points="396 799.28003 365.37 799.28003 126.48999 1038.62 126.48999 1069.47998 154.60999 1067.65002 406.28998 814.14001 396 799.28003" style="fill: #fdfdfd;"/>
    <path d="M225.76001,1069.47998s21.12-.02002,22.08002,0,311.62-312.92004,311.62-312.92004l-1.28003-39.80005-114.53998,118.18994h-16l-201.88,201.88v32.66003-.00989Z" style="fill: #fdfdfd;"/>
    <polygon points="559.45001 776.88 209.12 1131.20996 278.22998 1131.20996 605.84998 797.52002 559.45001 797.52002 559.45001 776.88" style="fill: #fdfdfd;"/>
    <polygon points="850.12 380.48004 1096.84998 130.29999 1068.12 130.29999 782.68994 416.48999 850.12 416.48999 850.12 380.48004" style="fill: #fdfdfd;"/>
    <polygon points="930.57996 418.03003 1177.30005 170.92004 1127.12 170.92004 884.98999 416.48999 930.57996 418.03003" style="fill: #fdfdfd;"/>
    <polygon points="939.77002 468.10999 941.51001 470.31 978.07996 471.28003 1240.90002 208.84003 1240.90002 164.79004 939.77002 468.10999" style="fill: #fdfdfd;"/>
    <polygon points="965.67004 511.91003 965.67004 545.56 1156.55994 353.25 1154.97998 322.01001 965.67004 511.91003" style="fill: #fdfdfd;"/>
  </g>
  <polygon points="872.03003 810.57007 886.10999 796.08997 857.95996 796.08997 872.03003 810.57007" style="fill: #fdfdfd;"/>
  <path d="M1054.04004,843.55005c-30.62,53.41003-71.96997,100.06995-121.20996,137.17004l34.68005,35.77002c48.56995-37.68005,90.07996-83.92004,122.18994-136.42993l-35.67004-36.52002.01001.00989ZM912.69995,995.08997c-73.85999,49.71997-163.25,78.80005-259.57001,78.80005-79.01001,0-153.37-19.56995-218.29999-54.04004l-11.69,12.54004,2.59998,38.56006c68.46002,33.82996,145.69,52.84998,227.40997,52.84998,109.70996,0,211.33997-34.29004,294.52002-92.63l-34.97998-36.06006.01001-.02002ZM1155.98999,533.92004l-45.19995,45.35999v.03003c1.38,14.17999,2.06995,28.58002,2.06995,43.09998,0,70.78003-16.56995,137.72998-46.13,197.34998l36.30005,37.18005c38.38-70.93005,60.15002-152.01001,60.15002-238.14001,0-28.95001-2.46997-57.28003-7.19995-84.88h.00989ZM1149.95996,504.04004c-4.06006-17.32001-9.03003-34.28998-14.84998-50.88h-.03003l-41.43005,39.70001c5.42004,17.82001,9.75,36.06,12.91003,54.71002l43.39001-43.53003h.01001Z" style="fill: #fdfdfd;"/>
  <g>
    <path d="M659.84998,1178.28003l7.75,15.84998c-7.40997.27002-14.90002.37-22.44.37-101.73999,0-200.90997-29-288.16998-79.41003l10.85999-12.27002c84.32001,48.04004,179.77002,75.64001,277.31,75.60999,4.90997,0,9.79999-.05005,14.69-.16003v.01013Z" style="fill: #fdfdfd;"/>
    <path d="M779.65002,1164.59998c2.81006,4.14001,6.51001,9.56006,9.75,14.31006-18.45996,4.14001-37.33997,7.48999-56.62,9.98999l-7.96997-15.18994c18.69995-2.26001,36.96997-5.28003,54.83997-9.10999v-.00012Z" style="fill: #fdfdfd;"/>
    <path d="M916.90002,1117.12l10.76001,12.58997c-18.06006,9.14001-36.78003,17.37-56.12,24.67004l-11.33997-12.91003c19.56995-7.14001,38.47998-15.30005,56.69995-24.34998Z" style="fill: #fdfdfd;"/>
    <path d="M1171.09998,852.90002l11.97998,12.38v.03003c-6.67004,14.55005-13.96997,28.76001-21.88,42.59998l-12.03003-11.33997c7.93994-14.18005,15.23999-28.73999,21.93994-43.66003l-.00989-.01001Z" style="fill: #fdfdfd;"/>
    <path d="M1196.83997,457.06c-6.82996-22.91998-15.06006-45.27997-24.58997-66.97998l12.93005-10.46002c9.37,20.92999,17.57996,42.46997,24.51001,64.53003l-12.84998,12.90997h-.00012Z" style="fill: #fdfdfd;"/>
    <path d="M1236.38,618.37c0,69.57996-11.66003,136.47998-33.59998,198.45996l-15.14001-5.33997c21.32996-60.29004,32.67004-125.31995,32.67004-193.13,0-45.67999-5.5-90.27002-15.84998-133.10999l13.22998-13.28003c12.18994,46.95001,18.69995,96,18.69995,146.38l-.01001.02002Z" style="fill: #fdfdfd;"/>
  </g>
  <g>
    <path d="M88.48999,794.73999c6.98001,23.05005,15.38,45.55005,25.10001,67.38,9.37,21.08997,20,41.56006,31.73999,61.31995l11.82001-11.33997c-23.37-39.92004-42.04001-82.72998-55.04999-127.63l-13.60001,10.28003-.01001-.01001Z" style="fill: #fdfdfd;"/>
    <path d="M108.04001,459.45001c-17.76999,52.92999-27.45999,109.73999-27.45999,169.33002,0,1.89001.03,3.77002.03,5.66003v.07996c0,30.56995,2.63,60.59998,7.67999,89.97998l-13.60001,14.29004c-6.56-33.85999-10.01001-68.68005-10.01001-104.18005v-.07996c0-1.90997-.03-3.82001-.03-5.73999,0-64.16003,10.92001-125.21997,30.82999-181.85999l12.56,12.53998.00003-.02002Z" style="fill: #fdfdfd;"/>
    <path d="M133.16,397.67999c-5.84,12.08002-11.23001,24.42999-16.12,37.02002l-12.22-12.51001c5.04999-12.42999,10.54001-24.65002,16.47-36.62l11.87,12.10999Z" style="fill: #fdfdfd;"/>
    <path d="M195.63,297.40002c-18.95999,24.21997-35.95999,50.03003-50.70001,77.28003l-11.70999-11.87c14.76999-26.69,31.66-52.04999,50.38-75.90002l12.03,10.48999Z" style="fill: #fdfdfd;"/>
    <path d="M328.08997,174.46002l-11.90002-11.17999c29.45001-20.08002,60.67999-37.58002,93.29999-52.19l9.84998,13.07001c-31.87,14.04999-62.44,30.90997-91.25,50.29999h.00006Z" style="fill: #fdfdfd;"/>
    <path d="M195.81,547.12l.95999-1.03998c-4.73001,21.90997-7.91,44.40002-9.42999,67.34998l-50.79999,52.87994c-.29001-7.19995-.45001-14.42004-.45001-21.69995,0-47.94,6.53-94.35999,18.78-138.39001l37.01999,36.96997,3.92999,3.92999-.00998.00006Z" style="fill: #fdfdfd;"/>
    <path d="M215.59998,481.71002c-4.94,13.22998-9.29999,26.73999-13.04001,40.52997l-40.04999-41c4.35999-13.15002,9.26999-26.04999,14.66-38.69l38.42999,39.16998v-.00995Z" style="fill: #fdfdfd;"/>
    <path d="M286.60999,280.51001l35.03003,36.14001c-39.89001,40.04999-72.53003,87.34998-95.73999,139.79999l-37.67999-38.08002c25.10001-51.34003,58.47998-97.89001,98.40002-137.85999h-.01007Z" style="fill: #fdfdfd;"/>
    <path d="M972.31995,155.5l-8.09998,7.85999-10.68005-1.03998-40.68994.03003-26.93005,26.28998-36.62,37.91998c-60.70996-29.40002-128.78003-45.85999-200.69-45.85999-118.5,0-226.59003,44.75-308.38,118.28998l-35.08002-36.14001c90.91003-82.38,211.33997-132.54999,343.46997-132.54999,79.54004,0,154.82996,18.21997,222.02002,50.66998v-62.06c-67.43005-28.47-141.52002-44.22-219.31-44.22-63.39001,0-125.72003,10.81-184.52002,30.94l-10.57001-13.23001c62.01001-21.85999,127.92999-33.62,195.08997-33.64999,118.66003,0,229.03003,35.61002,321,96.75003h-.00989Z" style="fill: #fdfdfd;"/>
  </g>
  <polygon points="478 0 535.58997 62.38 519.27002 66.86002 466.47998 10.23001 478 0" style="fill: #fdfdfd;"/>
  <polygon points="411.45001 24.31003 466.47998 82.22 449.83997 87.02002 400.57001 34.87003 411.45001 24.31003" style="fill: #fdfdfd;"/>
  <polygon points="345.85999 53.43002 398.96997 107.18002 382.96997 115.18002 336.58002 64.94 345.85999 53.43002" style="fill: #fdfdfd;"/>
  <polygon points="216.91998 77.74002 322.17999 187.16003 311.94 199 206.67999 89.26001 216.91998 77.74002" style="fill: #fdfdfd;"/>
  <polygon points="122.54001 181.72003 220.76001 284.10999 209.88 294.67004 111.34 192.92004 122.54001 181.72003" style="fill: #fdfdfd;"/>
  <polygon points="241.88 614.92999 252.10999 626.13 11.51999 865.45007 0 853.95007 241.88 614.92999" style="fill: #fdfdfd;"/>
  <polygon points="268.42999 836.01001 277.34998 845.51001 70.70999 1052.94006 60.47 1041.42004 268.42999 836.01001" style="fill: #fdfdfd;"/>
  <path d="M569.71997,199s11.22998,10.65002,10.70001,11.44-135.47998,136.01001-135.47998,136.01001l-10.44-11.22998,135.21997-136.22003Z" style="fill: #fdfdfd;"/>
  <g>
    <polygon points="82.54001 338.5 315.14001 575.58002 319.29999 575.58002 319.29999 558.29999 91.5 328.26001 82.54001 338.5" style="fill: #fdfdfd;"/>
    <path d="M201.31,528.54999c-.39999,1.70001-.95999,4.09003-1.45999,6.21002l-4.22,4.65002L59.52002,403.44006l9.59-10.21997,132.19998,135.33997v-.01007Z" style="fill: #fdfdfd;"/>
    <polygon points="419.32001 417.38 420.65002 418.73999 339.48999 498.12 329.54999 487.42004 410.33997 408.10999 419.32001 417.38" style="fill: #fdfdfd;"/>
    <polygon points="552.23999 290.07001 439.02002 400.78003 438.94 400.71002 428.66998 390.10999 541.79999 279.10004 552.23999 290.07001" style="fill: #fdfdfd;"/>
  </g>
  <polygon points="975.40002 686.58997 985.93005 697.12 1274.28003 407.64001 1264.5 396.73999 975.40002 686.58997" style="fill: #fdfdfd;"/>
  <polygon points="963.71997 755.03003 974.97998 764.82996 847.81995 892.87 837.28003 882.34998 963.71997 755.03003" style="fill: #fdfdfd;"/>
  <path d="M1083.30994,655.76001l-88.56995,89.18005c-3.37-3.64001-7.62-8.15002-10.19995-10.85999l88.59998-89.20996,10.17004,10.89001-.00012-.00012Z" style="fill: #fdfdfd;"/>
  <polygon points="1243.06995 1008.03003 1233.30005 1019.30005 969.16003 749.17004 979.93005 738.37 1243.06995 1008.03003" style="fill: #fdfdfd;"/>
  <polygon points="833.17004 885.57996 1055.90002 1115.26001 1046.75 1125.67004 822.71997 894.70007 833.17004 885.57996" style="fill: #fdfdfd;"/>
  <polygon points="807.82996 924.45996 819.29004 935.51001 695.71002 1058.06006 685.89001 1047.01001 807.82996 924.45996" style="fill: #fdfdfd;"/>
  <polygon points="162.66 123.23004 151.78 134.54004 425.23999 414.64001 435.63 405.06 162.66 123.23004" style="fill: #fdfdfd;"/>
  <polygon points="1162.06995 818.12 1153.41003 828.04004 1223.09998 898.42004 1232.58997 887.79004 1162.06995 818.12" style="fill: #fdfdfd;"/>
  <polygon points="1098.35999 963.71997 1089.70996 973.64001 1194.73999 1081.20996 1204.22998 1070.57996 1098.35999 963.71997" style="fill: #fdfdfd;"/>
  <polygon points="1046.08997 1015.58997 1037.43005 1025.51001 1136.38 1128.07007 1145.87 1117.44006 1046.08997 1015.58997" style="fill: #fdfdfd;"/>
  <polygon points="951.68994 1121.58997 940.80005 1129.17004 988.44995 1179.78003 997.93005 1169.16003 951.68994 1121.58997" style="fill: #fdfdfd;"/>
  <polygon points="893.07996 1156.64001 882.18005 1164.22998 942.5 1227.62 951.98999 1217 893.07996 1156.64001" style="fill: #fdfdfd;"/>
  <polygon points="827.43994 1180.80005 816.55005 1188.38 880.35999 1254.12 889.84998 1243.48999 827.43994 1180.80005" style="fill: #fdfdfd;"/>
</svg>