<svg xmlns="http://www.w3.org/2000/svg" width="800" height="630" style="shape-rendering:geometricPrecision;text-rendering:geometricPrecision;image-rendering:optimizeQuality;fill-rule:evenodd;clip-rule:evenodd"><path style="opacity:.836" fill="#030603" d="M279.5-.5h3q-.356 5.865 2.5 11 2.327-9.084 11.5-10a6.85 6.85 0 0 1-1 4q-3.899 2.098-4.5 6 5.106-3.885 11-2 .926 1.425-.5 2.5-4.212.897-7.5 3.5-.244 2.83 2.5 4.5 23.616 15.807 51 23.5a47.1 47.1 0 0 1-3.5 14l-1 18q-20.614 4.364-24.5 25-22.074.417-37.5 16a42.8 42.8 0 0 0-6.5 12 351.3 351.3 0 0 1 75 10.5 1998 1998 0 0 0 48 15 393 393 0 0 0 69-1 150 150 0 0 1 14-15q15.87-7.449 21.5 9.5 6.136 24.62 4 50a21.3 21.3 0 0 1-4 5 79 79 0 0 1-3 12q-2.381 1.84-4-1a50.6 50.6 0 0 0-6-12 68.6 68.6 0 0 1-6 15 78.4 78.4 0 0 1-10-11q-.986 5.257-4.5 9l-3-1.5a111 111 0 0 0-8-9.5 120 120 0 0 1-7 13q-6.76-5.514-9-14a30.3 30.3 0 0 0-10-.5 524 524 0 0 1 11.5 18.5q4.534 5.017 11 7 3.485-7.431 7-15a94.6 94.6 0 0 1 11 12 77 77 0 0 1 4-9q1.517-1.255 3.5-1a514 514 0 0 0 3.5 18q4.426 2.364 9.5 2v23q-40.293 6.035-76-13.5a1796 1796 0 0 0-49-29q-22.188-13.548-48-11-7.161 1.947-10.5 8.5 1.926 20.268 15 36 15.468 17.481 34.5 30.5l69 45q70.84 51.188 28.5 128.5-36.526 54.515-99 75a1920 1920 0 0 1-2.5 67l1 2a2478 2478 0 0 0 48.5-9q4.448 1.833.5 4.5a505 505 0 0 1-54 8.5 1581 1581 0 0 0 1-72 881 881 0 0 1-36.5 3 545.4 545.4 0 0 0-13.5 92q30.654-.678 61 3.5 1.984 1.224 2 3.5h-10a865 865 0 0 0-57-4 831 831 0 0 1 7.5-73q2.758-12.03 5.5-24-43.089-5.107-78-30.5-12.975-11.45-20-27l1-2.5q22.615 21.846 52.5 32a299 299 0 0 0 3-37 10.3 10.3 0 0 1 1.5-4q4.311 3.116 6.5 8a1180 1180 0 0 1 19.5 36q5.017 1.588 10-.5a4.93 4.93 0 0 0 1-2.5 365 365 0 0 1-6-45q-.183-4.786 1.5-9a494 494 0 0 1 26 34l8.5 8.5q2.112.473 4-1a290 290 0 0 0 15-13.5q-15.382-17.262-20.5-40a41 41 0 0 1-.5-9 605 605 0 0 1 42 12.5q2.418 1.08 4.5-.5 14.598-38.341 4-78a116 116 0 0 0-11.5-13.5q-46.625-37.005-103-58-26.264-14.004-47-35.5-16.064 34.318-53 42.5 14.775 17.565 17 40.5-.783 11.31-3.5 22a67.7 67.7 0 0 1 19.5-4q3.696.135 6.5 2 3.468 7.719-1.5 14.5 3.132 6.636 9.5 10.5 2.8 9.671-6.5 14.5-19.17 13.742-41 5-4.4-3.397-6.5-8.5a107.2 107.2 0 0 1-4-23 261 261 0 0 0-38.5-27.5q-14.103-9.623-17.5-26.5-9.74-9.48-11.5-23 .84-9.342 9-14-11.328-30.246.5-60 14.88-20.832 40.5-24.5a173 173 0 0 1 22 0q12.327-15.163 32-16a97 97 0 0 1 12-16.5q-7.304-4.854-16-6.5a953 953 0 0 0-32-2.5q-12.126-23.072-38-27 .781-10.906-6.5-19A252 252 0 0 0 92.5 84a3.94 3.94 0 0 1 1-2 504 504 0 0 0 30-9A56.3 56.3 0 0 0 138 62.5q1.906-5.499-3.5-7.5a18.4 18.4 0 0 0-6-.5q-.255-1.983 1-3.5 10.305-2.2 14.5 7.5a15.6 15.6 0 0 0 3.5-7.5 56 56 0 0 1-4-8.5q4.158-.42 7.5 2 1.75 8.52-2.5 16 8.565 2.622 12-5.5 4.75-1.25 3.5 3.5a11.5 11.5 0 0 1-3.5 4.5 198 198 0 0 1-11 4 1102 1102 0 0 0 31.5 46.5q14.718 18.237 35.5 28.5a115 115 0 0 0 9.5 3.5q12.984-7.977 26-16Q281.55 81.352 286.5 25a59 59 0 0 1-1.5-7.5q-8.655-7.215-5.5-18m135 200q.895-.958 2.5-1 6.504.601 12.5 2.5a137 137 0 0 0-4 8.5q-5.53-5.033-11-10"/><path style="opacity:.816" fill="#696969" d="M489.5.5q21.981-4.388 30.5 16a114 114 0 0 1 3 13q10.395 9.364 4 22a202 202 0 0 1-10.5 16q12.313 25.025-11 39.5-2 1-4 0-1.712-1.112 0-2.5a54.5 54.5 0 0 0 11.5-10q6.65-12.06-.5-24-12.44.534-18-10.5 9.7-4.434 18.5 2.5 8.976-8.467 11.5-20.5.215-5.336-4.5-7.5-9.573 5.33-20.5 3.5-4.515-5.415-1-11a79.5 79.5 0 0 1 19 .5Q515.158.413 488.5 6q4.064 2.19 2 6-6.843-1.38-5.5-8.5 2.113-1.921 4.5-3m12 30q6.654-.435 13 1.5-5.148 3.108-11 2-1.984-1.224-2-3.5m5 34q-2.405.282-4-1.5 2.46-.522 4 1.5"/><path style="opacity:1" fill="#5fcf5c" d="M290.5 20.5a381.4 381.4 0 0 0 52 26.5 78 78 0 0 0-3.5 24.5q-20.488 5.232-23.5 26-27.015-1.618-41.5 21a106 106 0 0 0-4.5 11.5 72.4 72.4 0 0 1-12 .5 869 869 0 0 1 16.5-36q14.406-35.625 16.5-74"/><path style="opacity:.682" d="M175.5 32.5a411 411 0 0 1 41.5 35q1.124 1.703-.5 3a312.7 312.7 0 0 1-42-36.5q.834-.575 1-1.5"/><path style="opacity:1" fill="#0a1208" d="M294.5 51.5q19.817-1.055 38 8.5a13.9 13.9 0 0 1 3 4 374 374 0 0 0-41-12.5"/><path style="opacity:.686" d="M623.5 53.5q5.007 1.04 1.5 5l-33 42a32.4 32.4 0 0 0-4.5 3q-1.624-1.297-.5-3a833 833 0 0 1 36.5-47"/><path style="opacity:1" fill="#60d05d" d="M140.5 66.5q3.604-.16 5.5 3a454 454 0 0 0 36 51q16.957 18.962 40.5 28.5l-7 7q-2.5 1-5 0a61.7 61.7 0 0 0-14-5 420 420 0 0 0-32-3.5q-12.826-20.317-36-27-7.092-21.63-26.5-34a4.93 4.93 0 0 1-.5-3q21.975-3.247 39-17"/><path style="opacity:.742" d="M442.5 71.5h3a458 458 0 0 0-20.5 67q-2.82 6.868-8 1a1643 1643 0 0 0-20.5-52q1.444-2.985 4-1a1117 1117 0 0 1 20 49 2239 2239 0 0 0 12.5-45 126.3 126.3 0 0 1 9.5-19"/><path style="opacity:1" fill="#101a0e" d="M287.5 80.5a89 89 0 0 1 18 4.5q4.976 1.627 1 4.5a135 135 0 0 0-15-5.5q-3.067-.747-4-3.5"/><path style="opacity:1" fill="#0b1309" d="M149.5 102.5a13.1 13.1 0 0 1 7 1 429 429 0 0 0-25 12q-1.174-2.743 2-4.5a186 186 0 0 1 16-8.5"/><path style="opacity:1" fill="#0d150b" d="M176.5 121.5q1.314-.197 2 1-4.642 11.813-13 21-1.624-1.298-.5-3a368 368 0 0 1 11.5-19"/><path style="opacity:.772" d="M402.5 126.5q9.04.756 4.5 9-5.532 4.109-7.5-2.5.51-3.767 3-6.5"/><path style="opacity:.801" d="M437.5 127.5q6.033-.722 6 5.5a13 13 0 0 0-1 5.5q-10.59 1.163-7.5-9 1.492-.85 2.5-2"/><path style="opacity:1" fill="#329732" d="M258.5 133.5q48.476-3.84 95 9.5a304 304 0 0 0 46 14q33.526 1.185 67-1a192 192 0 0 0 17-16q9.102-4.566 13.5 4.5 6.789 16.79 5.5 35l-1 16a998 998 0 0 1-77 .5l-14.5-2.5-3.5 1q19.58 28.3 53 37.5a116 116 0 0 0 29 4.5v17q-36.668 4.46-69-13.5a749 749 0 0 0-64-36q-18.392-6.72-38-5-14.655 4.626-11.5 19.5 5.658 23.82 23 41a524 524 0 0 0 29.5 23.5 858 858 0 0 1 80 54q43.051 37.95 23.5 92.5-16.797 40.3-52.5 65.5-59.87 46.7-132 22-26.92-8.574-47.5-27.5-1-1 0-2 39.108 27.056 85.5 17.5 29.655-9.456 49.5-33.5 40.233-48.308 26-110-6.478-12.49-17.5-21.5-41.52-32.025-91-51-48.058-22.554-76.5-67.5-17.758-31.707 7-58 19.087-20.888 45.5-30"/><path style="opacity:1" fill="#080c07" d="M483.5 144.5q13.917-1.686 10.5 12-6.269 6.379-14 2a38.3 38.3 0 0 1-2.5-6.5q1.778-4.846 6-7.5"/><path style="opacity:.727" d="M46.5 148.5a1713 1713 0 0 1 78 23.5q4.019 2.683-.5 3.5A845 845 0 0 1 47.5 152q-1.255-1.517-1-3.5"/><path style="opacity:1" fill="#eee" d="M485.5 147.5q7.491-.257 5.5 7-6.222 6.552-9.5-1.5.601-3.84 4-5.5"/><path style="opacity:.745" fill="#feff00" d="M618.5 162.5q13.556-.248 27 1.5a7.25 7.25 0 0 1 2 2.5 352 352 0 0 1-29 21.5 2337 2337 0 0 1 72-10 149 149 0 0 1 45 1q2.064 3.81-2 6a534 534 0 0 0-52 34 2751 2751 0 0 0 92 3.5q-.312 5.466-6 6.5a4448 4448 0 0 0-83 33q27.935 4.065 56 9a320 320 0 0 1 27 9q2 2 0 4a5795 5795 0 0 1-98 15 1386 1386 0 0 1 67 28 123 123 0 0 1 21.5 15.5q.724 1.422.5 3a295 295 0 0 1-47-2.5 912 912 0 0 1-58-12 1043 1043 0 0 1 47 39.5q6.3 5.599 6 14a33.7 33.7 0 0 1-11-1.5 335 335 0 0 1-19-8 5452 5452 0 0 1-60.5-35.5 1677 1677 0 0 0 16.5 36.5q2.983 6.592 1 13.5l-1-.5a1199 1199 0 0 1-39.5-42.5 2520 2520 0 0 1-51-68 203 203 0 0 0-23-25q-1.514-2.288-1.5-5a8.4 8.4 0 0 1 4 .5 282 282 0 0 1 19.5 20.5l53 71a838 838 0 0 0 33 36q1-1.5 0-3a2396 2396 0 0 1-20.5-41.5q.912-1.305 2.5-1.5a1945 1945 0 0 1 62.5 36.5q14.469 7.812 30 12-7.5-9.5-17-17a3663 3663 0 0 1-44.5-36.5 4.93 4.93 0 0 1-.5-3 1438 1438 0 0 0 63 14.5 397 397 0 0 0 44.5 5.5q1.588-.195 2.5-1.5a157 157 0 0 0-25-15 3871 3871 0 0 0-65-26q-1.255-1.517-1-3.5a7234 7234 0 0 1 100-15.5 352.5 352.5 0 0 0-76-14q-19.377-2.265-1-9a5569 5569 0 0 0 78-31 9353 9353 0 0 1-86-4.5q-1.624-1.298-.5-3a528 528 0 0 1 54.5-36.5l-2-1a307 307 0 0 0-44 1 3700 3700 0 0 1-69 10.5 30 30 0 0 1-5-2 331 331 0 0 1 29.5-23l.5-1q-11.145-1.905-22 1.5a716 716 0 0 1-81.5 24.5q-4.625-1.64.5-3.5a2477 2477 0 0 0 84-27.5"/><path style="opacity:1" fill="#fcc9c9" d="M186.5 182.5h10q-4.361 24.445 9.5 45a233 233 0 0 0 15.5 20.5q-15.435 38.96-57 42a82 82 0 0 0-20.5-9.5q-1.588.195-2.5 1.5 56.998 23.247 37 81.5a502 502 0 0 0 17-5.5q6-1 12 0 2.635 5.598-3 8l-13 1q-2 1.5 0 3 7.047.526 14 1.5v3q-7.776-1.16-13 4.5 8.529 2.673 17.5.5a12 12 0 0 1 5.5 2.5q1.526 1.574.5 3.5-18.389 19.971-43.5 10.5a31.7 31.7 0 0 1-5.5-10.5 320 320 0 0 0-3-20 409 409 0 0 0-41.5-29.5q-11.26-8.544-12-22a10.3 10.3 0 0 0 4-1.5q-17.568-6.323-16.5-25a55.7 55.7 0 0 1 15.5-10.5 32.5 32.5 0 0 0-8-.5 123.4 123.4 0 0 1-5-29.5q-2.46-27.078 20-42 23.077-15.178 49-5.5l3-1q-2.436-2.054-1.5-5 6.716-7.21 15.5-11"/><path style="opacity:.752" fill="#ff6900" d="M580.5 191.5q3.535-.245 7 .5 1.392.582 2 2a148 148 0 0 1-14 15 2239 2239 0 0 1 49 7.5q2 2 0 4a47 47 0 0 1-8 4.5 556 556 0 0 1-32 4 230.6 230.6 0 0 1 28.5 22.5 10.1 10.1 0 0 1 1.5 6 512 512 0 0 0-37-6.5 229 229 0 0 1 17.5 18.5q3.863 4.84 4.5 11a12.9 12.9 0 0 1-5-.5 428 428 0 0 0-67-31q-1.255-1.517-1-3.5 33.526 9.134 63.5 27 1-1 0-2a254 254 0 0 1-22.5-24q4.419-1.732 9-.5a398 398 0 0 1 30 5 327 327 0 0 0-28-20 25.5 25.5 0 0 1-4-4.5 4.46 4.46 0 0 1 2-1.5 317 317 0 0 1 27-2 39.4 39.4 0 0 0 13-3 907 907 0 0 0-47-7l-2-2a101.6 101.6 0 0 1 11.5-12.5q1-1 0-2a321 321 0 0 0-50.5 24.5q-11.218.785-1-5 25.932-13.973 53-24.5"/><path style="opacity:.964" fill="#d7d7d7" d="M494.5 199.5h3q-.707 9.744-3 0"/><path style="opacity:.994" fill="#f3f3f3" d="M446.5 201.5h5q-2.5 14-5 0"/><path style="opacity:.994" fill="#e9e9e9" d="M477.5 200.5h6q.192 10.637-5.5 3a4.93 4.93 0 0 1-.5-3"/><path style="opacity:1" fill="#dbdbdb" d="M463.5 202.5q2.128-1.426 5-1-.267 9.165-5 1"/><path style="opacity:.995" fill="#dfdfdf" d="M430.5 208.5q4.735 3.975 5.5 10a33.8 33.8 0 0 1-6-5q-.577-2.545.5-5"/><path style="opacity:.995" fill="#f2f2f2" d="M461.5 218.5q5.069 4.6 8 11-3.988 1.027-8-1-1.58-4.972 0-10"/><path style="opacity:.994" fill="#d6d6d6" d="M475.5 224.5q3.716 2.874 3 8-1.983.255-3.5-1a16.6 16.6 0 0 1 .5-7"/><path style="opacity:1" fill="#1b1717" d="M185.5 228.5q5.978 30.156-25 37.5-8.765 1.42-17-1a332 332 0 0 1 20-3q22.615-8.906 22-33.5"/><path style="opacity:1" fill="#040d03" d="M298.5 255.5q1.724.436 2 2.5-1.927 12.43-14 9-6.072-2.712-6-8.5a46 46 0 0 0 10 6q6.04-2.547 8-9"/><path style="opacity:.743" d="M-.5 259.5q34.52-.145 69 1.5 4.8.152 9 2-9.505 1.725-19.5 1.5a2331 2331 0 0 1-58.5-2z"/><path style="opacity:1" fill="#050d03" d="M304.5 263.5a293 293 0 0 1 6.5 5q3.353-1.425 6.5 0-3.494 5.628-10 3.5-3.127-3.629-3-8.5"/><path style="opacity:1" fill="#040b03" d="M321.5 272.5q4.535 2.255 8 6.5 2 1 4 0 2.615-3.096 6-1.5-13.291 12.129-18-5"/><path style="opacity:1" fill="#030a02" d="M294.5 275.5q4.433.721 7 4.5 6.1.005 12 .5-10.173 6.821-18.5-2a4.93 4.93 0 0 1-.5-3"/><path style="opacity:1" fill="#060f04" d="M318.5 284.5a313 313 0 0 1 7.5 7 21.4 21.4 0 0 0 6-5q.633 8.354-7.5 9.5-5.628-4.51-6-11.5"/><path style="opacity:1" fill="#091407" d="M339.5 285.5a47.7 47.7 0 0 0 6.5 5l7-3q2.589 1.722-.5 3.5-10.846 6.905-13-5.5"/><path style="opacity:1" fill="#141010" d="M128.5 303.5q1.494-.129 2.5 1 4.367 10.979 13.5 18.5a259 259 0 0 0 19 10 16.24 16.24 0 0 1-8 0q-14.804-5.297-23.5-18.5-3.113-5.09-3.5-11"/><path style="opacity:.71" d="M98.5 371.5q2.217-.393 4 1a641 641 0 0 1-65.5 46l-1.5-1a45 45 0 0 1 10-9.5 2620 2620 0 0 1 53-36.5"/><path style="opacity:1" fill="#60d05d" d="M339.5 430.5a473 473 0 0 1 40 14 153.4 153.4 0 0 1-19.5 27q-16.642-17.285-20.5-41"/><path style="opacity:.827" d="M524.5 450.5a98.4 98.4 0 0 1 14 .5q1.526 1.574.5 3.5a252 252 0 0 1-18.5 5 347 347 0 0 1 3 37q-4.845-.092-5.5-5a574 574 0 0 0-4-30q-1.109-1.611-3-2a124 124 0 0 1-7.5 2q-5.229-.937-3-5.5a322 322 0 0 1 24-5.5"/><path style="opacity:.805" d="M547.5 480.5a236 236 0 0 1 2 15q-2.466.32-4.5-1a221 221 0 0 1-7.5-33.5l1-4.5a25.65 25.65 0 0 0 9-5.5q9.238-2.758 11.5 6.5 3.286 11.567-3.5 21.5l1 1.5a126 126 0 0 1 18.5 8q.724 1.422.5 3-12.569-.363-24-5.5-2.953-2.25-4-5.5m0 0q-3.254-8.565-2.5-18a30 30 0 0 1 7-6q3.024 2.008 3.5 5.5a66.4 66.4 0 0 1-2.5 9.5 31.3 31.3 0 0 0-5.5 9"/><path style="opacity:.816" d="M589.5 450.5q6.553-.865 12 2.5a63 63 0 0 1 8.5 14.5q5.17-10.671 15.5-16.5 3-1 6 0 1.87 2.241 0 4.5-13.692 6.933-18 21.5 2.796 19.111 20 10 10.124-5.328-1-9a39 39 0 0 1-7-1.5q-2.63-5.886 4-5 17.233 1.4 11.5 17-16.752 16.992-30.5-2-11.905 13.298-29 7.5-4.96-4.167-6.5-10.5-4.062-21.846 14.5-33m3 6q2.712-.014 5 1.5a74.6 74.6 0 0 1 7.5 12.5q1 4.5 0 9a32.3 32.3 0 0 1-9.5 9.5q-17.09 2.911-14.5-14.5 3.672-10.403 11.5-18m60-6q22.732-2.513 32.5 18 3.35-9.958 11.5-16.5 11.817-5.106 18.5 5.5 7.736 11.94 6 26-8.896 16.486-27.5 11.5-5.452-3.638-8.5-9.5-7.557 15.906-23.5 8.5a233 233 0 0 1-6.5-37.5 3.65 3.65 0 0 1-1.5 1 13.1 13.1 0 0 1-1-7m8 6q16.041 1.758 21 17-.154 10.785-9 16.5-4.27 1.416-7.5-1.5a148 148 0 0 1-4.5-32m42 0q4.237-.629 6.5 3a58.5 58.5 0 0 1 7.5 16q-4.367 15.415-20 13.5-7.443-5.314-5.5-14.5 3.876-10.264 11.5-18"/><path style="opacity:.811" d="M731.5 450.5q7.17-1.288 10.5 5 3.219 12.669-3.5 24a119 119 0 0 0 18 7.5q4.242 4.276-2 4.5a108 108 0 0 1-19-4.5q-7.859-7.742.5-15.5a46 46 0 0 0 2.5-9q.07-3.86-3-6a41 41 0 0 1-7 5l-1 4a588 588 0 0 1 5 30q-2.466.32-4.5-1-6.278-18.62-6.5-38 5.453-2.498 10-6"/><path style="opacity:1" fill="#5fcf5c" d="M305.5 457.5a1272 1272 0 0 0 29 35q-9.43 6.567-20.5 10a3.94 3.94 0 0 1-2-1 399 399 0 0 1-6.5-44"/><path style="opacity:1" fill="#5dc95a" d="M272.5 469.5q11.289 16.806 20 35.5-10.298 1.15-20-2.5a146.7 146.7 0 0 1 0-33"/><path style="opacity:.781" d="M603.5 510.5q4.236 3.45 5.5 9-.211 10.953 7.5 18.5-2.107 1.904-5 1.5.567 3.22 1 6.5.156 3.218-2 5.5-1.948-.885-2.5-3a39 39 0 0 0-1.5-7q-4.3-1.062-8.5-2-1-2 0-4l7-3a62.4 62.4 0 0 0-2.5-19 10 10 0 0 1 1-3"/><path style="opacity:.739" d="M614.5 519.5q2.867.111 3.5 3 2.503 8.017 5 16 2-4 6-6a39.8 39.8 0 0 1 8 7q4.572-16.156 20.5-11.5 4.629 11.195-7 11-1.216-3.437 2.5-5.5 1.124-1.702-.5-3-6.813 2.069-9 8.5.173 2.843 2 5a247 247 0 0 1 15 5q-8.444 4.989-17 0a11.5 11.5 0 0 1-3.5-4.5l-1 6a3.65 3.65 0 0 1-1.5 1 24 24 0 0 1-3.5-8 12.4 12.4 0 0 0-4.5-5 9915 9915 0 0 0-6.5 9q-7.38-12.901-8.5-28"/><path style="opacity:.824" fill="#9b0000" d="M465.5 560.5q9.095-.237 8 9a23.8 23.8 0 0 0-1 9q13.878-.615 14 13-.083 15.332-15.5 15-5 .115-9.5-2-1.428-2.318-1-5 8.881 3.536 18 .5 10.584-10.072-2.5-16.5-5.685.954-11.5 2 2.8 6.1.5 12l-2-2a233 233 0 0 1-6.5-27.5q2.175-6.582 9-7.5m-1 5q4.99-.507 5 4.5a36.6 36.6 0 0 1-5.5 11.5 433 433 0 0 1-1.5-11q.336-2.932 2-5"/><path style="opacity:.861" fill="#9a0000" d="M503.5 560.5q5.025.227 5 5.5-3.883 13.387.5 26.5 4.275 9.274 13.5 5.5 4.728-3.707 7-9a265 265 0 0 1-6-28.5q5.315.558 6.5 6a112 112 0 0 1 4.5 22.5q-1.025 14.651-15.5 17.5-12.322-.332-16-12-4.991-17.076.5-34"/><path style="opacity:.864" fill="#9b0000" d="M544.5 560.5q8.194-1.074 10.5 7 2.522 11.815-4.5 21.5a168 168 0 0 0 19 9q1.255 1.517 1 3.5a100.5 100.5 0 0 1-18-2.5q-15.897-6.361-3.5-18.5 2.15-5.859 1-12a7.25 7.25 0 0 0-2.5-2q-4.94 3.68-8 8.5a347 347 0 0 1 5 30.5q-5.04 1.064-5.5-4a249 249 0 0 1-6.5-35q6.879-1.44 12-6"/><path style="opacity:.852" fill="#9b0000" d="M595.5 560.5q2.835-.305 4.5 2 9.031 21.119 9.5 44a10.1 10.1 0 0 1-6-1.5 98.3 98.3 0 0 1-23.5-23.5l-1 24q-3.136 1.5-5-2a169 169 0 0 0 0-19 490 490 0 0 0-4.5-17q-.07-3.86 3-6a8528 8528 0 0 1 15.5 21 325 325 0 0 0 15.5 15q1.697-2.361.5-5a566 566 0 0 1-8.5-32"/><path style="opacity:.846" fill="#9b0000" d="M650.5 560.5q4.188-.072 5.5 4a779 779 0 0 0 9 30 1991 1991 0 0 1 15.5-32q1.16-1.817 2.5 0a388 388 0 0 1 6.5 43q-2.436.21-3.5-2a74.4 74.4 0 0 1-3.5-15 28.3 28.3 0 0 0-10 3 47.3 47.3 0 0 0-7.5 14 4.93 4.93 0 0 1-2.5 1 37.6 37.6 0 0 1-12-7.5 180 180 0 0 1-15.5-16.5l-1 23q-4.57 1.336-6.5-3.5a80 80 0 0 0 2-10.5 117.7 117.7 0 0 0-5-24.5l.5-4.5a3.94 3.94 0 0 1 2-1 348 348 0 0 0 28.5 34.5l3 1.5 1-2a1017 1017 0 0 1-9-35m29 15q1.701 3.7.5 8-2.241 1.87-4.5 0z"/><path style="opacity:.874" fill="#9a0000" d="M716.5 560.5h11q.32 2.466-1 4.5a204 204 0 0 0-16.5 5.5 663 663 0 0 1 2.5 36q-2.466.32-4.5-1a6119 6119 0 0 1-5.5-36 35.1 35.1 0 0 1-13 1.5q-2-2.5 0-5 13.507-3.744 27-5.5"/><path style="opacity:.854" fill="#9a0000" d="M799.5 598.5v3a71.3 71.3 0 0 1-19-3.5q-4.593-1.591-7.5-5.5a156 156 0 0 1 1.5 13q-4.107.803-5.5-3a389 389 0 0 1-4-17q-4.233 25.185-29.5 19.5-12.248-9.236-8.5-24.5 2.37-13.533 14.5-19.5 6.423-1.447 12 2a63.6 63.6 0 0 1 9.5 17.5 60 60 0 0 0-1.5-14 32.75 32.75 0 0 0 12-5.5q6.19-1.938 9.5 3.5a66.4 66.4 0 0 1 2.5 9.5 246 246 0 0 1-4.5 16.5 209 209 0 0 1 18.5 8m-54-32q2.505.377 4.5 2a55.4 55.4 0 0 1 8.5 16.5q-2.934 12.657-15.5 15.5-10.259-1.514-10.5-12a43 43 0 0 1 4.5-13 110 110 0 0 1 8.5-9m30 1q1.983-.255 3.5 1 2.486 12.54-7 21a160 160 0 0 0-3.5-15.5 63 63 0 0 1 7-6.5"/><path style="opacity:.702" fill="#9c0000" d="M610.5 560.5q3.723 3.004 3 8-7.825-1.626-3-8"/><path style="opacity:.863" fill="#9a0000" d="M616.5 576.5q4.269.463 4.5 5 3.225 10.9 5.5 22-1.93 3.106-5 1-6.857-13.383-5-28"/></svg>