0
SECTION
2
HEADER
9
$INSUNITS
70
4
9
$ACADVER
1
AC1014
9
$HANDSEED
5
FFFF
0
ENDSEC
0
SECTION
2
TABLES
0
TABLE
2
VPORT
5
8
100
AcDbSymbolTable
0
ENDTAB
0
TABLE
2
LTYPE
5
5
100
AcDbSymbolTable
0
LTYPE
5
14
100
AcDbSymbolTableRecord
100
AcDbLinetypeTableRecord
2
BYBLOCK
70
0
0
LTYPE
5
15
100
AcDbSymbolTableRecord
100
AcDbLinetypeTableRecord
2
BYLAYER
70
0
0
LTYPE
5
16
100
AcDbSymbolTableRecord
100
AcDbLinetypeTableRecord
2
DASHED
70
0
3
Dashed __ __ __ __ __ __ __ __ __ __ __ __ __ _
72
65
73
2
40
0.75
49
0.5
74
0
49
-0.25
74
0
0
ENDTAB
0
TABLE
2
LAYER
5
2
100
AcDbSymbolTable
70
2
0
LAYER
5
50
100
AcDbSymbolTableRecord
100
AcDbLayerTableRecord
2
0
70
0
62
7
6
CONTINUOUS
0
ENDTAB
0
TABLE
2
STYLE
5
3
100
AcDbSymbolTable
70
1
0
STYLE
5
11
100
AcDbSymbolTableRecord
100
AcDbTextStyleTableRecord
2
STANDARD
70
0
0
ENDTAB
0
TABLE
2
VIEW
5
6
100
AcDbSymbolTable
70
0
0
ENDTAB
0
TABLE
2
UCS
5
7
100
AcDbSymbolTable
70
0
0
ENDTAB
0
TABLE
2
APPID
5
9
100
AcDbSymbolTable
70
2
0
APPID
5
12
100
AcDbSymbolTableRecord
100
AcDbRegAppTableRecord
2
ACAD
70
0
0
ENDTAB
0
TABLE
2
DIMSTYLE
5
A
100
AcDbSymbolTable
70
1
0
ENDTAB
0
TABLE
2
BLOCK_RECORD
5
1
100
AcDbSymbolTable
70
1
0
BLOCK_RECORD
5
1F
100
AcDbSymbolTableRecord
100
AcDbBlockTableRecord
2
*MODEL_SPACE
0
BLOCK_RECORD
5
1B
100
AcDbSymbolTableRecord
100
AcDbBlockTableRecord
2
*PAPER_SPACE
0
ENDTAB
0
ENDSEC
0
SECTION
2
BLOCKS
0
BLOCK
5
20
100
AcDbEntity
100
AcDbBlockBegin
2
*MODEL_SPACE
0
ENDBLK
5
21
100
AcDbEntity
100
AcDbBlockEnd
0
BLOCK
5
1C
100
AcDbEntity
100
AcDbBlockBegin
2
*PAPER_SPACE
0
ENDBLK
5
1D
100
AcDbEntity
100
AcDbBlockEnd
0
ENDSEC
0
SECTION
2
ENTITIES
0
SPLINE
5
100
100
AcDbEntity
8
0
100
AcDbSpline
70
0
71
3
72
18
73
14
74
0
42
0.000000001
43
0.0000000001
44
0.0000000001
40
0
40
0
40
0
40
0
40
0.125
40
0.125
40
0.25
40
0.25
40
0.5
40
0.5
40
0.75
40
0.75
40
0.875
40
0.875
40
1
40
1
40
1
40
1
10
-114.76215166935106
20
-98.902430856925946
30
0
10
-108.44387225189088
20
-97.517130784822186
30
0
10
-105.1158691357454
20
-96.887030750537519
30
0
10
-95.848013931604214
20
-95.322162514730323
30
0
10
-90.819879477214755
20
-94.596153655016266
30
0
10
-76.608695950187169
20
-92.80190691803837
30
0
10
-66.555942584493295
20
-91.900610895546109
30
0
10
-47.661099761124959
20
-90.637182684650682
30
0
10
-37.442530443381571
20
-90.183701869271005
30
0
10
-23.33096782818405
20
-89.792593518878405
30
0
10
-18.234368816458719
20
-89.693226135702844
30
0
10
-8.7346279520618353
20
-89.574914583346072
30
0
10
-5.3996793148788136
20
-89.553383260145694
30
0
10
1.0684641472591849
20
-89.545003113644441
30
0
0
SPLINE
5
101
100
AcDbEntity
8
0
100
AcDbSpline
70
0
71
3
72
18
73
14
74
0
42
0.000000001
43
0.0000000001
44
0.0000000001
40
0
40
0
40
0
40
0
40
0.1249999999999999
40
0.1249999999999999
40
0.24999999999999981
40
0.24999999999999981
40
0.49999999999999978
40
0.49999999999999978
40
0.74999999999999967
40
0.74999999999999967
40
0.87499999999999978
40
0.87499999999999978
40
1
40
1
40
1
40
1
10
1.0684641472591849
20
-89.545003113644441
30
0
10
7.5366101208151903
20
-89.550968803363617
30
0
10
10.871696505016839
20
-89.571247311376084
30
0
10
20.371220937968832
20
-89.685985600260864
30
0
10
25.467773632420379
20
-89.783439349413626
30
0
10
39.58012088563973
20
-90.16926853660847
30
0
10
49.798444991280846
20
-90.61889512546739
30
0
10
68.693738557428702
20
-91.875212694168184
30
0
10
78.746822828220814
20
-92.772722484049353
30
0
10
92.958709376849697
20
-94.561616479264131
30
0
10
97.988084509218893
20
-95.285877434986034
30
0
10
107.25457619042265
20
-96.846946888616884
30
0
10
110.58379531108805
20
-97.475931077355
30
0
10
116.90257508714552
20
-98.858954880592194
30
0
0
SPLINE
5
102
100
AcDbEntity
8
0
100
AcDbSpline
70
0
71
3
72
34
73
30
74
0
42
0.000000001
43
0.0000000001
44
0.0000000001
40
0
40
0
40
0
40
0
40
0.03125
40
0.03125
40
0.062500000000000097
40
0.062500000000000097
40
0.125
40
0.125
40
0.24999999999999989
40
0.24999999999999989
40
0.37499999999999989
40
0.37499999999999989
40
0.49999999999999978
40
0.49999999999999978
40
0.56249999999999978
40
0.56249999999999978
40
0.62499999999999978
40
0.62499999999999978
40
0.68749999999999978
40
0.68749999999999978
40
0.74999999999999978
40
0.74999999999999978
40
0.87499999999999978
40
0.87499999999999978
40
0.9375
40
0.9375
40
0.96875
40
0.96875
40
1
40
1
40
1
40
1
10
116.90257508187383
20
-98.858954367601953
30
0
10
116.85678183699304
20
-94.402786264139294
30
0
10
116.8403727973419
20
-92.823107570842481
30
0
10
116.75746695707163
20
-84.842056874899015
30
0
10
116.74129701381563
20
-83.267744006894006
30
0
10
116.60490780530264
20
-69.883124333460401
30
0
10
116.56337805430262
20
-65.436580644432638
30
0
10
116.39201073152401
20
-45.38669872094431
30
0
10
116.30423571667782
20
-31.157171017062897
30
0
10
116.17599315510975
20
-6.1359431198868819
30
0
10
116.10755968782554
20
8.8410795609530979
30
0
10
116.04341242658636
20
34.080377611277584
30
0
10
116.03749450793177
20
47.897527684610246
30
0
10
116.07297932948896
20
68.403730133436227
30
0
10
116.08874185755985
20
73.371278850719435
30
0
10
116.14235917725603
20
89.873261044900829
30
0
10
117.30066341309494
20
95.066536394036589
30
0
10
114.41609837380965
20
108.34853128536821
30
0
10
106.46825040308828
20
111.18201938048699
30
0
10
94.2946942613776
20
115.62101752256879
30
0
10
87.442389066247415
20
117.19865229993087
30
0
10
68.042319475452103
20
120.70878908704006
30
0
10
54.209785037196013
20
121.91647554417327
30
0
10
34.574507225948778
20
122.98613211383469
30
0
10
27.680558249880107
20
123.23612581171169
30
0
10
17.780950717181092
20
123.46032827971936
30
0
10
14.498220623877387
20
123.51249907900157
30
0
10
7.6123182920060373
20
123.58284542205368
30
0
10
5.4849178696699852
20
123.5902035632547
30
0
10
1.0285068912151729
20
123.59505556887169
30
0
0
SPLINE
5
103
100
AcDbEntity
8
0
100
AcDbSpline
70
0
71
3
72
36
73
32
74
0
42
0.000000001
43
0.0000000001
44
0.0000000001
40
0
40
0
40
0
40
0
40
0.062499999999999799
40
0.062499999999999799
40
0.1249999999999996
40
0.1249999999999996
40
0.2499999999999992
40
0.2499999999999992
40
0.31249999999999922
40
0.31249999999999922
40
0.37499999999999911
40
0.37499999999999911
40
0.40624999999999911
40
0.40624999999999911
40
0.43749999999999911
40
0.43749999999999911
40
0.46874999999999895
40
0.46874999999999895
40
0.49999999999999895
40
0.49999999999999895
40
0.74999999999999956
40
0.74999999999999956
40
0.87499999999999967
40
0.87499999999999967
40
0.90624999999999978
40
0.90624999999999978
40
0.93749999999999978
40
0.93749999999999978
40
0.96875
40
0.96875
40
1
40
1
40
1
40
1
10
1.0285061402012374
20
123.59505556777424
30
0
10
-7.8843291946845184
20
123.58203189722687
30
0
10
-12.188594328401479
20
123.53546687579384
30
0
10
-25.858943613878029
20
123.2207583067003
30
0
10
-32.254459165876312
20
122.98802525265891
30
0
10
-52.678001450857117
20
121.86776026508291
30
0
10
-65.5590868350113
20
120.76083415792503
30
0
10
-85.5957901340538
20
117.12774444275493
30
0
10
-91.870770855648516
20
115.71901787203583
30
0
10
-104.7708869586391
20
111.00954071514141
30
0
10
-112.43052706275205
20
107.95924343920348
30
0
10
-114.47419745140198
20
98.516372950503978
30
0
10
-114.07760794374826
20
93.871431651976593
30
0
10
-114.06443316724616
20
89.347114023768512
30
0
10
-114.049486643878
20
83.385136423978167
30
0
10
-114.03635337746709
20
79.77376613808282
30
0
10
-114.01778607262216
20
74.815090039810201
30
0
10
-113.99699840934798
20
68.289697581268712
30
0
10
-113.98810006872665
20
64.901783315723378
30
0
10
-113.92406957993447
20
34.515163230377226
30
0
10
-114.00140350914491
20
8.3443447465420917
30
0
10
-114.19400241303507
20
-32.206607108342823
30
0
10
-114.27357564615338
20
-45.66619184947514
30
0
10
-114.4076770970112
20
-62.079119275292797
30
0
10
-114.43720118787098
20
-65.493603037807887
30
0
10
-114.49771485816839
20
-72.152573984847606
30
0
10
-114.51702196818779
20
-74.175419726133725
30
0
10
-114.60874462592429
20
-83.523706695292432
30
0
10
-114.60839382081325
20
-83.501942478992049
30
0
10
-114.7160014880518
20
-94.250058052489507
30
0
10
-114.71796195445599
20
-94.446237205599715
30
0
10
-114.76215217046537
20
-98.902430966796658
30
0
0
ENDSEC
0
SECTION
2
OBJECTS
0
DICTIONARY
5
C
100
AcDbDictionary
3
ACAD_GROUP
350
D
3
ACAD_MLINESTYLE
350
17
0
DICTIONARY
5
D
100
AcDbDictionary
0
DICTIONARY
5
1A
330
C
100
AcDbDictionary
0
DICTIONARY
5
17
100
AcDbDictionary
0
ENDSEC
0
EOF
