0
SECTION
2
HEADER
9
$INSUNITS
70
4
9
$ACADVER
1
AC1014
9
$HANDSEED
5
FFFF
0
ENDSEC
0
SECTION
2
TABLES
0
TABLE
2
VPORT
5
8
100
AcDbSymbolTable
0
ENDTAB
0
TABLE
2
LTYPE
5
5
100
AcDbSymbolTable
0
LTYPE
5
14
100
AcDbSymbolTableRecord
100
AcDbLinetypeTableRecord
2
BYBLOCK
70
0
0
LTYPE
5
15
100
AcDbSymbolTableRecord
100
AcDbLinetypeTableRecord
2
BYLAYER
70
0
0
LTYPE
5
16
100
AcDbSymbolTableRecord
100
AcDbLinetypeTableRecord
2
DASHED
70
0
3
Dashed __ __ __ __ __ __ __ __ __ __ __ __ __ _
72
65
73
2
40
0.75
49
0.5
74
0
49
-0.25
74
0
0
ENDTAB
0
TABLE
2
LAYER
5
2
100
AcDbSymbolTable
70
2
0
LAYER
5
50
100
AcDbSymbolTableRecord
100
AcDbLayerTableRecord
2
0
70
0
62
7
6
CONTINUOUS
0
ENDTAB
0
TABLE
2
STYLE
5
3
100
AcDbSymbolTable
70
1
0
STYLE
5
11
100
AcDbSymbolTableRecord
100
AcDbTextStyleTableRecord
2
STANDARD
70
0
0
ENDTAB
0
TABLE
2
VIEW
5
6
100
AcDbSymbolTable
70
0
0
ENDTAB
0
TABLE
2
UCS
5
7
100
AcDbSymbolTable
70
0
0
ENDTAB
0
TABLE
2
APPID
5
9
100
AcDbSymbolTable
70
2
0
APPID
5
12
100
AcDbSymbolTableRecord
100
AcDbRegAppTableRecord
2
ACAD
70
0
0
ENDTAB
0
TABLE
2
DIMSTYLE
5
A
100
AcDbSymbolTable
70
1
0
ENDTAB
0
TABLE
2
BLOCK_RECORD
5
1
100
AcDbSymbolTable
70
1
0
BLOCK_RECORD
5
1F
100
AcDbSymbolTableRecord
100
AcDbBlockTableRecord
2
*MODEL_SPACE
0
BLOCK_RECORD
5
1B
100
AcDbSymbolTableRecord
100
AcDbBlockTableRecord
2
*PAPER_SPACE
0
ENDTAB
0
ENDSEC
0
SECTION
2
BLOCKS
0
BLOCK
5
20
100
AcDbEntity
100
AcDbBlockBegin
2
*MODEL_SPACE
0
ENDBLK
5
21
100
AcDbEntity
100
AcDbBlockEnd
0
BLOCK
5
1C
100
AcDbEntity
100
AcDbBlockBegin
2
*PAPER_SPACE
0
ENDBLK
5
1D
100
AcDbEntity
100
AcDbBlockEnd
0
ENDSEC
0
SECTION
2
ENTITIES
0
LWPOLYLINE
5
100
100
AcDbEntity
8
0
100
AcDbPolyline
90
708
70
1
43
0.0
10
158.79730529736702
20
241.48494683952202
10
158.21224445522034
20
241.45762349369434
10
157.62716859364431
20
241.43085286286581
10
154.60973520343251
20
241.30118111784719
10
153.82291536327986
20
241.26970039398236
10
153.03605797455387
20
241.23916889805091
10
152.24916904502632
20
241.20959864559626
10
148.28048160047098
20
241.07512068319366
10
147.62312473526933
20
241.05518689659377
10
146.96575435258129
20
241.03596202705805
10
146.30835993880635
20
241.01736196578224
10
143.63708684595795
20
240.94877724371344
10
140.91602509586932
20
240.89028557815089
10
138.19474931891278
20
240.84324472550563
10
135.47329856560461
20
240.80770274795142
10
132.89824800459874
20
240.78467497238216
10
131.83664621854248
20
240.78010842039899
10
130.20934369970408
20
240.77166100929017
10
128.3588117931919
20
240.76895262029342
10
127.11749410943403
20
240.77022626790014
10
125.87617629366943
20
240.77387899311196
10
124.63486608149094
20
240.77993482701572
10
121.79694811103906
20
240.8028258728699
10
120.44320731767849
20
240.81846321120861
10
119.3800822081394
20
240.83219277556165
10
117.41045524174254
20
240.86246959504138
10
115.05007232037414
20
240.90698718356009
10
112.68985761661418
20
240.9601199167395
10
110.32984267126423
20
241.02186779457966
10
107.97008606009868
20
241.09225484816744
10
105.61058928506043
20
241.17128107750278
10
103.2514124238668
20
241.2589224514989
10
99.33274118090597
20
241.42360749015953
10
97.213355516654602
20
241.52261556826861
10
95.094324310935278
20
241.62856863049754
10
92.975638552090402
20
241.74151473902009
10
90.823169148535939
20
241.86340416778
10
87.874415545126979
20
242.04209557421152
10
85.563132640164298
20
242.19161699702582
10
83.252420473515954
20
242.34942914482741
10
80.942282049067813
20
242.5155440331597
10
78.632759421221991
20
242.68992561539244
10
76.953563662750383
20
242.82194913958082
10
75.212042338095713
20
242.96354357105997
10
74.587366249161903
20
243.01547474989343
10
73.962744230173683
20
243.06803073698677
10
73.338170273359296
20
243.12118750125308
10
70.445259967793575
20
243.3753763231461
10
67.914546204281351
20
243.60847786626707
10
65.384787676474204
20
243.85155231045971
10
62.855996399915568
20
244.10457562463708
10
60.328208421235836
20
244.36755982434266
10
57.801489825924016
20
244.64049289403303
10
55.275870652838783
20
244.92336281816463
10
51.688246188264877
20
245.34261014183653
10
49.899984337926789
20
245.55902111382073
10
49.713857561962094
20
245.58185064639446
10
49.527748809312584
20
245.604728241142
10
49.341622033347875
20
245.62767792915028
10
48.087986314236851
20
245.78359162108526
10
47.419123064229495
20
245.86779654965181
10
46.750325899711143
20
245.95269837973905
10
46.081636875083952
20
246.03832114243392
10
43.298470535708695
20
246.40224792274563
10
42.701069730428742
20
246.48197105360171
10
42.103753033952998
20
246.56224689945688
10
41.506502422966307
20
246.64308747585471
10
40.020312056995799
20
246.84699412208226
10
39.36767643340152
20
246.93747112869599
10
37.852473524708515
20
247.15002325442555
10
35.523212362844049
20
247.48428365793495
10
33.195176786412475
20
247.8270510662139
10
30.868432880902841
20
248.17827741708854
10
28.542974638543392
20
248.53798674164585
10
26.218850121507998
20
248.90617903988584
10
23.896065337568384
20
249.28281826517809
10
21.697713521698891
20
249.64730977603244
10
20.779726001366861
20
249.80182966492606
10
19.861966776360575
20
249.95765924805679
10
18.944411815593082
20
250.11482255651148
10
16.748006517764086
20
250.4965683877742
10
15.721506624446215
20
250.67766665880097
10
14.695271073084456
20
250.86039904373823
10
13.669347925852646
20
251.04480158921649
10
13.513422218374259
20
249.51405739906278
10
13.358914345024139
20
247.98316902238759
10
13.205848336889193
20
246.45213645919088
10
12.923326863517886
20
243.58755880510353
10
12.888662020636241
20
243.23247546477825
10
12.854069271015353
20
242.87738010890945
10
12.819560630198692
20
242.52228475304071
10
12.485288211145845
20
239.04091320652918
10
12.074909339818351
20
234.65638732808671
10
11.67625763890767
20
230.27078605850463
10
11.289345123957247
20
225.8841274210981
10
10.914147763880177
20
221.49644145472575
10
10.760156000341151
20
219.65091999494942
10
10.585239637312249
20
217.52569675595186
10
10.454036558172398
20
215.91601454349683
10
10.43514812385353
20
215.68187365586664
10
10.416295736165038
20
215.44772676046463
10
10.39746737956346
20
215.21356184174749
10
10.311916710129371
20
214.14376994534379
10
10.271676655082354
20
213.63772932476076
10
10.231604817643774
20
213.1316706808625
10
10.191689182270181
20
212.62560002142089
10
9.9963645077869661
20
210.12014893803297
10
9.9158483510625359
20
209.07267591360593
10
9.8360050647718751
20
208.02516083477681
10
9.7568106178280498
20
206.97758567823033
10
9.5697886838755952
20
204.46693787229606
10
9.3734306726548215
20
201.7736658213156
10
9.1815063969707573
20
199.0800753584335
10
8.9940038412798859
20
196.38618450696492
10
8.8426440403162463
20
194.16381361971924
10
8.7803194163900464
20
193.23548672423999
10
8.7185114608326106
20
192.30712378213039
10
8.6572201736439407
20
191.37873080116211
10
8.5126251236481849
20
189.15560894245016
10
8.4346682776807249
20
187.93742208043153
10
8.3576246130162026
20
186.71918114846733
10
8.2814700985677252
20
185.50089215432934
10
8.0300929138443404
20
181.37137515862099
10
7.9672516215493587
20
180.31130083299047
10
7.9050831996881366
20
179.25119046072953
10
7.8435996638041106
20
178.19103803406651
10
7.7672769317471779
20
176.85818383692475
10
7.7587819425210744
20
176.70841609546954
10
7.7502869532949701
20
176.55865436178601
10
7.7417919640688657
20
176.40888061255907
10
7.564053230590182
20
173.21096624626776
10
7.4577565322216159
20
171.24521282623482
10
7.3806888364701875
20
169.79083943031191
10
7.3049068038689526
20
168.33639394112828
10
7.2304104344179168
20
166.88187936256969
10
7.1649016914748564
20
165.58154823768788
10
7.1518047491036238
20
165.31905066749243
10
7.1452682934614788
20
165.18779587462296
10
7.0880863221360855
20
164.02979787368054
10
6.9416528939909741
20
160.98627273084566
10
6.8008787868154377
20
157.94248024216881
10
6.6657159384356568
20
154.89843542707933
10
6.6339107948974663
20
154.16280030012268
10
6.6282514739278806
20
154.03155301696788
10
6.6226281995886644
20
153.9002967221555
10
6.6170049252494607
20
153.76904793705776
10
6.5889486312707302
20
153.11018161920896
10
6.5131906297564059
20
151.29926048860162
10
6.4394272084564346
20
149.4882560001615
10
6.3676703829142483
20
147.67717491263181
10
6.2757755065333729
20
145.28117867141989
10
6.2386474772424485
20
144.28578702011956
10
6.2020961940376171
20
143.29036420350337
10
6.1661456880057584
20
142.29491923322891
10
6.0824213811775749
20
139.90797914467126
10
5.9556573976762284
20
136.08840665962413
10
5.8377488697047744
20
132.26856739196356
10
5.7287078128066939
20
128.44845289326062
10
5.6285342269819871
20
124.62809432883118
10
5.5372040811437149
20
120.80750746907597
10
5.4785682290596718
20
118.13332811665322
10
5.4129273151385595
20
114.87156315601428
10
5.3537507635988293
20
111.60969155742714
10
5.3010385744404855
20
108.3476998034054
10
5.2999932221594959
20
108.27882070052185
10
5.2968811964033815
20
108.07218639575707
10
5.2937932017342053
20
107.86555209099227
10
5.2907292381519442
20
107.65890276679815
10
5.2360506679337524
20
103.60485515502546
10
5.2067526049111015
20
101.07351382390314
10
5.1839711345112374
20
98.810605496909787
10
5.164301689867477
20
96.547649107742615
10
5.1477442709798114
20
94.284680703031952
10
5.1472516336979544
20
93.515715960460625
10
5.1559989493367269
20
92.746808291720725
10
5.1739621868091836
20
91.978053821159946
10
5.201129330571888
20
91.209575708098768
10
5.2375244117117612
20
90.441461065227202
10
5.275787515813251
20
89.790518288846954
10
5.3151821962892152
20
89.241137208805839
10
5.3371469681483514
20
88.918499463009866
10
5.4126389420955254
20
88.022548929722973
10
5.4555104011602342
20
87.571176027996373
10
5.5015779947852774
20
87.12011252651385
10
5.5508417229706382
20
86.669385460248208
10
5.6662469072560402
20
85.712248456113613
10
5.7225709857059197
20
85.300099885734141
10
5.785668828028677
20
84.82895708206334
10
5.8616926617253622
20
84.323845330337662
10
5.9162637140718255
20
83.954423487567567
10
6.1706635323466665
20
82.445567475581186
10
6.3290283951473914
20
81.602490860949558
10
6.4986758532569251
20
80.761595067455886
10
6.6795698600448619
20
79.923060328252049
10
6.913289871693804
20
78.919093884031341
10
6.9690529382212976
20
78.681777509033623
10
7.1366171021703808
20
78.009807319825995
10
7.1702846549448687
20
77.878489445353367
10
7.2042165496754595
20
77.747237656369762
10
7.2384248019056399
20
77.616057960646927
10
7.4221305874208463
20
76.930622208802674
10
7.496116119234185
20
76.664812946152537
10
7.6345026507564731
20
76.173042439757666
10
7.7521956113439767
20
75.77138456254437
10
7.8653378703475694
20
75.387641508301499
10
8.2605750684910575
20
74.121805751546418
10
8.5089483673494719
20
73.370131376013802
10
8.7666096813023611
20
72.621581041780743
10
9.0334989326324031
20
71.876262888738395
10
9.3095680591657555
20
71.134297072321331
10
9.882078648195785
20
69.678052529431056
10
10.004340807984009
20
69.383050242012118
10
10.201589883562237
20
68.908003684348571
10
10.351810974573041
20
68.557751696029584
10
10.524700864997531
20
68.156826313878653
10
10.682215958130294
20
67.800870899235406
10
10.819992231116107
20
67.492930977748983
10
11.036598167279426
20
67.017423432218678
10
11.168060228273566
20
66.73413296406595
10
11.300904076765605
20
66.451479319716583
10
11.435129712755508
20
66.169462499170606
10
11.740093445707547
20
65.54177038537037
10
11.859763077499837
20
65.301075544366498
10
12.088834381757961
20
64.844092251671185
10
12.486405656687573
20
64.073651331187421
10
12.868584047514815
20
63.356395479895525
10
13.2598101425673
20
62.644041970335252
10
13.66005991075815
20
61.936710957941195
10
14.069237227739663
20
61.234498567061024
10
14.487282015794523
20
60.537536968672811
10
14.914110166118554
20
59.845934302667693
10
15.646899018139743
20
58.703170110354833
10
15.875396612935475
20
58.357042813310343
10
16.125903116702357
20
57.98304331427196
10
16.278904328146481
20
57.757984025707216
10
16.612002581342097
20
57.273172144817757
10
16.688024924812524
20
57.16406500243064
10
16.764263548065234
20
57.055096038793323
10
16.840718451100209
20
56.946295292764439
10
17.180367826504629
20
56.469391543844807
10
17.336911179906707
20
56.25205492460946
10
17.603124359993508
20
55.887307616501687
10
18.145966937142994
20
55.159361692731736
10
18.677053958068068
20
54.467861158846006
10
19.217489071804913
20
53.783648052068699
10
19.767176154005821
20
53.10684853560609
10
20.326019080323135
20
52.437588772664554
10
20.893909710865724
20
51.775982910906919
10
21.470751921285878
20
51.122175136854729
10
22.056449587235953
20
50.476267582627386
10
22.650858522194405
20
49.8383804036595
10
23.253882601813558
20
49.208645770929124
10
23.865425701745735
20
48.587153801012178
10
24.485367666556357
20
47.974054688201946
10
25.113588340810814
20
47.369444556846069
10
25.749967569074499
20
46.773425539064
10
26.394397211456276
20
46.186123798062056
10
27.046757112521544
20
45.607635458187886
10
27.706933124607449
20
45.038074667104397
10
28.247827886536513
20
44.583025233105865
10
28.587679084461772
20
44.303187133417339
10
28.895332707688265
20
44.051285022668594
10
29.255393850002946
20
43.762920615139926
10
29.55225519329705
20
43.52609734445663
10
29.932114033483153
20
43.230226557814319
10
30.218248242755557
20
43.007854082754058
10
30.617449294853884
20
42.705548337107906
10
30.893125871776238
20
42.496865633015133
10
31.311143831422932
20
42.189134361368275
10
31.5695039835988
20
41.998615589027025
10
32.166285799946053
20
41.570172544811321
10
32.86443693713678
20
41.081968998494432
10
33.568998366763353
20
40.603089513902368
10
34.279855941162879
20
40.133606184295907
10
34.996895512672481
20
39.673615134022725
10
35.719990918085863
20
39.223194464115302
10
36.448997970881472
20
38.782404252290945
10
37.183808531168189
20
38.351364653984255
10
37.924278412424506
20
37.930117723597341
10
38.670275443672331
20
37.518735554390943
10
39.849312584659792
20
36.894850096615109
10
40.150202063164215
20
36.742910686032829
10
40.596749651921932
20
36.515063674156146
10
41.383445234622286
20
36.128531168315334
10
42.034237107266044
20
35.818866582268257
10
42.688459417567586
20
35.516555508818605
10
43.346034064494454
20
35.221597947966359
10
44.006888954785822
20
34.934065992972307
10
44.615910946034198
20
34.677123104479733
10
45.027314531497012
20
34.507825037001268
10
46.353458507004213
20
33.983131852473399
10
47.11986994659032
20
33.695623928566263
10
47.889898064757837
20
33.417932703665819
10
48.66339867498526
20
33.150106239945913
10
49.440269645153172
20
32.892168568493446
10
50.220360780968313
20
32.644167751482286
10
51.003563942539557
20
32.406139835542795
10
51.004477123842506
20
32.405959602390887
10
51.005396312917178
20
32.405779369238999
10
51.006321509763588
20
32.405587120543629
10
52.309899835265455
20
32.152804117235462
10
54.237114905191831
20
31.787219191926251
10
56.16608424446337
20
31.430994374972279
10
58.096765798677922
20
31.084201759634276
10
60.02910549788993
20
30.74678126819494
10
61.963067295469017
20
30.418756931741221
10
63.898597121469621
20
30.100176812446936
10
65.835670944804818
20
29.791004863681696
10
67.774204656670378
20
29.491277132075908
10
69.71419224929457
20
29.200957570999165
10
70.641683988824283
20
29.065625275154975
10
71.990609051022659
20
28.872596799328573
10
72.94035966049077
20
28.739536671054267
10
73.890422674088853
20
28.608723449406945
10
74.840798091816907
20
28.480157134386634
10
77.113808486974122
20
28.182027470061001
10
79.171272048005221
20
27.923477005892082
10
81.230021272186519
20
27.675536266598208
10
83.290032128431079
20
27.438169205549002
10
85.351235527364054
20
27.211423884918307
10
87.413565383496376
20
26.995276273619172
10
88.397917432183817
20
26.896408555542756
10
89.743556584828241
20
26.764165576033395
10
90.604239169146439
20
26.682263619938681
10
91.578441839711559
20
26.591878888184173
10
92.850244340543441
20
26.476781542240026
10
93.030753849940666
20
26.460848931612269
10
93.211281382653098
20
26.444976398701819
10
93.391808915365516
20
26.42919999013904
10
94.622717234022247
20
26.323799642909297
10
96.599418319687999
20
26.162478956417431
10
98.576882392363444
20
26.010878844584596
10
100.55506138987477
20
25.868999307410757
10
102.53391325781982
20
25.736876391526327
10
103.56732125074053
20
25.672065445719273
10
104.93617661498664
20
25.590017925147073
10
105.64482705742353
20
25.548994878613122
10
107.53472236808933
20
25.44652078381921
10
107.69600700795081
20
25.438181996658077
10
107.85729465169815
20
25.429915302757706
10
108.01857929155963
20
25.421720702118094
10
108.67521071832488
20
25.389026408363861
10
109.31347037914003
20
25.358266617106654
10
109.95177509824316
20
25.328504115956623
10
110.59012787952013
20
25.299774951544141
10
112.10670858611226
20
25.2355894282137
10
113.86887530889661
20
25.168144672941555
10
114.14337941089431
20
25.158327973934867
10
114.41790153620722
20
25.14869150808007
10
114.69242215957721
20
25.139259306464098
10
116.27404143218259
20
25.08856923825298
10
117.74814758485262
20
25.046907839431746
10
118.45595696607066
20
25.028812430981215
10
119.16381215654816
20
25.011954623507059
10
119.87168236645499
20
24.996370463639632
10
120.92850648757965
20
24.975379309215295
10
121.09880954377921
20
24.972255267915727
10
121.26911259997877
20
24.969215335420394
10
121.43941640714978
20
24.966235480642361
10
123.13983395800463
20
24.940519289000758
10
124.17878124225248
20
24.929206151164141
10
125.15728756952166
20
24.919181304434034
10
127.1465544522631
20
24.90808025029672
10
129.33360433530854
20
24.907227146711062
10
131.52063121985282
20
24.918221368976823
10
133.70756676749249
20
24.94108694818091
10
135.89434198272417
20
24.975811868779854
10
138.08090354657367
20
25.022420161860577
10
140.26717598640869
20
25.080863765249259
10
142.45309622062604
20
25.151178725576262
10
144.63860492247986
20
25.233365042841594
10
145.51396429850223
20
25.26960392191647
10
147.41240214184228
20
25.354770093959846
10
149.31041042950366
20
25.448875830337343
10
151.20796212651356
20
25.551921131048946
10
153.1050061668123
20
25.663918011638145
10
155.0014989940548
20
25.784866472104945
10
156.89740155772483
20
25.914742481362381
10
157.17806362574572
20
25.934736345679568
10
157.44096672053297
20
25.953636795541904
10
157.70385179200503
20
25.972717478556131
10
157.96673085570532
20
25.991954363635344
10
160.09181088229266
20
26.153920201108242
10
160.94270819258986
20
26.223536181345327
10
162.25121253105874
20
26.330071539599981
10
162.69370106164271
20
26.367805585946765
10
164.35740791683361
20
26.513116545662587
10
165.70165585306114
20
26.635783228844133
10
167.0454802413818
20
26.762943725279644
10
168.38887207013784
20
26.894610050512611
10
169.26922346064197
20
26.983631826021075
10
170.6828558912614
20
27.130347045370357
10
171.23654232067426
20
27.188766853636317
10
172.97442099454926
20
27.378259705858234
10
173.91507884150417
20
27.484056566022147
10
174.85548736593228
20
27.59204025509576
10
175.79563154840429
20
27.702222788622521
10
176.29459501388948
20
27.761627635488001
10
176.43302308620446
20
27.778209085462574
10
176.57144214686184
20
27.794838597611001
10
176.70986421140512
20
27.811540203020172
10
178.00255945841823
20
27.969712817125551
10
180.04619913669876
20
28.22840746781598
10
182.08849307411182
20
28.497555641316474
10
184.12938720071179
20
28.77714532208358
10
186.01863916107678
20
29.045440391998412
10
186.14896575321399
20
29.064280764143451
10
186.27927432203597
20
29.083181214005791
10
186.40958889862972
20
29.102093679411574
10
187.04280434740861
20
29.195143685765167
10
187.93191873751107
20
29.326739625548896
10
188.65925309284447
20
29.435729274661057
10
190.56093513291867
20
29.727887213887151
10
192.46119933886462
20
30.029128903968875
10
194.36000365628024
20
30.339430313819328
10
195.6843909598291
20
30.561980540753883
10
196.76803418845029
20
30.746556373785374
10
197.71100400051154
20
30.910259143772944
10
198.89732114656221
20
31.118978021694872
10
199.38012900132418
20
31.204751375204406
10
200.52730575671828
20
31.411661365545381
10
202.28501154728488
20
31.735360106353554
10
204.04127547263636
20
32.066856934867168
10
205.7960554783705
20
32.406139835542753
10
205.82576991734669
20
32.414971259985734
10
205.85549637186637
20
32.423826715515652
10
205.88519879529912
20
32.432682171045549
10
207.15887414162921
20
32.829228119785469
10
207.50662410732829
20
32.94023152075389
10
207.95720799805295
20
33.090517113542028
10
208.17657748543539
20
33.163840543390265
10
208.73240197354357
20
33.355572033109205
10
208.8634434905166
20
33.401615595647321
10
208.9943708598268
20
33.44793551568501
10
209.12521412033277
20
33.494531793222279
10
209.77711699749733
20
33.731611959890209
10
210.32163182148804
20
33.935670455806971
10
211.1031347836597
20
34.238534244255789
10
211.88060653100058
20
34.551611244645471
10
212.65392690807613
20
34.874793317084865
10
213.42293971282129
20
35.208092477117468
10
214.18754281311666
20
35.551388569308642
10
214.9475860146691
20
35.904657562571508
10
215.7029551698156
20
36.267839379188736
10
216.453500084263
20
36.640873941443026
10
217.19910661034839
20
37.023689156073644
10
217.93964858486544
20
37.416200914276345
10
218.67499383683617
20
37.818373169420767
10
219.40501019528239
20
38.230115804930939
10
220.1295835125413
20
38.651380758633053
10
220.84859363317833
20
39.082071906179408
10
221.56191439398711
20
39.522123162080973
10
222.26941963176134
20
39.9714804563922
10
223.00201326229086
20
40.450667268964636
10
223.36085390136867
20
40.691656663447958
10
223.69519637118401
20
40.917406389061895
10
223.95489528072898
20
41.095922892159777
10
224.56884619921505
20
41.524507471892143
10
224.93355999762341
20
41.784427708015485
10
225.29645344119757
20
42.046877216037103
10
225.65749649107892
20
42.311843980413578
10
226.17008419683867
20
42.695358267997392
10
226.4052168566725
20
42.87341880587222
10
226.8479627642015
20
43.214023141119469
10
227.04782318649197
20
43.369692395878516
10
227.51848519846689
20
43.741386281810996
10
227.67617283534764
20
43.867672325324214
10
228.181008449243
20
44.276882251362998
10
228.2872204507546
20
44.364339440945542
10
228.57733511180354
20
44.604188306742742
10
228.91694695765895
20
44.889081928202316
10
229.47429995658723
20
45.365402102037422
10
230.02616185215436
20
45.84806648281932
10
230.57247256664309
20
46.337021000602448
10
231.11316000679255
20
46.832187554354334
10
231.76470646517672
20
47.444497358435868
10
232.02004105455731
20
47.689411086948716
10
232.36369042765472
20
48.022803503994147
10
232.59293045677964
20
48.247905311784933
10
232.95970734294008
20
48.613523028715441
10
233.16757474199318
20
48.822469823014117
10
233.55131762361901
20
49.215525083813112
10
233.74121500604213
20
49.410944283845581
10
234.13736176379348
20
49.827865802366006
10
234.9490741941737
20
50.701342742717159
10
235.51758963297624
20
51.334123315714606
10
236.07764612918299
20
51.97439558005928
10
236.62914755844636
20
52.622045388088296
10
237.17202182750552
20
53.276928553280143
10
237.70614878092596
20
53.938972982374054
10
238.23144430990337
20
54.608058519935419
10
238.7478243056336
20
55.284052994986212
10
239.25519264376896
20
55.966842259863547
10
239.75344118441828
20
56.656294143589349
10
240.2424978343208
20
57.352294498500797
10
240.72229050021582
20
58.054729176934956
10
241.19269902666872
20
58.763453992370358
10
241.65367535150557
20
59.478378828231044
10
242.10513536592228
20
60.199359497995488
10
242.54697093002764
20
60.926251815142166
10
242.97912196610434
20
61.658953647551691
10
243.40151638089171
20
62.39730879315907
10
243.81408208112887
20
63.141221127616625
10
244.21674697355513
20
63.89053444885937
10
244.60941493382282
20
64.64512860145274
10
244.99203789975809
20
65.404859398875161
10
245.58433290308159
20
66.633800689784522
10
245.98909971159935
20
67.513304910806369
10
246.28274757821447
20
68.174592360662302
10
246.56889774571061
20
68.839160053882779
10
246.84753819854438
20
69.506893842804928
10
247.11862087454196
20
70.177751673026634
10
247.33794008696736
20
70.737510639260876
10
247.40655259373438
20
70.916298184128578
10
247.5862216426971
20
71.389744967522205
10
247.8393492178937
20
72.077943785711824
10
248.06124025896668
20
72.702181307309345
10
248.27665492211474
20
73.328671743305577
10
248.48558119179447
20
73.957379047070148
10
248.68800705246247
20
74.588189070940203
10
248.92524778792858
20
75.357796927130394
10
249.01892708171178
20
75.673737024217104
10
249.15273023198085
20
76.130352683169804
10
249.24359836691417
20
76.450120394422399
10
249.37005652287235
20
76.904449076902424
10
249.45794760914072
20
77.227658858973427
10
249.57736873081288
20
77.680391706101346
10
249.66210402141027
20
78.006586075290755
10
249.77477408963711
20
78.458501864395615
10
249.85618469065145
20
78.787212441815569
10
249.93804148472168
20
79.135041536607474
10
250.04408931742319
20
79.586359744164326
10
250.20164110872935
20
80.294610970889011
10
250.37112034923041
20
81.102548128672339
10
250.53019412909526
20
81.912594014332868
10
250.67880237060663
20
82.724622464664264
10
250.77516349650918
20
83.286672336483747
10
250.83831609601933
20
83.674208994020645
10
250.86066456079379
20
83.810140266863982
10
250.92251363860265
20
84.207773087173507
10
250.94929628497465
20
84.385254679618839
10
250.97556226297783
20
84.562802357553238
10
251.00134761924267
20
84.740446159835301
10
251.10916242133277
20
85.525149497556342
10
251.13596389238211
20
85.743318027388526
10
251.21084881705727
20
86.341920790632386
10
251.24878470400844
20
86.689586693322809
10
251.30351823296249
20
87.174299795353477
10
251.33891303848176
20
87.522348285650665
10
251.38602464888677
20
88.016221634942127
10
251.41369750966118
20
88.324733729906882
10
251.45780297866412
20
88.864358083892512
10
251.5317016920167
20
89.913338879650809
10
251.57958363270413
20
90.786784780377218
10
251.61555816982292
20
91.660807427189681
10
251.63960127228609
20
92.535241606365616
10
251.65170092455011
20
93.409925108068407
10
251.6518691421586
20
94.28468070303191
10
251.64672648955781
20
95.035793351907785
10
251.64122337065317
20
95.78689398524017
10
251.63538381653166
20
96.538003630230179
10
251.63403807566419
20
96.704632183045419
10
251.62896751632414
20
97.317731295855651
10
251.62365664611485
20
97.93081238535072
10
251.61812949612334
20
98.543911498160952
10
251.60353061081963
20
100.05161888761623
10
251.59507166822391
20
100.86640790905753
10
251.58621621269396
20
101.68119392661296
10
251.57695222868642
20
102.49596792862494
10
251.54405367069342
20
105.14481851543434
10
251.53481371777275
20
105.83199946144623
10
251.52529740735258
20
106.51917740357229
10
251.51549272388934
20
107.20635834958416
10
251.49117326392661
20
108.83123531108814
10
251.48796511382284
20
109.03768637881514
10
251.48473293263214
20
109.24413744654218
10
251.48147672035452
20
109.45060353369854
10
251.39415976603186
20
114.47748937716177
10
251.3132110497429
20
118.50178175296342
10
251.22242160336032
20
122.52584583343933
10
251.12180344242756
20
126.5496793656751
10
251.01134455140127
20
130.57326958315585
10
250.91340585666006
20
133.87337989783245
10
250.87937783758176
20
134.97047148446265
10
250.84461687035247
20
136.06754805166352
10
250.80914698605898
20
137.16459392290571
10
250.70643812056429
20
140.21983074737088
10
250.68149385234162
20
140.93745926825287
10
250.6562491955325
20
141.65508027942022
10
250.63066810350651
20
142.37268570792966
10
250.51029638912578
20
145.64017982988452
10
250.47781837515384
20
146.49233719148597
10
250.44490780161732
20
147.34447277491486
10
250.4115766840597
20
148.19659934668616
10
250.28960690239884
20
151.22174521385625
10
250.22430242369461
20
152.78754174816814
10
250.15749600205788
20
154.35327670281981
10
250.08921166857559
20
155.91895007781125
10
249.98999932622763
20
158.13480854050172
10
249.98352294830281
20
158.27735644228051
10
249.977022539291
20
158.41990434405929
10
249.97051011473576
20
158.56245224583807
10
249.93555689881109
20
159.32340111897875
10
249.89029434659784
20
160.29743664372216
10
249.84446706384202
20
161.27145264320745
10
249.7980630350001
20
162.24543409800526
10
249.57628013381827
20
166.74217764264796
10
249.51103573283135
20
168.01953504843456
10
249.44480605728069
20
169.29685039981908
10
249.37756707607943
20
170.57410266960045
10
249.2520767401848
20
172.90969602286825
10
249.22024756555967
20
173.49235976409472
10
249.18820211115229
20
174.07501749754942
10
249.15596440804956
20
174.65766021157486
10
249.10821463834012
20
175.51389084240918
10
249.09550219335958
20
175.74037782885543
10
249.08275370174869
20
175.96685580364419
10
249.06999319459433
20
176.1933427900905
10
248.97249907496118
20
177.90455443523928
10
248.77344958200541
20
181.30522658798867
10
248.56735898058218
20
184.70547218894524
10
248.35425130177839
20
188.10529123810898
10
248.09431905011161
20
192.10744347314292
10
247.79731884687121
20
196.50682056330172
10
247.48853139549669
20
200.90537458873348
10
247.16795669598807
20
205.30310554943824
10
246.83563079497571
20
209.69993534438356
10
246.65643097981561
20
212.00800108758486
10
246.58141794199582
20
212.96193310617701
10
246.50585218917686
20
213.91582307036708
10
246.4297217058153
20
214.86966497238328
10
246.24445404120797
20
217.16246496761886
10
246.10161326055737
20
218.90366140147168
10
245.95692208621389
20
220.64468360994437
10
245.81038051817768
20
222.38557364743889
10
245.79566147743935
20
222.5592042582054
10
245.65121061396513
20
224.25189394311082
10
245.50501749668916
20
225.94443343372302
10
245.35709414115507
20
227.63681071449852
10
244.88171117970984
20
232.94453285136282
10
244.86448089038845
20
233.1334111867798
10
244.84722656998014
20
233.3222835144251
10
244.82993620294138
20
233.51113781875517
10
244.7069811467168
20
234.84837168148806
10
244.4505093715664
20
237.59990710270529
10
244.18941161218407
20
240.3510039565862
10
243.92369988411306
20
243.10163821204395
10
243.83287439110009
20
244.03104049866278
10
243.81922473372975
20
244.17014444529744
10
243.791925418989
20
244.4483283074797
10
243.57021461106794
20
246.68860235448057
10
243.42485056629076
20
248.14080093703726
10
243.27818884281987
20
249.5928673486159
10
243.13025347174229
20
251.04480158921638
10
241.89769902363162
20
250.82347527868609
10
240.6647120159563
20
250.60451603021738
10
239.43129244871645
20
250.38795989044064
10
239.12482399722964
20
250.33453878421813
10
236.93797105645129
20
249.95771932577401
10
234.7498444680661
20
249.58840958199229
10
232.56044423207419
20
249.22664559950329
10
232.22167799976739
20
249.17136208404457
10
232.09187408377068
20
249.1502267430987
10
231.96205815223053
20
249.12910341769631
10
231.83225423623384
20
249.10804017001118
10
231.42123854110298
20
249.04146204370019
10
228.68269793013758
20
248.60482920991299
10
225.94231894102285
20
248.17997160871636
10
223.20013161261741
20
247.7668892401104
10
220.45618400709509
20
247.36559411963856
10
217.71056023326011
20
246.97607423175731
10
217.31329632761907
20
246.92071862303783
10
214.76340575674496
20
246.57135468139944
10
212.21215142168808
20
246.23216790507155
10
209.65955735353549
20
245.90313426296717
10
207.10566560668929
20
245.58428980171675
10
204.55053625886663
20
245.27563452132031
10
201.99418733338285
20
244.97715640623437
10
199.47097126898956
20
244.69267639927909
10
198.60912637547369
20
244.59781368366367
10
197.74715531875145
20
244.50410446022033
10
196.8850641065946
20
244.41154872894916
10
194.61886051680739
20
244.17384523268308
10
193.17315032771904
20
244.02641451443077
10
191.7271037034138
20
243.88225202399963
10
190.28073866720689
20
243.74133373030253
10
188.42087672614466
20
243.56495756785549
10
186.95407325051252
20
243.42969859512803
10
185.48696938629391
20
243.29777994348245
10
184.01957114126054
20
243.16920161291861
10
181.80132759319332
20
242.98125448211977
10
180.87455671059215
20
242.90500384332361
10
179.94766567255635
20
242.830074914308
10
179.0206785101729
20
242.7565037417034
10
176.8005004596086
20
242.58573883805209
10
175.35316516826731
20
242.47856019039031
10
173.90560458548612
20
242.37464977054958
10
172.45780369183578
20
242.27399556298647
10
170.2783192830841
20
242.12860748712239
10
170.14167852285877
20
242.11974001604901
10
170.00503776263344
20
242.11090859160603
10
169.86839399852218
20
242.10210119824995
10
165.69269225764015
20
241.84691508624979
10
164.69429371658896
20
241.78991334807631
10
163.6958110667336
20
241.73448564609603
10
162.69723830030222
20
241.68059593367869
10
160.81776354070934
20
241.58342175088279
10
159.38233309676923
20
241.51277483817501
0
LWPOLYLINE
5
101
100
AcDbEntity
8
0
100
AcDbPolyline
90
416
70
1
43
0.0
10
27.370443837786297
20
248.72264161353678
10
30.116482147870634
20
248.29363864984654
10
32.864340812789138
20
247.87645898092075
10
35.613977778139706
20
247.47110260675947
10
38.365314942889817
20
247.07758154290613
10
41.118346299267785
20
246.69591982044767
10
43.872981730697646
20
246.32611743938409
10
46.62917317500554
20
245.96815036862841
10
49.386890593332843
20
245.62209070144149
10
52.146079915733978
20
245.28787836010594
10
54.906669048948167
20
244.96554939125218
10
57.668627954116793
20
244.6551278259671
10
60.431890545750818
20
244.35657761762036
10
63.196420777219856
20
244.06993481284235
10
65.962164578578324
20
243.79518739608957
10
68.729055864337226
20
243.53235939844893
10
71.497046572322688
20
243.28143880437705
10
74.266106663676069
20
243.04243762941729
10
77.036158037364913
20
242.81535587356973
10
79.807167650644672
20
242.60020555237773
10
82.579078429683918
20
242.39697465029798
10
85.351827292879477
20
242.20569921396074
10
88.125390209144442
20
242.02633118119221
10
90.899698089103936
20
241.85893062970962
10
93.674690855040637
20
241.70348554396966
10
96.450326452552432
20
241.5599718928853
10
99.2265568194655
20
241.4283896764565
10
102.00333689749183
20
241.30879897240072
10
104.78060210308534
20
241.20112768745707
10
107.55829686435757
20
241.1054238837994
10
110.33638813856398
20
241.02168756142774
10
113.11480082855793
20
240.94990670479862
10
115.89350264256638
20
240.89009332945557
10
118.67244852230135
20
240.84222340431157
10
121.45156186867331
20
240.80633297599701
10
124.23081339379505
20
240.78241002896843
10
127.01013325732022
20
240.77045456322591
10
129.78947583773225
20
240.77045456322591
10
132.56880339871495
20
240.78241002896846
10
135.34804628766483
20
240.80633297599701
10
138.12716038500824
20
240.84222340431151
10
140.90609875502855
20
240.89009332945554
10
143.68480056903701
20
240.94990670479865
10
146.46322827846029
20
241.02168756142777
10
149.24131204295202
20
241.1054238837994
10
152.0190143139389
20
241.20112768745707
10
154.79627651564658
20
241.30879897240072
10
157.57304457812947
20
241.4283896764565
10
160.34928395670008
20
241.55997189288527
10
163.12491955421191
20
241.70348554396963
10
165.89992133180618
20
241.85893062970965
10
168.67421719622223
20
242.02633118119221
10
171.44777410471545
20
242.20569921396071
10
174.22052897568275
20
242.39697465029798
10
176.99244275860787
20
242.60020555237776
10
179.7634553757735
20
242.81535587356973
10
182.5335007416906
20
243.04243762941726
10
185.30256083304397
20
243.28143880437705
10
188.07055754880116
20
243.53235939844893
10
190.83744883456006
20
243.79518739608955
10
193.60319263591859
20
244.06993481284232
10
196.36771685961583
20
244.35657761762036
10
199.13097344347815
20
244.6551278259671
10
201.89293835641851
20
244.96554939125218
10
204.65353349740442
20
245.28787836010591
10
207.41271080426205
20
245.62209070144146
10
210.17044023813284
20
245.96815036862836
10
212.92663168244076
20
246.32611743938406
10
215.68126711387063
20
246.69591982044764
10
218.4342864547051
20
247.07758154290613
10
221.18563563499868
20
247.47110260675942
10
223.93526058480577
20
247.87645898092075
10
226.68313126526778
20
248.29363864984651
10
229.42916957535209
20
248.72264161353672
10
232.17332745288499
20
249.16347988753495
10
234.91557485900771
20
249.61611742521069
10
237.65583970045958
20
250.080554226564
10
240.39408593061023
20
250.55679029159489
10
243.13025347174232
20
251.04480158921643
10
243.56864057487471
20
246.7043667474999
10
243.99554081845949
20
242.36276639806783
10
244.41093017140972
20
238.02006662640909
10
244.81482064926891
20
233.67627344029552
10
245.20720023649349
20
229.33142288635753
10
245.58805691754017
20
224.9855570189971
10
245.95741472349576
20
220.63868785375789
10
246.31526163881685
20
216.29086946058527
10
246.66159766350333
20
211.94209583170763
10
246.99639876646845
20
207.59243906038566
10
247.31968897879895
20
203.24189914661943
10
247.63144426940806
20
198.89053616812618
10
247.93167665383916
20
194.53835012490597
10
248.22037411654887
20
190.18538307136083
10
248.4975486730805
20
185.83167105412119
10
248.76318830789072
20
181.47723810427394
10
249.01729302097948
20
177.12211426067773
10
249.2598628123468
20
172.76633256607712
10
249.49089768199264
20
168.40993207098833
10
249.71039762991708
20
164.05292479095488
10
249.91835064057659
20
159.6953572862075
10
250.11474469842773
20
155.33725508977625
10
250.29961585010088
20
150.97864373469085
10
250.47294006450912
20
146.61955776563877
10
250.63470532610899
20
142.26002984987883
10
250.78492365044397
20
137.90009044869112
10
250.92360705305748
20
133.53976195041244
10
251.05074351840608
20
129.17908955413796
10
251.16630901540282
20
124.81809761950457
10
251.27033959067816
20
120.45679928851297
10
251.36281121314511
20
116.09525764276628
10
251.44372388280371
20
111.7334696783787
10
251.51310163074083
20
107.37150298278212
10
251.57090841032615
20
103.00935004626194
10
251.61716825264651
20
98.647076954307153
10
251.6518691421586
20
94.28468070303191
10
251.65173697118053
20
93.415034717924698
10
251.63980553652488
20
92.54545181442063
10
251.61607483819171
20
91.676130248986837
10
251.5805568917244
20
90.807199188715487
10
251.53326371266647
20
89.938841870644325
10
251.4741832854744
20
89.071193469637308
10
251.40333964123514
20
88.204431214960437
10
251.32075681103566
20
87.338711308678754
10
251.22642277933241
20
86.474180941199549
10
251.12038560829933
20
85.611020345674774
10
251.00264529793631
20
84.749373708625939
10
250.8732138637869
20
83.889415255433221
10
250.73212735248143
20
83.031277157074669
10
250.57940979510678
20
82.175139646702178
10
250.4151092538369
20
81.321146910837285
10
250.23923774421519
20
80.469461159316637
10
250.051831312872
20
79.62025060974878
10
249.85290197535079
20
78.773647433111648
10
249.64252182491242
20
77.929819847013789
10
249.42071489264373
20
77.088936069063564
10
249.1875172251751
20
76.251122262467334
10
248.94296486913686
20
75.416564668148723
10
248.68712991778992
20
74.585401464857512
10
248.42003640222106
20
73.757782846886954
10
248.14174440014762
20
72.933853000758575
10
247.8522899582
20
72.113780144080806
10
247.55174516963893
20
71.297714471146904
10
247.24015809663825
20
70.485794160706632
10
246.9175888169153
20
69.678181422596722
10
246.58408539264389
20
68.875014435566953
10
246.23973193262825
20
68.07644339391058
10
245.88456448349874
20
67.282618491920829
10
245.51865513851612
20
66.49370193943443
10
245.14208800648461
20
65.709807884114255
10
244.75491114957808
20
64.931092528025275
10
244.35722069214415
20
64.157700057688999
10
243.94907671190023
20
63.389774659626937
10
243.53053928656351
20
62.627460520360636
10
243.10170454048171
20
61.870877795324681
10
242.66264456691556
20
61.120206717670968
10
242.2134434746693
20
60.375549419518897
10
241.75418537254717
20
59.637056095161739
10
241.28494235380992
20
58.904858915577528
10
240.80581054280518
20
58.179090051744339
10
240.31688606388073
20
57.459899697955436
10
239.81824101029724
20
56.74738998633017
10
239.30998352194587
20
56.041735142248754
10
238.79219770763083
20
55.343013266743661
10
238.26497969169978
20
54.651398585195096
10
237.72842559850048
20
53.966993229722398
10
237.182643567924
20
53.289935379075416
10
236.6277297243181
20
52.620333173145269
10
236.06376817648686
20
51.958324790681729
10
235.49089109540847
20
51.304036394891156
10
234.90918258988702
20
50.657558102349476
10
234.31877483090074
20
50.01906413843686
10
233.71973991171023
20
49.388614580870602
10
233.11221000329365
20
48.766341600628778
10
232.4963052610855
20
48.15238337646116
10
231.87212180943359
20
47.546830024943709
10
231.23976778822896
20
46.949813717054468
10
230.5993873839931
20
46.361406546054212
10
229.95108873661729
20
45.781758706236182
10
229.29497998599254
20
45.210954306404581
10
228.63118729532519
20
44.649095478678859
10
227.95984283559341
20
44.096296370721831
10
227.28104273114471
20
43.552671130196423
10
226.59494919181597
20
43.018279834819879
10
225.90165834195471
20
42.493266671113759
10
225.20131436808256
20
41.977691716795334
10
224.49404343340578
20
41.471675127299221
10
223.77996569335903
20
40.975301011429636
10
223.05922533446378
20
40.488653477990788
10
222.33194851992639
20
40.011804620243431
10
221.59826742072485
20
39.544904632480844
10
220.85831420783737
20
39.087983553561656
10
220.1122330677853
20
38.641143515605265
10
219.36017419486194
20
38.204468627415913
10
218.602257744502
20
37.778030982254336
10
217.83861588768335
20
37.361908681153039
10
217.06939881869937
20
36.956197848459709
10
216.29475072407155
20
36.560946546348156
10
215.51480978254966
20
36.176256906937809
10
214.72973219619865
20
35.802164976859039
10
213.93965013599666
20
35.438766880459546
10
213.14468976514999
20
35.086110679913133
10
212.34504333235392
20
34.74428048402406
10
211.54082498527143
20
34.41333637050959
10
210.73219693373915
20
34.093326401543578
10
209.91929735650689
20
33.784298639299863
10
209.10227644786798
20
33.486349208126128
10
208.28129040988722
20
33.199490123565823
10
207.4564954446297
20
32.923805494423185
10
206.62802973084527
20
32.659355398415499
10
205.79605547837053
20
32.406139835542746
10
203.64193287797673
20
31.990786529222884
10
201.48558740204288
20
31.587160393319852
10
199.32708513605797
20
31.195261427833604
10
197.16646813442412
20
30.815125679394527
10
195.00382651371729
20
30.446765163546104
10
192.83920232833961
20
30.090155849201427
10
190.67267367932351
20
29.745345798534302
10
188.50430064438629
20
29.412335011544741
10
186.33414930901711
20
29.091135503776201
10
184.16227374316136
20
28.781735259685242
10
181.98875805562338
20
28.484182341445667
10
179.81365030857694
20
28.198440702427146
10
177.63700757585354
20
27.924546389260001
10
175.4589259818008
20
27.662511417487753
10
173.27943856916329
20
27.412323771566879
10
171.09862644285928
20
27.174019498127816
10
168.91654968060618
20
26.94755053499668
10
166.73327136400707
20
26.732988975434257
10
164.54886058243687
20
26.530322803897079
10
162.36337440972702
20
26.339515973754768
10
160.17688193525237
20
26.160628562724625
10
157.98945224838792
20
25.993636539719724
10
155.80114242296497
20
25.838551920283525
10
153.61202455224438
20
25.695386719959494
10
151.42215871394342
20
25.564128923204159
10
149.23160798966524
20
25.444790545560988
10
147.04044447267057
20
25.337371587029995
10
144.84872523679093
20
25.241896078698083
10
142.65652688111584
20
25.158339989478332
10
140.46389896976203
20
25.086715334914196
10
138.27091359599029
20
25.027022115005696
10
136.07763834723261
20
24.979260329752822
10
133.8841340521777
20
24.943454010242483
10
131.69046942471476
20
24.919567109844319
10
129.4967054812754
20
24.90763567518869
10
127.302903613777
20
24.907635675188693
10
125.10913985808052
20
24.919567109844319
10
122.91547523061757
20
24.94345401024248
10
120.7219780697916
20
24.979260329752819
10
118.52869531131924
20
25.027022115005693
10
116.33571819823362
20
25.086715334914199
10
114.14308953590836
20
25.158339989478328
10
111.95087616080393
20
25.241896078698073
10
109.75916443463895
20
25.337371587029995
10
107.5680009176443
20
25.444790545560998
10
105.37745019336612
20
25.564128923204162
10
103.18758585700807
20
25.695386719959483
10
100.99846498240161
20
25.838551920283521
10
98.810158160864574
20
25.993636539719724
10
96.622719462342502
20
26.160628562724625
10
94.43624200729721
20
26.339515973754771
10
92.250755834587338
20
26.530322803897086
10
90.066339045245414
20
26.732988975434257
10
87.883066736418044
20
26.94755053499668
10
85.700980962507316
20
27.174019498127812
10
83.520162828431609
20
27.412323771566882
10
81.340693439109259
20
27.662511417487746
10
79.162593821741353
20
27.924546389259998
10
76.985969112333123
20
28.198440702427146
10
74.810861365286712
20
28.484182341445671
10
72.637333662205265
20
28.781735259685242
10
70.465464104121267
20
29.091135503776194
10
68.295312768752041
20
29.412335011544744
10
66.126927718271432
20
29.745345798534295
10
63.960411084798785
20
30.090155849201423
10
61.795780891649351
20
30.446765163546118
10
59.633145278714252
20
30.815125679394537
10
57.4725282770804
20
31.195261427833589
10
55.314013995552031
20
31.587160393319863
10
53.157680535161617
20
31.990786529222927
10
51.003563942539557
20
32.406139835542795
10
50.171577674521345
20
32.659355398415521
10
49.343117968508608
20
32.923805494423213
10
48.518316995479395
20
33.199490123565873
10
47.697336965270409
20
33.486349208126171
10
46.880316056631422
20
33.784298639299898
10
46.067422487170916
20
34.093326401543614
10
45.258782420095187
20
34.413336370509619
10
44.454570080784414
20
34.744280484024081
10
43.654911632444907
20
35.086110679913176
10
42.859963277141667
20
35.438766880459582
10
42.069881216939677
20
35.802164976859075
10
41.284803630588698
20
36.176256906937844
10
40.504856681295074
20
36.560946546348177
10
39.7302206022107
20
36.956197848459738
10
38.960985509911524
20
37.361908681153075
10
38.197367684179817
20
37.778030982254379
10
37.439433210504632
20
38.204468627415942
10
36.687368329809587
20
38.6411435156053
10
35.941287189757524
20
39.087983553561692
10
35.201352000185189
20
39.544904632480879
10
34.46766489321196
20
40.011804620243481
10
33.740376063131102
20
40.488653477990823
10
33.019647719779314
20
40.975301011429657
10
32.305569979732546
20
41.471675127299257
10
31.598293037284058
20
41.977691716795377
10
30.897943055640177
20
42.493266671113794
10
30.204652205778935
20
43.018279834819921
10
29.518564674221885
20
43.552671130196458
10
28.839776585316677
20
44.096296370721866
10
28.168426117813127
20
44.649095478678895
10
27.50462141160234
20
45.210954306404616
10
26.848524676521063
20
45.781758706236218
10
26.200214013601745
20
46.361406546054241
10
25.559833609365938
20
46.949813717054511
10
24.927491603704752
20
47.546830024943745
10
24.303296136509363
20
48.152383376461202
10
23.687403409844705
20
48.766341600628813
10
23.079873501428104
20
49.388614580870644
10
22.480838582237613
20
50.019064138436903
10
21.890418807707825
20
50.657558102349505
10
21.308722317729895
20
51.304036394891199
10
20.735845236651478
20
51.958324790681786
10
20.171883688820273
20
52.620333173145312
10
19.616969845214324
20
53.289935379075445
10
19.071175799094398
20
53.966993229722448
10
18.534633721438553
20
54.651398585195111
10
18.007403689964089
20
55.343013266743696
10
17.489629891192518
20
56.041735142248797
10
16.981360387297688
20
56.747389986330191
10
16.482715333714172
20
57.459899697955457
10
15.993790854789701
20
58.179090051744382
10
15.514671059328444
20
58.904858915577577
10
15.045428040591165
20
59.637056095161768
10
14.586181954012506
20
60.375549419518933
10
14.136968846222793
20
61.120206717670996
10
13.697908872656669
20
61.870877795324716
10
13.269062111031396
20
62.627460520360671
10
12.850548716781585
20
63.38977465962698
10
12.442392720994169
20
64.157700057689027
10
12.044690248016812
20
64.931092528025303
10
11.657525406653743
20
65.709807884114298
10
11.280946259078812
20
66.493701939434473
10
10.915048929639655
20
67.282618491920871
10
10.55988148051015
20
68.076443393910623
10
10.215516004951027
20
68.875014435566996
10
9.8820245962230739
20
69.678181422596765
10
9.5594433009566551
20
70.485794160706675
10
9.2478562279560066
20
71.297714471146932
10
8.9473234549384113
20
72.113780144080849
10
8.657869012990778
20
72.933853000758631
10
8.3795770109173446
20
73.757782846886997
10
8.1124834953484903
20
74.585401464857554
10
7.8566365284580328
20
75.416564668148766
10
7.6120961879633011
20
76.251122262467362
10
7.3788985204946638
20
77.088936069063593
10
7.1570795726824947
20
77.929819847013817
10
6.9466994222441052
20
78.773647433111705
10
6.7477700847229283
20
79.620250609748808
10
6.560375668923216
20
80.469461159316694
10
6.3845041593014971
20
81.321146910837314
10
6.2201916024881339
20
82.175139646702206
10
6.0674860606569805
20
83.031277157074726
10
5.9263995493515029
20
83.889415255433249
10
5.7969681152020627
20
84.749373708625981
10
5.6792157892956094
20
85.611020345674817
10
5.5731786182624843
20
86.474180941199577
10
5.4788566021027165
20
87.338711308678768
10
5.3962617563597473
20
88.204431214960479
10
5.3254181121205137
20
89.071193469637365
10
5.266349700471932
20
89.938841870644367
10
5.2190445058705182
20
90.807199188715515
10
5.1835265594032318
20
91.676130248986865
10
5.1597958610700339
20
92.545451814420673
10
5.1478764419578784
20
93.415034717924726
10
5.147744270979806
20
94.284680703031952
10
5.1824331449483765
20
98.647076954307209
10
5.2287050028122461
20
103.00935004626199
10
5.286523797941002
20
107.37150298278216
10
5.3558895303346858
20
111.73346967837873
10
5.436802199993263
20
116.09525764276633
10
5.5292738224602269
20
120.456799288513
10
5.6332923821920815
20
124.8180976195046
10
5.7488819102757835
20
129.17908955413799
10
5.8759943445374549
20
133.53976195041247
10
6.0146777471509782
20
137.90009044869117
10
6.1648960714859289
20
142.26002984987889
10
6.326661333085811
20
146.6195577656388
10
6.4999975630375033
20
150.97864373469088
10
6.6848566991672005
20
155.33725508977628
10
6.8812627725617954
20
159.69535728620755
10
7.0892037676778408
20
164.0529247909549
10
7.308703715602257
20
168.40993207098836
10
7.5397385852481396
20
172.76633256607715
10
7.7823083766154566
20
177.12211426067779
10
8.0364130897042259
20
181.47723810427397
10
8.3020527245144287
20
185.83167105412119
10
8.5792272810461032
20
190.18538307136083
10
8.8679367592992122
20
194.538350124906
10
9.1681811592737876
20
198.89053616812623
10
9.4799244343394218
20
203.24189914661952
10
9.8032146466699714
20
207.59243906038569
10
10.138027765178496
20
211.94209583170763
10
10.48433975877813
20
216.29086946058533
10
10.842186674099185
20
220.63868785375792
10
11.211544480054773
20
224.98555701899716
10
11.592413176644881
20
229.33142288635759
10
11.984792763869523
20
233.67627344029557
10
12.388683241728703
20
238.02006662640912
10
12.804072594678942
20
242.36276639806783
10
13.230972838263714
20
246.70436674749993
10
13.669347925852648
20
251.04480158921646
10
16.405527482528182
20
250.55679029159492
10
19.14376169713535
20
250.08055422656406
10
21.884038554130676
20
249.61611742521072
10
24.626273944709979
20
249.16347988753498
0
ENDSEC
0
SECTION
2
OBJECTS
0
DICTIONARY
5
C
100
AcDbDictionary
3
ACAD_GROUP
350
D
3
ACAD_MLINESTYLE
350
17
0
DICTIONARY
5
D
100
AcDbDictionary
0
DICTIONARY
5
1A
330
C
100
AcDbDictionary
0
DICTIONARY
5
17
100
AcDbDictionary
0
ENDSEC
0
EOF
