0
SECTION
2
HEADER
9
$INSUNITS
70
4
9
$ACADVER
1
AC1014
9
$HANDSEED
5
FFFF
0
ENDSEC
0
SECTION
2
TABLES
0
TABLE
2
VPORT
5
8
100
AcDbSymbolTable
0
ENDTAB
0
TABLE
2
LTYPE
5
5
100
AcDbSymbolTable
0
LTYPE
5
14
100
AcDbSymbolTableRecord
100
AcDbLinetypeTableRecord
2
BYBLOCK
70
0
0
LTYPE
5
15
100
AcDbSymbolTableRecord
100
AcDbLinetypeTableRecord
2
BYLAYER
70
0
0
LTYPE
5
16
100
AcDbSymbolTableRecord
100
AcDbLinetypeTableRecord
2
DASHED
70
0
3
Dashed __ __ __ __ __ __ __ __ __ __ __ __ __ _
72
65
73
2
40
0.75
49
0.5
74
0
49
-0.25
74
0
0
ENDTAB
0
TABLE
2
LAYER
5
2
100
AcDbSymbolTable
70
2
0
LAYER
5
50
100
AcDbSymbolTableRecord
100
AcDbLayerTableRecord
2
0
70
0
62
7
6
CONTINUOUS
0
ENDTAB
0
TABLE
2
STYLE
5
3
100
AcDbSymbolTable
70
1
0
STYLE
5
11
100
AcDbSymbolTableRecord
100
AcDbTextStyleTableRecord
2
STANDARD
70
0
0
ENDTAB
0
TABLE
2
VIEW
5
6
100
AcDbSymbolTable
70
0
0
ENDTAB
0
TABLE
2
UCS
5
7
100
AcDbSymbolTable
70
0
0
ENDTAB
0
TABLE
2
APPID
5
9
100
AcDbSymbolTable
70
2
0
APPID
5
12
100
AcDbSymbolTableRecord
100
AcDbRegAppTableRecord
2
ACAD
70
0
0
ENDTAB
0
TABLE
2
DIMSTYLE
5
A
100
AcDbSymbolTable
70
1
0
ENDTAB
0
TABLE
2
BLOCK_RECORD
5
1
100
AcDbSymbolTable
70
1
0
BLOCK_RECORD
5
1F
100
AcDbSymbolTableRecord
100
AcDbBlockTableRecord
2
*MODEL_SPACE
0
BLOCK_RECORD
5
1B
100
AcDbSymbolTableRecord
100
AcDbBlockTableRecord
2
*PAPER_SPACE
0
ENDTAB
0
ENDSEC
0
SECTION
2
BLOCKS
0
BLOCK
5
20
100
AcDbEntity
100
AcDbBlockBegin
2
*MODEL_SPACE
0
ENDBLK
5
21
100
AcDbEntity
100
AcDbBlockEnd
0
BLOCK
5
1C
100
AcDbEntity
100
AcDbBlockBegin
2
*PAPER_SPACE
0
ENDBLK
5
1D
100
AcDbEntity
100
AcDbBlockEnd
0
ENDSEC
0
SECTION
2
ENTITIES
0
SPLINE
5
100
100
AcDbEntity
8
0
100
AcDbSpline
70
4
71
5
72
23
73
17
74
0
42
0.000000001
43
0.0000000001
44
0.0000000001
40
-1
40
-1
40
-1
40
-1
40
-1
40
-1
40
-0.91666666666666663
40
-0.83333333333333315
40
-0.75
40
-0.66666666666666663
40
-0.58333333333333326
40
-0.5
40
-0.41666666666666657
40
-0.33333333333333331
40
-0.25
40
-0.16666666666666666
40
-0.083333333333333329
40
0
40
0
40
0
40
0
40
0
40
0
41
1
41
1
41
1
41
1
41
1
41
1
41
1
41
1
41
1
41
1
41
1
41
1
41
1
41
1
41
1
41
1
41
1
10
114.69589399918915
20
-18.889373602385575
30
0
10
66.652168178815103
20
-19.940454686869309
30
0
10
34.148661321982338
20
-22.654880313028798
30
0
10
24.126166702316581
20
-24.464497397135112
30
0
10
17.235701651296363
20
-26.622117766646483
30
0
10
12.224454341463476
20
-29.197342078643906
30
0
10
8.0484149166027379
20
-32.468572961451549
30
0
10
5.6819925758483238
20
-35.252599244692
30
0
10
3.0371676067698594
20
-39.567839983714777
30
0
10
1.8539564363926524
20
-42.769470209441387
30
0
10
0.46194329477240159
20
-50.912747087919783
30
0
10
0.1139400093673467
20
-63.162462734177964
30
0
10
0.11394000936735162
20
-103.18284055576008
30
0
10
0.044339352286341428
20
-141.32400063615481
30
0
10
0.25314132352938257
20
-186.49482708173173
30
0
10
0.11394000936736368
20
-201.59816966831141
30
0
10
0.050251336875750938
20
-222.24604374084885
30
0
0
SPLINE
5
101
100
AcDbEntity
8
0
100
AcDbSpline
70
4
71
5
72
12
73
6
74
0
42
0.000000001
43
0.0000000001
44
0.0000000001
40
-1
40
-1
40
-1
40
-1
40
-1
40
-1
40
0
40
0
40
0
40
0
40
0
40
0
41
1
41
1
41
1
41
1
41
1
41
1
10
0.050251336875750938
20
-222.24604374084885
30
0
10
11.02195632611409
20
-220.09875334279081
30
0
10
31.599206008757434
20
-217.51799460332882
30
0
10
55.565641222068123
20
-216.06356641971166
30
0
10
78.932706706017356
20
-215.66119161450914
30
0
10
114.69589399918917
20
-214.97089638952002
30
0
0
SPLINE
5
102
100
AcDbEntity
8
0
100
AcDbSpline
70
4
71
5
72
12
73
6
74
0
42
0.000000001
43
0.0000000001
44
0.0000000001
40
-1
40
-1
40
-1
40
-1
40
-1
40
-1
40
0
40
0
40
0
40
0
40
0
40
0
41
1
41
1
41
1
41
1
41
1
41
1
10
229.34153666150257
20
-222.24604374084879
30
0
10
218.36983167226424
20
-220.09875334279076
30
0
10
197.79258198962086
20
-217.51799460332882
30
0
10
173.82614677631022
20
-216.06356641971163
30
0
10
150.45908129236102
20
-215.66119161450911
30
0
10
114.69589399918917
20
-214.97089638952002
30
0
0
SPLINE
5
103
100
AcDbEntity
8
0
100
AcDbSpline
70
4
71
5
72
23
73
17
74
0
42
0.000000001
43
0.0000000001
44
0.0000000001
40
-1
40
-1
40
-1
40
-1
40
-1
40
-1
40
-0.91666666666666663
40
-0.83333333333333315
40
-0.75
40
-0.66666666666666663
40
-0.58333333333333326
40
-0.5
40
-0.41666666666666657
40
-0.33333333333333331
40
-0.25
40
-0.16666666666666666
40
-0.083333333333333329
40
0
40
0
40
0
40
0
40
0
40
0
41
1
41
1
41
1
41
1
41
1
41
1
41
1
41
1
41
1
41
1
41
1
41
1
41
1
41
1
41
1
41
1
41
1
10
114.69589399918915
20
-18.889373602385575
30
0
10
162.73961981956313
20
-19.940454686869273
30
0
10
195.24312667639592
20
-22.654880313028762
30
0
10
205.26562129606162
20
-24.464497397135077
30
0
10
212.1560863470819
20
-26.622117766646447
30
0
10
217.16733365691479
20
-29.197342078643871
30
0
10
221.34337308177552
20
-32.468572961451514
30
0
10
223.70979542252994
20
-35.252599244691964
30
0
10
226.35462039160839
20
-39.567839983714741
30
0
10
227.53783156198563
20
-42.769470209441351
30
0
10
228.92984470360585
20
-50.912747087919747
30
0
10
229.27784798901084
20
-63.162462734177929
30
0
10
229.27784798901087
20
-103.18284055576004
30
0
10
229.347448646092
20
-141.32400063615475
30
0
10
229.1386466748489
20
-186.4948270817317
30
0
10
229.27784798901087
20
-201.59816966831136
30
0
10
229.34153666150257
20
-222.24604374084879
30
0
0
ENDSEC
0
SECTION
2
OBJECTS
0
DICTIONARY
5
C
100
AcDbDictionary
3
ACAD_GROUP
350
D
3
ACAD_MLINESTYLE
350
17
0
DICTIONARY
5
D
100
AcDbDictionary
0
DICTIONARY
5
1A
330
C
100
AcDbDictionary
0
DICTIONARY
5
17
100
AcDbDictionary
0
ENDSEC
0
EOF
