0
SECTION
2
HEADER
9
$INSUNITS
70
4
9
$ACADVER
1
AC1014
9
$HANDSEED
5
FFFF
0
ENDSEC
0
SECTION
2
TABLES
0
TABLE
2
VPORT
5
8
100
AcDbSymbolTable
0
ENDTAB
0
TABLE
2
LTYPE
5
5
100
AcDbSymbolTable
0
LTYPE
5
14
100
AcDbSymbolTableRecord
100
AcDbLinetypeTableRecord
2
BYBLOCK
70
0
0
LTYPE
5
15
100
AcDbSymbolTableRecord
100
AcDbLinetypeTableRecord
2
BYLAYER
70
0
0
ENDTAB
0
TABLE
2
LAYER
5
2
100
AcDbSymbolTable
70
2
0
LAYER
5
50
100
AcDbSymbolTableRecord
100
AcDbLayerTableRecord
2
0
70
0
6
CONTINUOUS
0
ENDTAB
0
TABLE
2
STYLE
5
3
100
AcDbSymbolTable
70
1
0
STYLE
5
11
100
AcDbSymbolTableRecord
100
AcDbTextStyleTableRecord
2
STANDARD
70
0
0
ENDTAB
0
TABLE
2
VIEW
5
6
100
AcDbSymbolTable
70
0
0
ENDTAB
0
TABLE
2
UCS
5
7
100
AcDbSymbolTable
70
0
0
ENDTAB
0
TABLE
2
APPID
5
9
100
AcDbSymbolTable
70
2
0
APPID
5
12
100
AcDbSymbolTableRecord
100
AcDbRegAppTableRecord
2
ACAD
70
0
0
ENDTAB
0
TABLE
2
DIMSTYLE
5
A
100
AcDbSymbolTable
70
1
0
ENDTAB
0
TABLE
2
BLOCK_RECORD
5
1
100
AcDbSymbolTable
70
1
0
BLOCK_RECORD
5
1F
100
AcDbSymbolTableRecord
100
AcDbBlockTableRecord
2
*MODEL_SPACE
0
BLOCK_RECORD
5
1B
100
AcDbSymbolTableRecord
100
AcDbBlockTableRecord
2
*PAPER_SPACE
0
ENDTAB
0
ENDSEC
0
SECTION
2
BLOCKS
0
BLOCK
5
20
100
AcDbEntity
100
AcDbBlockBegin
2
*MODEL_SPACE
0
ENDBLK
5
21
100
AcDbEntity
100
AcDbBlockEnd
0
BLOCK
5
1C
100
AcDbEntity
100
AcDbBlockBegin
2
*PAPER_SPACE
0
ENDBLK
5
1D
100
AcDbEntity
100
AcDbBlockEnd
0
ENDSEC
0
SECTION
2
ENTITIES
0
LINE
5
100
100
AcDbEntity
8
0
100
AcDbLine
10
-232.3763193011344
20
0
30
0
11
-48.376319301134387
21
0
31
0
0
LINE
5
101
100
AcDbEntity
8
0
100
AcDbLine
10
-48.376319301134387
20
0
30
0
11
-48.376319301134387
21
9.5
31
0
0
ARC
5
102
100
AcDbEntity
8
0
100
AcDbCircle
10
-42.654236967724309
20
8.1945562500092333
30
0
40
5.8691063727550254
210
0
220
0
230
1
100
AcDbArc
50
104.23519666736678
51
167.14841729393947
0
LINE
5
103
100
AcDbEntity
8
0
100
AcDbLine
10
-44.097467055243044
20
13.883448631588827
30
0
11
-37.347467055243051
21
13.883448631588823
31
0
0
LINE
5
104
100
AcDbEntity
8
0
100
AcDbLine
10
-37.347467055243051
20
13.883448631588823
30
0
11
-37.347467055243051
21
122.42392818307576
31
0
0
SPLINE
5
105
100
AcDbEntity
8
0
100
AcDbSpline
70
4
71
5
72
91
73
85
74
0
42
0.000000001
43
0.0000000001
44
0.0000000001
40
0
40
0
40
0
40
0
40
0
40
0
40
0.012500000000000001
40
0.025000000000000001
40
0.037500000000000006
40
0.050000000000000003
40
0.0625
40
0.074999999999999997
40
0.087499999999999994
40
0.099999999999999992
40
0.11249999999999999
40
0.12499999999999999
40
0.13749999999999998
40
0.14999999999999999
40
0.16250000000000001
40
0.17500000000000002
40
0.18750000000000003
40
0.20000000000000004
40
0.21250000000000005
40
0.22500000000000006
40
0.23750000000000007
40
0.25000000000000006
40
0.26250000000000007
40
0.27500000000000008
40
0.28750000000000009
40
0.3000000000000001
40
0.31250000000000011
40
0.32500000000000012
40
0.33750000000000013
40
0.35000000000000014
40
0.36250000000000016
40
0.37500000000000017
40
0.38750000000000018
40
0.40000000000000019
40
0.4125000000000002
40
0.42500000000000021
40
0.43750000000000022
40
0.45000000000000023
40
0.46250000000000024
40
0.47500000000000026
40
0.48750000000000027
40
0.50000000000000022
40
0.51250000000000018
40
0.52500000000000013
40
0.53750000000000009
40
0.55000000000000004
40
0.5625
40
0.57499999999999996
40
0.58749999999999991
40
0.59999999999999987
40
0.61249999999999982
40
0.62499999999999978
40
0.63749999999999973
40
0.64999999999999969
40
0.66249999999999964
40
0.6749999999999996
40
0.68749999999999956
40
0.69999999999999951
40
0.71249999999999947
40
0.72499999999999942
40
0.73749999999999938
40
0.74999999999999933
40
0.76249999999999929
40
0.77499999999999925
40
0.7874999999999992
40
0.79999999999999916
40
0.81249999999999911
40
0.82499999999999907
40
0.83749999999999902
40
0.84999999999999898
40
0.86249999999999893
40
0.87499999999999889
40
0.88749999999999885
40
0.8999999999999988
40
0.91249999999999876
40
0.92499999999999871
40
0.93749999999999867
40
0.94999999999999862
40
0.96249999999999858
40
0.97499999999999853
40
0.98749999999999849
40
1
40
1
40
1
40
1
40
1
40
1
41
1
41
1
41
1
41
1
41
1
41
1
41
1
41
1
41
1
41
1
41
1
41
1
41
1
41
1
41
1
41
1
41
1
41
1
41
1
41
1
41
1
41
1
41
1
41
1
41
1
41
1
41
1
41
1
41
1
41
1
41
1
41
1
41
1
41
1
41
1
41
1
41
1
41
1
41
1
41
1
41
1
41
1
41
1
41
1
41
1
41
1
41
1
41
1
41
1
41
1
41
1
41
1
41
1
41
1
41
1
41
1
41
1
41
1
41
1
41
1
41
1
41
1
41
1
41
1
41
1
41
1
41
1
41
1
41
1
41
1
41
1
41
1
41
1
41
1
41
1
41
1
41
1
41
1
41
1
41
1
41
1
41
1
41
1
41
1
41
1
10
-37.347467055243044
20
122.42392818307576
30
0
10
-37.357059627682723
20
122.71213212960673
30
0
10
-37.377654312891806
20
123.30207635459595
30
0
10
-37.412774883807273
20
124.22760105410069
30
0
10
-37.468062224788241
20
125.54287687104049
30
0
10
-37.551111241190192
20
127.31970176410582
30
0
10
-37.647610944320007
20
129.22112593699535
30
0
10
-37.756544350630435
20
131.23054604241045
30
0
10
-37.876248247892136
20
133.3205199497059
30
0
10
-38.004099911256681
20
135.44881096484738
30
0
10
-38.136869821083494
20
137.55983334676438
30
0
10
-38.272011826653895
20
139.59361820605989
30
0
10
-38.408689215305458
20
141.49275770015564
30
0
10
-38.548981468381726
20
143.21052118675473
30
0
10
-38.698849832233357
20
144.71766619390093
30
0
10
-38.8696170131267
20
146.01181649304243
30
0
10
-39.077782645519996
20
147.11856988285643
30
0
10
-39.342778372423616
20
148.08151355872513
30
0
10
-39.684948106117119
20
148.95474850936037
30
0
10
-40.124093699830119
20
149.79493959316
30
0
10
-40.674471861332016
20
150.6513090402218
30
0
10
-41.33975503333496
20
151.55636641450815
30
0
10
-42.1055607887414
20
152.51296120634362
30
0
10
-42.943161163348535
20
153.49709943827361
30
0
10
-43.823132702291929
20
154.4741123517388
30
0
10
-44.724678138486532
20
155.40973958868094
30
0
10
-45.650185017596804
20
156.28619580519342
30
0
10
-46.62098463623883
20
157.10232472409888
30
0
10
-47.661345358957959
20
157.86446198125947
30
0
10
-48.7876570487579
20
158.58082062249844
30
0
10
-49.99159532443074
20
159.25271438816409
30
0
10
-51.243294423758321
20
159.87484213040401
30
0
10
-52.508365221016142
20
160.44157251567569
30
0
10
-53.759698642302467
20
160.95101641326698
30
0
10
-54.994020861178385
20
161.41106507824145
30
0
10
-56.238025447618092
20
161.84119168734611
30
0
10
-57.531450681077928
20
162.26492362875041
30
0
10
-58.914695295222955
20
162.7041532242458
30
0
10
-60.414502801310299
20
163.17265458512992
30
0
10
-62.030839115976121
20
163.67011394091949
30
0
10
-63.745315233527513
20
164.18648983557011
30
0
10
-65.529100429024027
20
164.70611783457545
30
0
10
-67.351354344354249
20
165.2120692646304
30
0
10
-69.186636032517512
20
165.69001444438956
30
0
10
-71.024738597126998
20
166.13325708926598
30
0
10
-72.871064208479382
20
166.54320650398208
30
0
10
-74.739299504278748
20
166.92614604842578
30
0
10
-76.646430769700018
20
167.29111462970508
30
0
10
-78.606523459140178
20
167.6472295102696
30
0
10
-80.625677318964307
20
168.00149317230512
30
0
10
-82.694851011992682
20
168.35578177805417
30
0
10
-84.790725285534151
20
168.70686605417805
30
0
10
-86.882359226851094
20
169.04860754090518
30
0
10
-88.936086676826264
20
169.37349634378933
30
0
10
-90.921261419836199
20
169.67450241557628
30
0
10
-92.815343310972168
20
169.94669014115851
30
0
10
-94.609987046178333
20
170.18918189626135
30
0
10
-96.314523589651799
20
170.40622051659358
30
0
10
-97.94970856363399
20
170.60487480511173
30
0
10
-99.542979779616019
20
170.79326595422117
30
0
10
-101.12311373509961
20
170.97858191841038
30
0
10
-102.71518712767077
20
171.16520515117048
30
0
10
-104.33528113773056
20
171.35272601209914
30
0
10
-105.99240256976907
20
171.53753105581359
30
0
10
-107.69049430628326
20
171.71442684263883
30
0
10
-109.43047550916526
20
171.87830588996019
30
0
10
-111.21211123221151
20
172.02566446331872
30
0
10
-113.03635102807627
20
172.15652114124293
30
0
10
-114.9046961556075
20
172.27382922425448
30
0
10
-116.81770721553315
20
172.38216903340177
30
0
10
-118.77381698922049
20
172.48669402758239
30
0
10
-120.76797588217312
20
172.59195028245929
30
0
10
-122.79045365941214
20
172.70080022857744
30
0
10
-124.82533359302244
20
172.81316591677114
30
0
10
-126.85222676565257
20
172.92660408017326
30
0
10
-128.84836642670231
20
173.03709237357023
30
0
10
-130.79053673050618
20
173.13973002729068
30
0
10
-132.65713230461117
20
173.22949318666343
30
0
10
-134.43001767616121
20
173.30192007517059
30
0
10
-136.0968544994721
20
173.35394744828079
30
0
10
-137.65040953403241
20
173.38378238630216
30
0
10
-138.79976210384822
20
173.38918129682958
30
0
10
-139.60868338820401
20
173.38271486371508
30
0
10
-140.12437258011255
20
173.37373126278479
30
0
10
-140.3763193011344
20
173.36807131403958
30
0
0
SPLINE
5
106
100
AcDbEntity
8
0
100
AcDbSpline
70
4
71
5
72
91
73
85
74
0
42
0.000000001
43
0.0000000001
44
0.0000000001
40
-1
40
-1
40
-1
40
-1
40
-1
40
-1
40
-0.98749999999999849
40
-0.97499999999999853
40
-0.96249999999999858
40
-0.94999999999999862
40
-0.93749999999999867
40
-0.92499999999999871
40
-0.91249999999999876
40
-0.8999999999999988
40
-0.88749999999999885
40
-0.87499999999999889
40
-0.86249999999999893
40
-0.84999999999999898
40
-0.83749999999999902
40
-0.82499999999999907
40
-0.81249999999999911
40
-0.79999999999999916
40
-0.7874999999999992
40
-0.77499999999999925
40
-0.76249999999999929
40
-0.74999999999999933
40
-0.73749999999999938
40
-0.72499999999999942
40
-0.71249999999999947
40
-0.69999999999999951
40
-0.68749999999999956
40
-0.6749999999999996
40
-0.66249999999999964
40
-0.64999999999999969
40
-0.63749999999999973
40
-0.62499999999999978
40
-0.61249999999999982
40
-0.59999999999999987
40
-0.58749999999999991
40
-0.57499999999999996
40
-0.5625
40
-0.55000000000000004
40
-0.53750000000000009
40
-0.52500000000000013
40
-0.51250000000000018
40
-0.50000000000000022
40
-0.48750000000000027
40
-0.47500000000000026
40
-0.46250000000000024
40
-0.45000000000000023
40
-0.43750000000000022
40
-0.42500000000000021
40
-0.4125000000000002
40
-0.40000000000000019
40
-0.38750000000000018
40
-0.37500000000000017
40
-0.36250000000000016
40
-0.35000000000000014
40
-0.33750000000000013
40
-0.32500000000000012
40
-0.31250000000000011
40
-0.3000000000000001
40
-0.28750000000000009
40
-0.27500000000000008
40
-0.26250000000000007
40
-0.25000000000000006
40
-0.23750000000000007
40
-0.22500000000000006
40
-0.21250000000000005
40
-0.20000000000000004
40
-0.18750000000000003
40
-0.17500000000000002
40
-0.16250000000000001
40
-0.14999999999999999
40
-0.13749999999999998
40
-0.12499999999999999
40
-0.11249999999999999
40
-0.099999999999999992
40
-0.087499999999999994
40
-0.074999999999999997
40
-0.0625
40
-0.050000000000000003
40
-0.037500000000000006
40
-0.025000000000000001
40
-0.012500000000000001
40
0
40
0
40
0
40
0
40
0
40
0
41
1
41
1
41
1
41
1
41
1
41
1
41
1
41
1
41
1
41
1
41
1
41
1
41
1
41
1
41
1
41
1
41
1
41
1
41
1
41
1
41
1
41
1
41
1
41
1
41
1
41
1
41
1
41
1
41
1
41
1
41
1
41
1
41
1
41
1
41
1
41
1
41
1
41
1
41
1
41
1
41
1
41
1
41
1
41
1
41
1
41
1
41
1
41
1
41
1
41
1
41
1
41
1
41
1
41
1
41
1
41
1
41
1
41
1
41
1
41
1
41
1
41
1
41
1
41
1
41
1
41
1
41
1
41
1
41
1
41
1
41
1
41
1
41
1
41
1
41
1
41
1
41
1
41
1
41
1
41
1
41
1
41
1
41
1
41
1
41
1
10
-140.3763193011344
20
173.36807131403958
30
0
10
-140.62826602215625
20
173.37373126278479
30
0
10
-141.14395521406479
20
173.38271486371508
30
0
10
-141.95287649842055
20
173.38918129682958
30
0
10
-143.1022290682364
20
173.38378238630216
30
0
10
-144.6557841027967
20
173.35394744828079
30
0
10
-146.32262092610756
20
173.30192007517059
30
0
10
-148.09550629765764
20
173.22949318666343
30
0
10
-149.96210187176263
20
173.13973002729068
30
0
10
-151.90427217556649
20
173.03709237357023
30
0
10
-153.90041183661623
20
172.92660408017326
30
0
10
-155.92730500924637
20
172.81316591677114
30
0
10
-157.96218494285665
20
172.70080022857744
30
0
10
-159.98466272009568
20
172.59195028245929
30
0
10
-161.97882161304832
20
172.48669402758239
30
0
10
-163.93493138673563
20
172.38216903340177
30
0
10
-165.84794244666128
20
172.27382922425448
30
0
10
-167.71628757419251
20
172.15652114124293
30
0
10
-169.54052737005728
20
172.02566446331872
30
0
10
-171.32216309310351
20
171.87830588996019
30
0
10
-173.06214429598555
20
171.71442684263883
30
0
10
-174.76023603249971
20
171.53753105581359
30
0
10
-176.41735746453827
20
171.35272601209914
30
0
10
-178.03745147459802
20
171.16520515117048
30
0
10
-179.62952486716918
20
170.97858191841038
30
0
10
-181.20965882265278
20
170.79326595422117
30
0
10
-182.8029300386348
20
170.60487480511173
30
0
10
-184.438115012617
20
170.40622051659358
30
0
10
-186.14265155609047
20
170.18918189626135
30
0
10
-187.93729529129664
20
169.94669014115851
30
0
10
-189.83137718243259
20
169.67450241557628
30
0
10
-191.81655192544255
20
169.37349634378933
30
0
10
-193.87027937541771
20
169.04860754090518
30
0
10
-195.96191331673467
20
168.70686605417805
30
0
10
-198.05778759027612
20
168.35578177805417
30
0
10
-200.12696128330447
20
168.00149317230512
30
0
10
-202.14611514312864
20
167.6472295102696
30
0
10
-204.10620783256877
20
167.29111462970508
30
0
10
-206.01333909799007
20
166.92614604842578
30
0
10
-207.88157439378944
20
166.54320650398208
30
0
10
-209.72790000514181
20
166.13325708926598
30
0
10
-211.56600256975128
20
165.69001444438956
30
0
10
-213.40128425791454
20
165.2120692646304
30
0
10
-215.22353817324475
20
164.70611783457545
30
0
10
-217.00732336874128
20
164.18648983557011
30
0
10
-218.72179948629267
20
163.67011394091949
30
0
10
-220.3381358009585
20
163.17265458512992
30
0
10
-221.83794330704586
20
162.7041532242458
30
0
10
-223.22118792119085
20
162.26492362875041
30
0
10
-224.5146131546507
20
161.84119168734611
30
0
10
-225.75861774109043
20
161.41106507824145
30
0
10
-226.99293995996635
20
160.95101641326698
30
0
10
-228.24427338125264
20
160.44157251567569
30
0
10
-229.50934417851047
20
159.87484213040401
30
0
10
-230.76104327783807
20
159.25271438816409
30
0
10
-231.96498155351091
20
158.58082062249844
30
0
10
-233.09129324331082
20
157.86446198125947
30
0
10
-234.13165396603
20
157.10232472409888
30
0
10
-235.10245358467199
20
156.28619580519342
30
0
10
-236.02796046378228
20
155.40973958868094
30
0
10
-236.92950589997685
20
154.4741123517388
30
0
10
-237.80947743892028
20
153.49709943827361
30
0
10
-238.6470778135274
20
152.51296120634362
30
0
10
-239.41288356893384
20
151.55636641450815
30
0
10
-240.07816674093678
20
150.6513090402218
30
0
10
-240.62854490243868
20
149.79493959316
30
0
10
-241.06769049615167
20
148.95474850936037
30
0
10
-241.40986022984518
20
148.08151355872513
30
0
10
-241.67485595674879
20
147.11856988285643
30
0
10
-241.88302158914209
20
146.01181649304243
30
0
10
-242.05378877003542
20
144.71766619390093
30
0
10
-242.20365713388708
20
143.21052118675473
30
0
10
-242.34394938696335
20
141.49275770015564
30
0
10
-242.48062677561489
20
139.59361820605989
30
0
10
-242.6157687811853
20
137.55983334676438
30
0
10
-242.7485386910121
20
135.44881096484738
30
0
10
-242.87639035437664
20
133.3205199497059
30
0
10
-242.99609425163837
20
131.23054604241045
30
0
10
-243.1050276579488
20
129.22112593699535
30
0
10
-243.2015273610786
20
127.31970176410582
30
0
10
-243.28457637748056
20
125.54287687104049
30
0
10
-243.33986371846152
20
124.22760105410069
30
0
10
-243.37498428937698
20
123.30207635459595
30
0
10
-243.39557897458607
20
122.71213212960673
30
0
10
-243.40517154702576
20
122.42392818307576
30
0
0
LINE
5
107
100
AcDbEntity
8
0
100
AcDbLine
10
-243.4051715470257
20
122.42392818307576
30
0
11
-243.40517154702576
21
13.883448631588831
31
0
0
LINE
5
108
100
AcDbEntity
8
0
100
AcDbLine
10
-243.40517154702576
20
13.883448631588831
30
0
11
-236.65517154702576
21
13.883448631588823
31
0
0
ARC
5
109
100
AcDbEntity
8
0
100
AcDbCircle
10
-238.09840163454439
20
8.1945562500093079
30
0
40
5.8691063727549153
210
0
220
-0
230
1
100
AcDbArc
50
12.85158270606005
51
75.764803332634045
0
LINE
5
110
100
AcDbEntity
8
0
100
AcDbLine
10
-232.3763193011344
20
9.5000000000000036
30
0
11
-232.3763193011344
21
0
31
0
0
ENDSEC
0
SECTION
2
OBJECTS
0
DICTIONARY
5
C
100
AcDbDictionary
3
ACAD_GROUP
350
D
3
ACAD_MLINESTYLE
350
17
0
DICTIONARY
5
D
100
AcDbDictionary
0
DICTIONARY
5
1A
330
C
100
AcDbDictionary
0
DICTIONARY
5
17
100
AcDbDictionary
0
ENDSEC
0
EOF
