0
SECTION
2
HEADER
9
$INSUNITS
70
4
9
$ACADVER
1
AC1014
9
$HANDSEED
5
FFFF
0
ENDSEC
0
SECTION
2
TABLES
0
TABLE
2
VPORT
5
8
100
AcDbSymbolTable
0
ENDTAB
0
TABLE
2
LTYPE
5
5
100
AcDbSymbolTable
0
LTYPE
5
14
100
AcDbSymbolTableRecord
100
AcDbLinetypeTableRecord
2
BYBLOCK
70
0
0
LTYPE
5
15
100
AcDbSymbolTableRecord
100
AcDbLinetypeTableRecord
2
BYLAYER
70
0
0
LTYPE
5
16
100
AcDbSymbolTableRecord
100
AcDbLinetypeTableRecord
2
DASHED
70
0
3
Dashed __ __ __ __ __ __ __ __ __ __ __ __ __ _
72
65
73
2
40
0.75
49
0.5
74
0
49
-0.25
74
0
0
ENDTAB
0
TABLE
2
LAYER
5
2
100
AcDbSymbolTable
70
2
0
LAYER
5
50
100
AcDbSymbolTableRecord
100
AcDbLayerTableRecord
2
0
70
0
62
7
6
CONTINUOUS
0
ENDTAB
0
TABLE
2
STYLE
5
3
100
AcDbSymbolTable
70
1
0
STYLE
5
11
100
AcDbSymbolTableRecord
100
AcDbTextStyleTableRecord
2
STANDARD
70
0
0
ENDTAB
0
TABLE
2
VIEW
5
6
100
AcDbSymbolTable
70
0
0
ENDTAB
0
TABLE
2
UCS
5
7
100
AcDbSymbolTable
70
0
0
ENDTAB
0
TABLE
2
APPID
5
9
100
AcDbSymbolTable
70
2
0
APPID
5
12
100
AcDbSymbolTableRecord
100
AcDbRegAppTableRecord
2
ACAD
70
0
0
ENDTAB
0
TABLE
2
DIMSTYLE
5
A
100
AcDbSymbolTable
70
1
0
ENDTAB
0
TABLE
2
BLOCK_RECORD
5
1
100
AcDbSymbolTable
70
1
0
BLOCK_RECORD
5
1F
100
AcDbSymbolTableRecord
100
AcDbBlockTableRecord
2
*MODEL_SPACE
0
BLOCK_RECORD
5
1B
100
AcDbSymbolTableRecord
100
AcDbBlockTableRecord
2
*PAPER_SPACE
0
ENDTAB
0
ENDSEC
0
SECTION
2
BLOCKS
0
BLOCK
5
20
100
AcDbEntity
100
AcDbBlockBegin
2
*MODEL_SPACE
0
ENDBLK
5
21
100
AcDbEntity
100
AcDbBlockEnd
0
BLOCK
5
1C
100
AcDbEntity
100
AcDbBlockBegin
2
*PAPER_SPACE
0
ENDBLK
5
1D
100
AcDbEntity
100
AcDbBlockEnd
0
ENDSEC
0
SECTION
2
ENTITIES
0
LINE
5
100
100
AcDbEntity
8
0
100
AcDbLine
10
-177.34147767274652
20
-146.65930068407755
30
29.000000000000021
11
-177.34147767274652
21
-90.715466759056056
31
29.000000000000021
0
LINE
5
101
100
AcDbEntity
8
0
100
AcDbLine
10
-177.34147767274652
20
-90.715466759056056
30
29.000000000000021
11
-178.34147767274652
21
-90.715466759056056
31
29.000000000000021
0
LINE
5
102
100
AcDbEntity
8
0
100
AcDbLine
10
-178.34147767274652
20
-146.65897879206921
30
29.000000000000021
11
-178.34147767274652
21
-90.715466759056056
31
29.000000000000021
0
LINE
5
103
100
AcDbEntity
8
0
100
AcDbLine
10
-181.82160075865738
20
-26.578353511278912
30
29.000000000000021
11
-241.66550608617376
21
1.3273178499809646
31
29.000000000000021
0
LINE
5
104
100
AcDbEntity
8
0
100
AcDbLine
10
-64.941477672746515
20
-146.69548134941823
30
29.000000000000021
11
-64.941477672746515
21
-90.715466759056056
31
29.000000000000021
0
LINE
5
105
100
AcDbEntity
8
0
100
AcDbLine
10
-65.941477672746515
20
-146.69515945740989
30
29.000000000000021
11
-177.34147767274652
21
-146.65930068407755
31
29.000000000000021
0
LINE
5
106
100
AcDbEntity
8
0
100
AcDbLine
10
-178.34147767274652
20
-146.65897879206921
30
29.000000000000021
11
-225.22199104887653
21
-146.64388832733925
31
29.000000000000021
0
LINE
5
107
100
AcDbEntity
8
0
100
AcDbLine
10
-225.22199104887653
20
-146.64388832733925
30
29.000000000000021
11
-242.28021578705835
21
-95.146618940193036
31
29.000000000000021
0
LINE
5
108
100
AcDbEntity
8
0
100
AcDbLine
10
-242.25158543539146
20
-6.2029321308142116
30
29.000000000000021
11
-242.28021578705835
21
-95.146618940193036
31
29.000000000000021
0
LINE
5
109
100
AcDbEntity
8
0
100
AcDbLine
10
-242.25158543539146
20
-6.2029321308142116
30
29.000000000000021
11
-241.66565105521022
21
1.3271492157286335
31
29.000000000000021
0
LINE
5
110
100
AcDbEntity
8
0
100
AcDbLine
10
-181.39898249670529
20
-25.672045724256584
30
29.000000000000021
11
-181.82160075865738
21
-26.578353511278912
31
29.000000000000021
0
LINE
5
111
100
AcDbEntity
8
0
100
AcDbLine
10
-241.55176626122307
20
2.3776580177001705
30
29.000000000000021
11
-181.39898249670529
21
-25.672045724256584
31
29.000000000000021
0
LINE
5
112
100
AcDbEntity
8
0
100
AcDbLine
10
-1.562387503513758
20
1.882535773601921
30
29.000000000000021
11
-60.701152244033175
21
-25.669872766434828
31
29.000000000000021
0
LINE
5
113
100
AcDbEntity
8
0
100
AcDbLine
10
-1.457582675374347
20
0.85240852126325706
30
29.000000000000021
11
-60.279110431074344
21
-26.575769811645369
31
29.000000000000021
0
LINE
5
114
100
AcDbEntity
8
0
100
AcDbLine
10
-0.91512491159614129
20
-6.2807995816690809
30
29.000000000000021
11
-1.457582675374347
21
0.85240852126325706
31
29.000000000000021
0
LINE
5
115
100
AcDbEntity
8
0
100
AcDbLine
10
-60.279110431074344
20
-26.575769811645369
30
29.000000000000021
11
-60.701152244033175
21
-25.669872766434828
31
29.000000000000021
0
LINE
5
116
100
AcDbEntity
8
0
100
AcDbLine
10
-0.94369682126693277
20
-95.043204943666524
30
29.000000000000021
11
-18.809529702831753
21
-146.71033085654844
31
29.000000000000021
0
LINE
5
117
100
AcDbEntity
8
0
100
AcDbLine
10
-18.809529702831753
20
-146.71033085654844
30
29.000000000000021
11
-64.941477672746515
21
-146.69548134941823
31
29.000000000000021
0
LINE
5
118
100
AcDbEntity
8
0
100
AcDbLine
10
-0.91512491159614129
20
-6.2807995816690809
30
29.000000000000021
11
-0.94369682126693277
21
-95.043204943666524
31
29.000000000000021
0
LINE
5
119
100
AcDbEntity
8
0
100
AcDbLine
10
-65.941477672746515
20
-146.69515945740989
30
29.000000000000021
11
-65.941477672746515
21
-90.715466759056056
31
29.000000000000021
0
LINE
5
120
100
AcDbEntity
8
0
100
AcDbLine
10
-64.941477672746515
20
-90.715466759056056
30
29.000000000000021
11
-65.941477672746515
21
-90.715466759056056
31
29.000000000000021
0
CIRCLE
5
121
100
AcDbEntity
8
0
100
AcDbCircle
10
-23.028022102746561
20
-136.50493693305603
30
29.000000000000021
40
4.6500000000000012
210
0
220
0
230
1
0
CIRCLE
5
122
100
AcDbEntity
8
0
100
AcDbCircle
10
-220.22382239674656
20
-136.76933850705606
30
29.000000000000021
40
4.6499999999999737
210
0
220
0
230
1
0
SPLINE
5
123
100
AcDbEntity
8
0
100
AcDbSpline
70
0
71
3
72
8
73
4
74
0
42
0.000000001
43
0.0000000001
44
0.0000000001
40
0
40
0
40
0
40
0
40
0.99931945267843092
40
0.99931945267843092
40
0.99931945267843092
40
0.99931945267843092
10
-1.562387503513758
20
1.8825357736018944
30
29.000000000000021
10
-2.9994999773311548
20
32.466965714252737
30
29.000000000000021
10
-41.569353570120448
20
46.606925931341152
30
29.000000000000021
10
-121.40230448806636
20
48.160254467130471
30
29.000000000000021
0
SPLINE
5
124
100
AcDbEntity
8
0
100
AcDbSpline
70
0
71
3
72
8
73
4
74
0
42
0.000000001
43
0.0000000001
44
0.0000000001
40
0
40
0
40
0
40
0
40
0.99931945277808376
40
0.99931945277808376
40
0.99931945277808376
40
0.99931945277808376
10
-241.55176626122307
20
2.3776580177001705
30
29.000000000000021
10
-239.80510899865828
20
32.4669657173026
30
29.000000000000021
10
-201.23525539831988
20
46.606925934161261
30
29.000000000000021
10
-121.40230448806636
20
48.160254467130471
30
29.000000000000021
0
ENDSEC
0
SECTION
2
OBJECTS
0
DICTIONARY
5
C
100
AcDbDictionary
3
ACAD_GROUP
350
D
3
ACAD_MLINESTYLE
350
17
0
DICTIONARY
5
D
100
AcDbDictionary
0
DICTIONARY
5
1A
330
C
100
AcDbDictionary
0
DICTIONARY
5
17
100
AcDbDictionary
0
ENDSEC
0
EOF
