0
SECTION
2
HEADER
9
$INSUNITS
70
4
9
$ACADVER
1
AC1014
9
$HANDSEED
5
FFFF
0
ENDSEC
0
SECTION
2
TABLES
0
TABLE
2
VPORT
5
8
100
AcDbSymbolTable
0
ENDTAB
0
TABLE
2
LTYPE
5
5
100
AcDbSymbolTable
0
LTYPE
5
14
100
AcDbSymbolTableRecord
100
AcDbLinetypeTableRecord
2
BYBLOCK
70
0
0
LTYPE
5
15
100
AcDbSymbolTableRecord
100
AcDbLinetypeTableRecord
2
BYLAYER
70
0
0
ENDTAB
0
TABLE
2
LAYER
5
2
100
AcDbSymbolTable
70
2
0
LAYER
5
50
100
AcDbSymbolTableRecord
100
AcDbLayerTableRecord
2
0
70
0
6
CONTINUOUS
0
ENDTAB
0
TABLE
2
STYLE
5
3
100
AcDbSymbolTable
70
1
0
STYLE
5
11
100
AcDbSymbolTableRecord
100
AcDbTextStyleTableRecord
2
STANDARD
70
0
0
ENDTAB
0
TABLE
2
VIEW
5
6
100
AcDbSymbolTable
70
0
0
ENDTAB
0
TABLE
2
UCS
5
7
100
AcDbSymbolTable
70
0
0
ENDTAB
0
TABLE
2
APPID
5
9
100
AcDbSymbolTable
70
2
0
APPID
5
12
100
AcDbSymbolTableRecord
100
AcDbRegAppTableRecord
2
ACAD
70
0
0
ENDTAB
0
TABLE
2
DIMSTYLE
5
A
100
AcDbSymbolTable
70
1
0
ENDTAB
0
TABLE
2
BLOCK_RECORD
5
1
100
AcDbSymbolTable
70
1
0
BLOCK_RECORD
5
1F
100
AcDbSymbolTableRecord
100
AcDbBlockTableRecord
2
*MODEL_SPACE
0
BLOCK_RECORD
5
1B
100
AcDbSymbolTableRecord
100
AcDbBlockTableRecord
2
*PAPER_SPACE
0
ENDTAB
0
ENDSEC
0
SECTION
2
BLOCKS
0
BLOCK
5
20
100
AcDbEntity
100
AcDbBlockBegin
2
*MODEL_SPACE
0
ENDBLK
5
21
100
AcDbEntity
100
AcDbBlockEnd
0
BLOCK
5
1C
100
AcDbEntity
100
AcDbBlockBegin
2
*PAPER_SPACE
0
ENDBLK
5
1D
100
AcDbEntity
100
AcDbBlockEnd
0
ENDSEC
0
SECTION
2
ENTITIES
0
SPLINE
5
100
100
AcDbEntity
8
0
100
AcDbSpline
70
4
71
5
72
51
73
45
74
0
42
0.000000001
43
0.0000000001
44
0.0000000001
40
0
40
0
40
0
40
0
40
0
40
0
40
0.025000000000000001
40
0.050000000000000003
40
0.075000000000000011
40
0.10000000000000001
40
0.125
40
0.14999999999999999
40
0.17499999999999999
40
0.19999999999999998
40
0.22499999999999998
40
0.24999999999999997
40
0.27499999999999997
40
0.29999999999999999
40
0.32500000000000001
40
0.35000000000000003
40
0.37500000000000006
40
0.40000000000000008
40
0.4250000000000001
40
0.45000000000000012
40
0.47500000000000014
40
0.50000000000000011
40
0.52500000000000013
40
0.55000000000000016
40
0.57500000000000018
40
0.6000000000000002
40
0.62500000000000022
40
0.65000000000000024
40
0.67500000000000027
40
0.70000000000000029
40
0.72500000000000031
40
0.75000000000000033
40
0.77500000000000036
40
0.80000000000000038
40
0.8250000000000004
40
0.85000000000000042
40
0.87500000000000044
40
0.90000000000000047
40
0.92500000000000049
40
0.95000000000000051
40
0.97500000000000053
40
1
40
1
40
1
40
1
40
1
40
1
41
1
41
1
41
1
41
1
41
1
41
1
41
1
41
1
41
1
41
1
41
1
41
1
41
1
41
1
41
1
41
1
41
1
41
1
41
1
41
1
41
1
41
1
41
1
41
1
41
1
41
1
41
1
41
1
41
1
41
1
41
1
41
1
41
1
41
1
41
1
41
1
41
1
41
1
41
1
41
1
41
1
41
1
41
1
41
1
41
1
10
-0.17682819432800045
20
-99.781515767698437
30
0
10
-1.1217804209070403
20
-99.773949304166592
30
0
10
-3.0050414281733397
20
-99.758955484134319
30
0
10
-5.8100025831959767
20
-99.736882077602246
30
0
10
-9.5100496639818584
20
-99.708286344940674
30
0
10
-14.067955483377027
20
-99.673900266717766
30
0
10
-18.557165621597367
20
-99.64076208232386
30
0
10
-22.974895502316993
20
-99.608644250956672
30
0
10
-27.316789079713363
20
-99.577159394279576
30
0
10
-31.576538920461449
20
-99.545722636625342
30
0
10
-35.745618183424583
20
-99.513499670504359
30
0
10
-39.812737053830439
20
-99.47938665200617
30
0
10
-43.764113130366468
20
-99.441891966409543
30
0
10
-47.586254759666353
20
-99.398724401186755
30
0
10
-51.26836265948603
20
-99.346417770814412
30
0
10
-54.804809353215603
20
-99.279960788106351
30
0
10
-58.197819082121356
20
-99.192364636624418
30
0
10
-61.459622229053707
20
-99.0743775938151
30
0
10
-64.616118337950439
20
-98.913801539155799
30
0
10
-67.702530077460281
20
-98.696929800239502
30
0
10
-70.756277877618686
20
-98.410706264227429
30
0
10
-73.810609184304241
20
-98.044731288782202
30
0
10
-76.888302318560136
20
-97.593168186379785
30
0
10
-79.994354060288529
20
-97.05713780768717
30
0
10
-83.112001233911656
20
-96.445610784960849
30
0
10
-86.210061005061149
20
-95.771200258868362
30
0
10
-89.248251943970985
20
-95.046898417119806
30
0
10
-92.183382839928669
20
-94.282312919400439
30
0
10
-94.974883727385162
20
-93.480430954241157
30
0
10
-97.591330240951564
20
-92.633303444803445
30
0
10
-100.01155594700988
20
-91.724194922567207
30
0
10
-102.2245234856331
20
-90.731374817293343
30
0
10
-104.229463335248
20
-89.631385534323272
30
0
10
-106.03643114451631
20
-88.402400535561654
30
0
10
-107.6652540998985
20
-87.027997662727302
30
0
10
-109.13691385645885
20
-85.504455331083179
30
0
10
-110.4669891952106
20
-83.846253668530451
30
0
10
-111.65641334917331
20
-82.095164104732248
30
0
10
-112.68993886109092
20
-80.318003239099042
30
0
10
-113.54619281513975
20
-78.586553757731906
30
0
10
-114.20439813574178
20
-76.963073699665003
30
0
10
-114.5639136776735
20
-75.776933277132386
30
0
10
-114.73827357686645
20
-74.955217159960966
30
0
10
-114.81219926094377
20
-74.437577865264927
30
0
10
-114.83858423769618
20
-74.186299398646781
30
0
0
SPLINE
5
101
100
AcDbEntity
8
0
100
AcDbSpline
70
4
71
5
72
31
73
25
74
0
42
0.000000001
43
0.0000000001
44
0.0000000001
40
0
40
0
40
0
40
0
40
0
40
0
40
0.050000000000000003
40
0.10000000000000001
40
0.15000000000000002
40
0.20000000000000001
40
0.25
40
0.29999999999999999
40
0.34999999999999998
40
0.39999999999999997
40
0.44999999999999996
40
0.49999999999999994
40
0.54999999999999993
40
0.59999999999999998
40
0.65000000000000002
40
0.70000000000000007
40
0.75000000000000011
40
0.80000000000000016
40
0.8500000000000002
40
0.90000000000000024
40
0.95000000000000029
40
1
40
1
40
1
40
1
40
1
40
1
41
1
41
1
41
1
41
1
41
1
41
1
41
1
41
1
41
1
41
1
41
1
41
1
41
1
41
1
41
1
41
1
41
1
41
1
41
1
41
1
41
1
41
1
41
1
41
1
41
1
10
-114.83858423769618
20
75.639019761556469
30
0
10
-114.82014519289037
20
75.740237679444945
30
0
10
-114.78303249895893
20
75.939017788687977
30
0
10
-114.72665954987995
20
76.226221031318829
30
0
10
-114.65008289679673
20
76.587133091287455
30
0
10
-114.55163936934782
20
77.001532749305923
30
0
10
-114.44943931020575
20
77.379987644675111
30
0
10
-114.34142236955572
20
77.72489862793735
30
0
10
-114.22423206963275
20
78.040850358238444
30
0
10
-114.09268502208664
20
78.335856370325999
30
0
10
-113.94042513779773
20
78.619718140459298
30
0
10
-113.76116052457618
20
78.900969299021057
30
0
10
-113.54971077176273
20
79.184346946950029
30
0
10
-113.30322326437854
20
79.467828856317823
30
0
10
-113.02224724651515
20
79.740230918749603
30
0
10
-112.70975223120912
20
79.98592282430532
30
0
10
-112.37032899733319
20
80.18910647569399
30
0
10
-112.00939321361999
20
80.338155451728909
30
0
10
-111.63242390503487
20
80.430265689828076
30
0
10
-111.24425747960119
20
80.475455750689449
30
0
10
-110.84895793474948
20
80.490702862825742
30
0
10
-110.52950859193498
20
80.494050816425926
30
0
10
-110.28902382303274
20
80.498564272956941
30
0
10
-110.12839964800585
20
80.503390674986264
30
0
10
-110.04801231665496
20
80.506258219716955
30
0
0
LINE
5
102
100
AcDbEntity
8
0
100
AcDbLine
10
-56.514195744682581
20
80.506258219716955
30
0
11
-110.04801231665496
21
80.506258219716955
31
0
0
LINE
5
103
100
AcDbEntity
8
0
100
AcDbLine
10
-56.614666620551468
20
82.944146241438176
30
0
11
-56.514195744682581
21
80.506258219716955
31
0
0
LINE
5
104
100
AcDbEntity
8
0
100
AcDbLine
10
-56.614666620551468
20
82.944146241438176
30
0
11
-100.60222873916295
21
83.951315720255337
31
0
0
SPLINE
5
105
100
AcDbEntity
8
0
100
AcDbSpline
70
4
71
5
72
56
73
50
74
0
42
0.000000001
43
0.0000000001
44
0.0000000001
40
0
40
0
40
0
40
0
40
0
40
0
40
0.022222222222222223
40
0.044444444444444446
40
0.066666666666666666
40
0.088888888888888892
40
0.11111111111111112
40
0.13333333333333333
40
0.15555555555555556
40
0.17777777777777778
40
0.20000000000000001
40
0.22222222222222224
40
0.24444444444444446
40
0.26666666666666666
40
0.28888888888888886
40
0.31111111111111106
40
0.33333333333333326
40
0.35555555555555546
40
0.37777777777777766
40
0.39999999999999986
40
0.42222222222222205
40
0.44444444444444425
40
0.46666666666666645
40
0.48888888888888865
40
0.51111111111111085
40
0.5333333333333331
40
0.55555555555555536
40
0.57777777777777761
40
0.59999999999999987
40
0.62222222222222212
40
0.64444444444444438
40
0.66666666666666663
40
0.68888888888888888
40
0.71111111111111114
40
0.73333333333333339
40
0.75555555555555565
40
0.7777777777777779
40
0.80000000000000016
40
0.82222222222222241
40
0.84444444444444466
40
0.86666666666666692
40
0.88888888888888917
40
0.91111111111111143
40
0.93333333333333368
40
0.95555555555555594
40
0.97777777777777819
40
1
40
1
40
1
40
1
40
1
40
1
41
1
41
1
41
1
41
1
41
1
41
1
41
1
41
1
41
1
41
1
41
1
41
1
41
1
41
1
41
1
41
1
41
1
41
1
41
1
41
1
41
1
41
1
41
1
41
1
41
1
41
1
41
1
41
1
41
1
41
1
41
1
41
1
41
1
41
1
41
1
41
1
41
1
41
1
41
1
41
1
41
1
41
1
41
1
41
1
41
1
41
1
41
1
41
1
41
1
41
1
10
-100.60222873916295
20
83.951315720255337
30
0
10
-100.7194853859768
20
83.947867348087669
30
0
10
-100.94987009438499
20
83.957189243259833
30
0
10
-101.28308412860892
20
84.019846997794204
30
0
10
-101.70242625904342
20
84.200653894608763
30
0
10
-102.17360137242103
20
84.579900702244714
30
0
10
-102.55385873312194
20
85.081802394534307
30
0
10
-102.77660396827144
20
85.652154509470847
30
0
10
-102.77977961818965
20
86.240036016078406
30
0
10
-102.54023333929418
20
86.826405978144763
30
0
10
-102.08586933684555
20
87.431913481477835
30
0
10
-101.46878609122351
20
88.08875481697649
30
0
10
-100.74793878892451
20
88.821249209518555
30
0
10
-99.967986945463636
20
89.622870685115359
30
0
10
-99.161068299572889
20
90.467560454064028
30
0
10
-98.347843842283083
20
91.320379797066309
30
0
10
-97.538823027700005
20
92.148353669904267
30
0
10
-96.735520845976652
20
92.931345406030701
30
0
10
-95.931687164287723
20
93.672621961079656
30
0
10
-95.116201003526839
20
94.390504421847481
30
0
10
-94.275950701568533
20
95.110371797341188
30
0
10
-93.398670700818855
20
95.856674925808562
30
0
10
-92.475888524597281
20
96.644694796693358
30
0
10
-91.505576951897154
20
97.473118269798391
30
0
10
-90.490297680352413
20
98.329404761728483
30
0
10
-89.43563849431078
20
99.194312343859565
30
0
10
-88.348515616402707
20
100.04684381343213
30
0
10
-87.235625945968962
20
100.86870817268778
30
0
10
-86.101633532645096
20
101.64970486999087
30
0
10
-84.948126029699949
20
102.39043605839197
30
0
10
-83.774485500581648
20
103.09833518084056
30
0
10
-82.578382132761732
20
103.78502947380015
30
0
10
-81.356420669652479
20
104.46313034176823
30
0
10
-80.104698859390908
20
105.14341542330455
30
0
10
-78.819449071460383
20
105.8315042370233
30
0
10
-77.497500285310196
20
106.52577952859181
30
0
10
-76.136169136619102
20
107.21942062125676
30
0
10
-74.733245878740533
20
107.90176363543
30
0
10
-73.286945998423477
20
108.55989034038166
30
0
10
-71.795880637205144
20
109.18015911010733
30
0
10
-70.259020146600307
20
109.74964414746076
30
0
10
-68.675668863601985
20
110.25789819889802
30
0
10
-67.045417452065408
20
110.69742835788415
30
0
10
-65.368077107932251
20
111.06302004881364
30
0
10
-63.643621304800568
20
111.35139370327758
30
0
10
-61.872127081357007
20
111.56073498100619
30
0
10
-60.417400613658728
20
111.66437748640432
30
0
10
-59.305297243858988
20
111.70614900378578
30
0
10
-58.55454318047714
20
111.71802721729067
30
0
10
-58.176828194328031
20
111.71997395354217
30
0
0
LINE
5
106
100
AcDbEntity
8
0
100
AcDbLine
10
-114.83858423769618
20
-74.186299398646781
30
0
11
-114.83858423769618
21
75.639019761556469
31
0
0
LINE
5
107
100
AcDbEntity
8
0
100
AcDbLine
10
-0.17682819432801367
20
111.71997395354214
30
0
11
-58.176828194328024
21
111.71997395354214
31
0
0
LINE
5
108
100
AcDbEntity
8
0
100
AcDbLine
10
-0.17682819432801367
20
111.71997395354214
30
0
11
57.82317180567199
21
111.71997395354214
31
0
0
SPLINE
5
109
100
AcDbEntity
8
0
100
AcDbSpline
70
4
71
5
72
56
73
50
74
0
42
0.000000001
43
0.0000000001
44
0.0000000001
40
0
40
0
40
0
40
0
40
0
40
0
40
0.022222222222222223
40
0.044444444444444446
40
0.066666666666666666
40
0.088888888888888892
40
0.11111111111111112
40
0.13333333333333333
40
0.15555555555555556
40
0.17777777777777778
40
0.20000000000000001
40
0.22222222222222224
40
0.24444444444444446
40
0.26666666666666666
40
0.28888888888888886
40
0.31111111111111106
40
0.33333333333333326
40
0.35555555555555546
40
0.37777777777777766
40
0.39999999999999986
40
0.42222222222222205
40
0.44444444444444425
40
0.46666666666666645
40
0.48888888888888865
40
0.51111111111111085
40
0.5333333333333331
40
0.55555555555555536
40
0.57777777777777761
40
0.59999999999999987
40
0.62222222222222212
40
0.64444444444444438
40
0.66666666666666663
40
0.68888888888888888
40
0.71111111111111114
40
0.73333333333333339
40
0.75555555555555565
40
0.7777777777777779
40
0.80000000000000016
40
0.82222222222222241
40
0.84444444444444466
40
0.86666666666666692
40
0.88888888888888917
40
0.91111111111111143
40
0.93333333333333368
40
0.95555555555555594
40
0.97777777777777819
40
1
40
1
40
1
40
1
40
1
40
1
41
1
41
1
41
1
41
1
41
1
41
1
41
1
41
1
41
1
41
1
41
1
41
1
41
1
41
1
41
1
41
1
41
1
41
1
41
1
41
1
41
1
41
1
41
1
41
1
41
1
41
1
41
1
41
1
41
1
41
1
41
1
41
1
41
1
41
1
41
1
41
1
41
1
41
1
41
1
41
1
41
1
41
1
41
1
41
1
41
1
41
1
41
1
41
1
41
1
41
1
10
100.24857235050692
20
83.951315720255351
30
0
10
100.36582899732076
20
83.947867348087684
30
0
10
100.59621370572897
20
83.957189243259847
30
0
10
100.9294277399529
20
84.019846997794218
30
0
10
101.34876987038739
20
84.200653894608791
30
0
10
101.819944983765
20
84.579900702244743
30
0
10
102.20020234446592
20
85.081802394534321
30
0
10
102.42294757961542
20
85.652154509470861
30
0
10
102.42612322953363
20
86.24003601607842
30
0
10
102.18657695063814
20
86.826405978144777
30
0
10
101.73221294818951
20
87.431913481477864
30
0
10
101.11512970256747
20
88.088754816976518
30
0
10
100.39428240026849
20
88.821249209518584
30
0
10
99.614330556807602
20
89.622870685115373
30
0
10
98.807411910916869
20
90.467560454064042
30
0
10
97.994187453627063
20
91.320379797066323
30
0
10
97.18516663904397
20
92.148353669904282
30
0
10
96.381864457320617
20
92.931345406030715
30
0
10
95.578030775631703
20
93.67262196107967
30
0
10
94.762544614870805
20
94.390504421847496
30
0
10
93.922294312912499
20
95.110371797341202
30
0
10
93.04501431216282
20
95.856674925808591
30
0
10
92.12223213594126
20
96.644694796693372
30
0
10
91.15192056324112
20
97.473118269798405
30
0
10
90.136641291696392
20
98.329404761728497
30
0
10
89.081982105654745
20
99.194312343859593
30
0
10
87.994859227746673
20
100.04684381343216
30
0
10
86.881969557312928
20
100.8687081726878
30
0
10
85.747977143989061
20
101.64970486999088
30
0
10
84.594469641043929
20
102.39043605839198
30
0
10
83.420829111925627
20
103.09833518084059
30
0
10
82.224725744105712
20
103.78502947380017
30
0
10
81.002764280996459
20
104.46313034176825
30
0
10
79.751042470734888
20
105.14341542330456
30
0
10
78.465792682804363
20
105.83150423702332
30
0
10
77.143843896654175
20
106.52577952859183
30
0
10
75.782512747963068
20
107.21942062125677
30
0
10
74.379589490084498
20
107.90176363543003
30
0
10
72.933289609767456
20
108.55989034038167
30
0
10
71.44222424854911
20
109.18015911010734
30
0
10
69.905363757944272
20
109.74964414746076
30
0
10
68.322012474945964
20
110.25789819889802
30
0
10
66.691761063409388
20
110.69742835788415
30
0
10
65.014420719276231
20
111.06302004881364
30
0
10
63.289964916144541
20
111.35139370327758
30
0
10
61.51847069270098
20
111.56073498100619
30
0
10
60.063744225002708
20
111.66437748640432
30
0
10
58.95164085520296
20
111.70614900378578
30
0
10
58.200886791821119
20
111.71802721729067
30
0
10
57.823171805672004
20
111.71997395354217
30
0
0
LINE
5
110
100
AcDbEntity
8
0
100
AcDbLine
10
56.26101023189544
20
82.94414624143819
30
0
11
100.24857235050692
21
83.951315720255351
31
0
0
LINE
5
111
100
AcDbEntity
8
0
100
AcDbLine
10
56.26101023189544
20
82.94414624143819
30
0
11
56.160539356026561
21
80.506258219716955
31
0
0
LINE
5
112
100
AcDbEntity
8
0
100
AcDbLine
10
56.160539356026561
20
80.506258219716955
30
0
11
109.69435592799894
21
80.506258219716983
31
0
0
SPLINE
5
113
100
AcDbEntity
8
0
100
AcDbSpline
70
4
71
5
72
31
73
25
74
0
42
0.000000001
43
0.0000000001
44
0.0000000001
40
0
40
0
40
0
40
0
40
0
40
0
40
0.050000000000000003
40
0.10000000000000001
40
0.15000000000000002
40
0.20000000000000001
40
0.25
40
0.29999999999999999
40
0.34999999999999998
40
0.39999999999999997
40
0.44999999999999996
40
0.49999999999999994
40
0.54999999999999993
40
0.59999999999999998
40
0.65000000000000002
40
0.70000000000000007
40
0.75000000000000011
40
0.80000000000000016
40
0.8500000000000002
40
0.90000000000000024
40
0.95000000000000029
40
1
40
1
40
1
40
1
40
1
40
1
41
1
41
1
41
1
41
1
41
1
41
1
41
1
41
1
41
1
41
1
41
1
41
1
41
1
41
1
41
1
41
1
41
1
41
1
41
1
41
1
41
1
41
1
41
1
41
1
41
1
10
114.48492784904016
20
75.639019761556483
30
0
10
114.46648880423433
20
75.740237679444974
30
0
10
114.4293761103029
20
75.939017788687991
30
0
10
114.37300316122392
20
76.226221031318843
30
0
10
114.29642650814071
20
76.58713309128747
30
0
10
114.1979829806918
20
77.001532749305937
30
0
10
114.09578292154973
20
77.379987644675126
30
0
10
113.98776598089968
20
77.724898627937364
30
0
10
113.87057568097673
20
78.040850358238458
30
0
10
113.73902863343062
20
78.335856370326013
30
0
10
113.5867687491417
20
78.619718140459312
30
0
10
113.40750413592016
20
78.900969299021085
30
0
10
113.19605438310671
20
79.184346946950043
30
0
10
112.94956687572252
20
79.467828856317851
30
0
10
112.66859085785912
20
79.740230918749631
30
0
10
112.35609584255309
20
79.985922824305334
30
0
10
112.01667260867715
20
80.189106475694004
30
0
10
111.65573682496395
20
80.338155451728923
30
0
10
111.27876751637885
20
80.43026568982809
30
0
10
110.89060109094517
20
80.475455750689463
30
0
10
110.49530154609344
20
80.490702862825771
30
0
10
110.17585220327895
20
80.494050816425954
30
0
10
109.93536743437672
20
80.498564272956955
30
0
10
109.77474325934983
20
80.503390674986278
30
0
10
109.69435592799894
20
80.506258219716983
30
0
0
LINE
5
114
100
AcDbEntity
8
0
100
AcDbLine
10
114.48492784904019
20
-74.186299398646753
30
0
11
114.48492784904016
21
75.639019761556483
31
0
0
SPLINE
5
115
100
AcDbEntity
8
0
100
AcDbSpline
70
4
71
5
72
51
73
45
74
0
42
0.000000001
43
0.0000000001
44
0.0000000001
40
0
40
0
40
0
40
0
40
0
40
0
40
0.025000000000000001
40
0.050000000000000003
40
0.075000000000000011
40
0.10000000000000001
40
0.125
40
0.14999999999999999
40
0.17499999999999999
40
0.19999999999999998
40
0.22499999999999998
40
0.24999999999999997
40
0.27499999999999997
40
0.29999999999999999
40
0.32500000000000001
40
0.35000000000000003
40
0.37500000000000006
40
0.40000000000000008
40
0.4250000000000001
40
0.45000000000000012
40
0.47500000000000014
40
0.50000000000000011
40
0.52500000000000013
40
0.55000000000000016
40
0.57500000000000018
40
0.6000000000000002
40
0.62500000000000022
40
0.65000000000000024
40
0.67500000000000027
40
0.70000000000000029
40
0.72500000000000031
40
0.75000000000000033
40
0.77500000000000036
40
0.80000000000000038
40
0.8250000000000004
40
0.85000000000000042
40
0.87500000000000044
40
0.90000000000000047
40
0.92500000000000049
40
0.95000000000000051
40
0.97500000000000053
40
1
40
1
40
1
40
1
40
1
40
1
41
1
41
1
41
1
41
1
41
1
41
1
41
1
41
1
41
1
41
1
41
1
41
1
41
1
41
1
41
1
41
1
41
1
41
1
41
1
41
1
41
1
41
1
41
1
41
1
41
1
41
1
41
1
41
1
41
1
41
1
41
1
41
1
41
1
41
1
41
1
41
1
41
1
41
1
41
1
41
1
41
1
41
1
41
1
41
1
41
1
10
-0.17682819432800048
20
-99.781515767698437
30
0
10
0.76812403225103942
20
-99.773949304166592
30
0
10
2.6513850395173382
20
-99.758955484134319
30
0
10
5.456346194539976
20
-99.736882077602246
30
0
10
9.1563932753258577
20
-99.708286344940674
30
0
10
13.714299094721024
20
-99.673900266717766
30
0
10
18.203509232941364
20
-99.64076208232386
30
0
10
22.621239113660994
20
-99.608644250956672
30
0
10
26.963132691057364
20
-99.577159394279576
30
0
10
31.222882531805446
20
-99.545722636625342
30
0
10
35.391961794768584
20
-99.513499670504359
30
0
10
39.45908066517444
20
-99.47938665200617
30
0
10
43.410456741710462
20
-99.441891966409543
30
0
10
47.232598371010354
20
-99.398724401186755
30
0
10
50.914706270830024
20
-99.346417770814412
30
0
10
54.451152964559604
20
-99.279960788106351
30
0
10
57.844162693465357
20
-99.192364636624418
30
0
10
61.105965840397701
20
-99.0743775938151
30
0
10
64.262461949294433
20
-98.913801539155799
30
0
10
67.348873688804275
20
-98.696929800239502
30
0
10
70.402621488962694
20
-98.410706264227429
30
0
10
73.456952795648235
20
-98.044731288782174
30
0
10
76.534645929904144
20
-97.593168186379771
30
0
10
79.640697671632523
20
-97.057137807687155
30
0
10
82.758344845255664
20
-96.445610784960834
30
0
10
85.856404616405158
20
-95.771200258868348
30
0
10
88.894595555314993
20
-95.046898417119792
30
0
10
91.829726451272677
20
-94.282312919400425
30
0
10
94.62122733872917
20
-93.480430954241143
30
0
10
97.237673852295572
20
-92.633303444803431
30
0
10
99.65789955835389
20
-91.724194922567193
30
0
10
101.87086709697711
20
-90.731374817293329
30
0
10
103.87580694659201
20
-89.631385534323243
30
0
10
105.68277475586032
20
-88.40240053556164
30
0
10
107.31159771124251
20
-87.027997662727273
30
0
10
108.78325746780285
20
-85.504455331083165
30
0
10
110.11333280655461
20
-83.846253668530437
30
0
10
111.30275696051731
20
-82.09516410473222
30
0
10
112.33628247243493
20
-80.318003239099028
30
0
10
113.19253642648376
20
-78.586553757731878
30
0
10
113.85074174708579
20
-76.963073699664989
30
0
10
114.21025728901751
20
-75.776933277132372
30
0
10
114.38461718821046
20
-74.955217159960952
30
0
10
114.45854287228778
20
-74.437577865264913
30
0
10
114.48492784904019
20
-74.186299398646753
30
0
0
ENDSEC
0
SECTION
2
OBJECTS
0
DICTIONARY
5
C
100
AcDbDictionary
3
ACAD_GROUP
350
D
3
ACAD_MLINESTYLE
350
17
0
DICTIONARY
5
D
100
AcDbDictionary
0
DICTIONARY
5
1A
330
C
100
AcDbDictionary
0
DICTIONARY
5
17
100
AcDbDictionary
0
ENDSEC
0
EOF
