0
SECTION
2
HEADER
9
$INSUNITS
70
4
9
$ACADVER
1
AC1014
9
$HANDSEED
5
FFFF
0
ENDSEC
0
SECTION
2
TABLES
0
TABLE
2
VPORT
5
8
100
AcDbSymbolTable
0
ENDTAB
0
TABLE
2
LTYPE
5
5
100
AcDbSymbolTable
0
LTYPE
5
14
100
AcDbSymbolTableRecord
100
AcDbLinetypeTableRecord
2
BYBLOCK
70
0
0
LTYPE
5
15
100
AcDbSymbolTableRecord
100
AcDbLinetypeTableRecord
2
BYLAYER
70
0
0
ENDTAB
0
TABLE
2
LAYER
5
2
100
AcDbSymbolTable
70
2
0
LAYER
5
50
100
AcDbSymbolTableRecord
100
AcDbLayerTableRecord
2
0
70
0
6
CONTINUOUS
0
ENDTAB
0
TABLE
2
STYLE
5
3
100
AcDbSymbolTable
70
1
0
STYLE
5
11
100
AcDbSymbolTableRecord
100
AcDbTextStyleTableRecord
2
STANDARD
70
0
0
ENDTAB
0
TABLE
2
VIEW
5
6
100
AcDbSymbolTable
70
0
0
ENDTAB
0
TABLE
2
UCS
5
7
100
AcDbSymbolTable
70
0
0
ENDTAB
0
TABLE
2
APPID
5
9
100
AcDbSymbolTable
70
2
0
APPID
5
12
100
AcDbSymbolTableRecord
100
AcDbRegAppTableRecord
2
ACAD
70
0
0
ENDTAB
0
TABLE
2
DIMSTYLE
5
A
100
AcDbSymbolTable
70
1
0
ENDTAB
0
TABLE
2
BLOCK_RECORD
5
1
100
AcDbSymbolTable
70
1
0
BLOCK_RECORD
5
1F
100
AcDbSymbolTableRecord
100
AcDbBlockTableRecord
2
*MODEL_SPACE
0
BLOCK_RECORD
5
1B
100
AcDbSymbolTableRecord
100
AcDbBlockTableRecord
2
*PAPER_SPACE
0
ENDTAB
0
ENDSEC
0
SECTION
2
BLOCKS
0
BLOCK
5
20
100
AcDbEntity
100
AcDbBlockBegin
2
*MODEL_SPACE
0
ENDBLK
5
21
100
AcDbEntity
100
AcDbBlockEnd
0
BLOCK
5
1C
100
AcDbEntity
100
AcDbBlockBegin
2
*PAPER_SPACE
0
ENDBLK
5
1D
100
AcDbEntity
100
AcDbBlockEnd
0
ENDSEC
0
SECTION
2
ENTITIES
0
CIRCLE
5
100
100
AcDbEntity
8
0
100
AcDbCircle
10
-345.42998391543875
20
-151.70446894774983
30
0
40
7.0000000000000284
210
0
220
-0
230
1
0
CIRCLE
5
101
100
AcDbEntity
8
0
100
AcDbCircle
10
-126.98125262083377
20
-151.70446894774983
30
0
40
6.999999999999992
210
0
220
-0
230
1
0
SPLINE
5
102
100
AcDbEntity
8
0
100
AcDbSpline
70
4
71
5
72
151
73
145
74
0
42
0.000000001
43
0.0000000001
44
0.0000000001
40
0
40
0
40
0
40
0
40
0
40
0
40
0.0071428571428571426
40
0.014285714285714285
40
0.021428571428571429
40
0.028571428571428571
40
0.035714285714285712
40
0.042857142857142858
40
0.050000000000000003
40
0.057142857142857148
40
0.064285714285714293
40
0.071428571428571438
40
0.078571428571428584
40
0.085714285714285729
40
0.092857142857142874
40
0.10000000000000002
40
0.10714285714285716
40
0.11428571428571431
40
0.12142857142857146
40
0.12857142857142859
40
0.13571428571428573
40
0.14285714285714288
40
0.15000000000000002
40
0.15714285714285717
40
0.16428571428571431
40
0.17142857142857146
40
0.1785714285714286
40
0.18571428571428575
40
0.19285714285714289
40
0.20000000000000004
40
0.20714285714285718
40
0.21428571428571433
40
0.22142857142857147
40
0.22857142857142862
40
0.23571428571428577
40
0.24285714285714291
40
0.25000000000000006
40
0.25714285714285717
40
0.26428571428571429
40
0.27142857142857141
40
0.27857142857142853
40
0.28571428571428564
40
0.29285714285714276
40
0.29999999999999988
40
0.307142857142857
40
0.31428571428571411
40
0.32142857142857123
40
0.32857142857142835
40
0.33571428571428547
40
0.34285714285714258
40
0.3499999999999997
40
0.35714285714285682
40
0.36428571428571394
40
0.37142857142857105
40
0.37857142857142817
40
0.38571428571428529
40
0.39285714285714241
40
0.39999999999999952
40
0.40714285714285664
40
0.41428571428571376
40
0.42142857142857088
40
0.42857142857142799
40
0.43571428571428511
40
0.44285714285714223
40
0.44999999999999934
40
0.45714285714285646
40
0.46428571428571358
40
0.4714285714285707
40
0.47857142857142781
40
0.48571428571428493
40
0.49285714285714205
40
0.49999999999999917
40
0.50714285714285634
40
0.51428571428571346
40
0.52142857142857058
40
0.52857142857142769
40
0.53571428571428481
40
0.54285714285714193
40
0.54999999999999905
40
0.55714285714285616
40
0.56428571428571328
40
0.5714285714285704
40
0.57857142857142752
40
0.58571428571428463
40
0.59285714285714175
40
0.59999999999999887
40
0.60714285714285599
40
0.6142857142857131
40
0.62142857142857022
40
0.62857142857142734
40
0.63571428571428445
40
0.64285714285714157
40
0.64999999999999869
40
0.65714285714285581
40
0.66428571428571292
40
0.67142857142857004
40
0.67857142857142716
40
0.68571428571428428
40
0.69285714285714139
40
0.69999999999999851
40
0.70714285714285563
40
0.71428571428571275
40
0.72142857142856986
40
0.72857142857142698
40
0.7357142857142841
40
0.74285714285714122
40
0.74999999999999833
40
0.75714285714285545
40
0.76428571428571257
40
0.77142857142856969
40
0.7785714285714268
40
0.78571428571428392
40
0.79285714285714104
40
0.79999999999999816
40
0.80714285714285527
40
0.81428571428571239
40
0.82142857142856951
40
0.82857142857142663
40
0.83571428571428374
40
0.84285714285714086
40
0.84999999999999798
40
0.8571428571428551
40
0.86428571428571221
40
0.87142857142856933
40
0.87857142857142645
40
0.88571428571428357
40
0.89285714285714068
40
0.8999999999999978
40
0.90714285714285492
40
0.91428571428571204
40
0.92142857142856915
40
0.92857142857142627
40
0.93571428571428339
40
0.94285714285714051
40
0.94999999999999762
40
0.95714285714285474
40
0.96428571428571186
40
0.97142857142856898
40
0.97857142857142609
40
0.98571428571428321
40
0.99285714285714033
40
1
40
1
40
1
40
1
40
1
40
1
41
1
41
1
41
1
41
1
41
1
41
1
41
1
41
1
41
1
41
1
41
1
41
1
41
1
41
1
41
1
41
1
41
1
41
1
41
1
41
1
41
1
41
1
41
1
41
1
41
1
41
1
41
1
41
1
41
1
41
1
41
1
41
1
41
1
41
1
41
1
41
1
41
1
41
1
41
1
41
1
41
1
41
1
41
1
41
1
41
1
41
1
41
1
41
1
41
1
41
1
41
1
41
1
41
1
41
1
41
1
41
1
41
1
41
1
41
1
41
1
41
1
41
1
41
1
41
1
41
1
41
1
41
1
41
1
41
1
41
1
41
1
41
1
41
1
41
1
41
1
41
1
41
1
41
1
41
1
41
1
41
1
41
1
41
1
41
1
41
1
41
1
41
1
41
1
41
1
41
1
41
1
41
1
41
1
41
1
41
1
41
1
41
1
41
1
41
1
41
1
41
1
41
1
41
1
41
1
41
1
41
1
41
1
41
1
41
1
41
1
41
1
41
1
41
1
41
1
41
1
41
1
41
1
41
1
41
1
41
1
41
1
41
1
41
1
41
1
41
1
41
1
41
1
41
1
41
1
41
1
41
1
41
1
41
1
41
1
41
1
41
1
41
1
41
1
41
1
41
1
41
1
41
1
41
1
41
1
41
1
10
-236.20561826813628
20
-218.03046227977467
30
0
10
-235.40102084704245
20
-218.0186342442567
30
0
10
-233.79484861270083
20
-217.99440710912279
30
0
10
-231.39465808017687
20
-217.95635321485722
30
0
10
-228.21254122021639
20
-217.90218801520507
30
0
10
-224.26525754213503
20
-217.82872476537966
30
0
10
-220.34872322900173
20
-217.74937060296543
30
0
10
-216.46369971035182
20
-217.66385951409848
30
0
10
-212.61144889583946
20
-217.5717495354576
30
0
10
-208.79384852690748
20
-217.47238034264942
30
0
10
-205.01353268149495
20
-217.36482677749461
30
0
10
-201.27397408684203
20
-217.24786166748004
30
0
10
-197.57970918106429
20
-217.11989572568177
30
0
10
-193.93604749279501
20
-216.97899999767688
30
0
10
-190.34821888300036
20
-216.82301795343488
30
0
10
-186.82067572395002
20
-216.64965326763746
30
0
10
-183.35631886672519
20
-216.45656849134897
30
0
10
-179.95578517898622
20
-216.24147667684454
30
0
10
-176.61663946653664
20
-216.00224154709193
30
0
10
-173.33276703032581
20
-215.73696113621736
30
0
10
-170.09326501756019
20
-215.44409189850211
30
0
10
-166.88417079821465
20
-215.12234374180437
30
0
10
-163.69111049866061
20
-214.77049933899963
30
0
10
-160.50167644195497
20
-214.38725841008625
30
0
10
-157.30784301312519
20
-213.97107189390127
30
0
10
-154.10854128802447
20
-213.5199796581648
30
0
10
-150.91176006669303
20
-213.03144831777954
30
0
10
-147.73788586619474
20
-212.50220442388724
30
0
10
-144.61727615706189
20
-211.92809153979286
30
0
10
-141.5848419884004
20
-211.30393913116066
30
0
10
-138.67557245901429
20
-210.62342870857788
30
0
10
-135.91965389722733
20
-209.87895796830929
30
0
10
-133.3377961774523
20
-209.06151178920877
30
0
10
-130.93638487971407
20
-208.16051450717401
30
0
10
-128.70293927589128
20
-207.16373514744205
30
0
10
-126.61414751634163
20
-206.0599704133399
30
0
10
-124.6434311972473
20
-204.84158303205589
30
0
10
-122.76903678541331
20
-203.50725281615922
30
0
10
-120.98109576102414
20
-202.06427861139355
30
0
10
-119.2912256560079
20
-200.53201089891402
30
0
10
-117.7261059787275
20
-198.93812995243559
30
0
10
-116.31672432328961
20
-197.31298342253535
30
0
10
-115.08903049360097
20
-195.68456702974783
30
0
10
-114.05412629786255
20
-194.07326597458666
30
0
10
-113.19830866630382
20
-192.48661287681114
30
0
10
-112.49373098097826
20
-190.91973244000673
30
0
10
-111.90937432299705
20
-189.35595182138715
30
0
10
-111.42217496956414
20
-187.76727448265191
30
0
10
-111.02732015271431
20
-186.11510709030239
30
0
10
-110.7300399170297
20
-184.35625314038373
30
0
10
-110.53852011949716
20
-182.44847867831982
30
0
10
-110.45585691976164
20
-180.35662715690916
30
0
10
-110.47398356437645
20
-178.05737026691907
30
0
10
-110.57757388947854
20
-175.53670298420093
30
0
10
-110.74668496696667
20
-172.78837489629689
30
0
10
-110.95998561047054
20
-169.81186872856597
30
0
10
-111.19750375065941
20
-166.61078844624609
30
0
10
-111.44415266553307
20
-163.19054191962894
30
0
10
-111.6905782759337
20
-159.55850507334168
30
0
10
-111.93166913921792
20
-155.72635494058423
30
0
10
-112.16571700796428
20
-151.7118098247536
30
0
10
-112.39331479315693
20
-147.54059323382944
30
0
10
-112.61636185393533
20
-143.24835342467685
30
0
10
-112.83703783652845
20
-138.88249235125068
30
0
10
-113.0567573335049
20
-134.50430068019239
30
0
10
-113.27521015527373
20
-130.19034683597556
30
0
10
-113.48916036442616
20
-126.03581863563106
30
0
10
-113.69316767951169
20
-122.14260688843538
30
0
10
-113.88067342856132
20
-118.6045965429149
30
0
10
-114.04497190237917
20
-115.49365138209446
30
0
10
-114.18020210071751
20
-112.84591222629125
30
0
10
-114.28239480824053
20
-110.64653479849873
30
0
10
-114.35034690061762
20
-108.81839293777298
30
0
10
-114.38694679358181
20
-107.2007260369607
30
0
10
-114.39857009786417
20
-105.57074505374081
30
0
10
-114.3931166117379
20
-103.69611082869581
30
0
10
-114.37857785711833
20
-101.37438604286663
30
0
10
-114.36109183075756
20
-98.48686789431035
30
0
10
-114.34453240219676
20
-95.006027530969362
30
0
10
-114.33107054839425
20
-90.972979448069879
30
0
10
-114.32145093452219
20
-86.483752000701273
30
0
10
-114.31538475504075
20
-81.672002317731099
30
0
10
-114.31189328990834
20
-76.693157281379271
30
0
10
-114.30967016810784
20
-71.708213606214201
30
0
10
-114.30744057685116
20
-66.867076910409665
30
0
10
-114.3043097160064
20
-62.293525146586276
30
0
10
-114.30014544606908
20
-58.065972478154258
30
0
10
-114.29584028583204
20
-54.21256817422168
30
0
10
-114.29339610747431
20
-50.726889105652475
30
0
10
-114.29605553696697
20
-47.578684076968088
30
0
10
-114.30840766915713
20
-44.726496926469601
30
0
10
-114.33652178742017
20
-42.129738080538878
30
0
10
-114.38803138017292
20
-39.760392874308934
30
0
10
-114.47232346623473
20
-37.616324583073677
30
0
10
-114.60061170938272
20
-35.729559120017228
30
0
10
-114.79186377409611
20
-34.140391533310328
30
0
10
-115.07404142769107
20
-32.877415682211996
30
0
10
-115.49556533331503
20
-31.931031268404986
30
0
10
-116.10812979582789
20
-31.242478343629017
30
0
10
-116.87077179242083
20
-30.745988693474668
30
0
10
-117.54284776896057
20
-30.403788321989534
30
0
10
-118.10393735951504
20
-30.196900799191337
30
0
10
-119.10282757625195
20
-30.113311606002302
30
0
10
-120.95455311752505
20
-30.129570260489796
30
0
10
-123.42950530148045
20
-30.196618174837596
30
0
10
-125.98277443508567
20
-30.257485220122788
30
0
10
-128.03960756762226
20
-30.263767787394436
30
0
10
-129.25406417906072
20
-30.189204304157737
30
0
10
-129.88600484941668
20
-30.052934690778088
30
0
10
-130.59973289217845
20
-29.895529584195472
30
0
10
-131.66757082246747
20
-29.701346048119071
30
0
10
-132.92594465464489
20
-29.399172199860708
30
0
10
-134.1745821640632
20
-28.911502087697215
30
0
10
-135.39551284287549
20
-28.185335411509477
30
0
10
-136.65557314320012
20
-27.198482047041708
30
0
10
-138.03490147664181
20
-25.966810681084368
30
0
10
-139.5420650590641
20
-24.552286960914785
30
0
10
-141.13752365855837
20
-23.042725440473784
30
0
10
-142.76258554296723
20
-21.528843827616775
30
0
10
-144.36420596671346
20
-20.084291486221669
30
0
10
-145.92684712917199
20
-18.73974050574072
30
0
10
-147.48337163674898
20
-17.475311864631415
30
0
10
-149.08819873303437
20
-16.246235717199596
30
0
10
-150.79795067184133
20
-15.001950023166593
30
0
10
-152.65076720124159
20
-13.706254849086132
30
0
10
-154.64191119590413
20
-12.361044971090573
30
0
10
-156.73217673378176
20
-10.999092760948542
30
0
10
-158.86484298714399
20
-9.6687827056378808
30
0
10
-160.98035750646889
20
-8.4210004459411891
30
0
10
-163.03049158834145
20
-7.296472036026457
30
0
10
-164.99634708468761
20
-6.3095946125011828
30
0
10
-166.89083071400975
20
-5.4464657592541341
30
0
10
-168.74377893846773
20
-4.6787708571324362
30
0
10
-170.59143368042416
20
-3.9737090216803934
30
0
10
-172.46467974355537
20
-3.3050109294700936
30
0
10
-174.37640902793737
20
-2.6648628052817562
30
0
10
-176.32489577087995
20
-2.0601144358718049
30
0
10
-178.29986233156976
20
-1.5058377288623199
30
0
10
-180.28725298238169
20
-1.0201964472424354
30
0
10
-182.27532445951596
20
-0.61790896562046704
30
0
10
-184.25744077728098
20
-0.30733421253585291
30
0
10
-185.83560203058136
20
-0.1357009827661666
30
0
10
-187.0144925862167
20
-0.050804706481831621
30
0
10
-187.7983145008632
20
-0.013688192195754031
30
0
10
-188.18969934506208
20
0
30
0
0
LINE
5
103
100
AcDbEntity
8
0
100
AcDbLine
10
-188.18969934506208
20
1.9006277827141176e-17
30
0
11
-284.22153719121047
21
0
31
0
0
SPLINE
5
104
100
AcDbEntity
8
0
100
AcDbSpline
70
4
71
5
72
151
73
145
74
0
42
0.000000001
43
0.0000000001
44
0.0000000001
40
-1
40
-1
40
-1
40
-1
40
-1
40
-1
40
-0.99285714285714033
40
-0.98571428571428321
40
-0.97857142857142609
40
-0.97142857142856898
40
-0.96428571428571186
40
-0.95714285714285474
40
-0.94999999999999762
40
-0.94285714285714051
40
-0.93571428571428339
40
-0.92857142857142627
40
-0.92142857142856915
40
-0.91428571428571204
40
-0.90714285714285492
40
-0.8999999999999978
40
-0.89285714285714068
40
-0.88571428571428357
40
-0.87857142857142645
40
-0.87142857142856933
40
-0.86428571428571221
40
-0.8571428571428551
40
-0.84999999999999798
40
-0.84285714285714086
40
-0.83571428571428374
40
-0.82857142857142663
40
-0.82142857142856951
40
-0.81428571428571239
40
-0.80714285714285527
40
-0.79999999999999816
40
-0.79285714285714104
40
-0.78571428571428392
40
-0.7785714285714268
40
-0.77142857142856969
40
-0.76428571428571257
40
-0.75714285714285545
40
-0.74999999999999833
40
-0.74285714285714122
40
-0.7357142857142841
40
-0.72857142857142698
40
-0.72142857142856986
40
-0.71428571428571275
40
-0.70714285714285563
40
-0.69999999999999851
40
-0.69285714285714139
40
-0.68571428571428428
40
-0.67857142857142716
40
-0.67142857142857004
40
-0.66428571428571292
40
-0.65714285714285581
40
-0.64999999999999869
40
-0.64285714285714157
40
-0.63571428571428445
40
-0.62857142857142734
40
-0.62142857142857022
40
-0.6142857142857131
40
-0.60714285714285599
40
-0.59999999999999887
40
-0.59285714285714175
40
-0.58571428571428463
40
-0.57857142857142752
40
-0.5714285714285704
40
-0.56428571428571328
40
-0.55714285714285616
40
-0.54999999999999905
40
-0.54285714285714193
40
-0.53571428571428481
40
-0.52857142857142769
40
-0.52142857142857058
40
-0.51428571428571346
40
-0.50714285714285634
40
-0.49999999999999917
40
-0.49285714285714205
40
-0.48571428571428493
40
-0.47857142857142781
40
-0.4714285714285707
40
-0.46428571428571358
40
-0.45714285714285646
40
-0.44999999999999934
40
-0.44285714285714223
40
-0.43571428571428511
40
-0.42857142857142799
40
-0.42142857142857088
40
-0.41428571428571376
40
-0.40714285714285664
40
-0.39999999999999952
40
-0.39285714285714241
40
-0.38571428571428529
40
-0.37857142857142817
40
-0.37142857142857105
40
-0.36428571428571394
40
-0.35714285714285682
40
-0.3499999999999997
40
-0.34285714285714258
40
-0.33571428571428547
40
-0.32857142857142835
40
-0.32142857142857123
40
-0.31428571428571411
40
-0.307142857142857
40
-0.29999999999999988
40
-0.29285714285714276
40
-0.28571428571428564
40
-0.27857142857142853
40
-0.27142857142857141
40
-0.26428571428571429
40
-0.25714285714285717
40
-0.25000000000000006
40
-0.24285714285714291
40
-0.23571428571428577
40
-0.22857142857142862
40
-0.22142857142857147
40
-0.21428571428571433
40
-0.20714285714285718
40
-0.20000000000000004
40
-0.19285714285714289
40
-0.18571428571428575
40
-0.1785714285714286
40
-0.17142857142857146
40
-0.16428571428571431
40
-0.15714285714285717
40
-0.15000000000000002
40
-0.14285714285714288
40
-0.13571428571428573
40
-0.12857142857142859
40
-0.12142857142857146
40
-0.11428571428571431
40
-0.10714285714285716
40
-0.10000000000000002
40
-0.092857142857142874
40
-0.085714285714285729
40
-0.078571428571428584
40
-0.071428571428571438
40
-0.064285714285714293
40
-0.057142857142857148
40
-0.050000000000000003
40
-0.042857142857142858
40
-0.035714285714285712
40
-0.028571428571428571
40
-0.021428571428571429
40
-0.014285714285714285
40
-0.0071428571428571426
40
0
40
0
40
0
40
0
40
0
40
0
41
1
41
1
41
1
41
1
41
1
41
1
41
1
41
1
41
1
41
1
41
1
41
1
41
1
41
1
41
1
41
1
41
1
41
1
41
1
41
1
41
1
41
1
41
1
41
1
41
1
41
1
41
1
41
1
41
1
41
1
41
1
41
1
41
1
41
1
41
1
41
1
41
1
41
1
41
1
41
1
41
1
41
1
41
1
41
1
41
1
41
1
41
1
41
1
41
1
41
1
41
1
41
1
41
1
41
1
41
1
41
1
41
1
41
1
41
1
41
1
41
1
41
1
41
1
41
1
41
1
41
1
41
1
41
1
41
1
41
1
41
1
41
1
41
1
41
1
41
1
41
1
41
1
41
1
41
1
41
1
41
1
41
1
41
1
41
1
41
1
41
1
41
1
41
1
41
1
41
1
41
1
41
1
41
1
41
1
41
1
41
1
41
1
41
1
41
1
41
1
41
1
41
1
41
1
41
1
41
1
41
1
41
1
41
1
41
1
41
1
41
1
41
1
41
1
41
1
41
1
41
1
41
1
41
1
41
1
41
1
41
1
41
1
41
1
41
1
41
1
41
1
41
1
41
1
41
1
41
1
41
1
41
1
41
1
41
1
41
1
41
1
41
1
41
1
41
1
41
1
41
1
41
1
41
1
41
1
41
1
10
-284.22153719121047
20
0
30
0
10
-284.61292203540938
20
-0.013688192195754031
30
0
10
-285.39674395005585
20
-0.050804706481831621
30
0
10
-286.5756345056912
20
-0.1357009827661666
30
0
10
-288.15379575899158
20
-0.30733421253585291
30
0
10
-290.1359120767566
20
-0.61790896562046704
30
0
10
-292.12398355389087
20
-1.0201964472424354
30
0
10
-294.11137420470277
20
-1.5058377288623199
30
0
10
-296.08634076539261
20
-2.0601144358718049
30
0
10
-298.03482750833518
20
-2.6648628052817562
30
0
10
-299.94655679271722
20
-3.3050109294700936
30
0
10
-301.81980285584837
20
-3.9737090216803934
30
0
10
-303.6674575978048
20
-4.6787708571324362
30
0
10
-305.52040582226277
20
-5.4464657592541341
30
0
10
-307.41488945158494
20
-6.3095946125011828
30
0
10
-309.38074494793108
20
-7.296472036026457
30
0
10
-311.43087902980363
20
-8.4210004459411891
30
0
10
-313.54639354912854
20
-9.6687827056378808
30
0
10
-315.67905980249077
20
-10.999092760948542
30
0
10
-317.76932534036848
20
-12.361044971090573
30
0
10
-319.76046933503096
20
-13.706254849086132
30
0
10
-321.61328586443119
20
-15.001950023166593
30
0
10
-323.32303780323821
20
-16.246235717199596
30
0
10
-324.92786489952357
20
-17.475311864631415
30
0
10
-326.48438940710059
20
-18.73974050574072
30
0
10
-328.04703056955907
20
-20.084291486221669
30
0
10
-329.6486509933053
20
-21.528843827616775
30
0
10
-331.27371287771416
20
-23.042725440473784
30
0
10
-332.8691714772084
20
-24.552286960914785
30
0
10
-334.37633505963078
20
-25.966810681084368
30
0
10
-335.75566339307244
20
-27.198482047041708
30
0
10
-337.01572369339709
20
-28.185335411509477
30
0
10
-338.23665437220939
20
-28.911502087697215
30
0
10
-339.48529188162763
20
-29.399172199860708
30
0
10
-340.74366571380506
20
-29.701346048119071
30
0
10
-341.8115036440941
20
-29.895529584195472
30
0
10
-342.52523168685582
20
-30.052934690778088
30
0
10
-343.15717235721183
20
-30.189204304157737
30
0
10
-344.37162896865033
20
-30.263767787394436
30
0
10
-346.42846210118694
20
-30.257485220122788
30
0
10
-348.98173123479211
20
-30.196618174837596
30
0
10
-351.4566834187475
20
-30.129570260489796
30
0
10
-353.30840896002059
20
-30.113311606002302
30
0
10
-354.30729917675751
20
-30.196900799191337
30
0
10
-354.86838876731201
20
-30.403788321989534
30
0
10
-355.54046474385177
20
-30.745988693474668
30
0
10
-356.30310674044466
20
-31.242478343629017
30
0
10
-356.91567120295753
20
-31.931031268404986
30
0
10
-357.33719510858151
20
-32.877415682211996
30
0
10
-357.61937276217645
20
-34.140391533310328
30
0
10
-357.81062482688981
20
-35.729559120017228
30
0
10
-357.93891307003781
20
-37.616324583073677
30
0
10
-358.02320515609961
20
-39.760392874308934
30
0
10
-358.07471474885239
20
-42.129738080538878
30
0
10
-358.10282886711542
20
-44.726496926469601
30
0
10
-358.11518099930561
20
-47.578684076968088
30
0
10
-358.11784042879822
20
-50.726889105652475
30
0
10
-358.11539625044048
20
-54.21256817422168
30
0
10
-358.1110910902035
20
-58.065972478154258
30
0
10
-358.10692682026615
20
-62.293525146586276
30
0
10
-358.1037959594214
20
-66.867076910409665
30
0
10
-358.10156636816475
20
-71.708213606214201
30
0
10
-358.09934324636424
20
-76.693157281379271
30
0
10
-358.09585178123177
20
-81.672002317731099
30
0
10
-358.08978560175035
20
-86.483752000701273
30
0
10
-358.08016598787833
20
-90.972979448069879
30
0
10
-358.06670413407579
20
-95.006027530969362
30
0
10
-358.05014470551498
20
-98.48686789431035
30
0
10
-358.03265867915422
20
-101.37438604286663
30
0
10
-358.01811992453463
20
-103.69611082869581
30
0
10
-358.01266643840842
20
-105.57074505374081
30
0
10
-358.02428974269077
20
-107.2007260369607
30
0
10
-358.06088963565492
20
-108.81839293777298
30
0
10
-358.128841728032
20
-110.64653479849873
30
0
10
-358.23103443555505
20
-112.84591222629125
30
0
10
-358.36626463389337
20
-115.49365138209446
30
0
10
-358.53056310771126
20
-118.6045965429149
30
0
10
-358.71806885676085
20
-122.14260688843538
30
0
10
-358.92207617184636
20
-126.03581863563106
30
0
10
-359.13602638099883
20
-130.19034683597556
30
0
10
-359.35447920276766
20
-134.50430068019239
30
0
10
-359.5741986997441
20
-138.88249235125068
30
0
10
-359.79487468233719
20
-143.24835342467685
30
0
10
-360.01792174311561
20
-147.54059323382944
30
0
10
-360.24551952830825
20
-151.7118098247536
30
0
10
-360.47956739705461
20
-155.72635494058423
30
0
10
-360.72065826033884
20
-159.55850507334168
30
0
10
-360.96708387073943
20
-163.19054191962894
30
0
10
-361.21373278561316
20
-166.61078844624609
30
0
10
-361.45125092580201
20
-169.81186872856597
30
0
10
-361.6645515693059
20
-172.78837489629689
30
0
10
-361.83366264679398
20
-175.53670298420093
30
0
10
-361.9372529718961
20
-178.05737026691907
30
0
10
-361.95537961651092
20
-180.35662715690916
30
0
10
-361.8727164167754
20
-182.44847867831982
30
0
10
-361.68119661924288
20
-184.35625314038373
30
0
10
-361.38391638355824
20
-186.11510709030239
30
0
10
-360.98906156670841
20
-187.76727448265191
30
0
10
-360.5018622132755
20
-189.35595182138715
30
0
10
-359.91750555529427
20
-190.91973244000673
30
0
10
-359.21292786996872
20
-192.48661287681114
30
0
10
-358.35711023840997
20
-194.07326597458666
30
0
10
-357.32220604267155
20
-195.68456702974783
30
0
10
-356.09451221298292
20
-197.31298342253535
30
0
10
-354.68513055754505
20
-198.93812995243559
30
0
10
-353.12001088026466
20
-200.53201089891402
30
0
10
-351.43014077524839
20
-202.06427861139355
30
0
10
-349.64219975085928
20
-203.50725281615922
30
0
10
-347.76780533902524
20
-204.84158303205589
30
0
10
-345.79708901993092
20
-206.0599704133399
30
0
10
-343.70829726038124
20
-207.16373514744205
30
0
10
-341.47485165655849
20
-208.16051450717401
30
0
10
-339.07344035882028
20
-209.06151178920877
30
0
10
-336.49158263904525
20
-209.87895796830929
30
0
10
-333.73566407725826
20
-210.62342870857788
30
0
10
-330.82639454787216
20
-211.30393913116066
30
0
10
-327.79396037921066
20
-211.92809153979286
30
0
10
-324.67335067007781
20
-212.50220442388724
30
0
10
-321.49947646957958
20
-213.03144831777954
30
0
10
-318.30269524824809
20
-213.5199796581648
30
0
10
-315.10339352314736
20
-213.97107189390127
30
0
10
-311.90956009431761
20
-214.38725841008625
30
0
10
-308.72012603761198
20
-214.77049933899963
30
0
10
-305.5270657380579
20
-215.12234374180437
30
0
10
-302.3179715187124
20
-215.44409189850211
30
0
10
-299.07846950594671
20
-215.73696113621736
30
0
10
-295.79459706973591
20
-216.00224154709193
30
0
10
-292.45545135728634
20
-216.24147667684454
30
0
10
-289.05491766954736
20
-216.45656849134897
30
0
10
-285.59056081232251
20
-216.64965326763746
30
0
10
-282.0630176532722
20
-216.82301795343488
30
0
10
-278.47518904347754
20
-216.97899999767688
30
0
10
-274.83152735520827
20
-217.11989572568177
30
0
10
-271.13726244943052
20
-217.24786166748004
30
0
10
-267.3977038547776
20
-217.36482677749461
30
0
10
-263.61738800936507
20
-217.47238034264942
30
0
10
-259.79978764043312
20
-217.5717495354576
30
0
10
-255.94753682592074
20
-217.66385951409848
30
0
10
-252.06251330727082
20
-217.74937060296543
30
0
10
-248.14597899413752
20
-217.82872476537966
30
0
10
-244.19869531605616
20
-217.90218801520507
30
0
10
-241.01657845609569
20
-217.95635321485722
30
0
10
-238.61638792357172
20
-217.99440710912279
30
0
10
-237.01021568923011
20
-218.0186342442567
30
0
10
-236.20561826813628
20
-218.03046227977467
30
0
0
ENDSEC
0
SECTION
2
OBJECTS
0
DICTIONARY
5
C
100
AcDbDictionary
3
ACAD_GROUP
350
D
3
ACAD_MLINESTYLE
350
17
0
DICTIONARY
5
D
100
AcDbDictionary
0
DICTIONARY
5
1A
330
C
100
AcDbDictionary
0
DICTIONARY
5
17
100
AcDbDictionary
0
ENDSEC
0
EOF
