0
SECTION
2
HEADER
9
$INSUNITS
70
4
9
$ACADVER
1
AC1014
9
$HANDSEED
5
FFFF
0
ENDSEC
0
SECTION
2
TABLES
0
TABLE
2
VPORT
5
8
100
AcDbSymbolTable
0
ENDTAB
0
TABLE
2
LTYPE
5
5
100
AcDbSymbolTable
0
LTYPE
5
14
100
AcDbSymbolTableRecord
100
AcDbLinetypeTableRecord
2
BYBLOCK
70
0
0
LTYPE
5
15
100
AcDbSymbolTableRecord
100
AcDbLinetypeTableRecord
2
BYLAYER
70
0
0
LTYPE
5
16
100
AcDbSymbolTableRecord
100
AcDbLinetypeTableRecord
2
DASHED
70
0
3
Dashed __ __ __ __ __ __ __ __ __ __ __ __ __ _
72
65
73
2
40
0.75
49
0.5
74
0
49
-0.25
74
0
0
ENDTAB
0
TABLE
2
LAYER
5
2
100
AcDbSymbolTable
70
2
0
LAYER
5
50
100
AcDbSymbolTableRecord
100
AcDbLayerTableRecord
2
0
70
0
62
7
6
CONTINUOUS
0
ENDTAB
0
TABLE
2
STYLE
5
3
100
AcDbSymbolTable
70
1
0
STYLE
5
11
100
AcDbSymbolTableRecord
100
AcDbTextStyleTableRecord
2
STANDARD
70
0
0
ENDTAB
0
TABLE
2
VIEW
5
6
100
AcDbSymbolTable
70
0
0
ENDTAB
0
TABLE
2
UCS
5
7
100
AcDbSymbolTable
70
0
0
ENDTAB
0
TABLE
2
APPID
5
9
100
AcDbSymbolTable
70
2
0
APPID
5
12
100
AcDbSymbolTableRecord
100
AcDbRegAppTableRecord
2
ACAD
70
0
0
ENDTAB
0
TABLE
2
DIMSTYLE
5
A
100
AcDbSymbolTable
70
1
0
ENDTAB
0
TABLE
2
BLOCK_RECORD
5
1
100
AcDbSymbolTable
70
1
0
BLOCK_RECORD
5
1F
100
AcDbSymbolTableRecord
100
AcDbBlockTableRecord
2
*MODEL_SPACE
0
BLOCK_RECORD
5
1B
100
AcDbSymbolTableRecord
100
AcDbBlockTableRecord
2
*PAPER_SPACE
0
ENDTAB
0
ENDSEC
0
SECTION
2
BLOCKS
0
BLOCK
5
20
100
AcDbEntity
100
AcDbBlockBegin
2
*MODEL_SPACE
0
ENDBLK
5
21
100
AcDbEntity
100
AcDbBlockEnd
0
BLOCK
5
1C
100
AcDbEntity
100
AcDbBlockBegin
2
*PAPER_SPACE
0
ENDBLK
5
1D
100
AcDbEntity
100
AcDbBlockEnd
0
ENDSEC
0
SECTION
2
ENTITIES
0
LWPOLYLINE
5
100
100
AcDbEntity
8
0
100
AcDbPolyline
90
1335
70
1
43
0.0
10
-243.11493801138994
20
45.365424901521045
10
-243.39593814871904
20
45.70269182351808
10
-243.47845958731767
20
45.802818089997608
10
-243.83914875052568
20
46.246543675935072
10
-243.97714542410966
20
46.418967992341358
10
-244.19483112357256
20
46.694007665192885
10
-244.46728633902666
20
47.04364374307378
10
-244.54529689810869
20
47.144876271760303
10
-244.94892047904131
20
47.676950246369749
10
-244.97876094840166
20
47.716832906281788
10
-245.40539669058916
20
48.295932561433155
10
-245.42212413809892
20
48.318963796174366
10
-245.82523273490068
20
48.882251531159717
10
-245.88690685294267
20
48.969779759919447
10
-246.23974727652666
20
49.477992803132373
10
-246.34326862357256
20
49.629493505036635
10
-246.64600299857256
20
50.078998357331592
10
-246.79126667044756
20
50.298229009187061
10
-246.83340282848741
20
50.36318990964002
10
-246.92664073966142
20
50.504585057771045
10
-247.20349239371416
20
50.933099538361866
10
-247.217919739699
20
50.955995850040949
10
-247.23092960379719
20
50.976053029572839
10
-247.59106563590166
20
51.548181325471205
10
-247.66223835013506
20
51.663080007111866
10
-247.97100948355791
20
52.169123441254897
10
-248.08521198294756
20
52.359429151093764
10
-248.32089351676103
20
52.75769785073976
10
-248.49985050223466
20
53.065224439179737
10
-248.66370128653642
20
53.350716382539041
10
-248.90619205496904
20
53.780556470429737
10
-249.02942585013506
20
54.002357274567885
10
-249.30420803092119
20
54.505549222504932
10
-249.38678668997881
20
54.659157544648451
10
-249.63016437552568
20
55.118418485200209
10
-249.6670735751631
20
55.189605762716774
10
-249.69387935660478
20
55.24033620980962
10
-249.73418438527236
20
55.319043298901214
10
-249.86963199637532
20
55.580282956635756
10
-250.07523464224931
20
55.985041410004932
10
-250.1352596618531
20
56.106492590595032
10
-250.20776676200032
20
56.25012949136476
10
-250.34776939403434
20
56.536472589447015
10
-250.44824527762529
20
56.739769727265639
10
-250.53788112662431
20
56.925302297150928
10
-250.73758052847978
20
57.344489842927295
10
-250.81284450553056
20
57.504692822968835
10
-250.93418048880693
20
57.765541821992272
10
-251.16907047293779
20
58.279901296174366
10
-251.25375675223466
20
58.468485623872084
10
-251.51684688590166
20
59.065542966401416
10
-251.56643795035478
20
59.180031568085987
10
-251.85620235465166
20
59.861765653168995
10
-251.87229084036943
20
59.900308400666553
10
-252.17121051810381
20
60.629387647187549
10
-252.18705104849931
20
60.668707639252979
10
-252.46319698355791
20
61.367407590424854
10
-252.50934528372881
20
61.48652151254403
10
-252.74838375113603
20
62.114907056367201
10
-252.82306598685381
20
62.315331250703174
10
-253.02661823294756
20
62.871790677583057
10
-253.12817501090166
20
63.155279904877979
10
-253.29983638785478
20
63.643852025544483
10
-253.42459606192705
20
64.006553441560072
10
-253.56388019583818
20
64.419503957307171
10
-253.71228145621416
20
64.869285375153851
10
-253.74675817841097
20
64.977368042484642
10
-253.79544185660478
20
65.125876218354534
10
-253.93969655538956
20
65.582219463546778
10
-253.99118351004716
20
65.743628293549847
10
-254.01913570426103
20
65.8335216346143
10
-254.23511432669756
20
66.542259007966351
10
-254.26120685599443
20
66.629739553010296
10
-254.49463771842119
20
67.43054941323976
10
-254.5223133470833
20
67.527781278168987
10
-254.74457668326494
20
68.327799588715862
10
-254.77441715262529
20
68.437906056916546
10
-254.98490261099931
20
69.233999997651409
10
-255.01743244193193
20
69.360299855744643
10
-255.05786405228116
20
69.521921594753522
10
-255.16824649832841
20
69.957514554536175
10
-255.25128292105791
20
70.295096189057631
10
-255.28584136852015
20
70.440839208543977
10
-255.3444569017708
20
70.681753903901409
10
-255.43575984618116
20
71.073089011865278
10
-255.47593044303056
20
71.242500096833538
10
-255.51358150504228
20
71.406641751801843
10
-255.63007282279131
20
71.924401074921917
10
-255.69119380972978
20
72.202659398591351
10
-255.74359821341631
20
72.444906980073284
10
-255.89707302115556
20
73.17574575570805
10
-255.92780040763017
20
73.326087743317913
10
-256.09345363638994
20
74.161935597932171
10
-256.10424922965166
20
74.218040257966351
10
-256.2734119798958
20
75.123968869721722
10
-256.28018306754228
20
75.161400586640639
10
-256.43405841849443
20
76.037851125275921
10
-256.45722316763994
20
76.17432668832528
10
-256.47119332886643
20
76.259683135498904
10
-256.51974605582353
20
76.549721509492272
10
-256.60251544974443
20
77.062049657380413
10
-256.62439273856279
20
77.200890332734417
10
-256.73825191519853
20
77.94590070871098
10
-256.78168224356767
20
78.241263181245159
10
-256.86633991263506
20
78.836923390900921
10
-256.92890094779131
20
79.295645505463909
10
-256.99459957144853
20
79.796057492768568
10
-257.06598209403154
20
80.364204198396038
10
-257.11496280692216
20
80.770469457185072
10
-257.19275402091142
20
81.447134763276409
10
-257.22644733451006
20
81.753168851411175
10
-257.29596065543291
20
82.414408475434612
10
-257.30298575627
20
82.485619129804178
10
-257.30914997122881
20
82.544608861481976
10
-257.31861358007171
20
82.644032166870005
10
-257.36130641959306
20
83.076792508637737
10
-257.38890868633132
20
83.38254238352431
10
-257.41501735709306
20
83.656836301362318
10
-257.45718883536455
20
84.13888052133305
10
-257.51019405387041
20
84.784003049409193
10
-257.53284381888506
20
85.075007230317425
10
-257.59461330435869
20
85.926309377229046
10
-257.60089801810381
20
86.018229276215862
10
-257.66132282279131
20
86.968560964143151
10
-257.66809391043779
20
87.083917409455609
10
-257.69303249381181
20
87.525854856049847
10
-257.72205280326006
20
88.083749562775921
10
-257.73053096793291
20
88.257056027924847
10
-257.76297496817705
20
88.977518826997155
10
-257.78174327872392
20
89.445901662385296
10
-257.79916690848466
20
89.929605275666546
10
-257.82159732840654
20
90.650659352814984
10
-257.82807277701494
20
90.888510495698284
10
-257.8499500658333
20
91.871546060120863
10
-257.85214351676103
20
91.994043141877455
10
-257.86621974967119
20
93.055673390900893
10
-257.86676334403154
20
93.117426187074017
10
-257.87161754630205
20
94.249885827576918
10
-257.87320064566728
20
94.346369058167738
10
-257.87289546988603
20
94.442880898988051
10
-257.87073062918779
20
94.539345056092543
10
-257.80457424185869
20
96.550195962464613
10
-257.77460025809404
20
97.442024499451918
10
-257.75952266715166
20
97.886315137421889
10
-257.70862506888506
20
99.367759973084731
10
-257.64288829825517
20
101.24007537988405
10
-257.53617214224931
20
104.19754818109254
10
-257.45407985709306
20
106.41259029535036
10
-257.34372066519853
20
109.32338789132814
10
-257.32861446402666
20
109.71714094308595
10
-257.32163356803056
20
109.89847734597902
10
-257.22449230216142
20
112.39835456041078
10
-257.06555294058916
20
116.40876129297001
10
-256.98968814871904
20
118.29573944238408
10
-256.8904774095833
20
120.74213579324467
10
-256.87442707083818
20
121.13588884500248
10
-256.78280757926103
20
123.37545171407444
10
-256.73984455130693
20
124.42212834981663
10
-256.1530080000357
20
138.6863486112224
10
-256.10812853570627
20
139.78765123172292
10
-255.94636096910418
20
143.82013168889554
10
-255.86514447757685
20
145.85333094593292
10
-255.74317015746087
20
149.0062697196712
10
-255.64678033125369
20
151.50767990420835
10
-255.4642612890197
20
156.47696170041007
10
-255.46214244741591
20
156.5366875400849
10
-255.32470814955917
20
160.52786177549308
10
-255.29433307721445
20
161.44108408599493
10
-255.17761766709486
20
165.09300932624092
10
-255.17424358765041
20
165.20631840465535
10
-255.07718229435002
20
168.51845974444757
10
-255.05262270277603
20
169.40051552979361
10
-254.97340332507636
20
172.39010938826553
10
-254.96519501762089
20
172.72364774989364
10
-254.90630010039894
20
175.20909449102851
10
-254.87729801617115
20
176.49144865098555
10
-254.81652489603161
20
179.40245311804773
10
-254.81132617303942
20
179.67960332466092
10
-254.76678497753781
20
182.14761569339754
10
-254.73856448266423
20
183.8638154449535
10
-254.70832560832326
20
185.85760674398077
10
-254.69761812068339
20
186.62246148898149
10
-254.66759657895864
20
189.06635185540208
10
-254.65888809919801
20
189.80445887716215
10
-254.62827536679245
20
193.09683791634072
10
-254.62055670422544
20
194.11509363513778
10
-254.60759184938104
20
196.08102232626811
10
-254.60144447574589
20
197.18677044578769
10
-254.58981441519853
20
199.93721082833991
42
-0.3599131021062425
10
-250.66031383536455
20
204.80569914010746
10
-250.50995754263994
20
204.83629778054939
10
-250.46558307669756
20
204.84441831735359
10
-250.26947902701494
20
204.87533643869148
10
-249.91180347342373
20
204.93006006820164
10
-249.79511542828405
20
204.95096789001093
10
-249.55539444066341
20
204.99527485355941
10
-249.41778102233377
20
205.02382987600322
10
-249.2001549556399
20
205.07106282146788
10
-249.05631759166931
20
205.10503201638656
10
-248.84569229233455
20
205.15762344024466
10
-248.70215255669081
20
205.19568487067303
10
-248.40082096121901
20
205.28091028360114
10
-248.4004326380759
20
205.28103320169137
10
-248.10382569850105
20
205.37491985048123
10
-247.95675002416797
20
205.42420084035092
10
-247.75598560243026
20
205.49466877069946
10
-247.61151530819987
20
205.54759507114915
10
-247.41031436522138
20
205.62527928931885
10
-247.27013569126876
20
205.68111168285094
10
-247.06423657465464
20
205.76802818168397
10
-246.93359962887544
20
205.82433206085383
10
-246.70887324011076
20
205.92750646753865
10
-246.60175122366621
20
205.97726786399392
10
-246.27423213980788
20
206.1400707068799
10
-245.93980646943325
20
206.31943261439653
10
-245.81738039276559
20
206.38994340631413
10
-245.60998519038449
20
206.50959173147982
10
-245.48098738133348
20
206.58922807534907
10
-245.28695549789742
20
206.70930704739348
10
-245.14721498471064
20
206.80158125012724
10
-244.97012737174546
20
206.91891198120265
10
-244.83082640588924
20
207.01711586626519
10
-244.65932652096632
20
207.13854739690944
10
-244.52321309053832
20
207.24086490680725
10
-244.35588948662544
20
207.36728759167841
10
-244.21888309844778
20
207.47697921856016
10
-244.05989614158173
20
207.60502167144205
10
-243.92261284917407
20
207.72197826488579
10
-243.7711808155338
20
207.85186377718063
10
-243.63725383406722
20
207.9731901386269
10
-243.48971591700132
20
208.10788038718528
10
-243.36088976606365
20
208.23195462415691
10
-243.216270422881
20
208.37243732166016
10
-243.09232409256057
20
208.49931596640786
10
-242.95132147363574
20
208.64501884100761
10
-242.82895034898411
20
208.77819831008958
10
-242.69786867572287
20
208.92231874650307
10
-242.42854094128091
20
209.23582216160645
10
-242.38001207043223
20
209.29597194290358
10
-242.20088318362821
20
209.51923057158604
10
-242.11853998127833
20
209.62732054282066
10
-241.98027712335056
20
209.81102089020538
10
-241.89307672305847
20
209.93238785428946
10
-241.76796519906989
20
210.10979819109826
10
-241.68108889498745
20
210.23816399191469
10
-241.56417187588357
20
210.41536428291349
10
-241.48024150317585
20
210.54716516132146
10
-241.36924962720101
20
210.72723252541368
10
-241.28875165362874
20
210.86182808906347
10
-241.18210562148158
20
211.04751435579175
10
-241.10777567276617
20
211.18009647122378
10
-241.00238347771989
20
211.3774852490929
10
-240.93621554878303
20
211.50367187516522
10
-240.85088627201927
20
211.67612320154313
10
-240.765528151041
20
211.85135102309914
10
-240.6264463326568
20
212.15579002468135
10
-240.61819614400758
20
212.17470819890767
10
-240.47929943177226
20
212.50551638625026
10
-240.46044726148224
20
212.55353238366894
10
-240.3648366406008
20
212.80250536391009
10
-240.29864478715868
20
212.98500919586786
10
-240.23615617005754
20
213.16415110959835
10
-240.17577741953369
20
213.34829500800907
10
-240.11890669679769
20
213.52909706493048
10
-240.0641308969727
20
213.71552182130046
10
-240.0128869388065
20
213.8980064106234
10
-239.96425963439918
20
214.08479046665761
10
-239.91829399605038
20
214.27041103420606
10
-239.87577092972566
20
214.45740862524525
10
-239.83564400624161
20
214.64395769897584
10
-239.7987628406558
20
214.83301680286445
10
-239.76451432521699
20
215.02023854342946
10
-239.73345070197098
20
215.21074543206896
10
-239.70509033808213
20
215.3984696619529
10
-239.68020022868296
20
215.58769073683567
10
-239.65738180782725
20
215.77854659480067
10
-239.63839068315383
20
215.96817226071317
10
-239.62140904278294
20
216.16052180988879
10
-239.60909148239634
20
216.33731475838644
10
-239.59779071426806
20
216.53524119247919
10
-239.59075217665293
20
216.71125503905103
10
-239.58553324725972
20
216.91088779484937
10
-239.58372064038787
20
217.08640475547199
10
-239.58467629881841
20
217.28618714132907
10
-239.58806144957174
20
217.4615352130331
10
-239.59524870333681
20
217.66230784362614
10
-239.60376255099447
20
217.83600481209771
10
-239.61719937329008
20
218.03710523546818
10
-239.63090970386116
20
218.21103264652621
10
-239.65040668643843
20
218.41007825347674
10
-239.66935279966117
20
218.58442537821347
10
-239.69525018221282
20
218.78464347971217
10
-239.71892633645291
20
218.95529284582119
10
-239.75174589983629
20
219.15921358544509
10
-239.77976502593879
20
219.32490234908229
10
-239.81929326059645
20
219.52989265336691
10
-239.85204214310636
20
219.69377618236919
10
-239.89855590993031
20
219.90030595686659
10
-239.93519628000962
20
220.059046991152
10
-239.98941741899097
20
220.26933108912914
10
-240.02958180536069
20
220.42250028936968
10
-240.09462522726253
20
220.64578938550838
10
-240.13464746930453
20
220.78181189626932
10
-240.23835929992285
20
221.10084550077914
10
-240.25868734945635
20
221.1605574652794
10
-240.3292819871638
20
221.35684943088958
10
-240.39508885359135
20
221.5357387861134
10
-240.46604958254136
20
221.71534655426262
10
-240.53663789936894
20
221.89033515217062
10
-240.61397901996708
20
222.06964317978446
10
-240.68867554303722
20
222.23956614204127
10
-240.77225952943408
20
222.41799024220967
10
-240.85176079856927
20
222.58472136094639
10
-240.94020034821057
20
222.75920756780187
10
-241.02501749469045
20
222.92389481498162
10
-241.1895551711591
20
223.22506416760751
10
-241.19084942157744
20
223.22731797693473
10
-241.37911826667056
20
223.54791038401743
10
-241.3956380342172
20
223.5746831096655
10
-241.54184830428338
20
223.80689942094705
10
-241.62193737415581
20
223.93054210452561
10
-241.74029980659984
20
224.1062149839955
10
-241.83166523183783
20
224.23897174165461
10
-241.95735478562329
20
224.41359922993882
10
-242.04912334109179
20
224.53902401958288
10
-242.18466483887227
20
224.71555233477363
10
-242.27562373249134
20
224.83263438457979
10
-242.42927065599372
20
225.02041633747149
10
-242.51019712391485
20
225.11862264793069
10
-242.73372349394799
20
225.37517612421567
10
-242.75313602297234
20
225.39739673009029
10
-243.00495016803268
20
225.66900424761405
10
-243.08963788604004
20
225.75534254597778
10
-243.2641094473563
20
225.93220319604029
10
-243.37065663381284
20
226.03476094807951
10
-243.53260116083263
20
226.1890437153136
10
-243.64744074793686
20
226.29336595936567
10
-243.80711861148006
20
226.43636042338693
10
-243.93000005153851
20
226.54170284233714
10
-244.09056637747358
20
226.67675208483422
10
-244.21701380300152
20
226.77897089735623
10
-244.40523925890287
20
226.92760453487716
10
-244.45916450136974
20
226.96910135048876
10
-244.71786829071263
20
227.16069101194159
10
-244.87870066193878
20
227.27351110584263
10
-245.03313508700515
20
227.38063614635115
10
-245.19636956281073
20
227.4877082893255
10
-245.35450422852492
20
227.59030116513674
10
-245.52175763477308
20
227.6927173815485
10
-245.68203576772478
20
227.78979552137699
10
-245.85235976764255
20
227.88694980570622
10
-246.01586916824652
20
227.97919043495997
10
-246.18921395584411
20
228.07104169724798
10
-246.35481577452339
20
228.15782055306468
10
-246.53041737562501
20
228.24400049800761
10
-246.69973612596897
20
228.32614458840709
10
-246.87371250241677
20
228.40493639348011
10
-247.04913081975513
20
228.4834358151785
10
-247.22451931313486
20
228.55640359618138
10
-247.41835689078667
20
228.63603727270984
10
-247.43962410236202
20
228.64436465253016
10
-247.77879801354021
20
228.7716045088311
10
-247.80512166558913
20
228.7808297517503
10
-248.14892696402666
20
228.897786885774
10
-248.35977481864091
20
228.97111490396244
10
-248.37952541373369
20
228.97853449014411
10
-248.5671131517708
20
229.05379846719487
10
-248.60587047598955
20
229.07044962075935
10
-248.76733707450029
20
229.14411142495857
10
-248.82745670340654
20
229.1733129325269
10
-248.96366046927568
20
229.24325540689216
10
-249.04376911185381
20
229.28687647012455
10
-249.15561603568193
20
229.35103967813237
10
-249.25424503348466
20
229.41087320474369
10
-249.34277462027666
20
229.46726396707282
10
-249.45843624137041
20
229.5449979606031
10
-249.52469753287431
20
229.59167078164802
10
-249.65582775138017
20
229.68894556192146
10
-249.72019123099443
20
229.73916605142341
10
-249.84598087332841
20
229.84235361245857
10
-249.90823673270341
20
229.89603593972907
10
-250.02839015982744
20
230.00486925271736
10
-250.08591579459306
20
230.05956247476325
10
-250.20264553092119
20
230.1761014762281
10
-250.25546955130693
20
230.23147180703864
10
-250.36831783316728
20
230.35564020303474
10
-250.41653560660478
20
230.41137293008549
10
-250.52502559683916
20
230.54305627969487
10
-250.56873249076006
20
230.5988271537183
10
-250.67239688895341
20
230.73791101602302
10
-250.71170734427568
20
230.79342439798103
10
-250.81005977652666
20
230.93972757486091
10
-250.84512638114091
20
230.99469736245857
10
-250.9377186205208
20
231.1480195823072
10
-250.96866535208818
20
231.20216920999275
10
-251.05505870841142
20
231.36230066446052
10
-251.08203815482256
20
231.41537264016853
10
-251.16177486441728
20
231.58206537393318
10
-251.18500637076494
20
231.63378313211189
10
-251.25763820670244
20
231.80677011636479
10
-251.27728389762041
20
231.85693338540776
10
-251.34241031668779
20
232.03589990762455
10
-251.35868000052568
20
232.08425119546638
10
-251.41587184928056
20
232.26889207986579
10
-251.42902301810381
20
232.31525972512947
10
-251.4778797533333
20
232.5052030387281
10
-251.48810314200517
20
232.54938676980717
10
-251.52826236746904
20
232.74424150613532
10
-251.53583454154131
20
232.78608873513923
10
-251.56693386099931
20
232.98547342447029
10
-251.57208370230791
20
233.02482202676521
10
-251.59375118277666
20
233.22829797891362
10
-251.59677433035966
20
233.26502397683845
10
-251.60867618582841
20
233.47215250161869
10
-251.60981105826494
20
233.50614145425541
10
-251.61167072318193
20
233.71642664102302
10
-251.61121295951006
20
233.74761179116948
10
-251.60275386832353
20
233.96056726602302
10
-251.60092281363603
20
233.9888532462476
10
-251.58191608451006
20
234.20398309854252
10
-251.57904552481767
20
234.22933176187263
10
-251.54919551871416
20
234.44608286050541
10
-251.54557155631181
20
234.46847513345466
10
-251.50470661185381
20
234.68630388406501
10
-251.50055812857744
20
234.70571115640388
10
-251.44852565787431
20
234.92405489114509
10
-251.44415782950517
20
234.9405057731031
10
-251.38077663443681
20
235.15878275064216
10
-251.37650417349931
20
235.17229631570564
10
-251.30166934989091
20
235.38992479470954
10
-251.29773067496416
20
235.40055826333747
10
-251.21136592887041
20
235.61692789224372
10
-251.20800899527666
20
235.62474802163825
10
-251.11008571646806
20
235.83924844888435
10
-251.10760616324541
20
235.84434106973396
10
-250.99804805777666
20
236.05634287027107
10
-250.99667476676103
20
236.05883196023689
10
-250.87555812857744
20
236.26771524575932
10
-243.42542542388358
20
236.55953583198706
10
-241.60987564693318
20
236.63177825710136
10
-231.42548488638991
20
237.04309061197029
10
-224.68350338004225
20
237.31375291970954
10
-222.22752975485918
20
237.41147592691169
10
-221.4519255068123
20
237.44221285012947
10
-221.12303661368486
20
237.45523050454841
10
-218.97774147055742
20
237.53985002664314
10
-218.13867496512529
20
237.57280901101814
10
-217.1187488939583
20
237.61275842813237
10
-215.78444408438799
20
237.66481950906501
10
-214.48705123923418
20
237.71520212320075
10
-213.50030826590654
20
237.753349095857
10
-212.47186588309404
20
237.79296472696052
10
-212.38092350028154
20
237.79645517495857
10
-210.40011810324785
20
237.87220552591069
10
-208.01085399649736
20
237.96262338784916
10
-204.71576141379472
20
238.08538034585698
10
-200.8761780168831
20
238.22528436807377
10
-198.20147918723222
20
238.3205373587964
10
-196.91673683188554
20
238.36556986001713
10
-195.70074962638017
20
238.40774133828862
10
-193.01509307883379
20
238.4992177787183
10
-192.36398624442216
20
238.52101877359135
10
-189.95435165427324
20
238.60041216043217
10
-187.11188243888017
20
238.69117334512455
10
-186.89409183524248
20
238.69798257974369
10
-183.75024723075029
20
238.79407480386479
10
-182.31644081137773
20
238.83638933328373
10
-180.88150428794023
20
238.87775972512944
10
-178.01315711997148
20
238.95730569986088
10
-177.83014225028154
20
238.96222665933354
10
-175.42766260169145
20
239.02520731118901
10
-173.59083818457714
20
239.07116487649662
10
-172.70126747153395
20
239.09268930581791
10
-169.59364580176469
20
239.16406229165776
10
-169.54425500891801
20
239.1651399436353
10
-166.71376394293901
20
239.2244489493726
10
-165.72955774329301
20
239.24375131753666
10
-163.83407997153398
20
239.27897051004155
10
-162.04451369307634
20
239.30981233743412
10
-159.9784581568062
20
239.34241846231205
10
-158.44487356207958
20
239.36449602273686
10
-156.12335490248793
20
239.39440324929936
10
-154.92692874930495
20
239.40812662271244
10
-153.71185587905043
20
239.42085817483644
10
-151.48230301402208
20
239.44100931314213
10
-151.31824063323137
20
239.44233492044194
10
-148.35779117606276
20
239.46210458902104
10
-148.10917960665816
20
239.46342065957768
10
-145.3977538850128
20
239.47415903238041
10
-144.79019480012056
20
239.47564676431401
10
-142.14703677408093
20
239.47812631753666
10
-141.20233463309401
20
239.47745874551518
10
-138.80618589184874
20
239.47209909585698
10
-137.5797607209503
20
239.4673688712476
10
-135.46492325327986
20
239.45606783059819
10
-133.9000122453987
20
239.44519594339116
10
-132.63788150809401
20
239.4348867240308
10
-130.16199039481276
20
239.41075876382573
10
-129.78229092620009
20
239.40661028054936
10
-129.28317593596572
20
239.40096452859623
10
-128.17241238616103
20
239.38767984536869
10
-126.3602321054756
20
239.36385706094487
10
-125.88862942717661
20
239.35721948770268
10
-124.08848809264296
20
239.33024957803471
10
-122.4911682512581
20
239.30421426919682
10
-122.29283498786086
20
239.30083826211674
10
-119.4322388078987
20
239.24906328347905
10
-118.4945862200081
20
239.23082903054936
10
-117.0612351801216
20
239.20178964761479
10
-115.74852155707472
20
239.17398050454838
10
-115.23599552176589
20
239.1628034415601
10
-114.3190328981697
20
239.14240434793217
10
-112.54274295828932
20
239.10136774209721
10
-109.9801819231331
20
239.0387685599683
10
-109.79532169364091
20
239.03409555581791
10
-106.46005558035966
20
238.94658640054448
10
-105.43716596625444
20
238.91851976541264
10
-103.12425540946123
20
238.85306909707768
10
-100.65605567954182
20
238.78029420999272
10
-98.119525184851852
20
238.70256021646244
10
-95.572532882910906
20
238.62169817117436
10
-93.113574257117477
20
238.54116037515385
10
-90.097636451941696
20
238.43935564187748
10
-88.598841896277605
20
238.38761881021244
10
-84.078182449561325
20
238.227506429231
10
-83.562974205237595
20
238.20890024331791
10
-78.084110489112106
20
238.00732210305912
10
-77.207688560706316
20
237.97449663308842
10
-75.695041885596481
20
237.91750505593998
10
-72.701043358069597
20
237.80351236489994
10
-70.311187973242966
20
237.71143510965092
10
-69.242905845862595
20
237.67000749734623
10
-68.57113288901445
20
237.64386728433354
10
-66.637553444129196
20
237.56826952127199
10
-63.331445923072067
20
237.43794038919191
10
-61.006135215979747
20
237.34554842141847
10
-60.128621330481735
20
237.3105390372632
10
-51.75688671134111
20
236.97373941568117
10
-49.252032509070602
20
236.87228754190187
10
-48.512105217200485
20
236.84228494790773
10
-41.269902458411423
20
236.55080392984132
10
-41.255444473378589
20
236.55023895186841
10
-34.02556346915361
20
236.26771524575929
10
-34.009656181555954
20
236.2415750327466
10
-33.993911018592087
20
236.21533945230226
10
-33.978327980262009
20
236.18900850442628
10
-33.907698860388962
20
236.06480196145753
10
-33.903064003211192
20
236.05634287027101
10
-33.840655555945602
20
235.93862131265382
10
-33.791035881262985
20
235.83924844888429
10
-33.734196892005173
20
235.71805551675538
10
-33.689746132117477
20
235.61692789224367
10
-33.638705482703415
20
235.49260690835695
10
-33.59944271109697
20
235.38991525796632
10
-33.554410209876266
20
235.26290491250734
10
-33.520335426551036
20
235.1587827506421
10
-33.481520881873337
20
235.02957895425538
10
-33.452605476599899
20
234.92405489114503
10
-33.420190086585251
20
234.79328706887941
10
-33.396424522620407
20
234.68630388406496
10
-33.370541801673141
20
234.55464914468507
10
-33.351926079016891
20
234.44608286050538
10
-33.332623710852829
20
234.31433275369386
10
-33.319215049964157
20
234.20398309854249
10
-33.306502571326462
20
234.07297685769777
10
-33.298367729407516
20
233.96056726602296
10
-33.292168846350876
20
233.83185938028078
10
-33.28943180106279
20
233.71642664102296
10
-33.289489021521774
20
233.59033182290773
10
-33.292435875159434
20
233.47215250161867
10
-33.298129310828415
20
233.35484102395753
10
-33.307370414954391
20
233.22829797891359
10
-33.317851295691696
20
233.11999872354249
10
-33.334197273474899
20
232.98547342447023
10
-33.348616829138962
20
232.88635805276613
10
-33.372849693518845
20
232.7442415061353
10
-33.390349617224899
20
232.65441492227296
10
-33.423232307654587
20
232.50520303872804
10
-33.44298290274736
20
232.42471292642335
10
-33.485249748450485
20
232.26889207986574
10
-33.50636409781572
20
232.19773843911867
10
-33.558720817786423
20
232.03589990762453
10
-33.580378761512009
20
231.97399690774662
10
-33.643492927771774
20
231.80677011636476
10
-33.66484569571611
20
231.75399377969484
10
-33.739346733313766
20
231.58206537393312
10
-33.759593239051036
20
231.53821542886476
10
-33.84607242606279
20
231.36230066446046
10
-33.864392509680954
20
231.32714822915773
10
-33.963393440467087
20
231.14801958230714
10
-33.979033699256149
20
231.12124040750246
10
-34.091052284461192
20
230.93972757486085
10
-34.103240242224899
20
230.92096880105717
10
-34.182814827185837
20
230.80289438394288
10
-34.228734245520798
20
230.73791101602296
10
-34.265708198767868
20
230.68712785867433
10
-34.376096000891891
20
230.54305627969484
10
-34.406451454383102
20
230.50529077676515
10
-34.53281330130693
20
230.35564973977785
10
-34.55494808219072
20
230.33062532571535
10
-34.698495140296153
20
230.17610147622804
10
-34.710854759436813
20
230.16339853433351
10
-34.872740974646774
20
230.00486925271733
10
-34.873828163367477
20
230.00386789468507
10
-35.043515434485641
20
229.852262288606
10
-35.055150261145798
20
229.84235361245851
10
-35.219592323523727
20
229.70879152444581
10
-35.245284309607712
20
229.6889455619214
10
-35.401715507727829
20
229.57366541055421
10
-35.442675819617477
20
229.54499796060304
10
-35.589551201087204
20
229.44709375528078
10
-35.646867027503184
20
229.41087320474367
10
-35.782670250159434
20
229.32929590371828
10
-35.857362022620407
20
229.28687647012453
10
-35.980929603797165
20
229.22036722329835
10
-36.073674431067673
20
229.17332246927003
10
-36.16850780509111
20
229.12767961648683
10
-36.295260658484629
20
229.07044962075929
10
-36.35980533621904
20
229.04292657998781
10
-36.521615257483688
20
228.97854402688722
10
-36.554478874427048
20
228.96625116494874
10
-36.752185096961192
20
228.8977964225171
10
-37.112600986329305
20
228.77518236978824
10
-37.225119990315179
20
228.73304301844354
10
-37.468946906656591
20
228.64157710746002
10
-37.605622224622621
20
228.58557258178936
10
-37.821051791317402
20
228.49706937179167
10
-37.970957447121521
20
228.43020971150625
10
-38.168104332365402
20
228.34198919773442
10
-38.322147257310029
20
228.2675638674238
10
-38.511042929161619
20
228.17591183180832
10
-38.663005705302389
20
228.09666653819778
10
-38.848147748667827
20
227.99965364884926
10
-39.00184736670937
20
227.91342335182392
10
-39.179728918980885
20
227.81307782469653
10
-39.331892875706842
20
227.72148307388284
10
-39.505704115339739
20
227.61621012395489
10
-39.654792269803174
20
227.52013238264624
10
-39.825324880082675
20
227.40949103982629
10
-39.971680406850254
20
227.30870895686041
10
-40.138498818098043
20
227.19298661881919
10
-40.282984683345866
20
227.08683115562226
10
-40.444456738974708
20
226.96725633806199
10
-40.58731788048771
20
226.85541239607969
10
-40.743718020112283
20
226.73191377779631
10
-40.883412759907429
20
226.61548315838118
10
-41.035358627320662
20
226.48767688249632
10
-41.172783293807242
20
226.36582256684176
10
-41.319338309899258
20
226.23459302094739
10
-41.45319710728316
20
226.10838621274311
10
-41.595714001819459
20
225.97259301615622
10
-41.725600630573432
20
225.8423957869266
10
-41.863595090175636
20
225.70251669210109
10
-41.990177229176595
20
225.56762506471506
10
-42.123077688794837
20
225.42429884355352
10
-42.245922560563614
20
225.2850874479895
10
-42.373972364087109
20
225.13811209038971
10
-42.492685322054449
20
224.99498249347215
10
-42.615903314088115
20
224.84438487994947
10
-42.73007345090349
20
224.69784288981373
10
-42.848784760598129
20
224.54323409591939
10
-42.958498832369685
20
224.39315281868738
10
-43.072201960843692
20
224.2351720005982
10
-43.177068592857708
20
224.08211404861839
10
-43.286204587080803
20
223.92013264253234
10
-43.386266842011914
20
223.76404767625792
10
-43.490119834456706
20
223.59912011213879
10
-43.585600194271414
20
223.43965352758346
10
-43.684344153046233
20
223.27150314654085
10
-43.774676797289693
20
223.10958861181552
10
-43.868197163707379
20
222.93841888530491
10
-43.953720361543418
20
222.7734615502159
10
-44.041754092866476
20
222.59976157687248
10
-44.122403780351291
20
222.43181692689021
10
-44.204742944675566
20
222.25606591715049
10
-44.280287717915598
20
222.08558723493024
10
-44.357271832226459
20
221.90708443641063
10
-44.427243002727437
20
221.73517880061974
10
-44.498954728870785
20
221.55365788601046
10
-44.563665268929178
20
221.3795985166868
10
-44.62952021087645
20
221.1965173185896
10
-44.689162750030142
20
221.01971105642485
10
-44.749091267598082
20
220.83537653808463
10
-44.803430142371603
20
220.65640007939453
10
-44.857480091323083
20
220.47081285713483
10
-44.90634677714656
20
220.29016792355782
10
-44.954806002085377
20
220.102267568917
10
-44.997840636077484
20
219.92138806231068
10
-45.040617455898335
20
219.73140794316106
10
-45.078087640652456
20
219.54936974626079
10
-45.114914400522537
20
219.35843932179867
10
-45.146989441476393
20
219.17420111624975
10
-45.177715146037407
20
218.98326040023136
10
-45.204093109658459
20
218.79853939678512
10
-45.229019622884437
20
218.60582728987072
10
-45.249710322542427
20
218.42055553772104
10
-45.268629137459406
20
218.22746181817553
10
-45.283668227219742
20
218.04133484249303
10
-45.296580581778159
20
217.84808379613199
10
-45.305938561821755
20
217.66120248196401
10
-45.312855763552555
20
217.46783897657821
10
-45.316491373408248
20
217.28105245623283
10
-45.317424405162114
20
217.0870060232424
10
-45.315346771740366
20
216.90054547443282
10
-45.310279511755596
20
216.70671915709386
10
-45.302461360973076
20
216.51959341771331
10
-45.291464977989087
20
216.32716631932058
10
-45.277896042334298
20
216.13983830918363
10
-45.26399641009025
20
215.98239839540284
10
-45.209815768163857
20
215.49647054104895
10
-45.193620035324074
20
215.38245339486167
10
-45.158632576548179
20
215.15090724447018
10
-45.135978734854163
20
215.01678180121175
10
-45.095289366293905
20
214.79428911078074
10
-45.069078869665589
20
214.66060479505052
10
-45.019619184416015
20
214.43064069924932
10
-44.992550867334984
20
214.3095702450735
10
-44.921377832079905
20
214.02224534334579
10
-44.906469425513578
20
213.96294214180969
10
-44.81181605283183
20
213.62587251526278
10
-44.63316307239289
20
213.07294601261327
10
-44.588345899154156
20
212.94448051074153
10
-44.522629356427998
20
212.76692415684792
10
-44.453523824130805
20
212.58695102641229
10
-44.382296826109382
20
212.41134086042081
10
-44.307914443549841
20
212.23419687096481
10
-44.231026829460376
20
212.06022336218047
10
-44.15124610526
20
211.88558494017946
10
-44.069193520931265
20
211.71440627287302
10
-43.983931268224126
20
211.54208561304216
10
-43.89660365191034
20
211.3734482249634
10
-43.806214143736852
20
211.20415376818437
10
-43.713445909019697
20
211.03778025382368
10
-43.618143285430584
20
210.87185634586277
10
-43.520188729060152
20
210.70824982258506
10
-43.419601758900797
20
210.54504674707033
10
-43.317147837547765
20
210.38530984967741
10
-43.211189003352324
20
210.22472759964495
10
-43.103938894595721
20
210.06834351999416
10
-43.00577201514173
20
209.92914752741171
10
-42.747031705406755
20
209.58062661523326
10
-42.677772753775685
20
209.49120108650959
10
-42.533061350955705
20
209.31082746601879
10
-42.451760748482741
20
209.21138768733493
10
-42.277666545585504
20
209.00764238740723
10
-42.218836289865429
20
208.93944154512758
10
-41.978081895529975
20
208.6747347271554
10
-41.920717316811249
20
208.61494915855621
10
-41.729211518101046
20
208.41704885553264
10
-41.637822931628179
20
208.32672972978622
10
-41.471787116309002
20
208.16545130507029
10
-41.369484243744736
20
208.06959535951393
10
-41.205288946946119
20
207.91969874570967
10
-41.099373367102814
20
207.82563270147918
10
-40.927082906902967
20
207.67785660583661
10
-40.824444125971375
20
207.59149444676908
10
-40.627020289945612
20
207.43249822389078
10
-40.543677753635983
20
207.3661036477389
10
-40.256690405876583
20
207.14926806579271
10
-40.214053000305903
20
207.11889575324653
10
-39.962852272776956
20
206.94103698848966
10
-39.859972877128733
20
206.87185384498838
10
-39.662111385802596
20
206.74076121978428
10
-39.543374834353813
20
206.66549473546814
10
-39.35473232004739
20
206.54874551267983
10
-39.228738834848826
20
206.47358635225586
10
-39.039082978352582
20
206.36417748451123
10
-38.912528900498842
20
206.2932665085485
10
-38.643414281455222
20
206.14892923004527
10
-38.60900664469245
20
206.13117599905257
10
-38.322709578649174
20
205.98885187541066
10
-38.238636710364418
20
205.94878673158928
10
-37.974266262664287
20
205.82741794714798
10
-37.924412626331616
20
205.80496709582278
10
-37.588455024121821
20
205.66315719339735
10
-37.531563253166311
20
205.64101298086044
10
-37.250398170027488
20
205.53244774238897
10
-37.127535368277016
20
205.48848236393681
10
-36.907513324907981
20
205.41125708411988
10
-36.767948448705141
20
205.36562301541136
10
-36.559889586865388
20
205.29976326253959
10
-36.414473443917217
20
205.25662629957372
10
-36.208160357344958
20
205.19827490775219
10
-36.060753933431187
20
205.15894524806154
10
-35.851452322674398
20
205.10668971289846
10
-35.705698905144843
20
205.07209020195319
10
-35.487943009743894
20
205.02483028364452
10
-35.34919675886016
20
204.99591707210055
10
-35.108989804431552
20
204.95151499610586
10
-34.990983202772163
20
204.93030859433375
10
-34.631652107459274
20
204.87533167031989
10
-34.450549727055346
20
204.84706237862304
10
-34.39029621146318
20
204.83614042428712
42
-0.35932104473646614
10
-30.311278572303024
20
199.93722036508302
10
-30.297414832086105
20
196.79912990888562
10
-30.293076838064934
20
195.94886057494335
10
-30.268543698390182
20
192.54470067720703
10
-30.260616192344436
20
191.71153963122845
10
-30.234438420278238
20
189.11910697991343
10
-30.228968089197998
20
188.64337538282058
10
-30.188280937713188
20
185.55310273222437
10
-30.171677215225614
20
184.45513410042054
10
-30.121765524132691
20
181.39623342282889
10
-30.120382183882839
20
181.31936641513158
10
-30.054570754538901
20
177.9365700124863
10
-30.032615301707608
20
176.91052339280373
10
-29.972533618172079
20
174.24790378137862
10
-29.953133170746291
20
173.42699282055611
10
-29.868222921376599
20
170.11666934631108
10
-29.850408209249828
20
169.46613622051188
10
-29.780525742866146
20
167.02881457050211
10
-29.73342312578346
20
165.43663023873643
10
-29.627270864558888
20
162.06245881608905
10
-29.598824161232429
20
161.2035746523479
10
-29.467366624672877
20
157.34087975789566
10
-29.45831379845739
20
157.08679572755219
10
-29.289333098064105
20
152.43733484244117
10
-29.277343067516739
20
152.11914468376094
10
-29.074233811523591
20
146.82103910668906
10
-29.062946878967395
20
146.53591565770938
10
-28.825225999101001
20
140.58358078096563
10
-28.789245607137559
20
139.69263179408475
10
-28.315963020545212
20
128.17823186544163
10
-28.274316063147751
20
127.16895446208699
10
-28.139199485999313
20
123.88672783998234
10
-28.032140007239548
20
121.27126470235569
10
-27.909363975745407
20
118.24694231179936
10
-27.877730598670212
20
117.46216729310734
10
-27.666167488318649
20
112.13379815248234
10
-27.612170448523727
20
110.74625566629155
10
-27.590712776404587
20
110.19118621972777
10
-27.572736015540329
20
109.72466304925661
10
-27.421445121985641
20
105.72624996331911
10
-27.386035194617477
20
104.76946428445558
10
-27.283848991614548
20
101.95607975152714
10
-27.205075493079391
20
99.725533277070326
10
-27.202576866370407
20
99.653542787110609
10
-27.115039100867477
20
97.096200734650893
10
-27.109479179602829
20
96.930931359803481
10
-27.035712471228805
20
94.699228555238051
10
-27.030514946204391
20
94.539240151917738
10
-27.028350105506149
20
94.443505555665297
10
-27.028035392981735
20
94.347742349183363
10
-27.029561271887985
20
94.251993447816176
10
-27.034415474158493
20
93.119500428712172
10
-27.034625282508102
20
93.09649065164308
10
-27.048997154456309
20
91.996086389100356
10
-27.049798240882126
20
91.950433999574017
10
-27.073067894202438
20
90.890541821992173
10
-27.075108757239548
20
90.813818723237318
10
-27.106551399451462
20
89.798212796723618
10
-27.106887224799863
20
89.789742955115273
10
-27.107171287757126
20
89.780588895356431
10
-27.148045768958298
20
88.748422414338364
10
-27.14934276602861
20
88.718972951447739
10
-27.200631370764903
20
87.665644437348618
10
-27.201327553015915
20
87.652641088044447
10
-27.262410392981735
20
86.59908369210936
10
-27.263325920325485
20
86.584482938325181
10
-27.332457771521774
20
85.558176785981459
10
-27.334059944373337
20
85.535989553010268
10
-27.411412468177048
20
84.529763013398423
10
-27.414149513465134
20
84.496207982575697
10
-27.499131431800095
20
83.513694554841322
10
-27.503575554114548
20
83.465142995393052
10
-27.57654117606279
20
82.699867040192885
10
-27.595538368445602
20
82.509818822419447
10
-27.618674507361618
20
82.283135205781235
10
-27.672528496009079
20
81.773749143159193
10
-27.700528373938766
20
81.518030911958022
10
-27.708383219064636
20
81.450216953693371
10
-27.728928795081345
20
81.264825612580552
10
-27.792046609109526
20
80.727918098677094
10
-27.814025154334274
20
80.538168698823227
10
-27.824534645301036
20
80.451560765778822
10
-27.892302742224899
20
79.907584935700669
10
-27.935923805457321
20
79.570093900239272
10
-27.962855568152634
20
79.366188794648423
10
-28.066128959876266
20
78.613673001801743
10
-28.109406700354747
20
78.310876637971177
10
-28.204554786902634
20
77.668753415620102
10
-28.265399208289352
20
77.273536473786635
10
-28.35112499259111
20
76.735239774262709
10
-28.431910743933884
20
76.246009618317885
10
-28.505744209510055
20
75.81295087960936
10
-28.536945201194435
20
75.638110953040155
10
-28.573712578040329
20
75.425315648591322
10
-28.62764126185585
20
75.12988054977086
10
-28.668345680457321
20
74.901786595856947
10
-28.723048439246384
20
74.607215673005385
10
-28.77552039213839
20
74.335904477888093
10
-28.838834038001266
20
74.001608640229506
10
-28.908786049109665
20
73.646841794526381
10
-28.959013022246154
20
73.40227227313477
10
-29.017161598426071
20
73.112283498322739
10
-29.103659858924118
20
72.697945386445298
10
-29.203213920813766
20
72.233682424104018
10
-29.306029548865524
20
71.767526418244614
10
-29.39696239493486
20
71.365671903168931
10
-29.518918266516891
20
70.841131955659193
10
-29.598311653357712
20
70.508127957856431
10
-29.635218849402634
20
70.355430394685072
10
-29.786652794104747
20
69.742456227814927
10
-29.807194938880173
20
69.660926610505385
10
-29.942893257361618
20
69.131446630036635
10
-30.023564567786423
20
68.823939115082993
10
-30.161303749304977
20
68.310557157075181
10
-30.247334709387985
20
67.997065335786147
10
-30.387601127845016
20
67.497034818208022
10
-30.478467216712204
20
67.180152684724135
10
-30.621814003211192
20
66.690865308320298
10
-30.716904869300095
20
66.373086720979018
10
-30.757605839635147
20
66.240995395919498
10
-30.816487541419235
20
66.045923978364272
10
-30.912093872739028
20
65.739618430442306
10
-30.962580909949509
20
65.575767308747572
10
-31.017169227820602
20
65.402975827729506
10
-31.215447654944626
20
64.788046628510756
10
-31.277112236243454
20
64.600668698823227
10
-31.47546695731279
20
64.009848386323256
10
-31.544684639197555
20
63.807731420075697
10
-31.742581596595016
20
63.241019994294447
10
-31.819781532508102
20
63.024225980317361
10
-32.016743889075485
20
62.481485158479018
10
-32.059783971810383
20
62.366622558085822
10
-32.100495567542282
20
62.25507333902101
10
-32.195289551389692
20
62.004993995841886
10
-32.297925224524704
20
61.73108652261476
10
-32.390460243445602
20
61.490107327973647
10
-32.586087455970016
20
60.989752561127943
10
-32.62379573844072
20
60.894709378754897
10
-32.862090339881149
20
60.303965360200209
10
-32.881182899695602
20
60.257364064729018
10
-33.183192482215134
20
59.533806592500014
10
-33.195943107825485
20
59.503823071992201
10
-33.49206851981279
20
58.818980008637709
10
-33.53906559012529
20
58.712349683320326
10
-33.807801475745407
20
58.112784177338881
10
-33.843831291419235
20
58.033686429536147
10
-34.009834350650578
20
57.675789971999194
10
-34.130353203040329
20
57.415109426057143
10
-34.157456627112595
20
57.357521802460951
10
-34.331817485359615
20
56.993505047779287
10
-34.459714164954391
20
56.725855618989307
10
-34.480075111609665
20
56.683984548127455
10
-34.735926857215134
20
56.16472795633058
10
-34.795855751258102
20
56.044932157075209
10
-34.996422996741465
20
55.648871213471693
10
-35.138768425208298
20
55.372229367768568
10
-35.379742851477829
20
54.91198137429933
10
-35.488423576575485
20
54.707666188752455
10
-35.772790184241465
20
54.182215482270557
10
-35.844830742102829
20
54.051142484223647
10
-35.996412951921144
20
53.780426983501286
10
-36.139058342200485
20
53.524132520234424
10
-36.207980385047165
20
53.40258196023683
10
-36.368906533118377
20
53.12380872629376
10
-36.514806022864548
20
52.86969736245851
10
-36.546114586754435
20
52.816830259556049
10
-36.577843895179001
20
52.761865407502455
10
-36.900128593665329
20
52.219048291718764
10
-36.954440345984629
20
52.128930837189955
10
-37.216204872351852
20
51.69995859292726
10
-37.337769737464157
20
51.503687650239307
10
-37.537678947669235
20
51.184850484406752
10
-37.727822532874313
20
50.886035710847146
10
-37.974395027381149
20
50.504813939606947
10
-38.124617805701462
20
50.275932103669447
10
-38.419446220618454
20
49.833884984528822
10
-38.528155555945602
20
49.673257619416482
10
-38.872861137610641
20
49.171977788483865
10
-38.938445320349899
20
49.077945500886209
10
-39.33465885184404
20
48.518958837067885
10
-39.355525245887009
20
48.489948064362807
10
-39.779385795813766
20
47.9091604056714
10
-39.804848900061813
20
47.874780446564955
10
-40.210055580359665
20
47.335515767609877
10
-40.283478965979747
20
47.239309102570815
10
-40.647553673011032
20
46.768956929719252
10
-40.770568123084274
20
46.612497121369643
10
-41.09190868399736
20
46.209436208283705
10
-41.265134086829391
20
45.995488912141127
10
-41.543158760291305
20
45.656839162385268
10
-41.769265403968028
20
45.38566187051515
10
-42.00133251212236
20
45.111156255280775
10
-42.012151778012878
20
45.098621515376323
10
-42.033299675208298
20
45.07362917093019
10
-42.29974674246904
20
44.763723165070815
10
-42.388889473112457
20
44.662149293689133
10
-42.466449012976852
20
44.572292119538588
10
-42.731065025550095
20
44.272256642854018
10
-42.938555946570602
20
44.040218144929213
10
-43.074855079871384
20
43.88928964761476
10
-43.417691459876266
20
43.514858037507338
10
-43.422726860266891
20
43.509403020417494
10
-43.691691627722946
20
43.220802098786635
10
-43.903903236609665
20
42.996164113557143
10
-43.96305011771318
20
42.934013158356947
10
-44.236430397254196
20
42.649465352570815
10
-44.452466240149704
20
42.427621633088393
10
-44.512213936072555
20
42.36671999124269
10
-45.009898414832321
20
41.867175847565932
10
-45.070294609290329
20
41.8074758353589
10
-45.576237907630173
20
41.314798146760268
10
-45.637349357825485
20
41.256175786530775
10
-46.151561012488571
20
40.770412236726088
10
-46.213464012366465
20
40.712819844758315
10
-46.735944023352829
20
40.233970433747572
10
-46.74254344962236
20
40.228019506013197
10
-47.277592888098923
20
39.751010686433119
10
-47.329491844397751
20
39.705434590852065
10
-47.522954732600091
20
39.538319753304556
10
-47.84483837149736
20
39.259296208894057
10
-47.890467015451499
20
39.220859613966965
10
-47.932261696082321
20
39.184757024323744
10
-48.417691459876266
20
38.776737004792494
10
-48.54434894583818
20
38.671880513703627
10
-48.996075859290329
20
38.303247243439955
10
-49.16584896109697
20
38.166785985505385
10
-49.519175758582321
20
37.88643434671144
10
-49.796857109290329
20
37.669444829499525
10
-50.046843757849899
20
37.47658327249269
10
-50.437478294593028
20
37.179818898713393
10
-50.630749931555954
20
37.035022527253432
10
-51.087798347693649
20
36.69787004617433
10
-51.220006218177048
20
36.601711064851088
10
-51.747950782996384
20
36.223607808625502
10
-51.825436821204391
20
36.168895513093275
10
-52.418011894446579
20
35.756994039094252
10
-52.435273399573532
20
35.745168477570815
10
-53.049382438880173
20
35.330434590852065
10
-53.09813426993486
20
35.29802873758058
10
-53.676614036780563
20
34.918800145661635
10
-53.788403740149704
20
34.846683293854994
10
-54.311322441321579
20
34.514156133210463
10
-54.488944282752243
20
34.402976781403822
10
-54.950703850012985
20
34.118152410065932
10
-55.199889412146774
20
33.966909200227065
10
-55.597504844885997
20
33.72907236245851
10
-55.92136310599443
20
33.538471013581557
10
-55.927688473622474
20
33.534835424721194
10
-55.942534675818649
20
33.526101857697768
10
-56.288947334510055
20
33.325458318269057
10
-56.508326277120133
20
33.201106153250493
10
-56.653489341956309
20
33.117671758210463
10
-56.903781166297165
20
32.976947576081557
10
-57.396411171179977
20
32.704540044343275
10
-57.526129951697555
20
32.633777410065932
10
-58.150252571326462
20
32.29906633523683
10
-58.15611766837236
20
32.29596689370851
10
-58.793820610266891
20
31.963496953522963
10
-58.915156593543259
20
31.901279241120619
10
-59.093373909760238
20
31.811711796222184
10
-59.443825950843028
20
31.6341359916089
10
-59.584686086620451
20
31.564790917471868
10
-59.691266288977829
20
31.511226445710463
10
-60.097550621253184
20
31.312309056794447
10
-60.478734245520798
20
31.128917485749525
10
-60.642890205603805
20
31.050868779694838
10
-61.192692985755173
20
30.79358652261476
10
-61.277684440833298
20
30.754371434724135
10
-61.924447288733688
20
30.460696965729994
10
-62.088278999549118
20
30.387645513093275
10
-62.663959732276169
20
30.13506487039308
10
-62.910684814673594
20
30.028758794343275
10
-62.988628730112488
20
29.995868707114468
10
-63.133286705237595
20
29.933849126374525
10
-63.60465454123613
20
29.735923558747572
10
-63.74503540061113
20
29.677768498933119
10
-64.363025894385544
20
29.426065236604018
10
-64.591502418738571
20
29.334741384064955
10
-64.860271682959763
20
29.228492528474135
10
-65.450233688574997
20
28.999686986481947
10
-65.581177940589157
20
28.949733525788588
10
-66.306170692664324
20
28.678308278596205
10
-66.321405639868914
20
28.672710210358936
10
-66.392856490183618
20
28.646927779422349
10
-67.076243629676071
20
28.399539739167494
10
-67.205170860511032
20
28.35381105569585
10
-67.43087340979389
20
28.275588600843804
10
-67.855395546179977
20
28.127208501374525
10
-68.101710548621384
20
28.043094426667601
10
-68.325563665997606
20
27.968646120739145
10
-68.648742904883591
20
27.859655171906752
10
-68.851819935570717
20
27.793625606336185
10
-69.011177292090593
20
27.740627080476088
10
-69.446391334754196
20
27.600303441560072
10
-69.933757057410446
20
27.446466237580616
10
-70.305275192481247
20
27.33151987222417
10
-70.869616737586227
20
27.160678655183155
10
-71.172761192542282
20
27.070766240632373
10
-71.818932762366472
20
26.883350163972217
10
-72.033418884497848
20
26.822410375153858
10
-72.781886329871384
20
26.61456659463628
10
-72.905282249671188
20
26.581035405671507
10
-73.758663406592575
20
26.354423314606983
10
-73.791507950049606
20
26.345878392731983
10
-74.686207046729294
20
26.118646413361866
10
-74.749435653907028
20
26.102977544343311
10
-74.886049165042721
20
26.069991587337711
10
-75.48517154715654
20
25.924125463044483
10
-75.754398575049606
20
25.860324651276905
10
-76.291817894202438
20
25.735555440461475
10
-76.718401184302536
20
25.638957768952757
10
-76.773728599768845
20
25.626579076325733
10
-77.157844772559372
20
25.541644841706592
10
-77.73652004263991
20
25.416904241120655
10
-77.807625999671188
20
25.401836186921507
10
-78.318514099341598
20
25.295253545319873
10
-78.856271972876755
20
25.186181813752491
10
-79.256610145789381
20
25.1070459189771
10
-79.919862022620407
20
24.97973993448003
10
-79.956535568457809
20
24.97283533242932
10
-80.657824745398727
20
24.843574315583545
10
-80.998591652137009
20
24.782596379792601
10
-81.570734253150164
20
24.682927876984913
10
-82.092661133033005
20
24.594884664094288
10
-82.494348755103317
20
24.528985768830616
10
-83.202256431800095
20
24.416709691560072
10
-83.428796997290817
20
24.381795674836475
10
-84.327592125159441
20
24.248176366364866
10
-84.355116124587184
20
24.244331276097171
10
-84.383830299597918
20
24.240070134675342
10
-85.340456238013445
20
24.1066797080396
10
-85.468868484717575
20
24.089427739655882
10
-86.298507919532
20
23.98150041726808
10
-86.626276245337692
20
23.940559178864866
10
-87.264374962073532
20
23.863578588044483
10
-87.800029983741013
20
23.801723271882373
10
-88.238047828894821
20
23.752971440827757
10
-88.853387108069597
20
23.687234670197768
10
-88.928210635971425
20
23.679626932990487
10
-88.990334739905563
20
23.67302492288335
10
-89.468592872840134
20
23.624683171784788
10
-89.946561794340141
20
23.579238435085976
10
-90.197405090552536
20
23.554635793244643
10
-90.45247005484697
20
23.531137258088428
10
-91.199616661292282
20
23.465324193513197
10
-91.421441307288376
20
23.44665125039807
10
-91.951145401221481
20
23.403602391755385
10
-92.662662735205856
20
23.349223882234007
10
-93.162674179297625
20
23.313327580964405
10
-93.800615539771286
20
23.270288259064955
10
-93.866702240434492
20
23.266144557594863
10
-93.921274414283005
20
23.262487203156788
10
-93.993961663962509
20
23.258165265921242
10
-94.438213577491013
20
23.230310231721205
10
-94.944825741587408
20
23.201627497865367
10
-95.197505226355759
20
23.186603337800342
10
-95.45746730826491
20
23.17260339883557
10
-96.301178207617966
20
23.130498677766163
10
-96.491555443030563
20
23.121715337312132
10
-97.150058021765915
20
23.093238622224241
10
-97.80365871451491
20
23.067937642609913
10
-98.343514671546188
20
23.049264699494643
10
-99.134034385901629
20
23.025470525300342
10
-99.557003250342575
20
23.01445558694585
10
-100.48288749716878
20
22.994437963044554
10
-100.78071998618242
20
22.98919275430432
10
-101.32407592795488
20
22.981067449128467
10
-101.72905372641682
20
22.976251393830687
10
-101.85045646689534
20
22.975011617219288
10
-102.64332937262651
20
22.969165593659717
10
-102.73991750739214
20
22.968726903474241
10
-103.44037221930618
20
22.96722009805432
10
-181.46081851981279
20
22.96722009805432
10
-182.55960392020341
20
22.970920354401905
10
-182.71745609305498
20
22.972064763581592
10
-182.80543013648554
20
22.973094813947164
10
-183.21727203391191
20
22.976737767731947
10
-183.87536930106279
20
22.985301763093275
10
-183.91017224298483
20
22.985945273321242
10
-183.9636557009041
20
22.986655980622679
10
-184.9290983583748
20
23.004785329377562
10
-185.18931793234941
20
23.010717183625538
10
-185.80977367423174
20
23.026653081452757
10
-186.39978336356279
20
23.044181615388197
10
-186.68509410880205
20
23.053508550202757
10
-187.59520458243486
20
23.086934834992725
10
-188.00287174246904
20
23.10376718667726
10
-188.77576278708574
20
23.138862401521116
10
-189.30252479575273
20
23.165202886140257
10
-189.94157718680498
20
23.199849874055225
10
-190.58427738211748
20
23.237682134187132
10
-191.0928528215706
20
23.26978281167726
10
-191.8483631517708
20
23.32105234292726
10
-192.22974227927324
20
23.34857538369878
10
-193.09497283957597
20
23.4151513877271
10
-193.35238861106035
20
23.436084538972217
10
-194.31905197165605
20
23.519397527253467
10
-194.4609587099373
20
23.532253057038623
10
-195.53145336173174
20
23.634515553986866
10
-195.55559085867998
20
23.636937886750538
10
-195.76856558325829
20
23.659226125049599
10
-196.55591415427324
20
23.741279393708545
10
-196.63646148703691
20
23.750053197419447
10
-197.00006391951354
20
23.791426002616021
10
-197.57914947531816
20
23.85680750039807
10
-197.70373748801347
20
23.871494084870655
10
-198.19188286361674
20
23.931560534692409
10
-198.6438314821541
20
23.986697942292601
10
-198.69989490812526
20
23.994071584689713
10
-198.7575428392708
20
24.001165181672413
10
-199.70668243430254
20
24.126487523591358
10
-199.79803966544267
20
24.13898065713628
10
-200.70348190329668
20
24.267001897370655
10
-200.82536624930498
20
24.284826070344288
10
-201.69804977439043
20
24.416576177155882
10
-201.83969425223466
20
24.438634664094288
10
-202.80382083914873
20
24.59411218789807
10
-202.84117626212236
20
24.600320607697768
10
-203.82994579337236
20
24.769750386750538
10
-203.89422821066972
20
24.7811181846021
10
-204.80614112876054
20
24.946895391022998
10
-204.96947216055986
20
24.977498799836475
10
-205.76991485617754
20
25.131641179597217
10
-206.02872299216386
20
25.182958394563038
10
-206.7214100267708
20
25.323901921784788
10
-207.0732633974373
20
25.397544652497608
10
-207.66078399680254
20
25.523629933869749
10
-208.10326026938554
20
25.621190816438038
10
-208.5881559755623
20
25.730701238191038
10
-209.11893295310136
20
25.853782445466358
10
-209.5036833193123
20
25.945087224519092
10
-210.12042449973222
20
26.095224172150928
10
-210.40749000571367
20
26.166692525422413
10
-211.09721588156816
20
26.342645436799366
10
-211.29971908591386
20
26.39545038369878
10
-212.07107948325273
20
26.601444036042601
10
-212.18051361106035
20
26.631294042146045
10
-212.57316077890204
20
26.740966343992625
10
-212.94685768149492
20
26.844812184846312
10
-213.05000709555742
20
26.874156743562061
10
-213.46319941585804
20
26.994416659566518
10
-213.82048534415361
20
27.097936421906788
10
-213.90832828543779
20
27.123971730744643
10
-214.34506747725024
20
27.256295936400861
10
-214.68681739829179
20
27.359462529694873
10
-214.75560592673418
20
27.380681783234913
10
-215.1706354196657
20
27.511462522321608
10
-215.53297924063799
20
27.625299245393187
10
-215.56254508860408
20
27.634957929351494
10
-215.59196876547929
20
27.64422968057378
10
-216.37652801535722
20
27.900872975861866
10
-216.4175598528206
20
27.914539128816038
10
-216.88927101157304
20
28.07365968850835
10
-217.23250316641924
20
28.191600591218311
10
-217.40071701071855
20
28.250070363557178
10
-218.03691314719316
20
28.47531870034917
10
-218.28590797446367
20
28.56525018838628
10
-218.83093761466142
20
28.765664845979053
10
-219.15858673117754
20
28.888526708161635
10
-219.61465763114091
20
29.062581807648975
10
-220.01892494223711
20
29.219852239167601
10
-220.38824962638017
20
29.36603143838628
10
-220.86707042716142
20
29.559169560944873
10
-221.15178512595293
20
29.675975591218311
10
-221.70314239524004
20
29.906411916291553
10
-221.9054167177498
20
29.99236658242932
10
-222.52733158133623
20
30.261541158234913
10
-222.64923976920244
20
30.3151758017896
10
-223.33973812125322
20
30.624490529572874
10
-223.38337825797197
20
30.644355565583545
10
-224.10794185660478
20
30.97989633706792
10
-224.14053844473955
20
30.995231420075733
10
-224.82306407950517
20
31.321740895783741
10
-224.93076252005693
20
31.374164372956592
10
-225.52881168387529
20
31.669879704987913
10
-225.70965694449541
20
31.760841161286635
10
-226.22532772086259
20
32.024284154450733
10
-226.47734569571611
20
32.155233174836475
10
-226.91270755789873
20
32.38494470742932
10
-227.2339718248665
20
32.55730226663335
10
-227.59105609915849
20
32.751804143464476
10
-227.97966884635088
20
32.967029363191038
10
-228.26046871207353
20
33.124900609528858
10
-228.71456073783037
20
33.384404927766163
10
-228.92106937430498
20
33.504186421906788
10
-229.4388000871956
20
33.809409886872608
10
-229.57292484305498
20
33.88965204385503
10
-230.14906810782549
20
34.239908010041553
10
-230.21615909598466
20
34.281307012116748
10
-230.85084842703935
20
34.679113179719288
10
-231.47708820365068
20
35.083108693635303
10
-231.48637914920837
20
35.089275793568255
10
-231.49677204154131
20
35.095983296906788
10
-231.69960411215374
20
35.230809251762878
10
-232.09497379325032
20
35.493245870148975
10
-232.13434146903154
20
35.519786626374561
10
-232.35568610486055
20
35.671298475246651
10
-232.70459102652669
20
35.909581929719288
10
-232.76513980887529
20
35.951572209870655
10
-233.26517032645341
20
36.303001195466358
10
-233.30603527091142
20
36.33206918863042
10
-233.76123355887529
20
36.659875661408741
10
-233.89939235709306
20
36.76074579385503
10
-234.40881656668779
20
37.138553411042601
10
-234.48471950553056
20
37.19562128213628
10
-235.04935192130205
20
37.626834661042601
10
-235.06211208365556
20
37.636714726960498
10
-235.07863752848706
20
37.649693668209174
10
-235.3920643236458
20
37.894340306794483
10
-235.63162731192705
20
38.084007054841358
10
-235.66503757630358
20
38.110980401239942
10
-235.73227809928059
20
38.16434457925542
10
-236.19339870474931
20
38.537545949494643
10
-236.27517855927567
20
38.605418498662907
10
-236.34573864005205
20
38.662744313752491
10
-236.5147486487912
20
38.804247816397037
10
-236.74740718863606
20
38.997340947663623
10
-236.95093082450029
20
39.169441014802295
10
-237.29379581473466
20
39.46343019632085
10
-237.52173351309892
20
39.661689549958545
10
-237.83261226676103
20
39.935832768952757
10
-238.08609890006181
20
40.1625879111646
10
-238.36392330191728
20
40.414558202302295
10
-238.67096828482744
20
40.697246343171507
10
-238.88782428763506
20
40.899663716828663
10
-239.24673961661455
20
41.239810735261351
10
-239.40430568717119
20
41.39116838601808
10
-239.81357502005693
20
41.790366918122608
10
-239.91342472098466
20
41.889119893586475
10
-240.37149356864091
20
42.348962575471205
10
-240.41531490347978
20
42.393565923249561
10
-240.90997623465654
20
42.904506475007373
10
-240.92060016654131
20
42.915645391022998
10
-241.39746593497392
20
43.422036916291553
10
-241.40835689566728
20
43.43376711038335
10
-241.88916133902666
20
43.958698064362842
10
-241.9307606127083
20
44.00481775430432
10
-242.3641102220833
20
44.49175432351808
10
-242.45532917044756
20
44.595828801667601
10
-242.83081935904619
20
45.03020837930432
10
-242.97120021842119
20
45.195136815583545
10
-243.01741086691422
20
45.250357798663892
0
LINE
5
101
100
AcDbEntity
8
0
100
AcDbLine
10
-34.450549727055346
20
204.84706237862304
30
0
11
-34.450167885047165
21
204.84700277475099
31
0
0
ENDSEC
0
SECTION
2
OBJECTS
0
DICTIONARY
5
C
100
AcDbDictionary
3
ACAD_GROUP
350
D
3
ACAD_MLINESTYLE
350
17
0
DICTIONARY
5
D
100
AcDbDictionary
0
DICTIONARY
5
1A
330
C
100
AcDbDictionary
0
DICTIONARY
5
17
100
AcDbDictionary
0
ENDSEC
0
EOF
