0
SECTION
2
HEADER
9
$INSUNITS
70
4
9
$ACADVER
1
AC1014
9
$HANDSEED
5
FFFF
0
ENDSEC
0
SECTION
2
TABLES
0
TABLE
2
VPORT
5
8
100
AcDbSymbolTable
0
ENDTAB
0
TABLE
2
LTYPE
5
5
100
AcDbSymbolTable
0
LTYPE
5
14
100
AcDbSymbolTableRecord
100
AcDbLinetypeTableRecord
2
BYBLOCK
70
0
0
LTYPE
5
15
100
AcDbSymbolTableRecord
100
AcDbLinetypeTableRecord
2
BYLAYER
70
0
0
LTYPE
5
16
100
AcDbSymbolTableRecord
100
AcDbLinetypeTableRecord
2
DASHED
70
0
3
Dashed __ __ __ __ __ __ __ __ __ __ __ __ __ _
72
65
73
2
40
0.75
49
0.5
74
0
49
-0.25
74
0
0
ENDTAB
0
TABLE
2
LAYER
5
2
100
AcDbSymbolTable
70
2
0
LAYER
5
50
100
AcDbSymbolTableRecord
100
AcDbLayerTableRecord
2
0
70
0
62
7
6
CONTINUOUS
0
ENDTAB
0
TABLE
2
STYLE
5
3
100
AcDbSymbolTable
70
1
0
STYLE
5
11
100
AcDbSymbolTableRecord
100
AcDbTextStyleTableRecord
2
STANDARD
70
0
0
ENDTAB
0
TABLE
2
VIEW
5
6
100
AcDbSymbolTable
70
0
0
ENDTAB
0
TABLE
2
UCS
5
7
100
AcDbSymbolTable
70
0
0
ENDTAB
0
TABLE
2
APPID
5
9
100
AcDbSymbolTable
70
2
0
APPID
5
12
100
AcDbSymbolTableRecord
100
AcDbRegAppTableRecord
2
ACAD
70
0
0
ENDTAB
0
TABLE
2
DIMSTYLE
5
A
100
AcDbSymbolTable
70
1
0
ENDTAB
0
TABLE
2
BLOCK_RECORD
5
1
100
AcDbSymbolTable
70
1
0
BLOCK_RECORD
5
1F
100
AcDbSymbolTableRecord
100
AcDbBlockTableRecord
2
*MODEL_SPACE
0
BLOCK_RECORD
5
1B
100
AcDbSymbolTableRecord
100
AcDbBlockTableRecord
2
*PAPER_SPACE
0
ENDTAB
0
ENDSEC
0
SECTION
2
BLOCKS
0
BLOCK
5
20
100
AcDbEntity
100
AcDbBlockBegin
2
*MODEL_SPACE
0
ENDBLK
5
21
100
AcDbEntity
100
AcDbBlockEnd
0
BLOCK
5
1C
100
AcDbEntity
100
AcDbBlockBegin
2
*PAPER_SPACE
0
ENDBLK
5
1D
100
AcDbEntity
100
AcDbBlockEnd
0
ENDSEC
0
SECTION
2
ENTITIES
0
LWPOLYLINE
5
100
100
AcDbEntity
8
0
100
AcDbPolyline
90
1335
70
1
43
0.0
10
-108.88599251882991
20
105.34517891184493
10
-108.74364709036307
20
105.62182075754805
10
-108.50267266409354
20
106.08206875101729
10
-108.39399193899588
20
106.28638393656416
10
-108.10962533132991
20
106.81183464304603
10
-108.03758477346854
20
106.94290764109297
10
-107.88600256365022
20
107.21362314181533
10
-107.74335717337088
20
107.46991760508216
10
-107.6744351305242
20
107.59146816507979
10
-107.51350898245299
20
107.87024139902286
10
-107.36760949270682
20
108.12435276285811
10
-107.33630092881694
20
108.17721986576053
10
-107.30457162039237
20
108.23218471781416
10
-106.98228692190604
20
108.77500183359786
10
-106.92797516958674
20
108.86511928812666
10
-106.66621064321951
20
109.29409153238936
10
-106.54464577810721
20
109.49036247507728
10
-106.34473656790213
20
109.80919964090987
10
-106.15459298269705
20
110.10801441446944
10
-105.90802048819022
20
110.48923618570967
10
-105.75779770986991
20
110.71811802164717
10
-105.46296929495291
20
111.1601651407878
10
-105.35425995962576
20
111.3207925059001
10
-105.00955437796073
20
111.82207233683272
10
-104.94397019522147
20
111.91610462443037
10
-104.54775666372733
20
112.47509128824873
10
-104.52689026968436
20
112.50410206095381
10
-104.1030297197576
20
113.08488971964522
10
-104.07756661550955
20
113.11926967875164
10
-103.6723599352117
20
113.65853435770674
10
-103.59893654959163
20
113.7547410227458
10
-103.23486184256033
20
114.22509319559737
10
-103.11184739248709
20
114.38155300394698
10
-102.79050683157401
20
114.78461391703291
10
-102.61728142874198
20
114.99856121317549
10
-102.33925675528006
20
115.33721096293135
10
-102.11315011160335
20
115.60838825480147
10
-101.88108300344901
20
115.88289387003582
10
-101.87026373755849
20
115.8954286099403
10
-101.84911584036307
20
115.92042095438643
10
-101.58266877310233
20
116.2303269602458
10
-101.49352604245891
20
116.33190083162745
10
-101.41596650259451
20
116.42175800577803
10
-101.15135049002127
20
116.7217934824626
10
-100.94385956900075
20
116.95383198038741
10
-100.80756043569997
20
117.10476047770186
10
-100.46472405569509
20
117.47919208780928
10
-100.45968865530446
20
117.48464710489912
10
-100.19072388784841
20
117.77324802652998
10
-99.978512278961688
20
117.99788601175948
10
-99.919365397858172
20
118.06003696695964
10
-99.645985118317157
20
118.3445847727458
10
-99.429949275421649
20
118.56642849222823
10
-99.370201579498769
20
118.62733013407393
10
-98.872517100739032
20
119.12687427775069
10
-98.812120906281024
20
119.18657428995772
10
-98.30617760794118
20
119.67925197855635
10
-98.245066157745867
20
119.73787433878584
10
-97.730854503082782
20
120.22363788859053
10
-97.66895150320488
20
120.2812302805583
10
-97.146471492218524
20
120.76007969156905
10
-97.139872065948964
20
120.76603061930339
10
-96.60482262747243
20
121.2430394388835
10
-96.552923671173602
20
121.28861553446455
10
-96.359460782971254
20
121.45573037201203
10
-96.037577144073992
20
121.73475391642256
10
-95.991948500119847
20
121.77319051134965
10
-95.950153819489032
20
121.80929310099287
10
-95.464724055695086
20
122.21731312052412
10
-95.338066569733172
20
122.32216961161299
10
-94.886339656281024
20
122.69080288187666
10
-94.716566554474383
20
122.82726413981123
10
-94.363239756989032
20
123.10761577860518
10
-94.085558406281024
20
123.32460529581709
10
-93.835571757721453
20
123.51746685282393
10
-93.444937220978318
20
123.81423122660323
10
-93.251665584015399
20
123.95902759806319
10
-92.794617167877703
20
124.29618007914229
10
-92.662409297394305
20
124.39233906046553
10
-92.134464732574969
20
124.77044231669112
10
-92.056978694366961
20
124.82515461222334
10
-91.464403621124774
20
125.23705608622237
10
-91.447142115997821
20
125.2488816477458
10
-90.83303307669118
20
125.66361553446455
10
-90.784281245636492
20
125.69602138773604
10
-90.205801478790789
20
126.07524997965498
10
-90.094011775421649
20
126.14736683146162
10
-89.571093074249774
20
126.47989399210616
10
-89.39347123281911
20
126.5910733439128
10
-88.931711665558367
20
126.87589771525069
10
-88.682526103424578
20
127.02714092508955
10
-88.284910670685349
20
127.26497776285811
10
-87.961052409576922
20
127.45557911173506
10
-87.954727041948871
20
127.45921470059542
10
-87.939880839752703
20
127.46794826761885
10
-87.593468181061297
20
127.66859180704756
10
-87.374089238451219
20
127.79294397206613
10
-87.228926173615037
20
127.87637836710616
10
-86.978634349274188
20
128.01710254923506
10
-86.486004344391375
20
128.28951008097334
10
-86.356285563873797
20
128.36027271525069
10
-85.732162944244891
20
128.69498379007979
10
-85.726297847198992
20
128.69808323160811
10
-85.088594905304461
20
129.03055317179366
10
-84.967258922028094
20
129.092770884196
10
-84.789041605811107
20
129.18233832909442
10
-84.438589564728318
20
129.35991413370772
10
-84.297729428950902
20
129.42925920784475
10
-84.191149226593524
20
129.48282367960616
10
-83.784864894318162
20
129.68174106852217
10
-83.403681270050555
20
129.86513263956709
10
-83.239525309967547
20
129.94318134562178
10
-82.68972252981618
20
130.20046360270186
10
-82.604731074738055
20
130.23967869059248
10
-81.957968226837664
20
130.53335315958662
10
-81.794136516022235
20
130.60640461222334
10
-81.218455783295184
20
130.85898525492354
10
-80.971730700897737
20
130.96529133097334
10
-80.893786785458857
20
130.99818141820214
10
-80.749128810333758
20
131.06020099894209
10
-80.277760974335223
20
131.25812656656905
10
-80.137380114960195
20
131.3162816263835
10
-79.519389621185809
20
131.5679848887126
10
-79.290913096832782
20
131.65930874125166
10
-79.02214383261159
20
131.76555759684248
10
-78.432181826996356
20
131.99436313883467
10
-78.301237574982196
20
132.04431659952803
10
-77.576244822907015
20
132.31574184672041
10
-77.561009875702425
20
132.32133991495766
10
-77.489559025387734
20
132.34712234589423
10
-76.806171885895282
20
132.59451038614912
10
-76.677244655060321
20
132.64023906962075
10
-76.451542105777449
20
132.71846152447281
10
-76.027019969391375
20
132.86684162394209
10
-75.780704966949969
20
132.95095569864898
10
-75.556851849573746
20
133.02540400457744
10
-75.233672610687762
20
133.13439495340987
10
-75.030595580000622
20
133.20042451898041
10
-74.871238223480745
20
133.25342304484053
10
-74.436024180817157
20
133.39374668375655
10
-73.948658458160907
20
133.54758388773598
10
-73.577140323090106
20
133.66253025309243
10
-73.012798777985125
20
133.83337147013344
10
-72.709654323029071
20
133.92328388468422
10
-72.063482753204866
20
134.11069996134438
10
-71.848996631073504
20
134.17163975016274
10
-71.100529185699969
20
134.37948353068032
10
-70.977133265900136
20
134.41301471964508
10
-70.123752108978778
20
134.63962681070961
10
-70.090907565521761
20
134.64817173258461
10
-69.196208468842059
20
134.87540371195473
10
-69.132979861664282
20
134.89107258097329
10
-68.996366350528632
20
134.92405853797888
10
-68.397243968414813
20
135.06992466227211
10
-68.128016940521761
20
135.13372547403969
10
-67.590597621368914
20
135.25849468485512
10
-67.164014331268817
20
135.35509235636383
10
-67.108686915802522
20
135.36747104899086
10
-66.724570743011981
20
135.45240528361001
10
-66.145895472931429
20
135.57714588419594
10
-66.074789515900136
20
135.59221393839508
10
-65.563901416229768
20
135.69879657999672
10
-65.026143542694612
20
135.80786831156411
10
-64.625805369781972
20
135.8870042063395
10
-63.96255349295096
20
136.01431019083657
10
-63.925879947113557
20
136.02121479288726
10
-63.22459077017264
20
136.15047580973305
10
-62.883823863434358
20
136.21145374552398
10
-62.311681262421189
20
136.31112224833169
10
-61.789754382538376
20
136.39916546122231
10
-61.38806676046805
20
136.46506435648598
10
-60.680159083771272
20
136.57734043375652
10
-60.45361851828055
20
136.61225445048012
10
-59.554823390411912
20
136.74587375895172
10
-59.527299390984183
20
136.74971884921942
10
-59.498585215973435
20
136.75397999064126
10
-58.541959277557908
20
136.887370417277
10
-58.413547030853806
20
136.9046223856607
10
-57.583907596039353
20
137.01254970804851
10
-57.256139270233675
20
137.05349094645172
10
-56.618040553497799
20
137.13047153727211
10
-56.082385531830354
20
137.19232685343422
10
-55.64436768667656
20
137.24107868448883
10
-55.029028407501798
20
137.30681545511882
10
-54.954204879599956
20
137.3144231923261
10
-54.892080775665804
20
137.32102520243325
10
-54.413822642731247
20
137.3693669535318
10
-53.935853721231233
20
137.41481169023061
10
-53.685010425018845
20
137.43941433207195
10
-53.429945460724412
20
137.46291286722817
10
-52.682798854279085
20
137.52872593180339
10
-52.460974208283005
20
137.54739887491851
10
-51.931270114349886
20
137.59044773356121
10
-51.219752780365525
20
137.64482624308258
10
-50.719741336273728
20
137.68072254435219
10
-50.081799975800081
20
137.72376186625164
10
-50.015713275136889
20
137.72790556772173
10
-49.961141101288362
20
137.73156292215981
10
-49.888453851608844
20
137.73588485939536
10
-49.444201938080369
20
137.76373989359539
10
-48.937589773983952
20
137.79242262745123
10
-48.684910289215573
20
137.80744678751626
10
-48.424948207306443
20
137.82144672648101
10
-47.581237307953401
20
137.86355144755044
10
-47.390860072540804
20
137.87233478800445
10
-46.732357493805452
20
137.90081150309234
10
-46.078756801056429
20
137.92611248270669
10
-45.538900844025179
20
137.94478542582195
10
-44.74838112966971
20
137.96857960001626
10
-44.325412265228792
20
137.97959453837075
10
-43.399528018402563
20
137.99961216227203
10
-43.101695529388948
20
138.00485737101226
10
-42.558339587616487
20
138.01298267618813
10
-42.153361789154538
20
138.0177987314859
10
-42.031959048676001
20
138.01903850809731
10
-41.239086142944856
20
138.02488453165688
10
-41.142498008179231
20
138.02532322184234
10
-40.442043296265169
20
138.02683002726226
10
37.578403004241423
20
138.02683002726226
10
38.677188404631977
20
138.02312977091469
10
38.835040577483539
20
138.02198536173501
10
38.923014620914174
20
138.02095531136942
10
39.334856518340473
20
138.01731235758464
10
39.992953785491459
20
138.00874836222332
10
40.027756727413468
20
138.00810485199534
10
40.081240185332696
20
138.0073941446939
10
41.04668284280347
20
137.98926479593902
10
41.306902416778009
20
137.98333294169106
10
41.927358158660333
20
137.96739704386383
10
42.517367847991459
20
137.94986850992839
10
42.802678593230645
20
137.94054157511383
10
43.712789066863529
20
137.90711529032387
10
44.120456226897637
20
137.89028293863933
10
44.893347271514337
20
137.85518772379547
10
45.4201092801814
20
137.82884723917633
10
46.059161671233575
20
137.79420025126137
10
46.701861866546075
20
137.75636799112945
10
47.2104373059992
20
137.72426731363933
10
47.965947636199466
20
137.67299778238933
10
48.347326763701908
20
137.64547474161782
10
49.212557324004642
20
137.5788987375895
10
49.469973095489017
20
137.55796558634438
10
50.436636456084649
20
137.47465259806313
10
50.57854319436597
20
137.46179706827797
10
51.649037846160333
20
137.35953457132973
10
51.673175343108646
20
137.35711223856606
10
51.886150067686891
20
137.33482400026699
10
52.673498638701908
20
137.25277073160805
10
52.754045971465509
20
137.24399692789714
10
53.117648403942148
20
137.20262412270057
10
53.696733959746759
20
137.13724262491851
10
53.821321972442071
20
137.12255604044594
10
54.309467348045395
20
137.06248959062418
10
54.761415966582696
20
137.00735218302398
10
54.817479392553885
20
136.99997854062687
10
54.875127323699466
20
136.99288494364419
10
55.824266918731134
20
136.86756260172524
10
55.915624149871341
20
136.85506946818032
10
56.821066387725345
20
136.72704822794594
10
56.942950733733575
20
136.70922405497231
10
57.815634258819095
20
136.5774739481607
10
57.957278736663262
20
136.55541546122231
10
58.921405323577396
20
136.39993793741851
10
58.958760746551029
20
136.39372951761882
10
59.947530277801029
20
136.22429973856606
10
60.011812695098321
20
136.2129319407145
10
60.923725613189141
20
136.0471547342936
10
61.087056644988458
20
136.01655132548012
10
61.887499340606205
20
135.86240894571938
10
62.146307476592462
20
135.81109173075356
10
62.838994511199466
20
135.6701482035318
10
63.19084788186597
20
135.59650547281899
10
63.778368481231134
20
135.47042019144683
10
64.22084475381422
20
135.37285930887856
10
64.705740459990977
20
135.26334888712555
10
65.23651743753004
20
135.14026767985024
10
65.621267803740977
20
135.04896290079751
10
66.238008984160899
20
134.89882595316567
10
66.525074490142345
20
134.82735759989419
10
67.214800365996751
20
134.65140468851723
10
67.417303570342455
20
134.59859974161782
10
68.188663967681364
20
134.39260608927398
10
68.298098095488982
20
134.36275608317055
10
68.690745263330584
20
134.25308378132397
10
69.064442165923481
20
134.14923794047027
10
69.167591579986052
20
134.11989338175454
10
69.580783900286605
20
133.99963346575007
10
69.938069828582172
20
133.89611370340981
10
70.025912769866352
20
133.87007839457195
10
70.462651961678802
20
133.73775418891572
10
70.804401882720356
20
133.63458759562172
10
70.873190411162739
20
133.61336834208169
10
71.288219904094277
20
133.48258760299498
10
71.650563725066618
20
133.3687508799234
10
71.680129573032687
20
133.3590921959651
10
71.709553249907856
20
133.34982044474282
10
72.494112499785786
20
133.09317714945473
10
72.535144337249164
20
133.07951099650055
10
73.006855496001606
20
132.92039043680825
10
73.350087650847868
20
132.80244953409829
10
73.518301495147114
20
132.74397976175942
10
74.154497631621794
20
132.51873142496743
10
74.403492458892302
20
132.42879993693032
10
74.948522099090056
20
132.22838527933754
10
75.276171215606169
20
132.10552341715493
10
75.732242115569477
20
131.93146831766762
10
76.136509426665739
20
131.77419788614898
10
76.505834110808735
20
131.62801868693032
10
76.984654911590056
20
131.43488056437172
10
77.269369610381489
20
131.31807453409829
10
77.820726879668598
20
131.08763820902504
10
78.023001202178435
20
131.00168354288726
10
78.64491606576486
20
130.73250896708169
10
78.766824253631
20
130.678874323527
10
79.457322605681782
20
130.36955959574371
10
79.50096274240056
20
130.34969455973305
10
80.225526341033415
20
130.01415378824868
10
80.258122929168181
20
129.99881870524086
10
80.940648563933806
20
129.67230922953286
10
81.048347004485493
20
129.61988575236001
10
81.646396168303852
20
129.32417042032867
10
81.827241428923969
20
129.23320896402993
10
82.342912205291157
20
128.96976597086586
10
82.594930180144672
20
128.83881695048012
10
83.03029204232736
20
128.60910541788726
10
83.351556309295063
20
128.43674785868325
10
83.708640583587055
20
128.24224598185211
10
84.097253330779438
20
128.02702076212555
10
84.378053196502165
20
127.86914951578773
10
84.832145222259001
20
127.60964519755042
10
85.038653858733539
20
127.4898637034098
10
85.556384571624164
20
127.18464023844398
10
85.690509327483539
20
127.10439808146155
10
86.266652592254047
20
126.75414211527503
10
86.333743580413227
20
126.71274311319983
10
86.968432911467914
20
126.3149369455973
10
87.594672688079314
20
125.91094143168128
10
87.603963633636965
20
125.90477433174833
10
87.614356525969868
20
125.8980668284098
10
87.81718859658227
20
125.76324087355367
10
88.212558277678923
20
125.50080425516761
10
88.251925953460173
20
125.47426349894202
10
88.473270589289115
20
125.32275165006993
10
88.82217551095529
20
125.0844681955973
10
88.882724293303852
20
125.04247791544593
10
89.382754810881977
20
124.69104892985023
10
89.423619755340056
20
124.66198093668616
10
89.878818043303852
20
124.33417446390784
10
90.016976841521625
20
124.23330433146155
10
90.526401051116352
20
123.85549671427398
10
90.602303989959125
20
123.7984288431803
10
91.16693640573061
20
123.36721546427398
10
91.179696568084196
20
123.35733539835608
10
91.196222012915626
20
123.34435645710741
10
91.509648808074431
20
123.0997098185221
10
91.74921179635561
20
122.91004307047523
10
91.782622060732209
20
122.88306972407661
10
91.849862583709125
20
122.82970554606116
10
92.310983189177875
20
122.45650417582191
10
92.392763043704278
20
122.38863162665368
10
92.46332312448061
20
122.33130581156409
10
92.63233313321976
20
122.18980230891951
10
92.864991673064665
20
121.99670917765296
10
93.068515308928852
20
121.82460911051429
10
93.411380299163227
20
121.53061992899573
10
93.639317997527485
20
121.33236057535804
10
93.950196751189594
20
121.05821735636383
10
94.203683384490375
20
120.83146221415198
10
94.481507786345844
20
120.57949192301429
10
94.788552769256
20
120.29680378214508
10
95.005408772063618
20
120.09438640848792
10
95.36432410104311
20
119.75423939005523
10
95.52189017159975
20
119.60288173929847
10
95.931159504485493
20
119.20368320719398
10
96.031009205413227
20
119.10493023173011
10
96.489078053069477
20
118.64508754984534
10
96.532899387908344
20
118.60048420206702
10
97.027560719085102
20
118.08954365030921
10
97.038184650969868
20
118.07840473429358
10
97.515050419402485
20
117.57201320902503
10
97.525941380095844
20
117.56028301493323
10
98.006745823455219
20
117.03535206095374
10
98.048345097136931
20
116.98923237101226
10
98.481694706511931
20
116.50229580179851
10
98.572913654876189
20
116.39822132364898
10
98.94840384347475
20
115.96384174601226
10
99.08878470284975
20
115.79891330973304
10
99.134995351342852
20
115.74369232665269
10
99.232522495818571
20
115.62862522379554
10
99.513522633147602
20
115.29135830179847
10
99.596044071746306
20
115.19123203531898
10
99.956733234954314
20
114.74750644938148
10
100.0947299085383
20
114.57508213297523
10
100.31241560800119
20
114.30004246012366
10
100.58487082345522
20
113.9504063822428
10
100.66288138253725
20
113.84917385355628
10
101.06650496346987
20
113.31709987894683
10
101.09634543283029
20
113.2772172190348
10
101.52298117501779
20
112.69811756388343
10
101.53970862252748
20
112.67508632914222
10
101.94281721932931
20
112.11179859415687
10
102.00449133737131
20
112.0242703653971
10
102.35733176095522
20
111.51605732218421
10
102.46085310800119
20
111.36455662027991
10
102.76358748300119
20
110.91505176798499
10
102.90885115487619
20
110.69582111612952
10
102.95098731291603
20
110.63086021567656
10
103.04422522409006
20
110.48946506754554
10
103.32107687814272
20
110.06095058695472
10
103.33550422412756
20
110.0380542752756
10
103.3485140882258
20
110.01799709574371
10
103.70865012033029
20
109.44586879984534
10
103.77982283456362
20
109.33097011820472
10
104.08859396798647
20
108.82492668406165
10
104.20279646737619
20
108.63462097422278
10
104.43847800118959
20
108.23635227457679
10
104.61743498666323
20
107.92882568613685
10
104.78128577096498
20
107.64333374277754
10
105.0237765393976
20
107.21349365488685
10
105.14701033456362
20
106.99169285074866
10
105.42179251534975
20
106.48850090281165
10
105.50437117440744
20
106.3348925806681
10
105.74774885995431
20
105.87563164011634
10
105.78465805959169
20
105.80444436259981
10
105.81146384103342
20
105.75371391550696
10
105.85176886970103
20
105.67500682641537
10
105.98721648080385
20
105.41376716868079
10
106.19281912667788
20
105.00900871531165
10
106.25284414628169
20
104.88755753472155
10
106.32535124642892
20
104.74392063395179
10
106.46535387846299
20
104.45757753586953
10
106.56582976205385
20
104.25428039805091
10
106.65546561105288
20
104.06874782816566
10
106.85516501290834
20
103.64956028238929
10
106.93042898995913
20
103.48935730234771
10
107.05176497323549
20
103.22850830332428
10
107.28665495736635
20
102.71414882914222
10
107.37134123666323
20
102.52556450144446
10
107.63443137033029
20
101.92850715891517
10
107.68402243478342
20
101.8140185572306
10
107.97378683908029
20
101.13228447214759
10
107.98987532479806
20
101.09374172465003
10
108.28879500253244
20
100.36466247812903
10
108.30463553292788
20
100.3253424860636
10
108.58078146798647
20
99.626642534891729
10
108.62692976815744
20
99.507528612772518
10
108.86596823556459
20
98.879143068949347
10
108.94065047128244
20
98.678718874613409
10
109.14420271737619
20
98.122259447733484
10
109.24575949533029
20
97.838770220438604
10
109.41742087228342
20
97.350198099772101
10
109.54218054635561
20
96.987496683756476
10
109.68146468026674
20
96.574546168009405
10
109.82986594064272
20
96.124764750162726
10
109.8643426628395
20
96.016682082831935
10
109.91302634103342
20
95.868173906962042
10
110.05728103981816
20
95.41183066176977
10
110.1087679944758
20
95.250421831766729
10
110.13672018868959
20
95.160528490702276
10
110.35269881112619
20
94.451791117350226
10
110.37879134042306
20
94.36431057230628
10
110.61222220284975
20
93.563500712076788
10
110.63989783151189
20
93.466268847147589
10
110.8621611676935
20
92.666250536600714
10
110.89200163705385
20
92.55614406840003
10
111.10248709542788
20
91.760050127665167
10
111.13501692636052
20
91.633750269571905
10
111.17544853670978
20
91.472128530563026
10
111.28583098275698
20
91.036535570780401
10
111.36886740548647
20
90.698953936258917
10
111.40342585294871
20
90.553210916772571
10
111.46204138619939
20
90.312296221415167
10
111.55334433060975
20
89.92096111345127
10
111.59351492745913
20
89.751550028483038
10
111.63116598947084
20
89.587408373514705
10
111.74765730721987
20
89.069649050394659
10
111.80877829415834
20
88.791390726725226
10
111.8611826978449
20
88.549143145243292
10
112.01465750558415
20
87.818304369608526
10
112.04538489205873
20
87.667962381998663
10
112.2110381208185
20
86.832114527384363
10
112.22183371408022
20
86.776009867350226
10
112.39099646432436
20
85.870081255594812
10
112.39776755197084
20
85.832649538675909
10
112.55164290292299
20
84.956199000040655
10
112.5748076520685
20
84.819723436991268
10
112.58877781329502
20
84.734366989817644
10
112.63733054025209
20
84.444328615824304
10
112.72009993417299
20
83.932000467936163
10
112.74197722299135
20
83.793159792582159
10
112.85583639962709
20
83.048149416605597
10
112.89926672799623
20
82.752786944071374
10
112.98392439706362
20
82.157126734415613
10
113.04648543221987
20
81.698404619852624
10
113.11218405587709
20
81.197992632547979
10
113.1835665784601
20
80.629845926920538
10
113.23254729135073
20
80.223580668131518
10
113.31033850533998
20
79.546915362040124
10
113.34403181893862
20
79.240881273905401
10
113.41354513986147
20
78.579641649881964
10
113.42057024069859
20
78.508430995512384
10
113.42673445565737
20
78.449441263834601
10
113.43619806450022
20
78.350017958446543
10
113.47889090402163
20
77.917257616678839
10
113.50649317075991
20
77.611507741792252
10
113.53260184152163
20
77.337213823954272
10
113.57477331979311
20
76.855169603983526
10
113.62777853829897
20
76.210047075907354
10
113.65042830331362
20
75.919042894999151
10
113.71219778878725
20
75.06774074808753
10
113.71848250253237
20
74.975820849100714
10
113.77890730721987
20
74.025489161173397
10
113.78567839486632
20
73.910132715860925
10
113.81061697824038
20
73.468195269266729
10
113.83963728768862
20
72.910300562540655
10
113.84811545236147
20
72.736994097391729
10
113.88055945260561
20
72.016531298319393
10
113.89932776315248
20
71.54814846293128
10
113.9167513929132
20
71.06444484965003
10
113.9391818128351
20
70.343390772501593
10
113.9456572614435
20
70.105539629618292
10
113.96753455026186
20
69.122504065195685
10
113.96972800118959
20
69.000006983439135
10
113.98380423409975
20
67.938376734415698
10
113.9843478284601
20
67.87662393824256
10
113.98920203073061
20
66.74416429773963
10
113.99078513009584
20
66.647681067148852
10
113.99047995431459
20
66.551169226328497
10
113.98831511361632
20
66.454705069224005
10
113.92215872628725
20
64.443854162851935
10
113.8921847425226
20
63.55202562586463
10
113.87710715158022
20
63.107734987894659
10
113.82620955331362
20
61.626290152231853
10
113.76047278268373
20
59.753974745432537
10
113.65375662667788
20
56.79650194422404
10
113.57166434152163
20
54.581459829966228
10
113.46130514962709
20
51.670662233988445
10
113.44619894845522
20
51.276909182230632
10
113.43921805245913
20
51.095572779337566
10
113.34207678658998
20
48.595695564905803
10
113.18313742501772
20
44.585288832346563
10
113.1072726331476
20
42.698310682932501
10
113.00806189401186
20
40.25191433207187
10
112.99201155526674
20
39.858161280314093
10
112.90039206368959
20
37.618598411242132
10
112.85742903573546
20
36.571921775499909
10
112.27059248446423
20
22.307701514094163
10
112.2257130201348
20
21.206398893593637
10
112.0639454535327
20
17.173918436421012
10
111.98272896200535
20
15.140719179383666
10
111.86075464188943
20
11.987780405645356
10
111.76436481568224
20
9.4863702211081957
10
111.58184577344824
20
4.5170884249064791
10
111.57972693184445
20
4.4573625852316567
10
111.44229263398771
20
0.46618834982350421
10
111.41191756164297
20
-0.44703396067831136
10
111.29520215152343
20
-4.0989592009243125
10
111.29182807207894
20
-4.2122682793387867
10
111.19476677877856
20
-7.524409619130985
10
111.17020718720457
20
-8.4064654044770037
10
111.09098780950497
20
-11.396059262948945
10
111.08277950204943
20
-11.729597624577046
10
111.02388458482747
20
-14.21504436571194
10
110.9948825005997
20
-15.497398525669013
10
110.93410938046017
20
-18.408402992731112
10
110.92891065746798
20
-18.685553199344334
10
110.88436946196634
20
-21.153565568080985
10
110.85614896709281
20
-22.869765319636919
10
110.82591009275184
20
-24.863556618664262
10
110.81520260511191
20
-25.628411363664902
10
110.78518106338717
20
-28.07230173008552
10
110.77647258362657
20
-28.810408751845529
10
110.74585985122098
20
-32.102787791024134
10
110.73814118865397
20
-33.121043509821178
10
110.72517633380957
20
-35.086972200951507
10
110.71902896017446
20
-36.192720320471103
10
110.70739889962707
20
-38.943160703023345
42
-0.359913102106243
10
106.77789831979308
20
-43.811649014790824
10
106.6275420270685
20
-43.842247655232796
10
106.58316756112612
20
-43.850368192036996
10
106.38706351144347
20
-43.881286313374886
10
106.02938795785228
20
-43.936009942885065
10
105.91269991271258
20
-43.956917764694325
10
105.67297892509195
20
-44.001224728242804
10
105.53536550676228
20
-44.0297797506866
10
105.31773944006844
20
-44.077012696151257
10
105.17390207609782
20
-44.110981891069954
10
104.96327677676305
20
-44.163573314928058
10
104.81973704111937
20
-44.201634745356429
10
104.51840544564753
20
-44.286860158284554
10
104.51801712250443
20
-44.286983076374767
10
104.22141018292959
20
-44.380869725164672
10
104.07433450859654
20
-44.430150715034259
10
103.87357008685879
20
-44.500618645382858
10
103.7290997926284
20
-44.553544945832556
10
103.52789884964989
20
-44.631229164002249
10
103.38772017569735
20
-44.687061557534321
10
103.18182105908318
20
-44.773978056367426
10
103.05118411330395
20
-44.830281935537229
10
102.82645772453935
20
-44.933456342222073
10
102.71933570809473
20
-44.983217738677311
10
102.39181662423644
20
-45.146020581563334
10
102.05739095386178
20
-45.325382489079914
10
101.93496487719412
20
-45.395893280997527
10
101.72756967481303
20
-45.515541606163254
10
101.59857186576201
20
-45.595177950032465
10
101.40453998232599
20
-45.715256922076875
10
101.26479946913915
20
-45.80753112481068
10
101.087711856174
20
-45.924861855886036
10
100.94841089031777
20
-46.023065740948596
10
100.77691100539482
20
-46.14449727159284
10
100.64079757496685
20
-46.246814781490656
10
100.47347397105398
20
-46.373237466361786
10
100.33646758287628
20
-46.482929093243555
10
100.17748062601027
20
-46.610971546125469
10
100.04019733360263
20
-46.727928139569187
10
99.888765299962358
20
-46.857813651864021
10
99.754838318495729
20
-46.9791400133103
10
99.607300401429796
20
-47.113830261868671
10
99.478474250492155
20
-47.237904498840294
10
99.333854907309558
20
-47.378387196343553
10
99.209908576989108
20
-47.505265841091258
10
99.068905958064278
20
-47.650968715691008
10
98.946534833412656
20
-47.784148184773031
10
98.815453160151421
20
-47.928268621186504
10
98.546125425709405
20
-48.241772036289859
10
98.497596554860792
20
-48.301921817587029
10
98.318467668056755
20
-48.525180446269459
10
98.236124465706922
20
-48.633270417504036
10
98.097861607779109
20
-48.816970764888779
10
98.010661207487004
20
-48.938337728972826
10
97.885549683498397
20
-49.115748065781673
10
97.798673379415987
20
-49.24411386659807
10
97.681756360312136
20
-49.42131415759691
10
97.597825987604381
20
-49.553115036004854
10
97.486834111629548
20
-49.733182400097121
10
97.406336138057299
20
-49.867777963746875
10
97.29969010591013
20
-50.053464230475115
10
97.225360157194672
20
-50.186046345907172
10
97.119967962148451
20
-50.383435123776309
10
97.053800033211559
20
-50.509621749848591
10
96.9684707564478
20
-50.682073076226587
10
96.88311263546953
20
-50.857300897782579
10
96.74403081708536
20
-51.161739899364719
10
96.735780628436146
20
-51.180658073591104
10
96.596883916200767
20
-51.511466260933659
10
96.578031745910778
20
-51.559482258352332
10
96.48242112502939
20
-51.808455238593524
10
96.416229271587241
20
-51.990959070551256
10
96.353740654486131
20
-52.170100984281774
10
96.293361903962193
20
-52.354244882692512
10
96.236491181226171
20
-52.535046939613878
10
96.181715381401204
20
-52.721471695983851
10
96.130471423235065
20
-52.903956285306805
10
96.081844118827718
20
-53.090740341341004
10
96.035878480478914
20
-53.276360908889501
10
95.993355414154252
20
-53.463358499928674
10
95.953228490670142
20
-53.649907573659249
10
95.916347325084359
20
-53.838966677547845
10
95.882098809645527
20
-54.026188418112881
10
95.851035186399514
20
-54.216695306752399
10
95.822674822510663
20
-54.404419536636311
10
95.797784713111469
20
-54.593640611519078
10
95.774966292255755
20
-54.784496469484068
10
95.755975167582335
20
-54.974122135396627
10
95.738993527211392
20
-55.166471684572201
10
95.726675966824899
20
-55.343264633069836
10
95.71537519869662
20
-55.541191067162586
10
95.708336661081404
20
-55.71720491373442
10
95.703117731688224
20
-55.916837669532754
10
95.701305124816372
20
-56.092354630155384
10
95.702260783246913
20
-56.292137016012461
10
95.705645934000245
20
-56.467485087716526
10
95.712833187765341
20
-56.668257718309547
10
95.721347035423008
20
-56.841954686781129
10
95.734783857718611
20
-57.043055110151542
10
95.748494188289726
20
-57.216982521209594
10
95.767991170866964
20
-57.416028128160129
10
95.786937284089674
20
-57.590375252896855
10
95.812834666641351
20
-57.790593354395561
10
95.836510820881358
20
-57.9612427205046
10
95.869330384264771
20
-58.165163460128475
10
95.897349510367292
20
-58.330852223765682
10
95.936877745024958
20
-58.535842528050296
10
95.96962662753495
20
-58.699726057052587
10
96.016140394358843
20
-58.906255831549984
10
96.052780764438069
20
-59.064996865835425
10
96.107001903419473
20
-59.275280963812534
10
96.147166289789226
20
-59.428450164053132
10
96.21220971169106
20
-59.651739260191846
10
96.252231953733059
20
-59.787761770952685
10
96.355943784351325
20
-60.106795375462539
10
96.376271833884914
20
-60.166507339962806
10
96.446866471592358
20
-60.362799305573006
10
96.512673338019852
20
-60.541688660796794
10
96.583634066969893
20
-60.721296428946033
10
96.654222383797446
20
-60.896285026854059
10
96.731563504395581
20
-61.075593054467859
10
96.806260027465754
20
-61.245516016724665
10
96.889844013862614
20
-61.423940116893107
10
96.969345282997807
20
-61.590671235629785
10
97.057784832639101
20
-61.765157442485275
10
97.14260197911895
20
-61.929844689664989
10
97.307139655587605
20
-62.231014042290965
10
97.308433906005945
20
-62.233267851618152
10
97.496702751099093
20
-62.553860258700865
10
97.513222518645762
20
-62.580632984348924
10
97.659432788711882
20
-62.812849295630443
10
97.739521858584311
20
-62.936491979209009
10
97.857884291028341
20
-63.112164858678895
10
97.949249716266394
20
-63.244921616338004
10
98.0749392700518
20
-63.41954910462222
10
98.166707825520263
20
-63.544973894266278
10
98.302249323300799
20
-63.721502209457043
10
98.393208216919817
20
-63.838584259263143
10
98.546855140422196
20
-64.026366212154869
10
98.627781608343355
20
-64.124572522614102
10
98.851307978376497
20
-64.381125998899108
10
98.870720507400904
20
-64.403346604773702
10
99.122534652461212
20
-64.674954122297436
10
99.207222370468571
20
-64.761292420661164
10
99.38169393178481
20
-64.938153070723686
10
99.488241118241348
20
-65.040710822762961
10
99.650185645261161
20
-65.194993589997011
10
99.76502523236536
20
-65.299315834049111
10
99.924703095908598
20
-65.442310298070353
10
100.04758453596696
20
-65.54765271702054
10
100.20815086190214
20
-65.682701959517672
10
100.33459828743003
20
-65.784920772039669
10
100.52282374333143
20
-65.933554409560614
10
100.57674898579822
20
-65.975051225172209
10
100.83545277514116
20
-66.166640886625018
10
100.99628514636731
20
-66.279460980526054
10
101.15071957143368
20
-66.386586021034603
10
101.31395404723929
20
-66.493658164008892
10
101.47208871295337
20
-66.596251039820174
10
101.63934211920161
20
-66.698667256231928
10
101.79962025215335
20
-66.795745396060383
10
101.96994425207106
20
-66.892899680389647
10
102.13345365267497
20
-66.985140309643384
10
102.30679844027262
20
-67.076991571931416
10
102.47240025895192
20
-67.163770427748105
10
102.64800186005357
20
-67.249950372690975
10
102.8173206103975
20
-67.332094463090485
10
102.99129698684536
20
-67.410886268163509
10
103.16671530418373
20
-67.489385689861919
10
103.3421037975634
20
-67.562353470864792
10
103.53594137521523
20
-67.641987147393237
10
103.55720858679052
20
-67.650314527213609
10
103.89638249796872
20
-67.777554383514499
10
103.92270615001766
20
-67.786779626433727
10
104.26651144845519
20
-67.903736760457406
10
104.47735930306936
20
-67.977064778645854
10
104.49710989816222
20
-67.984484364827495
10
104.68469763619933
20
-68.059748341878276
10
104.72345496041808
20
-68.076399495442729
10
104.88492155892882
20
-68.150061299641976
10
104.94504118783507
20
-68.179262807210307
10
105.08124495370421
20
-68.24920528157557
10
105.16135359628234
20
-68.292826344807963
10
105.27320052011046
20
-68.356989552815804
10
105.37182951791311
20
-68.416823079427104
10
105.46035910470519
20
-68.473213841756234
10
105.57602072579894
20
-68.550947835286507
10
105.64228201730285
20
-68.597620656331401
10
105.77341223580871
20
-68.694895436604838
10
105.83777571542296
20
-68.74511592610682
10
105.96356535775695
20
-68.848303487141976
10
106.02582121713195
20
-68.901985814412484
10
106.14597464425597
20
-69.010819127400765
10
106.2035002790216
20
-69.065512349446664
10
106.32023001534972
20
-69.182051350911507
10
106.37305403573546
20
-69.237421681722026
10
106.48590231759582
20
-69.361590077718148
10
106.53412009103332
20
-69.417322804768901
10
106.64261008126769
20
-69.549006154378276
10
106.68631697518859
20
-69.604777028401713
10
106.78998137338195
20
-69.743860890706429
10
106.82929182870421
20
-69.799374272664437
10
106.92764426095519
20
-69.945677449544291
10
106.96271086556936
20
-70.000647237141976
10
107.05530310494933
20
-70.153969456990609
10
107.08624983651671
20
-70.208119084676156
10
107.17264319283996
20
-70.368250539143901
10
107.19962263925109
20
-70.421322514851937
10
107.27935934884582
20
-70.588015248616585
10
107.30259085519347
20
-70.639733006795296
10
107.37522269113097
20
-70.812719991048226
10
107.39486838204894
20
-70.862883260091166
10
107.45999480111624
20
-71.041849782307963
10
107.47626448495421
20
-71.09020107014986
10
107.5334563337091
20
-71.274841954549174
10
107.54660750253234
20
-71.321209599812875
10
107.59546423776183
20
-71.511152913411507
10
107.60568762643371
20
-71.555336644490609
10
107.64584685189757
20
-71.750191380818706
10
107.65341902596984
20
-71.79203860982264
10
107.68451834542785
20
-71.991423299153695
10
107.68966818673644
20
-72.030771901448588
10
107.71133566720519
20
-72.234247853597026
10
107.7143588147882
20
-72.270973851521859
10
107.72626067025695
20
-72.478102376302104
10
107.72739554269347
20
-72.512091328938823
10
107.72925520761046
20
-72.722376515706429
10
107.72879744393859
20
-72.753561665852885
10
107.72033835275207
20
-72.966517140706429
10
107.71850729806457
20
-72.99480312093101
10
107.69950056893859
20
-73.209932973225889
10
107.69663000924621
20
-73.235281636556039
10
107.66678000314269
20
-73.452032735188823
10
107.66315604074035
20
-73.474425008138041
10
107.62229109628234
20
-73.692253758748421
10
107.61814261300597
20
-73.711661031087289
10
107.56611014230285
20
-73.9300047658285
10
107.56174231393371
20
-73.946455647786507
10
107.49836111886535
20
-74.16473262532557
10
107.49408865792785
20
-74.178246190389046
10
107.41925383431936
20
-74.395874669392953
10
107.41531515939269
20
-74.406508138020882
10
107.32895041329894
20
-74.622877766927104
10
107.32559347970519
20
-74.630697896321664
10
107.2276702008966
20
-74.845198323567828
10
107.22519064767394
20
-74.850290944417438
10
107.11563254220519
20
-75.062292744954547
10
107.11425925118957
20
-75.064781834920296
10
106.99314261300597
20
-75.273665120442686
10
99.543009908312115
20
-75.565485706670458
10
97.727460131361681
20
-75.637728131784755
10
87.543069370818472
20
-76.049040486653695
10
80.801087864470816
20
-76.319702794392953
10
78.345114239287739
20
-76.417425801595101
10
77.569509991240864
20
-76.448162724812875
10
77.240621098113422
20
-76.46118037923182
10
75.095325954985981
20
-76.545799901326546
10
74.256259449553824
20
-76.578758885701546
10
73.23633337838686
20
-76.618708302815804
10
71.902028568816547
20
-76.670769383748407
10
70.60463572366271
20
-76.721151997884149
10
69.617892750335074
20
-76.759298970540399
10
68.589450367522574
20
-76.798914601643872
10
68.498507984710102
20
-76.802405049641962
10
66.517702587676411
20
-76.878155400594068
10
64.128438480925951
20
-76.968573262532587
10
60.833345898223286
20
-77.091330220540357
10
56.993762501311664
20
-77.231234242757154
10
54.319063671660821
20
-77.32648723347981
10
53.034321316314141
20
-77.371519734700556
10
51.818334110808735
20
-77.413691212971997
10
49.132677563262313
20
-77.505167653401685
10
48.481570728850727
20
-77.526968648274703
10
46.071936138701837
20
-77.606362035115552
10
43.229466923308699
20
-77.697123219807935
10
43.011676319671004
20
-77.703932454427076
10
39.867831715178816
20
-77.800024678548198
10
38.434025295806258
20
-77.842339207967115
10
36.999088772368829
20
-77.883709599812818
10
34.130741604400008
20
-77.963255574544263
10
33.947726734710066
20
-77.968176534016948
10
31.545247086119979
20
-78.031157185872388
10
29.708422669005721
20
-78.077114751180005
10
28.818851955962508
20
-78.098639180501294
10
25.711230286193221
20
-78.170012166341138
10
25.661839493346541
20
-78.171089818318706
10
22.831348427367537
20
-78.230398824055982
10
21.847142227721541
20
-78.249701192220002
10
19.951664455962508
20
-78.284920384724956
10
18.162098177504902
20
-78.315762212117463
10
16.096042641234725
20
-78.348368336995435
10
14.562458046508162
20
-78.370445897420268
10
12.240939386916452
20
-78.400353123982768
10
11.044513233733504
20
-78.414076497395826
10
9.8294403634789873
20
-78.426808049519806
10
7.599887498450677
20
-78.446959187825513
10
7.435825117659931
20
-78.448284795125346
10
4.4753756604913164
20
-78.468054463704419
10
4.2267640910867144
20
-78.46937053426106
10
1.5153383694413591
20
-78.480108907063794
10
0.90777928454912171
20
-78.481596638997388
10
-1.7353787414905497
20
-78.484076192220002
10
-2.6800808824774336
20
-78.48340862019856
10
-5.0762296237227034
20
-78.478048970540357
10
-6.3026547946211409
20
-78.473318745930982
10
-8.4174922622915815
20
-78.462017705281525
10
-9.9824032701727461
20
-78.451145818074565
10
-11.244534007477434
20
-78.440836598714185
10
-13.720425120758684
20
-78.416708638509107
10
-14.100124589371354
20
-78.412560155232768
10
-14.599239579605729
20
-78.406914403279643
10
-15.710003129410417
20
-78.393629720052076
10
-17.522183410095842
20
-78.369806935628247
10
-17.993786088394828
20
-78.36316936238606
10
-19.793927422928483
20
-78.336199452718091
10
-21.391247264313336
20
-78.310164143880201
10
-21.589580527710588
20
-78.306788136800122
10
-24.450176707672711
20
-78.255013158162427
10
-25.387829295563336
20
-78.236778905232768
10
-26.821180335449846
20
-78.207739522298198
10
-28.133893958496721
20
-78.179930379231791
10
-28.646419993805559
20
-78.168753316243482
10
-29.563382617401714
20
-78.148354222615552
10
-31.339672557282121
20
-78.107317616780591
10
-33.902233592438336
20
-78.044718434651685
10
-34.087093821930523
20
-78.040045430501294
10
-37.422359935211773
20
-77.952536275227857
10
-38.445249549316998
20
-77.924469640096021
10
-40.758160106110196
20
-77.85901897176106
10
-43.226359836029587
20
-77.786244084676099
10
-45.762890330719571
20
-77.708510091145826
10
-48.309882632660518
20
-77.627648045857768
10
-50.768841258453946
20
-77.547110249837232
10
-53.784779063629756
20
-77.445305516560865
10
-55.283573619293819
20
-77.393568684895826
10
-59.804233066010127
20
-77.23345630391438
10
-60.319441310333858
20
-77.214850118001294
10
-65.798305026459317
20
-77.013271977742505
10
-66.674726954865093
20
-76.980446507771802
10
-68.187373629974928
20
-76.923454930623393
10
-71.181372157501812
20
-76.809462239583354
10
-73.571227542328444
20
-76.717384984334245
10
-74.639509669708815
20
-76.675957372029629
10
-75.311282626556959
20
-76.649817159016933
10
-77.244862071442213
20
-76.574219395955382
10
-80.550969592499357
20
-76.443890263875261
10
-82.87628029959167
20
-76.351498296101823
10
-83.753794185089689
20
-76.31648891194655
10
-92.125528804230314
20
-75.979689290364561
10
-94.630383006500821
20
-75.878237416585264
10
-95.370310298370939
20
-75.848234822591081
10
-102.61251305716
20
-75.556753804524647
10
-102.62697104219284
20
-75.556188826551789
10
-109.85685204641781
20
-75.273665120442644
10
-109.87275933401547
20
-75.247524907429948
10
-109.88850449697934
20
-75.221289326985612
10
-109.90408753530942
20
-75.194958379109636
10
-109.97471665518246
20
-75.070751836140929
10
-109.97935151236022
20
-75.062292744954362
10
-110.04175995962582
20
-74.944571187337218
10
-110.09137963430844
20
-74.845198323567644
10
-110.14821862356625
20
-74.724005391438737
10
-110.19266938345395
20
-74.622877766927061
10
-110.24371003286802
20
-74.498556783040272
10
-110.28297280447445
20
-74.395865132649675
10
-110.32800530569516
20
-74.268854787190691
10
-110.36208008902038
20
-74.164732625325456
10
-110.40089463369809
20
-74.035528828938737
10
-110.42981003897152
20
-73.930004765828386
10
-110.46222542898617
20
-73.799236943562761
10
-110.48599099295102
20
-73.69225375874835
10
-110.51187371389828
20
-73.560599019368468
10
-110.53048943655453
20
-73.452032735188737
10
-110.54979180471859
20
-73.320282628377214
10
-110.56320046560727
20
-73.209932973225847
10
-110.57591294424496
20
-73.07892673238112
10
-110.58404778616391
20
-72.966517140706358
10
-110.59024666922055
20
-72.837809254964171
10
-110.59298371450863
20
-72.722376515706358
10
-110.59292649404965
20
-72.596281697591081
10
-110.58997964041198
20
-72.478102376302061
10
-110.58428620474301
20
-72.360790898640929
10
-110.57504510061703
20
-72.234247853596983
10
-110.56456421987973
20
-72.125948598225847
10
-110.54821824209652
20
-71.991423299153624
10
-110.53379868643246
20
-71.89230792744948
10
-110.50956582205258
20
-71.750191380818691
10
-110.49206589834652
20
-71.660364796956358
10
-110.45918320791682
20
-71.511152913411394
10
-110.43943261282406
20
-71.430662801106678
10
-110.39716576712094
20
-71.274841954549089
10
-110.3760514177557
20
-71.203688313802061
10
-110.323694697785
20
-71.041849782307921
10
-110.30203675405942
20
-70.979946782429991
10
-110.23892258779965
20
-70.812719991048183
10
-110.21756981985531
20
-70.759943654378233
10
-110.14306878225766
20
-70.588015248616514
10
-110.12282227652038
20
-70.544165303548183
10
-110.03634308950863
20
-70.368250539143858
10
-110.01802300589047
20
-70.333098103841081
10
-109.91902207510434
20
-70.153969456990538
10
-109.90338181631527
20
-70.12719028218585
10
-109.79136323111022
20
-69.945677449544206
10
-109.77917527334652
20
-69.926918675740566
10
-109.69960068838559
20
-69.808844258626237
10
-109.65368127005063
20
-69.743860890706358
10
-109.61670731680356
20
-69.693077733357754
10
-109.50631951467953
20
-69.549006154378233
10
-109.47596406118832
20
-69.511240651448546
10
-109.34960221426449
20
-69.361599614461198
10
-109.3274674333807
20
-69.33657520039867
10
-109.18392037527526
20
-69.182051350911394
10
-109.17156075613461
20
-69.169348409016905
10
-109.00967454092465
20
-69.010819127400694
10
-109.00858735220393
20
-69.009817769368468
10
-108.83890008108578
20
-68.858212163289366
10
-108.82726525442563
20
-68.848303487141834
10
-108.6628231920477
20
-68.714741399129167
10
-108.63713120596371
20
-68.694895436604796
10
-108.48070000784359
20
-68.579615285237566
10
-108.43973969595395
20
-68.550947835286394
10
-108.29286431448422
20
-68.453043629964171
10
-108.23554848806823
20
-68.416823079427061
10
-108.09974526541198
20
-68.335245778401671
10
-108.02505349295102
20
-68.292826344807921
10
-107.90148591177426
20
-68.226317097981749
10
-107.80874108450375
20
-68.179272343953386
10
-107.71390771048031
20
-68.133629491170225
10
-107.58715485708679
20
-68.076399495442644
10
-107.52261017935238
20
-68.048876454671202
10
-107.36080025808774
20
-67.984493901570545
10
-107.32793664114438
20
-67.972201039632139
10
-107.13023041861022
20
-67.903746297200456
10
-106.76981452924211
20
-67.781132244471621
10
-106.65729552525625
20
-67.73899289312692
10
-106.41346860891481
20
-67.647526982143347
10
-106.2767932909488
20
-67.591522456472731
10
-106.06136372425402
20
-67.503019246475063
10
-105.9114580684499
20
-67.436159586189575
10
-105.71431118320604
20
-67.347939072417773
10
-105.56026825826139
20
-67.273513742107212
10
-105.37137258640981
20
-67.181861706491702
10
-105.21940981026903
20
-67.102616412881105
10
-105.0342677669036
20
-67.005603523532656
10
-104.88056814886205
20
-66.919373226507275
10
-104.70268659659052
20
-66.819027699379888
10
-104.55052263986458
20
-66.727432948566204
10
-104.37671140023168
20
-66.622159998638267
10
-104.22762324576824
20
-66.526082257329634
10
-104.05709063548875
20
-66.415440914509645
10
-103.91073510872117
20
-66.314658831543738
10
-103.74391669747338
20
-66.198936493502572
10
-103.59943083222555
20
-66.09278103030563
10
-103.43795877659672
20
-65.973206212745353
10
-103.29509763508371
20
-65.861362270763067
10
-103.13869749545914
20
-65.737863652479703
10
-102.99900275566399
20
-65.621433033064534
10
-102.84705688825076
20
-65.493626757179669
10
-102.70963222176418
20
-65.37177244152511
10
-102.56307720567216
20
-65.240542895630767
10
-102.42921840828826
20
-65.114336087426466
10
-102.28670151375196
20
-64.978542890839577
10
-102.15681488499798
20
-64.848345661609955
10
-102.01882042539579
20
-64.708466566784438
10
-101.89223828639483
20
-64.573574939398398
10
-101.75933782677659
20
-64.430248718236925
10
-101.63649295500781
20
-64.291037322672878
10
-101.50844315148431
20
-64.14406196507305
10
-101.38973019351697
20
-64.000932368155517
10
-101.26651220148331
20
-63.850334754632819
10
-101.15234206466793
20
-63.703792764497081
10
-101.03363075497329
20
-63.549183970602748
10
-100.92391668320174
20
-63.399102693370722
10
-100.81021355472772
20
-63.24112187528155
10
-100.70534692271372
20
-63.088063923301767
10
-100.59621092849062
20
-62.926082517215754
10
-100.4961486735595
20
-62.769997550941248
10
-100.39229568111472
20
-62.60506998682218
10
-100.29681532130002
20
-62.445603402266812
10
-100.19807136252518
20
-62.27745302122419
10
-100.10773871828172
20
-62.115538486498892
10
-100.01421835186405
20
-61.944368759988258
10
-99.928695154028006
20
-61.779411424899251
10
-99.84066142270494
20
-61.605711451555834
10
-99.760011735220132
20
-61.437766801573559
10
-99.677672570895851
20
-61.262015791833846
10
-99.602127797655825
20
-61.091537109613625
10
-99.525143683344965
20
-60.913034311093995
10
-99.455172512843987
20
-60.741128675303109
10
-99.383460786700638
20
-60.559607760693844
10
-99.318750246642239
20
-60.385548391370179
10
-99.252895304694974
20
-60.202467193272973
10
-99.193252765541274
20
-60.025660931108192
10
-99.133324247973334
20
-59.841326412767984
10
-99.078985373199814
20
-59.662349954077889
10
-99.024935424248341
20
-59.476762731818241
10
-98.976068738424857
20
-59.29611779824122
10
-98.927609513486047
20
-59.10821744360036
10
-98.884574879493925
20
-58.927337936994036
10
-98.841798059673081
20
-58.73735781784444
10
-98.804327874918968
20
-58.555319620944147
10
-98.767501115048887
20
-58.364389196482065
10
-98.735426074095031
20
-58.1801509909331
10
-98.704700369534009
20
-57.989210274914726
10
-98.678322405912965
20
-57.804489271468483
10
-98.653395892686987
20
-57.611777164554084
10
-98.632705193028997
20
-57.426505412404381
10
-98.61378637811201
20
-57.233411692858937
10
-98.598747288351674
20
-57.047284717176424
10
-98.585834933793265
20
-56.854033670815397
10
-98.576476953749662
20
-56.667152356647378
10
-98.569559752018861
20
-56.473788851261581
10
-98.565924142163169
20
-56.287002330916202
10
-98.564991110409309
20
-56.092955897925798
10
-98.567068743831044
20
-55.906495349116192
10
-98.572136003815828
20
-55.712669031777253
10
-98.57995415459834
20
-55.525543292396684
10
-98.59095053758233
20
-55.333116194003928
10
-98.604519473237119
20
-55.145788183867019
10
-98.618419105481166
20
-54.988348270086213
10
-98.672599747407546
20
-54.502420415732288
10
-98.68879548024735
20
-54.388403269545044
10
-98.723782939023238
20
-54.156857119153543
10
-98.746436780717261
20
-54.022731675895088
10
-98.787126149277512
20
-53.800238985464148
10
-98.813336645905835
20
-53.666554669733834
10
-98.862796331155408
20
-53.436590573932669
10
-98.88986464823644
20
-53.315520119756876
10
-98.961037683491512
20
-53.028195218029161
10
-98.975946090057846
20
-52.968892016493065
10
-99.070599462739594
20
-52.631822389946159
10
-99.249252443178534
20
-52.078895887296703
10
-99.294069616417261
20
-51.950430385424966
10
-99.359786159143425
20
-51.772874031531295
10
-99.428891691440612
20
-51.592900901095639
10
-99.500118689462042
20
-51.417290735104181
10
-99.574501072021576
20
-51.240146745648183
10
-99.651388686111048
20
-51.066173236863889
10
-99.731169410311423
20
-50.891534814862844
10
-99.813221994640145
20
-50.720356147556444
10
-99.898484247347284
20
-50.548035487725535
10
-99.98581186366107
20
-50.379398099646828
10
-100.07620137183454
20
-50.2101036428678
10
-100.16896960655171
20
-50.043730128507093
10
-100.26427223014082
20
-49.877806220546177
10
-100.36222678651126
20
-49.714199697268413
10
-100.46281375667061
20
-49.550996621753775
10
-100.56526767802364
20
-49.391259724360765
10
-100.67122651221908
20
-49.230677474328274
10
-100.77847662097568
20
-49.074293394677532
10
-100.87664350042968
20
-48.935097402095089
10
-101.13538381016465
20
-48.586576489916659
10
-101.20464276179572
20
-48.497150961192965
10
-101.3493541646157
20
-48.316777340702217
10
-101.43065476708867
20
-48.217337562018294
10
-101.60474896998591
20
-48.013592262090647
10
-101.66357922570597
20
-47.945391419811003
10
-101.90433362004143
20
-47.680684601838827
10
-101.96169819876016
20
-47.620899033239567
10
-102.15320399747036
20
-47.422998730216001
10
-102.24459258394322
20
-47.332679604469654
10
-102.41062839926241
20
-47.171401179753644
10
-102.51293127182666
20
-47.075545234197371
10
-102.67712656862528
20
-46.925648620393076
10
-102.78304214846858
20
-46.831582576162553
10
-102.95533260866844
20
-46.683806480519998
10
-103.05797138960003
20
-46.597444321452485
10
-103.25539522562579
20
-46.438448098574192
10
-103.33873776193542
20
-46.372053522422327
10
-103.62572510969483
20
-46.15521794047612
10
-103.6683625152655
20
-46.124845627929922
10
-103.91956324279445
20
-45.946986863173073
10
-104.02244263844267
20
-45.877803719671803
10
-104.22030412976879
20
-45.746711094467678
10
-104.3390406812176
20
-45.671444610151532
10
-104.52768319552402
20
-45.554695387363211
10
-104.65367668072258
20
-45.479536226939238
10
-104.84333253721883
20
-45.37012735919464
10
-104.96988661507257
20
-45.299216383231872
10
-105.23900123411619
20
-45.154879104728664
10
-105.27340887087895
20
-45.137125873735926
10
-105.55970593692223
20
-44.994801750093984
10
-105.64377880520698
20
-44.954736606272682
10
-105.90814925290712
20
-44.833367821831402
10
-105.95800288923979
20
-44.81091697050622
10
-106.29396049144958
20
-44.669107068080713
10
-106.35085226240508
20
-44.646962855543812
10
-106.63201734554391
20
-44.538397617072356
10
-106.75488014729439
20
-44.494432238620185
10
-106.97490219066341
20
-44.41720695880327
10
-107.11446706686627
20
-44.371572890094761
10
-107.32252592870601
20
-44.305713137222959
10
-107.46794207165419
20
-44.262576174257042
10
-107.67425515822644
20
-44.204224782435546
10
-107.82166158214022
20
-44.164895122744944
10
-108.030963192897
20
-44.112639587581867
10
-108.17671661042655
20
-44.078040076636562
10
-108.39447250582751
20
-44.030780158327893
10
-108.53321875671125
20
-44.00186694678392
10
-108.77342571113985
20
-43.957464870789231
10
-108.89143231279924
20
-43.936258469017126
10
-109.25076340811214
20
-43.881281545003247
10
-109.43186578851606
20
-43.853012253306417
10
-109.49211930410823
20
-43.84209029897049
42
-0.35932104473646947
10
-113.57113694326836
20
-38.943170239766417
10
-113.58500068348528
20
-35.805079783568999
10
-113.58933867750645
20
-34.95481044962672
10
-113.61387181718121
20
-31.550650551890396
10
-113.62179932322695
20
-30.717489505911804
10
-113.64797709529314
20
-28.125056854596817
10
-113.65344742637339
20
-27.649325257503907
10
-113.69413457785819
20
-24.559052606907752
10
-113.71073830034577
20
-23.4610839751039
10
-113.7606499914387
20
-20.402183297512213
10
-113.76203333168854
20
-20.325316289814968
10
-113.82784476103248
20
-16.942519887169656
10
-113.84980021386377
20
-15.916473267487081
10
-113.9098818973993
20
-13.253853656062002
10
-113.9292823448251
20
-12.432942695239486
10
-114.01419259419478
20
-9.1226192209944479
10
-114.03200730632156
20
-8.4720860951952481
10
-114.10188977270523
20
-6.0347644451855054
10
-114.14899238978792
20
-4.4425801134198117
10
-114.2551446510125
20
-1.0684086907724044
10
-114.28359135433895
20
-0.20952452703125957
10
-114.4150488908985
20
3.6531703674209659
10
-114.424101717114
20
3.9072543977644436
10
-114.59308241750728
20
8.55671528287548
10
-114.60507244805464
20
8.8749054415557005
10
-114.8081817040478
20
14.17301101862753
10
-114.81946863660399
20
14.458134467607238
10
-115.05718951647039
20
20.410469344350979
10
-115.09316990843382
20
21.301418331231865
10
-115.56645249502617
20
32.815818259874945
10
-115.60809945242363
20
33.825095663229604
10
-115.74321602957207
20
37.107322285334234
10
-115.85027550833183
20
39.722785422960882
10
-115.97305153982597
20
42.747107813517218
10
-116.00468491690117
20
43.531882832209234
10
-116.21624802725273
20
48.860251972834234
10
-116.27024506704765
20
50.24779445902503
10
-116.29170273916679
20
50.802863905588822
10
-116.30967950003105
20
51.269387076059978
10
-116.46097039358574
20
55.267800161997442
10
-116.4963803209539
20
56.224585840861003
10
-116.59856652395683
20
59.037970373789435
10
-116.67734002249199
20
61.268516848246257
10
-116.67983864920097
20
61.340507338205974
10
-116.7673764147039
20
63.897849390665726
10
-116.77293633596855
20
64.063118765513138
10
-116.84670304434258
20
66.294821570078568
10
-116.85190056936699
20
66.454809973398881
10
-116.85406541006523
20
66.550544569651322
10
-116.85438012258965
20
66.646307776133256
10
-116.8528542436834
20
66.742056677500443
10
-116.84800004141289
20
67.874549696604447
10
-116.84779023306328
20
67.897559473673539
10
-116.83341836111508
20
68.997963736216263
10
-116.83261727468926
20
69.043616125742631
10
-116.80934762136894
20
70.103508303324446
10
-116.80730675833183
20
70.180231402079301
10
-116.77586411611992
20
71.195837328592972
10
-116.77552829077152
20
71.204307170201346
10
-116.77524422781426
20
71.21346122996016
10
-116.73436974661308
20
72.245627710978226
10
-116.73307274954277
20
72.275077173868851
10
-116.68178414480649
20
73.328405687967972
10
-116.68108796255547
20
73.341409037272172
10
-116.62000512258965
20
74.39496643320723
10
-116.6190895952459
20
74.40956718699141
10
-116.54995774404961
20
75.43587333933516
10
-116.54835557119804
20
75.458060572306351
10
-116.47100304739433
20
76.464287111918168
10
-116.46826600210625
20
76.497842142740922
10
-116.38328408377129
20
77.480355570475297
10
-116.37883996145683
20
77.528907129923539
10
-116.30587433950859
20
78.294183085123734
10
-116.28687714712578
20
78.484231302897172
10
-116.26374100820976
20
78.710914919535355
10
-116.2098870195623
20
79.220300982157426
10
-116.18188714163261
20
79.476019213358597
10
-116.17403229650675
20
79.543833171623248
10
-116.15348672049004
20
79.729224512736039
10
-116.09036890646186
20
80.266132026639525
10
-116.06839036123711
20
80.455881426493363
10
-116.05788087027035
20
80.542489359537797
10
-115.99011277334648
20
81.086465189615922
10
-115.94649171011406
20
81.423956225077347
10
-115.91955994741875
20
81.627861330668168
10
-115.81628655569511
20
82.380377123514847
10
-115.77300881521664
20
82.683173487345414
10
-115.67786072866875
20
83.325296709696488
10
-115.61701630728203
20
83.720513651529984
10
-115.53129052298027
20
84.25881035105391
10
-115.4505047716375
20
84.748040506998734
10
-115.37667130606133
20
85.18109924570723
10
-115.34547031437695
20
85.355939172276436
10
-115.30870293753105
20
85.568734476725297
10
-115.25477425371554
20
85.864169575545759
10
-115.21406983511406
20
86.092263529459672
10
-115.159367076325
20
86.386834452311234
10
-115.10689512343299
20
86.658145647428526
10
-115.04358147757011
20
86.992441485087113
10
-114.97362946646172
20
87.347208330790238
10
-114.92340249332523
20
87.591777852181849
10
-114.86525391714531
20
87.881766626993851
10
-114.77875565664726
20
88.296104738871293
10
-114.67920159475761
20
88.760367701212573
10
-114.57638596670586
20
89.226523707071976
10
-114.48545312063652
20
89.62837822214766
10
-114.36349724905449
20
90.152918169657426
10
-114.28410386221367
20
90.48592216746016
10
-114.24719666616875
20
90.638619730631547
10
-114.09576272146664
20
91.251593897501664
10
-114.07522057669121
20
91.333123514811234
10
-113.93952225820976
20
91.862603495279984
10
-113.85885094778496
20
92.170111010233597
10
-113.7211117662664
20
92.68349296824141
10
-113.6350808061834
20
92.996984789530472
10
-113.49481438772636
20
93.497015307108597
10
-113.40394829885918
20
93.813897440592484
10
-113.26060151236018
20
94.303184816996293
10
-113.16551064627127
20
94.620963404337601
10
-113.12480967593622
20
94.753054729397093
10
-113.06592797415213
20
94.948126146952347
10
-112.97032164283235
20
95.254431694874285
10
-112.91983460562186
20
95.418282816569047
10
-112.86524628775076
20
95.591074297587113
10
-112.66696786062674
20
96.206003496805863
10
-112.60530327932791
20
96.393381426493363
10
-112.40694855825858
20
96.984201738993363
10
-112.33773087637381
20
97.186318705240893
10
-112.13983391897635
20
97.753030131022143
10
-112.06263398306326
20
97.969824144999222
10
-111.86567162649588
20
98.512564966837573
10
-111.82263154376099
20
98.627427567230797
10
-111.78191994802908
20
98.738976786295609
10
-111.68712596418167
20
98.989056129474704
10
-111.58449029104666
20
99.262963602701859
10
-111.49195527212576
20
99.503942797342944
10
-111.29632805960135
20
100.00429756418868
10
-111.25861977713065
20
100.09934074656169
10
-111.02032517569022
20
100.69008476511638
10
-111.00123261587576
20
100.73668606058757
10
-110.69922303335623
20
101.46024353281658
10
-110.68647240774588
20
101.49022705332439
10
-110.39034699575858
20
102.17507011667891
10
-110.34334992544608
20
102.28170044199629
10
-110.07461403982596
20
102.88126594797774
10
-110.03858422415213
20
102.96036369578047
10
-109.87258116492079
20
103.3182601533174
10
-109.75206231253104
20
103.57894069925948
10
-109.72495888845877
20
103.63652832285567
10
-109.55059803021175
20
104.0005450775373
10
-109.42270135061698
20
104.26819450632732
10
-109.4023404039617
20
104.31006557718916
10
-109.14648865835623
20
104.82932216898604
10
-109.08655976431326
20
104.94911796824141
0
LINE
5
101
100
AcDbEntity
8
0
100
AcDbLine
10
-109.43186578851606
20
-43.853012253306417
30
0
11
-109.43224763052424
21
-43.852952649434357
31
0
0
ENDSEC
0
SECTION
2
OBJECTS
0
DICTIONARY
5
C
100
AcDbDictionary
3
ACAD_GROUP
350
D
3
ACAD_MLINESTYLE
350
17
0
DICTIONARY
5
D
100
AcDbDictionary
0
DICTIONARY
5
1A
330
C
100
AcDbDictionary
0
DICTIONARY
5
17
100
AcDbDictionary
0
ENDSEC
0
EOF
