0
SECTION
2
HEADER
9
$INSUNITS
70
4
9
$ACADVER
1
AC1014
9
$HANDSEED
5
FFFF
0
ENDSEC
0
SECTION
2
TABLES
0
TABLE
2
VPORT
5
8
100
AcDbSymbolTable
0
ENDTAB
0
TABLE
2
LTYPE
5
5
100
AcDbSymbolTable
0
LTYPE
5
14
100
AcDbSymbolTableRecord
100
AcDbLinetypeTableRecord
2
BYBLOCK
70
0
0
LTYPE
5
15
100
AcDbSymbolTableRecord
100
AcDbLinetypeTableRecord
2
BYLAYER
70
0
0
LTYPE
5
16
100
AcDbSymbolTableRecord
100
AcDbLinetypeTableRecord
2
DASHED
70
0
3
Dashed __ __ __ __ __ __ __ __ __ __ __ __ __ _
72
65
73
2
40
0.75
49
0.5
74
0
49
-0.25
74
0
0
ENDTAB
0
TABLE
2
LAYER
5
2
100
AcDbSymbolTable
70
2
0
LAYER
5
50
100
AcDbSymbolTableRecord
100
AcDbLayerTableRecord
2
0
70
0
62
7
6
CONTINUOUS
0
ENDTAB
0
TABLE
2
STYLE
5
3
100
AcDbSymbolTable
70
1
0
STYLE
5
11
100
AcDbSymbolTableRecord
100
AcDbTextStyleTableRecord
2
STANDARD
70
0
0
ENDTAB
0
TABLE
2
VIEW
5
6
100
AcDbSymbolTable
70
0
0
ENDTAB
0
TABLE
2
UCS
5
7
100
AcDbSymbolTable
70
0
0
ENDTAB
0
TABLE
2
APPID
5
9
100
AcDbSymbolTable
70
2
0
APPID
5
12
100
AcDbSymbolTableRecord
100
AcDbRegAppTableRecord
2
ACAD
70
0
0
ENDTAB
0
TABLE
2
DIMSTYLE
5
A
100
AcDbSymbolTable
70
1
0
ENDTAB
0
TABLE
2
BLOCK_RECORD
5
1
100
AcDbSymbolTable
70
1
0
BLOCK_RECORD
5
1F
100
AcDbSymbolTableRecord
100
AcDbBlockTableRecord
2
*MODEL_SPACE
0
BLOCK_RECORD
5
1B
100
AcDbSymbolTableRecord
100
AcDbBlockTableRecord
2
*PAPER_SPACE
0
ENDTAB
0
ENDSEC
0
SECTION
2
BLOCKS
0
BLOCK
5
20
100
AcDbEntity
100
AcDbBlockBegin
2
*MODEL_SPACE
0
ENDBLK
5
21
100
AcDbEntity
100
AcDbBlockEnd
0
BLOCK
5
1C
100
AcDbEntity
100
AcDbBlockBegin
2
*PAPER_SPACE
0
ENDBLK
5
1D
100
AcDbEntity
100
AcDbBlockEnd
0
ENDSEC
0
SECTION
2
ENTITIES
0
LINE
5
100
100
AcDbEntity
8
0
100
AcDbLine
10
205.79710414601433
20
-143.34055477531436
30
0
11
204.62222714601413
21
-143.34055477531436
31
0
0
LINE
5
101
100
AcDbEntity
8
0
100
AcDbLine
10
29.567863146014055
20
-143.34055477531439
30
0
11
28.392986146013826
21
-143.34055477531439
31
0
0
LINE
5
102
100
AcDbEntity
8
0
100
AcDbLine
10
205.79710414601433
20
-143.34055477531436
30
0
11
207.61532414601413
21
-138.34503677531455
31
0
0
LINE
5
103
100
AcDbEntity
8
0
100
AcDbLine
10
204.62222714601413
20
-143.34055477531436
30
0
11
29.567863146014055
21
-143.34055477531439
31
0
0
LINE
5
104
100
AcDbEntity
8
0
100
AcDbLine
10
26.521743146014067
20
-138.19935577531439
30
0
11
28.339963146013858
21
-143.19487377531419
31
0
0
LINE
5
105
100
AcDbEntity
8
0
100
AcDbLine
10
23.041846146014038
20
-128.63841977531439
30
0
11
26.521743146014067
21
-138.19935577531439
31
0
0
LINE
5
106
100
AcDbEntity
8
0
100
AcDbLine
10
207.61532414601413
20
-138.34503677531455
30
0
11
211.09522014601424
21
-128.78410077531467
31
0
0
LINE
5
107
100
AcDbEntity
8
0
100
AcDbLine
10
211.14824414601389
20
-128.63841977531436
30
0
11
216.8956451460142
21
-112.8475637753144
31
0
0
LINE
5
108
100
AcDbEntity
8
0
100
AcDbLine
10
226.52749414601379
20
-106.10326977531443
30
0
11
233.88191614601382
21
-106.10326977531443
31
0
0
LINE
5
109
100
AcDbEntity
8
0
100
AcDbLine
10
0.30817014601380421
20
-106.10326977531446
30
0
11
7.6625961460140779
21
-106.10326977531446
31
0
0
LINE
5
110
100
AcDbEntity
8
0
100
AcDbLine
10
17.294445146014041
20
-112.84756377531444
30
0
11
23.041846146014038
21
-128.63841977531439
31
0
0
LINE
5
111
100
AcDbEntity
8
0
100
AcDbLine
10
0.30817014601380421
20
-106.10326977531446
30
0
11
1.4659051460139416
21
43.143859224685585
31
0
0
LINE
5
112
100
AcDbEntity
8
0
100
AcDbLine
10
232.72418114601379
20
43.143855224685517
30
0
11
233.88191614601382
21
-106.10326977531443
31
0
0
SPLINE
5
113
100
AcDbEntity
8
0
100
AcDbSpline
70
0
71
3
72
8
73
4
74
0
42
0.000000001
43
0.0000000001
44
0.0000000001
40
0
40
0
40
0
40
0
40
1
40
1
40
1
40
1
10
226.52749414601379
20
-106.10326977531543
30
0
10
222.2184106980018
20
-106.10326977531543
30
0
10
218.36943812145111
20
-108.79834938777904
30
0
10
216.89564478295952
20
-112.84756330622663
30
0
0
SPLINE
5
114
100
AcDbEntity
8
0
100
AcDbSpline
70
0
71
3
72
8
73
4
74
0
42
0.000000001
43
0.0000000001
44
0.0000000001
40
0
40
0
40
0
40
0
40
1
40
1
40
1
40
1
10
17.294445509063294
20
-112.84756330622858
30
0
10
15.820652170572558
20
-108.79834938778288
30
0
10
11.971679594023996
20
-106.10326977532128
30
0
10
7.6625961460140779
20
-106.10326977532128
30
0
0
SPLINE
5
115
100
AcDbEntity
8
0
100
AcDbSpline
70
0
71
3
72
8
73
4
74
0
42
0.000000001
43
0.0000000001
44
0.0000000001
40
0
40
0
40
0
40
0
40
1
40
1
40
1
40
1
10
1.665981671343264
20
56.286749328280607
30
0
10
1.5670412821219237
20
51.955233938561406
30
0
10
1.5003305098529474
20
47.571256202868909
30
0
10
1.4659870137836073
20
43.143862562326575
30
0
0
SPLINE
5
116
100
AcDbEntity
8
0
100
AcDbSpline
70
0
71
3
72
8
73
4
74
0
42
0.000000001
43
0.0000000001
44
0.0000000001
40
0
40
0
40
0
40
0
40
1
40
1
40
1
40
1
10
232.72409956534989
20
43.143859012839663
30
0
10
232.68975610084829
20
47.571248196592713
30
0
10
232.62304542561827
20
51.955221564805889
30
0
10
232.52410519842527
20
56.286732703728397
30
0
0
ELLIPSE
5
117
100
AcDbEntity
8
0
100
AcDbEllipse
10
147.09504614601406
20
59.187895224685448
30
0
11
-3.0500000000001077
21
-4.7723604502136922e-16
31
0.0
40
0.99788799999995215
41
0
42
6.2831853071795862
0
ELLIPSE
5
118
100
AcDbEntity
8
0
100
AcDbEllipse
10
127.09504614601398
20
59.187895224685448
30
0
11
-3.0500000000001077
21
-4.7723604502136922e-16
31
0.0
40
0.99788799999995215
41
0
42
6.2831853071795862
0
ELLIPSE
5
119
100
AcDbEntity
8
0
100
AcDbEllipse
10
107.09504614601403
20
59.187895224685448
30
0
11
-3.0499999999999479
21
-4.7723604502133362e-16
31
0.0
40
0.99788800000000466
41
0
42
6.2831853071795862
0
ELLIPSE
5
120
100
AcDbEntity
8
0
100
AcDbEllipse
10
87.095046146014027
20
59.187895224685434
30
0
11
-3.0499999999999479
21
-4.7723604502133362e-16
31
0.0
40
0.99788800000000466
41
0
42
6.2831853071795862
0
ELLIPSE
5
121
100
AcDbEntity
8
0
100
AcDbEllipse
10
67.095046146013985
20
59.187895224685434
30
0
11
-3.0499999999999479
21
-4.7723604502133362e-16
31
0.0
40
0.99788800000000466
41
0
42
6.2831853071795862
0
ELLIPSE
5
122
100
AcDbEntity
8
0
100
AcDbEllipse
10
37.095046146013999
20
36.735410224685481
30
0
11
-3.0500000000001881
21
-4.7723604502138707e-16
31
0.0
40
0.99788799999992606
41
0
42
6.2831853071795862
0
ELLIPSE
5
123
100
AcDbEntity
8
0
100
AcDbEllipse
10
47.095046146013999
20
44.219572224685777
30
0
11
-3.0500000000001881
21
-4.7723604502138707e-16
31
0.0
40
0.99788799999992606
41
0
42
6.2831853071795862
0
ELLIPSE
5
124
100
AcDbEntity
8
0
100
AcDbEllipse
10
147.09504614601406
20
44.219572224685791
30
0
11
-3.0500000000001077
21
-4.7723604502136922e-16
31
0.0
40
0.99788799999995215
41
0
42
6.2831853071795862
0
ELLIPSE
5
125
100
AcDbEntity
8
0
100
AcDbEllipse
10
67.095046146013999
20
44.219572224685777
30
0
11
-3.0499999999999479
21
-4.7723604502133362e-16
31
0.0
40
0.99788800000000466
41
0
42
6.2831853071795862
0
ELLIPSE
5
126
100
AcDbEntity
8
0
100
AcDbEllipse
10
167.095046146014
20
59.187895224685448
30
0
11
-3.0500000000002685
21
-4.7723604502140491e-16
31
0.0
40
0.99788799999989974
41
0
42
6.2831853071795862
0
ELLIPSE
5
127
100
AcDbEntity
8
0
100
AcDbEllipse
10
107.09504614601406
20
44.219572224685791
30
0
11
-3.0499999999999479
21
-4.7723604502133362e-16
31
0.0
40
0.99788800000000466
41
0
42
6.2831853071795862
0
ELLIPSE
5
128
100
AcDbEntity
8
0
100
AcDbEllipse
10
127.09504614601398
20
44.219572224685791
30
0
11
-3.0500000000001077
21
-4.7723604502136922e-16
31
0.0
40
0.99788799999995215
41
0
42
6.2831853071795862
0
ELLIPSE
5
129
100
AcDbEntity
8
0
100
AcDbEllipse
10
87.095046146014027
20
44.219572224685777
30
0
11
-3.0499999999999479
21
-4.7723604502133362e-16
31
0.0
40
0.99788800000000466
41
0
42
6.2831853071795862
0
ELLIPSE
5
130
100
AcDbEntity
8
0
100
AcDbEllipse
10
167.095046146014
20
44.219572224685791
30
0
11
-3.0500000000002685
21
-4.7723604502140491e-16
31
0.0
40
0.99788799999989974
41
0
42
6.2831853071795862
0
ELLIPSE
5
131
100
AcDbEntity
8
0
100
AcDbEllipse
10
187.09504614601406
20
44.219572224685813
30
0
11
-3.0500000000002685
21
-4.7723604502140491e-16
31
0.0
40
0.99788799999989974
41
0
42
6.2831853071795862
0
ELLIPSE
5
132
100
AcDbEntity
8
0
100
AcDbEllipse
10
177.09504414601409
20
51.70373422468554
30
0
11
-3.0499999999997867
21
-4.7723604502129802e-16
31
0.0
40
0.99788800000010991
41
0
42
6.2831853071795862
0
ELLIPSE
5
133
100
AcDbEntity
8
0
100
AcDbEllipse
10
137.095044146014
20
51.703734224685661
30
0
11
-3.0499999999997867
21
-4.7723604502129802e-16
31
0.0
40
0.99788799999995192
41
0
42
6.2831853071795862
0
ELLIPSE
5
134
100
AcDbEntity
8
0
100
AcDbEllipse
10
137.095044146014
20
36.735411224685578
30
0
11
-3.0499999999997867
21
-4.7723604502129802e-16
31
0.0
40
0.99788800000005717
41
0
42
6.2831853071795862
0
ELLIPSE
5
135
100
AcDbEntity
8
0
100
AcDbEllipse
10
177.09504414601409
20
36.735411224685592
30
0
11
-3.0499999999997867
21
-4.7723604502129802e-16
31
0.0
40
0.99788800000005717
41
0
42
6.2831853071795862
0
ELLIPSE
5
136
100
AcDbEntity
8
0
100
AcDbEllipse
10
157.095044146014
20
51.703734224685519
30
0
11
-3.0499999999997867
21
-4.7723604502129802e-16
31
0.0
40
0.99788800000010991
41
0
42
6.2831853071795862
0
ELLIPSE
5
137
100
AcDbEntity
8
0
100
AcDbEllipse
10
157.095044146014
20
36.735411224685592
30
0
11
-3.0499999999997867
21
-4.7723604502129802e-16
31
0.0
40
0.99788800000005717
41
0
42
6.2831853071795862
0
ELLIPSE
5
138
100
AcDbEntity
8
0
100
AcDbEllipse
10
197.09504414601417
20
36.735410224685516
30
0
11
-3.0499999999997867
21
-4.7723604502129802e-16
31
0.0
40
0.99788800000005717
41
0
42
6.2831853071795862
0
ELLIPSE
5
139
100
AcDbEntity
8
0
100
AcDbEllipse
10
57.095046146013821
20
51.703734224685505
30
0
11
-3.0499999999999479
21
-4.7723604502133362e-16
31
0.0
40
0.99788800000005762
41
0
42
6.2831853071795862
0
ELLIPSE
5
140
100
AcDbEntity
8
0
100
AcDbEllipse
10
97.095046146014027
20
51.703734224685661
30
0
11
-3.0499999999999479
21
-4.7723604502133362e-16
31
0.0
40
0.99788799999989963
41
0
42
6.2831853071795862
0
ELLIPSE
5
141
100
AcDbEntity
8
0
100
AcDbEllipse
10
97.095046146014027
20
36.735411224685571
30
0
11
-3.0499999999999479
21
-4.7723604502133362e-16
31
0.0
40
0.99788800000000466
41
0
42
6.2831853071795862
0
ELLIPSE
5
142
100
AcDbEntity
8
0
100
AcDbEllipse
10
57.095046146013821
20
36.735411224685564
30
0
11
-3.0499999999999479
21
-4.7723604502133362e-16
31
0.0
40
0.99788800000000466
41
0
42
6.2831853071795862
0
ELLIPSE
5
143
100
AcDbEntity
8
0
100
AcDbEllipse
10
77.095046146014013
20
51.703734224685505
30
0
11
-3.0499999999999479
21
-4.7723604502133362e-16
31
0.0
40
0.99788800000005762
41
0
42
6.2831853071795862
0
ELLIPSE
5
144
100
AcDbEntity
8
0
100
AcDbEllipse
10
117.09504614601398
20
51.703734224685661
30
0
11
-3.0499999999997867
21
-4.7723604502129802e-16
31
0.0
40
0.99788799999995192
41
0
42
6.2831853071795862
0
ELLIPSE
5
145
100
AcDbEntity
8
0
100
AcDbEllipse
10
117.09504614601398
20
36.735411224685578
30
0
11
-3.0499999999997867
21
-4.7723604502129802e-16
31
0.0
40
0.99788800000005717
41
0
42
6.2831853071795862
0
ELLIPSE
5
146
100
AcDbEntity
8
0
100
AcDbEllipse
10
77.095046146014013
20
36.735411224685571
30
0
11
-3.0499999999999479
21
-4.7723604502133362e-16
31
0.0
40
0.99788800000000466
41
0
42
6.2831853071795862
0
SPLINE
5
147
100
AcDbEntity
8
0
100
AcDbSpline
70
0
71
3
72
158
73
154
74
0
42
0.000000001
43
0.0000000001
44
0.0000000001
40
0
40
0
40
0
40
0
40
1
40
1
40
1
40
2
40
2
40
2
40
3
40
3
40
3
40
4
40
4
40
4
40
5
40
5
40
5
40
6
40
6
40
6
40
7
40
7
40
7
40
8
40
8
40
8
40
9
40
9
40
9
40
10
40
10
40
10
40
11
40
11
40
11
40
12
40
12
40
12
40
13
40
13
40
13
40
14
40
14
40
14
40
15
40
15
40
15
40
16
40
16
40
16
40
17
40
17
40
17
40
18
40
18
40
18
40
19
40
19
40
19
40
20
40
20
40
20
40
21
40
21
40
21
40
22
40
22
40
22
40
23
40
23
40
23
40
24
40
24
40
24
40
25
40
25
40
25
40
26
40
26
40
26
40
27
40
27
40
27
40
28
40
28
40
28
40
29
40
29
40
29
40
30
40
30
40
30
40
31
40
31
40
31
40
32
40
32
40
32
40
33
40
33
40
33
40
34
40
34
40
34
40
35
40
35
40
35
40
36
40
36
40
36
40
37
40
37
40
37
40
38
40
38
40
38
40
39
40
39
40
39
40
40
40
40
40
40
40
41
40
41
40
41
40
42
40
42
40
42
40
43
40
43
40
43
40
44
40
44
40
44
40
45
40
45
40
45
40
46
40
46
40
46
40
47
40
47
40
47
40
48
40
48
40
48
40
49
40
49
40
49
40
50
40
50
40
50
40
51
40
51
40
51
40
51
10
232.35131841247727
20
56.764737684068329
30
0
10
232.23832890725689
20
57.063242711507378
30
0
10
232.11784879982838
20
57.357408154789944
30
0
10
231.98988743143218
20
57.647239425642063
30
0
10
231.86192606303598
20
57.937070696493542
30
0
10
231.72648428015776
20
58.222568285315681
30
0
10
231.58344261581192
20
58.503662980445021
30
0
10
231.44040095146528
20
58.784757675574433
30
0
10
231.28976121315091
20
59.061450524162602
30
0
10
231.13125554501499
20
59.333586347361695
30
0
10
230.97274987687911
20
59.60572217056086
30
0
10
230.80638137525881
20
59.873302762194562
30
0
10
230.63169691959598
20
60.136065612688476
30
0
10
230.45701246393378
20
60.398828463182319
30
0
10
230.27398540563638
20
60.656758134016791
30
0
10
230.08235623126498
20
60.909704279415458
30
0
10
229.98654164407927
20
61.036177352114045
30
0
10
229.88857920612298
20
61.161406095063491
30
0
10
229.7884551758186
20
61.285382547254379
30
0
10
229.73839316066665
20
61.347370773350427
30
0
10
229.68779096355667
20
61.409046051968623
30
0
10
229.63664823929096
20
61.470408183123162
30
0
10
229.5855055150254
20
61.531770314278624
30
0
10
229.53379026967579
20
61.592855236688457
30
0
10
229.4817046201251
20
61.6534327933336
30
0
10
229.27336202192149
20
61.895743019914171
30
0
10
229.05853756433169
20
62.130595395933206
30
0
10
228.8377512581101
20
62.358588231575673
30
0
10
228.61696495188914
20
62.586581067218425
30
0
10
228.39021888493662
20
62.807716764766504
30
0
10
228.15815335486789
20
63.022732033187374
30
0
10
227.6940222947311
20
63.452762570028902
30
0
10
227.208804769023
20
63.8585315948961
30
0
10
226.7051481539016
20
64.243085106566468
30
0
10
226.45331984634117
20
64.435361862402118
30
0
10
226.19687292180888
20
64.622324563562159
30
0
10
225.93610031071339
20
64.80431024778153
30
0
10
225.8057140051659
20
64.895303089891911
30
0
10
225.67424597079167
20
64.985051324327515
30
0
10
225.54173114470166
20
65.073595148774189
30
0
10
225.4092163186111
20
65.16213897322092
30
0
10
225.27560596072612
20
65.24950696415101
30
0
10
225.14137254708578
20
65.335465253766756
30
0
10
224.6044388925273
20
65.679298412228945
30
0
10
224.0560516777758
20
66.001534649123414
30
0
10
223.49847603889117
20
66.306445122499611
30
0
10
223.2196882194483
20
66.458900359187993
30
0
10
222.93860408922745
20
66.60702565453488
30
0
10
222.65549641080787
20
66.751335331767649
30
0
10
222.37238873238766
20
66.895645009000447
30
0
10
222.08730084233133
20
67.036220783875422
30
0
10
221.8002785547892
20
67.173149043910712
30
0
10
221.65676741101811
20
67.241613173928812
30
0
10
221.5127179054451
20
67.309062164774048
30
0
10
221.36822768637501
20
67.375680142844942
30
0
10
221.22373746730418
20
67.442298120915495
30
0
10
221.07882385719637
20
67.508117749575433
30
0
10
220.9335169933361
20
67.573195855922449
30
0
10
220.78821012947577
20
67.638273962269466
30
0
10
220.64249102856689
20
67.702574751253508
30
0
10
220.49634438759838
20
67.766069367398842
30
0
10
220.35019774662999
20
67.829563983544176
30
0
10
220.20372691311826
20
67.892212772658837
30
0
10
220.05706093396248
20
67.954004303067734
30
0
10
219.470397017339
20
68.201170424701047
30
0
10
218.88004852099141
20
68.434958423840044
30
0
10
218.28698900140097
20
68.658903129100651
30
0
10
217.6939294818099
20
68.882847834361172
30
0
10
217.09808503635975
20
69.096680917110234
30
0
10
216.49993816993009
20
69.302154275762121
30
0
10
215.90179130349969
20
69.50762763441378
30
0
10
215.30134987755429
20
69.704769812693883
30
0
10
214.69902631747834
20
69.895078261531694
30
0
10
214.09670275740319
20
70.085386710370187
30
0
10
213.49248967874189
20
70.268834617982094
30
0
10
212.88674400274238
20
70.446717908606644
30
0
10
212.28099832674337
20
70.624601199231051
30
0
10
211.6737196300644
20
70.796918335782635
30
0
10
211.06514230644916
20
70.964520364631369
30
0
10
209.84798765921744
20
71.299724422328012
30
0
10
208.6255604056384
20
71.61578448562895
30
0
10
207.39872771032998
20
71.915849091234662
30
0
10
206.78531136267608
20
72.06588139403766
30
0
10
206.17082377094619
20
72.212024180113275
30
0
10
205.55519029726526
20
72.354006451218822
30
0
10
204.93955682358438
20
72.495988722323716
30
0
10
204.32275570293999
20
72.633731453160124
30
0
10
203.70475800107147
20
72.767129588032702
30
0
10
203.0867602992025
20
72.900527722905196
30
0
10
202.46756832730847
20
73.029589653412359
30
0
10
201.84707021658448
20
73.153909201726918
30
0
10
201.22657210585967
20
73.278228750041279
30
0
10
200.60476652997127
20
73.397801100455695
30
0
10
199.98158815817976
20
73.51238904745901
30
0
10
199.66999897228413
20
73.569683020960042
30
0
10
199.35806755120538
20
73.625734392987539
30
0
10
199.04579030288889
20
73.68053012135934
30
0
10
198.88965167873067
20
73.70792798554578
30
0
10
198.73340873701972
20
73.735014955566072
30
0
10
198.57717346825808
20
73.761771288117643
30
0
10
198.42093819949645
20
73.788527620669157
30
0
10
198.26469114995172
20
73.81495680665455
30
0
10
198.1084323538916
20
73.841059797671448
30
0
10
197.48339716965125
20
73.945471761741317
30
0
10
196.85817352881065
20
74.044650378477598
30
0
10
196.23276792935627
20
74.138776093749897
30
0
10
195.60736232990132
20
74.232901809021968
30
0
10
194.98177463712497
20
74.321970882077693
30
0
10
194.35601787067037
20
74.406344862028647
30
0
10
193.73026110421569
20
74.490718841980083
30
0
10
193.104335750703
20
74.570411242038517
30
0
10
192.47825851176799
20
74.645885858400646
30
0
10
191.22610403389649
20
74.796835091125786
30
0
10
189.97334596096096
20
74.931022784993615
30
0
10
188.72010809447417
20
75.051886847312062
30
0
10
187.46687022798724
20
75.172750909629798
30
0
10
186.21315061610727
20
75.280237138691348
30
0
10
184.95905414144201
20
75.377258073084732
30
0
10
183.70495766677678
20
75.474279007478032
30
0
10
182.45048451054785
20
75.560839679626952
30
0
10
181.19571422176853
20
75.639149126610647
30
0
10
179.94094393298928
20
75.71745857359349
30
0
10
178.68587751776664
20
75.787544734507605
30
0
10
177.43056600973176
20
75.850824788249128
30
0
10
176.17525450169671
20
75.914104841990479
30
0
10
174.91969710925275
20
75.970556806299953
30
0
10
173.663939426122
20
76.02144679649993
30
0
10
172.40818174299051
20
76.072336786699168
30
0
10
171.15222395307546
20
76.11766990965458
30
0
10
169.89610542457706
20
76.158539401006436
30
0
10
168.63998689607803
20
76.199408892359003
30
0
10
167.38370743886014
20
76.235809472102588
30
0
10
166.12729670244917
20
76.268564493081371
30
0
10
164.87088596603877
20
76.301319514060864
30
0
10
163.61434395043659
20
76.330428976275059
30
0
10
162.35769518755234
20
76.356574118841124
30
0
10
159.84439766178457
20
76.408864403974675
30
0
10
157.33067600189676
20
76.449376692670171
30
0
10
154.81667501887725
20
76.482132315034633
30
0
10
152.30267403585907
20
76.514887937398953
30
0
10
149.78839581202456
20
76.53994471831696
30
0
10
147.27394028368386
20
76.560077840061012
30
0
10
144.75948475534247
20
76.580210961804497
30
0
10
142.24485044492707
20
76.595379393041313
30
0
10
139.73009827084235
20
76.607274808001634
30
0
10
137.21534609675766
20
76.619170222961955
30
0
10
134.70047525986749
20
76.627770430024938
30
0
10
132.18552432997134
20
76.634146493596958
30
0
10
129.67057340007526
20
76.640522557169476
30
0
10
127.15554193586655
20
76.644662222394629
30
0
10
124.64045524057082
20
76.647268147414081
30
0
10
122.12536854527445
20
76.649874072433462
30
0
10
119.61022636659106
20
76.650939251172062
30
0
10
117.09504583003795
20
76.650939250514384
30
0
0
SPLINE
5
148
100
AcDbEntity
8
0
100
AcDbSpline
70
0
71
3
72
155
73
151
74
0
42
0.000000001
43
0.0000000001
44
0.0000000001
40
0
40
0
40
0
40
0
40
1
40
1
40
1
40
2
40
2
40
2
40
3
40
3
40
3
40
4
40
4
40
4
40
5
40
5
40
5
40
6
40
6
40
6
40
7
40
7
40
7
40
8
40
8
40
8
40
9
40
9
40
9
40
10
40
10
40
10
40
11
40
11
40
11
40
12
40
12
40
12
40
13
40
13
40
13
40
14
40
14
40
14
40
15
40
15
40
15
40
16
40
16
40
16
40
17
40
17
40
17
40
18
40
18
40
18
40
19
40
19
40
19
40
20
40
20
40
20
40
21
40
21
40
21
40
22
40
22
40
22
40
23
40
23
40
23
40
24
40
24
40
24
40
25
40
25
40
25
40
26
40
26
40
26
40
27
40
27
40
27
40
28
40
28
40
28
40
29
40
29
40
29
40
30
40
30
40
30
40
31
40
31
40
31
40
32
40
32
40
32
40
33
40
33
40
33
40
34
40
34
40
34
40
35
40
35
40
35
40
36
40
36
40
36
40
37
40
37
40
37
40
38
40
38
40
38
40
39
40
39
40
39
40
40
40
40
40
40
40
41
40
41
40
41
40
42
40
42
40
42
40
43
40
43
40
43
40
44
40
44
40
44
40
45
40
45
40
45
40
46
40
46
40
46
40
47
40
47
40
47
40
48
40
48
40
48
40
49
40
49
40
49
40
50
40
50
40
50
40
50
10
117.09504583004986
20
76.650939250515094
30
0
10
114.57415251326634
20
76.650939249855426
30
0
10
112.05325967791214
20
76.649897917075918
30
0
10
109.5323676108224
20
76.647319821952223
30
0
10
107.01147554373276
20
76.644741726827746
30
0
10
104.49058606284034
20
76.640633988549652
30
0
10
101.96970057552375
20
76.634267018204781
30
0
10
99.448815088206743
20
76.6279000478592
30
0
10
96.927935334491053
20
76.619286192571764
30
0
10
94.407070239956965
20
76.607318858863223
30
0
10
91.886205145422537
20
76.59535152515447
30
0
10
89.365355853623143
20
76.580052907239562
30
0
10
86.844544738479811
20
76.559686512573393
30
0
10
84.323733623336807
20
76.539320117906726
30
0
10
81.802962898168232
20
76.513910668818923
30
0
10
79.282288860187464
20
76.48068306541056
30
0
10
78.021951841197222
20
76.46406926370652
30
0
10
76.761642979479092
20
76.445493267195417
30
0
10
75.50137131132395
20
76.424511498598733
30
0
10
74.241099643168724
20
76.40352973000212
30
0
10
72.980871656814088
20
76.380144257830267
30
0
10
71.720700807457376
20
76.35379048260539
30
0
10
70.460529958100253
20
76.327436707380514
30
0
10
69.200421365743225
20
76.298116788469628
30
0
10
67.940412222510986
20
76.265114962924372
30
0
10
66.680403079278591
20
76.232113137378548
30
0
10
65.420482856700659
20
76.19543057235326
30
0
10
64.160714302921235
20
76.154172827505775
30
0
10
62.900945749141421
20
76.112915082658787
30
0
10
61.641339129998613
20
76.06708160873616
30
0
10
60.381946907962273
20
76.015592042621307
30
0
10
59.122554685925508
20
75.964102476507094
30
0
10
57.863391792149834
20
75.90694638900807
30
0
10
56.604579559498973
20
75.84293326281049
30
0
10
55.345767326848005
20
75.778920136612271
30
0
10
54.087326675152838
20
75.708092928631174
30
0
10
52.829380534065528
20
75.628849312713626
30
0
10
51.571434392977828
20
75.549605696796078
30
0
10
50.314009998007521
20
75.461933170623041
30
0
10
49.057420825131324
20
75.363671721881786
30
0
10
47.800831652255447
20
75.265410273139963
30
0
10
46.545125983570124
20
75.156568160510915
30
0
10
45.290637079909182
20
75.034348236788588
30
0
10
44.036148176248453
20
74.912128313065764
30
0
10
42.782947028577674
20
74.776582989173477
30
0
10
41.53178823582504
20
74.624140936270607
30
0
10
40.90620883944883
20
74.547919909819385
30
0
10
40.281150931877434
20
74.467451257850783
30
0
10
39.65672843354298
20
74.382312441669924
30
0
10
39.032305935208491
20
74.297173625488284
30
0
10
38.408514253406452
20
74.207370713384293
30
0
10
37.78549136927726
20
74.112669595825125
30
0
10
37.162468485148281
20
74.017968478266667
30
0
10
36.540255006270961
20
73.918394410573924
30
0
10
35.918881000562521
20
73.813766371609191
30
0
10
35.297506994854295
20
73.709138332643747
30
0
10
34.676941826456016
20
73.599369992045851
30
0
10
34.057323819061942
20
73.484548605615174
30
0
10
33.437705811668117
20
73.369727219184497
30
0
10
32.81907206209528
20
73.249964073369966
30
0
10
32.201382207142331
20
73.1254618236391
30
0
10
31.583692352189452
20
73.000959573907451
30
0
10
30.966924262262445
20
72.871688869968096
30
0
10
30.351088288799986
20
72.738078500506944
30
0
10
29.73525231533749
20
72.604468131045081
30
0
10
29.120329661601296
20
72.466554544810649
30
0
10
28.506436105969328
20
72.324482558921943
30
0
10
27.892542550337325
20
72.182410573032669
30
0
10
27.279749022046467
20
72.036089954874711
30
0
10
26.668021468465781
20
71.885652225822412
30
0
10
26.056293914884918
20
71.735214496769473
30
0
10
25.445610928730673
20
71.580742338108934
30
0
10
24.835966547728781
20
71.422258777912191
30
0
10
24.226322166727137
20
71.263775217716088
30
0
10
23.617727235237176
20
71.101238371846591
30
0
10
23.010442401606497
20
70.933641538983423
30
0
10
22.706799984791139
20
70.849843122551306
30
0
10
22.403487825080965
20
70.76476915510213
30
0
10
22.100540704027303
20
70.678285299955164
30
0
10
21.797593582973782
20
70.591801444808908
30
0
10
21.494935583702777
20
70.503896853614592
30
0
10
21.192941481995824
20
70.414590324397039
30
0
10
20.588953278581847
20
70.235977265962646
30
0
10
19.987464019843308
20
70.051724363711116
30
0
10
19.388785917016129
20
69.861126991155444
30
0
10
18.79010781418895
20
69.670529618598778
30
0
10
18.194215306503345
20
69.473645463589406
30
0
10
17.601572806868795
20
69.269426397169624
30
0
10
17.008930307234316
20
69.065207330749985
30
0
10
16.41956868686929
20
68.853583679969006
30
0
10
15.834373776900428
20
68.632556221213576
30
0
10
15.249178866931707
20
68.411528762458929
30
0
10
14.668149293215045
20
68.181100597021285
30
0
10
14.092473793338804
20
67.93858887465511
30
0
10
13.516798293462848
20
67.696077152289149
30
0
10
12.94651243517901
20
67.441401600482607
30
0
10
12.382915651326947
20
67.171629541960201
30
0
10
12.101117259400915
20
67.036743512699104
30
0
10
11.820993473191415
20
66.898078082160595
30
0
10
11.542609683565637
20
66.755485670336796
30
0
10
11.26422589393977
20
66.612893258512983
30
0
10
10.987570295328499
20
66.466400509277278
30
0
10
10.712544863074616
20
66.316228653519914
30
0
10
10.437519430820448
20
66.166056797762621
30
0
10
10.16423310943475
20
66.011959959682386
30
0
10
9.8932123362770064
20
65.852750027946016
30
0
10
9.6221915631194754
20
65.69354009620929
30
0
10
9.3534148972094933
20
65.529265460755596
30
0
10
9.087028559874728
20
65.359596116100093
30
0
10
8.8206422225399628
20
65.189926771444874
30
0
10
8.5566650301920255
20
65.014820251012452
30
0
10
8.2953739223274603
20
64.833651532757472
30
0
10
8.1647283683951777
20
64.743067173629839
30
0
10
8.0347549345168012
20
64.650965913321471
30
0
10
7.9054922509838299
20
64.557260567503917
30
0
10
7.8408609092172732
20
64.510407894595033
30
0
10
7.7764072550372454
20
64.463154200308551
30
0
10
7.7121364686648697
20
64.415487793455227
30
0
10
7.6478656822927782
20
64.367821386601264
30
0
10
7.5838560503739139
20
64.319799897005922
30
0
10
7.5201970601809798
20
64.271480877102206
30
0
10
7.2655610994107356
20
64.078204797487984
30
0
10
7.0161034075823103
20
63.879868195012207
30
0
10
6.7721931365414356
20
63.676110311790936
30
0
10
6.5282828655005609
20
63.472352428569735
30
0
10
6.2899644002635036
20
63.263129888835849
30
0
10
6.0576665466836666
20
63.048023637136538
30
0
10
5.8253686931043269
20
62.83291738543744
30
0
10
5.5990924047655177
20
62.611926489873952
30
0
10
5.379069129857772
20
62.384824765040236
30
0
10
5.1590458549500262
20
62.157723040206875
30
0
10
4.9452385181927561
20
61.92454671834858
30
0
10
4.7380110394167652
20
61.684940154625906
30
0
10
4.5307835606406321
20
61.445333590903871
30
0
10
4.3301359398457784
20
61.199296785317387
30
0
10
4.136502030798983
20
60.946405749283898
30
0
10
4.039685076275763
20
60.819960231267757
30
0
10
3.9446227621592733
20
60.69179997074022
30
0
10
3.8513767976458446
20
60.561864661678925
30
0
10
3.8047538153892368
20
60.496897007148277
30
0
10
3.7585844974678118
20
60.431486003930161
30
0
10
3.7128703495995019
20
60.365630180544358
30
0
10
3.6671562017309789
20
60.299774357158626
30
0
10
3.6219005259909132
20
60.233476217319279
30
0
10
3.5772392213659465
20
60.166941843178407
30
0
10
3.2199487843655028
20
59.634666850051431
30
0
10
2.8983686305419276
20
59.083990058656099
30
0
10
2.6095082746032894
20
58.516452490295151
30
0
10
2.3206479186645801
20
57.948914921933564
30
0
10
2.0645073606106656
20
57.364516576605652
30
0
10
1.8383383101189033
20
56.764673670583562
30
0
0
SPLINE
5
149
100
AcDbEntity
8
0
100
AcDbSpline
70
0
71
3
72
44
73
40
74
0
42
0.000000001
43
0.0000000001
44
0.0000000001
40
0
40
0
40
0
40
0
40
1
40
1
40
1
40
2
40
2
40
2
40
3
40
3
40
3
40
4
40
4
40
4
40
5
40
5
40
5
40
6
40
6
40
6
40
7
40
7
40
7
40
8
40
8
40
8
40
9
40
9
40
9
40
10
40
10
40
10
40
11
40
11
40
11
40
12
40
12
40
12
40
13
40
13
40
13
40
13
10
220.66297946163388
20
18.46997002708715
30
0
10
220.93787077150367
20
17.645864131260502
30
0
10
221.40075310411729
20
16.884940302965134
30
0
10
222.00547276385609
20
16.262379860792635
30
0
10
222.61019242359487
20
15.63981941861992
30
0
10
223.3567494104588
20
15.155622362570069
30
0
10
224.17044510496737
20
14.85753237027299
30
0
10
224.98414079947599
20
14.559442377976124
30
0
10
225.86497520162979
20
14.447459449432669
30
0
10
226.7265844242533
20
14.532119179159464
30
0
10
227.58819364687727
20
14.616778908886117
30
0
10
228.43057768997159
20
14.898081296882308
30
0
10
229.16990765033296
20
15.347757955237951
30
0
10
229.90923761069519
20
15.797434613593522
30
0
10
230.54551348832391
20
16.415485542307906
30
0
10
231.01779357416143
20
17.142839057790518
30
0
10
231.49007365999898
20
17.87019257327313
30
0
10
231.79835795404489
20
18.706848675523247
30
0
10
231.9073969957247
20
19.567280056540682
30
0
10
232.05278238463148
20
20.714521897896645
30
0
10
231.84395399155378
20
21.904030901504512
30
0
10
231.32043470222521
20
22.939707757984465
30
0
10
231.05867505756129
20
23.457546186224469
30
0
10
230.7182426888341
20
23.936926577682449
30
0
10
230.31383268429661
20
24.350520029003455
30
0
10
229.10060267068269
20
25.591300382967894
30
0
10
227.31157393476991
20
26.239998275705823
30
0
10
225.59028469283567
20
26.075155549579101
30
0
10
224.72964007186818
20
25.992734186515456
30
0
10
223.8859303243957
20
25.706927668736306
30
0
10
223.14609011133376
20
25.256325048649551
30
0
10
222.40624989827262
20
24.805722428563719
30
0
10
221.77027921962201
20
24.190323706170282
30
0
10
221.29888594537994
20
23.464294452727508
30
0
10
220.82749267113797
20
22.738265199285088
30
0
10
220.5206768013046
20
21.901605414791909
30
0
10
220.41082567146111
20
21.04055809569946
30
0
10
220.30097454161762
20
20.1795107766063
30
0
10
220.38808815176421
20
19.29407592291323
30
0
10
220.66297946163388
20
18.46997002708715
30
0
0
SPLINE
5
150
100
AcDbEntity
8
0
100
AcDbSpline
70
0
71
3
72
44
73
40
74
0
42
0.000000001
43
0.0000000001
44
0.0000000001
40
0
40
0
40
0
40
0
40
1
40
1
40
1
40
2
40
2
40
2
40
3
40
3
40
3
40
4
40
4
40
4
40
5
40
5
40
5
40
6
40
6
40
6
40
7
40
7
40
7
40
8
40
8
40
8
40
9
40
9
40
9
40
10
40
10
40
10
40
11
40
11
40
11
40
12
40
12
40
12
40
13
40
13
40
13
40
13
10
13.554712318397044
20
18.46997002708661
30
0
10
13.829603628267186
20
19.294075922913187
30
0
10
13.916241819845787
20
20.180521083515607
30
0
10
13.806377535038159
20
21.041458052806583
30
0
10
13.696513250230602
20
21.902395022096705
30
0
10
13.390146489036958
20
22.737823800076093
30
0
10
12.918356654028322
20
23.464716531496912
30
0
10
12.446566819019544
20
24.191609262917659
30
0
10
11.809353910195988
20
24.809965947780121
30
0
10
11.069465730134258
20
25.259516208465904
30
0
10
10.329577550072617
20
25.709066469151615
30
0
10
9.4870140987727503
20
25.989810305661571
30
0
10
8.6257881598669606
20
26.074029376404575
30
0
10
7.7645622209609577
20
26.158248447147933
30
0
10
6.8846737944493164
20
26.04594275212434
30
0
10
6.070316952492778
20
25.747765945267879
30
0
10
5.2559601105364528
20
25.449589138411277
30
0
10
4.5071348531347333
20
24.965541219721096
30
0
10
3.9033853675072727
20
24.342866905175306
30
0
10
3.0983860533374674
20
23.512634485780872
30
0
10
2.5512992223213082
20
22.435955140421193
30
0
10
2.348216931192102
20
21.293372749657131
30
0
10
2.2466757856278186
20
20.722081554275384
30
0
10
2.231135775034776
20
20.134314597541795
30
0
10
2.306251051847088
20
19.560750268398401
30
0
10
2.5315968822840951
20
17.840057280965944
30
0
10
3.5728402993673036
20
16.247187941837264
30
0
10
5.0483819142804442
20
15.34566187433219
30
0
10
5.7861527217368014
20
14.894898840580222
30
0
10
6.6324980786508014
20
14.616971624733477
30
0
10
7.4947028994986375
20
14.533195959474536
30
0
10
8.3569077203464026
20
14.449420294215667
30
0
10
9.2349720051285011
20
14.559796179543536
30
0
10
10.047835032672356
20
14.857452983007757
30
0
10
10.860698060215928
20
15.155109786471126
30
0
10
11.608359830521628
20
15.64004750807177
30
0
10
12.21314056759919
20
16.262736094268586
30
0
10
12.817921304676965
20
16.885424680465402
30
0
10
13.279821008526902
20
17.645864131259891
30
0
10
13.554712318397044
20
18.46997002708661
30
0
0
SPLINE
5
151
100
AcDbEntity
8
0
100
AcDbSpline
70
0
71
3
72
8
73
4
74
0
42
0.000000001
43
0.0000000001
44
0.0000000001
40
0
40
0
40
0
40
0
40
1
40
1
40
1
40
1
10
1.8383383101474671
20
56.764673670540006
30
0
10
1.7785858469724936
20
56.606198663341146
30
0
10
1.7211332190810147
20
56.446879393345014
30
0
10
1.665900506943121
20
56.286745682302438
30
0
0
SPLINE
5
152
100
AcDbEntity
8
0
100
AcDbSpline
70
0
71
3
72
8
73
4
74
0
42
0.000000001
43
0.0000000001
44
0.0000000001
40
0
40
0
40
0
40
0
40
1
40
1
40
1
40
1
10
232.52419667215372
20
56.286729821473038
30
0
10
232.46891966591662
20
56.446929032158302
30
0
10
232.41130201697013
20
56.606268410554428
30
0
10
232.35131841248176
20
56.764737683714124
30
0
0
ENDSEC
0
SECTION
2
OBJECTS
0
DICTIONARY
5
C
100
AcDbDictionary
3
ACAD_GROUP
350
D
3
ACAD_MLINESTYLE
350
17
0
DICTIONARY
5
D
100
AcDbDictionary
0
DICTIONARY
5
1A
330
C
100
AcDbDictionary
0
DICTIONARY
5
17
100
AcDbDictionary
0
ENDSEC
0
EOF
