0
SECTION
2
HEADER
9
$INSUNITS
70
4
9
$ACADVER
1
AC1014
9
$HANDSEED
5
FFFF
0
ENDSEC
0
SECTION
2
TABLES
0
TABLE
2
VPORT
5
8
100
AcDbSymbolTable
0
ENDTAB
0
TABLE
2
LTYPE
5
5
100
AcDbSymbolTable
0
LTYPE
5
14
100
AcDbSymbolTableRecord
100
AcDbLinetypeTableRecord
2
BYBLOCK
70
0
0
LTYPE
5
15
100
AcDbSymbolTableRecord
100
AcDbLinetypeTableRecord
2
BYLAYER
70
0
0
LTYPE
5
16
100
AcDbSymbolTableRecord
100
AcDbLinetypeTableRecord
2
DASHED
70
0
3
Dashed __ __ __ __ __ __ __ __ __ __ __ __ __ _
72
65
73
2
40
0.75
49
0.5
74
0
49
-0.25
74
0
0
ENDTAB
0
TABLE
2
LAYER
5
2
100
AcDbSymbolTable
70
2
0
LAYER
5
50
100
AcDbSymbolTableRecord
100
AcDbLayerTableRecord
2
0
70
0
62
7
6
CONTINUOUS
0
ENDTAB
0
TABLE
2
STYLE
5
3
100
AcDbSymbolTable
70
1
0
STYLE
5
11
100
AcDbSymbolTableRecord
100
AcDbTextStyleTableRecord
2
STANDARD
70
0
0
ENDTAB
0
TABLE
2
VIEW
5
6
100
AcDbSymbolTable
70
0
0
ENDTAB
0
TABLE
2
UCS
5
7
100
AcDbSymbolTable
70
0
0
ENDTAB
0
TABLE
2
APPID
5
9
100
AcDbSymbolTable
70
2
0
APPID
5
12
100
AcDbSymbolTableRecord
100
AcDbRegAppTableRecord
2
ACAD
70
0
0
ENDTAB
0
TABLE
2
DIMSTYLE
5
A
100
AcDbSymbolTable
70
1
0
ENDTAB
0
TABLE
2
BLOCK_RECORD
5
1
100
AcDbSymbolTable
70
1
0
BLOCK_RECORD
5
1F
100
AcDbSymbolTableRecord
100
AcDbBlockTableRecord
2
*MODEL_SPACE
0
BLOCK_RECORD
5
1B
100
AcDbSymbolTableRecord
100
AcDbBlockTableRecord
2
*PAPER_SPACE
0
ENDTAB
0
ENDSEC
0
SECTION
2
BLOCKS
0
BLOCK
5
20
100
AcDbEntity
100
AcDbBlockBegin
2
*MODEL_SPACE
0
ENDBLK
5
21
100
AcDbEntity
100
AcDbBlockEnd
0
BLOCK
5
1C
100
AcDbEntity
100
AcDbBlockBegin
2
*PAPER_SPACE
0
ENDBLK
5
1D
100
AcDbEntity
100
AcDbBlockEnd
0
ENDSEC
0
SECTION
2
ENTITIES
0
LINE
5
100
100
AcDbEntity
8
0
100
AcDbLine
10
-38.339363251027621
20
-89.173152866265966
30
0
11
30.750369560200959
21
-89.140382766728706
31
0
0
SPLINE
5
101
100
AcDbEntity
8
0
100
AcDbSpline
70
0
71
3
72
8
73
4
74
0
42
0.000000001
43
0.0000000001
44
0.0000000001
40
0
40
0
40
0
40
0
40
1
40
1
40
1
40
1
10
30.750369560197264
20
-89.140382766738981
30
0
10
37.002350549709746
20
-89.131143786193277
30
0
10
39.462625364200257
20
-89.127420006174859
30
0
10
43.551532988277835
20
-89.12044979979521
30
0
0
SPLINE
5
102
100
AcDbEntity
8
0
100
AcDbSpline
70
0
71
3
72
14
73
10
74
0
42
0.000000001
43
0.0000000001
44
0.0000000001
40
0
40
0
40
0
40
0
40
0.25
40
0.25
40
0.5
40
0.5
40
0.75
40
0.75
40
1
40
1
40
1
40
1
10
43.551532988277835
20
-89.12044979979521
30
0
10
48.797762078998161
20
-89.094083414589761
30
0
10
51.424200021185023
20
-89.024279001813383
30
0
10
59.279420323301757
20
-88.681390205123435
30
0
10
63.221694151851651
20
-88.426392435534808
30
0
10
71.039448845609314
20
-87.75751410064214
30
0
10
74.971885330033672
20
-87.338640305359803
30
0
10
82.763395222963254
20
-86.347351908541796
30
0
10
85.369956056735077
20
-85.983779242735139
30
0
10
90.543883147304427
20
-85.115377857062981
30
0
0
SPLINE
5
103
100
AcDbEntity
8
0
100
AcDbSpline
70
0
71
3
72
8
73
4
74
0
42
0.000000001
43
0.0000000001
44
0.0000000001
40
0
40
0
40
0
40
0
40
1
40
1
40
1
40
1
10
90.543883147304427
20
-85.115377857062981
30
0
10
91.233952304499269
20
-84.895397342664296
30
0
10
91.362931990514113
20
-84.78808699300896
30
0
10
91.704598701958389
20
-84.1494626018806
30
0
0
SPLINE
5
104
100
AcDbEntity
8
0
100
AcDbSpline
70
0
71
3
72
8
73
4
74
0
42
0.000000001
43
0.0000000001
44
0.0000000001
40
0
40
0
40
0
40
0
40
1
40
1
40
1
40
1
10
91.704598701958446
20
-84.149462601880714
30
0
10
92.609887581152435
20
-81.649788180835714
30
0
10
93.054485141787097
20
-80.42271024189256
30
0
10
94.420547360312383
20
-76.65046904854178
30
0
0
SPLINE
5
105
100
AcDbEntity
8
0
100
AcDbSpline
70
0
71
3
72
8
73
4
74
0
42
0.000000001
43
0.0000000001
44
0.0000000001
40
0
40
0
40
0
40
0
40
1
40
1
40
1
40
1
10
94.42054736031227
20
-76.65046904854178
30
0
10
96.188035521907835
20
-72.086090917804711
30
0
10
97.457638949840344
20
-70.86118514043649
30
0
10
102.09325868198945
20
-69.288906398957621
30
0
0
SPLINE
5
106
100
AcDbEntity
8
0
100
AcDbSpline
70
0
71
3
72
8
73
4
74
0
42
0.000000001
43
0.0000000001
44
0.0000000001
40
0
40
0
40
0
40
0
40
1
40
1
40
1
40
1
10
102.09325868198945
20
-69.288906398957621
30
0
10
102.14392897401123
20
-69.273916502479139
30
0
10
102.1945992660329
20
-69.258926606000713
30
0
10
102.2452695580547
20
-69.243936709522245
30
0
0
SPLINE
5
107
100
AcDbEntity
8
0
100
AcDbSpline
70
0
71
3
72
8
73
4
74
0
42
0.000000001
43
0.0000000001
44
0.0000000001
40
0
40
0
40
0
40
0
40
1
40
1
40
1
40
1
10
102.2452695580547
20
-69.243936709522245
30
0
10
103.67127915631407
20
-68.83376834261334
30
0
10
104.04770226385004
20
-68.777751291519863
30
0
10
105.53026335411509
20
-68.718610560075902
30
0
0
SPLINE
5
108
100
AcDbEntity
8
0
100
AcDbSpline
70
0
71
3
72
8
73
4
74
0
42
0.000000001
43
0.0000000001
44
0.0000000001
40
0
40
0
40
0
40
0
40
1
40
1
40
1
40
1
10
105.53026335411509
20
-68.718610560075902
30
0
10
105.59768506537218
20
-68.717784667933458
30
0
10
105.6651067766294
20
-68.716958775791213
30
0
10
105.73252848788648
20
-68.716132883648726
30
0
0
SPLINE
5
109
100
AcDbEntity
8
0
100
AcDbSpline
70
0
71
3
72
8
73
4
74
0
42
0.000000001
43
0.0000000001
44
0.0000000001
40
0
40
0
40
0
40
0
40
1
40
1
40
1
40
1
10
105.73252848788648
20
-68.716132883648726
30
0
10
107.43237853149502
20
-68.709620368547704
30
0
10
109.07611475023337
20
-68.703467605515428
30
0
10
110.66373714410155
20
-68.697674594552012
30
0
0
SPLINE
5
110
100
AcDbEntity
8
0
100
AcDbSpline
70
0
71
3
72
8
73
4
74
0
42
0.000000001
43
0.0000000001
44
0.0000000001
40
0
40
0
40
0
40
0
40
1
40
1
40
1
40
1
10
110.66373714410155
20
-68.697674594551927
30
0
10
111.70373180955053
20
-68.531855382508709
30
0
10
112.00011133187338
20
-68.233346016747234
30
0
10
112.15851208387626
20
-67.192192110501523
30
0
0
SPLINE
5
111
100
AcDbEntity
8
0
100
AcDbSpline
70
0
71
3
72
8
73
4
74
0
42
0.000000001
43
0.0000000001
44
0.0000000001
40
0
40
0
40
0
40
0
40
1
40
1
40
1
40
1
10
112.15851208387626
20
-67.192192110501523
30
0
10
112.15398321560698
20
-65.895745978647852
30
0
10
112.14812670763891
20
-64.180540931434564
30
0
10
112.14094255997175
20
-62.046576968861743
30
0
0
SPLINE
5
112
100
AcDbEntity
8
0
100
AcDbSpline
70
0
71
3
72
8
73
4
74
0
42
0.000000001
43
0.0000000001
44
0.0000000001
40
0
40
0
40
0
40
0
40
1
40
1
40
1
40
1
10
112.14094255997175
20
-62.046576968861743
30
0
10
112.13931138780495
20
-61.594771015889464
30
0
10
112.137757865246
20
-61.142963181509927
30
0
10
112.13628199229497
20
-60.691153465723019
30
0
0
SPLINE
5
113
100
AcDbEntity
8
0
100
AcDbSpline
70
0
71
3
72
14
73
10
74
0
42
0.000000001
43
0.0000000001
44
0.0000000001
40
0
40
0
40
0
40
0
40
0.12500000000000014
40
0.12500000000000014
40
0.25000000000000028
40
0.25000000000000028
40
0.4999999999999995
40
0.4999999999999995
40
1
40
1
40
1
40
1
10
112.13628199229497
20
-60.691153465723019
30
0
10
112.1267149696444
20
-58.274782444313175
30
0
10
112.10648805762105
20
-53.513964304300892
30
0
10
112.06428766712662
20
-46.204841709783224
30
0
10
112.03984111982898
20
-42.674239163025192
30
0
10
111.95059323999921
20
-31.734907776846129
30
0
10
111.87468274416936
20
-24.608727137658732
30
0
10
111.58641547024622
20
-2.8784818569877402
30
0
10
111.34373506854573
20
10.447735054513281
30
0
10
110.97412530664435
20
25.954502132640869
30
0
0
SPLINE
5
114
100
AcDbEntity
8
0
100
AcDbSpline
70
0
71
3
72
8
73
4
74
0
42
0.000000001
43
0.0000000001
44
0.0000000001
40
0
40
0
40
0
40
0
40
1
40
1
40
1
40
1
10
110.97412530664435
20
25.954502132640869
30
0
10
110.94979448714419
20
26.957630302253008
30
0
10
110.92546366764417
20
27.960758471865326
30
0
10
110.901132848144
20
28.963886641477536
30
0
0
SPLINE
5
115
100
AcDbEntity
8
0
100
AcDbSpline
70
0
71
3
72
8
73
4
74
0
42
0.000000001
43
0.0000000001
44
0.0000000001
40
0
40
0
40
0
40
0
40
1
40
1
40
1
40
1
10
110.90113284814393
20
28.963886641477536
30
0
10
110.76171450162313
20
34.614537211799501
30
0
10
110.63791429249903
20
39.271929683205293
30
0
10
110.47570950843699
20
45.018053852246958
30
0
0
SPLINE
5
116
100
AcDbEntity
8
0
100
AcDbSpline
70
0
71
3
72
8
73
4
74
0
42
0.000000001
43
0.0000000001
44
0.0000000001
40
0
40
0
40
0
40
0
40
1
40
1
40
1
40
1
10
110.47570950843699
20
45.018053852246958
30
0
10
110.42596361478132
20
46.774729032371631
30
0
10
110.3903404379907
20
48.014462299533136
30
0
10
110.33691788736711
20
49.853006552704144
30
0
0
SPLINE
5
117
100
AcDbEntity
8
0
100
AcDbSpline
70
0
71
3
72
8
73
4
74
0
42
0.000000001
43
0.0000000001
44
0.0000000001
40
0
40
0
40
0
40
0
40
1
40
1
40
1
40
1
10
110.33691788736711
20
49.853006552704144
30
0
10
110.15030640406202
20
50.872073733824017
30
0
10
109.85634820183044
20
51.156577654330597
30
0
10
108.83172202962811
20
51.309771991102124
30
0
0
SPLINE
5
118
100
AcDbEntity
8
0
100
AcDbSpline
70
0
71
3
72
8
73
4
74
0
42
0.000000001
43
0.0000000001
44
0.0000000001
40
0
40
0
40
0
40
0
40
1
40
1
40
1
40
1
10
108.83172202962811
20
51.309771991102124
30
0
10
107.62801389265476
20
51.30544415104584
30
0
10
106.44965727670751
20
51.301559286738119
30
0
10
105.29665218178636
20
51.298117398178675
30
0
0
SPLINE
5
119
100
AcDbEntity
8
0
100
AcDbSpline
70
0
71
3
72
8
73
4
74
0
42
0.000000001
43
0.0000000001
44
0.0000000001
40
0
40
0
40
0
40
0
40
1
40
1
40
1
40
1
10
105.29665218178636
20
51.298117398178675
30
0
10
95.826259323395604
20
51.572838530005924
30
0
10
95.759354172414106
20
64.484452770622028
30
0
10
105.22697591526857
20
64.848468647263644
30
0
0
SPLINE
5
120
100
AcDbEntity
8
0
100
AcDbSpline
70
0
71
3
72
8
73
4
74
0
42
0.000000001
43
0.0000000001
44
0.0000000001
40
0
40
0
40
0
40
0
40
1
40
1
40
1
40
1
10
105.22697591526857
20
64.848468647263644
30
0
10
106.25477601347626
20
64.854620283234041
30
0
10
107.28257611168402
20
64.860771919204652
30
0
10
108.31037620989179
20
64.866923555175262
30
0
0
SPLINE
5
121
100
AcDbEntity
8
0
100
AcDbSpline
70
0
71
3
72
8
73
4
74
0
42
0.000000001
43
0.0000000001
44
0.0000000001
40
0
40
0
40
0
40
0
40
1
40
1
40
1
40
1
10
108.31037620989186
20
64.866923555175262
30
0
10
109.36829934549898
20
65.04111619432777
30
0
10
109.66879688364422
20
65.353914523999066
30
0
10
109.80059112942499
20
66.417954096108218
30
0
0
SPLINE
5
122
100
AcDbEntity
8
0
100
AcDbSpline
70
0
71
3
72
8
73
4
74
0
42
0.000000001
43
0.0000000001
44
0.0000000001
40
0
40
0
40
0
40
0
40
1
40
1
40
1
40
1
10
109.80059112942499
20
66.417954096108218
30
0
10
109.79234736833099
20
66.660912018913976
30
0
10
109.78410360723693
20
66.903869941719591
30
0
10
109.77585984614286
20
67.146827864525278
30
0
0
SPLINE
5
123
100
AcDbEntity
8
0
100
AcDbSpline
70
0
71
3
72
8
73
4
74
0
42
0.000000001
43
0.0000000001
44
0.0000000001
40
0
40
0
40
0
40
0
40
1
40
1
40
1
40
1
10
109.77585984614294
20
67.146827864525278
30
0
10
109.61390946381528
20
71.873245142623176
30
0
10
109.48241796094592
20
75.562330307703604
30
0
10
109.30814540340627
20
80.26797214430097
30
0
0
SPLINE
5
124
100
AcDbEntity
8
0
100
AcDbSpline
70
0
71
3
72
8
73
4
74
0
42
0.000000001
43
0.0000000001
44
0.0000000001
40
0
40
0
40
0
40
0
40
1
40
1
40
1
40
1
10
109.30814540340627
20
80.26797214430097
30
0
10
109.26026176689405
20
81.583847351718433
30
0
10
109.24969967927261
20
81.912875308676831
30
0
10
109.21311447177729
20
83.229113106953534
30
0
0
SPLINE
5
125
100
AcDbEntity
8
0
100
AcDbSpline
70
0
71
3
72
8
73
4
74
0
42
0.000000001
43
0.0000000001
44
0.0000000001
40
0
40
0
40
0
40
0
40
1
40
1
40
1
40
1
10
109.21311447177736
20
83.229113106953534
30
0
10
109.18792173792554
20
84.1852111237597
30
0
10
109.18231876434888
20
84.424256159956812
30
0
10
109.16270640094211
20
85.3804849255188
30
0
0
SPLINE
5
126
100
AcDbEntity
8
0
100
AcDbSpline
70
0
71
3
72
8
73
4
74
0
42
0.000000001
43
0.0000000001
44
0.0000000001
40
0
40
0
40
0
40
0
40
1
40
1
40
1
40
1
10
109.16270640094211
20
85.3804849255188
30
0
10
109.09568540042507
20
87.846330393381891
30
0
10
109.06969061059037
20
88.485138666764769
30
0
10
108.41583042868933
20
90.864015976862078
30
0
0
SPLINE
5
127
100
AcDbEntity
8
0
100
AcDbSpline
70
0
71
3
72
8
73
4
74
0
42
0.000000001
43
0.0000000001
44
0.0000000001
40
0
40
0
40
0
40
0
40
1
40
1
40
1
40
1
10
108.4158304286894
20
90.864015976862078
30
0
10
107.50062654461367
20
94.24372327302433
30
0
10
107.03213388085871
20
95.134198760876643
30
0
10
104.56078343480328
20
97.614796096496519
30
0
0
SPLINE
5
128
100
AcDbEntity
8
0
100
AcDbSpline
70
0
71
3
72
8
73
4
74
0
42
0.000000001
43
0.0000000001
44
0.0000000001
40
0
40
0
40
0
40
0
40
1
40
1
40
1
40
1
10
104.56078343480328
20
97.614796096496519
30
0
10
103.55215538368384
20
98.572106793812821
30
0
10
103.27625935183832
20
98.788875476926847
30
0
10
102.14216208444284
20
99.593468178768418
30
0
0
SPLINE
5
129
100
AcDbEntity
8
0
100
AcDbSpline
70
0
71
3
72
8
73
4
74
0
42
0.000000001
43
0.0000000001
44
0.0000000001
40
0
40
0
40
0
40
0
40
1
40
1
40
1
40
1
10
102.14216208444284
20
99.593468178768418
30
0
10
96.18976566929814
20
103.64033943165606
30
0
10
94.197913370433142
20
103.85279424078124
30
0
10
87.306271911562376
20
105.92760996031853
30
0
0
SPLINE
5
130
100
AcDbEntity
8
0
100
AcDbSpline
70
0
71
3
72
8
73
4
74
0
42
0.000000001
43
0.0000000001
44
0.0000000001
40
0
40
0
40
0
40
0
40
1
40
1
40
1
40
1
10
87.306271911562376
20
105.92760996031853
30
0
10
84.836800637816978
20
106.66188209794288
30
0
10
84.215294056588732
20
106.83364714678677
30
0
10
81.715401891580655
20
107.45653596088661
30
0
0
SPLINE
5
131
100
AcDbEntity
8
0
100
AcDbSpline
70
0
71
3
72
8
73
4
74
0
42
0.000000001
43
0.0000000001
44
0.0000000001
40
0
40
0
40
0
40
0
40
1
40
1
40
1
40
1
10
81.715401891580626
20
107.4565359608867
30
0
10
80.952135137780346
20
107.64366264252854
30
0
10
80.761048155349187
20
107.68931288561095
30
0
10
79.995618615114978
20
107.8673863243969
30
0
0
SPLINE
5
132
100
AcDbEntity
8
0
100
AcDbSpline
70
0
71
3
72
8
73
4
74
0
42
0.000000001
43
0.0000000001
44
0.0000000001
40
0
40
0
40
0
40
0
40
1
40
1
40
1
40
1
10
79.995618615114978
20
107.8673863243969
30
0
10
70.006575950979339
20
110.13749287865079
30
0
10
67.395880456313364
20
110.23357675292513
30
0
10
57.174363413695986
20
110.90751038642075
30
0
0
SPLINE
5
133
100
AcDbEntity
8
0
100
AcDbSpline
70
0
71
3
72
8
73
4
74
0
42
0.000000001
43
0.0000000001
44
0.0000000001
40
0
40
0
40
0
40
0
40
1
40
1
40
1
40
1
10
57.174363413695986
20
110.90751038642075
30
0
10
55.685043011463371
20
111.00301179463858
30
0
10
55.312554738210444
20
111.0246356044114
30
0
10
53.822314767306878
20
111.10454234453937
30
0
0
SPLINE
5
134
100
AcDbEntity
8
0
100
AcDbSpline
70
0
71
3
72
8
73
4
74
0
42
0.000000001
43
0.0000000001
44
0.0000000001
40
0
40
0
40
0
40
0
40
1
40
1
40
1
40
1
10
53.822314767306878
20
111.10454234453937
30
0
10
49.681769506723725
20
111.32009148069503
30
0
10
48.645432052402313
20
111.35468303551232
30
0
10
44.500874974860629
20
111.46963356397376
30
0
0
SPLINE
5
135
100
AcDbEntity
8
0
100
AcDbSpline
70
0
71
3
72
8
73
4
74
0
42
0.000000001
43
0.0000000001
44
0.0000000001
40
0
40
0
40
0
40
0
40
1
40
1
40
1
40
1
10
44.500874974860629
20
111.46963356397376
30
0
10
44.149502718326197
20
111.4787865385139
30
0
10
43.7981304617918
20
111.48793951305419
30
0
10
43.446758205257332
20
111.49709248759447
30
0
0
SPLINE
5
136
100
AcDbEntity
8
0
100
AcDbSpline
70
0
71
3
72
8
73
4
74
0
42
0.000000001
43
0.0000000001
44
0.0000000001
40
0
40
0
40
0
40
0
40
1
40
1
40
1
40
1
10
43.446758205257332
20
111.49709248759447
30
0
10
42.947348529729261
20
111.50894579197652
30
0
10
42.44793885420119
20
111.52079909635884
30
0
10
41.948529178673084
20
111.53265240074089
30
0
0
SPLINE
5
137
100
AcDbEntity
8
0
100
AcDbSpline
70
0
71
3
72
8
73
4
74
0
42
0.000000001
43
0.0000000001
44
0.0000000001
40
0
40
0
40
0
40
0
40
1
40
1
40
1
40
1
10
41.948529178673084
20
111.53265240074089
30
0
10
38.060006256628114
20
111.61972751133891
30
0
10
36.575242719596162
20
111.64261583027408
30
0
10
32.666361149342755
20
111.69147715623478
30
0
0
SPLINE
5
138
100
AcDbEntity
8
0
100
AcDbSpline
70
0
71
3
72
8
73
4
74
0
42
0.000000001
43
0.0000000001
44
0.0000000001
40
0
40
0
40
0
40
0
40
1
40
1
40
1
40
1
10
32.666361149342755
20
111.69147715623478
30
0
10
28.113745905659933
20
111.746724870891
30
0
10
25.786072845605617
20
111.76484635097327
30
0
10
21.181294482039661
20
111.79179538075402
30
0
0
SPLINE
5
139
100
AcDbEntity
8
0
100
AcDbSpline
70
0
71
3
72
8
73
4
74
0
42
0.000000001
43
0.0000000001
44
0.0000000001
40
0
40
0
40
0
40
0
40
1
40
1
40
1
40
1
10
21.181294482039661
20
111.79179538075402
30
0
10
11.762695446751117
20
111.84521833324531
30
0
10
4.9863090940154464
20
111.85097238307343
30
0
10
-3.8896733065815425
20
111.84715741181755
30
0
0
SPLINE
5
140
100
AcDbEntity
8
0
100
AcDbSpline
70
0
71
3
72
8
73
4
74
0
42
0.000000001
43
0.0000000001
44
0.0000000001
40
0
40
0
40
0
40
0
40
1
40
1
40
1
40
1
10
-3.8896733065815425
20
111.84715741181755
30
0
10
-12.959557182906671
20
111.84244602541256
30
0
10
-19.622120228814808
20
111.82987351770826
30
0
10
-28.960773351655718
20
111.76806489884342
30
0
0
SPLINE
5
141
100
AcDbEntity
8
0
100
AcDbSpline
70
0
71
3
72
8
73
4
74
0
42
0.000000001
43
0.0000000001
44
0.0000000001
40
0
40
0
40
0
40
0
40
1
40
1
40
1
40
1
10
-28.960773351655718
20
111.76806489884342
30
0
10
-33.565428554034895
20
111.73675833204911
30
0
10
-35.893174892025961
20
111.71643316188906
30
0
10
-40.44574123011806
20
111.65687677222643
30
0
0
SPLINE
5
142
100
AcDbEntity
8
0
100
AcDbSpline
70
0
71
3
72
8
73
4
74
0
42
0.000000001
43
0.0000000001
44
0.0000000001
40
0
40
0
40
0
40
0
40
1
40
1
40
1
40
1
10
-40.44574123011806
20
111.65687677222643
30
0
10
-44.354553752867503
20
111.6043164780654
30
0
10
-45.839721113288938
20
111.58002053230007
30
0
10
-49.727754694546924
20
111.48926900429387
30
0
0
SPLINE
5
143
100
AcDbEntity
8
0
100
AcDbSpline
70
0
71
3
72
8
73
4
74
0
42
0.000000001
43
0.0000000001
44
0.0000000001
40
0
40
0
40
0
40
0
40
1
40
1
40
1
40
1
10
-49.727754694546924
20
111.48926900429387
30
0
10
-50.227152502465522
20
111.47694250535224
30
0
10
-50.726550310383907
20
111.46461600641082
30
0
10
-51.22594811830254
20
111.45228950746919
30
0
0
SPLINE
5
144
100
AcDbEntity
8
0
100
AcDbSpline
70
0
71
3
72
8
73
4
74
0
42
0.000000001
43
0.0000000001
44
0.0000000001
40
0
40
0
40
0
40
0
40
1
40
1
40
1
40
1
10
-51.22594811830254
20
111.45228950746919
30
0
10
-51.577311095808902
20
111.44280380545545
30
0
10
-51.928674073315335
20
111.43331810344154
30
0
10
-52.280037050821697
20
111.4238324014278
30
0
0
SPLINE
5
145
100
AcDbEntity
8
0
100
AcDbSpline
70
0
71
3
72
8
73
4
74
0
42
0.000000001
43
0.0000000001
44
0.0000000001
40
0
40
0
40
0
40
0
40
1
40
1
40
1
40
1
10
-52.280037050821697
20
111.4238324014278
30
0
10
-56.424482180323032
20
111.30496105218057
30
0
10
-57.460786178069654
20
111.26939155129125
30
0
10
-61.601124510671127
20
111.04992900753612
30
0
0
SPLINE
5
146
100
AcDbEntity
8
0
100
AcDbSpline
70
0
71
3
72
8
73
4
74
0
42
0.000000001
43
0.0000000001
44
0.0000000001
40
0
40
0
40
0
40
0
40
1
40
1
40
1
40
1
10
-61.601124510671127
20
111.04992900753612
30
0
10
-63.09128849964614
20
110.96861374492659
30
0
10
-63.463756220619359
20
110.94663787710661
30
0
10
-64.9529859072763
20
110.84972890870301
30
0
0
SPLINE
5
147
100
AcDbEntity
8
0
100
AcDbSpline
70
0
71
3
72
8
73
4
74
0
42
0.000000001
43
0.0000000001
44
0.0000000001
40
0
40
0
40
0
40
0
40
1
40
1
40
1
40
1
10
-64.9529859072763
20
110.84972890870301
30
0
10
-75.173862768915569
20
110.16613504679012
30
0
10
-77.78446274897459
20
110.06756914563513
30
0
10
-87.771362214370214
20
107.78804670814151
30
0
0
SPLINE
5
148
100
AcDbEntity
8
0
100
AcDbSpline
70
0
71
3
72
8
73
4
74
0
42
0.000000001
43
0.0000000001
44
0.0000000001
40
0
40
0
40
0
40
0
40
1
40
1
40
1
40
1
10
-87.771362214370214
20
107.78804670814151
30
0
10
-88.536625133923224
20
107.60924927797302
30
0
10
-88.727669449980269
20
107.56341853210432
30
0
10
-89.490761496396544
20
107.37557181868286
30
0
0
SPLINE
5
149
100
AcDbEntity
8
0
100
AcDbSpline
70
0
71
3
72
8
73
4
74
0
42
0.000000001
43
0.0000000001
44
0.0000000001
40
0
40
0
40
0
40
0
40
1
40
1
40
1
40
1
10
-89.490761496396544
20
107.37557181868286
30
0
10
-91.990064099619644
20
106.7503204815456
30
0
10
-92.61140864799188
20
106.57797013644856
30
0
10
-95.080185986018051
20
105.84136723307961
30
0
0
SPLINE
5
150
100
AcDbEntity
8
0
100
AcDbSpline
70
0
71
3
72
8
73
4
74
0
42
0.000000001
43
0.0000000001
44
0.0000000001
40
0
40
0
40
0
40
0
40
1
40
1
40
1
40
1
10
-95.080185986018051
20
105.84136723307961
30
0
10
-101.96986951659449
20
103.76004784995186
30
0
10
-103.96151909836618
20
103.54571167209289
30
0
10
-109.91010254902896
20
99.493231917393388
30
0
0
SPLINE
5
151
100
AcDbEntity
8
0
100
AcDbSpline
70
0
71
3
72
8
73
4
74
0
42
0.000000001
43
0.0000000001
44
0.0000000001
40
0
40
0
40
0
40
0
40
1
40
1
40
1
40
1
10
-109.91010254902896
20
99.493231917393388
30
0
10
-111.04344136450976
20
98.687570924469128
30
0
10
-111.31913310352495
20
98.470542429048606
30
0
10
-112.32685917136784
20
97.512282043290028
30
0
0
SPLINE
5
152
100
AcDbEntity
8
0
100
AcDbSpline
70
0
71
3
72
8
73
4
74
0
42
0.000000001
43
0.0000000001
44
0.0000000001
40
0
40
0
40
0
40
0
40
1
40
1
40
1
40
1
10
-112.32685917136784
20
97.512282043290028
30
0
10
-114.7958741989391
20
95.029356227221768
30
0
10
-115.26283831807454
20
94.138246085556219
30
0
10
-116.17570091164282
20
90.75791169824754
30
0
0
SPLINE
5
153
100
AcDbEntity
8
0
100
AcDbSpline
70
0
71
3
72
8
73
4
74
0
42
0.000000001
43
0.0000000001
44
0.0000000001
40
0
40
0
40
0
40
0
40
1
40
1
40
1
40
1
10
-116.17570091164282
20
90.75791169824754
30
0
10
-116.8267319690721
20
88.378261038166698
30
0
10
-116.85256663000729
20
87.739543574111394
30
0
10
-116.9172686872917
20
85.273632302344396
30
0
0
SPLINE
5
154
100
AcDbEntity
8
0
100
AcDbSpline
70
0
71
3
72
8
73
4
74
0
42
0.000000001
43
0.0000000001
44
0.0000000001
40
0
40
0
40
0
40
0
40
1
40
1
40
1
40
1
10
-116.9172686872917
20
85.273632302344396
30
0
10
-116.93598123050819
20
84.317383054158313
30
0
10
-116.94135931671489
20
84.078332240473628
30
0
10
-116.96565205178061
20
83.122208482189166
30
0
0
SPLINE
5
155
100
AcDbEntity
8
0
100
AcDbSpline
70
0
71
3
72
8
73
4
74
0
42
0.000000001
43
0.0000000001
44
0.0000000001
40
0
40
0
40
0
40
0
40
1
40
1
40
1
40
1
10
-116.96565205178061
20
83.122208482189166
30
0
10
-117.00099856262163
20
81.805932909623749
30
0
10
-117.0112509615668
20
81.476894177497428
30
0
10
-117.05789509495666
20
80.16097052149081
30
0
0
SPLINE
5
156
100
AcDbEntity
8
0
100
AcDbSpline
70
0
71
3
72
8
73
4
74
0
42
0.000000001
43
0.0000000001
44
0.0000000001
40
0
40
0
40
0
40
0
40
1
40
1
40
1
40
1
10
-117.05789509495666
20
80.16097052149081
30
0
10
-117.22794990072936
20
75.44922145803298
30
0
10
-117.35579442125486
20
71.764676742666254
30
0
10
-117.51324507935232
20
67.039357840922634
30
0
0
SPLINE
5
157
100
AcDbEntity
8
0
100
AcDbSpline
70
0
71
3
72
8
73
4
74
0
42
0.000000001
43
0.0000000001
44
0.0000000001
40
0
40
0
40
0
40
0
40
1
40
1
40
1
40
1
10
-117.51324507935232
20
67.039357840922634
30
0
10
-117.52125947014216
20
66.796392616468012
30
0
10
-117.52927386093207
20
66.55342739201356
30
0
10
-117.53728825172183
20
66.310462167559024
30
0
0
SPLINE
5
158
100
AcDbEntity
8
0
100
AcDbSpline
70
0
71
3
72
8
73
4
74
0
42
0.000000001
43
0.0000000001
44
0.0000000001
40
0
40
0
40
0
40
0
40
1
40
1
40
1
40
1
10
-117.53728825172183
20
66.310462167559024
30
0
10
-117.40450115007492
20
65.24654591575154
30
0
10
-117.10369811496386
20
64.934052323510485
30
0
10
-116.04561469796189
20
64.760833995930113
30
0
0
SPLINE
5
159
100
AcDbEntity
8
0
100
AcDbSpline
70
0
71
3
72
8
73
4
74
0
42
0.000000001
43
0.0000000001
44
0.0000000001
40
0
40
0
40
0
40
0
40
1
40
1
40
1
40
1
10
-116.04561469796189
20
64.760833995930113
30
0
10
-115.01780882060417
20
64.755650293652025
30
0
10
-113.99000294324645
20
64.750466591373652
30
0
10
-112.96219706588866
20
64.745282889095364
30
0
0
SPLINE
5
160
100
AcDbEntity
8
0
100
AcDbSpline
70
0
71
3
72
8
73
4
74
0
42
0.000000001
43
0.0000000001
44
0.0000000001
40
0
40
0
40
0
40
0
40
1
40
1
40
1
40
1
10
-112.96219706588866
20
64.745282889095364
30
0
10
-103.49415316566501
20
64.39015217240626
30
0
10
-103.54890740343416
20
51.478416143418393
30
0
10
-113.01911823825863
20
51.194620432871858
30
0
0
SPLINE
5
161
100
AcDbEntity
8
0
100
AcDbSpline
70
0
71
3
72
8
73
4
74
0
42
0.000000001
43
0.0000000001
44
0.0000000001
40
0
40
0
40
0
40
0
40
1
40
1
40
1
40
1
10
-113.01911823825863
20
51.194620432871858
30
0
10
-114.1743786980466
20
51.196963459336438
30
0
10
-115.35274161082009
20
51.199720300171627
30
0
10
-116.55420697657968
20
51.20289095537732
30
0
0
SPLINE
5
162
100
AcDbEntity
8
0
100
AcDbSpline
70
0
71
3
72
8
73
4
74
0
42
0.000000001
43
0.0000000001
44
0.0000000001
40
0
40
0
40
0
40
0
40
1
40
1
40
1
40
1
10
-116.55420697657968
20
51.20289095537732
30
0
10
-117.57868134230429
20
51.04876858432231
30
0
10
-117.87234724385713
20
50.763934266686448
30
0
10
-118.05801329188769
20
49.744684216105348
30
0
0
SPLINE
5
163
100
AcDbEntity
8
0
100
AcDbSpline
70
0
71
3
72
8
73
4
74
0
42
0.000000001
43
0.0000000001
44
0.0000000001
40
0
40
0
40
0
40
0
40
1
40
1
40
1
40
1
10
-118.05801329188769
20
49.744684216105348
30
0
10
-118.10975482555664
20
47.90344962183962
30
0
10
-118.14439382469965
20
46.656579960929214
30
0
10
-118.19219421306096
20
44.909587711653849
30
0
0
SPLINE
5
164
100
AcDbEntity
8
0
100
AcDbSpline
70
0
71
3
72
8
73
4
74
0
42
0.000000001
43
0.0000000001
44
0.0000000001
40
0
40
0
40
0
40
0
40
1
40
1
40
1
40
1
10
-118.19219421306096
20
44.909587711653849
30
0
10
-118.34876540868039
20
39.169568747347618
30
0
10
-118.46828800771442
20
34.505867618897916
30
0
10
-118.60232305435049
20
28.854954601890412
30
0
0
SPLINE
5
165
100
AcDbEntity
8
0
100
AcDbSpline
70
0
71
3
72
8
73
4
74
0
42
0.000000001
43
0.0000000001
44
0.0000000001
40
0
40
0
40
0
40
0
40
1
40
1
40
1
40
1
10
-118.60232305435049
20
28.854954601890412
30
0
10
-118.62569774547362
20
27.851800426851163
30
0
10
-118.64907243659667
20
26.848646251811985
30
0
10
-118.67244712771958
20
25.845492076772807
30
0
0
SPLINE
5
166
100
AcDbEntity
8
0
100
AcDbSpline
70
0
71
3
72
8
73
4
74
0
42
0.000000001
43
0.0000000001
44
0.0000000001
40
0
40
0
40
0
40
0
40
1
40
1
40
1
40
1
10
-118.67244712771958
20
25.845492076772807
30
0
10
-119.38483459165769
20
-5.2880313181751859
30
0
10
-119.66780129424532
20
-30.184042790107419
30
0
10
-119.75196432160133
20
-60.801249620538314
30
0
0
SPLINE
5
167
100
AcDbEntity
8
0
100
AcDbSpline
70
0
71
3
72
8
73
4
74
0
42
0.000000001
43
0.0000000001
44
0.0000000001
40
0
40
0
40
0
40
0
40
1
40
1
40
1
40
1
10
-119.75196432160133
20
-60.801249620538314
30
0
10
-119.7531395119176
20
-61.253059031562373
30
0
10
-119.75431470223378
20
-61.704868442586388
30
0
10
-119.75548989254997
20
-62.156677853610489
30
0
0
SPLINE
5
168
100
AcDbEntity
8
0
100
AcDbSpline
70
0
71
3
72
8
73
4
74
0
42
0.000000001
43
0.0000000001
44
0.0000000001
40
0
40
0
40
0
40
0
40
1
40
1
40
1
40
1
10
-119.75548989254997
20
-62.156677853610489
30
0
10
-119.760619221345
20
-64.280816237247564
30
0
10
-119.7648427919284
20
-65.996025224178823
30
0
10
-119.76816060430048
20
-67.302304814404494
30
0
0
SPLINE
5
169
100
AcDbEntity
8
0
100
AcDbSpline
70
0
71
3
72
8
73
4
74
0
42
0.000000001
43
0.0000000001
44
0.0000000001
40
0
40
0
40
0
40
0
40
1
40
1
40
1
40
1
10
-119.76816060430048
20
-67.302304814404494
30
0
10
-119.60878283795432
20
-68.343304747775989
30
0
10
-119.31210923655671
20
-68.641524414173404
30
0
10
-118.2719567322893
20
-68.806359784197042
30
0
0
SPLINE
5
170
100
AcDbEntity
8
0
100
AcDbSpline
70
0
71
3
72
8
73
4
74
0
42
0.000000001
43
0.0000000001
44
0.0000000001
40
0
40
0
40
0
40
0
40
1
40
1
40
1
40
1
10
-118.2719567322893
20
-68.806359784196914
30
0
10
-116.67091685241581
20
-68.810678887075909
30
0
10
-115.02717643481895
20
-68.815266604225229
30
0
10
-113.34073547949843
20
-68.82012293564469
30
0
0
SPLINE
5
171
100
AcDbEntity
8
0
100
AcDbSpline
70
0
71
3
72
8
73
4
74
0
42
0.000000001
43
0.0000000001
44
0.0000000001
40
0
40
0
40
0
40
0
40
1
40
1
40
1
40
1
10
-113.34073547949843
20
-68.82012293564469
30
0
10
-113.27331335248283
20
-68.820884684461561
30
0
10
-113.20589122546723
20
-68.821646433278346
30
0
10
-113.13846909845184
20
-68.822408182095188
30
0
0
SPLINE
5
172
100
AcDbEntity
8
0
100
AcDbSpline
70
0
71
3
72
8
73
4
74
0
42
0.000000001
43
0.0000000001
44
0.0000000001
40
0
40
0
40
0
40
0
40
1
40
1
40
1
40
1
10
-113.13846909845184
20
-68.822408182095188
30
0
10
-111.65585542950028
20
-68.880133235928596
30
0
10
-111.27937979628926
20
-68.935792355099622
30
0
10
-109.85298372072536
20
-69.344602971866266
30
0
0
SPLINE
5
173
100
AcDbEntity
8
0
100
AcDbSpline
70
0
71
3
72
8
73
4
74
0
42
0.000000001
43
0.0000000001
44
0.0000000001
40
0
40
0
40
0
40
0
40
1
40
1
40
1
40
1
10
-109.85298372072536
20
-69.344602971866266
30
0
10
-109.80229912737224
20
-69.359544744229481
30
0
10
-109.75161453401897
20
-69.374486516592754
30
0
10
-109.70092994066584
20
-69.389428288955997
30
0
0
SPLINE
5
174
100
AcDbEntity
8
0
100
AcDbSpline
70
0
71
3
72
8
73
4
74
0
42
0.000000001
43
0.0000000001
44
0.0000000001
40
0
40
0
40
0
40
0
40
1
40
1
40
1
40
1
10
-109.70092994066584
20
-69.389428288955997
30
0
10
-105.06382406686187
20
-70.957287051012244
30
0
10
-103.79306568635039
20
-72.18099437295237
30
0
10
-102.02124988931311
20
-76.743683554109566
30
0
0
SPLINE
5
175
100
AcDbEntity
8
0
100
AcDbSpline
70
0
71
3
72
8
73
4
74
0
42
0.000000001
43
0.0000000001
44
0.0000000001
40
0
40
0
40
0
40
0
40
1
40
1
40
1
40
1
10
-102.02124988931311
20
-76.743683554109566
30
0
10
-101.11365290562966
20
-79.242512801031012
30
0
10
-100.20596721537513
20
-81.741309825372952
30
0
10
-99.298192818549296
20
-84.240074627135158
30
0
0
SPLINE
5
176
100
AcDbEntity
8
0
100
AcDbSpline
70
0
71
3
72
8
73
4
74
0
42
0.000000001
43
0.0000000001
44
0.0000000001
40
0
40
0
40
0
40
0
40
1
40
1
40
1
40
1
10
-99.298192818549296
20
-84.240074627135158
30
0
10
-98.955919751332686
20
-84.878373319737761
30
0
10
-98.826838271793662
20
-84.985560987414914
30
0
10
-98.136561436152732
20
-85.204886357957861
30
0
0
SPLINE
5
177
100
AcDbEntity
8
0
100
AcDbSpline
70
0
71
3
72
14
73
10
74
0
42
0.000000001
43
0.0000000001
44
0.0000000001
40
0
40
0
40
0
40
0
40
0.25
40
0.25
40
0.5
40
0.5
40
0.75
40
0.75
40
1
40
1
40
1
40
1
10
-98.136561436152732
20
-85.204886357957861
30
0
10
-92.961822068799677
20
-86.068372348269563
30
0
10
-90.375000257576573
20
-86.426930948159665
30
0
10
-82.54241042970358
20
-87.41588593413185
30
0
10
-78.645685421060548
20
-87.827133501759093
30
0
10
-70.795271693329823
20
-88.491299399991007
30
0
10
-66.827573784938153
20
-88.742959807489811
30
0
10
-59.054472871772958
20
-89.074876639160166
30
0
10
-56.386762138976891
20
-89.14395506421782
30
0
10
-51.140520581866582
20
-89.165343663302679
30
0
0
SPLINE
5
178
100
AcDbEntity
8
0
100
AcDbSpline
70
0
71
3
72
8
73
4
74
0
42
0.000000001
43
0.0000000001
44
0.0000000001
40
0
40
0
40
0
40
0
40
1
40
1
40
1
40
1
10
-51.140520581866582
20
-89.165343663302679
30
0
10
-47.006465906206856
20
-89.168465159117261
30
0
10
-44.651423628705658
20
-89.169795058042752
30
0
10
-38.339358961076329
20
-89.17315286852417
30
0
0
ENDSEC
0
SECTION
2
OBJECTS
0
DICTIONARY
5
C
100
AcDbDictionary
3
ACAD_GROUP
350
D
3
ACAD_MLINESTYLE
350
17
0
DICTIONARY
5
D
100
AcDbDictionary
0
DICTIONARY
5
1A
330
C
100
AcDbDictionary
0
DICTIONARY
5
17
100
AcDbDictionary
0
ENDSEC
0
EOF
